<?xml version="1.0" encoding="UTF-8"?>
<svg xmlns="http://www.w3.org/2000/svg" xmlns:xlink="http://www.w3.org/1999/xlink" width="100px" height="100px" viewBox="0 0 100 100" version="1.1">
<g id="surface1">
<path style=" stroke:none;fill-rule:nonzero;fill:rgb(11.372549%,11.372549%,10.588235%);fill-opacity:1;" d="M 88.949219 57.519531 C 88.5 52.886719 86.421875 48.769531 83.464844 46.597656 C 82.964844 44.789062 82.097656 43.101562 80.914062 41.648438 C 80.742188 39.464844 79.8125 35.199219 75.515625 31.441406 C 76.019531 31.007812 76.441406 30.492188 76.765625 29.914062 C 80.363281 28.316406 82.882812 24.949219 83.164062 22.445312 C 85.078125 20.53125 86.175781 18.265625 86.269531 16.011719 C 86.324219 15.015625 86.132812 14.023438 85.71875 13.117188 C 87.320312 11.402344 87.828125 9.386719 87.152344 7.441406 C 86.078125 4.335938 82.328125 2.320312 77.285156 2.109375 C 75.945312 0.871094 74.058594 0.222656 71.804688 0.222656 C 70.804688 0.230469 69.808594 0.351562 68.835938 0.59375 C 67.921875 0.179688 66.925781 -0.0234375 65.921875 0 C 63.96875 0.0195312 62.054688 0.542969 60.359375 1.515625 C 60.136719 1.488281 59.914062 1.472656 59.6875 1.472656 C 57.183594 1.472656 54.683594 3.195312 53.414062 4.222656 C 52.175781 5.226562 51.066406 6.378906 50.117188 7.660156 C 49.164062 6.382812 48.058594 5.226562 46.820312 4.222656 C 45.550781 3.199219 43.046875 1.472656 40.542969 1.472656 C 40.320312 1.472656 40.097656 1.488281 39.875 1.515625 C 38.179688 0.542969 36.265625 0.0234375 34.3125 0 C 33.308594 -0.0234375 32.3125 0.179688 31.394531 0.59375 C 30.425781 0.351562 29.429688 0.230469 28.433594 0.222656 C 26.171875 0.222656 24.289062 0.871094 22.9375 2.109375 C 17.890625 2.320312 14.136719 4.335938 13.066406 7.441406 C 12.398438 9.386719 12.914062 11.402344 14.503906 13.117188 C 14.089844 14.019531 13.902344 15.007812 13.953125 16 C 14.042969 18.257812 15.152344 20.519531 17.054688 22.433594 C 17.347656 24.9375 19.878906 28.304688 23.457031 29.902344 C 23.785156 30.488281 24.210938 31.007812 24.71875 31.441406 C 20.421875 35.199219 19.492188 39.464844 19.316406 41.648438 C 18.132812 43.101562 17.269531 44.789062 16.773438 46.597656 C 13.816406 48.769531 11.730469 52.886719 11.289062 57.519531 C 10.84375 62.152344 12.109375 66.421875 14.675781 69.144531 C 15.140625 71.453125 16.097656 73.636719 17.476562 75.542969 C 17.785156 79.164062 19.265625 82.582031 21.691406 85.285156 C 24.117188 88.074219 27.375 90.011719 30.988281 90.8125 C 33.144531 92.816406 35.667969 94.378906 38.425781 95.410156 C 39.757812 96.757812 43.625 99.984375 50.121094 99.984375 C 56.617188 99.984375 60.484375 96.757812 61.816406 95.410156 C 64.570312 94.378906 67.097656 92.816406 69.253906 90.8125 C 72.863281 90.011719 76.121094 88.074219 78.546875 85.285156 C 80.972656 82.585938 82.449219 79.171875 82.761719 75.558594 C 84.140625 73.652344 85.097656 71.46875 85.558594 69.160156 C 88.128906 66.421875 89.386719 62.125 88.949219 57.519531 Z M 88.949219 57.519531 "/>
<path style=" stroke:none;fill-rule:nonzero;fill:rgb(27.45098%,68.627451%,29.411765%);fill-opacity:1;" d="M 59.539062 6.707031 C 59.667969 6.671875 59.804688 6.699219 59.90625 6.785156 C 60.007812 6.871094 60.0625 7 60.046875 7.132812 C 59.921875 8.332031 60.640625 8.171875 60.8125 7.960938 C 62.683594 5.632812 64.667969 5.101562 66.445312 5.261719 C 66.585938 5.277344 66.710938 5.367188 66.765625 5.5 C 66.824219 5.632812 66.804688 5.785156 66.714844 5.898438 C 66.007812 6.949219 66.769531 7.144531 67.050781 6.957031 C 69.933594 5.15625 72.683594 5.152344 73.738281 5.90625 C 73.835938 5.980469 73.890625 6.089844 73.898438 6.210938 C 73.902344 6.328125 73.851562 6.445312 73.765625 6.523438 C 72.695312 7.4375 73.292969 7.886719 73.667969 7.746094 C 76.597656 6.714844 80.636719 7.632812 82.042969 8.820312 C 82.132812 8.894531 82.183594 9.007812 82.183594 9.125 C 82.183594 9.242188 82.132812 9.351562 82.042969 9.429688 C 80.265625 11.007812 79.386719 12.277344 78.988281 14.761719 C 78.90625 15.460938 80.070312 15.3125 80.5625 15.1875 C 80.679688 15.160156 80.800781 15.1875 80.894531 15.257812 C 80.992188 15.328125 81.050781 15.4375 81.054688 15.554688 C 81.101562 17.242188 79.507812 19.09375 77.136719 20.675781 C 76.820312 20.886719 76.863281 21.398438 77.589844 21.414062 C 77.726562 21.417969 77.855469 21.496094 77.925781 21.617188 C 77.992188 21.738281 77.996094 21.886719 77.929688 22.007812 C 77.078125 23.578125 75.929688 25.054688 72.015625 26.070312 C 71.851562 26.113281 71.730469 26.257812 71.714844 26.429688 C 71.703125 26.601562 71.800781 26.761719 71.960938 26.828125 C 72.09375 26.878906 72.1875 26.992188 72.214844 27.128906 C 72.238281 27.269531 72.191406 27.410156 72.085938 27.503906 C 68.1875 30.855469 58.304688 29.535156 57.046875 23.902344 C 57.023438 23.792969 57.050781 23.675781 57.121094 23.585938 C 59.464844 20.457031 64.914062 14.332031 73.519531 11.113281 C 73.667969 11.054688 73.746094 10.898438 73.707031 10.746094 C 73.667969 10.59375 73.523438 10.492188 73.367188 10.511719 C 66.234375 11.550781 59.816406 15.417969 55.566406 21.242188 C 55.449219 21.402344 55.234375 21.453125 55.058594 21.359375 C 48.722656 18.078125 53.925781 8.421875 59.539062 6.707031 Z M 59.539062 6.707031 "/>
<path style=" stroke:none;fill-rule:nonzero;fill:rgb(27.45098%,68.627451%,29.411765%);fill-opacity:1;" d="M 22.296875 22 C 22.230469 21.878906 22.230469 21.730469 22.300781 21.609375 C 22.367188 21.488281 22.492188 21.414062 22.632812 21.40625 C 23.355469 21.40625 23.398438 20.878906 23.085938 20.667969 C 20.710938 19.066406 19.121094 17.234375 19.164062 15.546875 C 19.175781 15.433594 19.238281 15.328125 19.332031 15.261719 C 19.425781 15.195312 19.546875 15.171875 19.660156 15.199219 C 20.152344 15.324219 21.3125 15.472656 21.230469 14.773438 C 20.832031 12.289062 19.960938 11.019531 18.179688 9.441406 C 18.089844 9.363281 18.039062 9.253906 18.039062 9.136719 C 18.039062 9.019531 18.089844 8.90625 18.179688 8.832031 C 19.589844 7.632812 23.628906 6.726562 26.554688 7.761719 C 26.933594 7.898438 27.53125 7.449219 26.464844 6.535156 C 26.375 6.457031 26.328125 6.339844 26.332031 6.222656 C 26.335938 6.101562 26.394531 5.992188 26.488281 5.921875 C 27.542969 5.164062 30.292969 5.167969 33.175781 6.96875 C 33.457031 7.15625 34.214844 6.96875 33.511719 5.910156 C 33.425781 5.796875 33.40625 5.644531 33.460938 5.511719 C 33.519531 5.378906 33.640625 5.289062 33.785156 5.273438 C 35.558594 5.113281 37.542969 5.644531 39.414062 7.972656 C 39.585938 8.183594 40.304688 8.332031 40.179688 7.144531 C 40.167969 7.011719 40.21875 6.882812 40.320312 6.800781 C 40.421875 6.714844 40.558594 6.683594 40.683594 6.71875 C 46.285156 8.433594 51.503906 18.09375 45.167969 21.363281 C 44.992188 21.457031 44.773438 21.410156 44.65625 21.246094 C 40.414062 15.421875 34 11.546875 26.867188 10.503906 C 26.710938 10.480469 26.5625 10.582031 26.523438 10.734375 C 26.484375 10.886719 26.5625 11.046875 26.710938 11.105469 C 35.304688 14.324219 40.757812 20.449219 43.113281 23.574219 C 43.179688 23.667969 43.207031 23.785156 43.183594 23.894531 C 41.933594 29.535156 32.046875 30.855469 28.148438 27.496094 C 28.042969 27.402344 27.992188 27.261719 28.019531 27.121094 C 28.042969 26.984375 28.140625 26.867188 28.273438 26.820312 C 28.429688 26.753906 28.527344 26.59375 28.515625 26.421875 C 28.503906 26.25 28.382812 26.105469 28.214844 26.0625 C 24.289062 25.054688 23.140625 23.601562 22.296875 22 Z M 22.296875 22 "/>
<path style=" stroke:none;fill-rule:nonzero;fill:rgb(80.392157%,13.72549%,33.333333%);fill-opacity:1;" d="M 75.074219 39.242188 C 76.699219 43.5625 75.4375 45.644531 71.578125 43.445312 C 68.46875 41.71875 65.722656 39.410156 63.488281 36.644531 C 60.585938 33.191406 62.472656 31.65625 67.042969 32.488281 C 70.59375 33.429688 73.539062 35.910156 75.074219 39.242188 Z M 75.074219 39.242188 "/>
<path style=" stroke:none;fill-rule:nonzero;fill:rgb(80.392157%,13.72549%,33.333333%);fill-opacity:1;" d="M 57.792969 34.398438 C 63.304688 38.984375 56.992188 42.222656 50.117188 42.222656 C 43.238281 42.222656 36.914062 38.984375 42.445312 34.398438 C 46.925781 30.800781 53.308594 30.800781 57.792969 34.398438 Z M 57.792969 34.398438 "/>
<path style=" stroke:none;fill-rule:nonzero;fill:rgb(80.392157%,13.72549%,33.333333%);fill-opacity:1;" d="M 25.15625 39.242188 C 26.699219 35.910156 29.648438 33.441406 33.199219 32.503906 C 37.761719 31.671875 39.648438 33.199219 36.742188 36.660156 C 34.511719 39.425781 31.761719 41.734375 28.652344 43.460938 C 24.800781 45.644531 23.53125 43.5625 25.15625 39.242188 Z M 25.15625 39.242188 "/>
<path style=" stroke:none;fill-rule:nonzero;fill:rgb(80.392157%,13.72549%,33.333333%);fill-opacity:1;" d="M 17.199219 63.257812 C 15.917969 59.796875 16.253906 55.945312 18.113281 52.761719 C 20.152344 49.292969 22.199219 49.433594 23.011719 52.359375 C 24.046875 56.40625 23.671875 60.6875 21.953125 64.492188 C 20.433594 67.496094 18.546875 66.484375 17.199219 63.257812 Z M 17.199219 63.257812 "/>
<path style=" stroke:none;fill-rule:nonzero;fill:rgb(80.392157%,13.72549%,33.333333%);fill-opacity:1;" d="M 31.867188 85.695312 C 26.980469 84.667969 22.828125 79.742188 22.644531 74.746094 C 23.40625 56.964844 49.039062 88.726562 31.867188 85.695312 Z M 31.867188 85.695312 "/>
<path style=" stroke:none;fill-rule:nonzero;fill:rgb(80.392157%,13.72549%,33.333333%);fill-opacity:1;" d="M 32.398438 63.542969 C 28.101562 61.0625 26.960938 54.984375 29.855469 49.96875 C 32.753906 44.953125 38.585938 42.898438 42.882812 45.382812 C 47.183594 47.867188 48.320312 53.945312 45.425781 58.957031 C 42.527344 63.96875 36.6875 66.023438 32.398438 63.542969 Z M 32.398438 63.542969 "/>
<path style=" stroke:none;fill-rule:nonzero;fill:rgb(80.392157%,13.72549%,33.333333%);fill-opacity:1;" d="M 57.289062 92.484375 C 53.003906 95.566406 47.226562 95.566406 42.945312 92.484375 C 38.683594 89.542969 42.96875 86.160156 50.117188 86.160156 C 57.265625 86.160156 61.546875 89.542969 57.289062 92.484375 Z M 57.289062 92.484375 "/>
<path style=" stroke:none;fill-rule:nonzero;fill:rgb(80.392157%,13.72549%,33.333333%);fill-opacity:1;" d="M 60.09375 73.148438 C 60.09375 68.425781 55.625 64.597656 50.117188 64.597656 C 44.605469 64.597656 40.140625 68.425781 40.140625 73.148438 C 40.140625 77.871094 44.605469 81.699219 50.117188 81.699219 C 55.625 81.699219 60.09375 77.871094 60.09375 73.148438 Z M 60.09375 73.148438 "/>
<path style=" stroke:none;fill-rule:nonzero;fill:rgb(80.392157%,13.72549%,33.333333%);fill-opacity:1;" d="M 54.800781 58.957031 C 51.90625 53.945312 53.042969 47.863281 57.34375 45.382812 C 61.644531 42.902344 67.472656 44.957031 70.367188 49.96875 C 73.265625 54.980469 72.128906 61.0625 67.828125 63.542969 C 63.527344 66.023438 57.710938 63.972656 54.800781 58.957031 Z M 54.800781 58.957031 "/>
<path style=" stroke:none;fill-rule:nonzero;fill:rgb(80.392157%,13.72549%,33.333333%);fill-opacity:1;" d="M 68.363281 85.695312 C 51.199219 88.726562 76.828125 56.964844 77.601562 74.746094 C 77.402344 79.742188 73.253906 84.667969 68.363281 85.695312 Z M 68.363281 85.695312 "/>
<path style=" stroke:none;fill-rule:nonzero;fill:rgb(80.392157%,13.72549%,33.333333%);fill-opacity:1;" d="M 83.046875 63.257812 C 81.6875 66.484375 79.800781 67.496094 78.292969 64.5 C 76.570312 60.695312 76.199219 56.414062 77.230469 52.367188 C 78.03125 49.433594 80.097656 49.292969 82.132812 52.769531 C 83.988281 55.953125 84.324219 59.796875 83.046875 63.257812 Z M 83.046875 63.257812 "/>
</g>
</svg>
