<svg id="Layer_1" data-name="Layer 1" xmlns="http://www.w3.org/2000/svg" viewBox="0 0 194.58 250"><path d="M194.37,143.8c-1.12-11.58-6.32-21.88-13.71-27.31a33.85,33.85,0,0,0-6.37-12.37c-.43-5.46-2.76-16.12-13.5-25.52a14.18,14.18,0,0,0,3.12-3.81c9-4,15.3-12.42,16-18.68,4.79-4.78,7.53-10.45,7.76-16.08a15.4,15.4,0,0,0-1.37-7.24c4-4.28,5.27-9.32,3.58-14.19-2.68-7.76-12.06-12.8-24.67-13.33C161.86,2.18,157.15.56,151.51.56a31.79,31.79,0,0,0-7.42.92A16.86,16.86,0,0,0,136.8,0a28.52,28.52,0,0,0-13.9,3.79,13.29,13.29,0,0,0-1.68-.11c-6.26,0-12.51,4.31-15.68,6.88a47.36,47.36,0,0,0-8.25,8.59,47.64,47.64,0,0,0-8.24-8.59C85.88,8,79.62,3.68,73.36,3.68a13,13,0,0,0-1.67.11A28.58,28.58,0,0,0,57.78,0a16.86,16.86,0,0,0-7.29,1.48A31.71,31.71,0,0,0,43.08.56c-5.65,0-10.36,1.62-13.74,4.71-12.61.53-22,5.57-24.67,13.33C3,23.47,4.29,28.51,8.26,32.79A15.4,15.4,0,0,0,6.88,40c.23,5.64,3,11.3,7.76,16.08.73,6.26,7.06,14.68,16,18.68A14.18,14.18,0,0,0,33.8,78.6C23.05,88,20.73,98.66,20.29,104.12a33.83,33.83,0,0,0-6.36,12.37C6.54,121.92,1.33,132.22.22,143.8s2.05,22.25,8.47,29.06a41.2,41.2,0,0,0,7,16,41.75,41.75,0,0,0,10.54,24.35,43.13,43.13,0,0,0,23.24,13.82,56.4,56.4,0,0,0,18.59,11.5c3.33,3.36,13,11.43,29.24,11.43s25.91-8.07,29.24-11.43a56.3,56.3,0,0,0,18.59-11.5,43.13,43.13,0,0,0,23.24-13.82A41.69,41.69,0,0,0,178.9,188.9a41.05,41.05,0,0,0,7-16C192.32,166.05,195.47,155.31,194.37,143.8Z" fill="#1d1d1b"/><path d="M120.85,16.77a1,1,0,0,1,1.27,1.06c-.32,3,1.48,2.6,1.91,2.07,4.68-5.82,9.64-7.15,14.08-6.75a1,1,0,0,1,.68,1.6c-1.77,2.62.13,3.11.84,2.64,7.2-4.5,14.08-4.51,16.72-2.62a1,1,0,0,1,.06,1.54c-2.67,2.28-1.18,3.41-.24,3.06,7.32-2.58,17.42-.29,20.94,2.68a1,1,0,0,1,0,1.52c-4.45,3.95-6.64,7.12-7.64,13.33-.2,1.75,2.71,1.38,3.94,1.07a1,1,0,0,1,1.23.92c.11,4.22-3.87,8.84-9.8,12.8-.79.53-.68,1.81,1.13,1.85a1,1,0,0,1,.85,1.48c-2.12,3.93-5,7.62-14.78,10.16a1,1,0,0,0-.14,1.89,1,1,0,0,1,.31,1.69c-9.74,8.38-34.45,5.08-37.59-9a1,1,0,0,1,.18-.8c5.86-7.82,19.49-23.13,41-31.18a.78.78,0,0,0-.38-1.5,67,67,0,0,0-44.5,26.83,1,1,0,0,1-1.27.29C93.81,45.2,106.81,21.05,120.85,16.77Z" fill="#46af4b"/><path d="M27.74,55a1,1,0,0,1,.84-1.48c1.81,0,1.92-1.32,1.13-1.85-5.93-4-9.91-8.58-9.8-12.8A1,1,0,0,1,21.15,38c1.23.31,4.13.68,3.93-1.07-1-6.21-3.18-9.38-7.63-13.33a1,1,0,0,1,0-1.52c3.52-3,13.62-5.26,20.94-2.68.94.35,2.44-.78-.23-3.06a1,1,0,0,1,.06-1.54c2.64-1.89,9.51-1.88,16.72,2.62.7.47,2.6,0,.84-2.64a1,1,0,0,1,.68-1.6c4.44-.4,9.4.93,14.08,6.75.42.53,2.22.9,1.91-2.07a1,1,0,0,1,1.26-1.06c14,4.28,27.05,28.43,11.21,36.61a1,1,0,0,1-1.28-.29A67,67,0,0,0,39.17,26.26a.78.78,0,0,0-.39,1.5c21.48,8.05,35.11,23.36,41,31.18a1,1,0,0,1,.18.8c-3.13,14.1-27.84,17.4-37.59,9a1,1,0,0,1,.31-1.69,1,1,0,0,0-.14-1.89C32.72,62.64,29.85,59,27.74,55Z" fill="#46af4b"/><path d="M159.69,98.11c4.06,10.8.9,16-8.74,10.5a69.08,69.08,0,0,1-20.23-17c-7.26-8.63-2.54-12.47,8.89-10.39A30.83,30.83,0,0,1,159.69,98.11Z" fill="#cd2355"/><path d="M116.48,86c13.78,11.46-2,19.56-19.19,19.56s-33-8.1-19.18-19.56a30.64,30.64,0,0,1,38.37,0Z" fill="#cd2355"/><path d="M34.89,98.11A30.83,30.83,0,0,1,55,81.26C66.4,79.18,71.12,83,63.86,91.65a69,69,0,0,1-20.23,17C34,114.11,30.83,108.91,34.89,98.11Z" fill="#cd2355"/><path d="M15,158.14a30.83,30.83,0,0,1,2.28-26.24c5.1-8.67,10.22-8.32,12.25-1a46,46,0,0,1-2.65,30.33C23.08,168.74,18.37,166.21,15,158.14Z" fill="#cd2355"/><path d="M51.67,214.24c-12.22-2.57-22.6-14.88-23.06-27.37C30.52,142.41,94.6,221.82,51.67,214.24Z" fill="#cd2355"/><path d="M53,158.86c-10.75-6.2-13.6-21.4-6.36-33.94s21.82-17.67,32.57-11.46,13.59,21.4,6.35,33.93S63.72,165.06,53,158.86Z" fill="#cd2355"/><path d="M115.22,231.21a30.7,30.7,0,0,1-35.86,0c-10.65-7.35.06-15.81,17.93-15.81S125.87,223.86,115.22,231.21Z" fill="#cd2355"/><ellipse cx="97.29" cy="182.87" rx="24.94" ry="21.38" fill="#cd2355"/><path d="M109,147.39c-7.23-12.53-4.39-27.73,6.36-33.93s25.32-1.07,32.56,11.46,4.4,27.74-6.35,33.94S116.28,159.93,109,147.39Z" fill="#cd2355"/><path d="M142.91,214.24C100,221.82,164.07,142.41,166,186.87,165.51,199.36,155.13,211.67,142.91,214.24Z" fill="#cd2355"/><path d="M179.62,158.14c-3.4,8.07-8.12,10.6-11.89,3.11a46,46,0,0,1-2.65-30.33c2-7.34,7.16-7.69,12.25,1A30.83,30.83,0,0,1,179.62,158.14Z" fill="#cd2355"/></svg>