<?xml version="1.0" encoding="UTF-8" standalone="no"?>
<!DOCTYPE svg PUBLIC "-//W3C//DTD SVG 1.1//EN" "http://www.w3.org/Graphics/SVG/1.1/DTD/svg11.dtd">
<svg width="100%" height="100%" viewBox="0 0 1427 701" version="1.1" xmlns="http://www.w3.org/2000/svg" xmlns:xlink="http://www.w3.org/1999/xlink" xml:space="preserve" xmlns:serif="http://www.serif.com/" style="fill-rule:evenodd;clip-rule:evenodd;stroke-miterlimit:10;">
    <g id="Artboard1" transform="matrix(1,0,0,1,-249.385,-1258.54)">
        <rect x="249.385" y="1258.54" width="1426.15" height="700.393" style="fill:none;"/>
        <clipPath id="_clip1">
            <rect x="249.385" y="1258.54" width="1426.15" height="700.393"/>
        </clipPath>
        <g clip-path="url(#_clip1)">
            <g id="Layer-1" serif:id="Layer 1" transform="matrix(4.16667,0,0,4.16667,147.428,188.358)">
                <g>
                    <g transform="matrix(0.240452,0,0,0.236024,-6.48968,7.04159)">
                        <path d="M1552.61,1111.38L1552.61,1718.67C1552.61,1747.62 1529.54,1771.12 1501.12,1771.12L180.626,1771.12C152.21,1771.12 129.139,1747.62 129.139,1718.67L129.139,1111.38C129.139,1082.43 152.21,1058.93 180.626,1058.93L1501.12,1058.93C1529.54,1058.93 1552.61,1082.43 1552.61,1111.38Z" style="fill:rgb(44,48,120);"/>
                    </g>
                    <g transform="matrix(1,0,0,1,316.817,375.771)">
                        <path d="M0,-59.676L-254.135,-59.676C-257.174,-59.676 -259.638,-57.773 -259.638,-55.427L-259.638,-4.25C-259.638,-1.903 -257.174,0 -254.135,0L0,0C3.039,0 5.503,-1.903 5.503,-4.25L5.503,-55.427C5.503,-57.773 3.039,-59.676 0,-59.676" style="fill:rgb(197,229,248);fill-rule:nonzero;"/>
                    </g>
                    <g transform="matrix(1,0,0,1,305.775,340.108)">
                        <path d="M0,29.651L-47.619,29.651L-47.619,0L0,0L5,13.825L0,29.651Z" style="fill:rgb(21,133,198);fill-rule:nonzero;"/>
                    </g>
                    <g transform="matrix(1,0,0,1,258.705,340.108)">
                        <path d="M0,29.651L-47.442,29.651L-42.442,13.825L-47.442,0L0,0L5,13.825L0,29.651Z" style="fill:white;fill-rule:nonzero;"/>
                    </g>
                    <g transform="matrix(1,0,0,1,258.705,369.759)">
                        <path d="M0,-29.651L-3,-29.651L-3,-28.651L-0.702,-28.651L-0.437,-27.919L0.504,-28.259L0.026,-29.579L0.02,-29.597L0.019,-29.597L0.019,-29.599C0.018,-29.6 0.018,-29.601 0.018,-29.601L0.018,-29.602L0.017,-29.603L0.017,-29.605C0.015,-29.609 0.014,-29.613 0.013,-29.616L0.012,-29.617C0.011,-29.62 0.01,-29.624 0.009,-29.627C0.008,-29.63 0.007,-29.633 0.006,-29.635C0.002,-29.646 0,-29.651 0,-29.651M1.524,-25.437L0.583,-25.097L1.604,-22.276L2.544,-22.616L1.524,-25.437ZM3.564,-19.795L2.624,-19.455L3.644,-16.634L4.585,-16.974L3.564,-19.795ZM3.511,-14.431L2.607,-11.57L3.56,-11.269L4.464,-14.129L3.511,-14.431ZM1.703,-8.709L0.799,-5.849L1.753,-5.547L2.657,-8.408L1.703,-8.709ZM-0.105,-2.988L-0.954,-0.301L-0.182,-0.057L-0.954,-0.301L-0.182,-0.057L-0.182,0L0,0C0,0 0.003,-0.01 0.009,-0.03L0.01,-0.03C0.013,-0.04 0.016,-0.052 0.021,-0.066L0.021,-0.067C0.023,-0.074 0.026,-0.081 0.028,-0.089L0.028,-0.09C0.029,-0.092 0.03,-0.094 0.03,-0.095L0.03,-0.096C0.031,-0.098 0.031,-0.1 0.032,-0.102C0.033,-0.104 0.034,-0.106 0.034,-0.108L0.034,-0.109C0.035,-0.11 0.035,-0.111 0.035,-0.112L0.038,-0.121L0.038,-0.122L0.039,-0.123L0.039,-0.124C0.039,-0.125 0.04,-0.125 0.04,-0.126L0.04,-0.127L0.042,-0.132L0.042,-0.134C0.043,-0.135 0.043,-0.135 0.043,-0.136L0.043,-0.137L0.044,-0.138L0.044,-0.14L0.047,-0.149L0.047,-0.15L0.048,-0.151L0.048,-0.153C0.049,-0.155 0.05,-0.157 0.05,-0.159L0.051,-0.161L0.051,-0.162C0.051,-0.162 0.051,-0.163 0.052,-0.163L0.052,-0.166C0.053,-0.166 0.053,-0.167 0.053,-0.167L0.054,-0.171L0.063,-0.199L0.063,-0.201L0.066,-0.207L0.849,-2.687L-0.105,-2.988ZM-3.182,-1L-6.182,-1L-6.182,0L-3.182,0L-3.182,-1ZM-9.182,-1L-12.182,-1L-12.182,0L-9.182,0L-9.182,-1ZM-15.182,-1L-18.182,-1L-18.182,0L-15.182,0L-15.182,-1ZM-21.182,-1L-24.182,-1L-24.182,0L-21.182,0L-21.182,-1ZM-27.182,-1L-30.182,-1L-30.182,0L-27.182,0L-27.182,-1ZM-33.182,-1L-36.182,-1L-36.182,0L-33.182,0L-33.182,-1ZM-39.182,-1L-42.182,-1L-42.182,0L-39.182,0L-39.182,-1ZM-45.182,-1L-47.126,-1L-47.442,0L-45.182,0L-45.182,-1ZM-45.411,-6.427C-45.411,-6.427 -45.475,-6.225 -45.569,-5.929C-45.571,-5.922 -45.573,-5.915 -45.575,-5.908L-45.577,-5.902C-45.578,-5.898 -45.58,-5.894 -45.581,-5.89L-45.581,-5.888C-45.582,-5.885 -45.588,-5.867 -45.588,-5.867C-45.588,-5.867 -45.588,-5.866 -45.589,-5.866L-45.589,-5.864L-45.59,-5.861C-45.59,-5.86 -45.591,-5.858 -45.591,-5.857L-45.595,-5.845C-45.595,-5.844 -45.596,-5.843 -45.596,-5.842L-45.596,-5.84C-45.597,-5.84 -45.597,-5.839 -45.597,-5.839L-46.315,-3.566L-45.361,-3.265L-44.458,-6.126L-45.411,-6.427ZM-43.604,-12.148L-44.122,-10.507L-44.122,-10.506L-44.125,-10.497C-44.126,-10.496 -44.126,-10.495 -44.126,-10.494L-44.127,-10.492C-44.128,-10.489 -44.128,-10.487 -44.129,-10.485L-44.129,-10.484C-44.328,-9.855 -44.507,-9.288 -44.507,-9.288L-43.554,-8.986L-42.65,-11.847L-43.604,-12.148ZM-42.23,-18.181L-43.171,-17.841L-42.442,-15.825C-42.442,-15.825 -42.443,-15.822 -42.445,-15.816C-42.446,-15.811 -42.449,-15.804 -42.452,-15.794L-42.452,-15.792L-42.453,-15.791L-42.453,-15.79C-42.453,-15.789 -42.454,-15.787 -42.454,-15.786C-42.455,-15.785 -42.455,-15.783 -42.456,-15.782L-42.456,-15.781C-42.456,-15.78 -42.457,-15.778 -42.457,-15.777C-42.458,-15.775 -42.458,-15.774 -42.459,-15.772L-42.459,-15.771C-42.46,-15.768 -42.461,-15.765 -42.462,-15.762L-42.462,-15.76C-42.463,-15.76 -42.463,-15.759 -42.463,-15.759L-42.463,-15.758C-42.463,-15.758 -42.463,-15.757 -42.464,-15.756L-42.464,-15.755C-42.464,-15.755 -42.464,-15.754 -42.465,-15.753L-42.465,-15.752L-42.468,-15.742L-42.47,-15.736L-42.7,-15.009L-41.746,-14.708L-41.488,-15.524L-41.386,-15.847L-41.501,-16.166L-42.23,-18.181ZM-44.271,-23.824L-45.211,-23.484C-45.211,-23.484 -45.071,-23.096 -44.894,-22.607L-44.191,-20.663L-43.251,-21.003L-44.271,-23.824ZM-46.312,-29.466L-47.252,-29.126C-47.252,-29.126 -46.813,-27.911 -46.511,-27.076L-46.51,-27.075C-46.508,-27.068 -46.505,-27.061 -46.502,-27.054L-46.502,-27.053C-46.502,-27.052 -46.502,-27.051 -46.501,-27.051L-46.232,-26.305L-45.291,-26.645L-46.312,-29.466ZM-42,-29.651L-45,-29.651L-45,-28.651L-42,-28.651L-42,-29.651ZM-36,-29.651L-39,-29.651L-39,-28.651L-36,-28.651L-36,-29.651ZM-30,-29.651L-33,-29.651L-33,-28.651L-30,-28.651L-30,-29.651ZM-24,-29.651L-27,-29.651L-27,-28.651L-24,-28.651L-24,-29.651ZM-18,-29.651L-21,-29.651L-21,-28.651L-18,-28.651L-18,-29.651ZM-12,-29.651L-15,-29.651L-15,-28.651L-12,-28.651L-12,-29.651ZM-6,-29.651L-9,-29.651L-9,-28.651L-6,-28.651L-6,-29.651Z" style="fill:rgb(21,133,198);fill-rule:nonzero;"/>
                    </g>
                    <g transform="matrix(1,0,0,1,211.264,340.108)">
                        <path d="M0,29.651L-47.619,29.651L-47.619,0L0,0L5,13.825L0,29.651Z" style="fill:rgb(21,133,198);fill-rule:nonzero;"/>
                    </g>
                    <g transform="matrix(1,0,0,1,163.961,340.108)">
                        <path d="M0,29.651L-47.619,29.651L-47.619,0L0,0L5,13.825L0,29.651Z" style="fill:white;fill-rule:nonzero;"/>
                    </g>
                    <g transform="matrix(1,0,0,1,116.52,340.108)">
                        <path d="M0,29.651L-47.619,29.651L-47.619,0L0,0L5,13.825L0,29.651Z" style="fill:rgb(21,133,198);fill-rule:nonzero;"/>
                    </g>
                    <g transform="matrix(1,0,0,1,255.926,286.361)">
                        <path d="M0,-22.549L-139.424,-22.549C-142.464,-22.549 -144.927,-20.085 -144.927,-17.046L-144.927,-5.503C-144.927,-2.464 -142.464,0 -139.424,0L0,0C3.039,0 5.503,-2.464 5.503,-5.503L5.503,-17.046C5.503,-20.085 3.039,-22.549 0,-22.549Z" style="fill:none;fill-rule:nonzero;stroke:rgb(142,193,233);stroke-width:1px;"/>
                    </g>
                    <g transform="matrix(1,0,0,1,223.867,415.952)">
                        <path d="M0,-22.882L-145.998,-22.882C-149.485,-22.882 -152.313,-20.055 -152.313,-16.567L-152.313,-6.315C-152.313,-2.827 -149.485,0 -145.998,0L0,0C3.488,0 6.315,-2.827 6.315,-6.315L6.315,-16.567C6.315,-20.055 3.488,-22.882 0,-22.882Z" style="fill:none;fill-rule:nonzero;stroke:rgb(142,193,233);stroke-width:1.15px;stroke-dasharray:4.63,4.63;"/>
                    </g>
                    <g transform="matrix(1,0,0,1,255.807,412.321)">
                        <path d="M0,-15.62L-7.442,-15.62C-9.567,-15.62 -11.289,-13.898 -11.289,-11.773L-11.289,-3.847C-11.289,-1.722 -9.567,0 -7.442,0L0,0C2.125,0 3.847,-1.722 3.847,-3.847L3.847,-11.773C3.847,-13.898 2.125,-15.62 0,-15.62Z" style="fill:none;fill-rule:nonzero;stroke:rgb(142,193,233);stroke-width:1px;stroke-dasharray:4,4;"/>
                    </g>
                    <g transform="matrix(0.24,0,0,0.24,90.2748,206.691)">
                        <g transform="matrix(33.3333,0,0,33.3333,678.295,296.961)">
                        </g>
                        <text x="118.783px" y="296.961px" style="font-family:'Roboto-Regular', 'Roboto';font-size:33.333px;fill:white;">Pre-instru<tspan x="262.186px " y="296.961px ">c</tspan>tion (tex<tspan x="400.755px " y="296.961px ">t</tspan>, video, <tspan x="520.949px " y="296.961px ">q</tspan>uestions)</text>
                    </g>
                    <g transform="matrix(0.24,0,0,0.24,57.3395,263.186)">
                        <text x="111.047px" y="371.297px" style="font-family:'Roboto-Regular', 'Roboto';font-size:33.333px;fill:white;">Solo</text>
                        <g transform="matrix(33.3333,0,0,33.3333,212.556,411.297)">
                        </g>
                        <text x="75.447px" y="411.297px" style="font-family:'Roboto-Regular', 'Roboto';font-size:33.333px;fill:white;">response</text>
                    </g>
                    <g transform="matrix(0.24,0,0,0.24,95.1875,263.186)">
                        <text x="171.313px" y="371.297px" style="font-family:'Roboto-Regular', 'Roboto';font-size:33.333px;fill:rgb(35,31,32);">Peer</text>
                        <g transform="matrix(33.3333,0,0,33.3333,285.055,411.297)">
                        </g>
                        <text x="125.247px" y="411.297px" style="font-family:'Roboto-Regular', 'Roboto';font-size:33.333px;fill:rgb(35,31,32);">discussion</text>
                    </g>
                    <g transform="matrix(0.24,0,0,0.24,133.096,263.186)">
                        <text x="209.86px" y="371.297px" style="font-family:'Roboto-Regular', 'Roboto';font-size:33.333px;fill:white;">Peer</text>
                        <g transform="matrix(33.3333,0,0,33.3333,312.236,411.297)">
                        </g>
                        <text x="175.127px" y="411.297px" style="font-family:'Roboto-Regular', 'Roboto';font-size:33.333px;fill:white;">response</text>
                    </g>
                    <g transform="matrix(0.24,0,0,0.24,65.2131,304.652)">
                        <g transform="matrix(33.3333,0,0,33.3333,628.071,425.857)">
                        </g>
                        <text x="85.807px" y="425.857px" style="font-family:'Roboto-Regular', 'Roboto';font-size:33.333px;fill:white;">Optional fol<tspan x="256.986px " y="425.857px ">l</tspan>ow-up MCQ f<tspan x="457.208px " y="425.857px ">o</tspan>r retention</text>
                    </g>
                    <g transform="matrix(0.24,0,0,0.24,205.552,301.61)">
                        <text x="270.463px" y="421.855px" style="font-family:'Roboto-Regular', 'Roboto';font-size:33.333px;fill:white;">Optional</text>
                        <g transform="matrix(33.3333,0,0,33.3333,334.947,461.855)">
                        </g>
                        <text x="270.463px" y="461.855px" style="font-family:'Roboto-Regular', 'Roboto';font-size:33.333px;fill:white;">step</text>
                    </g>
                    <g transform="matrix(0.24,0,0,0.24,199.995,304.65)">
                        <g transform="matrix(33.3333,0,0,33.3333,281.446,425.855)">
                        </g>
                        <text x="263.151px" y="425.855px" style="font-family:'Roboto-Regular', 'Roboto';font-size:33.333px;fill:white;">=</text>
                    </g>
                    <g transform="matrix(0.24,0,0,0.24,171.516,263.19)">
                        <text x="233.413px" y="371.303px" style="font-family:'Roboto-Regular', 'Roboto';font-size:33.333px;fill:rgb(35,31,32);">Share</text>
                        <g transform="matrix(33.3333,0,0,33.3333,326.383,411.303)">
                        </g>
                        <text x="225.679px" y="411.303px" style="font-family:'Roboto-Regular', 'Roboto';font-size:33.333px;fill:rgb(35,31,32);">results</text>
                    </g>
                    <g transform="matrix(0.24,0,0,0.24,202.628,263.19)">
                        <text x="305.349px" y="371.303px" style="font-family:'Roboto-Regular', 'Roboto';font-size:33.333px;fill:white;">Class</text>
                        <g transform="matrix(33.3333,0,0,33.3333,426.424,411.303)">
                        </g>
                        <text x="266.615px" y="411.303px" style="font-family:'Roboto-Regular', 'Roboto';font-size:33.333px;fill:white;">discussion</text>
                    </g>
                    <g transform="matrix(0.24,0,0,0.24,59.4351,244.996)">
                        <g transform="matrix(37.5,0,0,37.5,1005.35,350.489)">
                        </g>
                        <text x="78.204px" y="350.489px" style="font-family:'Roboto-Regular', 'Roboto';font-size:37.5px;fill:rgb(24,29,73);">Misconcept<tspan x="273.873px " y="350.489px ">i</tspan>on-focuse<tspan x="449.309px " y="350.489px ">d</tspan> multiple c<tspan x="642.706px " y="350.489px ">h</tspan>oice quest<tspan x="836.067px " y="350.489px ">i</tspan>on (MCQ)</text>
                    </g>
                    <g transform="matrix(0.24,0,0,0.24,101.629,229.92)">
                        <g transform="matrix(41.6667,0,0,41.6667,133.723,333.777)">
                            <path d="M0.338,-0.241L0.161,-0.241L0.161,-0.374L0.338,-0.374C0.362,-0.374 0.382,-0.378 0.396,-0.386C0.411,-0.394 0.422,-0.405 0.429,-0.42C0.436,-0.434 0.44,-0.451 0.44,-0.469C0.44,-0.488 0.436,-0.506 0.429,-0.523C0.422,-0.54 0.411,-0.553 0.396,-0.563C0.382,-0.573 0.362,-0.579 0.338,-0.579L0.226,-0.579L0.226,-0L0.054,-0L0.054,-0.711L0.338,-0.711C0.395,-0.711 0.444,-0.701 0.485,-0.68C0.526,-0.659 0.558,-0.63 0.58,-0.594C0.602,-0.558 0.613,-0.516 0.613,-0.47C0.613,-0.424 0.602,-0.384 0.58,-0.35C0.558,-0.315 0.526,-0.289 0.485,-0.27C0.444,-0.251 0.395,-0.241 0.338,-0.241Z" style="fill:white;fill-rule:nonzero;"/>
                        </g>
                        <g transform="matrix(41.6667,0,0,41.6667,160.848,333.777)">
                            <path d="M0.302,0.01C0.259,0.01 0.221,0.003 0.187,-0.01C0.153,-0.024 0.125,-0.043 0.101,-0.066C0.078,-0.09 0.06,-0.118 0.048,-0.148C0.036,-0.179 0.03,-0.212 0.03,-0.247L0.03,-0.265C0.03,-0.304 0.035,-0.34 0.046,-0.373C0.057,-0.406 0.073,-0.435 0.094,-0.459C0.115,-0.484 0.141,-0.503 0.173,-0.517C0.205,-0.531 0.242,-0.538 0.285,-0.538C0.322,-0.538 0.356,-0.532 0.385,-0.52C0.415,-0.508 0.44,-0.491 0.461,-0.468C0.481,-0.446 0.497,-0.419 0.508,-0.387C0.519,-0.355 0.524,-0.319 0.524,-0.279L0.524,-0.212L0.093,-0.212L0.093,-0.315L0.364,-0.315L0.364,-0.328C0.364,-0.346 0.361,-0.361 0.355,-0.373C0.348,-0.385 0.339,-0.395 0.327,-0.401C0.315,-0.408 0.3,-0.411 0.283,-0.411C0.265,-0.411 0.251,-0.407 0.239,-0.399C0.227,-0.392 0.219,-0.381 0.212,-0.367C0.206,-0.354 0.201,-0.338 0.199,-0.321C0.196,-0.303 0.195,-0.285 0.195,-0.265L0.195,-0.247C0.195,-0.227 0.198,-0.209 0.203,-0.193C0.208,-0.177 0.216,-0.164 0.226,-0.153C0.237,-0.141 0.249,-0.133 0.263,-0.126C0.278,-0.12 0.294,-0.117 0.313,-0.117C0.335,-0.117 0.358,-0.121 0.379,-0.13C0.401,-0.138 0.42,-0.152 0.436,-0.172L0.51,-0.083C0.5,-0.068 0.484,-0.053 0.465,-0.039C0.445,-0.024 0.421,-0.013 0.394,-0.004C0.367,0.005 0.336,0.01 0.302,0.01Z" style="fill:white;fill-rule:nonzero;"/>
                        </g>
                        <g transform="matrix(41.6667,0,0,41.6667,183.54,333.777)">
                            <path d="M0.302,0.01C0.259,0.01 0.221,0.003 0.187,-0.01C0.153,-0.024 0.125,-0.043 0.101,-0.066C0.078,-0.09 0.06,-0.118 0.048,-0.148C0.036,-0.179 0.03,-0.212 0.03,-0.247L0.03,-0.265C0.03,-0.304 0.035,-0.34 0.046,-0.373C0.057,-0.406 0.073,-0.435 0.094,-0.459C0.115,-0.484 0.141,-0.503 0.173,-0.517C0.205,-0.531 0.242,-0.538 0.285,-0.538C0.322,-0.538 0.356,-0.532 0.385,-0.52C0.415,-0.508 0.44,-0.491 0.461,-0.468C0.481,-0.446 0.497,-0.419 0.508,-0.387C0.519,-0.355 0.524,-0.319 0.524,-0.279L0.524,-0.212L0.093,-0.212L0.093,-0.315L0.364,-0.315L0.364,-0.328C0.364,-0.346 0.361,-0.361 0.355,-0.373C0.348,-0.385 0.339,-0.395 0.327,-0.401C0.315,-0.408 0.3,-0.411 0.283,-0.411C0.265,-0.411 0.251,-0.407 0.239,-0.399C0.227,-0.392 0.219,-0.381 0.212,-0.367C0.206,-0.354 0.201,-0.338 0.199,-0.321C0.196,-0.303 0.195,-0.285 0.195,-0.265L0.195,-0.247C0.195,-0.227 0.198,-0.209 0.203,-0.193C0.208,-0.177 0.216,-0.164 0.226,-0.153C0.237,-0.141 0.249,-0.133 0.263,-0.126C0.278,-0.12 0.294,-0.117 0.313,-0.117C0.335,-0.117 0.358,-0.121 0.379,-0.13C0.401,-0.138 0.42,-0.152 0.436,-0.172L0.51,-0.083C0.5,-0.068 0.484,-0.053 0.465,-0.039C0.445,-0.024 0.421,-0.013 0.394,-0.004C0.367,0.005 0.336,0.01 0.302,0.01Z" style="fill:white;fill-rule:nonzero;"/>
                        </g>
                        <g transform="matrix(41.6667,0,0,41.6667,206.233,333.777)">
                            <path d="M0.212,-0.397L0.212,-0L0.048,-0L0.048,-0.528L0.202,-0.528L0.212,-0.397ZM0.369,-0.532L0.366,-0.379C0.359,-0.38 0.35,-0.381 0.339,-0.382C0.328,-0.383 0.319,-0.383 0.312,-0.383C0.292,-0.383 0.276,-0.381 0.262,-0.377C0.248,-0.372 0.237,-0.366 0.228,-0.357C0.219,-0.349 0.212,-0.338 0.208,-0.325C0.204,-0.312 0.202,-0.297 0.203,-0.279L0.173,-0.299C0.173,-0.334 0.176,-0.367 0.183,-0.396C0.19,-0.425 0.2,-0.45 0.213,-0.471C0.226,-0.493 0.242,-0.509 0.261,-0.521C0.279,-0.532 0.3,-0.538 0.323,-0.538C0.331,-0.538 0.339,-0.538 0.347,-0.537C0.355,-0.536 0.362,-0.534 0.369,-0.532Z" style="fill:white;fill-rule:nonzero;"/>
                        </g>
                        <g transform="matrix(41.6667,0,0,41.6667,222.009,333.777)">
                        </g>
                        <g transform="matrix(41.6667,0,0,41.6667,232.387,333.777)">
                            <path d="M0.22,-0.528L0.22,-0L0.055,-0L0.055,-0.528L0.22,-0.528ZM0.045,-0.665C0.045,-0.688 0.054,-0.707 0.071,-0.722C0.088,-0.737 0.11,-0.745 0.137,-0.745C0.164,-0.745 0.186,-0.737 0.203,-0.722C0.22,-0.707 0.228,-0.688 0.228,-0.665C0.228,-0.641 0.22,-0.622 0.203,-0.607C0.186,-0.592 0.164,-0.584 0.137,-0.584C0.11,-0.584 0.088,-0.592 0.071,-0.607C0.054,-0.622 0.045,-0.641 0.045,-0.665Z" style="fill:white;fill-rule:nonzero;"/>
                        </g>
                        <g transform="matrix(41.6667,0,0,41.6667,243.829,333.777)">
                            <path d="M0.208,-0.416L0.208,-0L0.043,-0L0.043,-0.528L0.198,-0.528L0.208,-0.416ZM0.188,-0.282L0.15,-0.281C0.15,-0.322 0.155,-0.358 0.165,-0.389C0.174,-0.421 0.188,-0.448 0.206,-0.47C0.224,-0.492 0.245,-0.509 0.27,-0.521C0.295,-0.532 0.323,-0.538 0.354,-0.538C0.378,-0.538 0.4,-0.535 0.421,-0.527C0.441,-0.52 0.459,-0.509 0.473,-0.493C0.488,-0.477 0.5,-0.456 0.508,-0.429C0.516,-0.403 0.52,-0.371 0.52,-0.333L0.52,-0L0.354,-0L0.354,-0.333C0.354,-0.354 0.351,-0.37 0.345,-0.382C0.339,-0.393 0.331,-0.401 0.32,-0.405C0.309,-0.409 0.295,-0.411 0.279,-0.411C0.262,-0.411 0.248,-0.408 0.236,-0.401C0.225,-0.395 0.215,-0.386 0.208,-0.374C0.201,-0.363 0.196,-0.349 0.193,-0.333C0.19,-0.318 0.188,-0.301 0.188,-0.282Z" style="fill:white;fill-rule:nonzero;"/>
                        </g>
                        <g transform="matrix(41.6667,0,0,41.6667,267.336,333.777)">
                            <path d="M0.323,-0.148C0.323,-0.158 0.32,-0.165 0.314,-0.172C0.308,-0.179 0.298,-0.185 0.283,-0.191C0.268,-0.196 0.247,-0.202 0.22,-0.208C0.194,-0.214 0.17,-0.221 0.147,-0.23C0.125,-0.239 0.105,-0.25 0.088,-0.263C0.071,-0.276 0.058,-0.292 0.048,-0.31C0.038,-0.327 0.034,-0.348 0.034,-0.371C0.034,-0.394 0.038,-0.415 0.048,-0.435C0.058,-0.455 0.072,-0.473 0.091,-0.488C0.109,-0.503 0.132,-0.516 0.159,-0.525C0.186,-0.534 0.217,-0.538 0.251,-0.538C0.299,-0.538 0.34,-0.531 0.375,-0.516C0.409,-0.502 0.436,-0.482 0.454,-0.456C0.473,-0.43 0.482,-0.4 0.482,-0.366L0.318,-0.366C0.318,-0.38 0.316,-0.391 0.311,-0.4C0.307,-0.41 0.3,-0.417 0.29,-0.422C0.28,-0.427 0.267,-0.43 0.251,-0.43C0.24,-0.43 0.229,-0.428 0.22,-0.423C0.211,-0.419 0.203,-0.413 0.198,-0.406C0.192,-0.398 0.189,-0.389 0.189,-0.379C0.189,-0.372 0.191,-0.366 0.195,-0.36C0.198,-0.354 0.203,-0.349 0.21,-0.344C0.218,-0.34 0.227,-0.336 0.238,-0.332C0.249,-0.328 0.262,-0.325 0.278,-0.322C0.313,-0.315 0.347,-0.306 0.377,-0.294C0.408,-0.282 0.434,-0.265 0.453,-0.243C0.472,-0.221 0.482,-0.191 0.482,-0.153C0.482,-0.13 0.477,-0.108 0.466,-0.089C0.455,-0.069 0.44,-0.052 0.419,-0.037C0.399,-0.022 0.375,-0.011 0.347,-0.002C0.318,0.006 0.286,0.01 0.251,0.01C0.201,0.01 0.158,0.001 0.123,-0.017C0.088,-0.035 0.062,-0.058 0.044,-0.086C0.026,-0.113 0.018,-0.141 0.018,-0.169L0.171,-0.169C0.172,-0.153 0.176,-0.14 0.183,-0.129C0.19,-0.119 0.2,-0.111 0.212,-0.106C0.225,-0.102 0.239,-0.099 0.255,-0.099C0.27,-0.099 0.283,-0.101 0.293,-0.105C0.303,-0.11 0.31,-0.115 0.315,-0.123C0.321,-0.13 0.323,-0.139 0.323,-0.148Z" style="fill:white;fill-rule:nonzero;"/>
                        </g>
                        <g transform="matrix(41.6667,0,0,41.6667,288.686,333.777)">
                            <path d="M0.325,-0.528L0.325,-0.414L0.006,-0.414L0.006,-0.528L0.325,-0.528ZM0.073,-0.66L0.238,-0.66L0.238,-0.172C0.238,-0.158 0.239,-0.148 0.243,-0.14C0.246,-0.132 0.252,-0.127 0.26,-0.124C0.267,-0.121 0.278,-0.119 0.292,-0.119C0.301,-0.119 0.309,-0.119 0.315,-0.12C0.321,-0.12 0.327,-0.121 0.333,-0.122L0.333,-0.004C0.319,0 0.304,0.004 0.289,0.006C0.273,0.009 0.257,0.01 0.24,0.01C0.205,0.01 0.175,0.004 0.15,-0.007C0.125,-0.018 0.106,-0.035 0.093,-0.059C0.08,-0.083 0.073,-0.114 0.073,-0.152L0.073,-0.66Z" style="fill:white;fill-rule:nonzero;"/>
                        </g>
                        <g transform="matrix(41.6667,0,0,41.6667,302.996,333.777)">
                            <path d="M0.212,-0.397L0.212,-0L0.048,-0L0.048,-0.528L0.202,-0.528L0.212,-0.397ZM0.369,-0.532L0.366,-0.379C0.359,-0.38 0.35,-0.381 0.339,-0.382C0.328,-0.383 0.319,-0.383 0.312,-0.383C0.292,-0.383 0.276,-0.381 0.262,-0.377C0.248,-0.372 0.237,-0.366 0.228,-0.357C0.219,-0.349 0.212,-0.338 0.208,-0.325C0.204,-0.312 0.202,-0.297 0.203,-0.279L0.173,-0.299C0.173,-0.334 0.176,-0.367 0.183,-0.396C0.19,-0.425 0.2,-0.45 0.213,-0.471C0.226,-0.493 0.242,-0.509 0.261,-0.521C0.279,-0.532 0.3,-0.538 0.323,-0.538C0.331,-0.538 0.339,-0.538 0.347,-0.537C0.355,-0.536 0.362,-0.534 0.369,-0.532Z" style="fill:white;fill-rule:nonzero;"/>
                        </g>
                        <g transform="matrix(41.6667,0,0,41.6667,318.772,333.777)">
                            <path d="M0.355,-0.128L0.355,-0.528L0.52,-0.528L0.52,-0L0.366,-0L0.355,-0.128ZM0.371,-0.236L0.414,-0.237C0.414,-0.201 0.409,-0.169 0.401,-0.138C0.392,-0.108 0.38,-0.082 0.364,-0.06C0.347,-0.038 0.327,-0.021 0.303,-0.009C0.279,0.004 0.251,0.01 0.22,0.01C0.194,0.01 0.17,0.006 0.149,-0.001C0.127,-0.009 0.108,-0.02 0.093,-0.036C0.077,-0.052 0.065,-0.072 0.056,-0.097C0.048,-0.122 0.043,-0.152 0.043,-0.187L0.043,-0.528L0.208,-0.528L0.208,-0.186C0.208,-0.174 0.209,-0.164 0.212,-0.155C0.215,-0.147 0.22,-0.14 0.225,-0.134C0.231,-0.128 0.238,-0.124 0.246,-0.121C0.254,-0.119 0.264,-0.117 0.274,-0.117C0.299,-0.117 0.319,-0.122 0.333,-0.133C0.347,-0.143 0.356,-0.157 0.362,-0.175C0.368,-0.193 0.371,-0.213 0.371,-0.236Z" style="fill:white;fill-rule:nonzero;"/>
                        </g>
                        <g transform="matrix(41.6667,0,0,41.6667,342.278,333.777)">
                            <path d="M0.27,-0.117C0.285,-0.117 0.298,-0.12 0.309,-0.126C0.32,-0.131 0.328,-0.14 0.334,-0.15C0.339,-0.161 0.342,-0.174 0.342,-0.188L0.497,-0.188C0.497,-0.149 0.487,-0.114 0.468,-0.084C0.448,-0.054 0.421,-0.031 0.387,-0.015C0.354,0.002 0.316,0.01 0.273,0.01C0.232,0.01 0.196,0.003 0.165,-0.01C0.134,-0.024 0.108,-0.043 0.088,-0.067C0.067,-0.091 0.052,-0.12 0.041,-0.152C0.031,-0.185 0.026,-0.22 0.026,-0.258L0.026,-0.27C0.026,-0.308 0.031,-0.343 0.041,-0.376C0.052,-0.408 0.067,-0.437 0.088,-0.461C0.108,-0.485 0.134,-0.504 0.165,-0.518C0.196,-0.531 0.231,-0.538 0.272,-0.538C0.316,-0.538 0.355,-0.53 0.389,-0.513C0.423,-0.497 0.449,-0.472 0.468,-0.441C0.487,-0.409 0.497,-0.371 0.497,-0.326L0.342,-0.326C0.342,-0.342 0.34,-0.356 0.334,-0.369C0.329,-0.382 0.321,-0.392 0.31,-0.4C0.299,-0.407 0.285,-0.411 0.269,-0.411C0.252,-0.411 0.238,-0.407 0.228,-0.4C0.217,-0.392 0.209,-0.382 0.204,-0.369C0.198,-0.356 0.195,-0.341 0.193,-0.324C0.191,-0.307 0.19,-0.289 0.19,-0.27L0.19,-0.258C0.19,-0.239 0.191,-0.22 0.193,-0.203C0.195,-0.186 0.199,-0.171 0.204,-0.158C0.21,-0.146 0.218,-0.135 0.228,-0.128C0.238,-0.121 0.252,-0.117 0.27,-0.117Z" style="fill:white;fill-rule:nonzero;"/>
                        </g>
                        <g transform="matrix(41.6667,0,0,41.6667,363.933,333.777)">
                            <path d="M0.325,-0.528L0.325,-0.414L0.006,-0.414L0.006,-0.528L0.325,-0.528ZM0.073,-0.66L0.238,-0.66L0.238,-0.172C0.238,-0.158 0.239,-0.148 0.243,-0.14C0.246,-0.132 0.252,-0.127 0.26,-0.124C0.267,-0.121 0.278,-0.119 0.292,-0.119C0.301,-0.119 0.309,-0.119 0.315,-0.12C0.321,-0.12 0.327,-0.121 0.333,-0.122L0.333,-0.004C0.319,0 0.304,0.004 0.289,0.006C0.273,0.009 0.257,0.01 0.24,0.01C0.205,0.01 0.175,0.004 0.15,-0.007C0.125,-0.018 0.106,-0.035 0.093,-0.059C0.08,-0.083 0.073,-0.114 0.073,-0.152L0.073,-0.66Z" style="fill:white;fill-rule:nonzero;"/>
                        </g>
                        <g transform="matrix(41.6667,0,0,41.6667,378.244,333.777)">
                            <path d="M0.22,-0.528L0.22,-0L0.055,-0L0.055,-0.528L0.22,-0.528ZM0.045,-0.665C0.045,-0.688 0.054,-0.707 0.071,-0.722C0.088,-0.737 0.11,-0.745 0.137,-0.745C0.164,-0.745 0.186,-0.737 0.203,-0.722C0.22,-0.707 0.228,-0.688 0.228,-0.665C0.228,-0.641 0.22,-0.622 0.203,-0.607C0.186,-0.592 0.164,-0.584 0.137,-0.584C0.11,-0.584 0.088,-0.592 0.071,-0.607C0.054,-0.622 0.045,-0.641 0.045,-0.665Z" style="fill:white;fill-rule:nonzero;"/>
                        </g>
                        <g transform="matrix(41.6667,0,0,41.6667,389.686,333.777)">
                            <path d="M0.026,-0.259L0.026,-0.269C0.026,-0.308 0.031,-0.344 0.042,-0.376C0.054,-0.409 0.07,-0.437 0.091,-0.461C0.113,-0.486 0.139,-0.504 0.171,-0.518C0.202,-0.531 0.239,-0.538 0.28,-0.538C0.322,-0.538 0.359,-0.531 0.39,-0.518C0.422,-0.504 0.449,-0.486 0.47,-0.461C0.492,-0.437 0.508,-0.409 0.519,-0.376C0.53,-0.344 0.536,-0.308 0.536,-0.269L0.536,-0.259C0.536,-0.22 0.53,-0.185 0.519,-0.152C0.508,-0.119 0.492,-0.091 0.47,-0.067C0.449,-0.042 0.422,-0.024 0.391,-0.01C0.359,0.003 0.323,0.01 0.281,0.01C0.24,0.01 0.203,0.003 0.171,-0.01C0.139,-0.024 0.113,-0.042 0.091,-0.067C0.07,-0.091 0.054,-0.119 0.042,-0.152C0.031,-0.185 0.026,-0.22 0.026,-0.259ZM0.19,-0.269L0.19,-0.259C0.19,-0.239 0.192,-0.22 0.195,-0.203C0.198,-0.186 0.203,-0.171 0.209,-0.158C0.216,-0.145 0.226,-0.135 0.237,-0.128C0.249,-0.121 0.264,-0.117 0.281,-0.117C0.299,-0.117 0.313,-0.121 0.324,-0.128C0.336,-0.135 0.345,-0.145 0.352,-0.158C0.359,-0.171 0.364,-0.186 0.367,-0.203C0.37,-0.22 0.371,-0.239 0.371,-0.259L0.371,-0.269C0.371,-0.288 0.37,-0.306 0.367,-0.323C0.364,-0.341 0.359,-0.356 0.352,-0.369C0.345,-0.382 0.336,-0.392 0.324,-0.4C0.313,-0.407 0.298,-0.411 0.28,-0.411C0.263,-0.411 0.249,-0.407 0.237,-0.4C0.226,-0.392 0.216,-0.382 0.209,-0.369C0.203,-0.356 0.198,-0.341 0.195,-0.323C0.192,-0.306 0.19,-0.288 0.19,-0.269Z" style="fill:white;fill-rule:nonzero;"/>
                        </g>
                        <g transform="matrix(41.6667,0,0,41.6667,413.091,333.777)">
                            <path d="M0.208,-0.416L0.208,-0L0.043,-0L0.043,-0.528L0.198,-0.528L0.208,-0.416ZM0.188,-0.282L0.15,-0.281C0.15,-0.322 0.155,-0.358 0.165,-0.389C0.174,-0.421 0.188,-0.448 0.206,-0.47C0.224,-0.492 0.245,-0.509 0.27,-0.521C0.295,-0.532 0.323,-0.538 0.354,-0.538C0.378,-0.538 0.4,-0.535 0.421,-0.527C0.441,-0.52 0.459,-0.509 0.473,-0.493C0.488,-0.477 0.5,-0.456 0.508,-0.429C0.516,-0.403 0.52,-0.371 0.52,-0.333L0.52,-0L0.354,-0L0.354,-0.333C0.354,-0.354 0.351,-0.37 0.345,-0.382C0.339,-0.393 0.331,-0.401 0.32,-0.405C0.309,-0.409 0.295,-0.411 0.279,-0.411C0.262,-0.411 0.248,-0.408 0.236,-0.401C0.225,-0.395 0.215,-0.386 0.208,-0.374C0.201,-0.363 0.196,-0.349 0.193,-0.333C0.19,-0.318 0.188,-0.301 0.188,-0.282Z" style="fill:white;fill-rule:nonzero;"/>
                        </g>
                        <g transform="matrix(41.6667,0,0,41.6667,436.597,333.777)">
                        </g>
                        <g transform="matrix(41.6667,0,0,41.6667,446.976,333.777)">
                            <path d="M0.321,-0.133L0.321,-0.351C0.321,-0.366 0.319,-0.378 0.314,-0.389C0.31,-0.4 0.304,-0.408 0.294,-0.414C0.285,-0.42 0.273,-0.423 0.258,-0.423C0.245,-0.423 0.235,-0.421 0.226,-0.417C0.217,-0.413 0.211,-0.406 0.206,-0.398C0.201,-0.389 0.199,-0.379 0.199,-0.366L0.035,-0.366C0.035,-0.39 0.04,-0.413 0.051,-0.434C0.062,-0.455 0.078,-0.473 0.098,-0.489C0.118,-0.504 0.143,-0.517 0.171,-0.525C0.2,-0.534 0.231,-0.538 0.267,-0.538C0.309,-0.538 0.346,-0.531 0.379,-0.517C0.412,-0.503 0.438,-0.482 0.458,-0.454C0.477,-0.427 0.486,-0.392 0.486,-0.35L0.486,-0.133C0.486,-0.099 0.488,-0.073 0.492,-0.055C0.496,-0.037 0.502,-0.022 0.509,-0.008L0.509,-0L0.344,-0C0.336,-0.016 0.33,-0.036 0.326,-0.06C0.323,-0.083 0.321,-0.108 0.321,-0.133ZM0.341,-0.323L0.342,-0.235L0.269,-0.235C0.254,-0.235 0.241,-0.233 0.23,-0.229C0.22,-0.224 0.211,-0.219 0.205,-0.211C0.198,-0.204 0.194,-0.196 0.191,-0.187C0.188,-0.177 0.187,-0.168 0.187,-0.158C0.187,-0.148 0.189,-0.139 0.194,-0.132C0.199,-0.124 0.205,-0.118 0.213,-0.114C0.222,-0.11 0.231,-0.107 0.241,-0.107C0.259,-0.107 0.274,-0.111 0.287,-0.118C0.3,-0.125 0.31,-0.133 0.317,-0.144C0.324,-0.154 0.327,-0.163 0.327,-0.172L0.363,-0.104C0.357,-0.091 0.349,-0.078 0.341,-0.065C0.333,-0.052 0.323,-0.039 0.31,-0.028C0.298,-0.017 0.283,-0.008 0.266,-0.001C0.248,0.006 0.227,0.01 0.202,0.01C0.169,0.01 0.139,0.003 0.112,-0.01C0.085,-0.024 0.063,-0.042 0.047,-0.066C0.031,-0.09 0.022,-0.118 0.022,-0.149C0.022,-0.176 0.027,-0.201 0.037,-0.222C0.047,-0.244 0.062,-0.262 0.083,-0.277C0.103,-0.292 0.128,-0.303 0.16,-0.311C0.191,-0.319 0.228,-0.323 0.27,-0.323L0.341,-0.323Z" style="fill:white;fill-rule:nonzero;"/>
                        </g>
                        <g transform="matrix(41.6667,0,0,41.6667,469.099,333.777)">
                            <path d="M0.27,-0.117C0.285,-0.117 0.298,-0.12 0.309,-0.126C0.32,-0.131 0.328,-0.14 0.334,-0.15C0.339,-0.161 0.342,-0.174 0.342,-0.188L0.497,-0.188C0.497,-0.149 0.487,-0.114 0.468,-0.084C0.448,-0.054 0.421,-0.031 0.387,-0.015C0.354,0.002 0.316,0.01 0.273,0.01C0.232,0.01 0.196,0.003 0.165,-0.01C0.134,-0.024 0.108,-0.043 0.088,-0.067C0.067,-0.091 0.052,-0.12 0.041,-0.152C0.031,-0.185 0.026,-0.22 0.026,-0.258L0.026,-0.27C0.026,-0.308 0.031,-0.343 0.041,-0.376C0.052,-0.408 0.067,-0.437 0.088,-0.461C0.108,-0.485 0.134,-0.504 0.165,-0.518C0.196,-0.531 0.231,-0.538 0.272,-0.538C0.316,-0.538 0.355,-0.53 0.389,-0.513C0.423,-0.497 0.449,-0.472 0.468,-0.441C0.487,-0.409 0.497,-0.371 0.497,-0.326L0.342,-0.326C0.342,-0.342 0.34,-0.356 0.334,-0.369C0.329,-0.382 0.321,-0.392 0.31,-0.4C0.299,-0.407 0.285,-0.411 0.269,-0.411C0.252,-0.411 0.238,-0.407 0.228,-0.4C0.217,-0.392 0.209,-0.382 0.204,-0.369C0.198,-0.356 0.195,-0.341 0.193,-0.324C0.191,-0.307 0.19,-0.289 0.19,-0.27L0.19,-0.258C0.19,-0.239 0.191,-0.22 0.193,-0.203C0.195,-0.186 0.199,-0.171 0.204,-0.158C0.21,-0.146 0.218,-0.135 0.228,-0.128C0.238,-0.121 0.252,-0.117 0.27,-0.117Z" style="fill:white;fill-rule:nonzero;"/>
                        </g>
                        <g transform="matrix(41.6667,0,0,41.6667,490.754,333.777)">
                            <path d="M0.325,-0.528L0.325,-0.414L0.006,-0.414L0.006,-0.528L0.325,-0.528ZM0.073,-0.66L0.238,-0.66L0.238,-0.172C0.238,-0.158 0.239,-0.148 0.243,-0.14C0.246,-0.132 0.252,-0.127 0.26,-0.124C0.267,-0.121 0.278,-0.119 0.292,-0.119C0.301,-0.119 0.309,-0.119 0.315,-0.12C0.321,-0.12 0.327,-0.121 0.333,-0.122L0.333,-0.004C0.319,0 0.304,0.004 0.289,0.006C0.273,0.009 0.257,0.01 0.24,0.01C0.205,0.01 0.175,0.004 0.15,-0.007C0.125,-0.018 0.106,-0.035 0.093,-0.059C0.08,-0.083 0.073,-0.114 0.073,-0.152L0.073,-0.66Z" style="fill:white;fill-rule:nonzero;"/>
                        </g>
                        <g transform="matrix(41.6667,0,0,41.6667,505.065,333.777)">
                            <path d="M0.22,-0.528L0.22,-0L0.055,-0L0.055,-0.528L0.22,-0.528ZM0.045,-0.665C0.045,-0.688 0.054,-0.707 0.071,-0.722C0.088,-0.737 0.11,-0.745 0.137,-0.745C0.164,-0.745 0.186,-0.737 0.203,-0.722C0.22,-0.707 0.228,-0.688 0.228,-0.665C0.228,-0.641 0.22,-0.622 0.203,-0.607C0.186,-0.592 0.164,-0.584 0.137,-0.584C0.11,-0.584 0.088,-0.592 0.071,-0.607C0.054,-0.622 0.045,-0.641 0.045,-0.665Z" style="fill:white;fill-rule:nonzero;"/>
                        </g>
                        <g transform="matrix(41.6667,0,0,41.6667,516.507,333.777)">
                            <path d="M0.237,-0.113L0.341,-0.528L0.514,-0.528L0.341,-0L0.239,-0L0.237,-0.113ZM0.175,-0.528L0.278,-0.113L0.277,-0L0.174,-0L0.001,-0.528L0.175,-0.528Z" style="fill:white;fill-rule:nonzero;"/>
                        </g>
                        <g transform="matrix(41.6667,0,0,41.6667,538.02,333.777)">
                            <path d="M0.22,-0.528L0.22,-0L0.055,-0L0.055,-0.528L0.22,-0.528ZM0.045,-0.665C0.045,-0.688 0.054,-0.707 0.071,-0.722C0.088,-0.737 0.11,-0.745 0.137,-0.745C0.164,-0.745 0.186,-0.737 0.203,-0.722C0.22,-0.707 0.228,-0.688 0.228,-0.665C0.228,-0.641 0.22,-0.622 0.203,-0.607C0.186,-0.592 0.164,-0.584 0.137,-0.584C0.11,-0.584 0.088,-0.592 0.071,-0.607C0.054,-0.622 0.045,-0.641 0.045,-0.665Z" style="fill:white;fill-rule:nonzero;"/>
                        </g>
                        <g transform="matrix(41.6667,0,0,41.6667,549.461,333.777)">
                            <path d="M0.325,-0.528L0.325,-0.414L0.006,-0.414L0.006,-0.528L0.325,-0.528ZM0.073,-0.66L0.238,-0.66L0.238,-0.172C0.238,-0.158 0.239,-0.148 0.243,-0.14C0.246,-0.132 0.252,-0.127 0.26,-0.124C0.267,-0.121 0.278,-0.119 0.292,-0.119C0.301,-0.119 0.309,-0.119 0.315,-0.12C0.321,-0.12 0.327,-0.121 0.333,-0.122L0.333,-0.004C0.319,0 0.304,0.004 0.289,0.006C0.273,0.009 0.257,0.01 0.24,0.01C0.205,0.01 0.175,0.004 0.15,-0.007C0.125,-0.018 0.106,-0.035 0.093,-0.059C0.08,-0.083 0.073,-0.114 0.073,-0.152L0.073,-0.66Z" style="fill:white;fill-rule:nonzero;"/>
                        </g>
                        <g transform="matrix(41.6667,0,0,41.6667,563.772,333.777)">
                            <path d="M0.208,-0.062L0.345,-0.528L0.522,-0.528L0.31,0.079C0.305,0.092 0.299,0.106 0.292,0.122C0.284,0.137 0.274,0.152 0.261,0.166C0.248,0.18 0.231,0.191 0.211,0.2C0.19,0.209 0.165,0.213 0.135,0.213C0.119,0.213 0.108,0.213 0.1,0.211C0.093,0.21 0.082,0.207 0.067,0.204L0.067,0.086L0.088,0.086C0.106,0.086 0.12,0.084 0.131,0.081C0.141,0.077 0.149,0.072 0.155,0.065C0.161,0.058 0.165,0.05 0.168,0.04L0.208,-0.062ZM0.174,-0.528L0.278,-0.159L0.296,0.016L0.186,0.016L-0.002,-0.528L0.174,-0.528Z" style="fill:white;fill-rule:nonzero;"/>
                        </g>
                        <g transform="matrix(41.6667,0,0,41.6667,585.358,333.777)">
                        </g>
                    </g>
                    <g transform="matrix(1,0,0,1,68.9009,334.108)">
                        <path d="M0,0L241.229,0" style="fill:none;fill-rule:nonzero;stroke:rgb(44,48,120);stroke-width:0.5px;stroke-linecap:round;"/>
                    </g>
                    <g transform="matrix(1,0,0,1,181.736,298.651)">
                        <path d="M0,-7.294L8.956,-7.294C9.424,-7.294 9.693,-6.762 9.415,-6.385L4.937,-0.31C4.709,0 4.247,0 4.019,-0.31L-0.459,-6.385C-0.737,-6.762 -0.468,-7.294 0,-7.294" style="fill:rgb(142,193,233);fill-rule:nonzero;"/>
                    </g>
                    <g transform="matrix(1,0,0,1,191.222,387.972)">
                        <path d="M0,-7.294L8.956,-7.294C9.424,-7.294 9.693,-6.762 9.415,-6.385L4.937,-0.31C4.709,0 4.247,0 4.019,-0.31L-0.459,-6.385C-0.737,-6.762 -0.468,-7.294 0,-7.294" style="fill:rgb(142,193,233);fill-rule:nonzero;"/>
                    </g>
                </g>
            </g>
        </g>
    </g>
</svg>
