<?xml version="1.0" encoding="UTF-8" standalone="no"?>
<!DOCTYPE svg PUBLIC "-//W3C//DTD SVG 1.1//EN" "http://www.w3.org/Graphics/SVG/1.1/DTD/svg11.dtd">
<svg width="100%" height="100%" viewBox="0 0 1427 1077" version="1.1" xmlns="http://www.w3.org/2000/svg" xmlns:xlink="http://www.w3.org/1999/xlink" xml:space="preserve" xmlns:serif="http://www.serif.com/" style="fill-rule:evenodd;clip-rule:evenodd;stroke-linecap:round;stroke-miterlimit:10;">
    <g id="Artboard1" transform="matrix(1,0,0,1,-94.284,-1229.23)">
        <rect x="94.284" y="1229.23" width="1426.15" height="1076.14" style="fill:none;"/>
        <clipPath id="_clip1">
            <rect x="94.284" y="1229.23" width="1426.15" height="1076.14"/>
        </clipPath>
        <g clip-path="url(#_clip1)">
            <g id="Layer-1" serif:id="Layer 1" transform="matrix(4.16667,0,0,4.16667,0.284,0.229167)">
                <g transform="matrix(0.244659,0,0,0.231501,-7.08383,18.6671)">
                    <path d="M1520.43,1247.81L1520.43,2255.28C1520.43,2285.13 1497.5,2309.37 1469.25,2309.37L172.623,2309.37C144.376,2309.37 121.442,2285.13 121.442,2255.28L121.442,1247.81C121.442,1217.96 144.376,1193.72 172.623,1193.72L1469.25,1193.72C1497.5,1193.72 1520.43,1217.96 1520.43,1247.81Z" style="fill:rgb(44,48,120);"/>
                </g>
                <g transform="matrix(0.24,0,0,0.24,143.99,401.394)">
                    <g transform="matrix(39.7079,0,0,39.7079,278.656,557.931)">
                    </g>
                    <text x="189.461px" y="557.931px" style="font-family:'Roboto-Regular', 'Roboto';font-size:39.708px;fill:white;">Time</text>
                </g>
                <g transform="matrix(0,-0.24,0.24,0,32.3297,382.155)">
                    <g transform="matrix(39.7079,0,0,39.7079,176.147,72.32)">
                    </g>
                    <text x="-502.835px" y="72.32px" style="font-family:'Roboto-Regular', 'Roboto';font-size:39.708px;fill:white;">Semantic gr<tspan x="-291.701px -270.402px " y="72.32px 72.32px ">av</tspan>ity and sem<tspan x="-47.852px " y="72.32px ">a</tspan>ntic densi<tspan x="144.379px " y="72.32px ">t</tspan>y</text>
                </g>
                <g transform="matrix(0.0877482,0.223384,-0.223384,0.0877482,80.6347,292.306)">
                    <g transform="matrix(33.0902,0,0,33.0902,660.07,66.6863)">
                    </g>
                    <text x="396.776px" y="66.686px" style="font-family:'Roboto-Regular', 'Roboto';font-size:33.09px;fill:rgb(142,193,233);">Unpack mean<tspan x="598.12px " y="66.686px ">i</tspan>ngs</text>
                </g>
                <g transform="matrix(0.24,0,0,0.24,107.85,310.139)">
                    <text x="197.003px" y="432.895px" style="font-family:'Roboto-Regular', 'Roboto';font-size:33.09px;fill:white;">They are like</text>
                    <g transform="matrix(33.09,0,0,33.09,436.777,472.61)">
                    </g>
                    <text x="141.908px" y="472.61px" style="font-family:'Roboto-Regular', 'Roboto';font-size:33.09px;fill:white;">instructio<tspan x="280.539px " y="472.61px ">n</tspan>s/recipes</text>
                </g>
                <g transform="matrix(0.24,0,0,0.24,132.892,351.271)">
                    <text x="182.667px" y="487.017px" style="font-family:'Roboto-Regular', 'Roboto';font-size:33.09px;fill:white;">Activity using</text>
                    <text x="174.858px" y="526.732px" style="font-family:'Roboto-Regular', 'Roboto';font-size:33.09px;fill:white;">instructions<tspan x="348.844px " y="526.732px "> </tspan>or</text>
                    <g transform="matrix(33.09,0,0,33.09,334.587,566.447)">
                    </g>
                    <text x="227.339px" y="566.447px" style="font-family:'Roboto-Regular', 'Roboto';font-size:33.09px;fill:white;">recipes</text>
                </g>
                <g transform="matrix(0.24,0,0,0.24,206.877,360.512)">
                    <text x="305.263px" y="499.175px" style="font-family:'Roboto-Regular', 'Roboto';font-size:33.09px;fill:rgb(253,213,37);">Concrete and</text>
                    <g transform="matrix(33.09,0,0,33.09,534.59,538.89)">
                    </g>
                    <text x="272.206px" y="538.89px" style="font-family:'Roboto-Regular', 'Roboto';font-size:33.09px;fill:rgb(253,213,37);">simpler m<tspan x="418.86px " y="538.89px ">e</tspan>anings</text>
                </g>
                <g transform="matrix(0.24,0,0,0.24,146.762,279.628)">
                    <text x="212.631px" y="392.75px" style="font-family:'Roboto-Regular', 'Roboto';font-size:33.09px;fill:white;">Distinguish bet<tspan x="431.848px " y="392.75px ">w</tspan>een</text>
                    <g transform="matrix(33.09,0,0,33.09,529.507,432.465)">
                    </g>
                    <text x="193.108px" y="432.465px" style="font-family:'Roboto-Regular', 'Roboto';font-size:33.09px;fill:white;">recipes and a<tspan x="389.68px " y="432.465px ">l</tspan>gorithms</text>
                </g>
                <g transform="matrix(0.24,0,0,0.24,75.7346,251.165)">
                    <text x="99.651px" y="355.297px" style="font-family:'Roboto-Regular', 'Roboto';font-size:33.09px;fill:white;">Algorithm<tspan x="243.957px " y="355.297px ">s</tspan> are prec<tspan x="388.76px " y="355.297px ">i</tspan>se</text>
                    <g transform="matrix(33.09,0,0,33.09,418.568,395.012)">
                    </g>
                    <text x="131.682px" y="395.012px" style="font-family:'Roboto-Regular', 'Roboto';font-size:33.09px;fill:white;">sequences o<tspan x="318.094px " y="395.012px ">r</tspan> steps</text>
                </g>
                <g transform="matrix(0.24,0,0,0.24,185.722,249.776)">
                    <text x="289.77px" y="353.471px" style="font-family:'Roboto-Regular', 'Roboto';font-size:33.09px;fill:rgb(253,213,37);">Abstr<tspan x="368.368px " y="353.471px ">a</tspan>ct and</text>
                    <g transform="matrix(33.09,0,0,33.09,523.022,393.186)">
                    </g>
                    <text x="244.371px" y="393.186px" style="font-family:'Roboto-Regular', 'Roboto';font-size:33.09px;fill:rgb(253,213,37);">complex m<tspan x="407.296px " y="393.186px ">e</tspan>anings</text>
                </g>
                <g transform="matrix(0.0891015,-0.222847,0.222847,0.0891015,206.659,337.403)">
                    <g transform="matrix(33.0904,0,0,33.0904,-49.7612,442.123)">
                    </g>
                    <text x="-311.271px" y="442.123px" style="font-family:'Roboto-Regular', 'Roboto';font-size:33.09px;fill:rgb(142,193,233);">Repack mean<tspan x="-111.714px " y="442.123px ">i</tspan>ngs</text>
                </g>
                <g transform="matrix(1,0,0,1,-8.50394,-140.514)">
                    <path d="M83.122,495.851L74.066,495.851L74.066,495.057L83.122,495.057L83.122,495.851ZM101.235,495.851L92.179,495.851L92.179,495.057L101.235,495.057L101.235,495.851ZM119.348,495.851L110.292,495.851L110.292,495.057L119.348,495.057L119.348,495.851ZM137.46,495.851L128.404,495.851L128.404,495.057L137.46,495.057L137.46,495.851ZM155.573,495.851L146.517,495.851L146.517,495.057L155.573,495.057L155.573,495.851ZM173.686,495.851L164.629,495.851L164.629,495.057L173.686,495.057L173.686,495.851ZM191.799,495.851L182.743,495.851L182.743,495.057L191.799,495.057L191.799,495.851ZM209.911,495.851L200.855,495.851L200.855,495.057L209.911,495.057L209.911,495.851ZM228.024,495.851L218.968,495.851L218.968,495.057L228.024,495.057L228.024,495.851ZM246.136,495.851L237.08,495.851L237.08,495.057L246.136,495.057L246.136,495.851ZM264.249,495.851L255.193,495.851L255.193,495.057L264.249,495.057L264.249,495.851ZM282.362,495.851L273.306,495.851L273.306,495.057L282.362,495.057L282.362,495.851ZM300.474,495.851L291.418,495.851L291.418,495.057L300.474,495.057L300.474,495.851ZM318.587,495.851L309.531,495.851L309.531,495.057L318.587,495.057L318.587,495.851ZM336.7,495.851L327.644,495.851L327.644,495.057L336.7,495.057L336.7,495.851Z" style="fill:rgb(253,213,37);fill-rule:nonzero;"/>
                </g>
                <g transform="matrix(1,0,0,1,-8.50394,144.69)">
                    <path d="M83.122,353.249L74.066,353.249L74.066,352.455L83.122,352.455L83.122,353.249ZM101.235,353.249L92.179,353.249L92.179,352.455L101.235,352.455L101.235,353.249ZM119.348,353.249L110.292,353.249L110.292,352.455L119.348,352.455L119.348,353.249ZM137.46,353.249L128.404,353.249L128.404,352.455L137.46,352.455L137.46,353.249ZM155.573,353.249L146.517,353.249L146.517,352.455L155.573,352.455L155.573,353.249ZM173.686,353.249L164.63,353.249L164.63,352.455L173.686,352.455L173.686,353.249ZM191.799,353.249L182.743,353.249L182.743,352.455L191.799,352.455L191.799,353.249ZM209.911,353.249L200.855,353.249L200.855,352.455L209.911,352.455L209.911,353.249ZM228.024,353.249L218.968,353.249L218.968,352.455L228.024,352.455L228.024,353.249ZM246.136,353.249L237.08,353.249L237.08,352.455L246.136,352.455L246.136,353.249ZM264.249,353.249L255.193,353.249L255.193,352.455L264.249,352.455L264.249,353.249ZM282.362,353.249L273.306,353.249L273.306,352.455L282.362,352.455L282.362,353.249ZM300.474,353.249L291.418,353.249L291.418,352.455L300.474,352.455L300.474,353.249ZM318.587,353.249L309.531,353.249L309.531,352.455L318.587,352.455L318.587,353.249ZM336.7,353.249L327.643,353.249L327.643,352.455L336.7,352.455L336.7,353.249Z" style="fill:rgb(253,213,37);fill-rule:nonzero;"/>
                </g>
                <g transform="matrix(1,0,0,1,54.3078,317.477)">
                    <path d="M0,5.372L3.278,-0.471C3.5,-0.867 4.071,-0.867 4.293,-0.471L7.571,5.372C7.789,5.76 7.508,6.239 7.063,6.239L0.508,6.239C0.063,6.239 -0.218,5.76 0,5.372" style="fill:white;fill-rule:nonzero;"/>
                </g>
                <g transform="matrix(1,0,0,1,336.508,523.845)">
                    <path d="M0,-7.571L5.843,-4.293C6.239,-4.071 6.239,-3.5 5.843,-3.278L0,0C-0.388,0.218 -0.867,-0.063 -0.867,-0.508L-0.867,-7.063C-0.867,-7.508 -0.388,-7.789 0,-7.571" style="fill:white;fill-rule:nonzero;"/>
                </g>
                <g transform="matrix(1,0,0,1,200.624,342.525)">
                    <path d="M0,167.466C-34.037,167.466 -51.169,125.05 -67.738,84.031C-84.109,43.5 -101.038,1.588 -134.003,1.588C-134.441,1.588 -134.797,1.232 -134.797,0.794C-134.797,0.355 -134.441,0 -134.003,0C-99.966,0 -82.834,42.416 -66.265,83.435C-49.894,123.966 -32.965,165.878 0,165.878C32.965,165.878 49.894,123.966 66.265,83.435C82.834,42.416 99.966,0 134.003,0C134.441,0 134.797,0.355 134.797,0.794C134.797,1.232 134.441,1.588 134.003,1.588C101.038,1.588 84.109,43.5 67.738,84.031C51.169,125.05 34.037,167.466 0,167.466" style="fill:rgb(253,213,37);fill-rule:nonzero;"/>
                </g>
                <g transform="matrix(1,0,0,1,338.447,322.279)">
                    <path d="M0,198.31L-278.859,198.31C-279.975,198.31 -280.884,197.402 -280.884,196.285L-280.884,0L-279.825,0L-279.825,196.285C-279.825,196.818 -279.392,197.251 -278.859,197.251L0,197.251L0,198.31Z" style="fill:white;fill-rule:nonzero;"/>
                </g>
                <g transform="matrix(1,0,0,1,111.322,363.435)">
                    <path d="M0,-4.87L3.061,-2.088C3.312,-1.86 3.228,-1.447 2.909,-1.334L-1.199,0.11C-1.535,0.228 -1.867,-0.074 -1.782,-0.42L-0.736,-4.646C-0.654,-4.975 -0.251,-5.098 0,-4.87" style="fill:white;fill-rule:nonzero;"/>
                </g>
                <g transform="matrix(-0.672541,0.74006,0.74006,0.672541,117.355,362.914)">
                    <path d="M-12.027,-5.321L2.355,-5.321" style="fill:none;fill-rule:nonzero;stroke:white;stroke-width:1.06px;"/>
                </g>
                <g transform="matrix(1,0,0,1,133.773,464.335)">
                    <path d="M0,-1.446L3.694,-3.308C3.996,-3.461 4.352,-3.235 4.343,-2.896L4.221,1.456C4.211,1.812 3.809,2.015 3.517,1.811L-0.054,-0.679C-0.332,-0.873 -0.303,-1.293 0,-1.446" style="fill:rgb(142,193,233);fill-rule:nonzero;"/>
                </g>
                <g transform="matrix(0.450197,0.892929,0.892929,-0.450197,137.503,449.216)">
                    <path d="M-4.567,-7.417L12.046,-7.417" style="fill:none;fill-rule:nonzero;stroke:rgb(142,193,233);stroke-width:1.06px;"/>
                </g>
                <g transform="matrix(1,0,0,1,272.443,448.469)">
                    <path d="M0,5.118L-3.527,2.957C-3.816,2.779 -3.811,2.358 -3.518,2.188L0.248,0.002C0.556,-0.177 0.939,0.058 0.919,0.413L0.681,4.761C0.662,5.099 0.289,5.295 0,5.118" style="fill:rgb(142,193,233);fill-rule:nonzero;"/>
                </g>
                <g transform="matrix(0.522511,-0.852632,-0.852632,-0.522511,270.902,465.697)">
                    <path d="M-3.966,7.082L12.646,7.082" style="fill:none;fill-rule:nonzero;stroke:rgb(142,193,233);stroke-width:1.06px;"/>
                </g>
                <g transform="matrix(1,0,0,1,267.391,395.338)">
                    <path d="M0,2.087L2.519,-1.195C2.725,-1.463 3.144,-1.414 3.282,-1.105L5.062,2.869C5.208,3.194 4.934,3.55 4.583,3.494L0.284,2.801C-0.051,2.748 -0.206,2.356 0,2.087" style="fill:white;fill-rule:nonzero;"/>
                </g>
                <g transform="matrix(0.793275,0.608864,0.608864,-0.793275,262.289,385.383)">
                    <path d="M-1.486,-4.378L12.894,-4.378" style="fill:none;fill-rule:nonzero;stroke:white;stroke-width:1.06px;"/>
                </g>
                <g transform="matrix(1,0,0,1,146.008,437.807)">
                    <path d="M0,-4.378L2.398,-1.007C2.595,-0.731 2.425,-0.345 2.089,-0.304L-2.232,0.232C-2.586,0.276 -2.846,-0.09 -2.689,-0.41L-0.766,-4.316C-0.617,-4.62 -0.196,-4.654 0,-4.378" style="fill:white;fill-rule:nonzero;"/>
                </g>
                <g transform="matrix(-0.814817,0.579718,0.579718,0.814817,149.473,438.617)">
                    <path d="M-13.05,-4.169L1.332,-4.169" style="fill:none;fill-rule:nonzero;stroke:white;stroke-width:1.06px;"/>
                </g>
                <g transform="matrix(1,0,0,1,198.524,504.996)">
                    <path d="M0,-4.773L4.137,-4.794C4.476,-4.796 4.693,-4.435 4.534,-4.136L2.485,-0.294C2.318,0.02 1.868,0.023 1.698,-0.29L-0.39,-4.111C-0.553,-4.408 -0.339,-4.771 0,-4.773" style="fill:white;fill-rule:nonzero;"/>
                </g>
                <g transform="matrix(0.00814413,0.999967,0.999967,-0.00814413,205.105,497.111)">
                    <path d="M-4.506,-4.543L4.58,-4.543" style="fill:none;fill-rule:nonzero;stroke:white;stroke-width:1.06px;"/>
                </g>
                <g transform="matrix(1,0,0,1,147.206,310.817)">
                    <path d="M0,0L9.889,0" style="fill:none;fill-rule:nonzero;stroke:rgb(44,48,120);stroke-width:0.5px;stroke-linecap:butt;"/>
                </g>
            </g>
        </g>
    </g>
</svg>
