<?xml version="1.0" encoding="UTF-8" standalone="no"?>
<!DOCTYPE svg PUBLIC "-//W3C//DTD SVG 1.1//EN" "http://www.w3.org/Graphics/SVG/1.1/DTD/svg11.dtd">
<svg width="100%" height="100%" viewBox="0 0 1427 864" version="1.1" xmlns="http://www.w3.org/2000/svg" xmlns:xlink="http://www.w3.org/1999/xlink" xml:space="preserve" xmlns:serif="http://www.serif.com/" style="fill-rule:evenodd;clip-rule:evenodd;stroke-miterlimit:10;">
    <g id="Artboard1" transform="matrix(1,0,0,1,-94.284,-1108.23)">
        <rect x="94.284" y="1108.23" width="1426.15" height="863.637" style="fill:none;"/>
        <clipPath id="_clip1">
            <rect x="94.284" y="1108.23" width="1426.15" height="863.637"/>
        </clipPath>
        <g clip-path="url(#_clip1)">
            <g id="Layer-1" serif:id="Layer 1" transform="matrix(4.16667,0,0,4.16667,0.284,0.229167)">
                <g transform="matrix(-1,0,0,1,597.809,-3.031)">
                    <rect x="-9.429" y="-16.681" width="625.171" height="886.787" style="fill:none;stroke:rgb(35,31,32);stroke-width:0.99px;"/>
                </g>
                <g transform="matrix(0.251619,0,0,0.228621,-17.6657,22.4383)">
                    <path d="M1520.43,1117.78L1520.43,1919.33C1520.43,1948.33 1499.05,1971.87 1472.7,1971.87L207.869,1971.87C181.526,1971.87 160.138,1948.33 160.138,1919.33L160.138,1117.78C160.138,1088.78 181.526,1065.24 207.869,1065.24L1472.7,1065.24C1499.05,1065.24 1520.43,1088.78 1520.43,1117.78Z" style="fill:rgb(44,48,120);"/>
                </g>
                <g transform="matrix(1,0,0,1,273.336,276.604)">
                    <path d="M0,24.765L-28.863,24.765C-31.507,24.765 -33.65,22.622 -33.65,19.978L-33.65,4.787C-33.65,2.143 -31.507,0 -28.863,0L0,0C2.644,0 4.787,2.143 4.787,4.787L4.787,19.978C4.787,22.622 2.644,24.765 0,24.765" style="fill:rgb(21,133,198);fill-rule:nonzero;"/>
                </g>
                <g transform="matrix(1,0,0,1,273.336,396.123)">
                    <path d="M0,24.765L-28.863,24.765C-31.507,24.765 -33.65,22.622 -33.65,19.978L-33.65,4.787C-33.65,2.143 -31.507,0 -28.863,0L0,0C2.644,0 4.787,2.143 4.787,4.787L4.787,19.978C4.787,22.622 2.644,24.765 0,24.765" style="fill:rgb(21,133,198);fill-rule:nonzero;"/>
                </g>
                <g transform="matrix(1,0,0,1,80.7439,301.369)">
                    <path d="M0,24.765L-28.863,24.765C-31.507,24.765 -33.65,22.622 -33.65,19.978L-33.65,4.787C-33.65,2.143 -31.507,0 -28.863,0L0,0C2.644,0 4.787,2.143 4.787,4.787L4.787,19.978C4.787,22.622 2.644,24.765 0,24.765" style="fill:rgb(21,133,198);fill-rule:nonzero;"/>
                </g>
                <g transform="matrix(1,0,0,1,211.539,436.082)">
                    <path d="M0,24.765L-28.863,24.765C-31.507,24.765 -33.65,22.622 -33.65,19.978L-33.65,4.787C-33.65,2.143 -31.507,0 -28.863,0L0,0C2.644,0 4.787,2.143 4.787,4.787L4.787,19.978C4.787,22.622 2.644,24.765 0,24.765" style="fill:rgb(21,133,198);fill-rule:nonzero;"/>
                </g>
                <g transform="matrix(1,0,0,1,336.18,436.082)">
                    <path d="M0,24.765L-28.863,24.765C-31.507,24.765 -33.65,22.622 -33.65,19.978L-33.65,4.787C-33.65,2.143 -31.507,0 -28.863,0L0,0C2.644,0 4.787,2.143 4.787,4.787L4.787,19.978C4.787,22.622 2.644,24.765 0,24.765" style="fill:rgb(21,133,198);fill-rule:nonzero;"/>
                </g>
                <g transform="matrix(1,0,0,1,65.4085,328.313)">
                    <path d="M3.1,5.369L-3.1,5.369L-1.55,2.684L0,0L1.55,2.684L3.1,5.369Z" style="fill:white;fill-rule:nonzero;"/>
                </g>
                <g transform="matrix(0.24,0,0,0.24,185.98,213.994)">
                    <text x="244.71px" y="302.895px" style="font-family:'Roboto-Regular', 'Roboto';font-size:28.433px;fill:white;">concept</text>
                    <g transform="matrix(28.4333,0,0,28.4333,301.052,336.995)">
                    </g>
                    <text x="244.71px" y="336.995px" style="font-family:'Roboto-Regular', 'Roboto';font-size:28.433px;fill:white;">map</text>
                </g>
                <g transform="matrix(0.24,0,0,0.24,184.033,308.555)">
                    <g transform="matrix(24.8996,0,0,24.8996,380.534,424.669)">
                    </g>
                    <text x="242.149px" y="424.669px" style="font-family:'Roboto-Regular', 'Roboto';font-size:24.9px;fill:white;">pr<tspan x="264.31px " y="424.669px ">o</tspan>positions</text>
                </g>
                <g transform="matrix(0.24,0,0,0.24,39.6102,232.815)">
                    <text x="52.119px" y="327.661px" style="font-family:'Roboto-Regular', 'Roboto';font-size:28.433px;fill:white;">focus</text>
                    <g transform="matrix(28.4333,0,0,28.4333,161.793,361.761)">
                    </g>
                    <text x="52.119px" y="361.761px" style="font-family:'Roboto-Regular', 'Roboto';font-size:28.433px;fill:white;">question</text>
                </g>
                <g transform="matrix(0.24,0,0,0.24,139.015,338.441)">
                    <g transform="matrix(28.4333,0,0,28.4333,298.437,466.642)">
                    </g>
                    <text x="182.914px" y="466.642px" style="font-family:'Roboto-Regular', 'Roboto';font-size:28.433px;fill:white;">hier<tspan x="229.624px 245.085px 254.451px " y="466.642px 466.642px 466.642px ">arc</tspan>hy</text>
                </g>
                <g transform="matrix(0.24,0,0,0.24,232.443,338.441)">
                    <g transform="matrix(28.4333,0,0,28.4333,442.065,466.642)">
                    </g>
                    <text x="305.846px" y="466.642px" style="font-family:'Roboto-Regular', 'Roboto';font-size:28.433px;fill:white;">cr<tspan x="330.074px " y="466.642px ">o</tspan>ss-links</text>
                </g>
                <g transform="matrix(0.24,0,0,0.24,187.276,237.159)">
                    <g transform="matrix(28.4333,0,0,28.4333,355.234,333.376)">
                    </g>
                    <text x="246.416px" y="333.376px" style="font-family:'Roboto-Regular', 'Roboto';font-size:28.433px;fill:white;">contains</text>
                </g>
                <g transform="matrix(0.24,0,0,0.24,190.523,284.52)">
                    <g transform="matrix(28.4333,0,0,28.4333,311.306,395.693)">
                    </g>
                    <text x="250.688px" y="395.693px" style="font-family:'Roboto-Regular', 'Roboto';font-size:28.433px;fill:white;">form</text>
                </g>
                <g transform="matrix(0.24,0,0,0.24,235.965,291.656)">
                    <text x="310.48px" y="405.083px" style="font-family:'Roboto-Regular', 'Roboto';font-size:28.433px;fill:white;">some</text>
                    <g transform="matrix(28.4333,0,0,28.4333,365.989,439.183)">
                    </g>
                    <text x="325.834px" y="439.183px" style="font-family:'Roboto-Regular', 'Roboto';font-size:28.433px;fill:white;">are</text>
                </g>
                <g transform="matrix(0.24,0,0,0.24,140.05,287.113)">
                    <text x="200.398px" y="399.105px" style="font-family:'Roboto-Regular', 'Roboto';font-size:28.433px;fill:white;">usally</text>
                    <text x="184.277px" y="433.205px" style="font-family:'Roboto-Regular', 'Roboto';font-size:28.433px;fill:white;">arr<tspan x="218.43px " y="433.205px ">a</tspan>nged</text>
                    <g transform="matrix(28.4333,0,0,28.4333,263.031,467.305)">
                    </g>
                    <text x="217.913px" y="467.305px" style="font-family:'Roboto-Regular', 'Roboto';font-size:28.433px;fill:white;">in a</text>
                </g>
                <g transform="matrix(0.24,0,0,0.24,181.504,257.914)">
                    <text x="270.183px" y="360.686px" style="font-family:'Roboto-Regular', 'Roboto';font-size:28.433px;fill:white;">indicate</text>
                    <text x="238.821px" y="394.786px" style="font-family:'Roboto-Regular', 'Roboto';font-size:28.433px;fill:white;">relationships</text>
                    <g transform="matrix(28.4333,0,0,28.4333,374.085,428.886)">
                    </g>
                    <text x="266.572px" y="428.886px" style="font-family:'Roboto-Regular', 'Roboto';font-size:28.433px;fill:white;">between</text>
                </g>
                <g transform="matrix(0.24,0,0,0.24,182.972,331.88)">
                    <text x="240.752px" y="458.01px" style="font-family:'Roboto-Regular', 'Roboto';font-size:28.433px;fill:white;">span acr<tspan x="349.267px " y="458.01px ">o</tspan>ss</text>
                    <text x="282.634px" y="492.11px" style="font-family:'Roboto-Regular', 'Roboto';font-size:28.433px;fill:white;">areas</text>
                    <g transform="matrix(28.4333,0,0,28.4333,354.374,526.21)">
                    </g>
                    <text x="281.213px" y="526.21px" style="font-family:'Roboto-Regular', 'Roboto';font-size:28.433px;fill:white;">of the</text>
                </g>
                <g transform="matrix(0.24,0,0,0.24,111.37,216.123)">
                    <g transform="matrix(28.4333,0,0,28.4333,253.083,305.698)">
                    </g>
                    <text x="146.54px" y="305.698px" style="font-family:'Roboto-Regular', 'Roboto';font-size:28.433px;fill:white;">answers</text>
                </g>
                <g transform="matrix(0.24,0,0,0.24,37.3782,257.463)">
                    <text x="95.471px" y="360.092px" style="font-family:'Roboto-Regular', 'Roboto';font-size:28.433px;fill:white;">are</text>
                    <g transform="matrix(28.4333,0,0,28.4333,181.949,394.192)">
                    </g>
                    <text x="49.182px" y="394.192px" style="font-family:'Roboto-Regular', 'Roboto';font-size:28.433px;fill:white;">rele<tspan x="95.661px 109.219px " y="394.192px 394.192px ">va</tspan>nt t<tspan x="165.733px " y="394.192px ">o</tspan></text>
                </g>
                <g transform="matrix(0,1,1,0,67.911,335.404)">
                    <path d="M-2.503,-2.503L2.503,-2.503" style="fill:none;fill-rule:nonzero;stroke:white;stroke-width:0.5px;"/>
                </g>
                <g transform="matrix(0,1,1,0,262.832,305.097)">
                    <path d="M-4.637,-4.637L4.637,-4.637" style="fill:none;fill-rule:nonzero;stroke:white;stroke-width:0.5px;"/>
                </g>
                <g transform="matrix(0,1,1,0,264.112,387.479)">
                    <path d="M-5.917,-5.917L5.917,-5.917" style="fill:none;fill-rule:nonzero;stroke:white;stroke-width:0.5px;"/>
                </g>
                <g transform="matrix(1,0,0,1,258.195,332.706)">
                    <path d="M0,-12.61L0,-5.898L59.934,-5.898L59.934,0" style="fill:none;fill-rule:nonzero;stroke:white;stroke-width:0.5px;"/>
                </g>
                <g transform="matrix(1,0,0,1,258.195,332.706)">
                    <path d="M0,-12.61L0,-5.898L-59.934,-5.898L-59.934,0" style="fill:none;fill-rule:nonzero;stroke:white;stroke-width:0.5px;"/>
                </g>
                <g transform="matrix(1,0,0,1,65.0932,299.489)">
                    <path d="M-3.1,-5.369L3.1,-5.369L1.55,-2.684L0,0L-1.55,-2.684L-3.1,-5.369Z" style="fill:white;fill-rule:nonzero;"/>
                </g>
                <g transform="matrix(1,0,0,1,65.4085,288.189)">
                    <path d="M0,6.712L0,0L77.584,0" style="fill:none;fill-rule:nonzero;stroke:white;stroke-width:0.5px;"/>
                </g>
                <g transform="matrix(-1,0,0,1,86.5119,350.289)">
                    <path d="M-93.938,0L0,0" style="fill:none;fill-rule:nonzero;stroke:white;stroke-width:0.5px;"/>
                </g>
                <g transform="matrix(-1,0,0,1,280.567,350.289)">
                    <path d="M-19.401,0L0,0" style="fill:none;fill-rule:nonzero;stroke:white;stroke-width:0.5px;"/>
                </g>
                <g transform="matrix(-1,0,0,1,221.661,350.289)">
                    <path d="M-15.133,0L0,0" style="fill:none;fill-rule:nonzero;stroke:white;stroke-width:0.5px;"/>
                </g>
                <g transform="matrix(0.999928,0.012037,0.012037,-0.999928,174.339,287.79)">
                    <path d="M-0.002,-0.399L66.293,-0.399" style="fill:none;fill-rule:nonzero;stroke:white;stroke-width:0.5px;"/>
                </g>
                <g transform="matrix(1,0,0,1,224.493,350.289)">
                    <path d="M0,-3.1L0,3.1L-2.685,1.55L-5.369,0L-2.685,-1.55L0,-3.1Z" style="fill:white;fill-rule:nonzero;"/>
                </g>
                <g transform="matrix(-1,0,0,1,270.323,448.464)">
                    <path d="M-33.06,0L0,0" style="fill:none;fill-rule:nonzero;stroke:white;stroke-width:0.5px;"/>
                </g>
                <g transform="matrix(-1,0,0,1,221.661,448.464)">
                    <path d="M-26.231,0L0,0" style="fill:none;fill-rule:nonzero;stroke:white;stroke-width:0.5px;"/>
                </g>
                <g transform="matrix(1,0,0,1,224.493,448.464)">
                    <path d="M0,-3.1L0,3.1L-2.685,1.55L-5.369,0L-2.685,-1.55L0,-3.1Z" style="fill:white;fill-rule:nonzero;"/>
                </g>
                <g transform="matrix(1,0,0,1,198.262,337.066)">
                    <path d="M-3.1,-5.369L3.1,-5.369L1.55,-2.684L0,0L-1.55,-2.684L-3.1,-5.369Z" style="fill:white;fill-rule:nonzero;"/>
                </g>
                <g transform="matrix(1,0,0,1,318.129,337.066)">
                    <path d="M-3.1,-5.369L3.1,-5.369L1.55,-2.684L0,0L-1.55,-2.684L-3.1,-5.369Z" style="fill:white;fill-rule:nonzero;"/>
                </g>
                <g transform="matrix(1,0,0,1,258.195,394.867)">
                    <path d="M-3.1,-5.369L3.1,-5.369L1.55,-2.684L0,0L-1.55,-2.684L-3.1,-5.369Z" style="fill:white;fill-rule:nonzero;"/>
                </g>
                <g transform="matrix(0,1,1,0,212.89,417.359)">
                    <path d="M-15.308,-15.308L15.308,-15.308" style="fill:none;fill-rule:nonzero;stroke:white;stroke-width:0.5px;"/>
                </g>
                <g transform="matrix(0,1,1,0,204.78,368.271)">
                    <path d="M-7.198,-7.198L7.198,-7.198" style="fill:none;fill-rule:nonzero;stroke:white;stroke-width:0.5px;"/>
                </g>
                <g transform="matrix(1,0,0,1,197.582,434.137)">
                    <path d="M-3.1,-5.369L3.1,-5.369L1.55,-2.684L0,0L-1.55,-2.684L-3.1,-5.369Z" style="fill:white;fill-rule:nonzero;"/>
                </g>
                <g transform="matrix(0,1,1,0,334.97,416.505)">
                    <path d="M-16.162,-16.162L16.162,-16.162" style="fill:none;fill-rule:nonzero;stroke:white;stroke-width:0.5px;"/>
                </g>
                <g transform="matrix(0,1,1,0,329.421,371.686)">
                    <path d="M-10.612,-10.612L10.612,-10.612" style="fill:none;fill-rule:nonzero;stroke:white;stroke-width:0.5px;"/>
                </g>
                <g transform="matrix(1,0,0,1,318.808,434.137)">
                    <path d="M-3.1,-5.369L3.1,-5.369L1.55,-2.684L0,0L-1.55,-2.684L-3.1,-5.369Z" style="fill:white;fill-rule:nonzero;"/>
                </g>
                <g transform="matrix(0.914372,0.404875,0.404875,-0.914372,217.611,353.413)">
                    <path d="M-1.641,-7.761L36.696,-7.761" style="fill:none;fill-rule:nonzero;stroke:white;stroke-width:0.5px;"/>
                </g>
                <g transform="matrix(-0.922021,0.387141,0.387141,0.922021,271.764,381.578)">
                    <path d="M-36.537,-7.36L1.482,-7.359" style="fill:none;fill-rule:nonzero;stroke:white;stroke-width:0.5px;"/>
                </g>
                <g transform="matrix(1,0,0,1,212.393,337.906)">
                    <path d="M0,24.765L-28.863,24.765C-31.507,24.765 -33.65,22.622 -33.65,19.978L-33.65,4.787C-33.65,2.143 -31.507,0 -28.863,0L0,0C2.644,0 4.787,2.143 4.787,4.787L4.787,19.978C4.787,22.622 2.644,24.765 0,24.765" style="fill:rgb(21,133,198);fill-rule:nonzero;"/>
                </g>
                <g transform="matrix(1,0,0,1,332.765,337.906)">
                    <path d="M0,24.765L-28.863,24.765C-31.507,24.765 -33.65,22.622 -33.65,19.978L-33.65,4.787C-33.65,2.143 -31.507,0 -28.863,0L0,0C2.644,0 4.787,2.143 4.787,4.787L4.787,19.978C4.787,22.622 2.644,24.765 0,24.765" style="fill:rgb(21,133,198);fill-rule:nonzero;"/>
                </g>
                <g transform="matrix(0.24,0,0,0.24,139.663,263.827)">
                    <g transform="matrix(28.4333,0,0,28.4333,300.403,368.466)">
                    </g>
                    <text x="183.767px" y="368.466px" style="font-family:'Roboto-Regular', 'Roboto';font-size:28.433px;fill:white;">concepts</text>
                </g>
                <g transform="matrix(0.24,0,0,0.24,231.146,261.232)">
                    <text x="304.14px" y="365.051px" style="font-family:'Roboto-Regular', 'Roboto';font-size:28.433px;fill:white;">labelled</text>
                    <g transform="matrix(28.4333,0,0,28.4333,362.744,399.151)">
                    </g>
                    <text x="304.14px" y="399.151px" style="font-family:'Roboto-Regular', 'Roboto';font-size:28.433px;fill:white;">links</text>
                </g>
            </g>
        </g>
    </g>
</svg>
