<?xml version="1.0" encoding="UTF-8" standalone="no"?>
<!DOCTYPE svg PUBLIC "-//W3C//DTD SVG 1.1//EN" "http://www.w3.org/Graphics/SVG/1.1/DTD/svg11.dtd">
<svg width="100%" height="100%" viewBox="0 0 1085 888" version="1.1" xmlns="http://www.w3.org/2000/svg" xmlns:xlink="http://www.w3.org/1999/xlink" xml:space="preserve" xmlns:serif="http://www.serif.com/" style="fill-rule:evenodd;clip-rule:evenodd;stroke-miterlimit:10;">
    <g id="Artboard1" transform="matrix(1,0,0,1,-1302.38,-1274.09)">
        <rect x="1302.38" y="1274.09" width="1084.09" height="887.146" style="fill:none;"/>
        <clipPath id="_clip1">
            <rect x="1302.38" y="1274.09" width="1084.09" height="887.146"/>
        </clipPath>
        <g clip-path="url(#_clip1)">
            <g id="Layer-1" serif:id="Layer 1" transform="matrix(4.16667,0,0,4.16667,0.383583,0.0916667)">
                <g transform="matrix(-1,0,0,1,609.952,2.057)">
                    <rect x="-4.823" y="-19.225" width="628.102" height="886.787" style="fill:none;stroke:rgb(35,31,32);stroke-width:1px;"/>
                </g>
                <g transform="matrix(1,0,0,1,459.448,432.887)">
                    <path d="M0,-59.145L17.074,-29.572L34.148,0L-34.148,0L-17.074,-29.572L0,-59.145Z" style="fill:none;fill-rule:nonzero;stroke:rgb(0,17,27);stroke-width:0.53px;"/>
                </g>
                <g transform="matrix(0,-1,-1,0,459.466,393.511)">
                    <circle cx="-19.585" cy="0" r="19.585" style="fill:none;stroke:rgb(0,17,27);stroke-width:0.53px;"/>
                </g>
                <g transform="matrix(0.00406046,-0.999992,-0.999992,-0.00406046,450.076,329.697)">
                    <path d="M-63.519,-9.52L-36.675,-9.52L-19.346,2.887L-19.593,63.846L-9.56,63.886" style="fill:none;fill-rule:nonzero;stroke:rgb(0,17,27);stroke-width:0.53px;"/>
                </g>
                <g transform="matrix(1,0,0,1,381.334,492.296)">
                    <path d="M0,7.991L0,-1.183L151.17,-1.183L151.17,9.174" style="fill:none;fill-rule:nonzero;stroke:rgb(0,17,27);stroke-width:0.53px;"/>
                </g>
                <g transform="matrix(0,1,1,0,487.001,344.331)">
                    <path d="M-5.179,-5.179L5.179,-5.179" style="fill:none;fill-rule:nonzero;stroke:rgb(0,17,27);stroke-width:0.53px;"/>
                </g>
                <g transform="matrix(0.115983,-0.210114,0.210114,0.115983,324.974,312.091)">
                    <g transform="matrix(22.4749,0,0,22.4749,-152.87,589.656)">
                        <path d="M0.338,-0.241L0.161,-0.241L0.161,-0.374L0.338,-0.374C0.362,-0.374 0.382,-0.378 0.396,-0.386C0.411,-0.394 0.422,-0.405 0.429,-0.42C0.436,-0.434 0.44,-0.451 0.44,-0.469C0.44,-0.488 0.436,-0.506 0.429,-0.523C0.422,-0.54 0.411,-0.553 0.396,-0.563C0.382,-0.573 0.362,-0.579 0.338,-0.579L0.226,-0.579L0.226,-0L0.054,-0L0.054,-0.711L0.338,-0.711C0.395,-0.711 0.444,-0.701 0.485,-0.68C0.526,-0.659 0.558,-0.63 0.58,-0.594C0.602,-0.558 0.613,-0.516 0.613,-0.47C0.613,-0.424 0.602,-0.384 0.58,-0.35C0.558,-0.315 0.526,-0.289 0.485,-0.27C0.444,-0.251 0.395,-0.241 0.338,-0.241Z" style="fill:rgb(37,19,69);fill-rule:nonzero;"/>
                    </g>
                    <g transform="matrix(22.4749,0,0,22.4749,-138.238,589.656)">
                        <path d="M0.302,0.01C0.259,0.01 0.221,0.003 0.187,-0.01C0.153,-0.024 0.125,-0.043 0.101,-0.066C0.078,-0.09 0.06,-0.118 0.048,-0.148C0.036,-0.179 0.03,-0.212 0.03,-0.247L0.03,-0.265C0.03,-0.304 0.035,-0.34 0.046,-0.373C0.057,-0.406 0.073,-0.435 0.094,-0.459C0.115,-0.484 0.141,-0.503 0.173,-0.517C0.205,-0.531 0.242,-0.538 0.285,-0.538C0.322,-0.538 0.356,-0.532 0.385,-0.52C0.415,-0.508 0.44,-0.491 0.461,-0.468C0.481,-0.446 0.497,-0.419 0.508,-0.387C0.519,-0.355 0.524,-0.319 0.524,-0.279L0.524,-0.212L0.093,-0.212L0.093,-0.315L0.364,-0.315L0.364,-0.328C0.364,-0.346 0.361,-0.361 0.355,-0.373C0.348,-0.385 0.339,-0.395 0.327,-0.401C0.315,-0.408 0.3,-0.411 0.283,-0.411C0.265,-0.411 0.251,-0.407 0.239,-0.399C0.227,-0.392 0.219,-0.381 0.212,-0.367C0.206,-0.354 0.201,-0.338 0.199,-0.321C0.196,-0.303 0.195,-0.285 0.195,-0.265L0.195,-0.247C0.195,-0.227 0.198,-0.209 0.203,-0.193C0.208,-0.177 0.216,-0.164 0.226,-0.153C0.237,-0.141 0.249,-0.133 0.263,-0.126C0.278,-0.12 0.294,-0.117 0.313,-0.117C0.335,-0.117 0.358,-0.121 0.379,-0.13C0.401,-0.138 0.42,-0.152 0.436,-0.172L0.51,-0.083C0.5,-0.068 0.484,-0.053 0.465,-0.039C0.445,-0.024 0.421,-0.013 0.394,-0.004C0.367,0.005 0.336,0.01 0.302,0.01Z" style="fill:rgb(37,19,69);fill-rule:nonzero;"/>
                    </g>
                    <g transform="matrix(22.4749,0,0,22.4749,-126.003,589.656)">
                        <path d="M0.35,-0.121L0.35,-0.75L0.516,-0.75L0.516,-0L0.367,-0L0.35,-0.121ZM0.026,-0.258L0.026,-0.268C0.026,-0.308 0.03,-0.345 0.039,-0.378C0.048,-0.411 0.061,-0.439 0.078,-0.463C0.095,-0.487 0.117,-0.506 0.143,-0.519C0.168,-0.532 0.198,-0.538 0.231,-0.538C0.261,-0.538 0.288,-0.531 0.31,-0.517C0.333,-0.503 0.352,-0.484 0.368,-0.459C0.384,-0.435 0.397,-0.406 0.407,-0.373C0.417,-0.34 0.424,-0.304 0.43,-0.266L0.43,-0.254C0.424,-0.218 0.417,-0.184 0.407,-0.153C0.397,-0.121 0.384,-0.093 0.368,-0.068C0.352,-0.044 0.332,-0.025 0.31,-0.011C0.287,0.003 0.261,0.01 0.23,0.01C0.197,0.01 0.167,0.003 0.142,-0.01C0.116,-0.024 0.095,-0.042 0.078,-0.066C0.061,-0.09 0.048,-0.119 0.039,-0.151C0.03,-0.184 0.026,-0.219 0.026,-0.258ZM0.19,-0.268L0.19,-0.258C0.19,-0.238 0.192,-0.22 0.194,-0.203C0.197,-0.186 0.201,-0.171 0.208,-0.158C0.214,-0.145 0.223,-0.135 0.233,-0.128C0.244,-0.121 0.257,-0.117 0.272,-0.117C0.294,-0.117 0.311,-0.122 0.325,-0.132C0.339,-0.142 0.349,-0.157 0.356,-0.175C0.362,-0.194 0.365,-0.216 0.364,-0.241L0.364,-0.279C0.365,-0.301 0.363,-0.32 0.36,-0.336C0.356,-0.353 0.351,-0.366 0.343,-0.377C0.335,-0.389 0.326,-0.397 0.314,-0.403C0.303,-0.408 0.289,-0.411 0.273,-0.411C0.258,-0.411 0.245,-0.408 0.235,-0.4C0.224,-0.393 0.215,-0.383 0.209,-0.37C0.202,-0.358 0.198,-0.342 0.195,-0.325C0.192,-0.308 0.19,-0.289 0.19,-0.268Z" style="fill:rgb(37,19,69);fill-rule:nonzero;"/>
                    </g>
                    <g transform="matrix(22.4749,0,0,22.4749,-113.372,589.656)">
                        <path d="M0.321,-0.133L0.321,-0.351C0.321,-0.366 0.319,-0.378 0.314,-0.389C0.31,-0.4 0.304,-0.408 0.294,-0.414C0.285,-0.42 0.273,-0.423 0.258,-0.423C0.245,-0.423 0.235,-0.421 0.226,-0.417C0.217,-0.413 0.211,-0.406 0.206,-0.398C0.201,-0.389 0.199,-0.379 0.199,-0.366L0.035,-0.366C0.035,-0.39 0.04,-0.413 0.051,-0.434C0.062,-0.455 0.078,-0.473 0.098,-0.489C0.118,-0.504 0.143,-0.517 0.171,-0.525C0.2,-0.534 0.231,-0.538 0.267,-0.538C0.309,-0.538 0.346,-0.531 0.379,-0.517C0.412,-0.503 0.438,-0.482 0.458,-0.454C0.477,-0.427 0.486,-0.392 0.486,-0.35L0.486,-0.133C0.486,-0.099 0.488,-0.073 0.492,-0.055C0.496,-0.037 0.502,-0.022 0.509,-0.008L0.509,-0L0.344,-0C0.336,-0.016 0.33,-0.036 0.326,-0.06C0.323,-0.083 0.321,-0.108 0.321,-0.133ZM0.341,-0.323L0.342,-0.235L0.269,-0.235C0.254,-0.235 0.241,-0.233 0.23,-0.229C0.22,-0.224 0.211,-0.219 0.205,-0.211C0.198,-0.204 0.194,-0.196 0.191,-0.187C0.188,-0.177 0.187,-0.168 0.187,-0.158C0.187,-0.148 0.189,-0.139 0.194,-0.132C0.199,-0.124 0.205,-0.118 0.213,-0.114C0.222,-0.11 0.231,-0.107 0.241,-0.107C0.259,-0.107 0.274,-0.111 0.287,-0.118C0.3,-0.125 0.31,-0.133 0.317,-0.144C0.324,-0.154 0.327,-0.163 0.327,-0.172L0.363,-0.104C0.357,-0.091 0.349,-0.078 0.341,-0.065C0.333,-0.052 0.323,-0.039 0.31,-0.028C0.298,-0.017 0.283,-0.008 0.266,-0.001C0.248,0.006 0.227,0.01 0.202,0.01C0.169,0.01 0.139,0.003 0.112,-0.01C0.085,-0.024 0.063,-0.042 0.047,-0.066C0.031,-0.09 0.022,-0.118 0.022,-0.149C0.022,-0.176 0.027,-0.201 0.037,-0.222C0.047,-0.244 0.062,-0.262 0.083,-0.277C0.103,-0.292 0.128,-0.303 0.16,-0.311C0.191,-0.319 0.228,-0.323 0.27,-0.323L0.341,-0.323Z" style="fill:rgb(37,19,69);fill-rule:nonzero;"/>
                    </g>
                    <g transform="matrix(22.4749,0,0,22.4749,-101.444,589.656)">
                        <path d="M0.378,-0.528L0.528,-0.528L0.528,-0.021C0.528,0.028 0.517,0.07 0.494,0.104C0.472,0.138 0.44,0.164 0.4,0.181C0.36,0.199 0.313,0.208 0.259,0.208C0.236,0.208 0.211,0.205 0.187,0.199C0.162,0.193 0.139,0.184 0.117,0.172C0.096,0.161 0.078,0.146 0.063,0.129L0.132,0.032C0.145,0.047 0.162,0.06 0.182,0.071C0.202,0.081 0.226,0.086 0.253,0.086C0.277,0.086 0.297,0.082 0.313,0.074C0.329,0.065 0.342,0.053 0.35,0.037C0.359,0.021 0.363,0.001 0.363,-0.021L0.363,-0.403L0.378,-0.528ZM0.027,-0.258L0.027,-0.268C0.027,-0.308 0.032,-0.345 0.042,-0.378C0.052,-0.411 0.066,-0.439 0.085,-0.463C0.104,-0.487 0.127,-0.506 0.153,-0.519C0.18,-0.532 0.21,-0.538 0.244,-0.538C0.28,-0.538 0.309,-0.531 0.333,-0.517C0.356,-0.503 0.375,-0.484 0.389,-0.459C0.403,-0.435 0.414,-0.406 0.422,-0.373C0.43,-0.34 0.437,-0.304 0.442,-0.266L0.442,-0.254C0.437,-0.218 0.429,-0.184 0.42,-0.153C0.41,-0.121 0.398,-0.093 0.382,-0.068C0.367,-0.044 0.348,-0.025 0.325,-0.011C0.302,0.003 0.275,0.01 0.243,0.01C0.209,0.01 0.18,0.003 0.153,-0.01C0.127,-0.024 0.104,-0.042 0.085,-0.066C0.066,-0.09 0.052,-0.119 0.042,-0.151C0.032,-0.184 0.027,-0.219 0.027,-0.258ZM0.192,-0.268L0.192,-0.258C0.192,-0.238 0.194,-0.22 0.198,-0.203C0.201,-0.186 0.207,-0.171 0.215,-0.158C0.223,-0.145 0.232,-0.135 0.244,-0.128C0.255,-0.121 0.269,-0.117 0.285,-0.117C0.308,-0.117 0.328,-0.122 0.342,-0.132C0.357,-0.142 0.368,-0.157 0.374,-0.175C0.381,-0.194 0.383,-0.216 0.382,-0.241L0.382,-0.279C0.383,-0.301 0.382,-0.32 0.378,-0.336C0.374,-0.353 0.369,-0.366 0.361,-0.377C0.353,-0.389 0.343,-0.397 0.331,-0.403C0.318,-0.408 0.303,-0.411 0.286,-0.411C0.27,-0.411 0.257,-0.408 0.245,-0.4C0.233,-0.393 0.224,-0.383 0.216,-0.37C0.208,-0.358 0.202,-0.342 0.198,-0.325C0.194,-0.308 0.192,-0.289 0.192,-0.268Z" style="fill:rgb(37,19,69);fill-rule:nonzero;"/>
                    </g>
                    <g transform="matrix(22.4749,0,0,22.4749,-88.5167,589.656)">
                        <path d="M0.026,-0.259L0.026,-0.269C0.026,-0.308 0.031,-0.344 0.042,-0.376C0.054,-0.409 0.07,-0.437 0.091,-0.461C0.113,-0.486 0.139,-0.504 0.171,-0.518C0.202,-0.531 0.239,-0.538 0.28,-0.538C0.322,-0.538 0.359,-0.531 0.39,-0.518C0.422,-0.504 0.449,-0.486 0.47,-0.461C0.492,-0.437 0.508,-0.409 0.519,-0.376C0.53,-0.344 0.536,-0.308 0.536,-0.269L0.536,-0.259C0.536,-0.22 0.53,-0.185 0.519,-0.152C0.508,-0.119 0.492,-0.091 0.47,-0.067C0.449,-0.042 0.422,-0.024 0.391,-0.01C0.359,0.003 0.323,0.01 0.281,0.01C0.24,0.01 0.203,0.003 0.171,-0.01C0.139,-0.024 0.113,-0.042 0.091,-0.067C0.07,-0.091 0.054,-0.119 0.042,-0.152C0.031,-0.185 0.026,-0.22 0.026,-0.259ZM0.19,-0.269L0.19,-0.259C0.19,-0.239 0.192,-0.22 0.195,-0.203C0.198,-0.186 0.203,-0.171 0.209,-0.158C0.216,-0.145 0.226,-0.135 0.237,-0.128C0.249,-0.121 0.264,-0.117 0.281,-0.117C0.299,-0.117 0.313,-0.121 0.324,-0.128C0.336,-0.135 0.345,-0.145 0.352,-0.158C0.359,-0.171 0.364,-0.186 0.367,-0.203C0.37,-0.22 0.371,-0.239 0.371,-0.259L0.371,-0.269C0.371,-0.288 0.37,-0.306 0.367,-0.323C0.364,-0.341 0.359,-0.356 0.352,-0.369C0.345,-0.382 0.336,-0.392 0.324,-0.4C0.313,-0.407 0.298,-0.411 0.28,-0.411C0.263,-0.411 0.249,-0.407 0.237,-0.4C0.226,-0.392 0.216,-0.382 0.209,-0.369C0.203,-0.356 0.198,-0.341 0.195,-0.323C0.192,-0.306 0.19,-0.288 0.19,-0.269Z" style="fill:rgb(37,19,69);fill-rule:nonzero;"/>
                    </g>
                    <g transform="matrix(22.4749,0,0,22.4749,-75.897,589.656)">
                        <path d="M0.378,-0.528L0.528,-0.528L0.528,-0.021C0.528,0.028 0.517,0.07 0.494,0.104C0.472,0.138 0.44,0.164 0.4,0.181C0.36,0.199 0.313,0.208 0.259,0.208C0.236,0.208 0.211,0.205 0.187,0.199C0.162,0.193 0.139,0.184 0.117,0.172C0.096,0.161 0.078,0.146 0.063,0.129L0.132,0.032C0.145,0.047 0.162,0.06 0.182,0.071C0.202,0.081 0.226,0.086 0.253,0.086C0.277,0.086 0.297,0.082 0.313,0.074C0.329,0.065 0.342,0.053 0.35,0.037C0.359,0.021 0.363,0.001 0.363,-0.021L0.363,-0.403L0.378,-0.528ZM0.027,-0.258L0.027,-0.268C0.027,-0.308 0.032,-0.345 0.042,-0.378C0.052,-0.411 0.066,-0.439 0.085,-0.463C0.104,-0.487 0.127,-0.506 0.153,-0.519C0.18,-0.532 0.21,-0.538 0.244,-0.538C0.28,-0.538 0.309,-0.531 0.333,-0.517C0.356,-0.503 0.375,-0.484 0.389,-0.459C0.403,-0.435 0.414,-0.406 0.422,-0.373C0.43,-0.34 0.437,-0.304 0.442,-0.266L0.442,-0.254C0.437,-0.218 0.429,-0.184 0.42,-0.153C0.41,-0.121 0.398,-0.093 0.382,-0.068C0.367,-0.044 0.348,-0.025 0.325,-0.011C0.302,0.003 0.275,0.01 0.243,0.01C0.209,0.01 0.18,0.003 0.153,-0.01C0.127,-0.024 0.104,-0.042 0.085,-0.066C0.066,-0.09 0.052,-0.119 0.042,-0.151C0.032,-0.184 0.027,-0.219 0.027,-0.258ZM0.192,-0.268L0.192,-0.258C0.192,-0.238 0.194,-0.22 0.198,-0.203C0.201,-0.186 0.207,-0.171 0.215,-0.158C0.223,-0.145 0.232,-0.135 0.244,-0.128C0.255,-0.121 0.269,-0.117 0.285,-0.117C0.308,-0.117 0.328,-0.122 0.342,-0.132C0.357,-0.142 0.368,-0.157 0.374,-0.175C0.381,-0.194 0.383,-0.216 0.382,-0.241L0.382,-0.279C0.383,-0.301 0.382,-0.32 0.378,-0.336C0.374,-0.353 0.369,-0.366 0.361,-0.377C0.353,-0.389 0.343,-0.397 0.331,-0.403C0.318,-0.408 0.303,-0.411 0.286,-0.411C0.27,-0.411 0.257,-0.408 0.245,-0.4C0.233,-0.393 0.224,-0.383 0.216,-0.37C0.208,-0.358 0.202,-0.342 0.198,-0.325C0.194,-0.308 0.192,-0.289 0.192,-0.268Z" style="fill:rgb(37,19,69);fill-rule:nonzero;"/>
                    </g>
                    <g transform="matrix(22.4749,0,0,22.4749,-62.97,589.656)">
                        <path d="M0.208,-0.062L0.345,-0.528L0.522,-0.528L0.31,0.079C0.305,0.092 0.299,0.106 0.292,0.122C0.284,0.137 0.274,0.152 0.261,0.166C0.248,0.18 0.231,0.191 0.211,0.2C0.19,0.209 0.165,0.213 0.135,0.213C0.119,0.213 0.108,0.213 0.1,0.211C0.093,0.21 0.082,0.207 0.067,0.204L0.067,0.086L0.088,0.086C0.106,0.086 0.12,0.084 0.131,0.081C0.141,0.077 0.149,0.072 0.155,0.065C0.161,0.058 0.165,0.05 0.168,0.04L0.208,-0.062ZM0.174,-0.528L0.278,-0.159L0.296,0.016L0.186,0.016L-0.002,-0.528L0.174,-0.528Z" style="fill:rgb(37,19,69);fill-rule:nonzero;"/>
                    </g>
                    <g transform="matrix(22.4749,0,0,22.4749,-51.3265,589.656)">
                    </g>
                </g>
                <g transform="matrix(0.122119,0.206608,-0.206608,0.122119,362.605,295.516)">
                    <g transform="matrix(22.4749,0,0,22.4749,577.504,-196.023)">
                        <rect x="0.065" y="-0.711" width="0.171" height="0.711" style="fill:rgb(37,19,69);fill-rule:nonzero;"/>
                    </g>
                    <g transform="matrix(22.4749,0,0,22.4749,584.294,-196.023)">
                        <path d="M0.208,-0.416L0.208,-0L0.043,-0L0.043,-0.528L0.198,-0.528L0.208,-0.416ZM0.188,-0.282L0.15,-0.281C0.15,-0.322 0.155,-0.358 0.165,-0.389C0.174,-0.421 0.188,-0.448 0.206,-0.47C0.224,-0.492 0.245,-0.509 0.27,-0.521C0.295,-0.532 0.323,-0.538 0.354,-0.538C0.378,-0.538 0.4,-0.535 0.421,-0.527C0.441,-0.52 0.459,-0.509 0.473,-0.493C0.488,-0.477 0.5,-0.456 0.508,-0.429C0.516,-0.403 0.52,-0.371 0.52,-0.333L0.52,-0L0.354,-0L0.354,-0.333C0.354,-0.354 0.351,-0.37 0.345,-0.382C0.339,-0.393 0.331,-0.401 0.32,-0.405C0.309,-0.409 0.295,-0.411 0.279,-0.411C0.262,-0.411 0.248,-0.408 0.236,-0.401C0.225,-0.395 0.215,-0.386 0.208,-0.374C0.201,-0.363 0.196,-0.349 0.193,-0.333C0.19,-0.318 0.188,-0.301 0.188,-0.282Z" style="fill:rgb(37,19,69);fill-rule:nonzero;"/>
                    </g>
                    <g transform="matrix(22.4749,0,0,22.4749,596.977,-196.023)">
                        <path d="M0.35,-0.121L0.35,-0.75L0.516,-0.75L0.516,-0L0.367,-0L0.35,-0.121ZM0.026,-0.258L0.026,-0.268C0.026,-0.308 0.03,-0.345 0.039,-0.378C0.048,-0.411 0.061,-0.439 0.078,-0.463C0.095,-0.487 0.117,-0.506 0.143,-0.519C0.168,-0.532 0.198,-0.538 0.231,-0.538C0.261,-0.538 0.288,-0.531 0.31,-0.517C0.333,-0.503 0.352,-0.484 0.368,-0.459C0.384,-0.435 0.397,-0.406 0.407,-0.373C0.417,-0.34 0.424,-0.304 0.43,-0.266L0.43,-0.254C0.424,-0.218 0.417,-0.184 0.407,-0.153C0.397,-0.121 0.384,-0.093 0.368,-0.068C0.352,-0.044 0.332,-0.025 0.31,-0.011C0.287,0.003 0.261,0.01 0.23,0.01C0.197,0.01 0.167,0.003 0.142,-0.01C0.116,-0.024 0.095,-0.042 0.078,-0.066C0.061,-0.09 0.048,-0.119 0.039,-0.151C0.03,-0.184 0.026,-0.219 0.026,-0.258ZM0.19,-0.268L0.19,-0.258C0.19,-0.238 0.192,-0.22 0.194,-0.203C0.197,-0.186 0.201,-0.171 0.208,-0.158C0.214,-0.145 0.223,-0.135 0.233,-0.128C0.244,-0.121 0.257,-0.117 0.272,-0.117C0.294,-0.117 0.311,-0.122 0.325,-0.132C0.339,-0.142 0.349,-0.157 0.356,-0.175C0.362,-0.194 0.365,-0.216 0.364,-0.241L0.364,-0.279C0.365,-0.301 0.363,-0.32 0.36,-0.336C0.356,-0.353 0.351,-0.366 0.343,-0.377C0.335,-0.389 0.326,-0.397 0.314,-0.403C0.303,-0.408 0.289,-0.411 0.273,-0.411C0.258,-0.411 0.245,-0.408 0.235,-0.4C0.224,-0.393 0.215,-0.383 0.209,-0.37C0.202,-0.358 0.198,-0.342 0.195,-0.325C0.192,-0.308 0.19,-0.289 0.19,-0.268Z" style="fill:rgb(37,19,69);fill-rule:nonzero;"/>
                    </g>
                    <g transform="matrix(22.4749,0,0,22.4749,609.616,-196.023)">
                        <path d="M0.22,-0.528L0.22,-0L0.055,-0L0.055,-0.528L0.22,-0.528ZM0.045,-0.665C0.045,-0.688 0.054,-0.707 0.071,-0.722C0.088,-0.737 0.11,-0.745 0.137,-0.745C0.164,-0.745 0.186,-0.737 0.203,-0.722C0.22,-0.707 0.228,-0.688 0.228,-0.665C0.228,-0.641 0.22,-0.622 0.203,-0.607C0.186,-0.592 0.164,-0.584 0.137,-0.584C0.11,-0.584 0.088,-0.592 0.071,-0.607C0.054,-0.622 0.045,-0.641 0.045,-0.665Z" style="fill:rgb(37,19,69);fill-rule:nonzero;"/>
                    </g>
                    <g transform="matrix(22.4749,0,0,22.4749,615.791,-196.023)">
                        <path d="M0.237,-0.113L0.341,-0.528L0.514,-0.528L0.341,-0L0.239,-0L0.237,-0.113ZM0.175,-0.528L0.278,-0.113L0.277,-0L0.174,-0L0.001,-0.528L0.175,-0.528Z" style="fill:rgb(37,19,69);fill-rule:nonzero;"/>
                    </g>
                    <g transform="matrix(22.4749,0,0,22.4749,627.398,-196.023)">
                        <path d="M0.22,-0.528L0.22,-0L0.055,-0L0.055,-0.528L0.22,-0.528ZM0.045,-0.665C0.045,-0.688 0.054,-0.707 0.071,-0.722C0.088,-0.737 0.11,-0.745 0.137,-0.745C0.164,-0.745 0.186,-0.737 0.203,-0.722C0.22,-0.707 0.228,-0.688 0.228,-0.665C0.228,-0.641 0.22,-0.622 0.203,-0.607C0.186,-0.592 0.164,-0.584 0.137,-0.584C0.11,-0.584 0.088,-0.592 0.071,-0.607C0.054,-0.622 0.045,-0.641 0.045,-0.665Z" style="fill:rgb(37,19,69);fill-rule:nonzero;"/>
                    </g>
                    <g transform="matrix(22.4749,0,0,22.4749,633.573,-196.023)">
                        <path d="M0.35,-0.121L0.35,-0.75L0.516,-0.75L0.516,-0L0.367,-0L0.35,-0.121ZM0.026,-0.258L0.026,-0.268C0.026,-0.308 0.03,-0.345 0.039,-0.378C0.048,-0.411 0.061,-0.439 0.078,-0.463C0.095,-0.487 0.117,-0.506 0.143,-0.519C0.168,-0.532 0.198,-0.538 0.231,-0.538C0.261,-0.538 0.288,-0.531 0.31,-0.517C0.333,-0.503 0.352,-0.484 0.368,-0.459C0.384,-0.435 0.397,-0.406 0.407,-0.373C0.417,-0.34 0.424,-0.304 0.43,-0.266L0.43,-0.254C0.424,-0.218 0.417,-0.184 0.407,-0.153C0.397,-0.121 0.384,-0.093 0.368,-0.068C0.352,-0.044 0.332,-0.025 0.31,-0.011C0.287,0.003 0.261,0.01 0.23,0.01C0.197,0.01 0.167,0.003 0.142,-0.01C0.116,-0.024 0.095,-0.042 0.078,-0.066C0.061,-0.09 0.048,-0.119 0.039,-0.151C0.03,-0.184 0.026,-0.219 0.026,-0.258ZM0.19,-0.268L0.19,-0.258C0.19,-0.238 0.192,-0.22 0.194,-0.203C0.197,-0.186 0.201,-0.171 0.208,-0.158C0.214,-0.145 0.223,-0.135 0.233,-0.128C0.244,-0.121 0.257,-0.117 0.272,-0.117C0.294,-0.117 0.311,-0.122 0.325,-0.132C0.339,-0.142 0.349,-0.157 0.356,-0.175C0.362,-0.194 0.365,-0.216 0.364,-0.241L0.364,-0.279C0.365,-0.301 0.363,-0.32 0.36,-0.336C0.356,-0.353 0.351,-0.366 0.343,-0.377C0.335,-0.389 0.326,-0.397 0.314,-0.403C0.303,-0.408 0.289,-0.411 0.273,-0.411C0.258,-0.411 0.245,-0.408 0.235,-0.4C0.224,-0.393 0.215,-0.383 0.209,-0.37C0.202,-0.358 0.198,-0.342 0.195,-0.325C0.192,-0.308 0.19,-0.289 0.19,-0.268Z" style="fill:rgb(37,19,69);fill-rule:nonzero;"/>
                    </g>
                    <g transform="matrix(22.4749,0,0,22.4749,646.212,-196.023)">
                        <path d="M0.355,-0.128L0.355,-0.528L0.52,-0.528L0.52,-0L0.366,-0L0.355,-0.128ZM0.371,-0.236L0.414,-0.237C0.414,-0.201 0.409,-0.169 0.401,-0.138C0.392,-0.108 0.38,-0.082 0.364,-0.06C0.347,-0.038 0.327,-0.021 0.303,-0.009C0.279,0.004 0.251,0.01 0.22,0.01C0.194,0.01 0.17,0.006 0.149,-0.001C0.127,-0.009 0.108,-0.02 0.093,-0.036C0.077,-0.052 0.065,-0.072 0.056,-0.097C0.048,-0.122 0.043,-0.152 0.043,-0.187L0.043,-0.528L0.208,-0.528L0.208,-0.186C0.208,-0.174 0.209,-0.164 0.212,-0.155C0.215,-0.147 0.22,-0.14 0.225,-0.134C0.231,-0.128 0.238,-0.124 0.246,-0.121C0.254,-0.119 0.264,-0.117 0.274,-0.117C0.299,-0.117 0.319,-0.122 0.333,-0.133C0.347,-0.143 0.356,-0.157 0.362,-0.175C0.368,-0.193 0.371,-0.213 0.371,-0.236Z" style="fill:rgb(37,19,69);fill-rule:nonzero;"/>
                    </g>
                    <g transform="matrix(22.4749,0,0,22.4749,658.895,-196.023)">
                        <path d="M0.321,-0.133L0.321,-0.351C0.321,-0.366 0.319,-0.378 0.314,-0.389C0.31,-0.4 0.304,-0.408 0.294,-0.414C0.285,-0.42 0.273,-0.423 0.258,-0.423C0.245,-0.423 0.235,-0.421 0.226,-0.417C0.217,-0.413 0.211,-0.406 0.206,-0.398C0.201,-0.389 0.199,-0.379 0.199,-0.366L0.035,-0.366C0.035,-0.39 0.04,-0.413 0.051,-0.434C0.062,-0.455 0.078,-0.473 0.098,-0.489C0.118,-0.504 0.143,-0.517 0.171,-0.525C0.2,-0.534 0.231,-0.538 0.267,-0.538C0.309,-0.538 0.346,-0.531 0.379,-0.517C0.412,-0.503 0.438,-0.482 0.458,-0.454C0.477,-0.427 0.486,-0.392 0.486,-0.35L0.486,-0.133C0.486,-0.099 0.488,-0.073 0.492,-0.055C0.496,-0.037 0.502,-0.022 0.509,-0.008L0.509,-0L0.344,-0C0.336,-0.016 0.33,-0.036 0.326,-0.06C0.323,-0.083 0.321,-0.108 0.321,-0.133ZM0.341,-0.323L0.342,-0.235L0.269,-0.235C0.254,-0.235 0.241,-0.233 0.23,-0.229C0.22,-0.224 0.211,-0.219 0.205,-0.211C0.198,-0.204 0.194,-0.196 0.191,-0.187C0.188,-0.177 0.187,-0.168 0.187,-0.158C0.187,-0.148 0.189,-0.139 0.194,-0.132C0.199,-0.124 0.205,-0.118 0.213,-0.114C0.222,-0.11 0.231,-0.107 0.241,-0.107C0.259,-0.107 0.274,-0.111 0.287,-0.118C0.3,-0.125 0.31,-0.133 0.317,-0.144C0.324,-0.154 0.327,-0.163 0.327,-0.172L0.363,-0.104C0.357,-0.091 0.349,-0.078 0.341,-0.065C0.333,-0.052 0.323,-0.039 0.31,-0.028C0.298,-0.017 0.283,-0.008 0.266,-0.001C0.248,0.006 0.227,0.01 0.202,0.01C0.169,0.01 0.139,0.003 0.112,-0.01C0.085,-0.024 0.063,-0.042 0.047,-0.066C0.031,-0.09 0.022,-0.118 0.022,-0.149C0.022,-0.176 0.027,-0.201 0.037,-0.222C0.047,-0.244 0.062,-0.262 0.083,-0.277C0.103,-0.292 0.128,-0.303 0.16,-0.311C0.191,-0.319 0.228,-0.323 0.27,-0.323L0.341,-0.323Z" style="fill:rgb(37,19,69);fill-rule:nonzero;"/>
                    </g>
                    <g transform="matrix(22.4749,0,0,22.4749,670.831,-196.023)">
                        <rect x="0.055" y="-0.75" width="0.165" height="0.75" style="fill:rgb(37,19,69);fill-rule:nonzero;"/>
                    </g>
                    <g transform="matrix(22.4749,0,0,22.4749,677.01,-196.023)">
                    </g>
                </g>
                <g transform="matrix(0.24,0,0,0.24,337.991,331.851)">
                    <g transform="matrix(22.475,0,0,22.475,444.725,453.502)">
                        <path d="M0.398,-0.711L0.398,-0L0.227,-0L0.227,-0.711L0.398,-0.711ZM0.612,-0.711L0.612,-0.579L0.018,-0.579L0.018,-0.711L0.612,-0.711Z" style="fill:rgb(37,19,69);fill-rule:nonzero;"/>
                    </g>
                    <g transform="matrix(22.475,0,0,22.475,458.895,453.502)">
                        <path d="M0.302,0.01C0.259,0.01 0.221,0.003 0.187,-0.01C0.153,-0.024 0.125,-0.043 0.101,-0.066C0.078,-0.09 0.06,-0.118 0.048,-0.148C0.036,-0.179 0.03,-0.212 0.03,-0.247L0.03,-0.265C0.03,-0.304 0.035,-0.34 0.046,-0.373C0.057,-0.406 0.073,-0.435 0.094,-0.459C0.115,-0.484 0.141,-0.503 0.173,-0.517C0.205,-0.531 0.242,-0.538 0.285,-0.538C0.322,-0.538 0.356,-0.532 0.385,-0.52C0.415,-0.508 0.44,-0.491 0.461,-0.468C0.481,-0.446 0.497,-0.419 0.508,-0.387C0.519,-0.355 0.524,-0.319 0.524,-0.279L0.524,-0.212L0.093,-0.212L0.093,-0.315L0.364,-0.315L0.364,-0.328C0.364,-0.346 0.361,-0.361 0.355,-0.373C0.348,-0.385 0.339,-0.395 0.327,-0.401C0.315,-0.408 0.3,-0.411 0.283,-0.411C0.265,-0.411 0.251,-0.407 0.239,-0.399C0.227,-0.392 0.219,-0.381 0.212,-0.367C0.206,-0.354 0.201,-0.338 0.199,-0.321C0.196,-0.303 0.195,-0.285 0.195,-0.265L0.195,-0.247C0.195,-0.227 0.198,-0.209 0.203,-0.193C0.208,-0.177 0.216,-0.164 0.226,-0.153C0.237,-0.141 0.249,-0.133 0.263,-0.126C0.278,-0.12 0.294,-0.117 0.313,-0.117C0.335,-0.117 0.358,-0.121 0.379,-0.13C0.401,-0.138 0.42,-0.152 0.436,-0.172L0.51,-0.083C0.5,-0.068 0.484,-0.053 0.465,-0.039C0.445,-0.024 0.421,-0.013 0.394,-0.004C0.367,0.005 0.336,0.01 0.302,0.01Z" style="fill:rgb(37,19,69);fill-rule:nonzero;"/>
                    </g>
                    <g transform="matrix(22.475,0,0,22.475,471.134,453.502)">
                        <path d="M0.27,-0.117C0.285,-0.117 0.298,-0.12 0.309,-0.126C0.32,-0.131 0.328,-0.14 0.334,-0.15C0.339,-0.161 0.342,-0.174 0.342,-0.188L0.497,-0.188C0.497,-0.149 0.487,-0.114 0.468,-0.084C0.448,-0.054 0.421,-0.031 0.387,-0.015C0.354,0.002 0.316,0.01 0.273,0.01C0.232,0.01 0.196,0.003 0.165,-0.01C0.134,-0.024 0.108,-0.043 0.088,-0.067C0.067,-0.091 0.052,-0.12 0.041,-0.152C0.031,-0.185 0.026,-0.22 0.026,-0.258L0.026,-0.27C0.026,-0.308 0.031,-0.343 0.041,-0.376C0.052,-0.408 0.067,-0.437 0.088,-0.461C0.108,-0.485 0.134,-0.504 0.165,-0.518C0.196,-0.531 0.231,-0.538 0.272,-0.538C0.316,-0.538 0.355,-0.53 0.389,-0.513C0.423,-0.497 0.449,-0.472 0.468,-0.441C0.487,-0.409 0.497,-0.371 0.497,-0.326L0.342,-0.326C0.342,-0.342 0.34,-0.356 0.334,-0.369C0.329,-0.382 0.321,-0.392 0.31,-0.4C0.299,-0.407 0.285,-0.411 0.269,-0.411C0.252,-0.411 0.238,-0.407 0.228,-0.4C0.217,-0.392 0.209,-0.382 0.204,-0.369C0.198,-0.356 0.195,-0.341 0.193,-0.324C0.191,-0.307 0.19,-0.289 0.19,-0.27L0.19,-0.258C0.19,-0.239 0.191,-0.22 0.193,-0.203C0.195,-0.186 0.199,-0.171 0.204,-0.158C0.21,-0.146 0.218,-0.135 0.228,-0.128C0.238,-0.121 0.252,-0.117 0.27,-0.117Z" style="fill:rgb(37,19,69);fill-rule:nonzero;"/>
                    </g>
                    <g transform="matrix(22.475,0,0,22.475,482.813,453.502)">
                        <path d="M0.208,-0.75L0.208,-0L0.043,-0L0.043,-0.75L0.208,-0.75ZM0.188,-0.282L0.149,-0.281C0.149,-0.318 0.154,-0.353 0.163,-0.384C0.172,-0.415 0.185,-0.442 0.202,-0.465C0.219,-0.488 0.239,-0.506 0.263,-0.519C0.287,-0.532 0.313,-0.538 0.342,-0.538C0.368,-0.538 0.392,-0.534 0.414,-0.527C0.435,-0.519 0.454,-0.507 0.47,-0.491C0.486,-0.474 0.498,-0.452 0.507,-0.426C0.515,-0.399 0.52,-0.367 0.52,-0.328L0.52,-0L0.354,-0L0.354,-0.329C0.354,-0.351 0.351,-0.367 0.345,-0.379C0.339,-0.391 0.33,-0.399 0.319,-0.404C0.308,-0.409 0.295,-0.411 0.279,-0.411C0.26,-0.411 0.244,-0.408 0.232,-0.401C0.22,-0.395 0.211,-0.386 0.204,-0.374C0.198,-0.363 0.194,-0.349 0.191,-0.333C0.189,-0.318 0.188,-0.301 0.188,-0.282Z" style="fill:rgb(37,19,69);fill-rule:nonzero;"/>
                    </g>
                    <g transform="matrix(22.475,0,0,22.475,495.491,453.502)">
                        <path d="M0.208,-0.416L0.208,-0L0.043,-0L0.043,-0.528L0.198,-0.528L0.208,-0.416ZM0.188,-0.282L0.15,-0.281C0.15,-0.322 0.155,-0.358 0.165,-0.389C0.174,-0.421 0.188,-0.448 0.206,-0.47C0.224,-0.492 0.245,-0.509 0.27,-0.521C0.295,-0.532 0.323,-0.538 0.354,-0.538C0.378,-0.538 0.4,-0.535 0.421,-0.527C0.441,-0.52 0.459,-0.509 0.473,-0.493C0.488,-0.477 0.5,-0.456 0.508,-0.429C0.516,-0.403 0.52,-0.371 0.52,-0.333L0.52,-0L0.354,-0L0.354,-0.333C0.354,-0.354 0.351,-0.37 0.345,-0.382C0.339,-0.393 0.331,-0.401 0.32,-0.405C0.309,-0.409 0.295,-0.411 0.279,-0.411C0.262,-0.411 0.248,-0.408 0.236,-0.401C0.225,-0.395 0.215,-0.386 0.208,-0.374C0.201,-0.363 0.196,-0.349 0.193,-0.333C0.19,-0.318 0.188,-0.301 0.188,-0.282Z" style="fill:rgb(37,19,69);fill-rule:nonzero;"/>
                    </g>
                    <g transform="matrix(22.475,0,0,22.475,508.168,453.502)">
                        <path d="M0.026,-0.259L0.026,-0.269C0.026,-0.308 0.031,-0.344 0.042,-0.376C0.054,-0.409 0.07,-0.437 0.091,-0.461C0.113,-0.486 0.139,-0.504 0.171,-0.518C0.202,-0.531 0.239,-0.538 0.28,-0.538C0.322,-0.538 0.359,-0.531 0.39,-0.518C0.422,-0.504 0.449,-0.486 0.47,-0.461C0.492,-0.437 0.508,-0.409 0.519,-0.376C0.53,-0.344 0.536,-0.308 0.536,-0.269L0.536,-0.259C0.536,-0.22 0.53,-0.185 0.519,-0.152C0.508,-0.119 0.492,-0.091 0.47,-0.067C0.449,-0.042 0.422,-0.024 0.391,-0.01C0.359,0.003 0.323,0.01 0.281,0.01C0.24,0.01 0.203,0.003 0.171,-0.01C0.139,-0.024 0.113,-0.042 0.091,-0.067C0.07,-0.091 0.054,-0.119 0.042,-0.152C0.031,-0.185 0.026,-0.22 0.026,-0.259ZM0.19,-0.269L0.19,-0.259C0.19,-0.239 0.192,-0.22 0.195,-0.203C0.198,-0.186 0.203,-0.171 0.209,-0.158C0.216,-0.145 0.226,-0.135 0.237,-0.128C0.249,-0.121 0.264,-0.117 0.281,-0.117C0.299,-0.117 0.313,-0.121 0.324,-0.128C0.336,-0.135 0.345,-0.145 0.352,-0.158C0.359,-0.171 0.364,-0.186 0.367,-0.203C0.37,-0.22 0.371,-0.239 0.371,-0.259L0.371,-0.269C0.371,-0.288 0.37,-0.306 0.367,-0.323C0.364,-0.341 0.359,-0.356 0.352,-0.369C0.345,-0.382 0.336,-0.392 0.324,-0.4C0.313,-0.407 0.298,-0.411 0.28,-0.411C0.263,-0.411 0.249,-0.407 0.237,-0.4C0.226,-0.392 0.216,-0.382 0.209,-0.369C0.203,-0.356 0.198,-0.341 0.195,-0.323C0.192,-0.306 0.19,-0.288 0.19,-0.269Z" style="fill:rgb(37,19,69);fill-rule:nonzero;"/>
                    </g>
                    <g transform="matrix(22.475,0,0,22.475,520.791,453.502)">
                        <rect x="0.055" y="-0.75" width="0.165" height="0.75" style="fill:rgb(37,19,69);fill-rule:nonzero;"/>
                    </g>
                    <g transform="matrix(22.475,0,0,22.475,526.962,453.502)">
                        <path d="M0.026,-0.259L0.026,-0.269C0.026,-0.308 0.031,-0.344 0.042,-0.376C0.054,-0.409 0.07,-0.437 0.091,-0.461C0.113,-0.486 0.139,-0.504 0.171,-0.518C0.202,-0.531 0.239,-0.538 0.28,-0.538C0.322,-0.538 0.359,-0.531 0.39,-0.518C0.422,-0.504 0.449,-0.486 0.47,-0.461C0.492,-0.437 0.508,-0.409 0.519,-0.376C0.53,-0.344 0.536,-0.308 0.536,-0.269L0.536,-0.259C0.536,-0.22 0.53,-0.185 0.519,-0.152C0.508,-0.119 0.492,-0.091 0.47,-0.067C0.449,-0.042 0.422,-0.024 0.391,-0.01C0.359,0.003 0.323,0.01 0.281,0.01C0.24,0.01 0.203,0.003 0.171,-0.01C0.139,-0.024 0.113,-0.042 0.091,-0.067C0.07,-0.091 0.054,-0.119 0.042,-0.152C0.031,-0.185 0.026,-0.22 0.026,-0.259ZM0.19,-0.269L0.19,-0.259C0.19,-0.239 0.192,-0.22 0.195,-0.203C0.198,-0.186 0.203,-0.171 0.209,-0.158C0.216,-0.145 0.226,-0.135 0.237,-0.128C0.249,-0.121 0.264,-0.117 0.281,-0.117C0.299,-0.117 0.313,-0.121 0.324,-0.128C0.336,-0.135 0.345,-0.145 0.352,-0.158C0.359,-0.171 0.364,-0.186 0.367,-0.203C0.37,-0.22 0.371,-0.239 0.371,-0.259L0.371,-0.269C0.371,-0.288 0.37,-0.306 0.367,-0.323C0.364,-0.341 0.359,-0.356 0.352,-0.369C0.345,-0.382 0.336,-0.392 0.324,-0.4C0.313,-0.407 0.298,-0.411 0.28,-0.411C0.263,-0.411 0.249,-0.407 0.237,-0.4C0.226,-0.392 0.216,-0.382 0.209,-0.369C0.203,-0.356 0.198,-0.341 0.195,-0.323C0.192,-0.306 0.19,-0.288 0.19,-0.269Z" style="fill:rgb(37,19,69);fill-rule:nonzero;"/>
                    </g>
                    <g transform="matrix(22.475,0,0,22.475,539.584,453.502)">
                        <path d="M0.378,-0.528L0.528,-0.528L0.528,-0.021C0.528,0.028 0.517,0.07 0.494,0.104C0.472,0.138 0.44,0.164 0.4,0.181C0.36,0.199 0.313,0.208 0.259,0.208C0.236,0.208 0.211,0.205 0.187,0.199C0.162,0.193 0.139,0.184 0.117,0.172C0.096,0.161 0.078,0.146 0.063,0.129L0.132,0.032C0.145,0.047 0.162,0.06 0.182,0.071C0.202,0.081 0.226,0.086 0.253,0.086C0.277,0.086 0.297,0.082 0.313,0.074C0.329,0.065 0.342,0.053 0.35,0.037C0.359,0.021 0.363,0.001 0.363,-0.021L0.363,-0.403L0.378,-0.528ZM0.027,-0.258L0.027,-0.268C0.027,-0.308 0.032,-0.345 0.042,-0.378C0.052,-0.411 0.066,-0.439 0.085,-0.463C0.104,-0.487 0.127,-0.506 0.153,-0.519C0.18,-0.532 0.21,-0.538 0.244,-0.538C0.28,-0.538 0.309,-0.531 0.333,-0.517C0.356,-0.503 0.375,-0.484 0.389,-0.459C0.403,-0.435 0.414,-0.406 0.422,-0.373C0.43,-0.34 0.437,-0.304 0.442,-0.266L0.442,-0.254C0.437,-0.218 0.429,-0.184 0.42,-0.153C0.41,-0.121 0.398,-0.093 0.382,-0.068C0.367,-0.044 0.348,-0.025 0.325,-0.011C0.302,0.003 0.275,0.01 0.243,0.01C0.209,0.01 0.18,0.003 0.153,-0.01C0.127,-0.024 0.104,-0.042 0.085,-0.066C0.066,-0.09 0.052,-0.119 0.042,-0.151C0.032,-0.184 0.027,-0.219 0.027,-0.258ZM0.192,-0.268L0.192,-0.258C0.192,-0.238 0.194,-0.22 0.198,-0.203C0.201,-0.186 0.207,-0.171 0.215,-0.158C0.223,-0.145 0.232,-0.135 0.244,-0.128C0.255,-0.121 0.269,-0.117 0.285,-0.117C0.308,-0.117 0.328,-0.122 0.342,-0.132C0.357,-0.142 0.368,-0.157 0.374,-0.175C0.381,-0.194 0.383,-0.216 0.382,-0.241L0.382,-0.279C0.383,-0.301 0.382,-0.32 0.378,-0.336C0.374,-0.353 0.369,-0.366 0.361,-0.377C0.353,-0.389 0.343,-0.397 0.331,-0.403C0.318,-0.408 0.303,-0.411 0.286,-0.411C0.27,-0.411 0.257,-0.408 0.245,-0.4C0.233,-0.393 0.224,-0.383 0.216,-0.37C0.208,-0.358 0.202,-0.342 0.198,-0.325C0.194,-0.308 0.192,-0.289 0.192,-0.268Z" style="fill:rgb(37,19,69);fill-rule:nonzero;"/>
                    </g>
                    <g transform="matrix(22.475,0,0,22.475,552.515,453.502)">
                        <path d="M0.208,-0.062L0.345,-0.528L0.522,-0.528L0.31,0.079C0.305,0.092 0.299,0.106 0.292,0.122C0.284,0.137 0.274,0.152 0.261,0.166C0.248,0.18 0.231,0.191 0.211,0.2C0.19,0.209 0.165,0.213 0.135,0.213C0.119,0.213 0.108,0.213 0.1,0.211C0.093,0.21 0.082,0.207 0.067,0.204L0.067,0.086L0.088,0.086C0.106,0.086 0.12,0.084 0.131,0.081C0.141,0.077 0.149,0.072 0.155,0.065C0.161,0.058 0.165,0.05 0.168,0.04L0.208,-0.062ZM0.174,-0.528L0.278,-0.159L0.296,0.016L0.186,0.016L-0.002,-0.528L0.174,-0.528Z" style="fill:rgb(37,19,69);fill-rule:nonzero;"/>
                    </g>
                    <g transform="matrix(22.475,0,0,22.475,564.158,453.502)">
                    </g>
                </g>
                <g transform="matrix(0.24,0,0,0.24,338.894,309.271)">
                    <g transform="matrix(22.475,0,0,22.475,456.792,423.791)">
                        <path d="M0.543,-0.132L0.543,-0L0.165,-0L0.165,-0.132L0.543,-0.132ZM0.226,-0.711L0.226,-0L0.054,-0L0.054,-0.711L0.226,-0.711ZM0.495,-0.429L0.495,-0.301L0.165,-0.301L0.165,-0.429L0.495,-0.429ZM0.545,-0.711L0.545,-0.579L0.165,-0.579L0.165,-0.711L0.545,-0.711Z" style="fill:rgb(37,19,69);fill-rule:nonzero;"/>
                    </g>
                    <g transform="matrix(22.475,0,0,22.475,469.366,423.791)">
                        <path d="M0.208,-0.416L0.208,-0L0.043,-0L0.043,-0.528L0.198,-0.528L0.208,-0.416ZM0.188,-0.282L0.15,-0.281C0.15,-0.322 0.155,-0.358 0.165,-0.389C0.174,-0.421 0.188,-0.448 0.206,-0.47C0.224,-0.492 0.245,-0.509 0.27,-0.521C0.295,-0.532 0.323,-0.538 0.354,-0.538C0.378,-0.538 0.4,-0.535 0.421,-0.527C0.441,-0.52 0.459,-0.509 0.473,-0.493C0.488,-0.477 0.5,-0.456 0.508,-0.429C0.516,-0.403 0.52,-0.371 0.52,-0.333L0.52,-0L0.354,-0L0.354,-0.333C0.354,-0.354 0.351,-0.37 0.345,-0.382C0.339,-0.393 0.331,-0.401 0.32,-0.405C0.309,-0.409 0.295,-0.411 0.279,-0.411C0.262,-0.411 0.248,-0.408 0.236,-0.401C0.225,-0.395 0.215,-0.386 0.208,-0.374C0.201,-0.363 0.196,-0.349 0.193,-0.333C0.19,-0.318 0.188,-0.301 0.188,-0.282Z" style="fill:rgb(37,19,69);fill-rule:nonzero;"/>
                    </g>
                    <g transform="matrix(22.475,0,0,22.475,482.051,423.791)">
                        <path d="M0.321,-0.133L0.321,-0.351C0.321,-0.366 0.319,-0.378 0.314,-0.389C0.31,-0.4 0.304,-0.408 0.294,-0.414C0.285,-0.42 0.273,-0.423 0.258,-0.423C0.245,-0.423 0.235,-0.421 0.226,-0.417C0.217,-0.413 0.211,-0.406 0.206,-0.398C0.201,-0.389 0.199,-0.379 0.199,-0.366L0.035,-0.366C0.035,-0.39 0.04,-0.413 0.051,-0.434C0.062,-0.455 0.078,-0.473 0.098,-0.489C0.118,-0.504 0.143,-0.517 0.171,-0.525C0.2,-0.534 0.231,-0.538 0.267,-0.538C0.309,-0.538 0.346,-0.531 0.379,-0.517C0.412,-0.503 0.438,-0.482 0.458,-0.454C0.477,-0.427 0.486,-0.392 0.486,-0.35L0.486,-0.133C0.486,-0.099 0.488,-0.073 0.492,-0.055C0.496,-0.037 0.502,-0.022 0.509,-0.008L0.509,-0L0.344,-0C0.336,-0.016 0.33,-0.036 0.326,-0.06C0.323,-0.083 0.321,-0.108 0.321,-0.133ZM0.341,-0.323L0.342,-0.235L0.269,-0.235C0.254,-0.235 0.241,-0.233 0.23,-0.229C0.22,-0.224 0.211,-0.219 0.205,-0.211C0.198,-0.204 0.194,-0.196 0.191,-0.187C0.188,-0.177 0.187,-0.168 0.187,-0.158C0.187,-0.148 0.189,-0.139 0.194,-0.132C0.199,-0.124 0.205,-0.118 0.213,-0.114C0.222,-0.11 0.231,-0.107 0.241,-0.107C0.259,-0.107 0.274,-0.111 0.287,-0.118C0.3,-0.125 0.31,-0.133 0.317,-0.144C0.324,-0.154 0.327,-0.163 0.327,-0.172L0.363,-0.104C0.357,-0.091 0.349,-0.078 0.341,-0.065C0.333,-0.052 0.323,-0.039 0.31,-0.028C0.298,-0.017 0.283,-0.008 0.266,-0.001C0.248,0.006 0.227,0.01 0.202,0.01C0.169,0.01 0.139,0.003 0.112,-0.01C0.085,-0.024 0.063,-0.042 0.047,-0.066C0.031,-0.09 0.022,-0.118 0.022,-0.149C0.022,-0.176 0.027,-0.201 0.037,-0.222C0.047,-0.244 0.062,-0.262 0.083,-0.277C0.103,-0.292 0.128,-0.303 0.16,-0.311C0.191,-0.319 0.228,-0.323 0.27,-0.323L0.341,-0.323Z" style="fill:rgb(37,19,69);fill-rule:nonzero;"/>
                    </g>
                    <g transform="matrix(22.475,0,0,22.475,493.989,423.791)">
                        <path d="M0.048,-0.75L0.212,-0.75L0.212,-0.13L0.195,-0L0.048,-0L0.048,-0.75ZM0.537,-0.27L0.537,-0.26C0.537,-0.22 0.533,-0.183 0.524,-0.15C0.516,-0.118 0.504,-0.089 0.487,-0.065C0.47,-0.041 0.449,-0.023 0.423,-0.01C0.397,0.003 0.367,0.01 0.332,0.01C0.3,0.01 0.272,0.003 0.25,-0.011C0.227,-0.025 0.208,-0.044 0.192,-0.069C0.177,-0.093 0.165,-0.122 0.155,-0.154C0.146,-0.186 0.138,-0.221 0.133,-0.258L0.133,-0.271C0.138,-0.307 0.146,-0.342 0.155,-0.374C0.165,-0.407 0.177,-0.435 0.192,-0.46C0.208,-0.484 0.227,-0.503 0.249,-0.517C0.272,-0.531 0.299,-0.538 0.331,-0.538C0.366,-0.538 0.397,-0.531 0.423,-0.518C0.448,-0.505 0.47,-0.486 0.487,-0.462C0.504,-0.438 0.516,-0.41 0.524,-0.377C0.533,-0.344 0.537,-0.309 0.537,-0.27ZM0.372,-0.26L0.372,-0.27C0.372,-0.289 0.371,-0.307 0.369,-0.324C0.366,-0.341 0.362,-0.356 0.356,-0.369C0.351,-0.382 0.342,-0.392 0.332,-0.4C0.321,-0.407 0.307,-0.411 0.29,-0.411C0.272,-0.411 0.257,-0.408 0.245,-0.402C0.233,-0.396 0.224,-0.388 0.217,-0.377C0.21,-0.366 0.205,-0.353 0.202,-0.337C0.199,-0.321 0.198,-0.304 0.198,-0.284L0.198,-0.245C0.198,-0.218 0.2,-0.195 0.206,-0.176C0.211,-0.157 0.221,-0.142 0.234,-0.132C0.248,-0.122 0.267,-0.117 0.291,-0.117C0.308,-0.117 0.322,-0.12 0.333,-0.127C0.344,-0.134 0.352,-0.144 0.358,-0.156C0.363,-0.169 0.367,-0.184 0.369,-0.202C0.371,-0.219 0.372,-0.239 0.372,-0.26Z" style="fill:rgb(37,19,69);fill-rule:nonzero;"/>
                    </g>
                    <g transform="matrix(22.475,0,0,22.475,506.64,423.791)">
                        <rect x="0.055" y="-0.75" width="0.165" height="0.75" style="fill:rgb(37,19,69);fill-rule:nonzero;"/>
                    </g>
                    <g transform="matrix(22.475,0,0,22.475,512.817,423.791)">
                        <path d="M0.22,-0.528L0.22,-0L0.055,-0L0.055,-0.528L0.22,-0.528ZM0.045,-0.665C0.045,-0.688 0.054,-0.707 0.071,-0.722C0.088,-0.737 0.11,-0.745 0.137,-0.745C0.164,-0.745 0.186,-0.737 0.203,-0.722C0.22,-0.707 0.228,-0.688 0.228,-0.665C0.228,-0.641 0.22,-0.622 0.203,-0.607C0.186,-0.592 0.164,-0.584 0.137,-0.584C0.11,-0.584 0.088,-0.592 0.071,-0.607C0.054,-0.622 0.045,-0.641 0.045,-0.665Z" style="fill:rgb(37,19,69);fill-rule:nonzero;"/>
                    </g>
                    <g transform="matrix(22.475,0,0,22.475,518.994,423.791)">
                        <path d="M0.208,-0.416L0.208,-0L0.043,-0L0.043,-0.528L0.198,-0.528L0.208,-0.416ZM0.188,-0.282L0.15,-0.281C0.15,-0.322 0.155,-0.358 0.165,-0.389C0.174,-0.421 0.188,-0.448 0.206,-0.47C0.224,-0.492 0.245,-0.509 0.27,-0.521C0.295,-0.532 0.323,-0.538 0.354,-0.538C0.378,-0.538 0.4,-0.535 0.421,-0.527C0.441,-0.52 0.459,-0.509 0.473,-0.493C0.488,-0.477 0.5,-0.456 0.508,-0.429C0.516,-0.403 0.52,-0.371 0.52,-0.333L0.52,-0L0.354,-0L0.354,-0.333C0.354,-0.354 0.351,-0.37 0.345,-0.382C0.339,-0.393 0.331,-0.401 0.32,-0.405C0.309,-0.409 0.295,-0.411 0.279,-0.411C0.262,-0.411 0.248,-0.408 0.236,-0.401C0.225,-0.395 0.215,-0.386 0.208,-0.374C0.201,-0.363 0.196,-0.349 0.193,-0.333C0.19,-0.318 0.188,-0.301 0.188,-0.282Z" style="fill:rgb(37,19,69);fill-rule:nonzero;"/>
                    </g>
                    <g transform="matrix(22.475,0,0,22.475,531.678,423.791)">
                        <path d="M0.378,-0.528L0.528,-0.528L0.528,-0.021C0.528,0.028 0.517,0.07 0.494,0.104C0.472,0.138 0.44,0.164 0.4,0.181C0.36,0.199 0.313,0.208 0.259,0.208C0.236,0.208 0.211,0.205 0.187,0.199C0.162,0.193 0.139,0.184 0.117,0.172C0.096,0.161 0.078,0.146 0.063,0.129L0.132,0.032C0.145,0.047 0.162,0.06 0.182,0.071C0.202,0.081 0.226,0.086 0.253,0.086C0.277,0.086 0.297,0.082 0.313,0.074C0.329,0.065 0.342,0.053 0.35,0.037C0.359,0.021 0.363,0.001 0.363,-0.021L0.363,-0.403L0.378,-0.528ZM0.027,-0.258L0.027,-0.268C0.027,-0.308 0.032,-0.345 0.042,-0.378C0.052,-0.411 0.066,-0.439 0.085,-0.463C0.104,-0.487 0.127,-0.506 0.153,-0.519C0.18,-0.532 0.21,-0.538 0.244,-0.538C0.28,-0.538 0.309,-0.531 0.333,-0.517C0.356,-0.503 0.375,-0.484 0.389,-0.459C0.403,-0.435 0.414,-0.406 0.422,-0.373C0.43,-0.34 0.437,-0.304 0.442,-0.266L0.442,-0.254C0.437,-0.218 0.429,-0.184 0.42,-0.153C0.41,-0.121 0.398,-0.093 0.382,-0.068C0.367,-0.044 0.348,-0.025 0.325,-0.011C0.302,0.003 0.275,0.01 0.243,0.01C0.209,0.01 0.18,0.003 0.153,-0.01C0.127,-0.024 0.104,-0.042 0.085,-0.066C0.066,-0.09 0.052,-0.119 0.042,-0.151C0.032,-0.184 0.027,-0.219 0.027,-0.258ZM0.192,-0.268L0.192,-0.258C0.192,-0.238 0.194,-0.22 0.198,-0.203C0.201,-0.186 0.207,-0.171 0.215,-0.158C0.223,-0.145 0.232,-0.135 0.244,-0.128C0.255,-0.121 0.269,-0.117 0.285,-0.117C0.308,-0.117 0.328,-0.122 0.342,-0.132C0.357,-0.142 0.368,-0.157 0.374,-0.175C0.381,-0.194 0.383,-0.216 0.382,-0.241L0.382,-0.279C0.383,-0.301 0.382,-0.32 0.378,-0.336C0.374,-0.353 0.369,-0.366 0.361,-0.377C0.353,-0.389 0.343,-0.397 0.331,-0.403C0.318,-0.408 0.303,-0.411 0.286,-0.411C0.27,-0.411 0.257,-0.408 0.245,-0.4C0.233,-0.393 0.224,-0.383 0.216,-0.37C0.208,-0.358 0.202,-0.342 0.198,-0.325C0.194,-0.308 0.192,-0.289 0.192,-0.268Z" style="fill:rgb(37,19,69);fill-rule:nonzero;"/>
                    </g>
                    <g transform="matrix(22.475,0,0,22.475,544.617,423.791)">
                    </g>
                    <g transform="matrix(22.475,0,0,22.475,445.914,450.766)">
                        <path d="M0.458,-0.241L0.629,-0.241C0.627,-0.191 0.614,-0.148 0.589,-0.11C0.565,-0.072 0.531,-0.043 0.488,-0.022C0.445,-0.001 0.394,0.01 0.335,0.01C0.288,0.01 0.246,0.002 0.208,-0.014C0.171,-0.03 0.139,-0.053 0.114,-0.083C0.088,-0.113 0.068,-0.149 0.054,-0.192C0.041,-0.235 0.034,-0.283 0.034,-0.336L0.034,-0.375C0.034,-0.428 0.041,-0.476 0.055,-0.519C0.07,-0.562 0.09,-0.598 0.116,-0.628C0.142,-0.658 0.174,-0.681 0.21,-0.697C0.247,-0.713 0.288,-0.721 0.333,-0.721C0.395,-0.721 0.447,-0.71 0.49,-0.688C0.532,-0.666 0.565,-0.635 0.589,-0.597C0.612,-0.558 0.626,-0.514 0.63,-0.465L0.459,-0.465C0.459,-0.492 0.454,-0.514 0.446,-0.532C0.437,-0.551 0.424,-0.564 0.406,-0.573C0.388,-0.582 0.363,-0.587 0.333,-0.587C0.312,-0.587 0.293,-0.583 0.278,-0.575C0.262,-0.567 0.249,-0.555 0.239,-0.538C0.228,-0.521 0.221,-0.499 0.216,-0.472C0.211,-0.446 0.208,-0.413 0.208,-0.375L0.208,-0.336C0.208,-0.298 0.21,-0.266 0.215,-0.239C0.219,-0.213 0.227,-0.191 0.237,-0.174C0.247,-0.157 0.26,-0.144 0.276,-0.136C0.292,-0.128 0.312,-0.125 0.335,-0.125C0.361,-0.125 0.383,-0.129 0.401,-0.137C0.419,-0.145 0.433,-0.158 0.443,-0.175C0.453,-0.192 0.458,-0.214 0.458,-0.241Z" style="fill:rgb(37,19,69);fill-rule:nonzero;"/>
                    </g>
                    <g transform="matrix(22.475,0,0,22.475,460.657,450.766)">
                        <path d="M0.026,-0.259L0.026,-0.269C0.026,-0.308 0.031,-0.344 0.042,-0.376C0.054,-0.409 0.07,-0.437 0.091,-0.461C0.113,-0.486 0.139,-0.504 0.171,-0.518C0.202,-0.531 0.239,-0.538 0.28,-0.538C0.322,-0.538 0.359,-0.531 0.39,-0.518C0.422,-0.504 0.449,-0.486 0.47,-0.461C0.492,-0.437 0.508,-0.409 0.519,-0.376C0.53,-0.344 0.536,-0.308 0.536,-0.269L0.536,-0.259C0.536,-0.22 0.53,-0.185 0.519,-0.152C0.508,-0.119 0.492,-0.091 0.47,-0.067C0.449,-0.042 0.422,-0.024 0.391,-0.01C0.359,0.003 0.323,0.01 0.281,0.01C0.24,0.01 0.203,0.003 0.171,-0.01C0.139,-0.024 0.113,-0.042 0.091,-0.067C0.07,-0.091 0.054,-0.119 0.042,-0.152C0.031,-0.185 0.026,-0.22 0.026,-0.259ZM0.19,-0.269L0.19,-0.259C0.19,-0.239 0.192,-0.22 0.195,-0.203C0.198,-0.186 0.203,-0.171 0.209,-0.158C0.216,-0.145 0.226,-0.135 0.237,-0.128C0.249,-0.121 0.264,-0.117 0.281,-0.117C0.299,-0.117 0.313,-0.121 0.324,-0.128C0.336,-0.135 0.345,-0.145 0.352,-0.158C0.359,-0.171 0.364,-0.186 0.367,-0.203C0.37,-0.22 0.371,-0.239 0.371,-0.259L0.371,-0.269C0.371,-0.288 0.37,-0.306 0.367,-0.323C0.364,-0.341 0.359,-0.356 0.352,-0.369C0.345,-0.382 0.336,-0.392 0.324,-0.4C0.313,-0.407 0.298,-0.411 0.28,-0.411C0.263,-0.411 0.249,-0.407 0.237,-0.4C0.226,-0.392 0.216,-0.382 0.209,-0.369C0.203,-0.356 0.198,-0.341 0.195,-0.323C0.192,-0.306 0.19,-0.288 0.19,-0.269Z" style="fill:rgb(37,19,69);fill-rule:nonzero;"/>
                    </g>
                    <g transform="matrix(22.475,0,0,22.475,473.282,450.766)">
                        <path d="M0.208,-0.416L0.208,-0L0.043,-0L0.043,-0.528L0.198,-0.528L0.208,-0.416ZM0.188,-0.282L0.15,-0.281C0.15,-0.322 0.155,-0.358 0.165,-0.389C0.174,-0.421 0.188,-0.448 0.206,-0.47C0.224,-0.492 0.245,-0.509 0.27,-0.521C0.295,-0.532 0.323,-0.538 0.354,-0.538C0.378,-0.538 0.4,-0.535 0.421,-0.527C0.441,-0.52 0.459,-0.509 0.473,-0.493C0.488,-0.477 0.5,-0.456 0.508,-0.429C0.516,-0.403 0.52,-0.371 0.52,-0.333L0.52,-0L0.354,-0L0.354,-0.333C0.354,-0.354 0.351,-0.37 0.345,-0.382C0.339,-0.393 0.331,-0.401 0.32,-0.405C0.309,-0.409 0.295,-0.411 0.279,-0.411C0.262,-0.411 0.248,-0.408 0.236,-0.401C0.225,-0.395 0.215,-0.386 0.208,-0.374C0.201,-0.363 0.196,-0.349 0.193,-0.333C0.19,-0.318 0.188,-0.301 0.188,-0.282Z" style="fill:rgb(37,19,69);fill-rule:nonzero;"/>
                    </g>
                    <g transform="matrix(22.475,0,0,22.475,485.963,450.766)">
                        <path d="M0.35,-0.121L0.35,-0.75L0.516,-0.75L0.516,-0L0.367,-0L0.35,-0.121ZM0.026,-0.258L0.026,-0.268C0.026,-0.308 0.03,-0.345 0.039,-0.378C0.048,-0.411 0.061,-0.439 0.078,-0.463C0.095,-0.487 0.117,-0.506 0.143,-0.519C0.168,-0.532 0.198,-0.538 0.231,-0.538C0.261,-0.538 0.288,-0.531 0.31,-0.517C0.333,-0.503 0.352,-0.484 0.368,-0.459C0.384,-0.435 0.397,-0.406 0.407,-0.373C0.417,-0.34 0.424,-0.304 0.43,-0.266L0.43,-0.254C0.424,-0.218 0.417,-0.184 0.407,-0.153C0.397,-0.121 0.384,-0.093 0.368,-0.068C0.352,-0.044 0.332,-0.025 0.31,-0.011C0.287,0.003 0.261,0.01 0.23,0.01C0.197,0.01 0.167,0.003 0.142,-0.01C0.116,-0.024 0.095,-0.042 0.078,-0.066C0.061,-0.09 0.048,-0.119 0.039,-0.151C0.03,-0.184 0.026,-0.219 0.026,-0.258ZM0.19,-0.268L0.19,-0.258C0.19,-0.238 0.192,-0.22 0.194,-0.203C0.197,-0.186 0.201,-0.171 0.208,-0.158C0.214,-0.145 0.223,-0.135 0.233,-0.128C0.244,-0.121 0.257,-0.117 0.272,-0.117C0.294,-0.117 0.311,-0.122 0.325,-0.132C0.339,-0.142 0.349,-0.157 0.356,-0.175C0.362,-0.194 0.365,-0.216 0.364,-0.241L0.364,-0.279C0.365,-0.301 0.363,-0.32 0.36,-0.336C0.356,-0.353 0.351,-0.366 0.343,-0.377C0.335,-0.389 0.326,-0.397 0.314,-0.403C0.303,-0.408 0.289,-0.411 0.273,-0.411C0.258,-0.411 0.245,-0.408 0.235,-0.4C0.224,-0.393 0.215,-0.383 0.209,-0.37C0.202,-0.358 0.198,-0.342 0.195,-0.325C0.192,-0.308 0.19,-0.289 0.19,-0.268Z" style="fill:rgb(37,19,69);fill-rule:nonzero;"/>
                    </g>
                    <g transform="matrix(22.475,0,0,22.475,498.599,450.766)">
                        <path d="M0.22,-0.528L0.22,-0L0.055,-0L0.055,-0.528L0.22,-0.528ZM0.045,-0.665C0.045,-0.688 0.054,-0.707 0.071,-0.722C0.088,-0.737 0.11,-0.745 0.137,-0.745C0.164,-0.745 0.186,-0.737 0.203,-0.722C0.22,-0.707 0.228,-0.688 0.228,-0.665C0.228,-0.641 0.22,-0.622 0.203,-0.607C0.186,-0.592 0.164,-0.584 0.137,-0.584C0.11,-0.584 0.088,-0.592 0.071,-0.607C0.054,-0.622 0.045,-0.641 0.045,-0.665Z" style="fill:rgb(37,19,69);fill-rule:nonzero;"/>
                    </g>
                    <g transform="matrix(22.475,0,0,22.475,504.772,450.766)">
                        <path d="M0.325,-0.528L0.325,-0.414L0.006,-0.414L0.006,-0.528L0.325,-0.528ZM0.073,-0.66L0.238,-0.66L0.238,-0.172C0.238,-0.158 0.239,-0.148 0.243,-0.14C0.246,-0.132 0.252,-0.127 0.26,-0.124C0.267,-0.121 0.278,-0.119 0.292,-0.119C0.301,-0.119 0.309,-0.119 0.315,-0.12C0.321,-0.12 0.327,-0.121 0.333,-0.122L0.333,-0.004C0.319,0 0.304,0.004 0.289,0.006C0.273,0.009 0.257,0.01 0.24,0.01C0.205,0.01 0.175,0.004 0.15,-0.007C0.125,-0.018 0.106,-0.035 0.093,-0.059C0.08,-0.083 0.073,-0.114 0.073,-0.152L0.073,-0.66Z" style="fill:rgb(37,19,69);fill-rule:nonzero;"/>
                    </g>
                    <g transform="matrix(22.475,0,0,22.475,512.492,450.766)">
                        <path d="M0.22,-0.528L0.22,-0L0.055,-0L0.055,-0.528L0.22,-0.528ZM0.045,-0.665C0.045,-0.688 0.054,-0.707 0.071,-0.722C0.088,-0.737 0.11,-0.745 0.137,-0.745C0.164,-0.745 0.186,-0.737 0.203,-0.722C0.22,-0.707 0.228,-0.688 0.228,-0.665C0.228,-0.641 0.22,-0.622 0.203,-0.607C0.186,-0.592 0.164,-0.584 0.137,-0.584C0.11,-0.584 0.088,-0.592 0.071,-0.607C0.054,-0.622 0.045,-0.641 0.045,-0.665Z" style="fill:rgb(37,19,69);fill-rule:nonzero;"/>
                    </g>
                    <g transform="matrix(22.475,0,0,22.475,518.664,450.766)">
                        <path d="M0.026,-0.259L0.026,-0.269C0.026,-0.308 0.031,-0.344 0.042,-0.376C0.054,-0.409 0.07,-0.437 0.091,-0.461C0.113,-0.486 0.139,-0.504 0.171,-0.518C0.202,-0.531 0.239,-0.538 0.28,-0.538C0.322,-0.538 0.359,-0.531 0.39,-0.518C0.422,-0.504 0.449,-0.486 0.47,-0.461C0.492,-0.437 0.508,-0.409 0.519,-0.376C0.53,-0.344 0.536,-0.308 0.536,-0.269L0.536,-0.259C0.536,-0.22 0.53,-0.185 0.519,-0.152C0.508,-0.119 0.492,-0.091 0.47,-0.067C0.449,-0.042 0.422,-0.024 0.391,-0.01C0.359,0.003 0.323,0.01 0.281,0.01C0.24,0.01 0.203,0.003 0.171,-0.01C0.139,-0.024 0.113,-0.042 0.091,-0.067C0.07,-0.091 0.054,-0.119 0.042,-0.152C0.031,-0.185 0.026,-0.22 0.026,-0.259ZM0.19,-0.269L0.19,-0.259C0.19,-0.239 0.192,-0.22 0.195,-0.203C0.198,-0.186 0.203,-0.171 0.209,-0.158C0.216,-0.145 0.226,-0.135 0.237,-0.128C0.249,-0.121 0.264,-0.117 0.281,-0.117C0.299,-0.117 0.313,-0.121 0.324,-0.128C0.336,-0.135 0.345,-0.145 0.352,-0.158C0.359,-0.171 0.364,-0.186 0.367,-0.203C0.37,-0.22 0.371,-0.239 0.371,-0.259L0.371,-0.269C0.371,-0.288 0.37,-0.306 0.367,-0.323C0.364,-0.341 0.359,-0.356 0.352,-0.369C0.345,-0.382 0.336,-0.392 0.324,-0.4C0.313,-0.407 0.298,-0.411 0.28,-0.411C0.263,-0.411 0.249,-0.407 0.237,-0.4C0.226,-0.392 0.216,-0.382 0.209,-0.369C0.203,-0.356 0.198,-0.341 0.195,-0.323C0.192,-0.306 0.19,-0.288 0.19,-0.269Z" style="fill:rgb(37,19,69);fill-rule:nonzero;"/>
                    </g>
                    <g transform="matrix(22.475,0,0,22.475,531.29,450.766)">
                        <path d="M0.208,-0.416L0.208,-0L0.043,-0L0.043,-0.528L0.198,-0.528L0.208,-0.416ZM0.188,-0.282L0.15,-0.281C0.15,-0.322 0.155,-0.358 0.165,-0.389C0.174,-0.421 0.188,-0.448 0.206,-0.47C0.224,-0.492 0.245,-0.509 0.27,-0.521C0.295,-0.532 0.323,-0.538 0.354,-0.538C0.378,-0.538 0.4,-0.535 0.421,-0.527C0.441,-0.52 0.459,-0.509 0.473,-0.493C0.488,-0.477 0.5,-0.456 0.508,-0.429C0.516,-0.403 0.52,-0.371 0.52,-0.333L0.52,-0L0.354,-0L0.354,-0.333C0.354,-0.354 0.351,-0.37 0.345,-0.382C0.339,-0.393 0.331,-0.401 0.32,-0.405C0.309,-0.409 0.295,-0.411 0.279,-0.411C0.262,-0.411 0.248,-0.408 0.236,-0.401C0.225,-0.395 0.215,-0.386 0.208,-0.374C0.201,-0.363 0.196,-0.349 0.193,-0.333C0.19,-0.318 0.188,-0.301 0.188,-0.282Z" style="fill:rgb(37,19,69);fill-rule:nonzero;"/>
                    </g>
                    <g transform="matrix(22.475,0,0,22.475,543.97,450.766)">
                        <path d="M0.323,-0.148C0.323,-0.158 0.32,-0.165 0.314,-0.172C0.308,-0.179 0.298,-0.185 0.283,-0.191C0.268,-0.196 0.247,-0.202 0.22,-0.208C0.194,-0.214 0.17,-0.221 0.147,-0.23C0.125,-0.239 0.105,-0.25 0.088,-0.263C0.071,-0.276 0.058,-0.292 0.048,-0.31C0.038,-0.327 0.034,-0.348 0.034,-0.371C0.034,-0.394 0.038,-0.415 0.048,-0.435C0.058,-0.455 0.072,-0.473 0.091,-0.488C0.109,-0.503 0.132,-0.516 0.159,-0.525C0.186,-0.534 0.217,-0.538 0.251,-0.538C0.299,-0.538 0.34,-0.531 0.375,-0.516C0.409,-0.502 0.436,-0.482 0.454,-0.456C0.473,-0.43 0.482,-0.4 0.482,-0.366L0.318,-0.366C0.318,-0.38 0.316,-0.391 0.311,-0.4C0.307,-0.41 0.3,-0.417 0.29,-0.422C0.28,-0.427 0.267,-0.43 0.251,-0.43C0.24,-0.43 0.229,-0.428 0.22,-0.423C0.211,-0.419 0.203,-0.413 0.198,-0.406C0.192,-0.398 0.189,-0.389 0.189,-0.379C0.189,-0.372 0.191,-0.366 0.195,-0.36C0.198,-0.354 0.203,-0.349 0.21,-0.344C0.218,-0.34 0.227,-0.336 0.238,-0.332C0.249,-0.328 0.262,-0.325 0.278,-0.322C0.313,-0.315 0.347,-0.306 0.377,-0.294C0.408,-0.282 0.434,-0.265 0.453,-0.243C0.472,-0.221 0.482,-0.191 0.482,-0.153C0.482,-0.13 0.477,-0.108 0.466,-0.089C0.455,-0.069 0.44,-0.052 0.419,-0.037C0.399,-0.022 0.375,-0.011 0.347,-0.002C0.318,0.006 0.286,0.01 0.251,0.01C0.201,0.01 0.158,0.001 0.123,-0.017C0.088,-0.035 0.062,-0.058 0.044,-0.086C0.026,-0.113 0.018,-0.141 0.018,-0.169L0.171,-0.169C0.172,-0.153 0.176,-0.14 0.183,-0.129C0.19,-0.119 0.2,-0.111 0.212,-0.106C0.225,-0.102 0.239,-0.099 0.255,-0.099C0.27,-0.099 0.283,-0.101 0.293,-0.105C0.303,-0.11 0.31,-0.115 0.315,-0.123C0.321,-0.13 0.323,-0.139 0.323,-0.148Z" style="fill:rgb(37,19,69);fill-rule:nonzero;"/>
                    </g>
                    <g transform="matrix(22.475,0,0,22.475,555.493,450.766)">
                    </g>
                </g>
                <g transform="matrix(0,1,1,0,486.723,472.332)">
                    <path d="M-28.081,-28.081L28.081,-28.081" style="fill:none;fill-rule:nonzero;stroke:rgb(0,17,27);stroke-width:0.53px;"/>
                </g>
                <g transform="matrix(-1,0,0,1,925.462,159.181)">
                    <rect x="449.714" y="339.293" width="34.538" height="12.627" style="fill:rgb(21,133,198);"/>
                </g>
                <g transform="matrix(1,0,0,1,459.448,339.903)">
                    <path d="M0,26.507L12.83,9.129L76.666,9.129L76.666,0" style="fill:none;fill-rule:nonzero;stroke:rgb(0,17,27);stroke-width:0.53px;"/>
                </g>
                <g transform="matrix(-1,0,0,1,974.242,-181.171)">
                    <rect x="474.104" y="509.469" width="34.538" height="12.627" style="fill:rgb(21,133,198);"/>
                </g>
                <g transform="matrix(0,1,1,0,443.676,344.331)">
                    <path d="M-5.179,-5.179L5.179,-5.179" style="fill:none;fill-rule:nonzero;stroke:rgb(0,17,27);stroke-width:0.53px;"/>
                </g>
                <g transform="matrix(-1,0,0,1,887.592,-181.171)">
                    <rect x="430.779" y="509.469" width="34.538" height="12.627" style="fill:rgb(21,133,198);"/>
                </g>
                <g transform="matrix(-1,0,0,1,780.808,-179.475)">
                    <rect x="377.387" y="508.621" width="34.538" height="12.627" style="fill:rgb(21,133,198);"/>
                </g>
                <g transform="matrix(-1,0,0,1,773.388,159.323)">
                    <rect x="373.677" y="339.222" width="34.538" height="12.627" style="fill:rgb(21,133,198);"/>
                </g>
                <g transform="matrix(-1,0,0,1,1077.93,159.323)">
                    <rect x="525.948" y="339.222" width="34.538" height="12.627" style="fill:rgb(21,133,198);"/>
                </g>
                <g transform="matrix(-1,0,0,1,1082.16,-181.171)">
                    <rect x="528.063" y="509.469" width="34.538" height="12.627" style="fill:rgb(21,133,198);"/>
                </g>
                <g transform="matrix(1,0,0,1,404.109,476.529)">
                    <path d="M0,-115.543L6.807,-115.543L7.278,0L-22.205,0" style="fill:none;fill-rule:nonzero;stroke:rgb(0,17,27);stroke-width:0.53px;"/>
                </g>
                <g transform="matrix(1,0,0,1,401.057,454.724)">
                    <path d="M0,0L10.357,0" style="fill:none;fill-rule:nonzero;stroke:rgb(0,17,27);stroke-width:0.53px;"/>
                </g>
                <g transform="matrix(1,0,0,1,401.057,413.368)">
                    <path d="M0,0L10.357,0" style="fill:none;fill-rule:nonzero;stroke:rgb(0,17,27);stroke-width:0.53px;"/>
                </g>
                <g transform="matrix(1,0,0,1,360.686,388.371)">
                    <path d="M0,0L50.728,0" style="fill:none;fill-rule:nonzero;stroke:rgb(0,17,27);stroke-width:0.53px;"/>
                </g>
                <g transform="matrix(-1,0,0,1,782.184,-124.407)">
                    <rect x="378.075" y="481.087" width="34.538" height="12.627" style="fill:rgb(21,133,198);"/>
                </g>
                <g transform="matrix(-1,0,0,1,782.184,-23.657)">
                    <rect x="378.075" y="430.712" width="34.538" height="12.627" style="fill:rgb(21,133,198);"/>
                </g>
                <g transform="matrix(-1,0,0,1,739.888,103.235)">
                    <rect x="356.927" y="367.266" width="34.538" height="12.627" style="fill:rgb(21,133,198);"/>
                </g>
                <g transform="matrix(-1,0,0,1,782.184,59.565)">
                    <rect x="378.075" y="386.876" width="34.538" height="17.077" style="fill:rgb(21,133,198);"/>
                </g>
                <g transform="matrix(1,0,0,1,517.392,477.659)">
                    <path d="M0,-106.026L-6.807,-106.026L-7.278,0L4.228,0" style="fill:none;fill-rule:nonzero;stroke:rgb(0,17,27);stroke-width:0.53px;"/>
                </g>
                <g transform="matrix(-1,0,0,1,510.087,442.107)">
                    <path d="M-10.357,0L0,0" style="fill:none;fill-rule:nonzero;stroke:rgb(0,17,27);stroke-width:0.53px;"/>
                </g>
                <g transform="matrix(-1,0,0,1,510.087,416.614)">
                    <path d="M-10.357,0L0,0" style="fill:none;fill-rule:nonzero;stroke:rgb(0,17,27);stroke-width:0.53px;"/>
                </g>
                <g transform="matrix(1,0,0,1,-8.50394,-107.341)">
                    <rect x="525.896" y="472.554" width="34.538" height="12.627" style="fill:rgb(21,133,198);"/>
                </g>
                <g transform="matrix(1,0,0,1,-8.50394,-17.167)">
                    <rect x="525.896" y="427.467" width="34.538" height="12.627" style="fill:rgb(21,133,198);"/>
                </g>
                <g transform="matrix(1,0,0,1,-8.50394,34.331)">
                    <rect x="525.896" y="399.493" width="34.538" height="17.077" style="fill:rgb(21,133,198);"/>
                </g>
                <g transform="matrix(-1,0,0,1,748.847,-74.949)">
                    <rect x="359.728" y="450.114" width="37.895" height="25.115" style="fill:rgb(21,133,198);"/>
                </g>
                <g transform="matrix(1,0,0,1,360.686,431.886)">
                    <path d="M0,0L50.728,0" style="fill:none;fill-rule:nonzero;stroke:rgb(0,17,27);stroke-width:0.53px;"/>
                </g>
                <g transform="matrix(-1,0,0,1,717.026,13.379)">
                    <rect x="345.496" y="412.194" width="34.538" height="12.627" style="fill:rgb(21,133,198);"/>
                </g>
                <g transform="matrix(-1,0,0,1,510.987,393.144)">
                    <path d="M-50.728,0L0,0" style="fill:none;fill-rule:nonzero;stroke:rgb(0,17,27);stroke-width:0.53px;"/>
                </g>
                <g transform="matrix(1,0,0,1,-8.50394,-64.105)">
                    <rect x="539.401" y="450.936" width="34.538" height="12.627" style="fill:rgb(21,133,198);"/>
                </g>
                <g transform="matrix(0,1,1,0,425.915,336.17)">
                    <path d="M-13.34,-13.34L13.34,-13.34" style="fill:none;fill-rule:nonzero;stroke:rgb(0,17,27);stroke-width:0.53px;"/>
                </g>
                <g transform="matrix(0,1,1,0,523.199,336.17)">
                    <path d="M-13.34,-13.34L13.34,-13.34" style="fill:none;fill-rule:nonzero;stroke:rgb(0,17,27);stroke-width:0.53px;"/>
                </g>
                <g transform="matrix(-1,0,0,1,833.656,-213.967)">
                    <rect x="403.811" y="525.867" width="34.538" height="12.627" style="fill:rgb(21,133,198);"/>
                </g>
                <g transform="matrix(-1,0,0,1,1028.3,-213.967)">
                    <rect x="501.131" y="525.867" width="34.538" height="12.627" style="fill:rgb(21,133,198);"/>
                </g>
                <g transform="matrix(0,1,1,0,421.841,494.721)">
                    <path d="M-3.825,-3.825L3.825,-3.825" style="fill:none;fill-rule:nonzero;stroke:rgb(0,17,27);stroke-width:0.53px;"/>
                </g>
                <g transform="matrix(0,1,1,0,499.034,494.721)">
                    <path d="M-3.825,-3.825L3.825,-3.825" style="fill:none;fill-rule:nonzero;stroke:rgb(0,17,27);stroke-width:0.53px;"/>
                </g>
                <g transform="matrix(-1,0,0,1,848.812,159.181)">
                    <rect x="411.389" y="339.293" width="34.538" height="12.627" style="fill:rgb(21,133,198);"/>
                </g>
                <g transform="matrix(-1,0,0,1,1002.11,159.181)">
                    <rect x="488.039" y="339.293" width="34.538" height="12.627" style="fill:rgb(21,133,198);"/>
                </g>
                <g transform="matrix(1,0,0,1,411.084,401.219)">
                    <path d="M0,0L18.642,0" style="fill:none;fill-rule:nonzero;stroke:rgb(0,17,27);stroke-width:0.53px;"/>
                </g>
                <g transform="matrix(1,0,0,1,491.449,401.219)">
                    <path d="M0,0L18.642,0" style="fill:none;fill-rule:nonzero;stroke:rgb(0,17,27);stroke-width:0.53px;"/>
                </g>
                <g transform="matrix(-1,0,0,1,1080.38,103.235)">
                    <rect x="527.173" y="367.266" width="34.538" height="12.627" style="fill:rgb(21,133,198);"/>
                </g>
                <g transform="matrix(0.24,0,0,0.24,341.82,380.534)">
                    <text x="449.764px" y="513.355px" style="font-family:'Roboto-Regular', 'Roboto';font-size:16.87px;fill:white;">Technical</text>
                    <g transform="matrix(16.87,0,0,16.87,515.168,533.6)">
                    </g>
                    <text x="456.984px" y="533.6px" style="font-family:'Roboto-Regular', 'Roboto';font-size:16.87px;fill:white;">suppor<tspan x="509.649px " y="533.6px ">t</tspan></text>
                </g>
                <g transform="matrix(0.24,0,0,0.24,361.741,251.2)">
                    <text x="479.433px" y="343.178px" style="font-family:'Roboto-Regular', 'Roboto';font-size:16.87px;fill:white;">Ethical</text>
                    <g transform="matrix(16.87,0,0,16.87,533.47,363.423)">
                    </g>
                    <text x="475.975px" y="363.423px" style="font-family:'Roboto-Regular', 'Roboto';font-size:16.87px;fill:white;">barriers</text>
                </g>
                <g transform="matrix(0.24,0,0,0.24,328.551,253.445)">
                    <g transform="matrix(16.87,0,0,16.87,492.667,346.133)">
                    </g>
                    <text x="432.304px" y="346.133px" style="font-family:'Roboto-Regular', 'Roboto';font-size:16.87px;fill:white;">Security</text>
                </g>
                <g transform="matrix(0.24,0,0,0.24,291.165,251.333)">
                    <g transform="matrix(26.4358,0,0,26.4358,403.987,350.528)">
                    </g>
                    <text x="383.111px" y="350.528px" style="font-family:'Roboto-Regular', 'Roboto';font-size:26.436px;fill:white;">...</text>
                </g>
                <g transform="matrix(0.24,0,0,0.24,287.951,380.721)">
                    <g transform="matrix(26.4358,0,0,26.4358,399.758,520.776)">
                    </g>
                    <text x="378.883px" y="520.776px" style="font-family:'Roboto-Regular', 'Roboto';font-size:26.436px;fill:white;">...</text>
                </g>
                <g transform="matrix(0.24,0,0,0.24,403.678,380.721)">
                    <g transform="matrix(26.4358,0,0,26.4358,552.031,520.776)">
                    </g>
                    <text x="531.155px" y="520.776px" style="font-family:'Roboto-Regular', 'Roboto';font-size:26.436px;fill:white;">...</text>
                </g>
                <g transform="matrix(0.24,0,0,0.24,405.286,251.333)">
                    <g transform="matrix(26.4358,0,0,26.4358,554.146,350.528)">
                    </g>
                    <text x="533.27px" y="350.528px" style="font-family:'Roboto-Regular', 'Roboto';font-size:26.436px;fill:white;">...</text>
                </g>
                <g transform="matrix(0.24,0,0,0.24,288.798,272.771)">
                    <text x="381.887px" y="371.562px" style="font-family:'Roboto-Regular', 'Roboto';font-size:16.87px;fill:white;">Course</text>
                    <g transform="matrix(16.87,0,0,16.87,437.029,391.807)">
                    </g>
                    <text x="379.998px" y="391.807px" style="font-family:'Roboto-Regular', 'Roboto';font-size:16.87px;fill:white;">content</text>
                </g>
                <g transform="matrix(0.24,0,0,0.24,286.282,311.055)">
                    <g transform="matrix(16.87,0,0,16.87,408.58,421.935)">
                    </g>
                    <g transform="matrix(16.87,0,0,16.87,413.913,421.935)">
                    </g>
                    <g transform="matrix(16.87,0,0,16.87,419.246,421.935)">
                    </g>
                    <text x="376.686px" y="421.935px" style="font-family:'Roboto-Regular', 'Roboto';font-size:16.87px;fill:white;">Insuciant</text>
                    <g transform="matrix(16.87,0,0,16.87,459.402,442.18)">
                    </g>
                    <text x="378.559px" y="442.18px" style="font-family:'Roboto-Regular', 'Roboto';font-size:16.87px;fill:white;">computers</text>
                </g>
                <g transform="matrix(0.24,0,0,0.24,276.021,359.573)">
                    <g transform="matrix(26.4358,0,0,26.4358,384.061,492.95)">
                    </g>
                    <text x="363.186px" y="492.95px" style="font-family:'Roboto-Regular', 'Roboto';font-size:26.436px;fill:white;">...</text>
                </g>
                <g transform="matrix(0.24,0,0,0.24,287.411,342.487)">
                    <text x="378.172px" y="463.293px" style="font-family:'Roboto-Regular', 'Roboto';font-size:16.87px;fill:white;">Mode of</text>
                    <g transform="matrix(16.87,0,0,16.87,438.13,483.538)">
                    </g>
                    <text x="380.685px" y="483.538px" style="font-family:'Roboto-Regular', 'Roboto';font-size:16.87px;fill:white;">delivery</text>
                </g>
                <g transform="matrix(0.24,0,0,0.24,399.252,279.257)">
                    <text x="525.332px" y="380.096px" style="font-family:'Roboto-Regular', 'Roboto';font-size:16.87px;fill:white;">Computer</text>
                    <g transform="matrix(16.87,0,0,16.87,589.506,400.341)">
                    </g>
                    <text x="535.488px" y="400.341px" style="font-family:'Roboto-Regular', 'Roboto';font-size:16.87px;fill:white;">liter<tspan x="563.525px " y="400.341px ">a</tspan>cy</text>
                </g>
                <g transform="matrix(0.24,0,0,0.24,399.557,313.521)">
                    <text x="525.733px" y="425.18px" style="font-family:'Roboto-Regular', 'Roboto';font-size:16.87px;fill:white;">Students</text>
                    <g transform="matrix(16.87,0,0,16.87,590.31,445.425)">
                    </g>
                    <text x="532.127px" y="445.425px" style="font-family:'Roboto-Regular', 'Roboto';font-size:16.87px;fill:white;">suppor<tspan x="584.791px " y="445.425px ">t</tspan></text>
                </g>
                <g transform="matrix(0.24,0,0,0.24,397.163,335.143)">
                    <g transform="matrix(16.87,0,0,16.87,565.082,453.631)">
                    </g>
                    <g transform="matrix(16.87,0,0,16.87,570.414,453.631)">
                    </g>
                    <g transform="matrix(16.87,0,0,16.87,575.746,453.631)">
                    </g>
                    <g transform="matrix(16.87,0,0,16.87,618.37,453.631)">
                    </g>
                    <text x="522.583px" y="453.631px" style="font-family:'Roboto-Regular', 'Roboto';font-size:16.87px;fill:white;">Self-eciacy</text>
                </g>
                <g transform="matrix(0.24,0,0,0.24,268.44,287.57)">
                    <text x="365.964px" y="391.034px" style="font-family:'Roboto-Regular', 'Roboto';font-size:16.87px;fill:white;">Additional time</text>
                    <text x="383.442px" y="411.279px" style="font-family:'Roboto-Regular', 'Roboto';font-size:16.87px;fill:white;">needed t<tspan x="448.134px " y="411.279px ">o</tspan></text>
                    <text x="353.211px" y="431.524px" style="font-family:'Roboto-Regular', 'Roboto';font-size:16.87px;fill:white;">communicate with</text>
                    <g transform="matrix(16.87,0,0,16.87,455.445,451.769)">
                    </g>
                    <text x="389.937px" y="451.769px" style="font-family:'Roboto-Regular', 'Roboto';font-size:16.87px;fill:white;">students</text>
                </g>
                <g transform="matrix(0.24,0,0,0.24,257.726,325.132)">
                    <text x="364.047px" y="440.457px" style="font-family:'Roboto-Regular', 'Roboto';font-size:16.87px;fill:white;">IT<tspan x="378.371px " y="440.457px "> </tspan>skills of</text>
                    <g transform="matrix(16.87,0,0,16.87,465.347,460.702)">
                    </g>
                    <text x="339.114px" y="460.702px" style="font-family:'Roboto-Regular', 'Roboto';font-size:16.87px;fill:white;">faculty member<tspan x="456.64px " y="460.702px ">s</tspan></text>
                </g>
                <g transform="matrix(0.24,0,0,0.24,408.829,295.686)">
                    <g transform="matrix(16.87,0,0,16.87,567.838,401.714)">
                    </g>
                    <g transform="matrix(16.87,0,0,16.87,573.474,401.714)">
                    </g>
                    <text x="537.933px" y="401.714px" style="font-family:'Roboto-Regular', 'Roboto';font-size:16.87px;fill:white;">Conicting</text>
                    <g transform="matrix(16.87,0,0,16.87,611.488,421.959)">
                    </g>
                    <text x="545.541px" y="421.959px" style="font-family:'Roboto-Regular', 'Roboto';font-size:16.87px;fill:white;">priorities</text>
                </g>
                <g transform="matrix(0,-0.24,0.24,0,245.698,385.172)">
                    <g transform="matrix(21.8167,0,0,21.8167,283.35,339.649)">
                    </g>
                    <text x="-506.805px" y="339.649px" style="font-family:'Roboto-Italic', 'Roboto';font-style:italic;font-size:21.817px;fill:rgb(2,0,30);">A<tspan x="-492.895px -487.431px -476.248px -464.479px -457.45px -451.498px -439.462px -427.289px -411.28px -399.49px -394.025px -383.662px -372.344px -365.074px -354.055px -348.809px -336.639px -324.852px -319.391px -307.221px -299.759px -294.298px -287.273px -275.519px -264.201px -258.74px -246.751px -234.762px -229.301px -217.312px -205.696px -198.426px -191.156px -185.91px -174.592px -167.322px -156.302px -150.841px -145.595px -133.809px -128.348px -121.323px -109.568px -98.25px -93.215px -80.491px -74.638px -61.19px -49.062px -35.187px -29.727px -22.265px -15.421px -3.805px 14.853px 26.171px 42.176px 54.346px 61.616px 72.444px 77.905px 85.249px 99.156px 104.402px 109.648px 115.109px 126.427px 133.452px 138.913px 150.529px 155.775px 161.457px 165.723px 171.184px 183.173px 195.162px 207.151px 219.141px 223.406px 228.867px 240.856px 246.539px 252px 263.989px 275.978px " y="339.649px 339.649px 339.649px 339.649px 339.649px 339.649px 339.649px 339.649px 339.649px 339.649px 339.649px 339.649px 339.649px 339.649px 339.649px 339.649px 339.649px 339.649px 339.649px 339.649px 339.649px 339.649px 339.649px 339.649px 339.649px 339.649px 339.649px 339.649px 339.649px 339.649px 339.649px 339.649px 339.649px 339.649px 339.649px 339.649px 339.649px 339.649px 339.649px 339.649px 339.649px 339.649px 339.649px 339.649px 339.649px 339.649px 339.649px 339.649px 339.649px 339.649px 339.649px 339.649px 339.649px 339.649px 339.649px 339.649px 339.649px 339.649px 339.649px 339.649px 339.649px 339.649px 339.649px 339.649px 339.649px 339.649px 339.649px 339.649px 339.649px 339.649px 339.649px 339.649px 339.649px 339.649px 339.649px 339.649px 339.649px 339.649px 339.649px 339.649px 339.649px 339.649px 339.649px 339.649px 339.649px "> cut-down version of the 68 barriers in the TIPEC framework (Ali et al., 2018, p. 12)</tspan></text>
                </g>
                <g transform="matrix(0.24,0,0,0.24,304.632,238.739)">
                    <text x="406.264px" y="326.783px" style="font-family:'Roboto-Regular', 'Roboto';font-size:16.87px;fill:white;">Setup cost/</text>
                    <g transform="matrix(16.87,0,0,16.87,498.744,347.028)">
                    </g>
                    <text x="400.832px" y="347.028px" style="font-family:'Roboto-Regular', 'Roboto';font-size:16.87px;fill:white;">limited funds</text>
                </g>
                <g transform="matrix(0.24,0,0,0.24,380.663,238.739)">
                    <text x="501.683px" y="326.783px" style="font-family:'Roboto-Regular', 'Roboto';font-size:16.87px;fill:white;">Rules and</text>
                    <g transform="matrix(16.87,0,0,16.87,576.1,347.028)">
                    </g>
                    <text x="500.873px" y="347.028px" style="font-family:'Roboto-Regular', 'Roboto';font-size:16.87px;fill:white;">regulation</text>
                </g>
                <g transform="matrix(0.24,0,0,0.24,308.055,380.534)">
                    <text x="405.335px" y="513.355px" style="font-family:'Roboto-Regular', 'Roboto';font-size:16.87px;fill:white;">Bandwidth issue</text>
                    <g transform="matrix(16.87,0,0,16.87,528.283,533.6)">
                    </g>
                    <text x="405.892px" y="533.6px" style="font-family:'Roboto-Regular', 'Roboto';font-size:16.87px;fill:white;">and connectivity</text>
                </g>
                <g transform="matrix(0.24,0,0,0.24,368.406,380.534)">
                    <text x="490.295px" y="513.355px" style="font-family:'Roboto-Regular', 'Roboto';font-size:16.87px;fill:white;">P<tspan x="500.827px " y="513.355px ">o</tspan>or<tspan x="525.617px " y="513.355px ">q</tspan>uality</text>
                    <g transform="matrix(16.87,0,0,16.87,585.234,533.6)">
                    </g>
                    <text x="484.745px" y="533.6px" style="font-family:'Roboto-Regular', 'Roboto';font-size:16.87px;fill:white;">of computers</text>
                </g>
                <g transform="matrix(0.24,0,0,0.24,405.41,359.573)">
                    <g transform="matrix(26.4358,0,0,26.4358,554.309,492.95)">
                    </g>
                    <text x="533.434px" y="492.95px" style="font-family:'Roboto-Regular', 'Roboto';font-size:26.436px;fill:white;">...</text>
                </g>
                <g>
                    <g transform="matrix(-1,0,0,1,893.83,-25.915)">
                        <rect x="321.076" y="331.697" width="260.182" height="212.915" style="fill:none;stroke:rgb(35,31,32);stroke-width:1.08px;"/>
                    </g>
                </g>
            </g>
        </g>
    </g>
</svg>
