<?xml version="1.0" encoding="UTF-8" standalone="no"?>
<svg
   width="1426.147"
   height="942.80103"
   viewBox="0 0 1426.147 942.80103"
   version="1.1"
   xml:space="preserve"
   style="clip-rule:evenodd;fill-rule:evenodd;stroke-linejoin:round;stroke-miterlimit:2"
   id="svg92"
   sodipodi:docname="QR12_1_Block_Model.svg"
   inkscape:version="1.4.2 (ebf0e940, 2025-05-08)"
   xmlns:inkscape="http://www.inkscape.org/namespaces/inkscape"
   xmlns:sodipodi="http://sodipodi.sourceforge.net/DTD/sodipodi-0.dtd"
   xmlns="http://www.w3.org/2000/svg"
   xmlns:svg="http://www.w3.org/2000/svg"
   xmlns:serif="http://www.serif.com/"><defs
   id="defs92" /><sodipodi:namedview
   id="namedview92"
   pagecolor="#ffffff"
   bordercolor="#000000"
   borderopacity="0.25"
   inkscape:showpageshadow="2"
   inkscape:pageopacity="0.0"
   inkscape:pagecheckerboard="0"
   inkscape:deskcolor="#d1d1d1"
   inkscape:zoom="0.28762828"
   inkscape:cx="1241.1853"
   inkscape:cy="1752.2616"
   inkscape:window-width="1920"
   inkscape:window-height="2101"
   inkscape:window-x="-1"
   inkscape:window-y="31"
   inkscape:window-maximized="0"
   inkscape:current-layer="svg92" />
    <g
   id="g93"
   transform="translate(-94.284075,-1024.9008)"><g
     id="Layer-1"
     serif:id="Layer 1"
     transform="scale(4.16667)">
        <g
   transform="scale(0.24)"
   id="g1">
            <path
   d="m 1520.43,1074.04 v 844.52 c 0,27.12 -22.02,49.14 -49.14,49.14 H 143.425 c -27.122,0 -49.141,-22.02 -49.141,-49.14 v -844.52 c 0,-27.13 22.019,-49.14 49.141,-49.14 H 1471.29 c 27.12,0 49.14,22.01 49.14,49.14 z"
   style="fill:#2c3078"
   id="path1" />
        </g>
        <g
   transform="matrix(-1,0,0,1,129.273,-292.164)"
   id="g2">
            <rect
   x="40.363998"
   y="544.74298"
   width="57.049"
   height="53.071999"
   style="fill:#1585c6"
   id="rect1" />
        </g>
        <g
   transform="matrix(-1,0,0,1,451.063,-292.164)"
   id="g3">
            <rect
   x="97.413002"
   y="544.74298"
   width="264.741"
   height="53.071999"
   style="fill:#c5e5f8"
   id="rect2" />
        </g>
        <g
   transform="matrix(-1,0,0,1,451.063,-186.416)"
   id="g4">
            <rect
   x="97.413002"
   y="493.41"
   width="264.741"
   height="49.990002"
   style="fill:#c5e5f8"
   id="rect3" />
        </g>
        <g
   transform="matrix(-1,0,0,1,451.063,-85.298)"
   id="g5">
            <rect
   x="97.413002"
   y="443.74399"
   width="264.741"
   height="48.203999"
   style="fill:#c5e5f8"
   id="rect4" />
        </g>
        <g
   transform="matrix(-1,0,0,1,451.285,6.935)"
   id="g6">
            <rect
   x="97.524002"
   y="401.17801"
   width="264.741"
   height="41.103001"
   style="fill:#c5e5f8"
   id="rect5" />
        </g>
        <g
   transform="matrix(-1,0,0,1,267.024,61.92)"
   id="g7">
            <rect
   x="106.524"
   y="387.29599"
   width="62.48"
   height="13.882"
   style="fill:#1585c6"
   id="rect6" />
        </g>
        <g
   transform="matrix(-1,0,0,1,438.985,61.92)"
   id="g8">
            <rect
   x="186.194"
   y="387.29599"
   width="75.100998"
   height="13.882"
   style="fill:#1585c6"
   id="rect7" />
        </g>
        <g
   transform="matrix(-1,0,0,1,619.583,61.92)"
   id="g9">
            <rect
   x="278.04401"
   y="387.29599"
   width="71.999001"
   height="13.882"
   style="fill:#1585c6"
   id="rect8" />
        </g>
        <g
   transform="matrix(-1,0,0,1,129.273,-186.416)"
   id="g10">
            <rect
   x="40.363998"
   y="493.41"
   width="57.049"
   height="49.990002"
   style="fill:#1585c6"
   id="rect9" />
        </g>
        <g
   transform="matrix(-1,0,0,1,129.273,-85.298)"
   id="g11">
            <rect
   x="40.363998"
   y="443.74399"
   width="57.049"
   height="48.203999"
   style="fill:#1585c6"
   id="rect10" />
        </g>
        <g
   transform="matrix(-1,0,0,1,129.495,6.935)"
   id="g12">
            <rect
   x="40.474998"
   y="401.17801"
   width="57.049"
   height="41.103001"
   style="fill:#1585c6"
   id="rect11" />
        </g>
        <g
   transform="matrix(0.24,0,0,0.24,81.1593,344.424)"
   id="g14">
            <g
   transform="matrix(26.4921,0,0,26.4921,289.112,473.058)"
   id="g13">
            </g>
            <text
   x="106.789"
   y="473.05801"
   style="font-size:26.492px;font-family:Roboto-Regular, Roboto;fill:#ffffff"
   id="text13">T<tspan
   x="122.233 135.91 148.681 156.976 163.175 176.47701 190.709 199.509 208.347 222.386 235.881 249.55701 255.757 264.453 279.88901"
   y="473.05801 473.05801 473.05801 473.05801 473.05801 473.05801 473.05801 473.05801 473.05801 473.05801 473.05801 473.05801 473.05801 473.05801 473.05801"
   id="tspan13">ext surface (T)</tspan></text>
        </g>
        <g
   transform="matrix(0.24,0,0,0.24,139.889,344.424)"
   id="g16">
            <g
   transform="matrix(26.4921,0,0,26.4921,440.525,473.058)"
   id="g15">
            </g>
            <text
   x="184.065"
   y="473.05801"
   style="font-size:26.492px;font-family:Roboto-Regular, Roboto;fill:#ffffff"
   id="text15">P<tspan
   x="200.39799 208.73599 223.465 237.96001 246.03999 260.07001 282.922 289.11301 302.78101 315.54999 329.22 342.70999 356.936 365.22501 371.289 386.01999 400.272 406.465 414.95599 431.302"
   y="473.05801 473.05801 473.05801 473.05801 473.05801 473.05801 473.05801 473.05801 473.05801 473.05801 473.05801 473.05801 473.05801 473.05801 473.05801 473.05801 473.05801 473.05801 473.05801 473.05801"
   id="tspan15">rogram execution (P)</tspan></text>
        </g>
        <g
   transform="matrix(0.24,0,0,0.24,208.849,344.424)"
   id="g18">
            <g
   transform="matrix(26.4921,0,0,26.4921,516.512,473.058)"
   id="g17">
            </g>
            <text
   x="274.80099"
   y="473.05801"
   style="font-size:26.492px;font-family:Roboto-Regular, Roboto;fill:#ffffff"
   id="text17">F<tspan
   x="288.78101 303.00699 317.258 330.746 339.035 345.09799 359.828 374.07901 384.63101 399.12799 413.354 421.952 436.45001 451.17999 464.474 478.14301 484.336 493.02499 507.289"
   y="473.05801 473.05801 473.05801 473.05801 473.05801 473.05801 473.05801 473.05801 473.05801 473.05801 473.05801 473.05801 473.05801 473.05801 473.05801 473.05801 473.05801 473.05801 473.05801"
   id="tspan17">unction/purpose (F)</tspan></text>
        </g>
        <g
   transform="matrix(0.24,0,0,0.24,27.8365,196.792)"
   id="g20">
            <text
   x="36.626999"
   y="278.80499"
   style="font-size:26.492px;font-family:Roboto-Regular, Roboto;fill:#ffffff"
   id="text18">M<tspan
   x="59.379002 73.413002 86.903999 95.246002"
   y="278.80499 278.80499 278.80499 278.80499"
   id="tspan18">acro</tspan></text>
            <g
   transform="matrix(26.4921,0,0,26.4921,186.144,311.922)"
   id="g19">
            </g>
            <text
   x="36.626999"
   y="311.922"
   style="font-size:26.492px;font-family:Roboto-Regular, Roboto;fill:#ffffff"
   id="text19">s<tspan
   x="49.919998 58.207001 66.804001 81.028999 94.515999 102.803 117.027 125.625 139.293 145.48399 154.172 176.92101"
   y="311.922 311.922 311.922 311.922 311.922 311.922 311.922 311.922 311.922 311.922 311.922 311.922"
   id="tspan19">tructure (M)</tspan></text>
        </g>
        <g
   transform="matrix(0.24,0,0,0.24,27.8365,238.145)"
   id="g22">
            <g
   transform="matrix(26.4921,0,0,26.4921,231.132,333.218)"
   id="g21">
            </g>
            <text
   x="36.626999"
   y="333.21799"
   style="font-size:26.492px;font-family:Roboto-Regular, Roboto;fill:#ffffff"
   id="text21">R<tspan
   x="52.576 66.249001 72.315002 86.349998 94.640999 100.707 115.44 129.69501 142.992 157.20799 163.274 177.77499 191.07201 197.26801 205.96001 221.909"
   y="333.21799 333.21799 333.21799 333.21799 333.21799 333.21799 333.21799 333.21799 333.21799 333.21799 333.21799 333.21799 333.21799 333.21799 333.21799 333.21799"
   id="tspan21">elationships (R)</tspan></text>
        </g>
        <g
   transform="matrix(0.24,0,0,0.24,27.8365,277.324)"
   id="g24">
            <g
   transform="matrix(26.4921,0,0,26.4921,153.629,384.769)"
   id="g23">
            </g>
            <text
   x="36.626999"
   y="384.76901"
   style="font-size:26.492px;font-family:Roboto-Regular, Roboto;fill:#ffffff"
   id="text23">B<tspan
   x="52.756001 58.820999 73.553001 87.043999 100.094 113.39 119.585 128.276 144.405"
   y="384.76901 384.76901 384.76901 384.76901 384.76901 384.76901 384.76901 384.76901 384.76901"
   id="tspan23">locks (B)</tspan></text>
        </g>
        <g
   transform="matrix(0.24,0,0,0.24,27.9234,314.996)"
   id="g26">
            <g
   transform="matrix(26.4921,0,0,26.4921,153.326,434.337)"
   id="g25">
            </g>
            <text
   x="36.741001"
   y="434.33701"
   style="font-size:26.492px;font-family:Roboto-Regular, Roboto;fill:#ffffff"
   id="text25">A<tspan
   x="53.423 61.451 76.179001 99.030998 112.323 118.514 127.201 144.103"
   y="434.33701 434.33701 434.33701 434.33701 434.33701 434.33701 434.33701 434.33701"
   id="tspan25">toms (A)</tspan></text>
        </g>
        <g
   transform="matrix(0.24,0,0,0.24,80.7095,198.098)"
   id="g30">
            <text
   x="106.197"
   y="280.52499"
   style="font-size:26.492px;font-family:Roboto-Regular, Roboto;fill:#231f20"
   id="text26">A<tspan
   x="123.101 137.354 151.606 166.338 174.627 188.66 196.94901 210.619 216.813 230.302 245.034 259.59698 273.267 279.461 294.19199 302.79199 308.98599 323.54901 331.63101 345.664"
   y="280.52499 280.52499 280.52499 280.52499 280.52499 280.52499 280.52499 280.52499 280.52499 280.52499 280.52499 280.52499 280.52499 280.52499 280.52499 280.52499 280.52499 280.52499 280.52499 280.52499"
   id="tspan26">nnotate code or draw</tspan></text>
            <text
   x="107.733"
   y="313.642"
   style="font-size:26.492px;font-family:Roboto-Regular, Roboto;fill:#231f20"
   id="text27">a<tspan
   x="121.767 127.962 142.526 148.591 162.62399 177.12399 185.207 199.241 222.09599 228.291 236.32201 251.054 257.24899 270.54501 284.76001 299.492 319.02301 325.21799 333.508 347.72299"
   y="313.642 313.642 313.642 313.642 313.642 313.642 313.642 313.642 313.642 313.642 313.642 313.642 313.642 313.642 313.642 313.642 313.642 313.642 313.642 313.642"
   id="tspan27"> diagram to show the</tspan></text>
            <text
   x="107.733"
   y="346.759"
   style="font-size:26.492px;font-family:Roboto-Regular, Roboto;fill:#231f20"
   id="text28">o<tspan
   x="122.277 134.729 148.399 156.48 170.51199 176.576 182.63901 188.832 202.127 210.416 219.015 233.241 246.729 255.01801 269.24399 277.828"
   y="346.759 346.759 346.759 346.759 346.759 346.759 346.759 346.759 346.759 346.759 346.759 346.759 346.759 346.759 346.759 346.759"
   id="tspan28">verall structure</tspan></text>
            <text
   x="107.733"
   y="379.87601"
   style="font-size:26.492px;font-family:Roboto-Regular, Roboto;fill:#231f20"
   id="text29">R<tspan
   x="123.68 137.35001 150.646 158.935 167.534 181.761 195.25 203.539 217.765 226.36501 240.035 246.229 260.26099 274.51401 280.707 285.633 299.85901 314.112 322.401 328.465 343.02802 355.185"
   y="379.87601 379.87601 379.87601 379.87601 379.87601 379.87601 379.87601 379.87601 379.87601 379.87601 379.87601 379.87601 379.87601 379.87601 379.87601 379.87601 379.87601 379.87601 379.87601 379.87601 379.87601 379.87601"
   id="tspan29">estructure an ‘untidy’</tspan></text>
            <g
   transform="matrix(26.4921,0,0,26.4921,205.133,412.993)"
   id="g29">
            </g>
            <text
   x="107.733"
   y="412.99301"
   style="font-size:26.492px;font-family:Roboto-Regular, Roboto;fill:#231f20"
   id="text30">p<tspan
   x="122.229 130.567 145.29601 159.791 167.871 181.901"
   y="412.99301 412.99301 412.99301 412.99301 412.99301 412.99301"
   id="tspan30">rogram</tspan></text>
        </g>
        <g
   transform="matrix(0.24,0,0,0.24,207.015,198.098)"
   id="g35">
            <text
   x="272.388"
   y="280.52499"
   style="font-size:26.492px;font-family:Roboto-Regular, Roboto;fill:#231f20"
   id="text31">C<tspan
   x="289.25299 303.466 318.19601 332.927 346.22198 359.89099 366.08401 380.116 386.31 400.561 414.59399 437.448 451.117 457.311 466.142 480.87299 489.47198 495.66501"
   y="280.52499 280.52499 280.52499 280.52499 280.52499 280.52499 280.52499 280.52499 280.52499 280.52499 280.52499 280.52499 280.52499 280.52499 280.52499 280.52499 280.52499 280.52499"
   id="tspan31">hoose a name for a</tspan></text>
            <text
   x="272.388"
   y="313.642"
   style="font-size:26.492px;font-family:Roboto-Regular, Roboto;fill:#231f20"
   id="text32">g<tspan
   x="286.884 292.94601 305.397 319.065 333.314 339.505 354.00101 362.33899 377.06699 391.56299 399.642 413.672"
   y="313.642 313.642 313.642 313.642 313.642 313.642 313.642 313.642 313.642 313.642 313.642 313.642"
   id="tspan32">iven program</tspan></text>
            <text
   x="272.388"
   y="346.759"
   style="font-size:26.492px;font-family:Roboto-Regular, Roboto;fill:#231f20"
   id="text33">S<tspan
   x="287.73801 301.40701 307.47 321.13901 334.62701 342.914 353.466 372.99399 381.59201 387.655 395.94299 409.612 415.80399 429.83499 436.02701 449.32101 462.98999 477.241 485.52802 499.19699 513.448 526.93597"
   y="346.759 346.759 346.759 346.759 346.759 346.759 346.759 346.759 346.759 346.759 346.759 346.759 346.759 346.759 346.759 346.759 346.759 346.759 346.759 346.759 346.759 346.759"
   id="tspan33">elect/write a sentence</tspan></text>
            <text
   x="272.388"
   y="379.87601"
   style="font-size:26.492px;font-family:Roboto-Regular, Roboto;fill:#231f20"
   id="text34">t<tspan
   x="280.67801 294.89301 308.927 317.21701 323.41199 337.97601 351.647 364.944 378.43399 387.035 393.10001 407.60001 421.271 434.56799 440.763"
   y="379.87601 379.87601 379.87601 379.87601 379.87601 379.87601 379.87601 379.87601 379.87601 379.87601 379.87601 379.87601 379.87601 379.87601 379.87601"
   id="tspan34">hat describes a</tspan></text>
            <g
   transform="matrix(26.4921,0,0,26.4921,486.222,412.993)"
   id="g34">
            </g>
            <text
   x="272.388"
   y="412.99301"
   style="font-size:26.492px;font-family:Roboto-Regular, Roboto;fill:#231f20"
   id="text35">p<tspan
   x="286.883 295.22198 309.95001 324.44601 332.52499 346.55499 369.39099 372.86499 386.15601 392.34601 406.841 421.064 429.66 444.155 458.88199 472.17401"
   y="412.99301 412.99301 412.99301 412.99301 412.99301 412.99301 412.99301 412.99301 412.99301 412.99301 412.99301 412.99301 412.99301 412.99301 412.99301 412.99301"
   id="tspan35">rogram’s purpose</tspan></text>
        </g>
        <g
   transform="matrix(0.24,0,0,0.24,146.216,198.098)"
   id="g40">
            <text
   x="192.39"
   y="280.52499"
   style="font-size:26.492px;font-family:Roboto-Regular, Roboto;fill:#231f20"
   id="text36">I<tspan
   x="199.21899 213.783 227.45399 241.70799 249.998 256.06299 264.897 277.05499 283.25 289.315 303.569 318.06799 332.29599 340.586 353.88199 360.077 374.33099 388.00201 401.67401 416.23801 429.909"
   y="280.52499 280.52499 280.52499 280.52499 280.52499 280.52499 280.52499 280.52499 280.52499 280.52499 280.52499 280.52499 280.52499 280.52499 280.52499 280.52499 280.52499 280.52499 280.52499 280.52499 280.52499"
   id="tspan36">dentify inputs needed</tspan></text>
            <text
   x="192.39"
   y="313.642"
   style="font-size:26.492px;font-family:Roboto-Regular, Roboto;fill:#231f20"
   id="text37">t<tspan
   x="200.42 215.14999 221.343 229.632 243.302 256.59601 264.88501 271.078 285.10999 291.173 297.237 303.42999 317.92801 326.26801 340.99799 355.496 363.578 377.60999"
   y="313.642 313.642 313.642 313.642 313.642 313.642 313.642 313.642 313.642 313.642 313.642 313.642 313.642 313.642 313.642 313.642 313.642 313.642"
   id="tspan37">o test all program</tspan></text>
            <text
   x="192.39"
   y="346.759"
   style="font-size:26.492px;font-family:Roboto-Regular, Roboto;fill:#231f20"
   id="text38">b<tspan
   x="206.88901 214.972 229.005 243.258 256.74799 270.96201 284.633"
   y="346.759 346.759 346.759 346.759 346.759 346.759 346.759"
   id="tspan38">ranches</tspan></text>
            <text
   x="192.39"
   y="379.87601"
   style="font-size:26.492px;font-family:Roboto-Regular, Roboto;fill:#231f20"
   id="text39">W<tspan
   x="215.51801 221.58299 227.649 233.715 239.91 245.97501 252.041 266.29501 279.96701 286.16199 302.39499 308.59 322.09399 334.54501 348.207 356.79901 362.98499 377.47501"
   y="379.87601 379.87601 379.87601 379.87601 379.87601 379.87601 379.87601 379.87601 379.87601 379.87601 379.87601 379.87601 379.87601 379.87601 379.87601 379.87601 379.87601 379.87601"
   id="tspan39">ill line X ever be</tspan></text>
            <g
   transform="matrix(26.4921,0,0,26.4921,309.264,412.993)"
   id="g39">
            </g>
            <text
   x="192.39"
   y="412.99301"
   style="font-size:26.492px;font-family:Roboto-Regular, Roboto;fill:#231f20"
   id="text40">e<tspan
   x="206.062 218.827 232.49899 245.989 260.21701 268.50699 282.17801 296.742"
   y="412.99301 412.99301 412.99301 412.99301 412.99301 412.99301 412.99301 412.99301"
   id="tspan40">xecuted?</tspan></text>
        </g>
        <g
   transform="matrix(0.24,0,0,0.24,80.7095,237.871)"
   id="g44">
            <text
   x="106.197"
   y="332.858"
   style="font-size:26.492px;font-family:Roboto-Regular, Roboto;fill:#231f20"
   id="text41">I<tspan
   x="113.025 127.59 141.261 155.515 163.80499 169.871 178.705 190.86301 197.058 209.319 223.353 231.95399 238.02 252.05299 266.55301 272.61801"
   y="332.858 332.858 332.858 332.858 332.858 332.858 332.858 332.858 332.858 332.858 332.858 332.858 332.858 332.858 332.858 332.858"
   id="tspan41">dentify variable</tspan></text>
            <text
   x="107.733"
   y="365.97501"
   style="font-size:26.492px;font-family:Roboto-Regular, Roboto;fill:#231f20"
   id="text42">s<tspan
   x="121.026 134.513 149.242 163.73801"
   y="365.97501 365.97501 365.97501 365.97501"
   id="tspan42">cope</tspan></text>
            <text
   x="107.733"
   y="409.009"
   style="font-size:26.492px;font-family:Roboto-Regular, Roboto;fill:#231f20"
   id="text43">H<tspan
   x="126.255 132.32001 146.81799 161.032 167.097 173.162 187.66 201.87399 210.164 216.358 225.19099 239.418 253.67 267.16 275.45001 281.51401 296.246"
   y="409.009 409.009 409.009 409.009 409.009 409.009 409.009 409.009 409.009 409.009 409.009 409.009 409.009 409.009 409.009 409.009 409.009"
   id="tspan43">ighlight function</tspan></text>
            <g
   transform="matrix(26.4921,0,0,26.4921,161.065,442.126)"
   id="g43">
            </g>
            <text
   x="107.733"
   y="442.12601"
   style="font-size:26.492px;font-family:Roboto-Regular, Roboto;fill:#231f20"
   id="text44">c<tspan
   x="121.225 135.259 141.326 147.392"
   y="442.12601 442.12601 442.12601 442.12601"
   id="tspan44">alls</tspan></text>
        </g>
        <g
   transform="matrix(0.24,0,0,0.24,207.015,237.871)"
   id="g49">
            <text
   x="272.388"
   y="332.858"
   style="font-size:26.492px;font-family:Roboto-Regular, Roboto;fill:#231f20"
   id="text45">C<tspan
   x="289.254 303.46799 318.20001 332.93201 346.228 359.89899 366.09299 380.12601 386.32001 400.57401 414.60699 437.46201 451.133 457.327 466.16101 480.892"
   y="332.858 332.858 332.858 332.858 332.858 332.858 332.858 332.858 332.858 332.858 332.858 332.858 332.858 332.858 332.858 332.858"
   id="tspan45">hoose a name for</tspan></text>
            <text
   x="272.388"
   y="365.97501"
   style="font-size:26.492px;font-family:Roboto-Regular, Roboto;fill:#231f20"
   id="text46">a<tspan
   x="286.42001 292.61301 304.87299 318.905 327.504 333.56799 347.60001 362.09799 368.16199 381.832 392.38501 401.21701 415.44299 429.69501 443.18399 451.47299 457.53601 472.267"
   y="365.97501 365.97501 365.97501 365.97501 365.97501 365.97501 365.97501 365.97501 365.97501 365.97501 365.97501 365.97501 365.97501 365.97501 365.97501 365.97501 365.97501 365.97501"
   id="tspan46"> variable/function</tspan></text>
            <text
   x="272.388"
   y="399.09201"
   style="font-size:26.492px;font-family:Roboto-Regular, Roboto;fill:#231f20"
   id="text47">A<tspan
   x="289.29001 297.87299 311.54001 317.73099 326.017 345.54401 360.272 366.46201 380.957 389.29501 404.02301 418.51801 426.59698 440.62601 463.478 476.76999"
   y="399.09201 399.09201 399.09201 399.09201 399.09201 399.09201 399.09201 399.09201 399.09201 399.09201 399.09201 399.09201 399.09201 399.09201 399.09201 399.09201"
   id="tspan47">re two programs/</tspan></text>
            <text
   x="272.388"
   y="432.20901"
   style="font-size:26.492px;font-family:Roboto-Regular, Roboto;fill:#231f20"
   id="text48">s<tspan
   x="285.68201 299.35199 313.849 336.703 350.37299 364.625 372.91299 386.20801 392.39999 401.23199 415.45801 429.70999 443.198 451.487 457.54999 472.28101 486.53201 500.564 506.62799 512.69098"
   y="432.20901 432.20901 432.20901 432.20901 432.20901 432.20901 432.20901 432.20901 432.20901 432.20901 432.20901 432.20901 432.20901 432.20901 432.20901 432.20901 432.20901 432.20901 432.20901 432.20901"
   id="tspan48">egments functionally</tspan></text>
            <g
   transform="matrix(26.4921,0,0,26.4921,389.99,465.326)"
   id="g48">
            </g>
            <text
   x="272.388"
   y="465.32599"
   style="font-size:26.492px;font-family:Roboto-Regular, Roboto;fill:#231f20"
   id="text49">e<tspan
   x="286.06 300.741 314.96899 321.035 333.297 347.33099 353.397 367.069 381.323"
   y="465.32599 465.32599 465.32599 465.32599 465.32599 465.32599 465.32599 465.32599 465.32599"
   id="tspan49">quivalent</tspan></text>
        </g>
        <g
   transform="matrix(0.24,0,0,0.24,146.216,237.871)"
   id="g55">
            <g
   transform="matrix(26.4921,0,0,26.4921,299.599,332.858)"
   id="g50">
            </g>
            <g
   transform="matrix(26.4921,0,0,26.4921,308.294,332.858)"
   id="g51">
            </g>
            <text
   x="192.39"
   y="332.858"
   style="font-size:26.492px;font-family:Roboto-Regular, Roboto;fill:#231f20"
   id="text51">D<tspan
   x="209.397 217.479 231.511 251.041 257.23401 265.522 279.73599 293.405 299.599 314.26401 328.995 348.52499 354.71799 369.448"
   y="332.858 332.858 332.858 332.858 332.858 332.858 332.858 332.858 332.858 332.858 332.858 332.858 332.858 332.858"
   id="tspan51">raw the ﬂow of</tspan></text>
            <text
   x="192.39"
   y="365.97501"
   style="font-size:26.492px;font-family:Roboto-Regular, Roboto;fill:#231f20"
   id="text52">c<tspan
   x="205.87801 220.60699 234.85699 243.145 251.48399 266.21301"
   y="365.97501 365.97501 365.97501 365.97501 365.97501 365.97501"
   id="tspan52">ontrol</tspan></text>
            <text
   x="192.39"
   y="399.09201"
   style="font-size:26.492px;font-family:Roboto-Regular, Roboto;fill:#231f20"
   id="text53">F<tspan
   x="206.662 212.73199 226.99001 241.55901 247.759 256.34201 270.01599 284.582 298.81201 313.06799 327.63501 341.67001 355.92599"
   y="399.09201 399.09201 399.09201 399.09201 399.09201 399.09201 399.09201 399.09201 399.09201 399.09201 399.09201 399.09201 399.09201"
   id="tspan53">ind redundant</tspan></text>
            <text
   x="192.39"
   y="432.20901"
   style="font-size:26.492px;font-family:Roboto-Regular, Roboto;fill:#231f20"
   id="text54">c<tspan
   x="205.881 220.614 234.868 249.43201 255.498 263.789 269.85501 284.58801 298.84201 312.87601"
   y="432.20901 432.20901 432.20901 432.20901 432.20901 432.20901 432.20901 432.20901 432.20901 432.20901"
   id="tspan54">onditional</tspan></text>
            <g
   transform="matrix(26.4921,0,0,26.4921,298.306,465.326)"
   id="g54">
            </g>
            <text
   x="192.39"
   y="465.32599"
   style="font-size:26.492px;font-family:Roboto-Regular, Roboto;fill:#231f20"
   id="text55">b<tspan
   x="206.88901 214.972 229.005 243.258 256.74799 270.96201 284.633"
   y="465.32599 465.32599 465.32599 465.32599 465.32599 465.32599 465.32599"
   id="tspan55">ranches</tspan></text>
        </g>
        <g
   transform="matrix(0.24,0,0,0.24,80.7095,276.631)"
   id="g61">
            <text
   x="106.197"
   y="383.858"
   style="font-size:26.492px;font-family:Roboto-Regular, Roboto;fill:#231f20"
   id="text56">I<tspan
   x="113.024 127.587 141.258 155.511 163.8 169.864 178.69701 190.854 197.048 211.54601 217.61 232.342 245.83099"
   y="383.858 383.858 383.858 383.858 383.858 383.858 383.858 383.858 383.858 383.858 383.858 383.858 383.858"
   id="tspan56">dentify block</tspan></text>
            <g
   transform="matrix(26.4921,0,0,26.4921,275.62,416.975)"
   id="g56">
            </g>
            <g
   transform="matrix(26.4921,0,0,26.4921,284.101,416.975)"
   id="g57">
            </g>
            <text
   x="107.733"
   y="416.97501"
   style="font-size:26.492px;font-family:Roboto-Regular, Roboto;fill:#231f20"
   id="text57">t<tspan
   x="116.023 128.17999 142.679 156.35001 169.646 174.48199 180.67599 193.972 208.19901 221.689 235.903 242.097 256.13 269.42599 275.62 289.92499 304.17801 310.242 318.53201"
   y="416.97501 416.97501 416.97501 416.97501 416.97501 416.97501 416.97501 416.97501 416.97501 416.97501 416.97501 416.97501 416.97501 416.97501 416.97501 416.97501 416.97501 416.97501 416.97501"
   id="tspan57">ypes, such as ﬁnite</tspan></text>
            <text
   x="107.733"
   y="450.09201"
   style="font-size:26.492px;font-family:Roboto-Regular, Roboto;fill:#231f20"
   id="text58">l<tspan
   x="113.795 128.52299 143.25101 157.746 171.039 175.871 182.062 186.989 200.66 206.72501 220.021 232.657 237.584 243.778 257.26801 271.99899 286.25299 300.81601 306.88101 315.17099 321.23599 335.96701 350.22"
   y="450.09201 450.09201 450.09201 450.09201 450.09201 450.09201 450.09201 450.09201 450.09201 450.09201 450.09201 450.09201 450.09201 450.09201 450.09201 450.09201 450.09201 450.09201 450.09201 450.09201 450.09201 450.09201 450.09201"
   id="tspan58">oops, ‘else’ conditions</tspan></text>
            <g
   transform="matrix(26.4921,0,0,26.4921,236.297,483.209)"
   id="g58">
            </g>
            <g
   transform="matrix(26.4921,0,0,26.4921,244.778,483.209)"
   id="g59">
            </g>
            <text
   x="107.733"
   y="483.20901"
   style="font-size:26.492px;font-family:Roboto-Regular, Roboto;fill:#231f20"
   id="text59">f<tspan
   x="116.566 130.79201 145.045 158.534 166.823 172.88699 187.618 201.87 208.064 222.627 236.297 250.601 264.853 270.918 279.207 285.271 300.00201 314.254 327.54901"
   y="483.20901 483.20901 483.20901 483.20901 483.20901 483.20901 483.20901 483.20901 483.20901 483.20901 483.20901 483.20901 483.20901 483.20901 483.20901 483.20901 483.20901 483.20901 483.20901"
   id="tspan59">unction deﬁnitions,</tspan></text>
            <g
   transform="matrix(26.4921,0,0,26.4921,143.562,516.326)"
   id="g60">
            </g>
            <text
   x="107.733"
   y="516.32599"
   style="font-size:26.492px;font-family:Roboto-Regular, Roboto;fill:#231f20"
   id="text60">e<tspan
   x="121.405 129.69501"
   y="516.32599 516.32599"
   id="tspan60">tc</tspan></text>
        </g>
        <g
   transform="matrix(0.24,0,0,0.24,207.015,276.631)"
   id="g63">
            <text
   x="272.388"
   y="383.858"
   style="font-size:26.492px;font-family:Roboto-Regular, Roboto;fill:#231f20"
   id="text61">E<tspan
   x="287.06699 299.83099 314.32901 320.39301 334.42499 340.48901 354.741 360.935 369.22299 383.43701 397.10699 403.29999 417.798 432.02399 440.62299 455.121 469.85199 483.147"
   y="383.858 383.858 383.858 383.858 383.858 383.858 383.858 383.858 383.858 383.858 383.858 383.858 383.858 383.858 383.858 383.858 383.858 383.858"
   id="tspan61">xplain the purpose</tspan></text>
            <g
   transform="matrix(26.4921,0,0,26.4921,476.967,416.975)"
   id="g62">
            </g>
            <text
   x="272.388"
   y="416.97501"
   style="font-size:26.492px;font-family:Roboto-Regular, Roboto;fill:#231f20"
   id="text62">o<tspan
   x="287.11801 295.94901 302.142 316.173 322.366 336.86301 342.92599 357.65601 371.14401 384.19199 390.38501 405.11499 413.94601 420.13901 433.62701 448.35699 462.91901"
   y="416.97501 416.97501 416.97501 416.97501 416.97501 416.97501 416.97501 416.97501 416.97501 416.97501 416.97501 416.97501 416.97501 416.97501 416.97501 416.97501 416.97501"
   id="tspan62">f a block of code</tspan></text>
        </g>
        <g
   transform="matrix(0.24,0,0,0.24,146.216,276.631)"
   id="g65">
            <text
   x="192.39"
   y="383.858"
   style="font-size:26.492px;font-family:Roboto-Regular, Roboto;fill:#231f20"
   id="text63">R<tspan
   x="208.336 222.005 235.493 250.222 258.806 273.37 279.435 293.68799 308.18799 314.38199 320.448 326.513 340.76599 354.43799 367.73401 373.92899 388.66101"
   y="383.858 383.858 383.858 383.858 383.858 383.858 383.858 383.858 383.858 383.858 383.858 383.858 383.858 383.858 383.858 383.858 383.858"
   id="tspan63">ecording lines of</tspan></text>
            <text
   x="192.39"
   y="416.97501"
   style="font-size:26.492px;font-family:Roboto-Regular, Roboto;fill:#231f20"
   id="text64">c<tspan
   x="205.88 220.61099 235.175"
   y="416.97501 416.97501 416.97501"
   id="tspan64">ode</tspan></text>
            <g
   transform="matrix(26.4921,0,0,26.4921,405.568,460.009)"
   id="g64">
            </g>
            <text
   x="192.39"
   y="460.009"
   style="font-size:26.492px;font-family:Roboto-Regular, Roboto;fill:#231f20"
   id="text65">P<tspan
   x="208.58099 222.612 231.21001 244.504 259.23401 272.45001 275.92499 289.21899 295.41101 311.745 320.08401 334.814 349.31 355.37299 369.04199 391.89499"
   y="460.009 460.009 460.009 460.009 460.009 460.009 460.009 460.009 460.009 460.009 460.009 460.009 460.009 460.009 460.009 460.009"
   id="tspan65">arson’s Problems</tspan></text>
        </g>
        <g
   transform="matrix(0.24,0,0,0.24,80.7941,315.094)"
   id="g69">
            <text
   x="106.308"
   y="434.466"
   style="font-size:26.492px;font-family:Roboto-Regular, Roboto;fill:#231f20"
   id="text66">I<tspan
   x="113.136 127.7 141.371 155.62399 163.914 169.979 178.812 190.97 197.164 210.46001 218.75 232.783 241.073 254.744 277.599 291.271 305.52399"
   y="434.466 434.466 434.466 434.466 434.466 434.466 434.466 434.466 434.466 434.466 434.466 434.466 434.466 434.466 434.466 434.466 434.466"
   id="tspan66">dentify statement</tspan></text>
            <text
   x="107.845"
   y="467.58301"
   style="font-size:26.492px;font-family:Roboto-Regular, Roboto;fill:#231f20"
   id="text67">t<tspan
   x="116.134 128.29201 142.791 156.46201 169.758 174.59399 180.78799 194.084 208.312 221.802 236.01601 242.21001 256.24399"
   y="467.58301 467.58301 467.58301 467.58301 467.58301 467.58301 467.58301 467.58301 467.58301 467.58301 467.58301 467.58301 467.58301"
   id="tspan67">ypes, such as</tspan></text>
            <text
   x="107.845"
   y="500.70001"
   style="font-size:26.492px;font-family:Roboto-Regular, Roboto;fill:#231f20"
   id="text68">a<tspan
   x="121.878 135.174 148.46899 154.534 169.033 183.286 206.142 219.813 234.06599 242.355 255.651 261.845 275.879 290.13199"
   y="500.70001 500.70001 500.70001 500.70001 500.70001 500.70001 500.70001 500.70001 500.70001 500.70001 500.70001 500.70001 500.70001 500.70001"
   id="tspan68">ssignments and</tspan></text>
            <g
   transform="matrix(26.4921,0,0,26.4921,227.963,533.817)"
   id="g68">
            </g>
            <text
   x="107.845"
   y="533.81702"
   style="font-size:26.492px;font-family:Roboto-Regular, Roboto;fill:#231f20"
   id="text69">c<tspan
   x="121.335 136.067 150.32001 164.884 170.94901 179.239 185.304 200.036 214.28999"
   y="533.81702 533.81702 533.81702 533.81702 533.81702 533.81702 533.81702 533.81702 533.81702"
   id="tspan69">onditions</tspan></text>
        </g>
        <g
   transform="matrix(0.24,0,0,0.24,207.099,315.094)"
   id="g71">
            <text
   x="272.49899"
   y="434.466"
   style="font-size:26.492px;font-family:Roboto-Regular, Roboto;fill:#231f20"
   id="text70">E<tspan
   x="287.17801 299.94299 314.44 320.504 334.53699 340.60001 354.853 361.04599 369.33499 383.548 397.21799 403.41101 417.909 432.13501 440.73499 455.233 469.96301 483.258"
   y="434.466 434.466 434.466 434.466 434.466 434.466 434.466 434.466 434.466 434.466 434.466 434.466 434.466 434.466 434.466 434.466 434.466 434.466"
   id="tspan70">xplain the purpose</tspan></text>
            <g
   transform="matrix(26.4921,0,0,26.4921,436.953,467.583)"
   id="g70">
            </g>
            <text
   x="272.49899"
   y="467.58301"
   style="font-size:26.492px;font-family:Roboto-Regular, Roboto;fill:#231f20"
   id="text71">o<tspan
   x="287.23001 296.06299 302.25699 316.29001 322.483 335.77899 341.84299 356.09601 370.595 376.659 390.32999 396.52301 402.58801 408.65201 422.905"
   y="467.58301 467.58301 467.58301 467.58301 467.58301 467.58301 467.58301 467.58301 467.58301 467.58301 467.58301 467.58301 467.58301 467.58301 467.58301"
   id="tspan71">f a single line</tspan></text>
        </g>
        <g
   transform="matrix(0.24,0,0,0.24,146.207,315.094)"
   id="g73">
            <text
   x="192.377"
   y="434.466"
   style="font-size:26.492px;font-family:Roboto-Regular, Roboto;fill:#231f20"
   id="text72">T<tspan
   x="206.839 214.923 228.957 242.448 256.121 262.31601 274.578 288.61301 294.67899 308.90701 322.57999"
   y="434.466 434.466 434.466 434.466 434.466 434.466 434.466 434.466 434.466 434.466 434.466"
   id="tspan72">race values</tspan></text>
            <g
   transform="matrix(26.4921,0,0,26.4921,405.242,467.583)"
   id="g72">
            </g>
            <text
   x="192.894"
   y="467.58301"
   style="font-size:26.492px;font-family:Roboto-Regular, Roboto;fill:#231f20"
   id="text73">t<tspan
   x="201.183 215.397 223.73801 238.46899 252.69501 267.19299 281.40701 287.60101 301.633 307.827 322.32501 330.66599 345.397 359.89499 367.97699 382.01001"
   y="467.58301 467.58301 467.58301 467.58301 467.58301 467.58301 467.58301 467.58301 467.58301 467.58301 467.58301 467.58301 467.58301 467.58301 467.58301 467.58301"
   id="tspan73">hrough a program</tspan></text>
        </g>
        <g
   transform="matrix(0,-1,-1,0,98.1652,262.231)"
   id="g74">
            <path
   d="m -1.597,-1.597 c -0.882,0 -1.596,0.715 -1.596,1.597 0,0.881 0.714,1.597 1.596,1.597 C -0.715,1.597 0,0.881 0,0 0,-0.882 -0.715,-1.597 -1.597,-1.597"
   style="fill:#02001e;fill-rule:nonzero"
   id="path73" />
        </g>
        <g
   transform="matrix(0,-1,-1,0,98.1652,285.231)"
   id="g75">
            <path
   d="m -1.597,-1.597 c -0.882,0 -1.596,0.715 -1.596,1.597 0,0.881 0.714,1.597 1.596,1.597 C -0.715,1.597 0,0.881 0,0 0,-0.882 -0.715,-1.597 -1.597,-1.597"
   style="fill:#02001e;fill-rule:nonzero"
   id="path74" />
        </g>
        <g
   transform="matrix(0,-1,-1,0,184.165,262.231)"
   id="g76">
            <path
   d="m -1.597,-1.597 c -0.882,0 -1.596,0.715 -1.596,1.597 0,0.881 0.714,1.597 1.596,1.597 C -0.715,1.597 0,0.881 0,0 0,-0.882 -0.715,-1.597 -1.597,-1.597"
   style="fill:#02001e;fill-rule:nonzero"
   id="path75" />
        </g>
        <g
   transform="matrix(0,-1,-1,0,184.165,285.231)"
   id="g77">
            <path
   d="m -1.597,-1.597 c -0.882,0 -1.596,0.715 -1.596,1.597 0,0.881 0.714,1.597 1.596,1.597 C -0.715,1.597 0,0.881 0,0 0,-0.882 -0.715,-1.597 -1.597,-1.597"
   style="fill:#02001e;fill-rule:nonzero"
   id="path76" />
        </g>
        <g
   transform="matrix(0,-1,-1,0,265.165,262.231)"
   id="g78">
            <path
   d="m -1.597,-1.597 c -0.882,0 -1.596,0.715 -1.596,1.597 0,0.881 0.714,1.597 1.596,1.597 C -0.715,1.597 0,0.881 0,0 0,-0.882 -0.715,-1.597 -1.597,-1.597"
   style="fill:#02001e;fill-rule:nonzero"
   id="path77" />
        </g>
        <g
   transform="matrix(0,-1,-1,0,265.165,285.231)"
   id="g79">
            <path
   d="m -1.597,-1.597 c -0.882,0 -1.596,0.715 -1.596,1.597 0,0.881 0.714,1.597 1.596,1.597 C -0.715,1.597 0,0.881 0,0 0,-0.882 -0.715,-1.597 -1.597,-1.597"
   style="fill:#02001e;fill-rule:nonzero"
   id="path78" />
        </g>
        <g
   transform="matrix(0,-1,-1,0,98.1652,314.564)"
   id="g80">
            <path
   d="m -1.597,-1.597 c -0.882,0 -1.596,0.715 -1.596,1.597 0,0.881 0.714,1.597 1.596,1.597 C -0.715,1.597 0,0.881 0,0 0,-0.882 -0.715,-1.597 -1.597,-1.597"
   style="fill:#02001e;fill-rule:nonzero"
   id="path79" />
        </g>
        <g
   transform="matrix(0,-1,-1,0,98.1652,332.054)"
   id="g81">
            <path
   d="m -1.597,-1.597 c -0.882,0 -1.596,0.715 -1.596,1.597 0,0.881 0.714,1.597 1.596,1.597 C -0.715,1.597 0,0.881 0,0 0,-0.882 -0.715,-1.597 -1.597,-1.597"
   style="fill:#02001e;fill-rule:nonzero"
   id="path80" />
        </g>
        <g
   transform="matrix(0,-1,-1,0,184.165,314.564)"
   id="g82">
            <path
   d="m -1.597,-1.597 c -0.882,0 -1.596,0.715 -1.596,1.597 0,0.881 0.714,1.597 1.596,1.597 C -0.715,1.597 0,0.881 0,0 0,-0.882 -0.715,-1.597 -1.597,-1.597"
   style="fill:#02001e;fill-rule:nonzero"
   id="path81" />
        </g>
        <g
   transform="matrix(0,-1,-1,0,184.165,329.564)"
   id="g83">
            <path
   d="m -1.597,-1.597 c -0.882,0 -1.596,0.715 -1.596,1.597 0,0.881 0.714,1.597 1.596,1.597 C -0.715,1.597 0,0.881 0,0 0,-0.882 -0.715,-1.597 -1.597,-1.597"
   style="fill:#02001e;fill-rule:nonzero"
   id="path82" />
        </g>
        <g
   transform="matrix(0,-1,-1,0,265.165,314.564)"
   id="g84">
            <path
   d="m -1.597,-1.597 c -0.882,0 -1.596,0.715 -1.596,1.597 0,0.881 0.714,1.597 1.596,1.597 C -0.715,1.597 0,0.881 0,0 0,-0.882 -0.715,-1.597 -1.597,-1.597"
   style="fill:#02001e;fill-rule:nonzero"
   id="path83" />
        </g>
        <g
   transform="matrix(0,-1,-1,0,265.165,330.231)"
   id="g85">
            <path
   d="m -1.597,-1.597 c -0.882,0 -1.596,0.715 -1.596,1.597 0,0.881 0.714,1.597 1.596,1.597 C -0.715,1.597 0,0.881 0,0 0,-0.882 -0.715,-1.597 -1.597,-1.597"
   style="fill:#02001e;fill-rule:nonzero"
   id="path84" />
        </g>
        <g
   transform="matrix(0,-1,-1,0,98.1652,365.565)"
   id="g86">
            <path
   d="m -1.597,-1.597 c -0.882,0 -1.596,0.715 -1.596,1.597 0,0.881 0.714,1.597 1.596,1.597 C -0.715,1.597 0,0.881 0,0 0,-0.882 -0.715,-1.597 -1.597,-1.597"
   style="fill:#02001e;fill-rule:nonzero"
   id="path85" />
        </g>
        <g
   transform="matrix(0,-1,-1,0,184.165,365.565)"
   id="g87">
            <path
   d="m -1.597,-1.597 c -0.882,0 -1.596,0.715 -1.596,1.597 0,0.881 0.714,1.597 1.596,1.597 C -0.715,1.597 0,0.881 0,0 0,-0.882 -0.715,-1.597 -1.597,-1.597"
   style="fill:#02001e;fill-rule:nonzero"
   id="path86" />
        </g>
        <g
   transform="matrix(0,-1,-1,0,184.165,383.516)"
   id="g88">
            <path
   d="m -1.597,-1.597 c -0.882,0 -1.596,0.715 -1.596,1.597 0,0.881 0.714,1.597 1.596,1.597 C -0.715,1.597 0,0.881 0,0 0,-0.882 -0.715,-1.597 -1.597,-1.597"
   style="fill:#02001e;fill-rule:nonzero"
   id="path87" />
        </g>
        <g
   transform="matrix(0,-1,-1,0,265.165,365.565)"
   id="g89">
            <path
   d="m -1.597,-1.597 c -0.882,0 -1.596,0.715 -1.596,1.597 0,0.881 0.714,1.597 1.596,1.597 C -0.715,1.597 0,0.881 0,0 0,-0.882 -0.715,-1.597 -1.597,-1.597"
   style="fill:#02001e;fill-rule:nonzero"
   id="path88" />
        </g>
        <g
   transform="matrix(0,-1,-1,0,98.2763,416.173)"
   id="g90">
            <path
   d="m -1.597,-1.597 c -0.882,0 -1.596,0.715 -1.596,1.597 0,0.881 0.714,1.597 1.596,1.597 C -0.715,1.597 0,0.881 0,0 0,-0.882 -0.715,-1.597 -1.597,-1.597"
   style="fill:#02001e;fill-rule:nonzero"
   id="path89" />
        </g>
        <g
   transform="matrix(0,-1,-1,0,184.276,416.173)"
   id="g91">
            <path
   d="m -1.597,-1.597 c -0.882,0 -1.596,0.715 -1.596,1.597 0,0.881 0.714,1.597 1.596,1.597 C -0.715,1.597 0,0.881 0,0 0,-0.882 -0.715,-1.597 -1.597,-1.597"
   style="fill:#02001e;fill-rule:nonzero"
   id="path90" />
        </g>
        <g
   transform="matrix(0,-1,-1,0,265.276,416.173)"
   id="g92">
            <path
   d="m -1.597,-1.597 c -0.882,0 -1.596,0.715 -1.596,1.597 0,0.881 0.714,1.597 1.596,1.597 C -0.715,1.597 0,0.881 0,0 0,-0.882 -0.715,-1.597 -1.597,-1.597"
   style="fill:#02001e;fill-rule:nonzero"
   id="path91" />
        </g>
    </g></g>
</svg>
