<?xml version="1.0" encoding="UTF-8" standalone="no"?>
<!DOCTYPE svg PUBLIC "-//W3C//DTD SVG 1.1//EN" "http://www.w3.org/Graphics/SVG/1.1/DTD/svg11.dtd">
<svg width="100%" height="100%" viewBox="0 0 2259 959" version="1.1" xmlns="http://www.w3.org/2000/svg" xmlns:xlink="http://www.w3.org/1999/xlink" xml:space="preserve" xmlns:serif="http://www.serif.com/" style="fill-rule:evenodd;clip-rule:evenodd;stroke-miterlimit:10;">
    <g id="Artboard1" transform="matrix(1,0,0,1,-66.9721,-1333.62)">
        <rect x="66.972" y="1333.62" width="2258.03" height="958.312" style="fill:none;"/>
        <clipPath id="_clip1">
            <rect x="66.972" y="1333.62" width="2258.03" height="958.312"/>
        </clipPath>
        <g clip-path="url(#_clip1)">
            <g id="Layer-1" serif:id="Layer 1" transform="matrix(4.16667,0,0,4.16667,0.972131,0.620511)">
                <g transform="matrix(0.245308,0,0,0.221622,-12.3417,42.121)">
                    <path d="M2325,1349.9L2325,2196.19C2325,2249.03 2286.24,2291.93 2238.5,2291.93L202.335,2291.93C154.594,2291.93 115.834,2249.03 115.834,2196.19L115.834,1349.9C115.834,1297.06 154.594,1254.15 202.335,1254.15L2238.5,1254.15C2286.24,1254.15 2325,1297.06 2325,1349.9Z" style="fill:rgb(44,49,120);"/>
                </g>
                <g transform="matrix(-1,0,0,1,597.809,-3.031)">
                    <rect x="-9.429" y="-16.681" width="625.171" height="886.787" style="fill:none;stroke:rgb(35,31,32);stroke-width:0.99px;"/>
                </g>
                <g transform="matrix(0.884972,0.465644,0.465644,-0.884972,424.769,355.566)">
                    <path d="M-5.14,-20.806L84.225,-20.806" style="fill:none;fill-rule:nonzero;stroke:rgb(142,193,233);stroke-width:1px;"/>
                </g>
                <g transform="matrix(1,0,0,1,456.111,399.163)">
                    <path d="M0,-8.561L6.464,0L-4.165,-0.547" style="fill:rgb(142,193,233);fill-rule:nonzero;"/>
                </g>
                <g transform="matrix(0.884972,0.465644,0.465644,-0.884972,292.002,355.566)">
                    <path d="M-5.14,-20.806L84.225,-20.806" style="fill:none;fill-rule:nonzero;stroke:rgb(142,193,233);stroke-width:1px;"/>
                </g>
                <g transform="matrix(1,0,0,1,319.234,396.672)">
                    <path d="M0,-8.561L6.464,0L-4.165,-0.547" style="fill:rgb(142,193,233);fill-rule:nonzero;"/>
                </g>
                <g transform="matrix(0.884972,0.465644,0.465644,-0.884972,161.362,355.566)">
                    <path d="M-5.14,-20.806L84.225,-20.806" style="fill:none;fill-rule:nonzero;stroke:rgb(142,193,233);stroke-width:1px;"/>
                </g>
                <g transform="matrix(1,0,0,1,196.343,400.993)">
                    <path d="M0,-8.561L6.464,0L-4.165,-0.547" style="fill:rgb(142,193,233);fill-rule:nonzero;"/>
                </g>
                <g transform="matrix(0.884972,-0.465644,-0.465644,-0.884972,423.326,496.912)">
                    <path d="M-5.14,20.806L84.225,20.806" style="fill:none;fill-rule:nonzero;stroke:rgb(142,193,233);stroke-width:1px;"/>
                </g>
                <g transform="matrix(1,0,0,1,460.336,450.363)">
                    <path d="M0,8.561L6.464,0L-4.165,0.547" style="fill:rgb(142,193,233);fill-rule:nonzero;"/>
                </g>
                <g transform="matrix(0.884972,-0.465644,-0.465644,-0.884972,290.56,496.912)">
                    <path d="M-5.14,20.806L84.225,20.806" style="fill:none;fill-rule:nonzero;stroke:rgb(142,193,233);stroke-width:1px;"/>
                </g>
                <g transform="matrix(1,0,0,1,320.68,454.14)">
                    <path d="M0,8.561L6.464,0L-4.165,0.547" style="fill:rgb(142,193,233);fill-rule:nonzero;"/>
                </g>
                <g transform="matrix(0.884972,-0.465644,-0.465644,-0.884972,159.919,496.912)">
                    <path d="M-5.14,20.806L84.225,20.806" style="fill:none;fill-rule:nonzero;stroke:rgb(142,193,233);stroke-width:1px;"/>
                </g>
                <g transform="matrix(1,0,0,1,178.653,442.718)">
                    <path d="M0,-32.379C-6.627,-32.379 -12,-27.006 -12,-20.379L-12,-12C-12,-5.373 -6.627,0 0,0L78.532,0C85.16,0 90.532,-5.373 90.532,-12L90.532,-20.379C90.532,-27.006 85.16,-32.379 78.532,-32.379L0,-32.379Z" style="fill:rgb(21,133,198);fill-rule:nonzero;"/>
                </g>
                <g transform="matrix(1,0,0,1,311.251,442.718)">
                    <path d="M0,-32.379C-6.627,-32.379 -12,-27.006 -12,-20.379L-12,-12C-12,-5.373 -6.627,0 0,0L78.532,0C85.16,0 90.532,-5.373 90.532,-12L90.532,-20.379C90.532,-27.006 85.16,-32.379 78.532,-32.379L0,-32.379Z" style="fill:rgb(21,133,198);fill-rule:nonzero;"/>
                </g>
                <g transform="matrix(1,0,0,1,443.85,442.718)">
                    <path d="M0,-32.379C-6.627,-32.379 -12,-27.006 -12,-20.379L-12,-12C-12,-5.373 -6.627,0 0,0L78.532,0C85.16,0 90.532,-5.373 90.532,-12L90.532,-20.379C90.532,-27.006 85.16,-32.379 78.532,-32.379L0,-32.379Z" style="fill:rgb(21,133,198);fill-rule:nonzero;"/>
                </g>
                <g transform="matrix(1,0,0,1,46.0547,442.718)">
                    <path d="M0,-32.379C-6.627,-32.379 -12,-27.006 -12,-20.379L-12,-12C-12,-5.373 -6.627,0 0,0L78.532,0C85.16,0 90.532,-5.373 90.532,-12L90.532,-20.379C90.532,-27.006 85.16,-32.379 78.532,-32.379L0,-32.379Z" style="fill:rgb(142,193,233);fill-rule:nonzero;"/>
                </g>
                <g transform="matrix(1,0,0,1,113.265,375.6)">
                    <path d="M0,-32.379C-6.627,-32.379 -12,-27.006 -12,-20.379L-12,-12C-12,-5.373 -6.627,0 0,0L78.532,0C85.16,0 90.532,-5.373 90.532,-12L90.532,-20.379C90.532,-27.006 85.16,-32.379 78.532,-32.379L0,-32.379Z" style="fill:rgb(142,193,233);fill-rule:nonzero;"/>
                </g>
                <g transform="matrix(1,0,0,1,239.878,375.6)">
                    <path d="M0,-32.379C-7.548,-32.379 -13.668,-27.006 -13.668,-20.379L-13.668,-12C-13.668,-5.373 -7.548,0 0,0L89.449,0C96.999,0 103.118,-5.373 103.118,-12L103.118,-20.379C103.118,-27.006 96.999,-32.379 89.449,-32.379L0,-32.379Z" style="fill:rgb(142,193,233);fill-rule:nonzero;"/>
                </g>
                <g transform="matrix(1,0,0,1,378.462,375.6)">
                    <path d="M0,-32.379C-6.627,-32.379 -12,-27.006 -12,-20.379L-12,-12C-12,-5.373 -6.627,0 0,0L78.532,0C85.16,0 90.532,-5.373 90.532,-12L90.532,-20.379C90.532,-27.006 85.16,-32.379 78.532,-32.379L0,-32.379Z" style="fill:rgb(142,193,233);fill-rule:nonzero;"/>
                </g>
                <g transform="matrix(1,0,0,1,378.462,509.836)">
                    <path d="M0,-32.379C-6.627,-32.379 -12,-27.006 -12,-20.379L-12,-12C-12,-5.373 -6.627,0 0,0L78.532,0C85.16,0 90.532,-5.373 90.532,-12L90.532,-20.379C90.532,-27.006 85.16,-32.379 78.532,-32.379L0,-32.379Z" style="fill:rgb(142,193,233);fill-rule:nonzero;"/>
                </g>
                <g transform="matrix(1,0,0,1,245.863,509.836)">
                    <path d="M0,-32.379C-6.627,-32.379 -12,-27.006 -12,-20.379L-12,-12C-12,-5.373 -6.627,0 0,0L78.532,0C85.16,0 90.532,-5.373 90.532,-12L90.532,-20.379C90.532,-27.006 85.16,-32.379 78.532,-32.379L0,-32.379Z" style="fill:rgb(142,193,233);fill-rule:nonzero;"/>
                </g>
                <g transform="matrix(1,0,0,1,113.265,509.836)">
                    <path d="M0,-32.379C-6.627,-32.379 -12,-27.006 -12,-20.379L-12,-12C-12,-5.373 -6.627,0 0,0L78.532,0C85.16,0 90.532,-5.373 90.532,-12L90.532,-20.379C90.532,-27.006 85.16,-32.379 78.532,-32.379L0,-32.379Z" style="fill:rgb(142,193,233);fill-rule:nonzero;"/>
                </g>
                <g transform="matrix(1,0,0,1,136.587,425.528)">
                    <path d="M0,0L30.066,0" style="fill:none;fill-rule:nonzero;stroke:rgb(142,193,233);stroke-width:1px;"/>
                </g>
                <g transform="matrix(1,0,0,1,269.185,425.528)">
                    <path d="M0,0L30.066,0" style="fill:none;fill-rule:nonzero;stroke:rgb(21,133,198);stroke-width:2px;"/>
                </g>
                <g transform="matrix(1,0,0,1,401.784,425.528)">
                    <path d="M0,0L30.066,0" style="fill:none;fill-rule:nonzero;stroke:rgb(21,133,198);stroke-width:2px;"/>
                </g>
                <g transform="matrix(1,0,0,1,146.757,421.013)">
                    <path d="M0,9.031L9.726,4.506L0.085,0" style="fill:rgb(142,193,233);fill-rule:nonzero;"/>
                </g>
                <g transform="matrix(1,0,0,1,287.357,419.51)">
                    <path d="M0,12.042L12.969,6.009L0.113,0" style="fill:rgb(21,133,198);fill-rule:nonzero;"/>
                </g>
                <g transform="matrix(1,0,0,1,419.955,419.51)">
                    <path d="M0,12.042L12.969,6.009L0.113,0" style="fill:rgb(21,133,198);fill-rule:nonzero;"/>
                </g>
                <g transform="matrix(1,0,0,1,195.454,451.255)">
                    <path d="M0,8.561L6.464,0L-4.165,0.547" style="fill:rgb(142,193,233);fill-rule:nonzero;"/>
                </g>
                <g transform="matrix(0.24,0,0,0.24,80.3994,330.401)">
                    <g transform="matrix(37.5,0,0,37.5,1469,840.879)">
                    </g>
                    <text x="139.69px" y="840.879px" style="font-family:'Roboto-Regular', 'Roboto';font-size:37.5px;fill:white;">Steps and ass<tspan x="374.383px " y="840.879px ">o</tspan>ciated acti<tspan x="568.833px " y="840.879px ">v</tspan>ities in man<tspan x="779.063px " y="840.879px ">a</tspan>ging altern<tspan x="975.691px " y="840.879px ">a</tspan>te concepti<tspan x="1181.13px " y="840.879px ">o</tspan>ns<tspan x="1242.21px 1251.17px " y="840.879px 840.879px "> i</tspan>n computing</text>
                </g>
                <g transform="matrix(0.24,0,0,0.24,141.727,252.159)">
                    <g transform="matrix(37.5,0,0,37.5,404.645,737.928)">
                    </g>
                    <text x="220.384px" y="737.928px" style="font-family:'Roboto-Regular', 'Roboto';font-size:37.5px;fill:white;">A<tspan x="244.237px " y="737.928px ">w</tspan>areness</text>
                </g>
                <g transform="matrix(0.24,0,0,0.24,248.718,252.159)">
                    <g transform="matrix(37.5,0,0,37.5,485.173,737.928)">
                    </g>
                    <text x="361.162px" y="737.928px" style="font-family:'Roboto-Regular', 'Roboto';font-size:37.5px;fill:white;">Identify</text>
                </g>
                <g transform="matrix(0.24,0,0,0.24,338.055,248.164)">
                    <text x="478.711px" y="732.672px" style="font-family:'Roboto-Regular', 'Roboto';font-size:37.5px;fill:white;">Rebuild m<tspan x="644.901px " y="732.672px ">e</tspan>ntal</text>
                    <g transform="matrix(37.5,0,0,37.5,602.451,777.672)">
                    </g>
                    <text x="478.711px" y="777.672px" style="font-family:'Roboto-Regular', 'Roboto';font-size:37.5px;fill:white;">models</text>
                </g>
                <g transform="matrix(0.24,0,0,0.24,82.4103,299.909)">
                    <text x="142.336px" y="800.757px" style="font-family:'Roboto-Regular', 'Roboto';font-size:37.5px;fill:rgb(44,48,120);">Share ex<tspan x="285.937px " y="800.757px ">p</tspan>erience<tspan x="428.713px " y="800.757px ">s</tspan></text>
                    <g transform="matrix(37.5,0,0,37.5,314.627,845.757)">
                    </g>
                    <text x="142.336px" y="845.757px" style="font-family:'Roboto-Regular', 'Roboto';font-size:37.5px;fill:rgb(44,48,120);">with pee<tspan x="282.582px " y="845.757px ">r</tspan>s</text>
                </g>
                <g transform="matrix(0.24,0,0,0.24,187.206,303.732)">
                    <g transform="matrix(37.5,0,0,37.5,530.852,805.788)">
                    </g>
                    <text x="280.225px" y="805.788px" style="font-family:'Roboto-Regular', 'Roboto';font-size:37.5px;fill:rgb(44,48,120);">Classr<tspan x="385.148px " y="805.788px ">o</tspan>om talk</text>
                </g>
                <g transform="matrix(0.24,0,0,0.24,287.699,303.732)">
                    <g transform="matrix(37.5,0,0,37.5,654.66,805.788)">
                    </g>
                    <text x="412.453px" y="805.788px" style="font-family:'Roboto-Regular', 'Roboto';font-size:37.5px;fill:rgb(44,48,120);">Concept m<tspan x="593.875px " y="805.788px ">a</tspan>ps</text>
                </g>
                <g transform="matrix(0.24,0,0,0.24,88.1491,197.309)">
                    <g transform="matrix(37.5,0,0,37.5,192.85,665.757)">
                    </g>
                    <g transform="matrix(37.5,0,0,37.5,205.374,665.757)">
                    </g>
                    <text x="149.887px" y="665.757px" style="font-family:'Roboto-Regular', 'Roboto';font-size:37.5px;fill:rgb(44,48,120);">Reﬂect o<tspan x="296.532px " y="665.757px ">n</tspan></text>
                    <g transform="matrix(37.5,0,0,37.5,375.846,710.757)">
                    </g>
                    <text x="149.887px" y="710.757px" style="font-family:'Roboto-Regular', 'Roboto';font-size:37.5px;fill:rgb(44,48,120);">past teac<tspan x="304.343px " y="710.757px ">h</tspan>ing</text>
                </g>
                <g transform="matrix(0.24,0,0,0.24,30.8983,248.164)">
                    <text x="74.557px" y="732.672px" style="font-family:'Roboto-Regular', 'Roboto';font-size:37.5px;fill:rgb(44,48,120);">Consult res<tspan x="263.615px " y="732.672px ">e</tspan>ar<tspan x="316.216px " y="732.672px ">c</tspan>h</text>
                    <g transform="matrix(37.5,0,0,37.5,358.048,777.672)">
                    </g>
                    <text x="74.557px" y="777.672px" style="font-family:'Roboto-Regular', 'Roboto';font-size:37.5px;fill:rgb(44,48,120);">(where a<tspan x="218.052px 235.936px " y="777.672px 777.672px ">va</tspan>ilable)</text>
                </g>
                <g transform="matrix(0.24,0,0,0.24,175.551,197.309)">
                    <text x="264.889px" y="665.757px" style="font-family:'Roboto-Regular', 'Roboto';font-size:37.5px;fill:rgb(44,48,120);">F<tspan x="285.226px " y="665.757px ">o</tspan>rmative as<tspan x="480.993px " y="665.757px ">s</tspan>essment</text>
                    <g transform="matrix(37.5,0,0,37.5,462.999,710.757)">
                    </g>
                    <text x="264.889px" y="710.757px" style="font-family:'Roboto-Regular', 'Roboto';font-size:37.5px;fill:rgb(44,48,120);">(e.g. MCQs<tspan x="449.943px " y="710.757px ">)</tspan></text>
                </g>
                <g transform="matrix(0.24,0,0,0.24,286.181,201.365)">
                    <g transform="matrix(37.5,0,0,37.5,673.606,671.094)">
                    </g>
                    <text x="410.455px" y="671.094px" style="font-family:'Roboto-Regular', 'Roboto';font-size:37.5px;fill:rgb(44,48,120);">Peer ins<tspan x="544.963px " y="671.094px ">t</tspan>ructi<tspan x="631.527px " y="671.094px ">o</tspan>n</text>
                </g>
            </g>
        </g>
    </g>
</svg>
