<?xml version="1.0" encoding="UTF-8"?>
<svg id="Layer_1" data-name="Layer 1" xmlns="http://www.w3.org/2000/svg" viewBox="0 0 900 800">
  <defs>
    <style>
      .cls-1 {
        fill: #1d2e56;
      }

      .cls-2 {
        fill: #3987c8;
      }

      .cls-3 {
        fill: #1d1d1b;
      }

      .cls-4 {
        fill: #fff;
      }
    </style>
  </defs>
  <rect class="cls-4" width="900" height="800"/>
  <g>
    <path class="cls-1" d="M457.78,369.13c-28.96,0-52.53,23.57-52.53,52.53s23.57,52.53,52.53,52.53,52.53-23.57,52.53-52.53-23.57-52.53-52.53-52.53M457.78,476.06c-29.99,0-54.4-24.4-54.4-54.4s24.4-54.4,54.4-54.4,54.4,24.4,54.4,54.4-24.4,54.4-54.4,54.4"/>
    <path class="cls-1" d="M457.78,316.28c-58.11,0-105.38,47.27-105.38,105.38s47.27,105.38,105.38,105.38,105.38-47.27,105.38-105.38-47.27-105.38-105.38-105.38M457.78,528.92c-59.14,0-107.25-48.11-107.25-107.25s48.11-107.25,107.25-107.25,107.25,48.12,107.25,107.25-48.11,107.25-107.25,107.25"/>
    <path class="cls-1" d="M457.78,263.43c-87.25,0-158.24,70.99-158.24,158.24s70.99,158.24,158.24,158.24,158.24-70.99,158.24-158.24-70.99-158.24-158.24-158.24M457.78,581.77c-88.28,0-160.11-71.82-160.11-160.11s71.82-160.11,160.11-160.11,160.11,71.82,160.11,160.11-71.82,160.11-160.11,160.11"/>
    <path class="cls-1" d="M457.78,210.57c-116.4,0-211.09,94.7-211.09,211.09s94.7,211.09,211.09,211.09,211.09-94.7,211.09-211.09-94.7-211.09-211.09-211.09M457.78,634.63c-117.43,0-212.96-95.53-212.96-212.96s95.53-212.96,212.96-212.96,212.96,95.53,212.96,212.96-95.53,212.96-212.96,212.96"/>
    <path class="cls-1" d="M457.78,157.72c-145.54,0-263.95,118.4-263.95,263.95s118.41,263.95,263.95,263.95,263.95-118.41,263.95-263.95-118.4-263.95-263.95-263.95M457.78,687.48c-146.57,0-265.82-119.24-265.82-265.82s119.24-265.82,265.82-265.82,265.82,119.24,265.82,265.82-119.24,265.82-265.82,265.82"/>
  </g>
  <rect class="cls-1" x="456.85" y="156.78" width="1.87" height="529.76"/>
  <polygon class="cls-1" points="302.63 636.36 301.13 635.26 612.93 206.97 614.44 208.07 302.63 636.36"/>
  <rect class="cls-1" x="192.9" y="420.73" width="529.77" height="1.86" transform="translate(-107.27 160.73) rotate(-17.86)"/>
  <rect class="cls-1" x="456.85" y="156.78" width="1.87" height="529.77" transform="translate(-85.28 725.72) rotate(-71.89)"/>
  <rect class="cls-1" x="456.85" y="156.78" width="1.87" height="529.77" transform="translate(-160.27 348.32) rotate(-35.88)"/>
  <g>
    <path class="cls-2" d="M256.85,486.46c3.91,4.12,38.8,39.34,107.88,62.04l.39.13.31.29c.14.13,16.61,14.33,92.42,17.03l.59.02.47.35c.67.5,67.52,50.2,144.99,56.2,6.12-4.74,61.87-49.33,92.45-122.8.59-3.44,8.87-57.01-26.75-146.22-2.73-3.14-36.85-40.71-118.13-59.27l-.57-.13-.39-.43c-.34-.37-34.63-37.14-92.19-56.3-5.72,6.17-41.17,47.19-45.14,120.15l-.15,2.69-2.47-1.08c-.7-.31-70.4-30.16-151.57-1.58-1.68,8.01-12.34,63.26-2.14,128.92M605.02,626.36l-.69-.05c-75.41-5.58-140.96-52.09-147.19-56.64-72.2-2.63-91.17-15.51-93.92-17.73-73.86-24.36-109.16-62.98-109.5-63.37l-.37-.41-.08-.55c-11.26-71.69,2.17-131.3,2.31-131.89l.23-1,.96-.34c74.39-26.59,139.57-4.71,152.85.35,2.66-40.74,14.97-71.11,24.95-89.56,11.07-20.46,21.48-30.83,21.92-31.26l.81-.8,1.08.35c55.78,18.25,90.38,52.99,94.49,57.25,85.39,19.65,119.47,60.22,119.81,60.63l.29.49c37.25,93.11,27.14,148.23,27.04,148.78l-.11.36c-32.61,78.51-93.67,124.51-94.29,124.96l-.56.42Z"/>
    <path class="cls-3" d="M435.84,139.23l1.22-10.79h11.9v3.52h-8.44l-.53,4.56c1-.53,2.07-.8,3.19-.8,2.02,0,3.61.63,4.75,1.88,1.15,1.25,1.72,3.01,1.72,5.26,0,1.37-.29,2.6-.87,3.68-.58,1.08-1.41,1.93-2.49,2.52-1.08.6-2.35.9-3.82.9-1.28,0-2.47-.26-3.57-.78-1.1-.52-1.97-1.25-2.6-2.19-.63-.94-.97-2.02-1.01-3.22h4.17c.09.89.39,1.57.93,2.06.53.49,1.22.74,2.08.74.96,0,1.69-.34,2.2-1.03.52-.68.77-1.65.77-2.91s-.3-2.13-.89-2.77c-.59-.64-1.43-.96-2.52-.96-1,0-1.81.26-2.43.79l-.41.38-3.35-.83Z"/>
    <path class="cls-3" d="M218.38,161.98h3.91c1.16,0,2.04-.27,2.65-.82.6-.54.91-1.32.91-2.33s-.31-1.88-.92-2.52-1.46-.97-2.54-.99h-4.01v6.66ZM218.38,165.52v7.48h-4.37v-21.23h8.28c1.59,0,3,.29,4.21.87,1.21.58,2.14,1.41,2.79,2.49.65,1.07.98,2.29.98,3.67,0,2.08-.71,3.72-2.14,4.92-1.42,1.2-3.39,1.8-5.91,1.8h-3.83Z"/>
    <path class="cls-3" d="M236.35,165.26c0,1.5.28,2.64.85,3.44.56.8,1.37,1.19,2.42,1.19s1.81-.39,2.39-1.18c.57-.78.86-2.04.86-3.76,0-1.47-.29-2.61-.86-3.42-.58-.81-1.38-1.21-2.42-1.21s-1.83.4-2.39,1.21c-.56.8-.85,2.05-.85,3.73M232.14,164.97c0-1.56.3-2.96.9-4.18.6-1.22,1.47-2.17,2.6-2.84,1.13-.67,2.45-1.01,3.94-1.01,2.13,0,3.87.65,5.21,1.95,1.35,1.3,2.1,3.07,2.25,5.31l.03,1.08c0,2.42-.67,4.36-2.02,5.82s-3.16,2.19-5.44,2.19-4.09-.73-5.45-2.19c-1.35-1.46-2.03-3.44-2.03-5.95v-.19Z"/>
  </g>
  <rect class="cls-3" x="249.9" y="150.61" width="4.23" height="22.39"/>
  <g>
    <path class="cls-3" d="M262.04,173h-4.23v-15.77h4.23v15.77ZM257.57,153.14c0-.63.21-1.15.63-1.56.42-.41,1-.61,1.73-.61s1.29.2,1.72.61c.43.41.64.93.64,1.56s-.22,1.17-.65,1.57c-.44.41-1,.61-1.72.61s-1.28-.2-1.71-.61c-.43-.41-.65-.93-.65-1.57"/>
    <path class="cls-3" d="M272.07,169.89c.78,0,1.41-.21,1.9-.64.49-.43.74-1,.76-1.7h3.95c0,1.07-.3,2.05-.87,2.94-.57.89-1.36,1.58-2.35,2.07-1,.49-2.1.74-3.3.74-2.26,0-4.04-.72-5.34-2.15-1.3-1.43-1.95-3.42-1.95-5.94v-.28c0-2.43.65-4.37,1.94-5.82,1.29-1.45,3.07-2.17,5.32-2.17,1.97,0,3.56.56,4.74,1.69,1.19,1.12,1.8,2.62,1.81,4.48h-3.95c-.02-.82-.27-1.49-.76-2-.49-.51-1.13-.77-1.93-.77-.98,0-1.72.36-2.22,1.07-.5.72-.75,1.88-.75,3.48v.44c0,1.63.25,2.79.74,3.5.5.71,1.25,1.07,2.26,1.07"/>
    <path class="cls-3" d="M286.97,167.04l2.91-9.81h4.52l-6.34,18.22-.35.83c-.94,2.06-2.5,3.09-4.67,3.09-.61,0-1.24-.09-1.87-.28v-3.19h.64c.8.01,1.39-.11,1.79-.35.39-.24.7-.65.93-1.21l.49-1.3-5.53-15.82h4.54l2.93,9.81Z"/>
  </g>
  <polygon class="cls-3" points="65.57 292.14 71.02 307.54 76.44 292.14 82.19 292.14 82.19 313.37 77.8 313.37 77.8 307.56 78.24 297.55 72.51 313.37 69.5 313.37 63.79 297.56 64.23 307.56 64.23 313.37 59.86 313.37 59.86 292.14 65.57 292.14"/>
  <g>
    <path class="cls-3" d="M91.39,310.44c.62,0,1.2-.14,1.72-.42.52-.28.91-.65,1.17-1.11v-2.71h-1.57c-2.11,0-3.23.73-3.37,2.19v.25c-.01.53.17.96.54,1.3.37.34.87.51,1.52.51M94.87,313.37c-.2-.38-.34-.85-.42-1.41-1.02,1.14-2.35,1.7-3.98,1.7-1.55,0-2.82-.45-3.84-1.34-1.02-.89-1.53-2.02-1.53-3.38,0-1.67.62-2.95,1.86-3.85,1.24-.89,3.02-1.35,5.37-1.36h1.94v-.9c0-.73-.18-1.31-.56-1.75-.37-.44-.97-.66-1.77-.66-.71,0-1.27.17-1.67.51-.41.34-.61.8-.61,1.4h-4.21c0-.91.28-1.76.84-2.54.56-.78,1.36-1.39,2.39-1.83,1.03-.44,2.19-.66,3.47-.66,1.94,0,3.49.49,4.63,1.47,1.14.97,1.71,2.35,1.71,4.12v6.84c.01,1.5.22,2.63.63,3.4v.25h-4.26Z"/>
    <path class="cls-3" d="M106.78,293.71v3.88h2.7v3.09h-2.7v7.87c0,.58.11,1,.34,1.25.22.25.65.38,1.28.38.46,0,.88-.03,1.24-.1v3.19c-.83.25-1.68.38-2.55.38-2.95,0-4.46-1.49-4.52-4.48v-8.5h-2.31v-3.09h2.31v-3.88h4.21Z"/>
    <path class="cls-3" d="M118.61,300.7c-.84,0-1.51.28-2.03.85-.52.56-.86,1.38-1,2.43h5.86v-.34c-.02-.94-.27-1.66-.76-2.18-.49-.51-1.18-.77-2.07-.77M119.08,313.66c-2.31,0-4.19-.71-5.65-2.13-1.45-1.42-2.18-3.31-2.18-5.67v-.41c0-1.59.31-3,.92-4.25.61-1.25,1.48-2.21,2.6-2.89,1.12-.67,2.4-1.01,3.84-1.01,2.15,0,3.86.68,5.1,2.04,1.24,1.36,1.86,3.29,1.86,5.79v1.72h-10.04c.14,1.03.55,1.86,1.23,2.48.69.62,1.55.93,2.6.93,1.62,0,2.89-.59,3.81-1.76l2.07,2.32c-.63.9-1.49,1.59-2.57,2.09-1.08.5-2.27.75-3.59.75"/>
    <path class="cls-3" d="M136.83,301.54c-.57-.08-1.08-.12-1.52-.12-1.59,0-2.64.54-3.14,1.62v10.32h-4.21v-15.77h3.98l.12,1.88c.84-1.45,2.01-2.17,3.51-2.17.47,0,.9.06,1.31.19l-.06,4.05Z"/>
    <path class="cls-3" d="M143.3,313.36h-4.23v-15.78h4.23v15.78ZM138.82,293.51c0-.63.21-1.15.64-1.56.42-.41,1-.61,1.72-.61s1.29.2,1.72.61c.43.41.64.93.64,1.56s-.21,1.17-.65,1.57c-.43.41-1,.61-1.72.61s-1.28-.21-1.71-.61c-.44-.41-.65-.93-.65-1.57"/>
    <path class="cls-3" d="M152.42,310.44c.62,0,1.2-.14,1.72-.42.52-.28.91-.65,1.17-1.11v-2.71h-1.57c-2.11,0-3.23.73-3.37,2.19v.25c-.01.53.17.96.54,1.3.37.34.87.51,1.52.51M155.91,313.37c-.2-.38-.34-.85-.42-1.41-1.02,1.14-2.35,1.7-3.98,1.7-1.55,0-2.82-.45-3.84-1.34-1.02-.89-1.53-2.02-1.53-3.38,0-1.67.62-2.95,1.86-3.85,1.24-.89,3.02-1.35,5.37-1.36h1.94v-.9c0-.73-.18-1.31-.56-1.75-.37-.44-.97-.66-1.77-.66-.71,0-1.27.17-1.67.51-.41.34-.61.8-.61,1.4h-4.21c0-.91.28-1.76.84-2.54.56-.78,1.36-1.39,2.39-1.83,1.03-.44,2.19-.66,3.47-.66,1.94,0,3.49.49,4.63,1.47,1.14.97,1.71,2.35,1.71,4.12v6.84c.01,1.5.22,2.63.63,3.4v.25h-4.26Z"/>
  </g>
  <rect class="cls-3" x="162.99" y="290.97" width="4.23" height="22.39"/>
  <path class="cls-3" d="M179.23,309.01c0-.52-.25-.92-.76-1.22-.51-.3-1.33-.56-2.46-.79-3.75-.79-5.63-2.38-5.63-4.78,0-1.4.58-2.57,1.74-3.5,1.16-.94,2.68-1.41,4.55-1.41,2,0,3.61.47,4.81,1.42,1.2.94,1.8,2.17,1.8,3.67h-4.21c0-.6-.2-1.1-.59-1.49-.39-.39-1-.59-1.82-.59-.71,0-1.26.16-1.65.48-.39.32-.58.73-.58,1.22,0,.46.22.84.66,1.13.44.29,1.19.53,2.24.75,1.05.21,1.94.44,2.66.7,2.22.82,3.34,2.23,3.34,4.25,0,1.44-.62,2.6-1.85,3.49-1.24.89-2.83,1.34-4.78,1.34-1.32,0-2.49-.24-3.52-.71-1.02-.47-1.83-1.12-2.41-1.94-.58-.82-.87-1.71-.87-2.66h3.99c.04.75.32,1.32.83,1.72.51.4,1.21.6,2.07.6.81,0,1.42-.15,1.83-.46.41-.31.62-.71.62-1.2"/>
  <polygon class="cls-3" points="403.48 88.73 412.77 88.73 412.77 92.25 399.11 92.25 399.11 71.02 403.48 71.02 403.48 88.73"/>
  <g>
    <path class="cls-3" d="M421.78,79.58c-.84,0-1.52.28-2.04.85-.52.56-.85,1.38-1,2.43h5.86v-.34c-.02-.94-.27-1.66-.76-2.18-.49-.51-1.18-.77-2.07-.77M422.26,92.54c-2.31,0-4.2-.71-5.65-2.13-1.45-1.42-2.18-3.31-2.18-5.67v-.41c0-1.59.31-3,.92-4.25.61-1.25,1.48-2.21,2.6-2.89s2.4-1.01,3.84-1.01c2.15,0,3.85.68,5.09,2.04,1.24,1.36,1.86,3.29,1.86,5.79v1.72h-10.04c.14,1.03.55,1.86,1.23,2.48.68.62,1.55.93,2.6.93,1.62,0,2.89-.59,3.81-1.76l2.07,2.32c-.63.9-1.49,1.59-2.57,2.09-1.08.5-2.27.75-3.59.75"/>
    <path class="cls-3" d="M436.79,89.32c.62,0,1.2-.14,1.72-.42.52-.28.91-.65,1.17-1.11v-2.71h-1.57c-2.11,0-3.23.73-3.37,2.19v.25c-.01.53.17.96.54,1.3.37.34.87.51,1.52.51M440.28,92.25c-.2-.38-.34-.85-.42-1.41-1.02,1.14-2.35,1.7-3.98,1.7-1.55,0-2.83-.45-3.84-1.34-1.01-.89-1.52-2.02-1.52-3.38,0-1.67.62-2.95,1.86-3.85,1.24-.89,3.03-1.35,5.37-1.36h1.94v-.9c0-.73-.19-1.31-.56-1.75-.38-.44-.97-.66-1.77-.66-.71,0-1.27.17-1.67.51-.4.34-.6.8-.6,1.4h-4.21c0-.91.28-1.76.84-2.54.56-.78,1.36-1.39,2.39-1.83,1.03-.44,2.19-.66,3.47-.66,1.94,0,3.49.49,4.63,1.47,1.14.97,1.71,2.35,1.71,4.12v6.84c.01,1.5.22,2.63.63,3.4v.25h-4.26Z"/>
    <path class="cls-3" d="M456.01,80.42c-.58-.08-1.08-.12-1.52-.12-1.59,0-2.64.54-3.14,1.62v10.32h-4.21v-15.77h3.98l.12,1.88c.84-1.45,2.01-2.17,3.51-2.17.47,0,.9.06,1.31.19l-.06,4.05Z"/>
    <path class="cls-3" d="M461.91,76.47l.13,1.82c1.12-1.41,2.64-2.11,4.53-2.11,1.67,0,2.91.49,3.73,1.47.82.98,1.23,2.45,1.25,4.4v10.19h-4.21v-10.09c0-.89-.19-1.54-.58-1.94-.39-.41-1.03-.6-1.94-.6-1.18,0-2.07.51-2.67,1.52v11.12h-4.21v-15.77h3.97Z"/>
    <path class="cls-3" d="M481.54,79.58c-.84,0-1.52.28-2.04.85-.52.56-.85,1.38-1,2.43h5.86v-.34c-.02-.94-.27-1.66-.76-2.18-.49-.51-1.18-.77-2.07-.77M482.01,92.54c-2.31,0-4.2-.71-5.65-2.13-1.45-1.42-2.18-3.31-2.18-5.67v-.41c0-1.59.31-3,.92-4.25.61-1.25,1.48-2.21,2.6-2.89s2.4-1.01,3.84-1.01c2.16,0,3.86.68,5.1,2.04s1.86,3.29,1.86,5.79v1.72h-10.04c.14,1.03.55,1.86,1.23,2.48.68.62,1.55.93,2.6.93,1.62,0,2.89-.59,3.81-1.76l2.07,2.32c-.63.9-1.49,1.59-2.57,2.09-1.08.5-2.27.75-3.59.75"/>
    <path class="cls-3" d="M499.76,80.42c-.57-.08-1.08-.12-1.52-.12-1.59,0-2.64.54-3.14,1.62v10.32h-4.21v-15.77h3.98l.12,1.88c.84-1.45,2.01-2.17,3.51-2.17.47,0,.9.06,1.31.19l-.06,4.05Z"/>
    <path class="cls-3" d="M510.33,87.89c0-.52-.25-.92-.76-1.22-.51-.3-1.33-.56-2.46-.79-3.75-.79-5.63-2.38-5.63-4.78,0-1.4.58-2.57,1.74-3.5,1.16-.94,2.68-1.41,4.56-1.41,2,0,3.6.47,4.81,1.42,1.2.94,1.8,2.17,1.8,3.67h-4.21c0-.6-.2-1.1-.59-1.5-.39-.39-1-.59-1.82-.59-.71,0-1.26.16-1.65.48-.39.32-.58.73-.58,1.22,0,.46.22.84.66,1.13.44.29,1.19.53,2.24.75,1.05.21,1.94.44,2.66.7,2.22.82,3.34,2.23,3.34,4.25,0,1.44-.62,2.6-1.85,3.49-1.24.89-2.83,1.34-4.78,1.34-1.32,0-2.49-.24-3.52-.71s-1.83-1.12-2.41-1.94c-.58-.82-.88-1.71-.88-2.66h3.99c.04.75.32,1.32.83,1.72.51.4,1.21.6,2.07.6.81,0,1.42-.15,1.83-.46.41-.31.62-.71.62-1.2"/>
  </g>
  <polygon class="cls-3" points="648.48 169.11 641.98 169.11 641.98 186.79 637.61 186.79 637.61 169.11 631.19 169.11 631.19 165.57 648.48 165.57 648.48 169.11"/>
  <g>
    <path class="cls-3" d="M657.48,174.12c-.84,0-1.52.28-2.04.85-.52.56-.85,1.38-1,2.43h5.86v-.34c-.02-.94-.27-1.66-.76-2.18-.49-.51-1.18-.77-2.07-.77M657.96,187.08c-2.31,0-4.2-.71-5.65-2.13-1.45-1.42-2.18-3.31-2.18-5.67v-.41c0-1.59.31-3,.92-4.25.61-1.25,1.48-2.21,2.6-2.89s2.4-1.01,3.84-1.01c2.15,0,3.85.68,5.09,2.04s1.86,3.29,1.86,5.79v1.72h-10.04c.14,1.03.55,1.86,1.23,2.48.68.62,1.55.93,2.6.93,1.62,0,2.89-.59,3.81-1.76l2.07,2.32c-.63.9-1.49,1.59-2.57,2.09-1.08.5-2.27.75-3.59.75"/>
    <path class="cls-3" d="M672.49,183.86c.62,0,1.2-.14,1.72-.42.52-.28.91-.65,1.17-1.11v-2.71h-1.57c-2.11,0-3.23.73-3.37,2.19v.25c-.01.53.17.96.54,1.3.37.34.87.51,1.52.51M675.98,186.79c-.2-.38-.34-.85-.42-1.41-1.02,1.14-2.35,1.7-3.98,1.7-1.55,0-2.83-.45-3.84-1.34-1.01-.89-1.52-2.02-1.52-3.38,0-1.67.62-2.95,1.86-3.85,1.24-.89,3.03-1.35,5.37-1.36h1.94v-.9c0-.73-.19-1.31-.56-1.75-.38-.44-.97-.66-1.77-.66-.71,0-1.27.17-1.67.51-.4.34-.6.8-.6,1.4h-4.21c0-.91.28-1.76.84-2.54.56-.78,1.36-1.39,2.39-1.83,1.03-.44,2.19-.66,3.47-.66,1.94,0,3.49.49,4.63,1.47,1.14.97,1.71,2.35,1.71,4.12v6.84c.01,1.5.22,2.63.63,3.4v.25h-4.26Z"/>
    <path class="cls-3" d="M689.4,183.68c.78,0,1.41-.21,1.9-.64.49-.43.74-1,.76-1.7h3.95c0,1.07-.3,2.05-.87,2.94-.57.89-1.36,1.58-2.35,2.07-1,.49-2.1.74-3.3.74-2.26,0-4.04-.72-5.34-2.15-1.3-1.43-1.95-3.42-1.95-5.94v-.28c0-2.43.65-4.37,1.94-5.82,1.29-1.45,3.07-2.17,5.32-2.17,1.97,0,3.56.56,4.74,1.69,1.19,1.12,1.8,2.62,1.81,4.48h-3.95c-.02-.82-.27-1.49-.76-2-.49-.51-1.13-.77-1.93-.77-.98,0-1.72.36-2.22,1.07-.5.72-.75,1.88-.75,3.48v.44c0,1.63.25,2.79.74,3.5.5.71,1.25,1.07,2.26,1.07"/>
    <path class="cls-3" d="M702.52,172.74c1.12-1.34,2.52-2.01,4.21-2.01,3.42,0,5.16,1.98,5.2,5.96v10.1h-4.21v-9.98c0-.9-.2-1.57-.58-2.01-.39-.43-1.04-.65-1.94-.65-1.23,0-2.13.48-2.68,1.43v11.21h-4.21v-22.39h4.21v8.34Z"/>
    <path class="cls-3" d="M721.9,174.12c-.84,0-1.52.28-2.04.85-.52.56-.85,1.38-1,2.43h5.86v-.34c-.02-.94-.27-1.66-.76-2.18-.49-.51-1.18-.77-2.07-.77M722.38,187.08c-2.31,0-4.2-.71-5.65-2.13-1.45-1.42-2.18-3.31-2.18-5.67v-.41c0-1.59.31-3,.92-4.25.61-1.25,1.48-2.21,2.6-2.89s2.4-1.01,3.84-1.01c2.15,0,3.85.68,5.09,2.04s1.86,3.29,1.86,5.79v1.72h-10.04c.14,1.03.55,1.86,1.23,2.48.68.62,1.55.93,2.6.93,1.62,0,2.89-.59,3.81-1.76l2.07,2.32c-.63.9-1.49,1.59-2.57,2.09-1.08.5-2.27.75-3.59.75"/>
    <path class="cls-3" d="M740.12,174.97c-.57-.08-1.08-.12-1.52-.12-1.59,0-2.64.54-3.14,1.62v10.32h-4.21v-15.77h3.98l.12,1.88c.84-1.45,2.01-2.17,3.51-2.17.47,0,.9.06,1.31.19l-.06,4.05Z"/>
    <path class="cls-3" d="M750.69,182.43c0-.52-.25-.92-.77-1.22-.51-.3-1.33-.56-2.45-.79-3.75-.79-5.63-2.38-5.63-4.78,0-1.4.58-2.57,1.74-3.5,1.16-.94,2.68-1.41,4.56-1.41,2,0,3.6.47,4.81,1.42,1.2.94,1.8,2.17,1.8,3.67h-4.21c0-.6-.2-1.1-.59-1.5-.39-.39-1-.59-1.82-.59-.71,0-1.26.16-1.65.48-.39.32-.58.73-.58,1.22,0,.46.22.84.66,1.13.44.29,1.19.53,2.24.75,1.05.21,1.94.44,2.66.7,2.22.82,3.34,2.23,3.34,4.25,0,1.44-.62,2.6-1.85,3.49-1.24.89-2.83,1.34-4.78,1.34-1.32,0-2.49-.24-3.52-.71s-1.83-1.12-2.41-1.94c-.58-.82-.88-1.71-.88-2.66h3.99c.04.75.32,1.32.83,1.72.51.4,1.21.6,2.07.6.81,0,1.42-.15,1.83-.46.41-.31.62-.71.62-1.2"/>
    <path class="cls-3" d="M760.1,326.7c-.17,2.28-1.01,4.08-2.53,5.39-1.52,1.31-3.53,1.97-6.01,1.97-2.72,0-4.86-.92-6.42-2.75-1.56-1.83-2.34-4.34-2.34-7.54v-1.3c0-2.04.36-3.84,1.08-5.4.72-1.55,1.75-2.75,3.08-3.58,1.34-.83,2.89-1.24,4.66-1.24,2.45,0,4.42.66,5.92,1.97,1.5,1.31,2.36,3.15,2.6,5.53h-4.37c-.11-1.37-.49-2.37-1.14-2.98-.66-.62-1.66-.93-2.99-.93-1.46,0-2.55.52-3.28,1.57-.72,1.04-1.1,2.67-1.11,4.86v1.6c0,2.29.35,3.97,1.04,5.03.69,1.06,1.79,1.59,3.29,1.59,1.35,0,2.36-.31,3.02-.93s1.05-1.57,1.14-2.86h4.37Z"/>
    <path class="cls-3" d="M766.25,326.03c0,1.5.28,2.65.85,3.44.56.79,1.37,1.19,2.42,1.19s1.81-.39,2.39-1.18c.57-.78.86-2.04.86-3.76,0-1.47-.29-2.61-.86-3.42-.58-.81-1.38-1.21-2.42-1.21s-1.83.4-2.39,1.21c-.56.8-.85,2.05-.85,3.73M762.04,325.74c0-1.56.3-2.96.9-4.18.6-1.22,1.47-2.17,2.6-2.84,1.13-.67,2.45-1.01,3.94-1.01,2.13,0,3.87.65,5.21,1.95,1.35,1.3,2.1,3.07,2.25,5.31l.03,1.08c0,2.42-.67,4.36-2.02,5.82-1.35,1.46-3.16,2.2-5.44,2.2s-4.09-.73-5.45-2.19c-1.35-1.46-2.03-3.44-2.03-5.95v-.19Z"/>
    <path class="cls-3" d="M783.45,318l.13,1.82c1.12-1.41,2.64-2.11,4.53-2.11,1.67,0,2.91.49,3.73,1.47.82.98,1.23,2.45,1.25,4.4v10.19h-4.22v-10.09c0-.89-.19-1.55-.58-1.95-.39-.4-1.03-.6-1.94-.6-1.18,0-2.07.51-2.67,1.52v11.12h-4.21v-15.78h3.97Z"/>
    <path class="cls-3" d="M801.34,314.12v3.88h2.7v3.09h-2.7v7.87c0,.58.11,1,.34,1.25.22.25.65.38,1.28.38.46,0,.88-.03,1.24-.1v3.19c-.83.25-1.68.38-2.55.38-2.95,0-4.46-1.49-4.52-4.47v-8.5h-2.31v-3.09h2.31v-3.88h4.21Z"/>
    <path class="cls-3" d="M813.17,321.1c-.84,0-1.52.28-2.04.85-.52.56-.85,1.38-1,2.43h5.86v-.34c-.02-.93-.27-1.66-.76-2.17s-1.18-.77-2.07-.77M813.65,334.06c-2.31,0-4.2-.71-5.65-2.13-1.45-1.42-2.18-3.31-2.18-5.67v-.41c0-1.59.31-3,.92-4.25.61-1.25,1.48-2.21,2.6-2.89,1.12-.67,2.4-1.01,3.84-1.01,2.15,0,3.85.68,5.09,2.04,1.24,1.36,1.86,3.29,1.86,5.79v1.72h-10.04c.14,1.03.55,1.86,1.23,2.48.68.62,1.55.93,2.6.93,1.62,0,2.89-.59,3.81-1.76l2.07,2.32c-.63.9-1.49,1.59-2.57,2.09-1.08.5-2.27.75-3.59.75"/>
    <path class="cls-3" d="M826.4,318l.13,1.82c1.12-1.41,2.64-2.11,4.53-2.11,1.67,0,2.91.49,3.73,1.47.82.98,1.23,2.45,1.25,4.4v10.19h-4.22v-10.09c0-.89-.19-1.55-.58-1.95-.39-.4-1.03-.6-1.94-.6-1.18,0-2.07.51-2.67,1.52v11.12h-4.21v-15.78h3.97Z"/>
    <path class="cls-3" d="M844.29,314.12v3.88h2.7v3.09h-2.7v7.87c0,.58.11,1,.34,1.25.22.25.65.38,1.28.38.46,0,.88-.03,1.24-.1v3.19c-.83.25-1.68.38-2.55.38-2.95,0-4.46-1.49-4.52-4.47v-8.5h-2.31v-3.09h2.31v-3.88h4.21Z"/>
  </g>
  <path class="cls-3" d="M622.01,686.36h5.31l-2.67-7.94-2.64,7.94ZM628.5,689.9h-7.67l-1.46,4.37h-4.65l7.9-21.23h4.05l7.94,21.23h-4.65l-1.47-4.37Z"/>
  <g>
    <path class="cls-3" d="M642.89,691.16c.78,0,1.41-.21,1.9-.64.49-.43.74-1,.76-1.7h3.95c0,1.07-.3,2.05-.87,2.94-.57.89-1.36,1.58-2.35,2.07-1,.49-2.1.74-3.3.74-2.25,0-4.04-.72-5.34-2.15s-1.95-3.42-1.95-5.94v-.28c0-2.43.65-4.37,1.94-5.82,1.29-1.45,3.07-2.17,5.32-2.17,1.97,0,3.56.56,4.74,1.69,1.19,1.12,1.8,2.62,1.81,4.48h-3.95c-.02-.82-.27-1.49-.76-2-.49-.51-1.13-.77-1.93-.77-.98,0-1.72.36-2.22,1.07-.5.72-.75,1.88-.75,3.48v.44c0,1.63.25,2.79.74,3.5.5.71,1.25,1.07,2.26,1.07"/>
    <path class="cls-3" d="M658.46,691.16c.78,0,1.41-.21,1.9-.64.49-.43.74-1,.76-1.7h3.95c0,1.07-.3,2.05-.87,2.94-.57.89-1.36,1.58-2.35,2.07-1,.49-2.1.74-3.3.74-2.26,0-4.04-.72-5.34-2.15s-1.95-3.42-1.95-5.94v-.28c0-2.43.65-4.37,1.94-5.82,1.29-1.45,3.07-2.17,5.32-2.17,1.97,0,3.56.56,4.74,1.69,1.19,1.12,1.8,2.62,1.81,4.48h-3.95c-.02-.82-.27-1.49-.76-2-.49-.51-1.13-.77-1.93-.77-.98,0-1.72.36-2.22,1.07-.5.72-.75,1.88-.75,3.48v.44c0,1.63.25,2.79.74,3.5.5.71,1.25,1.07,2.26,1.07"/>
    <path class="cls-3" d="M674.24,681.6c-.84,0-1.52.28-2.04.85-.52.56-.85,1.38-1,2.43h5.86v-.34c-.02-.94-.27-1.66-.76-2.17-.49-.52-1.18-.77-2.07-.77M674.72,694.56c-2.31,0-4.2-.71-5.65-2.13-1.45-1.42-2.18-3.31-2.18-5.67v-.41c0-1.59.31-3,.92-4.25.61-1.25,1.48-2.21,2.6-2.89s2.4-1.01,3.84-1.01c2.15,0,3.85.68,5.09,2.04s1.86,3.29,1.86,5.79v1.72h-10.04c.14,1.03.55,1.86,1.23,2.48.68.62,1.55.93,2.6.93,1.62,0,2.89-.59,3.81-1.76l2.07,2.32c-.63.9-1.49,1.59-2.57,2.09-1.08.5-2.27.75-3.59.75"/>
    <path class="cls-3" d="M692.14,689.91c0-.52-.25-.92-.77-1.22-.51-.3-1.33-.56-2.45-.79-3.75-.79-5.63-2.38-5.63-4.78,0-1.4.58-2.57,1.74-3.5,1.16-.94,2.68-1.41,4.56-1.41,2,0,3.6.47,4.81,1.42,1.2.94,1.8,2.17,1.8,3.67h-4.22c0-.6-.19-1.1-.58-1.5-.39-.39-1-.59-1.82-.59-.71,0-1.26.16-1.65.48-.39.32-.58.73-.58,1.22,0,.46.22.84.66,1.13.44.29,1.19.53,2.24.75,1.05.21,1.93.44,2.66.7,2.22.82,3.34,2.23,3.34,4.25,0,1.44-.62,2.6-1.85,3.49-1.24.89-2.83,1.34-4.78,1.34-1.32,0-2.49-.24-3.52-.71s-1.83-1.12-2.41-1.94c-.58-.82-.88-1.71-.88-2.66h3.99c.04.75.32,1.32.83,1.72.51.4,1.2.6,2.07.6.81,0,1.42-.15,1.83-.46s.62-.71.62-1.2"/>
    <path class="cls-3" d="M707.5,689.91c0-.52-.25-.92-.77-1.22-.51-.3-1.33-.56-2.45-.79-3.75-.79-5.63-2.38-5.63-4.78,0-1.4.58-2.57,1.74-3.5,1.16-.94,2.68-1.41,4.56-1.41,2,0,3.6.47,4.81,1.42,1.2.94,1.8,2.17,1.8,3.67h-4.21c0-.6-.2-1.1-.59-1.5-.39-.39-1-.59-1.82-.59-.71,0-1.26.16-1.65.48-.39.32-.58.73-.58,1.22,0,.46.22.84.66,1.13.44.29,1.19.53,2.24.75,1.05.21,1.94.44,2.66.7,2.22.82,3.34,2.23,3.34,4.25,0,1.44-.62,2.6-1.85,3.49-1.24.89-2.83,1.34-4.78,1.34-1.32,0-2.49-.24-3.52-.71s-1.83-1.12-2.41-1.94c-.58-.82-.88-1.71-.88-2.66h3.99c.04.75.32,1.32.83,1.72.51.4,1.21.6,2.07.6.81,0,1.42-.15,1.83-.46s.62-.71.62-1.2"/>
    <path class="cls-3" d="M718.75,694.27h-4.23v-15.77h4.23v15.77ZM714.27,674.41c0-.63.21-1.15.63-1.56.42-.41,1-.61,1.73-.61s1.29.2,1.72.61c.43.41.64.93.64,1.56s-.22,1.17-.65,1.57c-.44.41-1,.61-1.72.61s-1.28-.2-1.71-.61c-.43-.41-.65-.93-.65-1.57"/>
    <path class="cls-3" d="M732.22,686.22c0-1.59-.25-2.76-.76-3.49-.51-.73-1.26-1.1-2.26-1.1-1.34,0-2.26.55-2.77,1.65v6.22c.51,1.11,1.45,1.66,2.8,1.66s2.26-.67,2.69-2.01c.2-.64.31-1.62.31-2.93M736.43,686.53c0,2.53-.54,4.5-1.62,5.91-1.08,1.41-2.59,2.12-4.52,2.12-1.71,0-3.08-.66-4.1-1.97l-.19,1.68h-3.79v-22.39h4.22v8.03c.97-1.14,2.25-1.71,3.83-1.71,1.93,0,3.43.71,4.53,2.12,1.1,1.42,1.64,3.4,1.64,5.97v.23Z"/>
    <path class="cls-3" d="M743.47,694.27h-4.23v-15.77h4.23v15.77ZM739,674.41c0-.63.21-1.15.63-1.56.42-.41,1-.61,1.73-.61s1.29.2,1.72.61c.43.41.64.93.64,1.56s-.22,1.17-.65,1.57c-.44.41-1,.61-1.72.61s-1.28-.2-1.71-.61c-.43-.41-.65-.93-.65-1.57"/>
  </g>
  <rect class="cls-3" x="747.16" y="671.88" width="4.23" height="22.39"/>
  <g>
    <path class="cls-3" d="M759.3,694.27h-4.23v-15.77h4.23v15.77ZM754.83,674.41c0-.63.21-1.15.63-1.56.42-.41,1-.61,1.73-.61s1.29.2,1.72.61c.43.41.64.93.64,1.56s-.22,1.17-.65,1.57c-.44.41-1,.61-1.72.61s-1.28-.2-1.71-.61c-.43-.41-.65-.93-.65-1.57"/>
    <path class="cls-3" d="M767.82,674.62v3.88h2.7v3.09h-2.7v7.87c0,.58.11,1,.34,1.25.22.25.65.38,1.28.38.46,0,.88-.03,1.24-.1v3.19c-.83.25-1.68.38-2.55.38-2.95,0-4.46-1.49-4.52-4.48v-8.5h-2.31v-3.09h2.31v-3.88h4.21Z"/>
    <path class="cls-3" d="M778.75,688.31l2.92-9.81h4.52l-6.34,18.22-.35.83c-.94,2.06-2.5,3.09-4.67,3.09-.61,0-1.24-.09-1.87-.28v-3.19h.64c.8.01,1.39-.11,1.79-.35.39-.24.7-.65.93-1.21l.49-1.3-5.53-15.82h4.54l2.93,9.81Z"/>
    <path class="cls-3" d="M145.78,687.2c-.17,2.28-1.01,4.08-2.53,5.39-1.52,1.31-3.53,1.97-6.01,1.97-2.72,0-4.86-.91-6.42-2.75s-2.34-4.35-2.34-7.54v-1.3c0-2.04.36-3.84,1.08-5.4.72-1.55,1.75-2.75,3.08-3.58s2.89-1.25,4.66-1.25c2.45,0,4.42.66,5.92,1.97,1.5,1.31,2.36,3.15,2.6,5.53h-4.37c-.11-1.37-.49-2.36-1.14-2.98-.66-.62-1.66-.93-2.99-.93-1.46,0-2.55.52-3.28,1.57-.72,1.05-1.1,2.67-1.11,4.86v1.6c0,2.29.35,3.97,1.04,5.03.69,1.06,1.79,1.59,3.29,1.59,1.35,0,2.36-.31,3.02-.93.67-.62,1.05-1.57,1.14-2.87h4.37Z"/>
    <path class="cls-3" d="M151.93,686.54c0,1.5.28,2.64.84,3.44.56.8,1.37,1.19,2.42,1.19s1.81-.39,2.39-1.18c.57-.78.86-2.04.86-3.76,0-1.47-.29-2.61-.86-3.42-.58-.81-1.38-1.21-2.42-1.21s-1.83.4-2.39,1.21c-.56.8-.84,2.05-.84,3.73M147.72,686.24c0-1.56.3-2.96.9-4.18.6-1.22,1.47-2.17,2.6-2.84,1.13-.67,2.45-1.01,3.94-1.01,2.13,0,3.87.65,5.21,1.95,1.35,1.3,2.1,3.07,2.25,5.31l.03,1.08c0,2.42-.67,4.36-2.02,5.82-1.35,1.46-3.16,2.19-5.44,2.19s-4.09-.73-5.45-2.19c-1.35-1.46-2.03-3.44-2.03-5.95v-.19Z"/>
  </g>
  <rect class="cls-3" x="165.48" y="671.88" width="4.23" height="22.39"/>
  <rect class="cls-3" x="173.39" y="671.88" width="4.23" height="22.39"/>
  <g>
    <path class="cls-3" d="M186.74,691.34c.62,0,1.2-.14,1.72-.42.52-.28.91-.65,1.17-1.11v-2.71h-1.57c-2.11,0-3.23.73-3.37,2.19v.25c-.01.52.17.96.54,1.29.37.34.87.51,1.52.51M190.23,694.27c-.2-.38-.34-.85-.42-1.41-1.02,1.14-2.35,1.7-3.98,1.7-1.55,0-2.83-.45-3.84-1.34-1.01-.89-1.52-2.02-1.52-3.38,0-1.67.62-2.95,1.86-3.85,1.24-.89,3.03-1.35,5.37-1.36h1.94v-.9c0-.73-.19-1.31-.56-1.75-.38-.44-.97-.66-1.77-.66-.71,0-1.27.17-1.67.51-.4.34-.6.8-.6,1.4h-4.21c0-.91.28-1.76.84-2.54.56-.77,1.36-1.39,2.39-1.83,1.03-.44,2.19-.66,3.47-.66,1.94,0,3.49.49,4.63,1.47,1.14.98,1.71,2.35,1.71,4.12v6.84c.01,1.5.22,2.63.63,3.4v.25h-4.26Z"/>
    <path class="cls-3" d="M207.1,686.22c0-1.59-.25-2.76-.76-3.49-.51-.73-1.26-1.1-2.26-1.1-1.34,0-2.26.55-2.77,1.65v6.22c.51,1.11,1.45,1.66,2.8,1.66s2.26-.67,2.69-2.01c.2-.64.31-1.62.31-2.93M211.31,686.53c0,2.53-.54,4.5-1.62,5.91-1.08,1.41-2.59,2.12-4.52,2.12-1.71,0-3.08-.66-4.1-1.97l-.19,1.68h-3.79v-22.39h4.22v8.03c.97-1.14,2.25-1.71,3.83-1.71,1.93,0,3.43.71,4.53,2.12,1.1,1.42,1.64,3.4,1.64,5.97v.23Z"/>
    <path class="cls-3" d="M217.46,686.54c0,1.5.28,2.64.85,3.44.56.8,1.37,1.19,2.42,1.19s1.81-.39,2.39-1.18c.57-.78.86-2.04.86-3.76,0-1.47-.29-2.61-.86-3.42-.58-.81-1.38-1.21-2.42-1.21s-1.83.4-2.39,1.21c-.56.8-.85,2.05-.85,3.73M213.25,686.24c0-1.56.3-2.96.9-4.18.6-1.22,1.47-2.17,2.6-2.84,1.13-.67,2.45-1.01,3.94-1.01,2.13,0,3.87.65,5.21,1.95,1.35,1.3,2.1,3.07,2.25,5.31l.03,1.08c0,2.42-.67,4.36-2.02,5.82-1.35,1.46-3.16,2.19-5.44,2.19s-4.09-.73-5.45-2.19c-1.35-1.46-2.03-3.44-2.03-5.95v-.19Z"/>
    <path class="cls-3" d="M239.65,682.45c-.57-.08-1.08-.12-1.52-.12-1.59,0-2.64.54-3.14,1.62v10.32h-4.21v-15.77h3.98l.12,1.88c.84-1.45,2.01-2.17,3.51-2.17.47,0,.9.06,1.31.19l-.06,4.05Z"/>
    <path class="cls-3" d="M246.89,691.34c.62,0,1.2-.14,1.72-.42.52-.28.91-.65,1.17-1.11v-2.71h-1.57c-2.11,0-3.23.73-3.37,2.19v.25c-.01.52.17.96.54,1.29.37.34.87.51,1.52.51M250.38,694.27c-.2-.38-.34-.85-.42-1.41-1.02,1.14-2.35,1.7-3.98,1.7-1.55,0-2.83-.45-3.84-1.34-1.01-.89-1.52-2.02-1.52-3.38,0-1.67.62-2.95,1.86-3.85,1.24-.89,3.03-1.35,5.37-1.36h1.94v-.9c0-.73-.19-1.31-.56-1.75-.38-.44-.97-.66-1.77-.66-.71,0-1.27.17-1.67.51-.4.34-.6.8-.6,1.4h-4.21c0-.91.28-1.76.84-2.54.56-.77,1.36-1.39,2.39-1.83,1.03-.44,2.19-.66,3.47-.66,1.94,0,3.49.49,4.63,1.47,1.14.98,1.71,2.35,1.71,4.12v6.84c.01,1.5.22,2.63.63,3.4v.25h-4.26Z"/>
    <path class="cls-3" d="M262.29,674.62v3.88h2.7v3.09h-2.7v7.87c0,.58.11,1,.34,1.25.22.25.65.38,1.28.38.46,0,.88-.03,1.24-.1v3.19c-.83.25-1.68.38-2.55.38-2.95,0-4.46-1.49-4.52-4.48v-8.5h-2.31v-3.09h2.31v-3.88h4.21Z"/>
    <path class="cls-3" d="M271.78,694.27h-4.23v-15.77h4.23v15.77ZM267.3,674.41c0-.63.21-1.15.63-1.56.42-.41,1-.61,1.73-.61s1.29.2,1.72.61c.43.41.64.93.64,1.56s-.22,1.17-.65,1.57c-.44.41-1,.61-1.72.61s-1.28-.2-1.71-.61c-.43-.41-.65-.93-.65-1.57"/>
    <path class="cls-3" d="M278.81,686.54c0,1.5.28,2.64.85,3.44.56.8,1.37,1.19,2.42,1.19s1.81-.39,2.39-1.18c.57-.78.86-2.04.86-3.76,0-1.47-.29-2.61-.86-3.42-.58-.81-1.38-1.21-2.42-1.21s-1.83.4-2.39,1.21c-.56.8-.85,2.05-.85,3.73M274.59,686.24c0-1.56.3-2.96.9-4.18.6-1.22,1.47-2.17,2.6-2.84,1.13-.67,2.45-1.01,3.94-1.01,2.13,0,3.87.65,5.21,1.95,1.35,1.3,2.1,3.07,2.25,5.31l.03,1.08c0,2.42-.67,4.36-2.02,5.82-1.35,1.46-3.16,2.19-5.44,2.19s-4.09-.73-5.45-2.19c-1.35-1.46-2.03-3.44-2.03-5.95v-.19Z"/>
    <path class="cls-3" d="M296.01,678.5l.13,1.82c1.12-1.41,2.64-2.11,4.53-2.11,1.67,0,2.91.49,3.73,1.47.82.98,1.23,2.45,1.25,4.4v10.19h-4.22v-10.09c0-.89-.19-1.54-.58-1.94-.39-.41-1.03-.6-1.94-.6-1.19,0-2.08.51-2.67,1.52v11.12h-4.21v-15.77h3.97Z"/>
    <path class="cls-3" d="M762.99,525.98c-.17,2.28-1.01,4.08-2.53,5.39-1.52,1.31-3.53,1.97-6.01,1.97-2.72,0-4.86-.91-6.42-2.75-1.56-1.83-2.34-4.35-2.34-7.54v-1.3c0-2.04.36-3.84,1.08-5.4.72-1.55,1.75-2.75,3.08-3.58,1.34-.83,2.89-1.25,4.66-1.25,2.45,0,4.42.66,5.92,1.97,1.5,1.31,2.36,3.15,2.6,5.53h-4.37c-.11-1.37-.49-2.36-1.14-2.98-.66-.62-1.66-.93-2.99-.93-1.46,0-2.55.52-3.28,1.57-.72,1.05-1.1,2.67-1.11,4.86v1.6c0,2.29.35,3.97,1.04,5.03.69,1.06,1.79,1.59,3.29,1.59,1.35,0,2.36-.31,3.02-.93.67-.62,1.05-1.57,1.14-2.87h4.37Z"/>
    <path class="cls-3" d="M769.14,525.31c0,1.5.28,2.64.85,3.44.56.8,1.37,1.19,2.42,1.19s1.81-.39,2.39-1.18c.57-.78.86-2.04.86-3.76,0-1.47-.29-2.61-.86-3.42-.58-.81-1.38-1.21-2.42-1.21s-1.83.4-2.39,1.21c-.56.8-.85,2.05-.85,3.73M764.93,525.01c0-1.56.3-2.96.9-4.18.6-1.22,1.47-2.17,2.6-2.84,1.13-.67,2.45-1.01,3.94-1.01,2.13,0,3.87.65,5.21,1.95,1.35,1.3,2.1,3.07,2.25,5.31l.03,1.08c0,2.42-.67,4.36-2.02,5.82-1.35,1.46-3.16,2.19-5.44,2.19s-4.09-.73-5.45-2.19c-1.35-1.46-2.03-3.44-2.03-5.95v-.19Z"/>
    <path class="cls-3" d="M786.35,517.27l.13,1.82c1.12-1.41,2.64-2.11,4.53-2.11,1.67,0,2.91.49,3.73,1.47.82.98,1.23,2.45,1.25,4.4v10.19h-4.22v-10.09c0-.89-.19-1.54-.58-1.94-.39-.41-1.03-.6-1.94-.6-1.19,0-2.08.51-2.67,1.52v11.12h-4.21v-15.78h3.97Z"/>
    <path class="cls-3" d="M804.24,513.4v3.88h2.7v3.09h-2.7v7.87c0,.58.11,1,.34,1.25.22.25.65.38,1.28.38.46,0,.88-.03,1.24-.1v3.19c-.83.25-1.68.38-2.55.38-2.95,0-4.46-1.49-4.52-4.47v-8.5h-2.31v-3.09h2.31v-3.88h4.21Z"/>
    <path class="cls-3" d="M816.06,520.38c-.84,0-1.52.28-2.04.85-.52.56-.85,1.38-1,2.43h5.86v-.34c-.02-.94-.27-1.66-.76-2.18s-1.18-.77-2.07-.77M816.54,533.34c-2.31,0-4.2-.71-5.65-2.13-1.45-1.42-2.18-3.31-2.18-5.67v-.41c0-1.59.31-3,.92-4.25.61-1.25,1.48-2.21,2.6-2.89,1.12-.67,2.4-1.01,3.84-1.01,2.15,0,3.85.68,5.09,2.04,1.24,1.36,1.86,3.29,1.86,5.79v1.72h-10.04c.14,1.03.55,1.86,1.23,2.48.68.62,1.55.93,2.6.93,1.62,0,2.89-.59,3.81-1.76l2.07,2.32c-.63.9-1.49,1.59-2.57,2.09-1.08.5-2.27.75-3.59.75"/>
  </g>
  <polygon class="cls-3" points="831.42 521.98 834.08 517.27 838.58 517.27 834.09 525 838.77 533.05 834.25 533.05 831.44 528.09 828.64 533.05 824.11 533.05 828.79 525 824.31 517.27 828.83 517.27 831.42 521.98"/>
  <path class="cls-3" d="M845.65,513.4v3.88h2.7v3.09h-2.7v7.87c0,.58.11,1,.34,1.25.22.25.65.38,1.28.38.46,0,.88-.03,1.24-.1v3.19c-.83.25-1.68.38-2.55.38-2.95,0-4.46-1.49-4.52-4.47v-8.5h-2.31v-3.09h2.31v-3.88h4.21Z"/>
  <path class="cls-3" d="M413.18,735.01h5.31l-2.67-7.95-2.64,7.95ZM419.67,738.55h-7.67l-1.46,4.37h-4.65l7.9-21.23h4.05l7.94,21.23h-4.65l-1.47-4.37Z"/>
  <g>
    <path class="cls-3" d="M434.06,739.82c.78,0,1.41-.21,1.9-.64.49-.43.74-1,.76-1.7h3.95c0,1.07-.3,2.05-.87,2.94-.57.89-1.36,1.58-2.35,2.07-1,.49-2.1.74-3.3.74-2.25,0-4.04-.72-5.34-2.15-1.3-1.43-1.95-3.42-1.95-5.94v-.28c0-2.43.65-4.37,1.94-5.82,1.29-1.45,3.07-2.17,5.32-2.17,1.97,0,3.56.56,4.74,1.69,1.19,1.12,1.8,2.62,1.81,4.48h-3.95c-.02-.82-.27-1.49-.76-2-.49-.51-1.13-.77-1.93-.77-.98,0-1.72.36-2.22,1.07-.5.72-.75,1.88-.75,3.48v.44c0,1.63.25,2.79.74,3.5.5.71,1.25,1.07,2.26,1.07"/>
    <path class="cls-3" d="M448.11,723.27v3.88h2.7v3.09h-2.7v7.87c0,.58.11,1,.34,1.25.22.25.65.38,1.28.38.46,0,.88-.03,1.24-.1v3.19c-.83.25-1.68.38-2.55.38-2.95,0-4.46-1.49-4.52-4.48v-8.5h-2.31v-3.09h2.31v-3.88h4.21Z"/>
    <path class="cls-3" d="M457.6,742.92h-4.23v-15.77h4.23v15.77ZM453.12,723.07c0-.63.21-1.15.63-1.56.42-.41,1-.61,1.73-.61s1.29.2,1.72.61c.43.41.64.93.64,1.56s-.22,1.17-.65,1.57c-.44.41-1,.61-1.72.61s-1.28-.2-1.71-.61c-.43-.41-.65-.93-.65-1.57"/>
  </g>
  <polygon class="cls-3" points="466.97 737.78 469.9 727.15 474.31 727.15 468.98 742.92 464.96 742.92 459.64 727.15 464.04 727.15 466.97 737.78"/>
  <g>
    <path class="cls-3" d="M480.6,742.92h-4.23v-15.77h4.23v15.77ZM476.13,723.07c0-.63.21-1.15.63-1.56.42-.41,1-.61,1.73-.61s1.29.2,1.72.61c.43.41.64.93.64,1.56s-.22,1.17-.65,1.57c-.44.41-1,.61-1.72.61s-1.28-.2-1.71-.61c-.43-.41-.65-.93-.65-1.57"/>
    <path class="cls-3" d="M489.12,723.27v3.88h2.7v3.09h-2.7v7.87c0,.58.11,1,.34,1.25.22.25.65.38,1.28.38.46,0,.88-.03,1.24-.1v3.19c-.83.25-1.68.38-2.55.38-2.95,0-4.46-1.49-4.52-4.48v-8.5h-2.31v-3.09h2.31v-3.88h4.21Z"/>
    <path class="cls-3" d="M500.05,736.96l2.91-9.81h4.52l-6.34,18.22-.35.83c-.94,2.06-2.5,3.09-4.67,3.09-.61,0-1.24-.09-1.87-.28v-3.19h.64c.8.01,1.39-.11,1.79-.35.39-.24.7-.65.93-1.21l.49-1.3-5.53-15.82h4.54l2.93,9.81Z"/>
    <path class="cls-3" d="M92.86,528.95c0-.83-.29-1.46-.87-1.9-.58-.44-1.63-.91-3.15-1.4-1.52-.49-2.71-.97-3.6-1.45-2.41-1.3-3.61-3.05-3.61-5.26,0-1.15.32-2.17.97-3.07.65-.9,1.57-1.6,2.78-2.11,1.21-.51,2.57-.76,4.08-.76s2.87.27,4.05.82c1.18.55,2.11,1.32,2.76,2.33.66,1,.98,2.14.98,3.41h-4.37c0-.97-.31-1.73-.92-2.27-.61-.54-1.47-.81-2.58-.81s-1.9.22-2.49.68c-.59.45-.89,1.04-.89,1.79,0,.69.35,1.27,1.04,1.73s1.72.9,3.07,1.31c2.49.75,4.3,1.67,5.44,2.78,1.14,1.11,1.71,2.49,1.71,4.14,0,1.84-.7,3.28-2.09,4.32-1.39,1.04-3.26,1.57-5.61,1.57-1.63,0-3.12-.3-4.46-.9-1.34-.6-2.36-1.42-3.07-2.46-.7-1.04-1.05-2.25-1.05-3.61h4.39c0,2.34,1.4,3.51,4.2,3.51,1.04,0,1.85-.21,2.43-.63.58-.42.87-1.01.87-1.77"/>
    <path class="cls-3" d="M104.97,514.87v3.88h2.7v3.09h-2.7v7.87c0,.58.11,1,.34,1.25.22.25.65.38,1.28.38.46,0,.88-.03,1.24-.1v3.19c-.83.25-1.68.38-2.55.38-2.95,0-4.46-1.49-4.52-4.47v-8.5h-2.31v-3.09h2.31v-3.88h4.21Z"/>
    <path class="cls-3" d="M119.46,532.92c-1.04,1.27-2.48,1.9-4.32,1.9-1.69,0-2.98-.49-3.87-1.46-.89-.97-1.35-2.4-1.36-4.27v-10.34h4.21v10.2c0,1.65.75,2.47,2.25,2.47s2.41-.5,2.94-1.49v-11.18h4.23v15.78h-3.97l-.12-1.6Z"/>
    <path class="cls-3" d="M130.28,526.83c0,1.48.26,2.62.77,3.4.51.79,1.26,1.18,2.24,1.18,1.3,0,2.22-.55,2.76-1.65v-6.24c-.52-1.1-1.43-1.65-2.73-1.65-2.03,0-3.05,1.65-3.05,4.95M126.07,526.52c0-2.46.55-4.42,1.66-5.88,1.1-1.46,2.61-2.19,4.53-2.19,1.53,0,2.8.58,3.8,1.72v-8.05h4.23v22.39h-3.81l-.2-1.68c-1.05,1.31-2.4,1.97-4.05,1.97-1.86,0-3.35-.73-4.47-2.19-1.12-1.46-1.69-3.5-1.69-6.1"/>
    <path class="cls-3" d="M150.33,521.85c-.84,0-1.52.28-2.04.85-.52.56-.85,1.38-1,2.43h5.86v-.34c-.02-.94-.27-1.66-.76-2.18s-1.18-.77-2.07-.77M150.81,534.81c-2.31,0-4.2-.71-5.65-2.13-1.45-1.42-2.18-3.31-2.18-5.67v-.41c0-1.59.31-3,.92-4.25.61-1.25,1.48-2.21,2.6-2.89,1.12-.67,2.4-1.01,3.84-1.01,2.15,0,3.85.68,5.09,2.04,1.24,1.36,1.86,3.29,1.86,5.79v1.72h-10.04c.14,1.03.55,1.86,1.23,2.48.68.62,1.55.93,2.6.93,1.62,0,2.89-.59,3.81-1.76l2.07,2.32c-.63.9-1.49,1.59-2.57,2.09-1.08.5-2.27.75-3.59.75"/>
    <path class="cls-3" d="M163.56,518.75l.13,1.82c1.12-1.41,2.64-2.11,4.53-2.11,1.67,0,2.91.49,3.73,1.47.82.98,1.23,2.45,1.25,4.4v10.19h-4.21v-10.09c0-.89-.19-1.54-.58-1.94-.39-.41-1.03-.6-1.94-.6-1.18,0-2.07.51-2.67,1.52v11.12h-4.21v-15.77h3.97Z"/>
    <path class="cls-3" d="M181.45,514.87v3.88h2.7v3.09h-2.7v7.87c0,.58.11,1,.34,1.25.22.25.65.38,1.28.38.46,0,.88-.03,1.24-.1v3.19c-.83.25-1.68.38-2.55.38-2.95,0-4.46-1.49-4.52-4.47v-8.5h-2.31v-3.09h2.31v-3.88h4.21Z"/>
    <path class="cls-3" d="M87.23,561.45c.62,0,1.2-.14,1.72-.42.52-.28.91-.65,1.17-1.11v-2.71h-1.57c-2.11,0-3.23.73-3.37,2.19v.25c-.01.53.17.96.54,1.3.37.34.87.51,1.52.51M90.72,564.38c-.2-.38-.34-.85-.42-1.41-1.02,1.14-2.35,1.7-3.98,1.7-1.55,0-2.83-.45-3.84-1.34-1.01-.89-1.52-2.02-1.52-3.38,0-1.67.62-2.95,1.86-3.85,1.24-.89,3.03-1.35,5.37-1.36h1.94v-.9c0-.73-.19-1.31-.56-1.75-.38-.44-.97-.66-1.77-.66-.71,0-1.27.17-1.67.51-.4.34-.6.8-.6,1.4h-4.21c0-.91.28-1.76.84-2.54.56-.78,1.36-1.39,2.39-1.83,1.03-.44,2.19-.66,3.47-.66,1.94,0,3.49.49,4.63,1.47,1.14.97,1.71,2.35,1.71,4.12v6.84c.01,1.5.22,2.63.63,3.4v.25h-4.26Z"/>
    <path class="cls-3" d="M101.18,556.69c0,1.43.29,2.55.86,3.36.58.82,1.36,1.22,2.36,1.22,1.28,0,2.2-.48,2.76-1.45v-6.64c-.56-.96-1.47-1.45-2.73-1.45-1.01,0-1.81.41-2.39,1.24-.58.83-.87,2.06-.87,3.71M96.97,556.37c0-2.42.58-4.37,1.73-5.85,1.15-1.48,2.71-2.22,4.66-2.22,1.73,0,3.08.59,4.04,1.78l.17-1.49h3.82v15.25c0,1.38-.31,2.58-.94,3.6-.63,1.02-1.51,1.8-2.64,2.33-1.14.53-2.47.8-3.99.8-1.16,0-2.29-.23-3.38-.69-1.1-.46-1.93-1.06-2.49-1.79l1.87-2.57c1.05,1.18,2.32,1.76,3.82,1.76,1.12,0,1.99-.3,2.61-.9.62-.6.93-1.45.93-2.54v-.85c-.97,1.1-2.25,1.65-3.84,1.65-1.9,0-3.43-.74-4.6-2.22-1.17-1.48-1.76-3.45-1.76-5.9v-.17Z"/>
    <path class="cls-3" d="M121.4,551.71c-.84,0-1.52.28-2.04.85-.52.56-.85,1.38-1,2.43h5.86v-.34c-.02-.94-.27-1.66-.76-2.18s-1.18-.77-2.07-.77M121.88,564.67c-2.31,0-4.2-.71-5.65-2.13-1.45-1.42-2.18-3.31-2.18-5.67v-.41c0-1.59.31-3,.92-4.25.61-1.25,1.48-2.21,2.6-2.89,1.12-.67,2.4-1.01,3.84-1.01,2.15,0,3.85.68,5.09,2.04,1.24,1.36,1.86,3.29,1.86,5.79v1.72h-10.04c.14,1.03.55,1.86,1.23,2.48.68.62,1.55.93,2.6.93,1.62,0,2.89-.59,3.81-1.76l2.07,2.32c-.63.9-1.49,1.59-2.57,2.09-1.08.5-2.27.75-3.59.75"/>
    <path class="cls-3" d="M134.64,548.6l.13,1.82c1.12-1.41,2.64-2.11,4.53-2.11,1.67,0,2.91.49,3.73,1.47.82.98,1.23,2.45,1.25,4.4v10.19h-4.22v-10.09c0-.89-.19-1.54-.58-1.94-.39-.41-1.03-.6-1.94-.6-1.18,0-2.07.51-2.67,1.52v11.12h-4.21v-15.78h3.97Z"/>
    <path class="cls-3" d="M154.04,561.27c.78,0,1.41-.21,1.9-.64s.74-1,.76-1.7h3.95c0,1.07-.3,2.05-.87,2.94-.57.89-1.36,1.58-2.35,2.07s-2.1.74-3.3.74c-2.26,0-4.04-.72-5.34-2.15-1.3-1.43-1.95-3.42-1.95-5.94v-.28c0-2.43.65-4.37,1.94-5.82,1.29-1.45,3.07-2.17,5.32-2.17,1.97,0,3.56.56,4.74,1.69,1.19,1.12,1.8,2.62,1.81,4.48h-3.95c-.02-.82-.27-1.49-.76-2s-1.13-.77-1.93-.77c-.98,0-1.72.36-2.22,1.07-.5.72-.75,1.88-.75,3.48v.44c0,1.63.25,2.79.74,3.5.5.71,1.25,1.07,2.26,1.07"/>
    <path class="cls-3" d="M168.94,558.41l2.91-9.81h4.52l-6.34,18.22-.35.83c-.94,2.06-2.5,3.09-4.67,3.09-.61,0-1.24-.09-1.87-.28v-3.19h.64c.8.01,1.39-.11,1.79-.35.39-.24.7-.65.93-1.21l.49-1.3-5.53-15.82h4.54l2.93,9.81Z"/>
  </g>
  <path class="cls-3" d="M438.77,193.07h4.7v-7.49l-.28.48-4.42,7.01ZM447.67,193.07h2.4v3.4h-2.4v4.59h-4.21v-4.59h-8.7l-.19-2.65,8.85-13.98h4.26v13.24Z"/>
  <g>
    <path class="cls-3" d="M439.5,243.86h2.25c1.07,0,1.86-.27,2.38-.8.52-.53.77-1.25.77-2.13s-.25-1.52-.76-2-1.21-.72-2.11-.72c-.81,0-1.48.22-2.03.66-.54.44-.82,1.02-.82,1.73h-4.21c0-1.11.3-2.1.9-2.98.6-.88,1.43-1.57,2.51-2.06,1.07-.49,2.26-.75,3.55-.75,2.25,0,4.01.54,5.28,1.61,1.27,1.07,1.91,2.56,1.91,4.44,0,.97-.3,1.87-.89,2.68-.59.82-1.37,1.44-2.33,1.88,1.2.43,2.09,1.07,2.67,1.93.59.85.89,1.86.89,3.03,0,1.88-.69,3.4-2.07,4.53s-3.19,1.7-5.46,1.7c-2.12,0-3.85-.56-5.2-1.67-1.35-1.12-2.02-2.6-2.02-4.43h4.21c0,.8.3,1.45.9,1.95.6.51,1.34.76,2.21.76,1,0,1.79-.26,2.35-.79s.85-1.23.85-2.11c0-2.12-1.17-3.18-3.5-3.18h-2.23v-3.29Z"/>
    <path class="cls-3" d="M449.76,307.31h-14.55v-2.89l6.87-7.32c.94-1.03,1.64-1.93,2.09-2.7.45-.77.68-1.5.68-2.19,0-.94-.24-1.68-.72-2.22-.48-.54-1.15-.81-2.04-.81-.95,0-1.7.33-2.25.98-.55.66-.82,1.52-.82,2.59h-4.23c0-1.29.31-2.47.93-3.54.62-1.07,1.49-1.91,2.62-2.52,1.13-.6,2.4-.91,3.84-.91,2.19,0,3.88.53,5.09,1.57,1.21,1.05,1.81,2.53,1.81,4.45,0,1.05-.27,2.12-.82,3.21-.55,1.09-1.48,2.36-2.8,3.81l-4.82,5.09h9.13v3.4Z"/>
  </g>
  <polygon class="cls-3" points="445.44 358.7 441.23 358.7 441.23 342.46 436.2 344.02 436.2 340.59 444.99 337.44 445.44 337.44 445.44 358.7"/>
</svg>