<?xml version="1.0" encoding="UTF-8"?>
<svg id="Layer_1" data-name="Layer 1" xmlns="http://www.w3.org/2000/svg" viewBox="0 0 472.61 305.96">
  <defs>
    <style>
      .cls-1, .cls-2, .cls-3, .cls-4, .cls-5, .cls-6, .cls-7, .cls-8, .cls-9, .cls-10, .cls-11 {
        fill: none;
      }

      .cls-2 {
        stroke-width: 4px;
      }

      .cls-2, .cls-3, .cls-4, .cls-5, .cls-6 {
        stroke-linecap: round;
      }

      .cls-2, .cls-3, .cls-4, .cls-5, .cls-6, .cls-7, .cls-8, .cls-9, .cls-10, .cls-11, .cls-12 {
        stroke: #000;
      }

      .cls-2, .cls-5, .cls-6, .cls-7, .cls-12 {
        stroke-linejoin: round;
      }

      .cls-13 {
        fill: #c0e3fa;
      }

      .cls-3 {
        stroke-dasharray: 4 4;
      }

      .cls-3, .cls-4, .cls-8, .cls-9, .cls-10, .cls-11 {
        stroke-miterlimit: 10;
      }

      .cls-5, .cls-7, .cls-11, .cls-12 {
        stroke-width: 2px;
      }

      .cls-14 {
        fill: #f0f0fa;
      }

      .cls-15, .cls-12 {
        fill: #fff;
      }

      .cls-8 {
        stroke-width: .5px;
      }

      .cls-10 {
        stroke-width: 2.06px;
      }
    </style>
  </defs>
  <rect class="cls-14" width="472.61" height="305.96" rx="6.04" ry="6.04"/>
  <g id="Layer_2" data-name="Layer 2">
    <path class="cls-13" d="M386.9,85.7h64.8c1,0,1.9-.8,1.9-1.9v-50.1c0-1-.8-1.9-1.9-1.9h-64.8c-1,0-1.9.8-1.9,1.9v50.1c0,1,.8,1.9,1.9,1.9Z"/>
    <path class="cls-15" d="M367.9,49.3h18v-20.3h-14.8c-1.8,0-3.2,1.5-3.2,3.2v17.1Z"/>
    <path class="cls-13" d="M229.8,149.6h108.2c1.2,0,2.2-1,2.2-2.2v-49.3c0-1.2-1-2.2-2.2-2.2h-108.2c-1.2,0-2.2,1-2.2,2.2v49.3c0,1.3.9,2.2,2.2,2.2Z"/>
    <g>
      <rect class="cls-1" x="41.4" y="273.1" width="382.2" height="16.6"/>
      <path d="M53.2,274.2h-2.1v5.7h-.8v-5.7h-2.1v-.7h4.9v.7h.1Z"/>
      <path d="M54.7,275.7c.4-.4.8-.7,1.4-.7,1,0,1.5.6,1.5,1.7v3.1h-.8v-3.1c0-.3-.1-.6-.2-.8-.2-.2-.4-.2-.7-.2s-.5.1-.7.2-.4.3-.5.6v3.4h-.8v-6.8h.8v2.6Z"/>
      <path d="M60.7,280c-.6,0-1.2-.2-1.6-.6-.4-.4-.6-1-.6-1.7v-.1c0-.5.1-.9.3-1.3s.4-.7.8-.9c.3-.2.7-.3,1.1-.3.6,0,1.1.2,1.4.6s.5,1,.5,1.7v.3h-3.2c0,.5.1.8.4,1.1.3.3.6.4,1,.4.3,0,.5-.1.7-.2s.4-.3.5-.5l.5.4c-.4.8-1,1.1-1.8,1.1ZM60.6,275.7c-.3,0-.6.1-.8.4-.2.2-.4.6-.4,1h2.4v-.1c0-.4-.1-.7-.3-1-.3-.2-.6-.3-.9-.3Z"/>
      <path d="M66.5,274v1.2h.9v.6h-.9v3c0,.2,0,.3.1.4s.2.1.4.1c.1,0,.2,0,.4-.1v.7c-.2.1-.4.1-.6.1-.4,0-.6-.1-.8-.3s-.3-.5-.3-.9v-2.9h-.9v-.6h.9v-1.2h.8v-.1Z"/>
      <path d="M69.1,275.7c.4-.4.8-.7,1.4-.7,1,0,1.5.6,1.5,1.7v3.1h-.8v-3.1c0-.3-.1-.6-.2-.8-.2-.2-.4-.2-.7-.2s-.5.1-.7.2-.4.3-.5.6v3.4h-.8v-6.8h.8s0,2.6,0,2.6Z"/>
      <path d="M75.4,275.9h-.4c-.5,0-.9.2-1.1.7v3.4h-.8v-4.8h.8v.5c.3-.4.6-.6,1.1-.6.2,0,.3,0,.4.1v.7Z"/>
      <path d="M77.9,280c-.6,0-1.2-.2-1.6-.6s-.6-1-.6-1.7v-.1c0-.5.1-.9.3-1.3.2-.4.4-.7.8-.9.3-.2.7-.3,1.1-.3.6,0,1.1.2,1.4.6s.5,1,.5,1.7v.3h-3.2c0,.5.1.8.4,1.1.3.3.6.4,1,.4.3,0,.5-.1.7-.2s.4-.3.5-.5l.5.4c-.4.8-1,1.1-1.8,1.1ZM77.8,275.7c-.3,0-.6.1-.8.4-.2.2-.4.6-.4,1h2.4v-.1c0-.4-.1-.7-.3-1-.2-.2-.5-.3-.9-.3Z"/>
      <path d="M82.6,280c-.6,0-1.2-.2-1.6-.6s-.6-1-.6-1.7v-.1c0-.5.1-.9.3-1.3.2-.4.4-.7.8-.9.3-.2.7-.3,1.1-.3.6,0,1.1.2,1.4.6s.5,1,.5,1.7v.3h-3.2c0,.5.1.8.4,1.1.3.3.6.4,1,.4.3,0,.5-.1.7-.2s.4-.3.5-.5l.5.4c-.4.8-1,1.1-1.8,1.1ZM82.5,275.7c-.3,0-.6.1-.8.4-.2.2-.4.6-.4,1h2.4v-.1c0-.4-.1-.7-.3-1-.3-.2-.6-.3-.9-.3Z"/>
      <path d="M88.4,274v1.2h.9v.6h-.9v3c0,.2,0,.3.1.4s.2.1.4.1c.1,0,.2,0,.4-.1v.7c-.2.1-.4.1-.6.1-.4,0-.6-.1-.8-.3s-.3-.5-.3-.9v-2.9h-.9v-.6h.9v-1.2h.8v-.1Z"/>
      <path d="M90.9,275.7c.4-.4.8-.7,1.4-.7,1,0,1.5.6,1.5,1.7v3.1h-.8v-3.1c0-.3-.1-.6-.2-.8-.2-.2-.4-.2-.7-.2s-.5.1-.7.2-.4.3-.5.6v3.4h-.8v-6.8h.8s0,2.6,0,2.6Z"/>
      <path d="M96.9,280c-.6,0-1.2-.2-1.6-.6s-.6-1-.6-1.7v-.1c0-.5.1-.9.3-1.3.2-.4.4-.7.8-.9.3-.2.7-.3,1.1-.3.6,0,1.1.2,1.4.6s.5,1,.5,1.7v.3h-3.2c0,.5.1.8.4,1.1.3.3.6.4,1,.4.3,0,.5-.1.7-.2s.4-.3.5-.5l.5.4c-.4.8-1,1.1-1.8,1.1ZM96.8,275.7c-.3,0-.6.1-.8.4-.2.2-.4.6-.4,1h2.4v-.1c0-.4-.1-.7-.3-1-.3-.2-.5-.3-.9-.3Z"/>
      <path d="M99.4,277.5c0-.5.1-.9.3-1.3.2-.4.4-.7.8-.9.3-.2.7-.3,1.1-.3.6,0,1.2.2,1.6.7.4.4.6,1,.6,1.8v.1c0,.5-.1.9-.3,1.2-.2.4-.4.7-.8.9-.3.2-.7.3-1.1.3-.6,0-1.2-.2-1.6-.7-.4-.4-.6-1-.6-1.8h0ZM100.2,277.6c0,.5.1,1,.4,1.3.2.3.6.5,1,.5s.7-.2,1-.5c.2-.3.4-.8.4-1.4,0-.5-.1-.9-.4-1.3-.2-.3-.6-.5-1-.5s-.7.2-1,.5-.4.8-.4,1.4Z"/>
      <path d="M106.9,275.9h-.4c-.5,0-.9.2-1.1.7v3.4h-.8v-4.8h.8v.5c.3-.4.6-.6,1.1-.6.2,0,.3,0,.4.1v.7Z"/>
      <path d="M107.5,273.9c0-.1,0-.2.1-.3.1-.1.2-.1.4-.1s.3,0,.4.1.1.2.1.3,0,.2-.1.3-.2.1-.4.1-.3,0-.4-.1c-.1-.1-.1-.2-.1-.3ZM108.4,279.9h-.8v-4.8h.8v4.8Z"/>
      <path d="M111.5,280c-.6,0-1.2-.2-1.6-.6s-.6-1-.6-1.7v-.1c0-.5.1-.9.3-1.3.2-.4.4-.7.8-.9.3-.2.7-.3,1.1-.3.6,0,1.1.2,1.4.6s.5,1,.5,1.7v.3h-3.2c0,.5.1.8.4,1.1.3.3.6.4,1,.4.3,0,.5-.1.7-.2s.4-.3.5-.5l.5.4c-.4.8-1,1.1-1.8,1.1ZM111.4,275.7c-.3,0-.6.1-.8.4-.2.2-.4.6-.4,1h2.4v-.1c0-.4-.1-.7-.3-1-.3-.2-.5-.3-.9-.3Z"/>
      <path d="M116.9,278.6c0-.2-.1-.4-.2-.5-.2-.1-.5-.2-.9-.3-.4-.1-.7-.2-1-.3-.2-.1-.4-.3-.5-.4-.1-.2-.2-.4-.2-.6,0-.4.2-.7.5-1s.8-.4,1.3-.4,1,.1,1.3.4.5.6.5,1.1h-.8c0-.2-.1-.4-.3-.6-.2-.2-.4-.2-.7-.2s-.5.1-.7.2-.2.3-.2.5.1.3.2.4.4.2.8.3c.4.1.7.2,1,.3s.4.3.6.5c.1.2.2.4.2.6,0,.4-.2.8-.5,1-.3.3-.8.4-1.3.4-.4,0-.7-.1-1-.2s-.5-.3-.7-.6c-.2-.2-.2-.5-.2-.8h.8c0,.3.1.5.3.6.2.2.5.2.8.2s.6-.1.7-.2c.2,0,.2-.2.2-.4Z"/>
      <path d="M120.6,277.5c0-.5.1-.9.3-1.3.2-.4.4-.7.8-.9.3-.2.7-.3,1.1-.3.6,0,1.2.2,1.6.7.4.4.6,1,.6,1.8v.1c0,.5-.1.9-.3,1.2-.2.4-.4.7-.8.9-.3.2-.7.3-1.1.3-.6,0-1.2-.2-1.6-.7-.4-.4-.6-1-.6-1.8h0ZM121.4,277.6c0,.5.1,1,.4,1.3.2.3.6.5,1,.5s.7-.2,1-.5c.2-.3.4-.8.4-1.4,0-.5-.1-.9-.4-1.3-.2-.3-.6-.5-1-.5s-.7.2-1,.5-.4.8-.4,1.4Z"/>
      <path d="M126.2,279.9v-4.1h-.8v-.6h.8v-.5c0-.5.1-.9.4-1.2s.7-.4,1.2-.4c.2,0,.4,0,.6.1v.7h-.4c-.3,0-.5.1-.6.2s-.2.4-.2.7v.5h1v.6h-1v4.1h-1v-.1Z"/>
      <path d="M131.3,279.9v-4.1h-.8v-.6h.8v-.5c0-.5.1-.9.4-1.2s.7-.4,1.2-.4c.2,0,.4,0,.6.1v.7h-.4c-.3,0-.5.1-.6.2s-.2.4-.2.7v.5h1v.6h-1v4.1h-1v-.1Z"/>
      <path d="M135.8,280c-.6,0-1.2-.2-1.6-.6-.4-.4-.6-1-.6-1.7v-.1c0-.5.1-.9.3-1.3s.4-.7.8-.9c.3-.2.7-.3,1.1-.3.6,0,1.1.2,1.4.6s.5,1,.5,1.7v.3h-3.2c0,.5.1.8.4,1.1.3.3.6.4,1,.4.3,0,.5-.1.7-.2s.4-.3.5-.5l.5.4c-.4.8-1,1.1-1.8,1.1ZM135.7,275.7c-.3,0-.6.1-.8.4-.2.2-.4.6-.4,1h2.4v-.1c0-.4-.1-.7-.3-1-.3-.2-.5-.3-.9-.3Z"/>
      <path d="M140.5,280c-.6,0-1.2-.2-1.6-.6-.4-.4-.6-1-.6-1.7v-.1c0-.5.1-.9.3-1.3s.4-.7.8-.9c.3-.2.7-.3,1.1-.3.6,0,1.1.2,1.4.6s.5,1,.5,1.7v.3h-3.2c0,.5.1.8.4,1.1.3.3.6.4,1,.4.3,0,.5-.1.7-.2s.4-.3.5-.5l.5.4c-.4.8-1,1.1-1.8,1.1ZM140.4,275.7c-.3,0-.6.1-.8.4-.2.2-.4.6-.4,1h2.4v-.1c0-.4-.1-.7-.3-1-.3-.2-.6-.3-.9-.3Z"/>
      <path d="M142.9,277.5c0-.7.2-1.3.5-1.8.3-.4.8-.7,1.4-.7s1,.2,1.3.6v-2.5h.8v6.8h-.7v-.5c-.3.4-.8.6-1.4.6s-1-.2-1.3-.7c-.4-.4-.6-1-.6-1.8h0ZM143.7,277.6c0,.5.1,1,.3,1.3s.5.5.9.5c.5,0,.9-.2,1.1-.7v-2.2c-.2-.4-.6-.7-1.1-.7-.4,0-.7.2-.9.5s-.3.7-.3,1.3Z"/>
      <path d="M152.1,277.6c0,.7-.2,1.3-.5,1.8-.3.4-.8.7-1.3.7-.6,0-1.1-.2-1.4-.6v.5h-.7v-6.8h.8v2.5c.3-.4.8-.6,1.4-.6s1,.2,1.4.7c.1.3.3.9.3,1.8h0ZM151.3,277.5c0-.6-.1-1-.3-1.3s-.5-.5-.9-.5c-.5,0-.9.2-1.2.7v2.1c.2.5.6.7,1.2.7.4,0,.7-.2.9-.5s.3-.6.3-1.2Z"/>
      <path d="M155.9,279.9c0-.1-.1-.3-.1-.5-.4.4-.8.6-1.4.6-.5,0-.9-.1-1.2-.4s-.5-.6-.5-1c0-.5.2-.9.6-1.2.4-.3.9-.4,1.6-.4h.8v-.4c0-.3-.1-.5-.3-.7s-.4-.3-.8-.3c-.3,0-.5.1-.7.2s-.3.3-.3.5h-.8c0-.2.1-.5.3-.7s.4-.4.7-.5.6-.2,1-.2c.5,0,1,.1,1.3.4s.5.7.5,1.1v2.2c0,.4.1.8.2,1v.1h-.9v.2ZM154.6,279.3c.3,0,.5-.1.7-.2s.4-.3.5-.5v-1h-.6c-1,0-1.5.3-1.5.9,0,.3.1.5.3.6s.3.2.6.2Z"/>
      <path d="M159.6,279.3c.3,0,.5-.1.8-.3s.3-.4.4-.7h.8c0,.3-.1.5-.3.8s-.4.4-.7.6c-.3.1-.6.2-.9.2-.6,0-1.2-.2-1.5-.6-.4-.4-.6-1-.6-1.8v-.1c0-.5.1-.9.3-1.2s.4-.6.7-.8c.3-.2.7-.3,1.1-.3.5,0,1,.2,1.3.5.4.3.5.7.6,1.2h-.8c0-.3-.1-.6-.3-.8-.2-.2-.5-.3-.8-.3-.4,0-.7.1-1,.4-.2.3-.3.7-.3,1.3v.2c0,.5.1,1,.3,1.3s.5.4.9.4Z"/>
      <path d="M163.6,277.7l-.5.5v1.7h-.8v-6.8h.8v4.1l.4-.5,1.5-1.6h1l-1.9,2,2.1,2.8h-1l-1.6-2.2Z"/>
      <path d="M169.9,274v1.2h.9v.6h-.9v3c0,.2,0,.3.1.4s.2.1.4.1c.1,0,.2,0,.4-.1v.7c-.2.1-.4.1-.6.1-.4,0-.6-.1-.8-.3s-.3-.5-.3-.9v-2.9h-.9v-.6h.9v-1.2h.8v-.1Z"/>
      <path d="M173.2,278.7l1.1-3.6h.9l-1.9,5.5c-.3.8-.8,1.2-1.4,1.2h-.2l-.3-.1v-.7h.2c.3,0,.5-.1.6-.2.2-.1.3-.3.4-.6l.2-.5-1.7-4.7h.9l1.2,3.7Z"/>
      <path d="M179.8,277.6c0,.7-.2,1.3-.5,1.7s-.8.7-1.3.7c-.6,0-1-.2-1.4-.5v2.3h-.8v-6.6h.7v.5c.3-.4.8-.6,1.4-.6s1,.2,1.4.6c.3.4.5,1,.5,1.9h0ZM179,277.5c0-.5-.1-1-.3-1.3s-.5-.5-.9-.5c-.5,0-.9.2-1.1.7v2.3c.2.4.6.7,1.1.7.4,0,.7-.2.9-.5.1-.4.3-.8.3-1.4Z"/>
      <path d="M182.6,280c-.6,0-1.2-.2-1.6-.6-.4-.4-.6-1-.6-1.7v-.1c0-.5.1-.9.3-1.3s.4-.7.8-.9c.3-.2.7-.3,1.1-.3.6,0,1.1.2,1.4.6s.5,1,.5,1.7v.3h-3.2c0,.5.1.8.4,1.1.3.3.6.4,1,.4.3,0,.5-.1.7-.2s.4-.3.5-.5l.5.4c-.4.8-1,1.1-1.8,1.1ZM182.5,275.7c-.3,0-.6.1-.8.4-.2.2-.4.6-.4,1h2.4v-.1c0-.4-.1-.7-.3-1-.2-.2-.5-.3-.9-.3Z"/>
      <path d="M188.1,278.6c0-.2-.1-.4-.2-.5-.2-.1-.5-.2-.9-.3-.4-.1-.7-.2-1-.3-.2-.1-.4-.3-.5-.4-.1-.2-.2-.4-.2-.6,0-.4.2-.7.5-1s.8-.4,1.3-.4,1,.1,1.3.4.5.6.5,1.1h-.9c0-.2-.1-.4-.3-.6s-.4-.2-.7-.2-.5.1-.7.2-.2.3-.2.5.1.3.2.4.4.2.8.3c.4.1.7.2,1,.3s.4.3.6.5c.1.2.2.4.2.6,0,.4-.2.8-.5,1-.3.3-.8.4-1.3.4-.4,0-.7-.1-1-.2s-.5-.3-.7-.6c-.2-.2-.2-.5-.2-.8h.8c0,.3.1.5.3.6.2.2.5.2.8.2s.6-.1.7-.2c.2,0,.3-.2.3-.4Z"/>
      <path d="M191.4,277h-.7v-2.6l-.9.2v-.6l1.6-.5h.1v3.5h-.1Z"/>
      <path d="M192.9,281.2l-.5-.3c.3-.4.4-.8.4-1.2v-.8h.8v.6c0,.3-.1.6-.2.9-.1.4-.2.6-.5.8Z"/>
      <path d="M199.5,278.6c0-.2-.1-.4-.2-.5-.2-.1-.5-.2-.9-.3-.4-.1-.7-.2-1-.3-.2-.1-.4-.3-.5-.4-.1-.2-.2-.4-.2-.6,0-.4.2-.7.5-1s.8-.4,1.3-.4,1,.1,1.3.4.5.6.5,1.1h-.8c0-.2-.1-.4-.3-.6s-.4-.2-.7-.2-.5.1-.7.2-.2.3-.2.5.1.3.2.4.4.2.8.3c.4.1.7.2,1,.3s.4.3.6.5c.1.2.2.4.2.6,0,.4-.2.8-.5,1-.3.3-.8.4-1.3.4-.4,0-.7-.1-1-.2s-.5-.3-.7-.6c-.2-.2-.2-.5-.2-.8h.8c0,.3.1.5.3.6.2.2.5.2.8.2s.6-.1.7-.2c.1,0,.2-.2.2-.4Z"/>
      <path d="M202.3,274v1.2h.9v.6h-.9v3c0,.2,0,.3.1.4s.2.1.4.1c.1,0,.2,0,.4-.1v.7c-.2.1-.4.1-.6.1-.4,0-.6-.1-.8-.3s-.3-.5-.3-.9v-2.9h-.9v-.6h.9v-1.2h.8v-.1Z"/>
      <path d="M206.9,279.4c-.3.4-.8.6-1.4.6-.5,0-.9-.1-1.2-.4s-.4-.7-.4-1.3v-3.1h.8v3.1c0,.7.3,1.1.9,1.1s1-.2,1.2-.7v-3.5h.8v4.8h-.6l-.1-.6Z"/>
      <path d="M208.6,277.5c0-.7.2-1.3.5-1.8.3-.4.8-.7,1.4-.7s1,.2,1.3.6v-2.5h.8v6.8h-.7v-.5c-.3.4-.8.6-1.4.6s-1-.2-1.3-.7c-.4-.4-.6-1-.6-1.8h0ZM209.5,277.6c0,.5.1,1,.3,1.3s.5.5.9.5c.5,0,.9-.2,1.1-.7v-2.2c-.2-.4-.6-.7-1.1-.7-.4,0-.7.2-.9.5s-.3.7-.3,1.3Z"/>
      <path d="M215.7,280c-.6,0-1.2-.2-1.6-.6-.4-.4-.6-1-.6-1.7v-.1c0-.5.1-.9.3-1.3s.4-.7.8-.9c.3-.2.7-.3,1.1-.3.6,0,1.1.2,1.4.6s.5,1,.5,1.7v.3h-3.2c0,.5.1.8.4,1.1.3.3.6.4,1,.4.3,0,.5-.1.7-.2s.4-.3.5-.5l.5.4c-.4.8-1,1.1-1.8,1.1ZM215.6,275.7c-.3,0-.6.1-.8.4-.2.2-.4.6-.4,1h2.4v-.1c0-.4-.1-.7-.3-1-.2-.2-.5-.3-.9-.3Z"/>
      <path d="M219.2,275.1v.6c.4-.5.8-.7,1.4-.7,1,0,1.5.6,1.5,1.7v3.1h-.8v-3.1c0-.3-.1-.6-.2-.8-.2-.2-.4-.2-.7-.2s-.5.1-.7.2-.4.3-.5.6v3.4h-.8v-4.8h.8Z"/>
      <path d="M224.3,274v1.2h.9v.6h-.9v3c0,.2,0,.3.1.4s.2.1.4.1c.1,0,.2,0,.4-.1v.7c-.2.1-.4.1-.6.1-.4,0-.6-.1-.8-.3s-.3-.5-.3-.9v-2.9h-.9v-.6h.9v-1.2h.8v-.1Z"/>
      <path d="M228.5,279.9v-4.1h-.8v-.6h.8v-.5c0-.5.1-.9.4-1.2s.7-.4,1.2-.4c.2,0,.4,0,.6.1v.7h-.4c-.3,0-.5.1-.6.2s-.2.4-.2.7v.5h1v.6h-1v4.1h-1v-.1Z"/>
      <path d="M233.1,280c-.6,0-1.2-.2-1.6-.6-.4-.4-.6-1-.6-1.7v-.1c0-.5.1-.9.3-1.3s.4-.7.8-.9c.3-.2.7-.3,1.1-.3.6,0,1.1.2,1.4.6s.5,1,.5,1.7v.3h-3.2c0,.5.1.8.4,1.1.3.3.6.4,1,.4.3,0,.5-.1.7-.2s.4-.3.5-.5l.5.4c-.4.8-1,1.1-1.8,1.1ZM233,275.7c-.3,0-.6.1-.8.4-.2.2-.4.6-.4,1h2.4v-.1c0-.4-.1-.7-.3-1-.3-.2-.6-.3-.9-.3Z"/>
      <path d="M237.7,280c-.6,0-1.2-.2-1.6-.6-.4-.4-.6-1-.6-1.7v-.1c0-.5.1-.9.3-1.3s.4-.7.8-.9c.3-.2.7-.3,1.1-.3.6,0,1.1.2,1.4.6s.5,1,.5,1.7v.3h-3.2c0,.5.1.8.4,1.1.3.3.6.4,1,.4.3,0,.5-.1.7-.2s.4-.3.5-.5l.5.4c-.4.8-1,1.1-1.8,1.1ZM237.6,275.7c-.3,0-.6.1-.8.4-.2.2-.4.6-.4,1h2.4v-.1c0-.4-.1-.7-.3-1-.3-.2-.5-.3-.9-.3Z"/>
      <path d="M240.2,277.5c0-.7.2-1.3.5-1.8.3-.4.8-.7,1.4-.7s1,.2,1.3.6v-2.5h.8v6.8h-.7v-.5c-.3.4-.8.6-1.4.6s-1-.2-1.3-.7c-.4-.4-.6-1-.6-1.8h0ZM241,277.6c0,.5.1,1,.3,1.3s.5.5.9.5c.5,0,.9-.2,1.1-.7v-2.2c-.2-.4-.6-.7-1.1-.7-.4,0-.7.2-.9.5s-.3.7-.3,1.3Z"/>
      <path d="M249.4,277.6c0,.7-.2,1.3-.5,1.8-.3.4-.8.7-1.3.7-.6,0-1.1-.2-1.4-.6v.5h-.7v-6.8h.8v2.5c.3-.4.8-.6,1.4-.6s1,.2,1.4.7c.1.3.3.9.3,1.8h0ZM248.5,277.5c0-.6-.1-1-.3-1.3s-.5-.5-.9-.5c-.5,0-.9.2-1.2.7v2.1c.2.5.6.7,1.2.7.4,0,.7-.2.9-.5s.3-.6.3-1.2Z"/>
      <path d="M253.2,279.9c0-.1-.1-.3-.1-.5-.4.4-.8.6-1.4.6-.5,0-.9-.1-1.2-.4s-.5-.6-.5-1c0-.5.2-.9.6-1.2.4-.3.9-.4,1.6-.4h.8v-.4c0-.3-.1-.5-.3-.7s-.4-.3-.8-.3c-.3,0-.5.1-.7.2s-.3.3-.3.5h-.8c0-.2.1-.5.3-.7s.4-.4.7-.5.6-.2,1-.2c.5,0,1,.1,1.3.4s.5.7.5,1.1v2.2c0,.4.1.8.2,1v.1h-.9v.2ZM251.8,279.3c.3,0,.5-.1.7-.2s.4-.3.5-.5v-1h-.6c-1,0-1.5.3-1.5.9,0,.3.1.5.3.6s.4.2.6.2Z"/>
      <path d="M256.9,279.3c.3,0,.5-.1.8-.3s.3-.4.4-.7h.8c0,.3-.1.5-.3.8s-.4.4-.7.6c-.3.1-.6.2-.9.2-.6,0-1.2-.2-1.5-.6-.4-.4-.6-1-.6-1.8v-.1c0-.5.1-.9.3-1.2s.4-.6.7-.8c.3-.2.7-.3,1.1-.3.5,0,1,.2,1.3.5.4.3.5.7.6,1.2h-.9c0-.3-.1-.6-.3-.8s-.5-.3-.8-.3c-.4,0-.7.1-1,.4-.2.3-.3.7-.3,1.3v.2c0,.5.1,1,.3,1.3.3.3.6.4,1,.4Z"/>
      <path d="M260.9,277.7l-.5.5v1.7h-.8v-6.8h.8v4.1l.4-.5,1.5-1.6h1l-1.9,2,2.1,2.8h-1l-1.6-2.2Z"/>
      <path d="M267,279.9h-.8v-6.8h.8v6.8Z"/>
      <path d="M268.2,273.9c0-.1,0-.2.1-.3.1-.1.2-.1.4-.1s.3,0,.4.1.1.2.1.3,0,.2-.1.3-.2.1-.4.1-.3,0-.4-.1c-.1-.1-.1-.2-.1-.3ZM269,279.9h-.8v-4.8h.8v4.8Z"/>
      <path d="M271.3,274v1.2h.9v.6h-.9v3c0,.2,0,.3.1.4s.2.1.4.1c.1,0,.2,0,.4-.1v.7c-.2.1-.4.1-.6.1-.4,0-.6-.1-.8-.3s-.3-.5-.3-.9v-2.9h-.9v-.6h.9v-1.2h.8v-.1Z"/>
      <path d="M275,280c-.6,0-1.2-.2-1.6-.6s-.6-1-.6-1.7v-.1c0-.5.1-.9.3-1.3.2-.4.4-.7.8-.9.3-.2.7-.3,1.1-.3.6,0,1.1.2,1.4.6s.5,1,.5,1.7v.3h-3.2c0,.5.1.8.4,1.1.3.3.6.4,1,.4.3,0,.5-.1.7-.2s.4-.3.5-.5l.5.4c-.4.8-1,1.1-1.8,1.1ZM274.9,275.7c-.3,0-.6.1-.8.4-.2.2-.4.6-.4,1h2.4v-.1c0-.4-.1-.7-.3-1-.3-.2-.6-.3-.9-.3Z"/>
      <path d="M279.9,275.9h-.4c-.5,0-.9.2-1.1.7v3.4h-.8v-4.8h.8v.5c.3-.4.6-.6,1.1-.6.2,0,.3,0,.4.1v.7Z"/>
      <path d="M283.3,279.9c0-.1-.1-.3-.1-.5-.4.4-.8.6-1.4.6-.5,0-.9-.1-1.2-.4-.3-.3-.5-.6-.5-1,0-.5.2-.9.6-1.2.4-.3.9-.4,1.6-.4h.8v-.4c0-.3-.1-.5-.3-.7-.2-.2-.4-.3-.8-.3-.3,0-.5.1-.7.2s-.3.3-.3.5h-.8c0-.2.1-.5.3-.7.2-.2.4-.4.7-.5.3-.1.6-.2,1-.2.5,0,1,.1,1.3.4s.5.7.5,1.1v2.2c0,.4.1.8.2,1v.1h-.9v.2ZM282,279.3c.3,0,.5-.1.7-.2s.4-.3.5-.5v-1h-.6c-1,0-1.5.3-1.5.9,0,.3.1.5.3.6s.3.2.6.2Z"/>
      <path d="M287,279.3c.3,0,.5-.1.8-.3s.3-.4.4-.7h.8c0,.3-.1.5-.3.8s-.4.4-.7.6c-.3.1-.6.2-.9.2-.6,0-1.2-.2-1.5-.6-.4-.4-.6-1-.6-1.8v-.1c0-.5.1-.9.3-1.2s.4-.6.7-.8c.3-.2.7-.3,1.1-.3.5,0,1,.2,1.3.5.4.3.5.7.6,1.2h-.8c0-.3-.1-.6-.3-.8s-.5-.3-.8-.3c-.4,0-.7.1-1,.4-.2.3-.3.7-.3,1.3v.2c0,.5.1,1,.3,1.3s.5.4.9.4Z"/>
      <path d="M291.3,278.7l1.1-3.6h.9l-1.9,5.5c-.3.8-.8,1.2-1.4,1.2h-.2l-.3-.1v-.7h.2c.3,0,.5-.1.6-.2.2-.1.3-.3.4-.6l.2-.5-1.7-4.7h.9l1.2,3.7Z"/>
      <path d="M296.2,277h-2.6v-.5l1.3-1.2c.3-.3.5-.6.5-.8,0-.1,0-.3-.1-.4s-.2-.1-.4-.1-.4.1-.5.2-.2.3-.2.4h-.7c0-.3.1-.6.4-.8.2-.2.6-.3.9-.3s.7.1.9.3.3.4.3.8c0,.3-.2.6-.5.9l-.4.3-.8.6h1.8v.6h.1Z"/>
      <path d="M297,281.2l-.5-.3c.3-.4.4-.8.4-1.2v-.8h.8v.6c0,.3-.1.6-.2.9-.1.4-.3.6-.5.8Z"/>
      <path d="M303.7,279.9c0-.1-.1-.3-.1-.5-.4.4-.8.6-1.4.6-.5,0-.9-.1-1.2-.4-.3-.3-.5-.6-.5-1,0-.5.2-.9.6-1.2.4-.3.9-.4,1.6-.4h.8v-.4c0-.3-.1-.5-.3-.7-.2-.2-.4-.3-.8-.3-.3,0-.5.1-.7.2s-.3.3-.3.5h-.8c0-.2.1-.5.3-.7.2-.2.4-.4.7-.5.3-.1.6-.2,1-.2.5,0,1,.1,1.3.4s.5.7.5,1.1v2.2c0,.4.1.8.2,1v.1h-.9v.2ZM302.3,279.3c.3,0,.5-.1.7-.2s.4-.3.5-.5v-1h-.6c-1,0-1.5.3-1.5.9,0,.3.1.5.3.6s.3.2.6.2Z"/>
      <path d="M306.3,275.1v.6c.4-.5.8-.7,1.4-.7,1,0,1.5.6,1.5,1.7v3.1h-.8v-3.1c0-.3-.1-.6-.2-.8-.2-.2-.4-.2-.7-.2s-.5.1-.7.2-.4.3-.5.6v3.4h-.8v-4.8h.8Z"/>
      <path d="M310.1,277.5c0-.7.2-1.3.5-1.8.3-.4.8-.7,1.4-.7s1,.2,1.3.6v-2.5h.8v6.8h-.7v-.5c-.3.4-.8.6-1.4.6s-1-.2-1.3-.7c-.4-.4-.6-1-.6-1.8h0ZM310.9,277.6c0,.5.1,1,.3,1.3s.5.5.9.5c.5,0,.9-.2,1.1-.7v-2.2c-.2-.4-.6-.7-1.1-.7-.4,0-.7.2-.9.5s-.3.7-.3,1.3Z"/>
      <path d="M318.5,274v1.2h.9v.6h-.9v3c0,.2,0,.3.1.4s.2.1.4.1c.1,0,.2,0,.4-.1v.7c-.2.1-.4.1-.6.1-.4,0-.6-.1-.8-.3s-.3-.5-.3-.9v-2.9h-.9v-.6h.9v-1.2h.8v-.1Z"/>
      <path d="M322.1,280c-.6,0-1.2-.2-1.6-.6s-.6-1-.6-1.7v-.1c0-.5.1-.9.3-1.3.2-.4.4-.7.8-.9.3-.2.7-.3,1.1-.3.6,0,1.1.2,1.4.6s.5,1,.5,1.7v.3h-3.2c0,.5.1.8.4,1.1.3.3.6.4,1,.4.3,0,.5-.1.7-.2s.4-.3.5-.5l.5.4c-.4.8-1,1.1-1.8,1.1ZM322,275.7c-.3,0-.6.1-.8.4-.2.2-.4.6-.4,1h2.4v-.1c0-.4-.1-.7-.3-1-.3-.2-.5-.3-.9-.3Z"/>
      <path d="M327.7,279.9c0-.1-.1-.3-.1-.5-.4.4-.8.6-1.4.6-.5,0-.9-.1-1.2-.4-.3-.3-.5-.6-.5-1,0-.5.2-.9.6-1.2.4-.3.9-.4,1.6-.4h.8v-.4c0-.3-.1-.5-.3-.7-.2-.2-.4-.3-.8-.3-.3,0-.5.1-.7.2s-.3.3-.3.5h-.8c0-.2.1-.5.3-.7.2-.2.4-.4.7-.5.3-.1.6-.2,1-.2.5,0,1,.1,1.3.4s.5.7.5,1.1v2.2c0,.4.1.8.2,1v.1h-.9v.2ZM326.4,279.3c.3,0,.5-.1.7-.2s.4-.3.5-.5v-1h-.6c-1,0-1.5.3-1.5.9,0,.3.1.5.3.6s.3.2.6.2Z"/>
      <path d="M331.5,279.3c.3,0,.5-.1.8-.3s.3-.4.4-.7h.8c0,.3-.1.5-.3.8s-.4.4-.7.6c-.3.1-.6.2-.9.2-.6,0-1.2-.2-1.5-.6-.4-.4-.6-1-.6-1.8v-.1c0-.5.1-.9.3-1.2s.4-.6.7-.8c.3-.2.7-.3,1.1-.3.5,0,1,.2,1.3.5.4.3.5.7.6,1.2h-.8c0-.3-.1-.6-.3-.8s-.5-.3-.8-.3c-.4,0-.7.1-1,.4-.2.3-.3.7-.3,1.3v.2c0,.5.1,1,.3,1.3s.4.4.9.4Z"/>
      <path d="M334.9,275.7c.4-.4.8-.7,1.4-.7,1,0,1.5.6,1.5,1.7v3.1h-.8v-3.1c0-.3-.1-.6-.2-.8-.2-.2-.4-.2-.7-.2s-.5.1-.7.2-.4.3-.5.6v3.4h-.8v-6.8h.8v2.6h0Z"/>
      <path d="M340.9,280c-.6,0-1.2-.2-1.6-.6s-.6-1-.6-1.7v-.1c0-.5.1-.9.3-1.3.2-.4.4-.7.8-.9.3-.2.7-.3,1.1-.3.6,0,1.1.2,1.4.6s.5,1,.5,1.7v.3h-3.2c0,.5.1.8.4,1.1.3.3.6.4,1,.4.3,0,.5-.1.7-.2s.4-.3.5-.5l.5.4c-.4.8-1,1.1-1.8,1.1ZM340.8,275.7c-.3,0-.6.1-.8.4-.2.2-.4.6-.4,1h2.4v-.1c0-.4-.1-.7-.3-1-.3-.2-.5-.3-.9-.3Z"/>
      <path d="M345.9,275.9h-.4c-.5,0-.9.2-1.1.7v3.4h-.8v-4.8h.8v.5c.3-.4.6-.6,1.1-.6.2,0,.3,0,.4.1v.7Z"/>
      <path d="M349,279.9v-4.1h-.8v-.6h.8v-.5c0-.5.1-.9.4-1.2s.7-.4,1.2-.4c.2,0,.4,0,.6.1v.7h-.4c-.3,0-.5.1-.6.2s-.2.4-.2.7v.5h1v.6h-1v4.1h-1v-.1Z"/>
      <path d="M353.5,280c-.6,0-1.2-.2-1.6-.6s-.6-1-.6-1.7v-.1c0-.5.1-.9.3-1.3.2-.4.4-.7.8-.9.3-.2.7-.3,1.1-.3.6,0,1.1.2,1.4.6s.5,1,.5,1.7v.3h-3.2c0,.5.1.8.4,1.1.3.3.6.4,1,.4.3,0,.5-.1.7-.2s.4-.3.5-.5l.5.4c-.4.8-1,1.1-1.8,1.1ZM353.4,275.7c-.3,0-.6.1-.8.4-.2.2-.4.6-.4,1h2.4v-.1c0-.4-.1-.7-.3-1-.2-.2-.5-.3-.9-.3Z"/>
      <path d="M358.2,280c-.6,0-1.2-.2-1.6-.6s-.6-1-.6-1.7v-.1c0-.5.1-.9.3-1.3.2-.4.4-.7.8-.9.3-.2.7-.3,1.1-.3.6,0,1.1.2,1.4.6s.5,1,.5,1.7v.3h-3.2c0,.5.1.8.4,1.1.3.3.6.4,1,.4.3,0,.5-.1.7-.2s.4-.3.5-.5l.5.4c-.4.8-1,1.1-1.8,1.1ZM358.1,275.7c-.3,0-.6.1-.8.4-.2.2-.4.6-.4,1h2.4v-.1c0-.4-.1-.7-.3-1-.3-.2-.6-.3-.9-.3Z"/>
      <path d="M360.6,277.5c0-.7.2-1.3.5-1.8.3-.4.8-.7,1.4-.7s1,.2,1.3.6v-2.5h.8v6.8h-.7v-.5c-.3.4-.8.6-1.4.6s-1-.2-1.3-.7c-.4-.4-.6-1-.6-1.8h0ZM361.5,277.6c0,.5.1,1,.3,1.3s.5.5.9.5c.5,0,.9-.2,1.1-.7v-2.2c-.2-.4-.6-.7-1.1-.7-.4,0-.7.2-.9.5s-.3.7-.3,1.3Z"/>
      <path d="M369.8,277.6c0,.7-.2,1.3-.5,1.8-.3.4-.8.7-1.3.7-.6,0-1.1-.2-1.4-.6v.5h-.7v-6.8h.8v2.5c.3-.4.8-.6,1.4-.6s1,.2,1.4.7c.1.3.3.9.3,1.8h0ZM369,277.5c0-.6-.1-1-.3-1.3s-.5-.5-.9-.5c-.5,0-.9.2-1.2.7v2.1c.2.5.6.7,1.2.7.4,0,.7-.2.9-.5s.3-.6.3-1.2Z"/>
      <path d="M373.6,279.9c0-.1-.1-.3-.1-.5-.4.4-.8.6-1.4.6-.5,0-.9-.1-1.2-.4-.3-.3-.5-.6-.5-1,0-.5.2-.9.6-1.2.4-.3.9-.4,1.6-.4h.8v-.4c0-.3-.1-.5-.3-.7-.2-.2-.4-.3-.8-.3-.3,0-.5.1-.7.2s-.3.3-.3.5h-.8c0-.2.1-.5.3-.7.2-.2.4-.4.7-.5.3-.1.6-.2,1-.2.5,0,1,.1,1.3.4s.5.7.5,1.1v2.2c0,.4.1.8.2,1v.1h-.9v.2ZM372.3,279.3c.3,0,.5-.1.7-.2s.4-.3.5-.5v-1h-.6c-1,0-1.5.3-1.5.9,0,.3.1.5.3.6s.3.2.6.2Z"/>
      <path d="M377.4,279.3c.3,0,.5-.1.8-.3s.3-.4.4-.7h.8c0,.3-.1.5-.3.8s-.4.4-.7.6c-.3.1-.6.2-.9.2-.6,0-1.2-.2-1.5-.6-.4-.4-.6-1-.6-1.8v-.1c0-.5.1-.9.3-1.2s.4-.6.7-.8c.3-.2.7-.3,1.1-.3.5,0,1,.2,1.3.5.4.3.5.7.6,1.2h-.8c0-.3-.1-.6-.3-.8s-.5-.3-.8-.3c-.4,0-.7.1-1,.4-.2.3-.3.7-.3,1.3v.2c0,.5.1,1,.3,1.3s.4.4.9.4Z"/>
      <path d="M381.4,277.7l-.5.5v1.7h-.9v-6.8h.8v4.1l.4-.5,1.5-1.6h1l-1.9,2,2.1,2.8h-1l-1.5-2.2Z"/>
      <path d="M387.4,279.9h-.8v-6.8h.8v6.8Z"/>
      <path d="M388.6,273.9c0-.1,0-.2.1-.3.1-.1.2-.1.4-.1s.3,0,.4.1.1.2.1.3,0,.2-.1.3-.2.1-.4.1-.3,0-.4-.1c-.1-.1-.1-.2-.1-.3ZM389.5,279.9h-.8v-4.8h.8v4.8Z"/>
      <path d="M391.8,274v1.2h.9v.6h-.9v3c0,.2,0,.3.1.4s.2.1.4.1c.1,0,.2,0,.4-.1v.7c-.2.1-.4.1-.6.1-.4,0-.6-.1-.8-.3s-.3-.5-.3-.9v-2.9h-.9v-.6h.9v-1.2h.8v-.1Z"/>
      <path d="M395.4,280c-.6,0-1.2-.2-1.6-.6s-.6-1-.6-1.7v-.1c0-.5.1-.9.3-1.3.2-.4.4-.7.8-.9.3-.2.7-.3,1.1-.3.6,0,1.1.2,1.4.6s.5,1,.5,1.7v.3h-3.2c0,.5.1.8.4,1.1.3.3.6.4,1,.4.3,0,.5-.1.7-.2s.4-.3.5-.5l.5.4c-.4.8-1,1.1-1.8,1.1ZM395.3,275.7c-.3,0-.6.1-.8.4-.2.2-.4.6-.4,1h2.4v-.1c0-.4-.1-.7-.3-1-.3-.2-.5-.3-.9-.3Z"/>
      <path d="M400.4,275.9h-.4c-.5,0-.9.2-1.1.7v3.4h-.8v-4.8h.8v.5c.3-.4.6-.6,1.1-.6.2,0,.3,0,.4.1v.7Z"/>
      <path d="M403.8,279.9c0-.1-.1-.3-.1-.5-.4.4-.8.6-1.4.6-.5,0-.9-.1-1.2-.4-.3-.3-.5-.6-.5-1,0-.5.2-.9.6-1.2.4-.3.9-.4,1.6-.4h.8v-.4c0-.3-.1-.5-.3-.7-.2-.2-.4-.3-.8-.3-.3,0-.5.1-.7.2s-.3.3-.3.5h-.8c0-.2.1-.5.3-.7.2-.2.4-.4.7-.5.3-.1.6-.2,1-.2.5,0,1,.1,1.3.4s.5.7.5,1.1v2.2c0,.4.1.8.2,1v.1h-.9v.2ZM402.4,279.3c.3,0,.5-.1.7-.2s.4-.3.5-.5v-1h-.6c-1,0-1.5.3-1.5.9,0,.3.1.5.3.6s.3.2.6.2Z"/>
      <path d="M407.5,279.3c.3,0,.5-.1.8-.3s.3-.4.4-.7h.8c0,.3-.1.5-.3.8s-.4.4-.7.6c-.3.1-.6.2-.9.2-.6,0-1.2-.2-1.5-.6-.4-.4-.6-1-.6-1.8v-.1c0-.5.1-.9.3-1.2s.4-.6.7-.8c.3-.2.7-.3,1.1-.3.5,0,1,.2,1.3.5.4.3.5.7.6,1.2h-.8c0-.3-.1-.6-.3-.8s-.5-.3-.8-.3c-.4,0-.7.1-1,.4-.2.3-.3.7-.3,1.3v.2c0,.5.1,1,.3,1.3s.5.4.9.4Z"/>
      <path d="M411.7,278.7l1.1-3.6h.9l-1.9,5.5c-.3.8-.8,1.2-1.4,1.2h-.2l-.3-.1v-.7h.2c.3,0,.5-.1.6-.2.2-.1.3-.3.4-.6l.2-.5-1.7-4.7h.9l1.2,3.7Z"/>
      <path d="M414.8,274.9h.4c.2,0,.4,0,.5-.1s.2-.2.2-.3,0-.2-.1-.3c-.1-.1-.2-.1-.4-.1s-.3,0-.4.1-.2.2-.2.3h-.8c0-.3.1-.5.4-.7.2-.2.5-.3.9-.3s.7.1.9.3.3.4.3.7c0,.2-.1.3-.2.4s-.2.2-.4.3c.4.1.7.4.7.8,0,.3-.1.6-.4.7-.2.2-.6.3-1,.3s-.7-.1-.9-.3-.4-.4-.4-.7h.7c0,.1.1.2.2.3.1.1.3.1.5.1s.4,0,.5-.1.2-.2.2-.4c0-.3-.2-.5-.7-.5h-.4v-.5h-.1Z"/>
      <path d="M191.5,288.9c0-.1-.1-.3-.1-.5-.4.4-.8.6-1.4.6-.5,0-.9-.1-1.2-.4s-.5-.6-.5-1c0-.5.2-.9.6-1.2.4-.3.9-.4,1.6-.4h.8v-.4c0-.3-.1-.5-.3-.7s-.4-.3-.8-.3c-.3,0-.5.1-.7.2s-.3.3-.3.5h-.8c0-.2.1-.5.3-.7s.4-.4.7-.5.6-.2,1-.2c.5,0,1,.1,1.3.4s.5.7.5,1.1v2.2c0,.4.1.8.2,1v.1h-.9v.2ZM190.1,288.3c.3,0,.5-.1.7-.2s.4-.3.5-.5v-1h-.6c-1,0-1.5.3-1.5.9,0,.3.1.5.3.6s.4.2.6.2Z"/>
      <path d="M195.6,284.9h-.4c-.5,0-.9.2-1.1.7v3.4h-.8v-4.8h.8v.5c.3-.4.6-.6,1.1-.6.2,0,.3,0,.4.1v.7Z"/>
      <path d="M198.2,289c-.6,0-1.2-.2-1.6-.6-.4-.4-.6-1-.6-1.7v-.1c0-.5.1-.9.3-1.3s.4-.7.8-.9c.3-.2.7-.3,1.1-.3.6,0,1.1.2,1.4.6s.5,1,.5,1.7v.3h-3.2c0,.5.1.8.4,1.1.3.3.6.4,1,.4.3,0,.5-.1.7-.2s.4-.3.5-.5l.5.4c-.4.8-1,1.1-1.8,1.1ZM198.1,284.7c-.3,0-.6.1-.8.4-.2.2-.4.6-.4,1h2.4v-.1c0-.4-.1-.7-.3-1-.3-.2-.6-.3-.9-.3Z"/>
      <path d="M203,282.9c0-.1,0-.2.1-.3.1-.1.2-.1.4-.1s.3,0,.4.1.1.2.1.3,0,.2-.1.3-.2.1-.4.1-.3,0-.4-.1c-.1-.1-.1-.2-.1-.3ZM203.8,288.9h-.8v-4.8h.8v4.8Z"/>
      <path d="M205.8,284.1v.6c.4-.5.8-.7,1.4-.7,1,0,1.5.6,1.5,1.7v3.1h-.8v-3.1c0-.3-.1-.6-.2-.8-.2-.2-.4-.2-.7-.2s-.5.1-.7.2-.4.3-.5.6v3.4h-.8v-4.8h.8Z"/>
      <path d="M210.9,283v1.2h.9v.6h-.9v3c0,.2,0,.3.1.4s.2.1.4.1c.1,0,.2,0,.4-.1v.7c-.2.1-.4.1-.6.1-.4,0-.6-.1-.8-.3s-.3-.5-.3-.9v-2.9h-.9v-.6h.9v-1.2h.8v-.1Z"/>
      <path d="M214.6,289c-.6,0-1.2-.2-1.6-.6-.4-.4-.6-1-.6-1.7v-.1c0-.5.1-.9.3-1.3s.4-.7.8-.9c.3-.2.7-.3,1.1-.3.6,0,1.1.2,1.4.6s.5,1,.5,1.7v.3h-3.2c0,.5.1.8.4,1.1.3.3.6.4,1,.4.3,0,.5-.1.7-.2s.4-.3.5-.5l.5.4c-.4.8-1,1.1-1.8,1.1ZM214.5,284.7c-.3,0-.6.1-.8.4-.2.2-.4.6-.4,1h2.4v-.1c0-.4-.1-.7-.3-1-.3-.2-.6-.3-.9-.3Z"/>
      <path d="M219.6,284.9h-.4c-.5,0-.9.2-1.1.7v3.4h-.8v-4.8h.8v.5c.3-.4.6-.6,1.1-.6.2,0,.3,0,.4.1v.7Z"/>
      <path d="M222,288.3c.3,0,.5-.1.8-.3s.3-.4.4-.7h.8c0,.3-.1.5-.3.8s-.4.4-.7.6c-.3.1-.6.2-.9.2-.6,0-1.2-.2-1.5-.6-.4-.4-.6-1-.6-1.8v-.1c0-.5.1-.9.3-1.2s.4-.6.7-.8c.3-.2.7-.3,1.1-.3.5,0,1,.2,1.3.5.4.3.5.7.6,1.2h-.8c0-.3-.1-.6-.3-.8-.2-.2-.5-.3-.8-.3-.4,0-.7.1-1,.4-.2.3-.3.7-.3,1.3v.2c0,.5.1,1,.3,1.3s.5.4.9.4Z"/>
      <path d="M224.5,286.5c0-.5.1-.9.3-1.3s.4-.7.8-.9c.3-.2.7-.3,1.1-.3.6,0,1.2.2,1.6.7.4.4.6,1,.6,1.8v.1c0,.5-.1.9-.3,1.2-.2.4-.4.7-.8.9-.3.2-.7.3-1.1.3-.6,0-1.2-.2-1.6-.7-.4-.4-.6-1-.6-1.8h0ZM225.3,286.6c0,.5.1,1,.4,1.3.2.3.6.5,1,.5s.7-.2,1-.5c.2-.3.4-.8.4-1.4,0-.5-.1-.9-.4-1.3-.2-.3-.6-.5-1-.5s-.7.2-1,.5-.4.8-.4,1.4Z"/>
      <path d="M230.4,284.1v.6c.4-.5.8-.7,1.4-.7,1,0,1.5.6,1.5,1.7v3.1h-.8v-3.1c0-.3-.1-.6-.2-.8-.2-.2-.4-.2-.7-.2s-.5.1-.7.2-.4.3-.5.6v3.4h-.8v-4.8h.8Z"/>
      <path d="M235.3,284.1v.6c.4-.5.8-.7,1.4-.7,1,0,1.5.6,1.5,1.7v3.1h-.8v-3.1c0-.3-.1-.6-.2-.8-.2-.2-.4-.2-.7-.2s-.5.1-.7.2-.4.3-.5.6v3.4h-.8v-4.8h.8Z"/>
      <path d="M241.3,289c-.6,0-1.2-.2-1.6-.6-.4-.4-.6-1-.6-1.7v-.1c0-.5.1-.9.3-1.3s.4-.7.8-.9c.3-.2.7-.3,1.1-.3.6,0,1.1.2,1.4.6s.5,1,.5,1.7v.3h-3.2c0,.5.1.8.4,1.1.3.3.6.4,1,.4.3,0,.5-.1.7-.2s.4-.3.5-.5l.5.4c-.4.8-1,1.1-1.8,1.1ZM241.2,284.7c-.3,0-.6.1-.8.4-.2.2-.4.6-.4,1h2.4v-.1c0-.4-.1-.7-.3-1-.3-.2-.6-.3-.9-.3Z"/>
      <path d="M245.9,288.3c.3,0,.5-.1.8-.3s.3-.4.4-.7h.8c0,.3-.1.5-.3.8s-.4.4-.7.6c-.3.1-.6.2-.9.2-.6,0-1.2-.2-1.5-.6-.4-.4-.6-1-.6-1.8v-.1c0-.5.1-.9.3-1.2s.4-.6.7-.8c.3-.2.7-.3,1.1-.3.5,0,1,.2,1.3.5.4.3.5.7.6,1.2h-.9c0-.3-.1-.6-.3-.8-.2-.2-.5-.3-.8-.3-.4,0-.7.1-1,.4-.2.3-.3.7-.3,1.3v.2c0,.5.1,1,.3,1.3s.6.4,1,.4Z"/>
      <path d="M249.6,283v1.2h.9v.6h-.9v3c0,.2,0,.3.1.4s.2.1.4.1c.1,0,.2,0,.4-.1v.7c-.2.1-.4.1-.6.1-.4,0-.6-.1-.8-.3s-.3-.5-.3-.9v-2.9h-.8v-.6h.9v-1.2h.7v-.1Z"/>
      <path d="M253.3,289c-.6,0-1.2-.2-1.6-.6-.4-.4-.6-1-.6-1.7v-.1c0-.5.1-.9.3-1.3s.4-.7.8-.9c.3-.2.7-.3,1.1-.3.6,0,1.1.2,1.4.6s.5,1,.5,1.7v.3h-3.2c0,.5.1.8.4,1.1.3.3.6.4,1,.4.3,0,.5-.1.7-.2s.4-.3.5-.5l.5.4c-.4.8-1,1.1-1.8,1.1ZM253.2,284.7c-.3,0-.6.1-.8.4-.2.2-.4.6-.4,1h2.4v-.1c0-.4-.1-.7-.3-1-.3-.2-.5-.3-.9-.3Z"/>
      <path d="M255.8,286.5c0-.7.2-1.3.5-1.8.3-.4.8-.7,1.4-.7s1,.2,1.3.6v-2.5h.8v6.8h-.8v-.5c-.3.4-.8.6-1.4.6s-1-.2-1.3-.7c-.3-.4-.5-1-.5-1.8h0ZM256.6,286.6c0,.5.1,1,.3,1.3s.5.5.9.5c.5,0,.9-.2,1.1-.7v-2.2c-.2-.4-.6-.7-1.1-.7-.4,0-.7.2-.9.5s-.3.7-.3,1.3Z"/>
      <path d="M265.9,288.9c0-.1-.1-.3-.1-.5-.4.4-.8.6-1.4.6-.5,0-.9-.1-1.2-.4-.3-.3-.5-.6-.5-1,0-.5.2-.9.6-1.2.4-.3.9-.4,1.6-.4h.8v-.4c0-.3-.1-.5-.3-.7-.2-.2-.4-.3-.8-.3-.3,0-.5.1-.7.2s-.3.3-.3.5h-.6c0-.2.1-.5.3-.7.2-.2.4-.4.7-.5.3-.1.6-.2,1-.2.5,0,1,.1,1.3.4s.5.7.5,1.1v2.2c0,.4.1.8.2,1v.1h-1.1v.2ZM264.6,288.3c.3,0,.5-.1.7-.2s.4-.3.5-.5v-1h-.6c-1,0-1.5.3-1.5.9,0,.3.1.5.3.6s.3.2.6.2Z"/>
      <path d="M268.5,284.1v.6c.4-.5.8-.7,1.4-.7,1,0,1.5.6,1.5,1.7v3.1h-.8v-3.1c0-.3-.1-.6-.2-.8-.2-.2-.4-.2-.7-.2s-.5.1-.7.2-.4.3-.5.6v3.4h-.8v-4.8h.8Z"/>
      <path d="M272.4,286.5c0-.7.2-1.3.5-1.8.3-.4.8-.7,1.4-.7s1,.2,1.3.6v-2.5h.8v6.8h-.7v-.5c-.3.4-.8.6-1.4.6s-1-.2-1.3-.7c-.4-.4-.6-1-.6-1.8h0ZM273.2,286.6c0,.5.1,1,.3,1.3s.5.5.9.5c.5,0,.9-.2,1.1-.7v-2.2c-.2-.4-.6-.7-1.1-.7-.4,0-.7.2-.9.5s-.3.7-.3,1.3Z"/>
    </g>
    <path class="cls-13" d="M19.8,74.6h71.7c1,0,1.7-.8,1.7-1.7v-39.3c0-1-.8-1.7-1.7-1.7H19.8c-1,0-1.7.8-1.7,1.7v39.3c0,1,.7,1.7,1.7,1.7Z"/>
    <polyline class="cls-2" points="107.2 59.5 100.9 59.5 95.7 52.5 85.6 52.5 81.9 58.9 81.1 65.5"/>
    <path d="M85.1,54.5v13.8c0,.5.4.9.9.9h9.4c.5,0,.9-.4.9-.9l.9-13.8-3.1-1.6h-7.1l-1.9,1.6Z"/>
    <circle cx="91.2" cy="43.8" r="4.3"/>
    <line class="cls-5" x1="106.5" y1="59.5" x2="111" y2="48.1"/>
    <line class="cls-6" x1="109.2" y1="42.2" x2="126.1" y2="42.2"/>
    <line class="cls-6" x1="115.2" y1="47.2" x2="126.1" y2="47.2"/>
    <line class="cls-6" x1="115.2" y1="52.2" x2="126.1" y2="52.2"/>
    <polyline class="cls-6" points="103.9 53.8 103.9 36.5 131.2 36.5 131.2 58.4 112.2 58.4"/>
    <g>
      <path d="M25.2,44.9v-6.4h1.8c.6,0,1,.1,1.5.4.4.2.8.6,1,1.1s.4,1,.4,1.6v.3c0,.6-.1,1.1-.3,1.6-.2.5-.6.8-1,1-.5.3-1.1.4-1.6.4h-1.8ZM26,39.2v5h.9c.7,0,1.2-.2,1.5-.6.4-.4.5-1,.5-1.7v-.4c0-.7-.2-1.3-.5-1.7s-.8-.6-1.5-.6h-.9Z"/>
      <path d="M32.8,45c-.6,0-1.2-.2-1.6-.6s-.6-1-.6-1.7v-.1c0-.5.1-.9.3-1.3s.4-.7.8-.9c.3-.2.7-.3,1.1-.3.6,0,1.1.2,1.4.6s.5,1,.5,1.7v.3h-3.2c0,.5.1.8.4,1.1.3.3.6.4,1,.4.3,0,.5-.1.7-.2s.4-.3.5-.5l.5.4c-.4.8-1,1.1-1.8,1.1ZM32.7,40.7c-.3,0-.6.1-.8.4s-.4.6-.4,1h2.4v-.1c0-.4-.1-.7-.3-1s-.6-.3-.9-.3Z"/>
      <path d="M38.2,43.7c0-.2-.1-.4-.2-.5-.2-.1-.5-.2-.9-.3s-.7-.2-1-.3c-.2-.1-.4-.3-.5-.4-.1-.2-.2-.4-.2-.6,0-.4.2-.7.5-1s.8-.4,1.3-.4,1,.1,1.3.4c.3.3.5.6.5,1.1h-.8c0-.2-.1-.4-.3-.6-.2-.2-.4-.2-.7-.2s-.5.1-.7.2-.3.3-.3.5.1.3.2.4.4.2.8.3c.4.1.7.2,1,.3s.4.3.6.5c.1.2.2.4.2.6,0,.4-.2.8-.5,1-.3.3-.8.4-1.3.4-.4,0-.7-.1-1-.2s-.5-.3-.7-.6c-.2-.2-.2-.5-.2-.8h.7c0,.3.1.5.3.6.2.2.5.2.8.2s.6-.1.7-.2c.3-.1.4-.2.4-.4Z"/>
      <path d="M39.9,38.9c0-.1,0-.2.1-.3.1-.1.2-.1.4-.1s.3,0,.4.1.1.2.1.3,0,.2-.1.3-.2.1-.4.1-.3,0-.4-.1c-.1-.1-.1-.2-.1-.3ZM40.7,44.9h-.8v-4.8h.8v4.8Z"/>
      <path d="M41.7,42.5c0-.7.2-1.3.5-1.8.3-.4.8-.7,1.4-.7s1,.2,1.4.6v-.5h.7v4.6c0,.6-.2,1.1-.5,1.5-.4.4-.9.5-1.5.5-.3,0-.7-.1-1-.2s-.6-.3-.8-.6l.4-.5c.3.4.8.6,1.3.6.4,0,.7-.1.9-.3s.3-.5.3-.9v-.4c-.3.4-.8.6-1.3.6-.6,0-1-.2-1.4-.7-.3-.4-.4-1-.4-1.8ZM42.5,42.6c0,.5.1,1,.3,1.3s.5.5.9.5c.5,0,.9-.2,1.1-.7v-2.2c-.2-.5-.6-.7-1.1-.7-.4,0-.7.2-.9.5s-.3.7-.3,1.3Z"/>
      <path d="M47.5,40.2v.6c.4-.5.8-.7,1.4-.7,1,0,1.5.6,1.5,1.7v3.1h-.8v-3.1c0-.3-.1-.6-.2-.8-.2-.2-.4-.2-.7-.2s-.5.1-.7.2c-.2.1-.4.3-.5.6v3.3h-.8v-4.8h.8v.1Z"/>
      <path d="M53.2,42.5h-2.1v-.6h2.1v.6Z"/>
      <path d="M54.2,44.9v-4.1h-.8v-.6h.8v-.5c0-.5.1-.9.4-1.2s.7-.4,1.2-.4c.2,0,.4,0,.6.1v.7h-.4c-.3,0-.5.1-.6.2-.1.2-.2.4-.2.7v.5h1v.6h-1v4h-1Z"/>
      <path d="M56.5,42.5c0-.5.1-.9.3-1.3.2-.4.4-.7.8-.9.3-.2.7-.3,1.1-.3.6,0,1.2.2,1.6.7.4.4.6,1,.6,1.8v.1c0,.5-.1.9-.3,1.2-.2.4-.4.7-.8.9-.3.2-.7.3-1.1.3-.6,0-1.2-.2-1.6-.7-.4-.4-.6-1-.6-1.8h0ZM57.4,42.6c0,.5.1,1,.4,1.3.2.3.6.5,1,.5s.7-.2,1-.5c.2-.3.4-.8.4-1.4,0-.5-.1-.9-.4-1.3-.2-.3-.6-.5-1-.5s-.7.2-1,.5-.4.8-.4,1.4Z"/>
      <path d="M63.6,44.3c.3,0,.5-.1.8-.3.2-.2.3-.4.4-.7h.8c0,.3-.1.5-.3.8s-.4.4-.7.6c-.3.1-.6.2-.9.2-.6,0-1.2-.2-1.5-.6-.4-.4-.6-1-.6-1.8v-.1c0-.5.1-.9.3-1.2s.4-.6.7-.8.7-.3,1.1-.3c.5,0,1,.2,1.3.5.4.3.5.7.6,1.2h-.8c0-.3-.1-.6-.3-.8-.2-.2-.5-.3-.8-.3-.4,0-.7.1-1,.4-.2.3-.3.7-.3,1.3v.2c0,.5.1,1,.3,1.3s.5.4.9.4Z"/>
      <path d="M69.2,44.4c-.3.4-.8.6-1.4.6-.5,0-.9-.1-1.2-.4-.3-.3-.4-.7-.4-1.3v-3.1h.8v3.1c0,.7.3,1.1.9,1.1s1-.2,1.2-.7v-3.5h.9v4.7h-.8v-.5Z"/>
      <path d="M73.8,43.7c0-.2-.1-.4-.2-.5-.2-.1-.5-.2-.9-.3s-.7-.2-1-.3c-.2-.1-.4-.3-.5-.4-.2-.3-.2-.5-.2-.7,0-.4.2-.7.5-1s.8-.4,1.3-.4,1,.1,1.3.4c.3.3.5.6.5,1.1h-.8c0-.2-.1-.4-.3-.6-.2-.2-.4-.2-.7-.2s-.5.1-.7.2-.3.3-.3.5.1.3.2.4.4.2.8.3.7.2,1,.3.4.3.6.5c.1.2.2.4.2.6,0,.4-.2.8-.5,1-.3.3-.8.4-1.3.4-.4,0-.7-.1-1-.2s-.5-.3-.7-.6c-.2-.2-.2-.5-.2-.8h.8c0,.3.1.5.3.6.2.2.5.2.8.2s.6-.1.7-.2c.2,0,.3-.1.3-.3Z"/>
      <path d="M77.5,45c-.6,0-1.2-.2-1.6-.6s-.6-1-.6-1.7v-.1c0-.5.1-.9.3-1.3.2-.4.4-.7.8-.9.3-.2.7-.3,1.1-.3.6,0,1.1.2,1.4.6s.5,1,.5,1.7v.3h-3.2c0,.5.1.8.4,1.1s.6.4,1,.4c.3,0,.5-.1.7-.2s.4-.3.5-.5l.5.4c-.5.8-1.1,1.1-1.8,1.1ZM77.4,40.7c-.3,0-.6.1-.8.4s-.4.6-.4,1h2.4v-.1c0-.4-.1-.7-.3-1s-.6-.3-.9-.3Z"/>
      <path d="M79.9,42.5c0-.7.2-1.3.5-1.8.3-.4.8-.7,1.4-.7s1,.2,1.3.6v-2.5h.8v6.8h-.7v-.5c-.3.4-.8.6-1.4.6s-1-.2-1.3-.7c-.5-.4-.6-1-.6-1.8h0ZM80.7,42.6c0,.5.1,1,.3,1.3s.5.5.9.5c.5,0,.9-.2,1.1-.7v-2.2c-.2-.4-.6-.7-1.1-.7-.4,0-.7.2-.9.5s-.3.7-.3,1.3Z"/>
      <path d="M27.6,53.3h-1.6v2.6h-.8v-6.4h2.1c.7,0,1.3.2,1.7.5.4.3.6.8.6,1.4,0,.4-.1.7-.3,1-.2.3-.5.5-.9.7l1.5,2.7v.1h-.9l-1.4-2.6ZM26,52.6h1.3c.4,0,.8-.1,1-.3s.4-.5.4-.9-.1-.7-.4-.9c-.2-.2-.6-.3-1-.3h-1.3v2.4Z"/>
      <path d="M32.4,56c-.6,0-1.2-.2-1.6-.6s-.6-1-.6-1.7v-.1c0-.5.1-.9.3-1.3s.4-.7.8-.9c.3-.2.7-.3,1.1-.3.6,0,1.1.2,1.4.6s.5,1,.5,1.7v.3h-3.3c0,.5.1.8.4,1.1s.6.4,1,.4c.3,0,.5-.1.7-.2s.4-.3.5-.5l.5.4c-.3.8-.9,1.1-1.7,1.1ZM32.3,51.7c-.3,0-.6.1-.8.4s-.4.6-.4,1h2.4v-.1c0-.4-.1-.7-.3-1s-.6-.3-.9-.3Z"/>
      <path d="M35.9,55.9h-.8v-6.8h.8v6.8Z"/>
      <path d="M40,55.9c0-.1-.1-.3-.1-.5-.4.4-.8.6-1.4.6-.5,0-.9-.1-1.2-.4-.3-.3-.5-.6-.5-1,0-.5.2-.9.6-1.2.4-.3.9-.4,1.6-.4h.8v-.4c0-.3-.1-.5-.3-.7s-.4-.3-.8-.3c-.3,0-.5.1-.7.2s-.3.3-.3.5h-.7c0-.2.1-.5.3-.7s.4-.4.7-.5.6-.2,1-.2c.5,0,1,.1,1.3.4s.5.7.5,1.1v2.2c0,.4.1.8.2,1v.3h-1ZM38.6,55.3c.3,0,.5-.1.7-.2s.4-.3.5-.5v-1h-.6c-1,0-1.5.3-1.5.9,0,.3.1.5.3.6s.3.2.6.2Z"/>
      <path d="M42.8,50v1.2h.9v.6h-.9v3c0,.2,0,.3.1.4s.2.1.4.1c.1,0,.2,0,.4-.1v.7c-.2.1-.4.1-.6.1-.4,0-.6-.1-.8-.3s-.3-.5-.3-.9v-2.9h-.9v-.6h.9v-1.2h.8v-.1Z"/>
      <path d="M44.5,49.9c0-.1,0-.2.1-.3s.2-.1.4-.1.3,0,.4.1.1.2.1.3,0,.2-.1.3-.2.1-.4.1-.3,0-.4-.1c-.1-.1-.1-.2-.1-.3ZM45.4,55.9h-.8v-4.8h.8v4.8Z"/>
      <path d="M46.3,53.5c0-.5.1-.9.3-1.3.2-.4.4-.7.8-.9.3-.2.7-.3,1.1-.3.6,0,1.2.2,1.6.7.4.4.6,1,.6,1.8v.1c0,.5-.1.9-.3,1.2-.2.4-.4.7-.8.9-.3.2-.7.3-1.1.3-.6,0-1.2-.2-1.6-.7-.4-.4-.6-1-.6-1.8h0ZM47.1,53.6c0,.5.1,1,.4,1.3.2.3.6.5,1,.5s.7-.2,1-.5c.2-.3.4-.8.4-1.4,0-.5-.1-.9-.4-1.3-.2-.3-.6-.5-1-.5s-.7.2-1,.5-.4.8-.4,1.4Z"/>
      <path d="M52.2,51.2v.6c.4-.5.8-.7,1.4-.7,1,0,1.5.6,1.5,1.7v3.1h-.8v-3.1c0-.3-.1-.6-.2-.8-.2-.2-.4-.2-.7-.2s-.5.1-.7.2c-.2.1-.4.3-.5.6v3.3h-.8v-4.8h.8v.1Z"/>
      <path d="M59.2,55.9c0-.1-.1-.3-.1-.5-.4.4-.8.6-1.4.6-.5,0-.9-.1-1.2-.4-.3-.3-.5-.6-.5-1,0-.5.2-.9.6-1.2.4-.3.9-.4,1.6-.4h.8v-.4c0-.3-.1-.5-.3-.7s-.4-.3-.8-.3c-.3,0-.5.1-.7.2s-.2.5-.2.7h-.8c0-.2.1-.5.3-.7s.4-.4.7-.5.6-.2,1-.2c.5,0,1,.1,1.3.4s.5.7.5,1.1v2.2c0,.4.1.8.2,1v.1h-1ZM57.8,55.3c.3,0,.5-.1.7-.2s.4-.3.5-.5v-1h-.6c-1,0-1.5.3-1.5.9,0,.3.1.5.3.6s.4.2.6.2Z"/>
      <path d="M61.8,55.9h-.8v-6.8h.8v6.8Z"/>
      <path d="M26,64.4v2.5h-.8v-6.4h2.4c.7,0,1.2.2,1.6.5.4.4.6.8.6,1.4s-.2,1.1-.6,1.4c-.4.3-.9.5-1.7.5h-1.5v.1ZM26,63.7h1.5c.5,0,.8-.1,1-.3s.4-.5.4-.9-.1-.7-.4-.9-.6-.3-1-.4h-1.5v2.5Z"/>
      <path d="M32.9,62.9h-.4c-.5,0-.9.2-1.1.7v3.3h-.8v-4.8h.8v.5c.3-.4.6-.6,1.1-.6.2,0,.3,0,.4.1v.8Z"/>
      <path d="M36.2,66.9c0-.1-.1-.3-.1-.5-.4.4-.8.6-1.4.6-.5,0-.9-.1-1.2-.4-.3-.3-.5-.6-.5-1,0-.5.2-.9.6-1.2.4-.3.9-.4,1.6-.4h.8v-.4c0-.3-.1-.5-.3-.7s-.4-.3-.8-.3c-.3,0-.5.1-.7.2s-.2.5-.2.7h-.8c0-.2.1-.5.3-.7s.4-.4.7-.5.6-.2,1-.2c.5,0,1,.1,1.3.4s.5.7.5,1.1v2.2c0,.4.1.8.2,1v.1h-1ZM34.8,66.3c.3,0,.5-.1.7-.2s.4-.3.5-.5v-1h-.6c-1,0-1.5.3-1.5.9,0,.3.1.5.3.6s.4.2.6.2Z"/>
      <path d="M37.8,64.5c0-.7.2-1.3.5-1.8.3-.4.8-.7,1.4-.7s1,.2,1.4.6v-.5h.7v4.6c0,.6-.2,1.1-.5,1.5-.4.4-.9.5-1.5.5-.3,0-.7-.1-1-.2s-.6-.3-.8-.6l.4-.5c.3.4.8.6,1.3.6.4,0,.7-.1.9-.3s.3-.5.3-.9v-.4c-.3.4-.8.6-1.3.6-.6,0-1-.2-1.4-.7-.2-.4-.4-1-.4-1.8ZM38.6,64.6c0,.5.1,1,.3,1.3s.5.5.9.5c.5,0,.9-.2,1.1-.7v-2.2c-.2-.5-.6-.7-1.1-.7-.4,0-.7.2-.9.5s-.3.7-.3,1.3Z"/>
      <path d="M43.6,62.2v.5c.3-.4.8-.6,1.4-.6.7,0,1.1.3,1.4.8l.6-.6c.3-.1.6-.2.9-.2,1,0,1.6.6,1.6,1.7v3.1h-.8v-3.1c0-.3-.1-.6-.2-.8-.2-.2-.4-.3-.8-.3-.3,0-.6.1-.8.3s-.3.4-.3.7v3.2h-.8v-3.1c0-.7-.3-1-1-1-.5,0-.9.2-1.1.7v3.4h-.8v-4.8h.7v.1Z"/>
      <path d="M53.5,66.9c0-.1-.1-.3-.1-.5-.4.4-.8.6-1.4.6-.5,0-.9-.1-1.2-.4-.3-.3-.5-.6-.5-1,0-.5.2-.9.6-1.2.4-.3.9-.4,1.6-.4h.8v-.4c0-.3-.1-.5-.3-.7s-.4-.3-.8-.3c-.3,0-.5.1-.7.2s-.3.3-.3.5h-.8c0-.2.1-.5.3-.7s.4-.4.7-.5.6-.2,1-.2c.5,0,1,.1,1.3.4s.5.7.5,1.1v2.2c0,.4.1.8.2,1v.3h-.9ZM52.1,66.3c.3,0,.5-.1.7-.2s.4-.3.5-.5v-1h-.6c-1,0-1.5.3-1.5.9,0,.3.1.5.3.6s.4.2.6.2Z"/>
      <path d="M56.4,61v1.2h.9v.6h-.9v3c0,.2,0,.3.1.4s.2.1.4.1c.1,0,.2,0,.4-.1v.7c-.2.1-.4.1-.6.1-.4,0-.6-.1-.8-.3s-.3-.5-.3-.9v-2.9h-.9v-.6h.9v-1.2h.8v-.1Z"/>
      <path d="M58,60.9c0-.1,0-.2.1-.3s.2-.1.4-.1.3,0,.4.1.1.2.1.3,0,.2-.1.3-.2.1-.4.1-.3,0-.4-.1c0-.1-.1-.2-.1-.3ZM58.9,66.9h-.8v-4.8h.8v4.8Z"/>
      <path d="M61.9,66.3c.3,0,.5-.1.8-.3.2-.2.3-.4.4-.7h.8c0,.3-.1.5-.3.8s-.4.4-.7.6c-.3.1-.6.2-.9.2-.6,0-1.2-.2-1.5-.6-.4-.4-.6-1-.6-1.8v-.1c0-.5.1-.9.3-1.2s.4-.6.7-.8.7-.3,1.1-.3c.5,0,1,.2,1.3.5.4.3.5.7.6,1.2h-.8c0-.3-.1-.6-.3-.8s-.5-.3-.8-.3c-.4,0-.7.1-1,.4-.2.3-.3.7-.3,1.3v.2c0,.5.1,1,.3,1.3s.5.4.9.4Z"/>
    </g>
    <g>
      <rect class="cls-1" x="402.2" y="38.3" width="45.6" height="45.4"/>
      <path d="M406.5,43.4h-2.7l-.6,1.7h-.9l2.4-6.4h.7l2.4,6.4h-.9l-.4-1.7ZM404,42.7h2.2l-1.1-3-1.1,3Z"/>
      <path d="M412.6,43.9l.9-3.6h.8l-1.4,4.8h-.7l-1.2-3.6-1.1,3.6h-.7l-1.4-4.8h.8l.9,3.6,1.1-3.6h.7l1.3,3.6Z"/>
      <path d="M417.9,45.1c0-.1-.1-.3-.1-.5-.4.4-.8.6-1.4.6-.5,0-.9-.1-1.2-.4-.3-.3-.5-.6-.5-1,0-.5.2-.9.6-1.2s.9-.4,1.6-.4h.8v-.4c0-.3-.1-.5-.3-.7-.2-.2-.4-.3-.8-.3-.3,0-.5.1-.7.2s-.3.3-.3.5h-.8c0-.2.1-.5.3-.7.2-.2.4-.4.7-.5.3-.1.6-.2,1-.2.5,0,1,.1,1.3.4s.5.7.5,1.1v2.3c0,.4.1.8.2,1v.1h-.9v.1ZM416.5,44.4c.3,0,.5-.1.7-.2s.4-.3.5-.5v-1h-.6c-1,0-1.5.3-1.5.9,0,.3.1.5.3.6s.3.2.6.2Z"/>
      <path d="M421.9,41h-.4c-.5,0-.9.2-1.1.7v3.4h-.8v-4.8h.8v.5c.3-.4.6-.6,1.1-.6.2,0,.3,0,.4.1v.7Z"/>
      <path d="M424.5,45.1c-.6,0-1.2-.2-1.6-.6s-.6-1-.6-1.7v-.1c0-.5.1-.9.3-1.3.2-.4.4-.7.8-.9.3-.2.7-.3,1.1-.3.6,0,1.1.2,1.4.6s.5,1,.5,1.7v.4h-3.2c0,.5.1.8.4,1.1s.6.4,1,.4c.3,0,.5-.1.7-.2s.4-.3.5-.5l.5.4c-.4.7-1,1-1.8,1ZM424.4,40.9c-.3,0-.6.1-.8.4s-.4.6-.4,1h2.4v-.1c0-.4-.1-.7-.3-1s-.6-.3-.9-.3Z"/>
      <path d="M427.9,40.3v.6c.4-.5.8-.7,1.4-.7,1,0,1.5.6,1.5,1.7v3.1h-.8v-3.1c0-.3-.1-.6-.2-.8-.2-.2-.4-.2-.7-.2s-.5.1-.7.2c-.2.1-.4.3-.5.6v3.4h-.8v-4.8h.8Z"/>
      <path d="M433.9,45.1c-.6,0-1.2-.2-1.6-.6s-.6-1-.6-1.7v-.1c0-.5.1-.9.3-1.3.2-.4.4-.7.8-.9.3-.2.7-.3,1.1-.3.6,0,1.1.2,1.4.6s.5,1,.5,1.7v.4h-3.2c0,.5.1.8.4,1.1s.6.4,1,.4c.3,0,.5-.1.7-.2s.4-.3.5-.5l.5.4c-.5.7-1.1,1-1.8,1ZM433.8,40.9c-.3,0-.6.1-.8.4s-.4.6-.4,1h2.4v-.1c0-.4-.1-.7-.3-1s-.6-.3-.9-.3Z"/>
      <path d="M439.2,43.8c0-.2-.1-.4-.2-.5-.2-.1-.5-.2-.9-.3s-.7-.2-1-.3c-.2-.1-.4-.3-.5-.4-.1-.2-.2-.4-.2-.6,0-.4.2-.7.5-1s.8-.4,1.3-.4,1,.1,1.3.4c.3.3.5.6.5,1.1h-.8c0-.2-.1-.4-.3-.6-.2-.2-.4-.2-.7-.2s-.5.1-.7.2-.3.3-.3.5.1.3.2.4.4.2.8.3.7.2,1,.3.4.3.6.5c.1.2.2.4.2.6,0,.4-.2.8-.5,1-.3.3-.8.4-1.3.4-.4,0-.7-.1-1-.2s-.5-.3-.7-.6c-.2-.2-.2-.5-.2-.8h.8c0,.3.1.5.3.6.2.2.5.2.8.2s.6-.1.7-.2c.2,0,.3-.2.3-.4Z"/>
      <path d="M443.7,43.8c0-.2-.1-.4-.2-.5-.2-.1-.5-.2-.9-.3s-.7-.2-1-.3c-.2-.1-.4-.3-.5-.4-.1-.2-.2-.4-.2-.6,0-.4.2-.7.5-1s.8-.4,1.3-.4,1,.1,1.3.4c.3.3.5.6.5,1.1h-.8c0-.2-.1-.4-.3-.6-.2-.2-.4-.2-.7-.2s-.5.1-.7.2-.3.3-.3.5.1.3.2.4.4.2.8.3.7.2,1,.3.4.3.6.5c.1.2.2.4.2.6,0,.4-.2.8-.5,1-.3.3-.8.4-1.3.4-.4,0-.7-.1-1-.2s-.5-.3-.7-.6c-.2-.2-.2-.5-.2-.8h.8c0,.3.1.5.3.6.2.2.5.2.8.2s.6-.1.7-.2c.2,0,.3-.2.3-.4Z"/>
      <path d="M405.6,49.7h.8v4.5c0,.6-.2,1.1-.6,1.4-.4.3-.9.5-1.5.5s-1.1-.2-1.5-.5-.5-.8-.5-1.4h.8c0,.4.1.7.3.9.2.2.5.3.9.3.3,0,.6-.1.8-.3.2-.2.3-.5.3-.9v-4.5h.2Z"/>
      <path d="M410.5,55.6c-.3.4-.8.6-1.4.6-.5,0-.9-.1-1.2-.4-.3-.3-.4-.7-.4-1.3v-3.1h.8v3.1c0,.7.3,1.1.9,1.1s1-.2,1.2-.7v-3.5h.8v4.8h-.8l.1-.6Z"/>
      <path d="M412.2,53.6c0-.7.2-1.3.5-1.8.3-.4.8-.7,1.4-.7s1,.2,1.3.6v-2.5h.8v6.8h-.7v-.5c-.3.4-.8.6-1.4.6s-1-.2-1.3-.7c-.5-.4-.6-1-.6-1.8h0ZM413,53.7c0,.5.1,1,.3,1.3s.5.5.9.5c.5,0,.9-.2,1.1-.7v-2.2c-.2-.4-.6-.7-1.1-.7-.4,0-.7.2-.9.5s-.3.7-.3,1.3Z"/>
      <path d="M417.1,53.6c0-.7.2-1.3.5-1.8.3-.4.8-.7,1.4-.7s1,.2,1.4.6v-.5h.7v4.7c0,.6-.2,1.1-.5,1.5-.4.4-.9.5-1.5.5-.3,0-.7-.1-1-.2s-.6-.3-.8-.6l.4-.5c.3.4.8.6,1.3.6.4,0,.7-.1.9-.3.2-.2.3-.5.3-.9v-.4c-.3.4-.8.6-1.3.6-.6,0-1-.2-1.4-.7-.3-.5-.4-1.1-.4-1.9ZM417.9,53.7c0,.5.1,1,.3,1.3.2.3.5.5.9.5.5,0,.9-.2,1.1-.7v-2.2c-.2-.5-.6-.7-1.1-.7-.4,0-.7.2-.9.5s-.3.7-.3,1.3Z"/>
      <path d="M424.1,56.1c-.6,0-1.2-.2-1.6-.6s-.6-1-.6-1.7v-.1c0-.5.1-.9.3-1.3.2-.4.4-.7.8-.9.3-.2.7-.3,1.1-.3.6,0,1.1.2,1.4.6s.5,1,.5,1.7v.4h-3.2c0,.5.1.8.4,1.1s.6.4,1,.4c.3,0,.5-.1.7-.2s.4-.3.5-.5l.5.4c-.4.7-1,1-1.8,1ZM424,51.9c-.3,0-.6.1-.8.4s-.4.6-.4,1h2.4v-.1c0-.4-.1-.7-.3-1s-.6-.3-.9-.3Z"/>
      <path d="M427.5,51.3v.5c.3-.4.8-.6,1.4-.6.7,0,1.1.3,1.4.8.2-.2.4-.4.6-.6.3-.1.6-.2.9-.2,1,0,1.6.6,1.6,1.7v3.2h-.8v-3.2c0-.3-.1-.6-.2-.8-.2-.2-.4-.3-.8-.3-.3,0-.6.1-.8.3-.2.2-.3.4-.3.7v3.2h-.8v-3.1c0-.7-.3-1-1-1-.5,0-.9.2-1.1.7v3.5h-.8v-4.8h.7Z"/>
      <path d="M436.4,56.1c-.6,0-1.2-.2-1.6-.6s-.6-1-.6-1.7v-.1c0-.5.1-.9.3-1.3.2-.4.4-.7.8-.9.3-.2.7-.3,1.1-.3.6,0,1.1.2,1.4.6s.5,1,.5,1.7v.4h-3.3c0,.5.1.8.4,1.1s.6.4,1,.4c.3,0,.5-.1.7-.2s.4-.3.5-.5l.5.4c-.3.7-.9,1-1.7,1ZM436.3,51.9c-.3,0-.6.1-.8.4s-.4.6-.4,1h2.4v-.1c0-.4-.1-.7-.3-1s-.6-.3-.9-.3Z"/>
      <path d="M439.8,51.3v.6c.4-.5.8-.7,1.4-.7,1,0,1.5.6,1.5,1.7v3.1h-.8v-3.1c0-.3-.1-.6-.2-.8-.2-.2-.4-.2-.7-.2s-.5.1-.7.2c-.2.1-.4.3-.5.6v3.4h-.8v-4.8h.8Z"/>
      <path d="M444.9,50.1v1.2h.9v.6h-.9v3c0,.2,0,.3.1.4s.2.1.4.1c.1,0,.2,0,.4-.1v.7c-.2.1-.4.1-.6.1-.4,0-.6-.1-.8-.3-.2-.2-.3-.5-.3-.9v-3h-.9v-.6h.9v-1.2h.8Z"/>
      <path d="M406.5,65.4h-2.7l-.6,1.7h-.9l2.4-6.4h.7l2.4,6.4h-.9l-.4-1.7ZM404,64.7h2.2l-1.1-3-1.1,3Z"/>
      <path d="M410.4,66.5c.3,0,.5-.1.8-.3.2-.2.3-.4.4-.7h.8c0,.3-.1.5-.3.8s-.4.4-.7.6c-.3.1-.6.2-.9.2-.6,0-1.2-.2-1.5-.6-.4-.4-.6-1-.6-1.8v-.1c0-.5.1-.9.3-1.2s.4-.6.7-.8c.3-.2.7-.3,1.1-.3.5,0,1,.2,1.3.5.4.3.5.7.6,1.2h-.8c0-.3-.1-.6-.3-.8-.2-.2-.5-.3-.8-.3-.4,0-.7.1-1,.4-.2.3-.3.7-.3,1.3v.2c0,.5.1,1,.3,1.3s.5.4.9.4Z"/>
      <path d="M414.1,61.1v1.2h.9v.6h-.9v3c0,.2,0,.3.1.4s.2.1.4.1c.1,0,.2,0,.4-.1v.7c-.2.1-.4.1-.6.1-.4,0-.6-.1-.8-.3-.2-.2-.3-.5-.3-.9v-3h-.9v-.6h.9v-1.2h.8Z"/>
      <path d="M415.8,61c0-.1,0-.2.1-.3s.2-.1.4-.1.3,0,.4.1.1.2.1.3,0,.2-.1.3-.2.1-.4.1-.3,0-.4-.1c-.1,0-.1-.1-.1-.3ZM416.7,67.1h-.8v-4.8h.8v4.8Z"/>
      <path d="M417.6,64.6c0-.5.1-.9.3-1.3.2-.4.4-.7.8-.9.3-.2.7-.3,1.1-.3.6,0,1.2.2,1.6.7.4.4.6,1,.6,1.8v.1c0,.5-.1.9-.3,1.2-.2.4-.4.7-.8.9-.3.2-.7.3-1.1.3-.6,0-1.2-.2-1.6-.7-.4-.4-.6-1-.6-1.8h0ZM418.4,64.7c0,.5.1,1,.4,1.3.2.3.6.5,1,.5s.7-.2,1-.5c.2-.3.4-.8.4-1.4,0-.5-.1-.9-.4-1.3-.2-.3-.6-.5-1-.5s-.7.2-1,.5-.4.8-.4,1.4Z"/>
      <path d="M423.5,62.3v.6c.4-.5.8-.7,1.4-.7,1,0,1.5.6,1.5,1.7v3.1h-.8v-3.1c0-.3-.1-.6-.2-.8-.2-.2-.4-.2-.7-.2s-.5.1-.7.2c-.2.1-.4.3-.5.6v3.4h-.8v-4.8h.8Z"/>
      <path d="M406.5,75.1h-2.8v2.3h3.2v.7h-4.1v-6.4h4v.7h-3.2v2.1h2.8v.6h.1Z"/>
      <path d="M408.1,78.1v-4.2h-.8v-.6h.8v-.5c0-.5.1-.9.4-1.2s.7-.4,1.2-.4c.2,0,.4,0,.6.1v.7h-.4c-.3,0-.5.1-.6.2s-.2.4-.2.7v.5h1v.5h-1v4.1h-1v.1Z"/>
      <path d="M411,78.1v-4.2h-.8v-.6h.8v-.5c0-.5.1-.9.4-1.2s.7-.4,1.2-.4c.2,0,.4,0,.6.1v.7h-.4c-.3,0-.5.1-.6.2s-.2.4-.2.7v.5h1v.5h-1v4.1h-1v.1Z"/>
      <path d="M415.5,78.1c-.6,0-1.2-.2-1.6-.6s-.6-1-.6-1.7v-.1c0-.5.1-.9.3-1.3.2-.4.4-.7.8-.9.3-.2.7-.3,1.1-.3.6,0,1.1.2,1.4.6s.5,1,.5,1.7v.4h-3.2c0,.5.1.8.4,1.1.3.3.6.4,1,.4.3,0,.5-.1.7-.2s.4-.3.5-.5l.5.4c-.4.7-1,1-1.8,1ZM415.4,73.9c-.3,0-.6.1-.8.4s-.4.6-.4,1h2.4v-.1c0-.4-.1-.7-.3-1s-.5-.3-.9-.3Z"/>
      <path d="M420,77.5c.3,0,.5-.1.8-.3.2-.2.3-.4.4-.7h.8c0,.3-.1.5-.3.8s-.4.4-.7.6c-.3.1-.6.2-.9.2-.6,0-1.2-.2-1.5-.6-.4-.4-.6-1-.6-1.8v-.1c0-.5.1-.9.3-1.2s.4-.6.7-.8c.3-.2.7-.3,1.1-.3.5,0,1,.2,1.3.5.4.3.5.7.6,1.2h-.8c0-.3-.1-.6-.3-.8-.2-.2-.5-.3-.8-.3-.4,0-.7.1-1,.4-.2.3-.3.7-.3,1.3v.2c0,.5.1,1,.3,1.3s.5.4.9.4Z"/>
      <path d="M423.8,72.1v1.2h.9v.6h-.9v3c0,.2,0,.3.1.4s.2.1.4.1c.1,0,.2,0,.4-.1v.7c-.2.1-.4.1-.6.1-.4,0-.6-.1-.8-.3-.2-.2-.3-.5-.3-.9v-3h-.9v-.6h.9v-1.2s.8,0,.8,0Z"/>
    </g>
    <g>
      <rect class="cls-1" x="233.1" y="101.1" width="104.6" height="44.3"/>
      <path d="M238.2,102.2h-2.1v5.7h-.8v-5.7h-2.1v-.7h4.9v.7h.1Z"/>
      <path d="M240.8,108c-.6,0-1.2-.2-1.6-.6s-.6-1-.6-1.7v-.1c0-.5.1-.9.3-1.3s.4-.7.8-.9c.3-.2.7-.3,1.1-.3.6,0,1.1.2,1.4.6s.5,1,.5,1.7v.3h-3.2c0,.5.1.8.4,1.1.3.3.6.4,1,.4.3,0,.5-.1.7-.2s.4-.3.5-.5l.5.4c-.4.8-1,1.1-1.8,1.1ZM240.7,103.7c-.3,0-.6.1-.8.4s-.4.6-.4,1h2.4v-.1c0-.4-.1-.7-.3-1s-.5-.3-.9-.3Z"/>
      <path d="M244.3,107.9h-.8v-6.8h.8v6.8Z"/>
      <path d="M246.3,107.9h-.8v-6.8h.8v6.8Z"/>
      <path d="M247.5,101.9c0-.1,0-.2.1-.3.1-.1.2-.1.4-.1s.3,0,.4.1.1.2.1.3,0,.2-.1.3-.2.1-.4.1-.3,0-.4-.1c-.1-.1-.1-.2-.1-.3ZM248.3,107.9h-.8v-4.8h.8v4.8Z"/>
      <path d="M250.2,103.1v.6c.4-.5.8-.7,1.4-.7,1,0,1.5.6,1.5,1.7v3.1h-.8v-3.1c0-.3-.1-.6-.2-.8-.2-.2-.4-.2-.7-.2s-.5.1-.7.2-.4.3-.5.6v3.4h-.8v-4.8s.8,0,.8,0Z"/>
      <path d="M254.1,105.5c0-.7.2-1.3.5-1.8.3-.4.8-.7,1.4-.7s1,.2,1.4.6v-.5h.7v4.6c0,.6-.2,1.1-.5,1.5-.4.4-.9.5-1.5.5-.3,0-.7-.1-1-.2s-.6-.3-.8-.6l.4-.5c.3.4.8.6,1.3.6.4,0,.7-.1.9-.3.2-.2.3-.5.3-.9v-.4c-.3.4-.8.6-1.3.6-.6,0-1-.2-1.4-.7-.3-.5-.4-1.1-.4-1.8ZM254.9,105.6c0,.5.1,1,.3,1.3s.5.5.9.5c.5,0,.9-.2,1.1-.7v-2.2c-.2-.5-.6-.7-1.1-.7-.4,0-.7.2-.9.5s-.3.7-.3,1.3Z"/>
      <path d="M238.5,118c-.2.3-.5.5-.9.7s-.8.2-1.4.2c-.5,0-1-.1-1.4-.4-.4-.2-.7-.6-.9-1-.2-.5-.3-1-.3-1.6v-.6c0-1,.2-1.7.7-2.2.4-.5,1.1-.8,1.9-.8.7,0,1.2.2,1.6.5.4.3.7.8.7,1.5h-.8c-.2-.8-.7-1.3-1.5-1.3-.6,0-1,.2-1.3.6s-.4,1-.4,1.7v.5c0,.7.2,1.3.5,1.7.3.4.8.6,1.3.6.3,0,.6,0,.8-.1s.4-.2.6-.4v-1.4h-1.5v-.7h2.3v2.5h0Z"/>
      <path d="M242.6,118.4c-.3.4-.8.6-1.4.6-.5,0-.9-.1-1.2-.4s-.4-.7-.4-1.3v-3.1h.8v3.1c0,.7.3,1.1.9,1.1s1-.2,1.2-.7v-3.5h.8v4.8h-.8l.1-.6Z"/>
      <path d="M244.4,112.9c0-.1,0-.2.1-.3.1-.1.2-.1.4-.1s.3,0,.4.1.1.2.1.3,0,.2-.1.3-.2.1-.4.1-.3,0-.4-.1c-.1-.1-.1-.2-.1-.3ZM245.3,118.9h-.8v-4.8h.8v4.8Z"/>
      <path d="M246.2,116.5c0-.7.2-1.3.5-1.8.3-.4.8-.7,1.4-.7s1,.2,1.3.6v-2.5h.8v6.8h-.7v-.5c-.3.4-.8.6-1.4.6s-1-.2-1.3-.7c-.4-.5-.6-1-.6-1.8h0ZM247,116.6c0,.5.1,1,.3,1.3s.5.5.9.5c.5,0,.9-.2,1.1-.7v-2.2c-.2-.4-.6-.7-1.1-.7-.4,0-.7.2-.9.5s-.3.7-.3,1.3Z"/>
      <path d="M251.3,112.9c0-.1,0-.2.1-.3.1-.1.2-.1.4-.1s.3,0,.4.1.1.2.1.3,0,.2-.1.3-.2.1-.4.1-.3,0-.4-.1c-.1-.1-.1-.2-.1-.3ZM252.2,118.9h-.8v-4.8h.8v4.8Z"/>
      <path d="M254.1,114.1v.6c.4-.5.8-.7,1.4-.7,1,0,1.5.6,1.5,1.7v3.1h-.8v-3.1c0-.3-.1-.6-.2-.8-.2-.2-.4-.2-.7-.2s-.5.1-.7.2-.4.3-.5.6v3.4h-.8v-4.8s.8,0,.8,0Z"/>
      <path d="M257.9,116.5c0-.7.2-1.3.5-1.8.3-.4.8-.7,1.4-.7s1,.2,1.4.6v-.5h.7v4.6c0,.6-.2,1.1-.5,1.5-.4.4-.9.5-1.5.5-.3,0-.7-.1-1-.2s-.6-.3-.8-.6l.4-.5c.3.4.8.6,1.3.6.4,0,.7-.1.9-.3.2-.2.3-.5.3-.9v-.4c-.3.4-.8.6-1.3.6-.6,0-1-.2-1.4-.7-.2-.5-.4-1.1-.4-1.8ZM258.7,116.6c0,.5.1,1,.3,1.3.2.3.5.5.9.5.5,0,.9-.2,1.1-.7v-2.2c-.2-.5-.6-.7-1.1-.7-.4,0-.7.2-.9.5s-.3.7-.3,1.3Z"/>
      <path d="M233.8,129.9v-6.4h1.8c.6,0,1,.1,1.5.4s.8.6,1,1.1.4,1,.4,1.6v.4c0,.6-.1,1.1-.3,1.6s-.6.8-1,1-.9.4-1.5.4h-1.9v-.1ZM234.6,124.2v5h.9c.7,0,1.2-.2,1.5-.6.4-.4.5-1,.5-1.7v-.4c0-.7-.2-1.3-.5-1.7-.3-.4-.8-.6-1.5-.6,0,0-.9,0-.9,0Z"/>
      <path d="M241.4,130c-.6,0-1.2-.2-1.6-.6s-.6-1-.6-1.7v-.1c0-.5.1-.9.3-1.3s.4-.7.8-.9c.3-.2.7-.3,1.1-.3.6,0,1.1.2,1.4.6s.5,1,.5,1.7v.3h-3.3c0,.5.1.8.4,1.1.3.3.6.4,1,.4.3,0,.5-.1.7-.2s.4-.3.5-.5l.5.4c-.3.8-.9,1.1-1.7,1.1ZM241.3,125.7c-.3,0-.6.1-.8.4s-.4.6-.4,1h2.4v-.1c0-.4-.1-.7-.3-1s-.6-.3-.9-.3Z"/>
      <path d="M245.5,128.8l1.2-3.7h.8l-1.7,4.8h-.6l-1.7-4.8h.8l1.2,3.7Z"/>
      <path d="M250.1,130c-.6,0-1.2-.2-1.6-.6s-.6-1-.6-1.7v-.1c0-.5.1-.9.3-1.3s.4-.7.8-.9c.3-.2.7-.3,1.1-.3.6,0,1.1.2,1.4.6s.5,1,.5,1.7v.3h-3.2c0,.5.1.8.4,1.1.3.3.6.4,1,.4.3,0,.5-.1.7-.2s.4-.3.5-.5l.5.4c-.4.8-1,1.1-1.8,1.1ZM250,125.7c-.3,0-.6.1-.8.4s-.4.6-.4,1h2.4v-.1c0-.4-.1-.7-.3-1s-.6-.3-.9-.3Z"/>
      <path d="M253.6,129.9h-.8v-6.8h.8v6.8Z"/>
      <path d="M254.5,127.5c0-.5.1-.9.3-1.3s.4-.7.8-.9c.3-.2.7-.3,1.1-.3.6,0,1.2.2,1.6.7.4.4.6,1,.6,1.8v.1c0,.5-.1.9-.3,1.2-.2.4-.4.7-.8.9-.3.2-.7.3-1.1.3-.6,0-1.2-.2-1.6-.7-.4-.5-.6-1-.6-1.8h0ZM255.3,127.6c0,.5.1,1,.4,1.3.2.3.6.5,1,.5s.7-.2,1-.5c.2-.3.4-.8.4-1.4,0-.5-.1-.9-.4-1.3-.2-.3-.6-.5-1-.5s-.7.2-1,.5-.4.8-.4,1.4Z"/>
      <path d="M263.7,127.6c0,.7-.2,1.3-.5,1.7s-.8.7-1.3.7c-.6,0-1-.2-1.4-.5v2.3h-.8v-6.6h.7v.5c.3-.4.8-.6,1.4-.6s1,.2,1.4.6c.3.4.5,1,.5,1.9h0ZM262.9,127.5c0-.5-.1-1-.3-1.3s-.5-.5-.9-.5c-.5,0-.9.2-1.1.7v2.3c.2.4.6.7,1.1.7.4,0,.7-.2.9-.5.1-.4.3-.8.3-1.4Z"/>
      <path d="M264.5,123.9c0-.1,0-.2.1-.3.1-.1.2-.1.4-.1s.3,0,.4.1.1.2.1.3,0,.2-.1.3-.2.1-.4.1-.3,0-.4-.1c0-.1-.1-.2-.1-.3ZM265.4,129.9h-.8v-4.8h.8v4.8Z"/>
      <path d="M267.3,125.1v.6c.4-.5.8-.7,1.4-.7,1,0,1.5.6,1.5,1.7v3.1h-.8v-3.1c0-.3-.1-.6-.2-.8-.2-.2-.4-.2-.7-.2s-.5.1-.7.2-.4.3-.5.6v3.4h-.8v-4.8s.8,0,.8,0Z"/>
      <path d="M271.1,127.5c0-.7.2-1.3.5-1.8.3-.4.8-.7,1.4-.7s1,.2,1.4.6v-.5h.7v4.6c0,.6-.2,1.1-.5,1.5-.4.4-.9.5-1.5.5-.3,0-.7-.1-1-.2s-.6-.3-.8-.6l.4-.5c.3.4.8.6,1.3.6.4,0,.7-.1.9-.3.2-.2.3-.5.3-.9v-.4c-.3.4-.8.6-1.3.6-.6,0-1-.2-1.4-.7-.2-.5-.4-1.1-.4-1.8ZM271.9,127.6c0,.5.1,1,.3,1.3.2.3.5.5.9.5.5,0,.9-.2,1.1-.7v-2.2c-.2-.5-.6-.7-1.1-.7-.4,0-.7.2-.9.5s-.3.7-.3,1.3Z"/>
      <path d="M281.2,129.4c-.3.4-.8.6-1.4.6-.5,0-.9-.1-1.2-.4-.3-.3-.4-.7-.4-1.3v-3.1h.8v3.1c0,.7.3,1.1.9,1.1s1-.2,1.2-.7v-3.5h.8v4.8h-.8l.1-.6Z"/>
      <path d="M283.8,125.1v.6c.4-.5.8-.7,1.4-.7,1,0,1.5.6,1.5,1.7v3.1h-.8v-3.1c0-.3-.1-.6-.2-.8-.2-.2-.4-.2-.7-.2s-.5.1-.7.2-.4.3-.5.6v3.4h-.8v-4.8s.8,0,.8,0Z"/>
      <path d="M287.6,127.5c0-.7.2-1.3.5-1.8.3-.4.8-.7,1.4-.7s1,.2,1.3.6v-2.5h.8v6.8h-.7v-.5c-.3.4-.8.6-1.4.6s-1-.2-1.3-.7c-.4-.5-.6-1-.6-1.8h0ZM288.4,127.6c0,.5.1,1,.3,1.3s.5.5.9.5c.5,0,.9-.2,1.1-.7v-2.2c-.2-.4-.6-.7-1.1-.7-.4,0-.7.2-.9.5s-.3.7-.3,1.3Z"/>
      <path d="M294.7,130c-.6,0-1.2-.2-1.6-.6s-.6-1-.6-1.7v-.1c0-.5.1-.9.3-1.3.2-.4.4-.7.8-.9.3-.2.7-.3,1.1-.3.6,0,1.1.2,1.4.6s.5,1,.5,1.7v.3h-3.2c0,.5.1.8.4,1.1.3.3.6.4,1,.4.3,0,.5-.1.7-.2s.4-.3.5-.5l.5.4c-.4.8-1,1.1-1.8,1.1ZM294.6,125.7c-.3,0-.6.1-.8.4s-.4.6-.4,1h2.4v-.1c0-.4-.1-.7-.3-1s-.6-.3-.9-.3Z"/>
      <path d="M299.6,125.9h-.4c-.5,0-.9.2-1.1.7v3.4h-.8v-4.8h.8v.5c.3-.4.6-.6,1.1-.6.2,0,.3,0,.4.1v.7Z"/>
      <path d="M302.9,128.6c0-.2-.1-.4-.2-.5-.2-.1-.5-.2-.9-.3-.4-.1-.7-.2-1-.3-.2-.1-.4-.3-.5-.4-.1-.2-.2-.4-.2-.6,0-.4.2-.7.5-1s.8-.4,1.3-.4,1,.1,1.3.4.5.6.5,1.1h-.8c0-.2-.1-.4-.3-.6-.2-.2-.4-.2-.7-.2s-.5.1-.7.2-.3.3-.3.5.1.3.2.4.4.2.8.3c.4.1.7.2,1,.3s.4.3.6.5c.1.2.2.4.2.6,0,.4-.2.8-.5,1-.3.3-.8.4-1.3.4-.4,0-.7-.1-1-.2s-.5-.3-.7-.6c-.2-.2-.2-.5-.2-.8h.8c0,.3.1.5.3.6.2.2.5.2.8.2s.6-.1.7-.2c.2,0,.3-.2.3-.4Z"/>
      <path d="M305.7,124v1.2h.9v.6h-.9v3c0,.2,0,.3.1.4s.2.1.4.1c.1,0,.2,0,.4-.1v.7c-.2.1-.4.1-.6.1-.4,0-.6-.1-.8-.3-.2-.2-.3-.5-.3-.9v-2.9h-.9v-.6h.9v-1.2h.8v-.1Z"/>
      <path d="M310.3,129.9c0-.1-.1-.3-.1-.5-.4.4-.8.6-1.4.6-.5,0-.9-.1-1.2-.4-.3-.3-.5-.6-.5-1,0-.5.2-.9.6-1.2.4-.3.9-.4,1.6-.4h.8v-.4c0-.3-.1-.5-.3-.7-.2-.2-.4-.3-.8-.3-.3,0-.5.1-.7.2s-.3.3-.3.5h-.8c0-.2.1-.5.3-.7.2-.2.4-.4.7-.5.3-.1.6-.2,1-.2.5,0,1,.1,1.3.4s.5.7.5,1.1v2.2c0,.4.1.8.2,1v.1h-.9v.2ZM308.9,129.3c.3,0,.5-.1.7-.2s.4-.3.5-.5v-1h-.6c-1,0-1.5.3-1.5.9,0,.3.1.5.3.6s.4.2.6.2Z"/>
      <path d="M312.8,125.1v.6c.4-.5.8-.7,1.4-.7,1,0,1.5.6,1.5,1.7v3.1h-.7v-3.1c0-.3-.1-.6-.2-.8-.2-.2-.4-.2-.7-.2s-.5.1-.7.2-.4.3-.5.6v3.4h-.8v-4.8s.7,0,.7,0Z"/>
      <path d="M316.7,127.5c0-.7.2-1.3.5-1.8.3-.4.8-.7,1.4-.7s1,.2,1.3.6v-2.5h.8v6.8h-.7v-.5c-.3.4-.8.6-1.4.6s-1-.2-1.3-.7c-.5-.5-.6-1-.6-1.8h0ZM317.5,127.6c0,.5.1,1,.3,1.3s.5.5.9.5c.5,0,.9-.2,1.1-.7v-2.2c-.2-.4-.6-.7-1.1-.7-.4,0-.7.2-.9.5s-.3.7-.3,1.3Z"/>
      <path d="M321.8,123.9c0-.1,0-.2.1-.3.1-.1.2-.1.4-.1s.3,0,.4.1.1.2.1.3,0,.2-.1.3-.2.1-.4.1-.3,0-.4-.1c-.1-.1-.1-.2-.1-.3ZM322.6,129.9h-.8v-4.8h.8v4.8Z"/>
      <path d="M324.5,125.1v.6c.4-.5.8-.7,1.4-.7,1,0,1.5.6,1.5,1.7v3.1h-.8v-3.1c0-.3-.1-.6-.2-.8-.2-.2-.4-.2-.7-.2s-.5.1-.7.2-.4.3-.5.6v3.4h-.8v-4.8s.8,0,.8,0Z"/>
      <path d="M328.4,127.5c0-.7.2-1.3.5-1.8.3-.4.8-.7,1.4-.7s1,.2,1.4.6v-.5h.7v4.6c0,.6-.2,1.1-.5,1.5-.4.4-.9.5-1.5.5-.3,0-.7-.1-1-.2s-.6-.3-.8-.6l.4-.5c.3.4.8.6,1.3.6.4,0,.7-.1.9-.3.2-.2.3-.5.3-.9v-.4c-.3.4-.8.6-1.3.6-.6,0-1-.2-1.4-.7-.3-.5-.4-1.1-.4-1.8ZM329.2,127.6c0,.5.1,1,.3,1.3.2.3.5.5.9.5.5,0,.9-.2,1.1-.7v-2.2c-.2-.5-.6-.7-1.1-.7-.4,0-.7.2-.9.5s-.3.7-.3,1.3Z"/>
      <path d="M238.7,137.9c0,.6-.1,1.2-.3,1.6-.2.5-.5.8-.9,1.1s-.8.4-1.4.4c-.5,0-1-.1-1.3-.4s-.7-.6-.9-1.1-.3-1-.3-1.6v-.5c0-.6.1-1.2.3-1.6.2-.5.5-.8.9-1.1.4-.3.8-.4,1.3-.4s1,.1,1.4.4c.4.2.7.6.9,1.1s.3,1,.3,1.6v.5ZM237.9,137.5c0-.8-.2-1.3-.5-1.7s-.7-.6-1.3-.6c-.5,0-1,.2-1.3.6-.3.4-.5,1-.5,1.7v.5c0,.7.2,1.3.5,1.7s.7.6,1.3.6c.5,0,1-.2,1.3-.6s.5-1,.5-1.7v-.5Z"/>
      <path d="M243.7,138.6c0,.7-.2,1.3-.5,1.7s-.8.7-1.3.7c-.6,0-1-.2-1.4-.5v2.3h-.8v-6.6h.7v.5c.3-.4.8-.6,1.4-.6s1,.2,1.4.6c.3.4.5,1,.5,1.9h0ZM242.9,138.5c0-.5-.1-1-.3-1.3s-.5-.5-.9-.5c-.5,0-.9.2-1.1.7v2.3c.2.4.6.7,1.1.7.4,0,.7-.2.9-.5.2-.4.3-.8.3-1.4Z"/>
      <path d="M246.5,141c-.6,0-1.2-.2-1.6-.6s-.6-1-.6-1.7v-.1c0-.5.1-.9.3-1.3.2-.4.4-.7.8-.9.3-.2.7-.3,1.1-.3.6,0,1.1.2,1.4.6s.5,1,.5,1.7v.3h-3.2c0,.5.1.8.4,1.1.3.3.6.4,1,.4.3,0,.5-.1.7-.2s.4-.3.5-.5l.5.4c-.4.8-1,1.1-1.8,1.1ZM246.4,136.7c-.3,0-.6.1-.8.4s-.4.6-.4,1h2.4v-.1c0-.4-.1-.7-.3-1s-.5-.3-.9-.3Z"/>
      <path d="M249.9,136.1v.6c.4-.5.8-.7,1.4-.7,1,0,1.5.6,1.5,1.7v3.1h-.8v-3.1c0-.3-.1-.6-.2-.8-.2-.2-.4-.2-.7-.2s-.5.1-.7.2c-.2.1-.4.3-.5.6v3.4h-.8v-4.8h.8Z"/>
      <path d="M253.9,134.9c0-.1,0-.2.1-.3.1-.1.2-.1.4-.1s.3,0,.4.1.1.2.1.3,0,.2-.1.3-.2.1-.4.1-.3,0-.4-.1c0-.1-.1-.2-.1-.3ZM254.8,140.9h-.8v-4.8h.8v4.8Z"/>
      <path d="M256.7,136.1v.6c.4-.5.8-.7,1.4-.7,1,0,1.5.6,1.5,1.7v3.1h-.8v-3.1c0-.3-.1-.6-.2-.8-.2-.2-.4-.2-.7-.2s-.5.1-.7.2c-.2.1-.4.3-.5.6v3.4h-.8v-4.8h.8Z"/>
      <path d="M260.5,138.5c0-.7.2-1.3.5-1.8.3-.4.8-.7,1.4-.7s1,.2,1.4.6v-.5h.7v4.6c0,.6-.2,1.1-.5,1.5-.4.4-.9.5-1.5.5-.3,0-.7-.1-1-.2s-.6-.3-.8-.6l.4-.5c.3.4.8.6,1.3.6.4,0,.7-.1.9-.3.2-.2.3-.5.3-.9v-.4c-.3.4-.8.6-1.3.6-.6,0-1-.2-1.4-.7-.2-.5-.4-1.1-.4-1.8ZM261.3,138.6c0,.5.1,1,.3,1.3.2.3.5.5.9.5.5,0,.9-.2,1.1-.7v-2.2c-.2-.5-.6-.7-1.1-.7-.4,0-.7.2-.9.5s-.3.7-.3,1.3Z"/>
      <path d="M270.6,140.4c-.3.4-.8.6-1.4.6-.5,0-.9-.1-1.2-.4-.3-.3-.4-.7-.4-1.3v-3.1h.8v3.1c0,.7.3,1.1.9,1.1s1-.2,1.2-.7v-3.5h.8v4.8h-.8l.1-.6Z"/>
      <path d="M276.4,138.6c0,.7-.2,1.3-.5,1.7s-.8.7-1.3.7c-.6,0-1-.2-1.4-.5v2.3h-.8v-6.6h.7v.5c.3-.4.8-.6,1.4-.6s1,.2,1.4.6c.4.4.5,1,.5,1.9h0ZM275.6,138.5c0-.5-.1-1-.3-1.3s-.5-.5-.9-.5c-.5,0-.9.2-1.1.7v2.3c.2.4.6.7,1.1.7.4,0,.7-.2.9-.5.2-.4.3-.8.3-1.4Z"/>
    </g>
    <g>
      <rect class="cls-1" x="20.6" y="19.7" width="70" height="18.7"/>
      <path d="M25.9,23.8h-2.5v2.6h-1.4v-6.4h4.2v1.1h-2.8v1.7h2.5s0,1,0,1Z"/>
      <path d="M28.9,26.5c-.7,0-1.3-.2-1.7-.6-.4-.4-.7-1-.7-1.7v-.1c0-.5.1-.9.3-1.3.2-.4.4-.7.8-.9.3-.2.7-.3,1.2-.3.7,0,1.2.2,1.5.6.4.4.6,1,.6,1.7v.5h-3c0,.3.2.6.4.7.2.2.5.3.8.3.5,0,.9-.2,1.1-.5l.6.7c-.2.3-.4.5-.8.6-.3.2-.7.3-1.1.3ZM28.8,22.6c-.3,0-.5.1-.6.3-.2.2-.3.4-.3.7h1.8v-.1c0-.3-.1-.5-.2-.7-.3-.1-.5-.2-.7-.2Z"/>
      <path d="M33.6,26.5c-.7,0-1.3-.2-1.7-.6-.4-.4-.7-1-.7-1.7v-.1c0-.5.1-.9.3-1.3.2-.4.4-.7.8-.9.3-.2.7-.3,1.2-.3.7,0,1.2.2,1.5.6.4.4.6,1,.6,1.7v.5h-3c0,.3.2.6.4.7.2.2.5.3.8.3.5,0,.9-.2,1.1-.5l.6.7c-.2.3-.4.5-.8.6-.4.2-.7.3-1.1.3ZM33.4,22.6c-.3,0-.5.1-.6.3-.2.2-.3.4-.3.7h1.8v-.1c0-.3-.1-.5-.2-.7-.2-.1-.4-.2-.7-.2Z"/>
      <path d="M35.9,24c0-.7.2-1.3.5-1.8.3-.4.8-.7,1.4-.7.5,0,.8.2,1.1.5v-2.4h1.3v6.8h-1.2v-.5c-.3.4-.7.6-1.2.6-.6,0-1-.2-1.3-.7-.4-.4-.6-1-.6-1.8ZM37.2,24.1c0,.4.1.8.2,1s.4.4.7.4c.4,0,.7-.2.8-.5v-1.9c-.2-.3-.4-.5-.8-.5-.6,0-.9.5-.9,1.5Z"/>
      <path d="M45.3,24.1c0,.8-.2,1.4-.5,1.8s-.8.6-1.4.6c-.5,0-.9-.2-1.2-.6l-.1.5h-1.1v-6.8h1.3v2.4c.3-.3.7-.5,1.2-.5.6,0,1,.2,1.4.6.2.6.4,1.2.4,2h0ZM44,24c0-.5-.1-.8-.2-1.1-.2-.2-.4-.3-.7-.3-.4,0-.7.2-.8.5v1.9c.2.3.4.5.8.5s.7-.2.8-.6c.1-.2.1-.5.1-.9Z"/>
      <path d="M48.6,26.4c-.1-.1-.1-.3-.1-.4-.3.3-.7.5-1.2.5s-.9-.1-1.2-.4-.5-.6-.5-1c0-.5.2-.9.6-1.2.4-.3.9-.4,1.6-.4h.6v-.3c0-.2-.1-.4-.2-.5-.1-.1-.3-.2-.5-.2s-.4.1-.5.2c-.1.1-.2.2-.2.4h-1.3c0-.3.1-.5.3-.8s.4-.4.7-.6.7-.2,1-.2c.6,0,1.1.1,1.4.4.3.3.5.7.5,1.2v2.1c0,.5.1.8.2,1v.1h-1.2v.1ZM47.6,25.6c.2,0,.4,0,.5-.1.2-.1.3-.2.4-.3v-.8h-.5c-.6,0-1,.2-1,.7v.1c0,.2.1.3.2.4,0-.1.2,0,.4,0Z"/>
      <path d="M52.5,25.5c.2,0,.4-.1.6-.2.1-.1.2-.3.2-.5h1.2c0,.3-.1.6-.3.9s-.4.5-.7.6-.6.2-1,.2c-.7,0-1.2-.2-1.6-.6-.4-.4-.6-1-.6-1.8v-.1c0-.7.2-1.3.6-1.8.4-.4.9-.7,1.6-.7.6,0,1.1.2,1.4.5.4.3.5.8.5,1.4h-1.2c0-.2-.1-.4-.2-.6-.1-.2-.3-.2-.6-.2s-.5.1-.7.3c-.2.2-.2.6-.2,1v.1c0,.5.1.8.2,1.1s.5.4.8.4Z"/>
      <path d="M56.7,24.5l-.5.5v1.5h-1.2v-6.8h1.3v3.7l.2-.3,1.2-1.4h1.5l-1.7,2,1.9,2.8h-1.4l-1.3-2Z"/>
      <path d="M63,26.4h-1.3v-6.8h1.3v6.8Z"/>
      <path d="M63.9,20.4c0-.2.1-.3.2-.5.1-.1.3-.2.5-.2s.4.1.5.2.2.3.2.5-.1.4-.2.5-.3.2-.5.2-.4-.1-.5-.2c-.1-.1-.2-.3-.2-.5ZM65.3,26.4h-1.3v-4.8h1.3v4.8Z"/>
      <path d="M67.6,20.5v1.2h.8v.9h-.8v2.4c0,.2,0,.3.1.4s.2.1.4.1h.4v1c-.2.1-.5.1-.8.1-.9,0-1.3-.4-1.4-1.3v-2.6h-.7v-.9h.7v-1.2h1.3v-.1Z"/>
      <path d="M71.2,26.5c-.7,0-1.3-.2-1.7-.6-.4-.4-.7-1-.7-1.7v-.1c0-.5.1-.9.3-1.3.2-.4.4-.7.8-.9.3-.2.7-.3,1.2-.3.7,0,1.2.2,1.5.6.4.4.6,1,.6,1.7v.5h-3c0,.3.2.6.4.7.2.2.5.3.8.3.5,0,.9-.2,1.1-.5l.6.7c-.2.3-.4.5-.8.6-.4.2-.7.3-1.1.3ZM71,22.6c-.3,0-.5.1-.6.3-.2.2-.3.4-.3.7h1.8v-.1c0-.3-.1-.5-.2-.7-.2-.1-.4-.2-.7-.2Z"/>
      <path d="M76.3,22.9h-.5c-.5,0-.8.2-.9.5v3.1h-1.3v-4.8h1.2v.6c.3-.4.6-.7,1.1-.7.1,0,.3,0,.4.1v1.2Z"/>
      <path d="M79.4,26.4c-.1-.1-.1-.3-.1-.4-.3.3-.7.5-1.2.5s-.9-.1-1.2-.4c-.3-.3-.5-.6-.5-1,0-.5.2-.9.6-1.2.4-.3.9-.4,1.6-.4h.6v-.3c0-.2-.1-.4-.2-.5s-.3-.2-.5-.2-.4.1-.5.2c-.1.1-.2.2-.2.4h-1.3c0-.3.1-.5.3-.8s.4-.4.7-.6.7-.2,1-.2c.6,0,1.1.1,1.4.4.3.3.5.7.5,1.2v2.1c0,.5.1.8.2,1v.1h-1.2v.1ZM78.3,25.6c.2,0,.4,0,.5-.1.2-.1.3-.2.4-.3v-.8h-.5c-.6,0-1,.2-1,.7v.1c0,.2.1.3.2.4.1-.1.2,0,.4,0Z"/>
      <path d="M83.3,25.5c.2,0,.4-.1.6-.2.1-.1.2-.3.2-.5h1.2c0,.3-.1.6-.3.9-.2.3-.4.5-.7.6-.3.1-.6.2-1,.2-.7,0-1.2-.2-1.6-.6s-.6-1-.6-1.8v-.1c0-.7.2-1.3.6-1.8.4-.4.9-.7,1.6-.7.6,0,1.1.2,1.4.5.4.3.5.8.5,1.4h-1.2c0-.2-.1-.4-.2-.6-.1-.2-.3-.2-.6-.2s-.5.1-.7.3c-.2.2-.2.6-.2,1v.1c0,.5.1.8.2,1.1s.5.4.8.4Z"/>
      <path d="M87.6,24.6l.9-3h1.4l-1.9,5.5-.1.3c-.3.6-.8.9-1.4.9-.2,0-.4,0-.6-.1v-1h.2c.2,0,.4,0,.5-.1s.2-.2.3-.4l.1-.4-1.7-4.8h1.4l.9,3.1Z"/>
    </g>
    <g>
      <rect class="cls-1" x="342" y="88.1" width="70" height="18.7"/>
      <path d="M365.6,93.2c0-.2-.1-.4-.3-.6s-.5-.3-.9-.4-.8-.3-1.1-.4c-.7-.4-1.1-.9-1.1-1.6,0-.3.1-.7.3-.9.2-.3.5-.5.8-.6.4-.2.8-.2,1.2-.2.5,0,.9.1,1.2.2.4.2.6.4.8.7.2.3.3.6.3,1h-1.3c0-.3-.1-.5-.3-.7-.2-.2-.4-.2-.8-.2-.3,0-.6.1-.8.2-.2.1-.3.3-.3.5s.1.4.3.5c.2.1.5.3.9.4.8.2,1.3.5,1.6.8.3.3.5.8.5,1.2,0,.6-.2,1-.6,1.3s-1,.5-1.7.5c-.5,0-.9-.1-1.3-.3-.4-.2-.7-.4-.9-.7-.2-.3-.3-.7-.3-1.1h1.3c0,.7.4,1.1,1.3,1.1.3,0,.6-.1.7-.2.4-.1.5-.3.5-.5Z"/>
      <path d="M369.1,88.9v1.2h.8v.9h-.8v2.4c0,.2,0,.3.1.4s.2.1.4.1h.4v1c-.2.1-.5.1-.8.1-.9,0-1.3-.4-1.4-1.3v-2.6h-.7v-.9h.7v-1.3h1.3Z"/>
      <path d="M373.3,94.4c-.3.4-.7.6-1.3.6-.5,0-.9-.1-1.2-.4-.3-.3-.4-.7-.4-1.3v-3.1h1.3v3.1c0,.5.2.7.7.7.4,0,.7-.1.9-.4v-3.4h1.3v4.7h-1.2l-.1-.5Z"/>
      <path d="M375.1,92.5c0-.7.2-1.3.5-1.8.3-.4.8-.7,1.4-.7.5,0,.8.2,1.1.5v-2.4h1.3v6.8h-1.1l-.1-.5c-.3.4-.7.6-1.2.6-.6,0-1-.2-1.3-.7-.5-.4-.6-1.1-.6-1.8ZM376.4,92.5c0,.4.1.8.2,1s.4.4.7.4c.4,0,.7-.2.8-.5v-1.9c-.2-.3-.4-.5-.8-.5-.6.1-.9.6-.9,1.5Z"/>
      <path d="M382.4,95c-.7,0-1.3-.2-1.7-.6-.4-.4-.7-1-.7-1.7v-.1c0-.5.1-.9.3-1.3.2-.4.4-.7.8-.9.3-.2.7-.3,1.2-.3.7,0,1.2.2,1.5.6.4.4.6,1,.6,1.7v.5h-3c0,.3.2.6.4.7.2.2.5.3.8.3.5,0,.9-.2,1.1-.5l.6.7c-.2.3-.4.5-.8.6-.4.2-.7.3-1.1.3ZM382.2,91c-.3,0-.5.1-.6.3-.2.2-.3.4-.3.7h1.8v-.1c0-.3-.1-.5-.2-.7-.2-.1-.4-.2-.7-.2Z"/>
      <path d="M386,90.1v.5c.3-.4.8-.6,1.4-.6.5,0,.9.1,1.1.4s.4.7.4,1.3v3.2h-1.3v-3c0-.3-.1-.5-.2-.6s-.3-.2-.6-.2c-.4,0-.6.2-.8.5v3.3h-1.3v-4.8h1.3Z"/>
      <path d="M391.2,88.9v1.2h.8v.9h-.8v2.4c0,.2,0,.3.1.4s.2.1.4.1h.4v1c-.2.1-.5.1-.8.1-.9,0-1.3-.4-1.4-1.3v-2.6h-.7v-.9h.7v-1.3h1.3Z"/>
    </g>
    <g>
      <rect class="cls-1" x="248.8" y="84.5" width="70" height="10.5"/>
      <path d="M257.7,88.6h-2.5v2.6h-1.3v-6.4h4.2v1.1h-2.8v1.7h2.5v1h-.1Z"/>
      <path d="M260.7,91.3c-.7,0-1.3-.2-1.7-.6-.4-.4-.7-1-.7-1.7v-.1c0-.5.1-.9.3-1.3.2-.4.4-.7.8-.9.3-.2.7-.3,1.2-.3.7,0,1.2.2,1.5.6.4.4.6,1,.6,1.7v.5h-3c0,.3.2.6.4.7.2.2.5.3.8.3.5,0,.9-.2,1.1-.5l.6.7c-.2.3-.4.5-.8.6-.3.2-.7.3-1.1.3ZM260.6,87.4c-.3,0-.5.1-.6.3-.2.2-.3.4-.3.7h1.8v-.1c0-.3-.1-.5-.2-.7-.3-.1-.5-.2-.7-.2Z"/>
      <path d="M265.4,91.3c-.7,0-1.3-.2-1.7-.6-.4-.4-.7-1-.7-1.7v-.1c0-.5.1-.9.3-1.3.2-.4.4-.7.8-.9.3-.2.7-.3,1.2-.3.7,0,1.2.2,1.5.6.4.4.6,1,.6,1.7v.5h-3c0,.3.2.6.4.7.2.2.5.3.8.3.5,0,.9-.2,1.1-.5l.6.7c-.2.3-.4.5-.8.6-.4.2-.7.3-1.1.3ZM265.2,87.4c-.3,0-.5.1-.6.3-.2.2-.3.4-.3.7h1.8v-.1c0-.3-.1-.5-.2-.7-.2-.1-.4-.2-.7-.2Z"/>
      <path d="M267.7,88.8c0-.7.2-1.3.5-1.8.3-.4.8-.7,1.4-.7.5,0,.8.2,1.1.5v-2.4h1.3v6.8h-1.1l-.1-.5c-.3.4-.7.6-1.2.6-.6,0-1-.2-1.3-.7-.4-.4-.6-1-.6-1.8ZM269,88.9c0,.4.1.8.2,1s.4.4.7.4c.4,0,.7-.2.8-.5v-1.9c-.2-.3-.4-.5-.8-.5-.6,0-.9.5-.9,1.5Z"/>
      <path d="M277.1,88.9c0,.8-.2,1.4-.5,1.8s-.8.6-1.4.6c-.5,0-.9-.2-1.2-.6l-.1.5h-1.1v-6.8h1.3v2.5c.3-.3.7-.5,1.2-.5.6,0,1,.2,1.4.6.2.4.4,1,.4,1.9h0ZM275.8,88.8c0-.5-.1-.8-.2-1.1-.2-.2-.4-.3-.7-.3-.4,0-.7.2-.8.5v1.9c.2.3.4.5.8.5s.7-.2.8-.6c.1-.2.1-.5.1-.9Z"/>
      <path d="M280.4,91.2c-.1-.1-.1-.3-.1-.4-.3.3-.7.5-1.2.5s-.9-.1-1.2-.4c-.3-.3-.5-.6-.5-1,0-.5.2-.9.6-1.2.4-.3.9-.4,1.6-.4h.6v-.3c0-.2-.1-.4-.2-.5s-.3-.2-.5-.2-.4.1-.5.2-.2.2-.2.4h-1.3c0-.3.1-.5.3-.8s.4-.4.7-.6.7-.2,1-.2c.6,0,1.1.1,1.4.4s.5.7.5,1.2v2.1c0,.5.1.8.2,1v.1h-1.2v.1ZM279.4,90.3c.2,0,.4,0,.5-.1.2-.1.3-.2.4-.3v-.8h-.5c-.6,0-1,.2-1,.7v.1c0,.2.1.3.2.4,0,0,.2,0,.4,0Z"/>
      <path d="M284.3,90.3c.2,0,.4-.1.6-.2.1-.1.2-.3.2-.5h1.2c0,.3-.1.6-.3.9-.2.3-.4.5-.7.6-.3.1-.6.2-1,.2-.7,0-1.2-.2-1.6-.6s-.6-1-.6-1.8v-.1c0-.7.2-1.3.6-1.8.4-.4.9-.7,1.6-.7.6,0,1.1.2,1.4.5.4.3.5.8.5,1.4h-1.2c0-.2-.1-.4-.2-.6s-.3-.2-.6-.2-.5.1-.7.3c-.2.2-.2.6-.2,1v.2c0,.5.1.8.2,1.1s.5.3.8.3Z"/>
      <path d="M288.5,89.3l-.5.5v1.5h-1.3v-6.8h1.3v3.7l.2-.3,1.2-1.4h1.5l-1.7,2,1.9,2.8h-1.5l-1.1-2Z"/>
      <path d="M295,85.3v1.2h.8v.9h-.8v2.4c0,.2,0,.3.1.4s.2.1.4.1h.4v1c-.2.1-.5.1-.8.1-.9,0-1.3-.4-1.4-1.3v-2.6h-.7v-.9h.7v-1.2h1.3v-.1Z"/>
      <path d="M298.1,89.4l.9-3h1.4l-1.9,5.5-.1.3c-.3.6-.8.9-1.4.9-.2,0-.4,0-.6-.1v-1h.2c.2,0,.4,0,.5-.1s.2-.2.3-.4l.1-.4-1.7-4.8h1.4l.9,3.1Z"/>
      <path d="M305,88.9c0,.7-.2,1.3-.5,1.8-.3.4-.8.7-1.3.7s-.9-.2-1.2-.5v2.2h-1.3v-6.6h1.2v.5c.3-.4.7-.6,1.2-.6.6,0,1,.2,1.4.7s.5,1,.5,1.8h0ZM303.7,88.8c0-.4-.1-.8-.2-1-.2-.2-.4-.4-.7-.4-.4,0-.7.2-.8.5v1.9c.2.3.4.5.8.5.6,0,.9-.5.9-1.5Z"/>
      <path d="M307.8,91.3c-.7,0-1.3-.2-1.7-.6-.4-.4-.7-1-.7-1.7v-.1c0-.5.1-.9.3-1.3.2-.4.4-.7.8-.9.3-.2.7-.3,1.2-.3.7,0,1.2.2,1.5.6.4.4.6,1,.6,1.7v.5h-3c0,.3.2.6.4.7.2.2.5.3.8.3.5,0,.9-.2,1.1-.5l.6.7c-.2.3-.4.5-.8.6-.4.2-.7.3-1.1.3ZM307.6,87.4c-.3,0-.5.1-.6.3-.2.2-.3.4-.3.7h1.8v-.1c0-.3-.1-.5-.2-.7-.2-.1-.4-.2-.7-.2Z"/>
      <path d="M312.9,89.9c0-.2-.1-.3-.2-.4-.2-.1-.4-.2-.7-.2-1.1-.2-1.7-.7-1.7-1.4,0-.4.2-.8.5-1.1.3-.3.8-.4,1.4-.4s1.1.1,1.4.4c.4.3.5.7.5,1.1h-1.3c0-.2-.1-.3-.2-.5-.1-.1-.3-.2-.5-.2s-.4,0-.5.1-.2.2-.2.4c0,.1.1.3.2.3.1.1.4.2.7.2s.6.1.8.2c.7.2,1,.7,1,1.3,0,.4-.2.8-.6,1.1-.4.3-.9.4-1.4.4-.4,0-.8-.1-1.1-.2-.3-.1-.6-.3-.7-.6-.2-.2-.3-.5-.3-.8h1.2c0,.2.1.4.3.5.2.1.4.2.6.2s.4,0,.6-.1c.1,0,.2-.1.2-.3Z"/>
    </g>
    <g>
      <rect class="cls-1" x="17.3" y="114.8" width="54.1" height="39"/>
      <path d="M33.8,115.8h-2.1v5.7h-.8v-5.7h-2.1v-.7h4.9v.7h.1Z"/>
      <path d="M36.4,121.6c-.6,0-1.2-.2-1.6-.6s-.6-1-.6-1.7v-.1c0-.5.1-.9.3-1.3s.4-.7.8-.9c.3-.2.7-.3,1.1-.3.6,0,1.1.2,1.4.6s.5,1,.5,1.7v.3h-3.2c0,.5.1.8.4,1.1.3.3.6.4,1,.4.3,0,.5-.1.7-.2s.4-.3.5-.5l.5.4c-.4.8-1,1.1-1.8,1.1ZM36.3,117.4c-.3,0-.6.1-.8.4s-.4.6-.4,1h2.4v-.1c0-.4-.1-.7-.3-1s-.5-.3-.9-.3Z"/>
      <path d="M42,121.5c0-.1-.1-.3-.1-.5-.4.4-.8.6-1.4.6-.5,0-.9-.1-1.2-.4s-.5-.6-.5-1c0-.5.2-.9.6-1.2.4-.3.9-.4,1.6-.4h.8v-.4c0-.3-.1-.5-.3-.7s-.4-.3-.8-.3c-.3,0-.5.1-.7.2s-.3.3-.3.5h-.7c0-.2.1-.5.3-.7s.4-.4.7-.5.6-.2,1-.2c.5,0,1,.1,1.3.4s.5.7.5,1.1v2.2c0,.4.1.8.2,1v.1h-1v.2ZM40.6,120.9c.3,0,.5-.1.7-.2s.4-.3.5-.5v-1h-.6c-1,0-1.5.3-1.5.9,0,.3.1.5.3.6s.4.2.6.2Z"/>
      <path d="M45.7,121c.3,0,.5-.1.8-.3.2-.2.3-.4.4-.7h.8c0,.3-.1.5-.3.8s-.4.4-.7.6c-.3.1-.6.2-.9.2-.6,0-1.2-.2-1.5-.6-.4-.4-.6-1-.6-1.8v-.1c0-.5.1-.9.3-1.2s.4-.6.7-.8c.3-.2.7-.3,1.1-.3.5,0,1,.2,1.3.5.4.3.5.7.6,1.2h-.8c0-.3-.1-.6-.3-.8-.2-.2-.5-.3-.8-.3-.4,0-.7.1-1,.4-.2.3-.3.7-.3,1.3v.2c0,.5.1,1,.3,1.3s.5.4.9.4Z"/>
      <path d="M49.1,117.4c.4-.4.8-.7,1.4-.7,1,0,1.5.6,1.5,1.7v3.1h-.8v-3.1c0-.3-.1-.6-.2-.8-.2-.2-.4-.2-.7-.2s-.5.1-.7.2-.4.3-.5.6v3.4h-.8v-6.8h.8v2.6Z"/>
      <path d="M55.1,121.6c-.6,0-1.2-.2-1.6-.6s-.6-1-.6-1.7v-.1c0-.5.1-.9.3-1.3s.4-.7.8-.9c.3-.2.7-.3,1.1-.3.6,0,1.1.2,1.4.6s.5,1,.5,1.7v.3h-3.2c0,.5.1.8.4,1.1.3.3.6.4,1,.4.3,0,.5-.1.7-.2s.4-.3.5-.5l.5.4c-.4.8-1,1.1-1.8,1.1ZM55,117.4c-.3,0-.6.1-.8.4s-.4.6-.4,1h2.4v-.1c0-.4-.1-.7-.3-1s-.6-.3-.9-.3Z"/>
      <path d="M60,117.5h-.4c-.5,0-.9.2-1.1.7v3.4h-.8v-4.8h.8v.5c.3-.4.6-.6,1.1-.6.2,0,.3,0,.4.1v.7Z"/>
      <path d="M27.6,131v-4.1h-.8v-.6h.8v-.5c0-.5.1-.9.4-1.2s.7-.4,1.2-.4c.2,0,.4,0,.6.1v.7h-.4c-.3,0-.5.1-.6.2s-.2.4-.2.7v.5h1v.6h-1v4.1h-1v-.1Z"/>
      <path d="M32.1,131.1c-.6,0-1.2-.2-1.6-.6s-.6-1-.6-1.7v-.1c0-.5.1-.9.3-1.3.2-.4.4-.7.8-.9.3-.2.7-.3,1.1-.3.6,0,1.1.2,1.4.6s.5,1,.5,1.7v.3h-3.2c0,.5.1.8.4,1.1.3.3.6.4,1,.4.3,0,.5-.1.7-.2s.4-.3.5-.5l.5.4c-.4.8-1,1.1-1.8,1.1ZM32,126.9c-.3,0-.6.1-.8.4s-.4.6-.4,1h2.4v-.1c0-.4-.1-.7-.3-1s-.6-.3-.9-.3Z"/>
      <path d="M36.7,131.1c-.6,0-1.2-.2-1.6-.6s-.6-1-.6-1.7v-.1c0-.5.1-.9.3-1.3s.4-.7.8-.9c.3-.2.7-.3,1.1-.3.6,0,1.1.2,1.4.6s.5,1,.5,1.7v.3h-3.2c0,.5.1.8.4,1.1.3.3.6.4,1,.4.3,0,.5-.1.7-.2s.4-.3.5-.5l.5.4c-.4.8-1,1.1-1.8,1.1ZM36.6,126.9c-.3,0-.6.1-.8.4s-.4.6-.4,1h2.4v-.1c0-.4-.1-.7-.3-1s-.6-.3-.9-.3Z"/>
      <path d="M39.1,128.6c0-.7.2-1.3.5-1.8.3-.4.8-.7,1.4-.7s1,.2,1.3.6v-2.5h.8v6.8h-.7v-.5c-.3.4-.8.6-1.4.6s-1-.2-1.3-.7c-.5-.4-.6-1-.6-1.8h0ZM39.9,128.7c0,.5.1,1,.3,1.3s.5.5.9.5c.5,0,.9-.2,1.1-.7v-2.2c-.2-.4-.6-.7-1.1-.7-.4,0-.7.2-.9.5s-.3.7-.3,1.3Z"/>
      <path d="M48.2,128.7c0,.7-.2,1.3-.5,1.8s-.8.7-1.3.7c-.6,0-1.1-.2-1.4-.6v.5h-.7v-6.8h.7v2.5c.3-.4.8-.6,1.4-.6s1,.2,1.4.7c.2.4.4,1,.4,1.8h0ZM47.4,128.6c0-.6-.1-1-.3-1.3s-.5-.5-.9-.5c-.5,0-.9.2-1.2.7v2.1c.2.5.6.7,1.2.7.4,0,.7-.2.9-.5s.3-.6.3-1.2Z"/>
      <path d="M52,131c0-.1-.1-.3-.1-.5-.4.4-.8.6-1.4.6-.5,0-.9-.1-1.2-.4s-.5-.6-.5-1c0-.5.2-.9.6-1.2.4-.3.9-.4,1.6-.4h.8v-.4c0-.3-.1-.5-.3-.7s-.4-.3-.8-.3c-.3,0-.5.1-.7.2s-.3.3-.3.5h-.7c0-.2.1-.5.3-.7s.4-.4.7-.5.6-.2,1-.2c.5,0,1,.1,1.3.4s.5.7.5,1.1v2.2c0,.4.1.8.2,1v.1h-1v.2ZM50.6,130.4c.3,0,.5-.1.7-.2s.4-.3.5-.5v-1h-.6c-1,0-1.5.3-1.5.9,0,.3.1.5.3.6s.4.2.6.2Z"/>
      <path d="M55.7,130.5c.3,0,.5-.1.8-.3.2-.2.3-.4.4-.7h.8c0,.3-.1.5-.3.8s-.4.4-.7.6c-.3.1-.6.2-.9.2-.6,0-1.2-.2-1.5-.6-.4-.4-.6-1-.6-1.8v-.1c0-.5.1-.9.3-1.2s.4-.6.7-.8c.3-.2.7-.3,1.1-.3.5,0,1,.2,1.3.5.4.3.5.7.6,1.2h-.8c0-.3-.1-.6-.3-.8-.2-.2-.5-.3-.8-.3-.4,0-.7.1-1,.4-.2.3-.3.7-.3,1.3v.2c0,.5.1,1,.3,1.3s.4.4.9.4Z"/>
      <path d="M59.6,128.8l-.5.5v1.7h-.8v-6.8h.8v4.1l.4-.5,1.5-1.6h1l-1.9,2,2.1,2.8h-1l-1.6-2.2Z"/>
      <path d="M22.8,140.5h-.8v-6.8h.8v6.8Z"/>
      <path d="M24,134.5c0-.1,0-.2.1-.3.1-.1.2-.1.4-.1s.3,0,.4.1.1.2.1.3,0,.2-.1.3c-.1.1-.2.1-.4.1s-.3,0-.4-.1c-.1,0-.1-.1-.1-.3ZM24.8,140.5h-.8v-4.8h.8v4.8Z"/>
      <path d="M27.1,134.6v1.2h.9v.6h-.9v3c0,.2,0,.3.1.4s.2.1.4.1c.1,0,.2,0,.4-.1v.7c-.2.1-.4.1-.6.1-.4,0-.6-.1-.8-.3-.2-.2-.3-.5-.3-.9v-2.9h-.9v-.6h.9v-1.2h.8v-.1Z"/>
      <path d="M30.7,140.6c-.6,0-1.2-.2-1.6-.6s-.6-1-.6-1.7v-.1c0-.5.1-.9.3-1.3.2-.4.4-.7.8-.9.3-.2.7-.3,1.1-.3.6,0,1.1.2,1.4.6s.5,1,.5,1.7v.3h-3.2c0,.5.1.8.4,1.1s.6.4,1,.4c.3,0,.5-.1.7-.2s.4-.3.5-.5l.5.4c-.4.8-1,1.1-1.8,1.1ZM30.6,136.4c-.3,0-.6.1-.8.4s-.4.6-.4,1h2.4v-.1c0-.4-.1-.7-.3-1s-.6-.3-.9-.3Z"/>
      <path d="M35.6,136.5h-.4c-.5,0-.9.2-1.1.7v3.4h-.8v-4.8h.8v.5c.3-.4.6-.6,1.1-.6.2,0,.3,0,.4.1v.7Z"/>
      <path d="M38.9,140.5c0-.1-.1-.3-.1-.5-.4.4-.8.6-1.4.6-.5,0-.9-.1-1.2-.4-.3-.3-.5-.6-.5-1,0-.5.2-.9.6-1.2.4-.3.9-.4,1.6-.4h.8v-.4c0-.3-.1-.5-.3-.7s-.4-.3-.8-.3c-.3,0-.5.1-.7.2s-.3.3-.3.5h-.6c0-.2.1-.5.3-.7s.4-.4.7-.5.6-.2,1-.2c.5,0,1,.1,1.3.4s.5.7.5,1.1v2.2c0,.4.1.8.2,1v.1h-1.1v.2ZM37.6,139.9c.3,0,.5-.1.7-.2s.4-.3.5-.5v-1h-.6c-1,0-1.5.3-1.5.9,0,.3.1.5.3.6s.3.2.6.2Z"/>
      <path d="M42.6,140c.3,0,.5-.1.8-.3.2-.2.3-.4.4-.7h.8c0,.3-.1.5-.3.8s-.4.4-.7.6c-.3.1-.6.2-.9.2-.6,0-1.2-.2-1.5-.6-.4-.4-.6-1-.6-1.8v-.1c0-.5.1-.9.3-1.2s.4-.6.7-.8.7-.3,1.1-.3c.5,0,1,.2,1.3.5.4.3.5.7.6,1.2h-.8c0-.3-.1-.6-.3-.8s-.5-.3-.8-.3c-.4,0-.7.1-1,.4-.2.3-.3.7-.3,1.3v.2c0,.5.1,1,.3,1.3s.5.4.9.4Z"/>
      <path d="M46.8,139.3l1.1-3.6h.9l-1.9,5.5c-.3.8-.8,1.2-1.4,1.2h-.2l-.3-.1v-.7h.2c.3,0,.5-.1.6-.2.2-.1.3-.3.4-.6l.2-.5-1.7-4.7h.9l1.2,3.7Z"/>
      <path d="M52.1,135.8v.5c.3-.4.8-.6,1.4-.6.7,0,1.1.3,1.4.8.2-.2.4-.4.6-.6.3-.1.6-.2.9-.2,1,0,1.6.6,1.6,1.7v3.2h-.8v-3.1c0-.3-.1-.6-.2-.8-.2-.2-.4-.3-.8-.3-.3,0-.6.1-.8.3s-.3.4-.3.7v3.2h-.8v-3.1c0-.7-.3-1-1-1-.5,0-.9.2-1.1.7v3.5h-.8v-4.8h.7v-.1Z"/>
      <path d="M62,140.5c0-.1-.1-.3-.1-.5-.4.4-.8.6-1.4.6-.5,0-.9-.1-1.2-.4-.3-.3-.5-.6-.5-1,0-.5.2-.9.6-1.2.4-.3.9-.4,1.6-.4h.8v-.4c0-.3-.1-.5-.3-.7s-.4-.3-.8-.3c-.3,0-.5.1-.7.2s-.3.3-.3.5h-.7c0-.2.1-.5.3-.7s.4-.4.7-.5.6-.2,1-.2c.5,0,1,.1,1.3.4s.5.7.5,1.1v2.2c0,.4.1.8.2,1v.1h-1v.2ZM60.7,139.9c.3,0,.5-.1.7-.2s.4-.3.5-.5v-1h-.6c-1,0-1.5.3-1.5.9,0,.3.1.5.3.6s.3.2.6.2Z"/>
      <path d="M65.3,139.3l1.1-3.6h.9l-1.9,5.5c-.3.8-.8,1.2-1.4,1.2h-.2l-.3-.1v-.7h.2c.3,0,.5-.1.6-.2.2-.1.3-.3.4-.6l.2-.5-1.7-4.7h.9l1.2,3.7Z"/>
      <path d="M37.6,150c0-.1-.1-.3-.1-.5-.4.4-.8.6-1.4.6-.5,0-.9-.1-1.2-.4-.3-.3-.5-.6-.5-1,0-.5.2-.9.6-1.2.4-.3.9-.4,1.6-.4h.8v-.4c0-.3-.1-.5-.3-.7s-.4-.3-.8-.3c-.3,0-.5.1-.7.2s-.3.3-.3.5h-.8c0-.2.1-.5.3-.7s.4-.4.7-.5.6-.2,1-.2c.5,0,1,.1,1.3.4s.5.7.5,1.1v2.2c0,.4.1.8.2,1v.1h-.9v.2ZM36.2,149.4c.3,0,.5-.1.7-.2s.4-.3.5-.5v-1h-.6c-1,0-1.5.3-1.5.9,0,.3.1.5.3.6s.4.2.6.2Z"/>
      <path d="M43.4,147.7c0,.7-.2,1.3-.5,1.7s-.8.7-1.3.7c-.6,0-1-.2-1.4-.5v2.3h-.8v-6.6h.7v.5c.3-.4.8-.6,1.4-.6s1,.2,1.4.6c.3.5.5,1.1.5,1.9h0ZM42.6,147.6c0-.5-.1-1-.3-1.3s-.5-.5-.9-.5c-.5,0-.9.2-1.1.7v2.3c.2.4.6.7,1.1.7.4,0,.7-.2.9-.5.1-.3.3-.8.3-1.4Z"/>
      <path d="M48.2,147.7c0,.7-.2,1.3-.5,1.7s-.8.7-1.3.7c-.6,0-1-.2-1.4-.5v2.3h-.8v-6.6h.8v.5c.3-.4.8-.6,1.4-.6s1,.2,1.4.6c.3.5.4,1.1.4,1.9h0ZM47.4,147.6c0-.5-.1-1-.3-1.3s-.5-.5-.9-.5c-.5,0-.9.2-1.1.7v2.3c.2.4.6.7,1.1.7.4,0,.7-.2.9-.5.2-.3.3-.8.3-1.4Z"/>
      <path d="M50,150h-.8v-6.8h.8v6.8Z"/>
      <path d="M52.7,148.8l1.1-3.6h.9l-1.9,5.5c-.3.8-.8,1.2-1.4,1.2h-.2l-.3-.1v-.7h.2c.3,0,.5-.1.6-.2.2-.1.3-.3.4-.6l.2-.5-1.7-4.7h.9l1.2,3.7Z"/>
    </g>
    <g>
      <rect class="cls-1" x="107.9" y="136.5" width="63.9" height="31.6"/>
      <path d="M122.5,138.5v.5c.3-.4.8-.6,1.4-.6.7,0,1.1.3,1.4.8.2-.2.4-.4.6-.6.3-.1.6-.2.9-.2,1,0,1.6.6,1.6,1.7v3.2h-.8v-3.1c0-.3-.1-.6-.2-.8-.2-.2-.4-.3-.8-.3-.3,0-.6.1-.8.3-.2.2-.3.4-.3.7v3.2h-.8v-3.1c0-.7-.3-1-1-1-.5,0-.9.2-1.1.7v3.5h-.8v-4.8h.7v-.1Z"/>
      <path d="M132.3,143.3c0-.1-.1-.3-.1-.5-.4.4-.8.6-1.4.6-.5,0-.9-.1-1.2-.4-.3-.3-.5-.6-.5-1,0-.5.2-.9.6-1.2.4-.3.9-.4,1.6-.4h.8v-.4c0-.3-.1-.5-.3-.7s-.4-.3-.8-.3c-.3,0-.5.1-.7.2s-.3.3-.3.5h-.8c0-.2.1-.5.3-.7s.4-.4.7-.5.6-.2,1-.2c.5,0,1,.1,1.3.4s.5.7.5,1.1v2.2c0,.4.1.8.2,1v.1h-.9v.2ZM131,142.6c.3,0,.5-.1.7-.2s.4-.3.5-.5v-1h-.6c-1,0-1.5.3-1.5.9,0,.3.1.5.3.6s.3.2.6.2Z"/>
      <path d="M135.7,142.1l1.1-3.6h.9l-1.9,5.5c-.3.8-.8,1.2-1.4,1.2h-.2l-.3-.1v-.7h.2c.3,0,.5-.1.6-.2.2-.1.3-.3.4-.6l.2-.5-1.7-4.7h.9l1.2,3.7Z"/>
      <path d="M144.5,142.1l.9-3.6h.8l-1.4,4.8h-.7l-1.2-3.6-1.1,3.6h-.7l-1.4-4.8h.8l.9,3.6,1.1-3.6h.7l1.3,3.6Z"/>
      <path d="M149.8,143.3c0-.1-.1-.3-.1-.5-.4.4-.8.6-1.4.6-.5,0-.9-.1-1.2-.4-.3-.3-.5-.6-.5-1,0-.5.2-.9.6-1.2.4-.3.9-.4,1.6-.4h.8v-.4c0-.3-.1-.5-.3-.7s-.4-.3-.8-.3c-.3,0-.5.1-.7.2s-.3.3-.3.5h-.8c0-.2.1-.5.3-.7s.4-.4.7-.5.6-.2,1-.2c.5,0,1,.1,1.3.4s.5.7.5,1.1v2.2c0,.4.1.8.2,1v.1h-.9v.2ZM148.4,142.6c.3,0,.5-.1.7-.2s.4-.3.5-.5v-1h-.6c-1,0-1.5.3-1.5.9,0,.3.1.5.3.6s.4.2.6.2Z"/>
      <path d="M152.3,138.5v.6c.4-.5.8-.7,1.4-.7,1,0,1.5.6,1.5,1.7v3.1h-.8v-3.1c0-.3-.1-.6-.2-.8-.2-.2-.4-.2-.7-.2s-.5.1-.7.2c-.2.1-.4.3-.5.6v3.4h-.8v-4.8h.8Z"/>
      <path d="M157.4,137.4v1.2h.9v.6h-.9v3c0,.2,0,.3.1.4s.2.1.4.1c.1,0,.2,0,.4-.1v.7c-.2.1-.4.1-.6.1-.4,0-.6-.1-.8-.3s-.3-.5-.3-.9v-2.9h-.9v-.6h.9v-1.2h.8v-.1Z"/>
      <path d="M119.6,152.2c.3,0,.5-.1.8-.3.2-.2.3-.4.4-.7h.8c0,.3-.1.5-.3.8s-.4.4-.7.6c-.3.1-.6.2-.9.2-.6,0-1.2-.2-1.5-.6-.4-.4-.6-1-.6-1.8v-.1c0-.5.1-.9.3-1.2s.4-.6.7-.8c.3-.2.7-.3,1.1-.3.5,0,1,.2,1.3.5.4.3.5.7.6,1.2h-.8c0-.3-.1-.6-.3-.8-.2-.2-.5-.3-.8-.3-.4,0-.7.1-1,.4-.2.3-.3.7-.3,1.3v.2c0,.5.1,1,.3,1.3s.5.4.9.4Z"/>
      <path d="M122.1,150.3c0-.5.1-.9.3-1.3s.4-.7.8-.9c.3-.2.7-.3,1.1-.3.6,0,1.2.2,1.6.7.4.4.6,1,.6,1.8v.1c0,.5-.1.9-.3,1.2-.2.4-.4.7-.8.9-.3.2-.7.3-1.1.3-.6,0-1.2-.2-1.6-.7-.4-.4-.6-1-.6-1.8h0ZM122.9,150.4c0,.5.1,1,.4,1.3.2.3.6.5,1,.5s.7-.2,1-.5c.2-.3.4-.8.4-1.4,0-.5-.1-.9-.4-1.3-.2-.3-.6-.5-1-.5s-.7.2-1,.5-.4.8-.4,1.4Z"/>
      <path d="M128,148v.6c.4-.5.8-.7,1.4-.7,1,0,1.5.6,1.5,1.7v3.1h-.8v-3.1c0-.3-.1-.6-.2-.8-.2-.2-.4-.2-.7-.2s-.5.1-.7.2c-.2.1-.4.3-.5.6v3.4h-.8v-4.8h.8Z"/>
      <path d="M133.1,146.9v1.2h.9v.6h-.9v3c0,.2,0,.3.1.4s.2.1.4.1c.1,0,.2,0,.4-.1v.7c-.2.1-.4.1-.6.1-.4,0-.6-.1-.8-.3s-.3-.5-.3-.9v-2.9h-.9v-.6h.9v-1.3h.8Z"/>
      <path d="M137.1,148.7h-.4c-.5,0-.9.2-1.1.7v3.4h-.8v-4.8h.8v.5c.3-.4.6-.6,1.1-.6.2,0,.3,0,.4.1v.7Z"/>
      <path d="M137.3,150.3c0-.5.1-.9.3-1.3.2-.4.4-.7.8-.9.3-.2.7-.3,1.1-.3.6,0,1.2.2,1.6.7.4.4.6,1,.6,1.8v.1c0,.5-.1.9-.3,1.2-.2.4-.4.7-.8.9-.3.2-.7.3-1.1.3-.6,0-1.2-.2-1.6-.7-.4-.4-.6-1-.6-1.8h0ZM138.1,150.4c0,.5.1,1,.4,1.3.2.3.6.5,1,.5s.7-.2,1-.5c.2-.3.4-.8.4-1.4,0-.5-.1-.9-.4-1.3-.2-.3-.6-.5-1-.5s-.7.2-1,.5-.4.8-.4,1.4Z"/>
      <path d="M143.4,152.8h-.8v-6.8h.8v6.8Z"/>
      <path d="M146.3,150.3c0-.5.1-.9.3-1.3.2-.4.4-.7.8-.9.3-.2.7-.3,1.1-.3.6,0,1.2.2,1.6.7.4.4.6,1,.6,1.8v.1c0,.5-.1.9-.3,1.2-.2.4-.4.7-.8.9-.3.2-.7.3-1.1.3-.6,0-1.2-.2-1.6-.7-.4-.4-.6-1-.6-1.8h0ZM147.2,150.4c0,.5.1,1,.4,1.3.2.3.6.5,1,.5s.7-.2,1-.5c.2-.3.4-.8.4-1.4,0-.5-.1-.9-.4-1.3-.2-.3-.6-.5-1-.5s-.7.2-1,.5-.4.8-.4,1.4Z"/>
      <path d="M153,151.7l1.2-3.7h.8l-1.7,4.8h-.6l-1.7-4.8h.8l1.2,3.7Z"/>
      <path d="M157.6,152.8c-.6,0-1.2-.2-1.6-.6s-.6-1-.6-1.7v-.1c0-.5.1-.9.3-1.3.2-.4.4-.7.8-.9.3-.2.7-.3,1.1-.3.6,0,1.1.2,1.4.6s.5,1,.5,1.7v.3h-3.2c0,.5.1.8.4,1.1.3.3.6.4,1,.4.3,0,.5-.1.7-.2s.4-.3.5-.5l.5.4c-.4.8-1,1.1-1.8,1.1ZM157.5,148.6c-.3,0-.6.1-.8.4s-.4.6-.4,1h2.4v-.1c0-.4-.1-.7-.3-1s-.6-.3-.9-.3Z"/>
      <path d="M162.5,148.7h-.4c-.5,0-.9.2-1.1.7v3.4h-.8v-4.8h.8v.5c.3-.4.6-.6,1.1-.6.2,0,.3,0,.4.1v.7Z"/>
      <path d="M111.6,162.3v-4.1h-.8v-.6h.8v-.5c0-.5.1-.9.4-1.2s.7-.4,1.2-.4c.2,0,.4,0,.6.1v.7h-.4c-.3,0-.5.1-.6.2s-.2.4-.2.7v.5h1v.6h-1v4.1h-1v-.1Z"/>
      <path d="M116.2,162.3c-.6,0-1.2-.2-1.6-.6s-.6-1-.6-1.7v-.1c0-.5.1-.9.3-1.3s.4-.7.8-.9c.3-.2.7-.3,1.1-.3.6,0,1.1.2,1.4.6s.5,1,.5,1.7v.3h-3.2c0,.5.1.8.4,1.1s.6.4,1,.4c.3,0,.5-.1.7-.2s.4-.3.5-.5l.5.4c-.4.8-1,1.1-1.8,1.1ZM116.1,158.1c-.3,0-.6.1-.8.4s-.4.6-.4,1h2.4v-.1c0-.4-.1-.7-.3-1s-.6-.3-.9-.3Z"/>
      <path d="M120.7,162.3c-.6,0-1.2-.2-1.6-.6s-.6-1-.6-1.7v-.1c0-.5.1-.9.3-1.3s.4-.7.8-.9c.3-.2.7-.3,1.1-.3.6,0,1.1.2,1.4.6s.5,1,.5,1.7v.3h-3.2c0,.5.1.8.4,1.1s.6.4,1,.4c.3,0,.5-.1.7-.2s.4-.3.5-.5l.5.4c-.4.8-1,1.1-1.8,1.1ZM120.6,158.1c-.3,0-.6.1-.8.4s-.4.6-.4,1h2.4v-.1c0-.4-.1-.7-.3-1s-.5-.3-.9-.3Z"/>
      <path d="M123.2,159.8c0-.7.2-1.3.5-1.8.3-.4.8-.7,1.4-.7s1,.2,1.3.6v-2.5h.8v6.8h-.7v-.5c-.3.4-.8.6-1.4.6s-1-.2-1.3-.7c-.5-.4-.6-1-.6-1.8h0ZM124,159.9c0,.5.1,1,.3,1.3s.5.5.9.5c.5,0,.9-.2,1.1-.7v-2.2c-.2-.4-.6-.7-1.1-.7-.4,0-.7.2-.9.5s-.3.7-.3,1.3Z"/>
      <path d="M132.3,159.9c0,.7-.2,1.3-.5,1.8s-.8.7-1.3.7c-.6,0-1.1-.2-1.4-.6v.5h-.7v-6.8h.8v2.5c.3-.4.8-.6,1.4-.6s1,.2,1.4.7c.1.4.3,1,.3,1.8h0ZM131.5,159.8c0-.6-.1-1-.3-1.3s-.5-.5-.9-.5c-.5,0-.9.2-1.2.7v2.1c.2.5.6.7,1.2.7.4,0,.7-.2.9-.5s.3-.5.3-1.2Z"/>
      <path d="M136.1,162.3c0-.1-.1-.3-.1-.5-.4.4-.8.6-1.4.6-.5,0-.9-.1-1.2-.4-.3-.3-.5-.6-.5-1,0-.5.2-.9.6-1.2.4-.3.9-.4,1.6-.4h.8v-.4c0-.3-.1-.5-.3-.7s-.4-.3-.8-.3c-.3,0-.5.1-.7.2s-.3.3-.3.5h-.8c0-.2.1-.5.3-.7s.4-.4.7-.5.6-.2,1-.2c.5,0,1,.1,1.3.4s.5.7.5,1.1v2.2c0,.4.1.8.2,1v.1h-.9v.2ZM134.7,161.6c.3,0,.5-.1.7-.2s.4-.3.5-.5v-1h-.6c-1,0-1.5.3-1.5.9,0,.3.1.5.3.6s.3.2.6.2Z"/>
      <path d="M139.8,161.7c.3,0,.5-.1.8-.3.2-.2.3-.4.4-.7h.8c0,.3-.1.5-.3.8s-.4.4-.7.6c-.3.1-.6.2-.9.2-.6,0-1.2-.2-1.5-.6-.4-.4-.6-1-.6-1.8v-.1c0-.5.1-.9.3-1.2s.4-.6.7-.8.7-.3,1.1-.3c.5,0,1,.2,1.3.5.4.3.5.7.6,1.2h-.8c0-.3-.1-.6-.3-.8s-.5-.3-.8-.3c-.4,0-.7.1-1,.4-.2.3-.3.7-.3,1.3v.2c0,.5.1,1,.3,1.3s.4.4.9.4Z"/>
      <path d="M143.7,160.1l-.5.5v1.7h-.8v-6.8h.8v4.1l.4-.5,1.5-1.6h1l-1.9,2,2.1,2.8h-1l-1.6-2.2Z"/>
      <path d="M149.9,156.4v1.2h.9v.6h-.9v3c0,.2,0,.3.1.4s.2.1.4.1c.1,0,.2,0,.4-.1v.7c-.2.1-.4.1-.6.1-.4,0-.6-.1-.8-.3s-.3-.5-.3-.9v-2.9h-.9v-.6h.9v-1.2h.8v-.1Z"/>
      <path d="M153.1,161.1l1.1-3.6h.9l-1.9,5.5c-.3.8-.8,1.2-1.4,1.2h-.2l-.3-.1v-.7h.2c.3,0,.5-.1.6-.2.2-.1.3-.3.4-.6l.2-.5-1.7-4.7h.9l1.2,3.7Z"/>
      <path d="M159.7,159.9c0,.7-.2,1.3-.5,1.7s-.8.7-1.3.7c-.6,0-1-.2-1.4-.5v2.3h-.8v-6.6h.7v.5c.3-.4.8-.6,1.4-.6s1,.2,1.4.6c.3.5.5,1.1.5,1.9h0ZM158.8,159.8c0-.5-.1-1-.3-1.3s-.5-.5-.9-.5c-.5,0-.9.2-1.1.7v2.3c.2.4.6.7,1.1.7.4,0,.7-.2.9-.5.2-.3.3-.7.3-1.4Z"/>
      <path d="M162.5,162.3c-.6,0-1.2-.2-1.6-.6s-.6-1-.6-1.7v-.1c0-.5.1-.9.3-1.3.2-.4.4-.7.8-.9.3-.2.7-.3,1.1-.3.6,0,1.1.2,1.4.6s.5,1,.5,1.7v.3h-3.2c0,.5.1.8.4,1.1.3.3.6.4,1,.4.3,0,.5-.1.7-.2s.4-.3.5-.5l.5.4c-.4.8-1,1.1-1.8,1.1ZM162.4,158.1c-.3,0-.6.1-.8.4s-.4.6-.4,1h2.4v-.1c0-.4-.1-.7-.3-1s-.6-.3-.9-.3Z"/>
      <path d="M167.9,161c0-.2-.1-.4-.2-.5-.2-.1-.5-.2-.9-.3s-.7-.2-1-.3c-.2-.1-.4-.3-.5-.4-.1-.2-.2-.4-.2-.6,0-.4.2-.7.5-1s.8-.4,1.3-.4,1,.1,1.3.4c.3.3.5.6.5,1.1h-.8c0-.2-.1-.4-.3-.6-.2-.2-.4-.2-.7-.2s-.5.1-.7.2-.3.3-.3.5.1.3.2.4.4.2.8.3c.4.1.7.2,1,.3s.4.3.6.5c.1.2.2.4.2.6,0,.4-.2.8-.5,1-.3.3-.8.4-1.3.4-.4,0-.7-.1-1-.2s-.5-.3-.7-.6c-.2-.2-.2-.5-.2-.8h.8c0,.3.1.5.3.6.2.2.5.2.8.2s.6-.1.7-.2c.2,0,.3-.2.3-.4Z"/>
    </g>
    <g>
      <rect class="cls-1" x="104.8" y="239.4" width="63.9" height="11.7"/>
      <path d="M122,243.7c0-.7.2-1.3.5-1.8.3-.4.8-.7,1.4-.7s1,.2,1.3.6v-2.5h.8v6.8h-.7v-.5c-.3.4-.8.6-1.4.6s-1-.2-1.3-.7c-.4-.4-.6-1-.6-1.8h0ZM122.8,243.8c0,.5.1,1,.3,1.3s.5.5.9.5c.5,0,.9-.2,1.1-.7v-2.2c-.2-.4-.6-.7-1.1-.7-.4,0-.7.2-.9.5s-.3.7-.3,1.3Z"/>
      <path d="M129.1,246.2c-.6,0-1.2-.2-1.6-.6s-.6-1-.6-1.7v-.2c0-.5.1-.9.3-1.3s.4-.7.8-.9c.3-.2.7-.3,1.1-.3.6,0,1.1.2,1.4.6.3.4.5,1,.5,1.7v.3h-3.2c0,.5.1.8.4,1.1.3.3.6.4,1,.4.3,0,.5-.1.7-.2s.4-.3.5-.5l.5.4c-.4.9-1,1.2-1.8,1.2ZM129,242c-.3,0-.6.1-.8.4s-.4.6-.4,1h2.4v-.1c0-.4-.1-.7-.3-1s-.6-.3-.9-.3Z"/>
      <path d="M134.5,244.9c0-.2-.1-.4-.2-.5-.2-.1-.5-.2-.9-.3s-.7-.2-1-.3c-.2-.1-.4-.3-.5-.4-.1-.2-.2-.4-.2-.6,0-.4.2-.7.5-1s.8-.4,1.3-.4,1,.1,1.3.4c.3.3.5.6.5,1.1h-.8c0-.2-.1-.4-.3-.6-.2-.2-.4-.2-.7-.2s-.5.1-.7.2-.3.3-.3.5.1.3.2.4.4.2.8.3c.4.1.7.2,1,.3s.4.3.6.5c.1.2.2.4.2.6,0,.4-.2.8-.5,1-.3.3-.8.4-1.3.4-.4,0-.7-.1-1-.2s-.5-.3-.7-.6c-.2-.2-.2-.5-.2-.8h.8c0,.3.1.5.3.6.2.2.5.2.8.2s.6-.1.7-.2c.2,0,.3-.2.3-.4Z"/>
      <path d="M136.2,240.1c0-.1,0-.2.1-.3s.2-.1.4-.1.3,0,.4.1c.1.1.1.2.1.3s0,.2-.1.3-.2.1-.4.1-.3,0-.4-.1c-.1,0-.1-.1-.1-.3ZM137.1,246.1h-.8v-4.8h.8v4.8Z"/>
      <path d="M138,243.7c0-.7.2-1.3.5-1.8.3-.4.8-.7,1.4-.7s1,.2,1.4.6v-.5h.7v4.6c0,.6-.2,1.1-.5,1.5-.4.4-.9.5-1.5.5-.3,0-.7-.1-1-.2s-.6-.3-.8-.6l.4-.5c.3.4.8.6,1.3.6.4,0,.7-.1.9-.3s.3-.5.3-.9v-.4c-.3.4-.8.6-1.3.6-.6,0-1-.2-1.4-.7-.2-.4-.4-1-.4-1.8ZM138.8,243.8c0,.5.1,1,.3,1.3s.5.5.9.5c.5,0,.9-.2,1.1-.7v-2.2c-.2-.5-.6-.7-1.1-.7-.4,0-.7.2-.9.5s-.3.7-.3,1.3Z"/>
      <path d="M143.8,241.4v.6c.4-.5.8-.7,1.4-.7,1,0,1.5.6,1.5,1.7v3.1h-.7v-3.1c0-.3-.1-.6-.2-.8-.2-.2-.4-.2-.7-.2s-.5.1-.7.2c-.2.1-.4.3-.5.6v3.4h-.9v-4.8h.8Z"/>
      <path d="M150.6,244.9c0-.2-.1-.4-.2-.5-.2-.1-.5-.2-.9-.3s-.7-.2-1-.3c-.2-.1-.4-.3-.5-.4-.1-.2-.2-.4-.2-.6,0-.4.2-.7.5-1s.8-.4,1.3-.4,1,.1,1.3.4c.3.3.5.6.5,1.1h-.8c0-.2-.1-.4-.3-.6-.2-.2-.4-.2-.7-.2s-.5.1-.7.2-.3.3-.3.5.1.3.2.4.4.2.8.3c.4.1.7.2,1,.3s.4.3.6.5c.1.2.2.4.2.6,0,.4-.2.8-.5,1-.3.3-.8.4-1.3.4-.4,0-.7-.1-1-.2s-.5-.3-.7-.6c-.2-.2-.2-.5-.2-.8h.8c0,.3.1.5.3.6.2.2.5.2.8.2s.6-.1.7-.2c.2,0,.3-.2.3-.4Z"/>
    </g>
    <g>
      <rect class="cls-1" x="225.2" y="30.8" width="51.1" height="20.5"/>
      <path d="M236.3,34.7h-2.7v2.8h-.8v-6.4h4v.8h-3.1v2.2h2.7v.6h-.1Z"/>
      <path d="M239.4,37.7c-.6,0-1.2-.2-1.6-.6s-.6-1-.6-1.7v-.1c0-.5.1-.9.3-1.3s.4-.7.8-.9c.3-.2.7-.3,1.1-.3.6,0,1.1.2,1.4.6s.5,1,.5,1.7v.3h-3.3c0,.5.1.8.4,1.1.3.3.6.4,1,.4.3,0,.5-.1.7-.2s.4-.3.5-.5l.5.4c-.3.7-.9,1.1-1.7,1.1ZM239.3,33.4c-.3,0-.6.1-.8.4s-.4.6-.4,1h2.4v-.1c0-.4-.1-.7-.3-1s-.6-.3-.9-.3Z"/>
      <path d="M244,37.7c-.6,0-1.2-.2-1.6-.6s-.6-1-.6-1.7v-.1c0-.5.1-.9.3-1.3s.4-.7.8-.9c.3-.2.7-.3,1.1-.3.6,0,1.1.2,1.4.6s.5,1,.5,1.7v.3h-3.2c0,.5.1.8.4,1.1.3.3.6.4,1,.4.3,0,.5-.1.7-.2s.4-.3.5-.5l.5.4c-.4.7-1,1.1-1.8,1.1ZM243.9,33.4c-.3,0-.6.1-.8.4s-.4.6-.4,1h2.4v-.1c0-.4-.1-.7-.3-1s-.6-.3-.9-.3Z"/>
      <path d="M246.4,35.1c0-.7.2-1.3.5-1.8.3-.4.8-.7,1.4-.7s1,.2,1.3.6v-2.5h.8v6.8h-.7v-.5c-.3.4-.8.6-1.4.6s-1-.2-1.3-.7c-.4-.4-.6-1-.6-1.8h0ZM247.2,35.2c0,.5.1,1,.3,1.3s.5.5.9.5c.5,0,.9-.2,1.1-.7v-2.2c-.2-.4-.6-.7-1.1-.7-.4,0-.7.2-.9.5s-.3.7-.3,1.3Z"/>
      <path d="M255.5,35.2c0,.7-.2,1.3-.5,1.8s-.8.7-1.3.7c-.6,0-1.1-.2-1.4-.6v.5h-.7v-6.8h.8v2.5c.3-.4.8-.6,1.4-.6s1,.2,1.4.7c.1.4.3,1,.3,1.8h0ZM254.7,35.1c0-.6-.1-1-.3-1.3s-.5-.5-.9-.5c-.5,0-.9.2-1.2.7v2.1c.2.5.6.7,1.2.7.4,0,.7-.2.9-.5s.3-.5.3-1.2Z"/>
      <path d="M259.3,37.6c0-.1-.1-.3-.1-.5-.4.4-.8.6-1.4.6-.5,0-.9-.1-1.2-.4-.3-.3-.5-.6-.5-1,0-.5.2-.9.6-1.2.4-.3.9-.4,1.6-.4h.8v-.4c0-.3-.1-.5-.3-.7-.2-.2-.4-.3-.8-.3-.3,0-.5.1-.7.2s-.3.3-.3.5h-.8c0-.2.1-.5.3-.7.2-.2.4-.4.7-.5.3-.1.6-.2,1-.2.5,0,1,.1,1.3.4s.5.7.5,1.1v2.2c0,.4.1.8.2,1v.1h-.9v.2ZM257.9,36.9c.3,0,.5-.1.7-.2s.4-.3.5-.5v-1h-.6c-1,0-1.5.3-1.5.9,0,.3.1.5.3.6s.4.2.6.2Z"/>
      <path d="M263,37c.3,0,.5-.1.8-.3.2-.2.3-.4.4-.7h.8c0,.3-.1.5-.3.8s-.4.4-.7.6c-.3.1-.6.2-.9.2-.6,0-1.2-.2-1.5-.6-.4-.4-.6-1-.6-1.8v-.1c0-.5.1-.9.3-1.2s.4-.6.7-.8c.3-.2.7-.3,1.1-.3.5,0,1,.2,1.3.5.4.3.5.7.6,1.2h-.8c0-.3-.1-.6-.3-.8-.2-.2-.5-.3-.8-.3-.4,0-.7.1-1,.4-.2.3-.3.7-.3,1.3v.2c0,.5.1,1,.3,1.3s.4.4.9.4Z"/>
      <path d="M266.9,35.4l-.5.5v1.7h-.8v-6.8h.8v4.1l.4-.5,1.5-1.6h1l-1.9,2,2.1,2.8h-1l-1.6-2.2Z"/>
      <path d="M234.7,44.6c0-.7.2-1.3.5-1.8.3-.4.8-.7,1.4-.7s1,.2,1.3.6v-2.5h.8v6.8h-.7v-.5c-.3.4-.8.6-1.4.6s-1-.2-1.3-.7c-.4-.4-.6-1-.6-1.8h0ZM235.5,44.7c0,.5.1,1,.3,1.3s.5.5.9.5c.5,0,.9-.2,1.1-.7v-2.2c-.2-.4-.6-.7-1.1-.7-.4,0-.7.2-.9.5s-.3.7-.3,1.3Z"/>
      <path d="M239.8,41c0-.1,0-.2.1-.3s.2-.1.4-.1.3,0,.4.1.1.2.1.3,0,.2-.1.3-.2.1-.4.1-.3,0-.4-.1c-.1,0-.1-.1-.1-.3ZM240.7,47.1h-.8v-4.8h.8v4.8Z"/>
      <path d="M244.7,47.1c0-.1-.1-.3-.1-.5-.4.4-.8.6-1.4.6-.5,0-.9-.1-1.2-.4-.3-.3-.5-.6-.5-1,0-.5.2-.9.6-1.2.4-.3.9-.4,1.6-.4h.8v-.4c0-.3-.1-.5-.3-.7s-.4-.3-.8-.3c-.3,0-.5.1-.7.2s-.3.3-.3.5h-.8c0-.2.1-.5.3-.7s.4-.4.7-.5.6-.2,1-.2c.5,0,1,.1,1.3.4s.5.7.5,1.1v2.2c0,.4.1.8.2,1v.1h-.9v.2ZM243.4,46.4c.3,0,.5-.1.7-.2s.4-.3.5-.5v-1h-.6c-1,0-1.5.3-1.5.9,0,.3.1.5.3.6s.3.2.6.2Z"/>
      <path d="M247.4,47.1h-.8v-6.8h.8v6.8Z"/>
      <path d="M248.3,44.6c0-.5.1-.9.3-1.3.2-.4.4-.7.8-.9.3-.2.7-.3,1.1-.3.6,0,1.2.2,1.6.7.4.4.6,1,.6,1.8v.1c0,.5-.1.9-.3,1.2-.2.4-.4.7-.8.9-.3.2-.7.3-1.1.3-.6,0-1.2-.2-1.6-.7-.4-.4-.6-1-.6-1.8h0ZM249.1,44.7c0,.5.1,1,.4,1.3.2.3.6.5,1,.5s.7-.2,1-.5c.2-.3.4-.8.4-1.4,0-.5-.1-.9-.4-1.3-.2-.3-.6-.5-1-.5s-.7.2-1,.5-.4.8-.4,1.4Z"/>
      <path d="M253.3,44.6c0-.7.2-1.3.5-1.8.3-.4.8-.7,1.4-.7s1,.2,1.4.6v-.5h.7v4.7c0,.6-.2,1.1-.5,1.5-.4.4-.9.5-1.5.5-.3,0-.7-.1-1-.2s-.6-.3-.8-.6l.4-.5c.3.4.8.6,1.3.6.4,0,.7-.1.9-.3.2-.2.3-.5.3-.9v-.4c-.3.4-.8.6-1.3.6-.6,0-1-.2-1.4-.7-.3-.5-.4-1.1-.4-1.9ZM254.1,44.7c0,.5.1,1,.3,1.3s.5.5.9.5c.5,0,.9-.2,1.1-.7v-2.2c-.2-.5-.6-.7-1.1-.7-.4,0-.7.2-.9.5s-.3.7-.3,1.3Z"/>
      <path d="M261.3,46.6c-.3.4-.8.6-1.4.6-.5,0-.9-.1-1.2-.4-.3-.3-.4-.7-.4-1.3v-3.1h.8v3.1c0,.7.3,1.1.9,1.1s1-.2,1.2-.7v-3.5h.8v4.8h-.8l.1-.6Z"/>
      <path d="M265.1,47.2c-.6,0-1.2-.2-1.6-.6s-.6-1-.6-1.7v-.1c0-.5.1-.9.3-1.3.2-.4.4-.7.8-.9.3-.2.7-.3,1.1-.3.6,0,1.1.2,1.4.6s.5,1,.5,1.7v.3h-3.2c0,.5.1.8.4,1.1s.6.4,1,.4c.3,0,.5-.1.7-.2s.4-.3.5-.5l.5.4c-.4.7-1,1.1-1.8,1.1ZM265,42.9c-.3,0-.6.1-.8.4s-.4.6-.4,1h2.4v-.1c0-.4-.1-.7-.3-1s-.6-.3-.9-.3Z"/>
    </g>
    <g>
      <rect class="cls-1" x="345.6" y="194.2" width="51.1" height="20.5"/>
      <path d="M356.6,198.2h-2.7v2.8h-.8v-6.4h4v.7h-3.1v2.2h2.7v.7h-.1Z"/>
      <path d="M359.7,201.1c-.6,0-1.2-.2-1.6-.6s-.6-1-.6-1.7v-.1c0-.5.1-.9.3-1.3.2-.4.4-.7.8-.9.3-.2.7-.3,1.1-.3.6,0,1.1.2,1.4.6s.5,1,.5,1.7v.3h-3.2c0,.5.1.8.4,1.1s.6.4,1,.4c.3,0,.5-.1.7-.2s.4-.3.5-.5l.5.4c-.4.8-1,1.1-1.8,1.1ZM359.6,196.8c-.3,0-.6.1-.8.4s-.4.6-.4,1h2.4v-.1c0-.4-.1-.7-.3-1s-.5-.3-.9-.3Z"/>
      <path d="M364.3,201.1c-.6,0-1.2-.2-1.6-.6s-.6-1-.6-1.7v-.1c0-.5.1-.9.3-1.3.2-.4.4-.7.8-.9.3-.2.7-.3,1.1-.3.6,0,1.1.2,1.4.6s.5,1,.5,1.7v.3h-3.2c0,.5.1.8.4,1.1s.6.4,1,.4c.3,0,.5-.1.7-.2s.4-.3.5-.5l.5.4c-.4.8-1,1.1-1.8,1.1ZM364.2,196.8c-.3,0-.6.1-.8.4s-.4.6-.4,1h2.4v-.1c0-.4-.1-.7-.3-1s-.5-.3-.9-.3Z"/>
      <path d="M366.7,198.6c0-.7.2-1.3.5-1.8.3-.4.8-.7,1.4-.7s1,.2,1.3.6v-2.5h.8v6.8h-.7v-.5c-.3.4-.8.6-1.4.6s-1-.2-1.3-.7c-.4-.5-.6-1.1-.6-1.8h0ZM367.5,198.7c0,.5.1,1,.3,1.3s.5.5.9.5c.5,0,.9-.2,1.1-.7v-2.2c-.2-.4-.6-.7-1.1-.7-.4,0-.7.2-.9.5s-.3.6-.3,1.3Z"/>
      <path d="M375.9,198.7c0,.7-.2,1.3-.5,1.8s-.8.7-1.3.7c-.6,0-1.1-.2-1.4-.6v.5h-.7v-6.8h.8v2.5c.3-.4.8-.6,1.4-.6s1,.2,1.4.7c.1.3.3.9.3,1.8h0ZM375,198.6c0-.6-.1-1-.3-1.3s-.5-.5-.9-.5c-.5,0-.9.2-1.2.7v2.1c.2.5.6.7,1.2.7.4,0,.7-.2.9-.5s.3-.6.3-1.2Z"/>
      <path d="M379.6,201c0-.1-.1-.3-.1-.5-.4.4-.8.6-1.4.6-.5,0-.9-.1-1.2-.4-.3-.3-.5-.6-.5-1,0-.5.2-.9.6-1.2s.9-.4,1.6-.4h.8v-.4c0-.3-.1-.5-.3-.7-.2-.2-.4-.3-.8-.3-.3,0-.5.1-.7.2s-.3.3-.3.5h-.8c0-.2.1-.5.3-.7.2-.2.4-.4.7-.5.3-.1.6-.2,1-.2.5,0,1,.1,1.3.4s.5.7.5,1.1v2.2c0,.4.1.8.2,1v.1h-.9v.2ZM378.3,200.4c.3,0,.5-.1.7-.2s.4-.3.5-.5v-1h-.6c-1,0-1.5.3-1.5.9,0,.3.1.5.3.6s.3.2.6.2Z"/>
      <path d="M383.3,200.4c.3,0,.5-.1.8-.3.2-.2.3-.4.4-.7h.8c0,.3-.1.5-.3.8s-.4.4-.7.6c-.3.1-.6.2-.9.2-.6,0-1.2-.2-1.5-.6-.4-.4-.6-1-.6-1.8v-.1c0-.5.1-.9.3-1.2s.4-.6.7-.8c.3-.2.7-.3,1.1-.3.5,0,1,.2,1.3.5.4.3.5.7.6,1.2h-.8c0-.3-.1-.6-.3-.8-.2-.2-.5-.3-.8-.3-.4,0-.7.1-1,.4-.2.3-.3.7-.3,1.3v.2c0,.5.1,1,.3,1.3s.5.4.9.4Z"/>
      <path d="M387.3,198.8l-.5.5v1.7h-.8v-6.8h.8v4.1l.4-.5,1.5-1.6h1l-1.9,2,2.1,2.8h-1l-1.6-2.2Z"/>
      <path d="M355,208.1c0-.7.2-1.3.5-1.8.3-.4.8-.7,1.4-.7s1,.2,1.3.6v-2.5h.8v6.8h-.7v-.5c-.3.4-.8.6-1.4.6s-1-.2-1.3-.7c-.4-.5-.6-1.1-.6-1.8h0ZM355.9,208.2c0,.5.1,1,.3,1.3s.5.5.9.5c.5,0,.9-.2,1.1-.7v-2.2c-.2-.4-.6-.7-1.1-.7-.4,0-.7.2-.9.5s-.3.6-.3,1.3Z"/>
      <path d="M360.1,204.5c0-.1,0-.2.1-.3s.2-.1.4-.1.3,0,.4.1.1.2.1.3,0,.2-.1.3-.2.1-.4.1-.3,0-.4-.1c0-.1-.1-.2-.1-.3ZM361,210.5h-.8v-4.8h.8v4.8Z"/>
      <path d="M365.1,210.5c0-.1-.1-.3-.1-.5-.4.4-.8.6-1.4.6-.5,0-.9-.1-1.2-.4-.3-.3-.5-.6-.5-1,0-.5.2-.9.6-1.2s.9-.4,1.6-.4h.8v-.4c0-.3-.1-.5-.3-.7-.2-.2-.4-.3-.8-.3-.3,0-.5.1-.7.2s-.3.3-.3.5h-.8c0-.2.1-.5.3-.7.2-.2.4-.4.7-.5.3-.1.6-.2,1-.2.5,0,1,.1,1.3.4.3.3.5.7.5,1.1v2.2c0,.4.1.8.2,1v.1h-.9v.2ZM363.7,209.9c.3,0,.5-.1.7-.2s.4-.3.5-.5v-1h-.6c-1,0-1.5.3-1.5.9,0,.3.1.5.3.6s.4.2.6.2Z"/>
      <path d="M367.7,210.5h-.8v-6.8h.8v6.8Z"/>
      <path d="M368.6,208.1c0-.5.1-.9.3-1.3.2-.4.4-.7.8-.9.3-.2.7-.3,1.1-.3.6,0,1.2.2,1.6.7.4.4.6,1,.6,1.8v.1c0,.5-.1.9-.3,1.2-.2.4-.4.7-.8.9-.3.2-.7.3-1.1.3-.6,0-1.2-.2-1.6-.7-.4-.5-.6-1-.6-1.8h0ZM369.5,208.2c0,.5.1,1,.4,1.3.2.3.6.5,1,.5s.7-.2,1-.5c.2-.3.4-.8.4-1.4,0-.5-.1-.9-.4-1.3-.2-.3-.6-.5-1-.5s-.7.2-1,.5-.4.8-.4,1.4Z"/>
      <path d="M373.6,208.1c0-.7.2-1.3.5-1.8.3-.4.8-.7,1.4-.7s1,.2,1.4.6v-.5h.7v4.6c0,.6-.2,1.1-.5,1.5-.4.4-.9.5-1.5.5-.3,0-.7-.1-1-.2s-.6-.3-.8-.6l.4-.5c.3.4.8.6,1.3.6.4,0,.7-.1.9-.3.2-.2.3-.5.3-.9v-.4c-.3.4-.8.6-1.3.6-.6,0-1-.2-1.4-.7-.2-.5-.4-1.1-.4-1.8ZM374.4,208.2c0,.5.1,1,.3,1.3.2.3.5.5.9.5.5,0,.9-.2,1.1-.7v-2.2c-.2-.5-.6-.7-1.1-.7-.4,0-.7.2-.9.5s-.3.6-.3,1.3Z"/>
      <path d="M381.6,210c-.3.4-.8.6-1.4.6-.5,0-.9-.1-1.2-.4-.3-.3-.4-.7-.4-1.3v-3.1h.8v3.1c0,.7.3,1.1.9,1.1s1-.2,1.2-.7v-3.5h.8v4.8h-.8l.1-.6Z"/>
      <path d="M385.4,210.6c-.6,0-1.2-.2-1.6-.6-.4-.4-.6-1-.6-1.7v-.1c0-.5.1-.9.3-1.3.2-.4.4-.7.8-.9.3-.2.7-.3,1.1-.3.6,0,1.1.2,1.4.6s.5,1,.5,1.7v.3h-3.2c0,.5.1.8.4,1.1s.6.4,1,.4c.3,0,.5-.1.7-.2s.4-.3.5-.5l.5.4c-.4.8-1,1.1-1.8,1.1ZM385.3,206.3c-.3,0-.6.1-.8.4-.2.2-.4.6-.4,1h2.4v-.1c0-.4-.1-.7-.3-1-.3-.2-.5-.3-.9-.3Z"/>
    </g>
    <g>
      <rect class="cls-1" x="178.5" y="251.7" width="82.7" height="20.5"/>
      <path d="M197.9,256.7h-2.7l-.6,1.7h-.9l2.4-6.4h.7l2.4,6.4h-.9l-.4-1.7ZM195.5,256.1h2.2l-1.1-3-1.1,3Z"/>
      <path d="M201,258.4h-.8v-6.4h.8v6.4Z"/>
      <path d="M207.2,258.4c0-.1-.1-.3-.1-.5-.4.4-.8.6-1.4.6-.5,0-.9-.1-1.2-.4-.3-.3-.5-.6-.5-1,0-.5.2-.9.6-1.2.4-.3.9-.4,1.6-.4h.8v-.4c0-.3-.1-.5-.3-.7s-.4-.3-.8-.3c-.3,0-.5.1-.7.2s-.3.3-.3.5h-.8c0-.2.1-.5.3-.7s.4-.4.7-.5.6-.2,1-.2c.5,0,1,.1,1.3.4.3.3.5.7.5,1.1v2.2c0,.4.1.8.2,1v.1h-.9v.2ZM205.9,257.8c.3,0,.5-.1.7-.2s.4-.3.5-.5v-1h-.6c-1,0-1.5.3-1.5.9,0,.3.1.5.3.6s.3.2.6.2Z"/>
      <path d="M213,256.1c0,.7-.2,1.3-.5,1.7s-.8.7-1.3.7c-.6,0-1-.2-1.4-.5v2.3h-.8v-6.6h.7v.5c.3-.4.8-.6,1.4-.6s1,.2,1.4.6c.4.5.5,1.1.5,1.9h0ZM212.2,256c0-.5-.1-1-.3-1.3s-.5-.5-.9-.5c-.5,0-.9.2-1.1.7v2.3c.2.4.6.7,1.1.7.4,0,.7-.2.9-.5.2-.3.3-.8.3-1.4Z"/>
      <path d="M217.9,256.1c0,.7-.2,1.3-.5,1.7s-.8.7-1.3.7c-.6,0-1-.2-1.4-.5v2.3h-.8v-6.6h.7v.5c.3-.4.8-.6,1.4-.6s1,.2,1.4.6c.3.5.5,1.1.5,1.9h0ZM217.1,256c0-.5-.1-1-.3-1.3s-.5-.5-.9-.5c-.5,0-.9.2-1.1.7v2.3c.2.4.6.7,1.1.7.4,0,.7-.2.9-.5s.3-.8.3-1.4Z"/>
      <path d="M219.6,258.4h-.8v-6.8h.8v6.8Z"/>
      <path d="M220.7,252.4c0-.1,0-.2.1-.3s.2-.1.4-.1.3,0,.4.1.1.2.1.3,0,.2-.1.3-.2.1-.4.1-.3,0-.4-.1c0-.1-.1-.2-.1-.3ZM221.6,258.4h-.8v-4.8h.8v4.8Z"/>
      <path d="M224.7,257.8c.3,0,.5-.1.8-.3.2-.2.3-.4.4-.7h.8c0,.3-.1.5-.3.8s-.4.4-.7.6c-.3.1-.6.2-.9.2-.6,0-1.2-.2-1.5-.6-.4-.4-.6-1-.6-1.8v-.1c0-.5.1-.9.3-1.2s.4-.6.7-.8.7-.3,1.1-.3c.5,0,1,.2,1.3.5.4.3.5.7.6,1.2h-.8c0-.3-.1-.6-.3-.8s-.5-.3-.8-.3c-.4,0-.7.1-1,.4-.2.3-.3.7-.3,1.3v.2c0,.5.1,1,.3,1.3s.4.4.9.4Z"/>
      <path d="M230.2,258.4c0-.1-.1-.3-.1-.5-.4.4-.8.6-1.4.6-.5,0-.9-.1-1.2-.4-.3-.3-.5-.6-.5-1,0-.5.2-.9.6-1.2.4-.3.9-.4,1.6-.4h.8v-.4c0-.3-.1-.5-.3-.7s-.4-.3-.8-.3c-.3,0-.5.1-.7.2s-.3.3-.3.5h-.8c0-.2.1-.5.3-.7s.4-.4.7-.5.6-.2,1-.2c.5,0,1,.1,1.3.4.3.3.5.7.5,1.1v2.2c0,.4.1.8.2,1v.1h-.9v.2ZM228.9,257.8c.3,0,.5-.1.7-.2s.4-.3.5-.5v-1h-.6c-1,0-1.5.3-1.5.9,0,.3.1.5.3.6s.3.2.6.2Z"/>
      <path d="M233.1,252.5v1.2h.9v.6h-.9v3c0,.2,0,.3.1.4.1.1.2.1.4.1.1,0,.2,0,.4-.1v.7c-.2.1-.4.1-.6.1-.4,0-.6-.1-.8-.3s-.3-.5-.3-.9v-2.9h-.9v-.6h.9v-1.2h.8v-.1Z"/>
      <path d="M234.8,252.4c0-.1,0-.2.1-.3s.2-.1.4-.1.3,0,.4.1.1.2.1.3,0,.2-.1.3-.2.1-.4.1-.3,0-.4-.1c-.1-.1-.1-.2-.1-.3ZM235.6,258.4h-.8v-4.8h.8v4.8Z"/>
      <path d="M236.5,256c0-.5.1-.9.3-1.3.2-.4.4-.7.8-.9.3-.2.7-.3,1.1-.3.6,0,1.2.2,1.6.7.4.4.6,1,.6,1.8v.1c0,.5-.1.9-.3,1.2-.2.4-.4.7-.8.9-.3.2-.7.3-1.1.3-.6,0-1.2-.2-1.6-.7-.4-.4-.6-1-.6-1.8h0ZM237.4,256.1c0,.5.1,1,.4,1.3.2.3.6.5,1,.5s.7-.2,1-.5c.2-.3.4-.8.4-1.4,0-.5-.1-.9-.4-1.3-.2-.3-.6-.5-1-.5s-.7.2-1,.5-.4.8-.4,1.4Z"/>
      <path d="M242.5,253.7v.6c.4-.5.8-.7,1.4-.7,1,0,1.5.6,1.5,1.7v3.1h-.8v-3.1c0-.3-.1-.6-.2-.8-.2-.2-.4-.2-.7-.2s-.5.1-.7.2c-.2.1-.4.3-.5.6v3.4h-.8v-4.8h.8Z"/>
    </g>
    <g>
      <rect class="cls-1" x="31.5" y="250.2" width="63.9" height="11.7"/>
      <path d="M44.4,256.9v-6.4h2c.6,0,1.1.1,1.5.4.4.3.8.6,1,1.1s.4,1,.4,1.6v.3c0,.6-.1,1.1-.4,1.6-.2.5-.6.8-1,1.1s-.9.4-1.5.4h-2v-.1ZM45.7,251.6v4.3h.6c.5,0,.9-.2,1.2-.5s.4-.8.4-1.4v-.3c0-.7-.1-1.1-.4-1.5-.3-.3-.7-.5-1.2-.5h-.6v-.1Z"/>
      <path d="M52.2,257c-.7,0-1.3-.2-1.7-.6-.4-.4-.7-1-.7-1.7v-.1c0-.5.1-.9.3-1.3.2-.4.4-.7.8-.9.3-.2.7-.3,1.2-.3.7,0,1.2.2,1.5.6.4.4.6,1,.6,1.7v.5h-3c0,.3.2.6.4.7.2.2.5.3.8.3.5,0,.9-.2,1.1-.5l.6.7c-.2.3-.4.5-.8.6-.4.2-.7.3-1.1.3ZM52,253.1c-.3,0-.5.1-.6.3-.2.2-.3.4-.3.7h1.8v-.1c0-.3-.1-.5-.2-.7s-.4-.2-.7-.2Z"/>
      <path d="M56.4,255.4l.9-3.2h1.3l-1.6,4.7h-1.2l-1.6-4.8h1.3l.9,3.3Z"/>
      <path d="M61.2,257c-.7,0-1.3-.2-1.7-.6-.4-.4-.7-1-.7-1.7v-.1c0-.5.1-.9.3-1.3.2-.4.4-.7.8-.9.3-.2.7-.3,1.2-.3.7,0,1.2.2,1.5.6.4.4.6,1,.6,1.7v.5h-3c0,.3.2.6.4.7.2.2.5.3.8.3.5,0,.9-.2,1.1-.5l.6.7c-.2.3-.4.5-.8.6-.4.2-.7.3-1.1.3ZM61,253.1c-.3,0-.5.1-.6.3-.2.2-.3.4-.3.7h1.8v-.1c0-.3-.1-.5-.2-.7s-.4-.2-.7-.2Z"/>
      <path d="M65,256.9h-1.3v-6.8h1.3v6.8Z"/>
      <path d="M65.7,254.5c0-.5.1-.9.3-1.3s.4-.7.8-.9c.3-.2.7-.3,1.2-.3.6,0,1.2.2,1.6.6.4.4.6.9.7,1.6v.3c0,.7-.2,1.3-.6,1.8-.4.4-1,.7-1.6.7s-1.2-.2-1.6-.7c-.6-.4-.8-1-.8-1.8h0ZM66.9,254.6c0,.5.1.8.3,1,.2.2.4.4.7.4s.5-.1.7-.4c.2-.2.3-.6.3-1.1,0-.4-.1-.8-.3-1-.2-.2-.4-.4-.7-.4s-.6.1-.7.4c-.2.2-.3.6-.3,1.1Z"/>
      <path d="M75,254.6c0,.7-.2,1.3-.5,1.8-.3.4-.8.7-1.3.7s-.9-.2-1.2-.5v2.2h-1.3v-6.6h1.2v.5c.3-.4.7-.6,1.2-.6.6,0,1,.2,1.4.7s.5,1,.5,1.8h0ZM73.8,254.5c0-.4-.1-.8-.2-1-.2-.2-.4-.4-.7-.4-.4,0-.7.2-.8.5v1.9c.2.3.4.5.8.5.6,0,.9-.5.9-1.5Z"/>
      <path d="M77.8,257c-.7,0-1.3-.2-1.7-.6-.4-.4-.7-1-.7-1.7v-.1c0-.5.1-.9.3-1.3s.4-.7.8-.9c.3-.2.7-.3,1.2-.3.7,0,1.2.2,1.5.6.4.4.6,1,.6,1.7v.5h-3c0,.3.2.6.4.7.2.2.5.3.8.3.5,0,.9-.2,1.1-.5l.6.7c-.2.3-.4.5-.8.6-.3.2-.7.3-1.1.3ZM77.7,253.1c-.3,0-.5.1-.6.3-.2.2-.3.4-.3.7h1.8v-.1c0-.3-.1-.5-.2-.7s-.4-.2-.7-.2Z"/>
      <path d="M83,253.4h-.5c-.5,0-.8.2-.9.5v3.1h-1.3v-4.8h1.2v.6c.3-.4.6-.7,1.1-.7.1,0,.3,0,.4.1v1.2Z"/>
    </g>
    <g>
      <path class="cls-3" d="M61.9,185.8c.2-6.9,2.1-13.6,5.5-19.5l8.7-15.3c9.7-17,6.4-38.5-7.9-51.7h0c-6.4-5.9-10.8-13.7-12.5-22.2"/>
      <polygon points="65.9 184.6 61.8 191.5 57.9 184.6 65.9 184.6"/>
    </g>
    <g>
      <path class="cls-3" d="M117.5,78.1h0c8,16.8,19.7,30.6,33.8,39.6l23.6,15.1c18.2,11.6,32.2,31,39.5,54.2"/>
      <polygon points="210.2 187.1 215.9 192.6 217.8 184.9 210.2 187.1"/>
    </g>
    <g>
      <line class="cls-9" x1="91.9" y1="229.9" x2="179.8" y2="229.9"/>
      <polygon points="178.6 233.9 185.5 229.9 178.6 225.9 178.6 233.9"/>
    </g>
    <g>
      <line class="cls-9" x1="140.5" y1="53.4" x2="345.8" y2="53.4"/>
      <polygon points="141.6 57.4 134.7 53.4 141.6 49.4 141.6 57.4"/>
      <polygon points="344.6 57.4 351.5 53.4 344.6 49.4 344.6 57.4"/>
    </g>
    <g>
      <path class="cls-9" d="M376.8,104.1c-1,28.4-13.3,105-113.1,124.7"/>
      <polygon points="372.8 105.2 376.9 98.4 380.8 105.4 372.8 105.2"/>
      <polygon points="264.1 224.7 258.1 229.9 265.6 232.5 264.1 224.7"/>
    </g>
    <path class="cls-12" d="M377,81.6h0c-9.8,0-17.7-7.9-17.7-17.7v-14.6h35.4v14.6c0,9.7-7.9,17.7-17.7,17.7Z"/>
    <path class="cls-11" d="M394.7,55.3c1.8,0,3.2,1.5,3.2,3.2s-1.5,3.2-3.2,3.2"/>
    <path class="cls-11" d="M359.3,61.8c-1.8,0-3.2-1.5-3.2-3.2s1.5-3.2,3.2-3.2"/>
    <circle cx="369.1" cy="61" r="1.4"/>
    <circle cx="385" cy="61" r="1.4"/>
    <path class="cls-4" d="M377.1,59.9l-1.7,5.1c-.5,1.4.7,2.8,2.2,2.7l2.1-.2"/>
    <path class="cls-4" d="M373.2,73.5s6.5,1.7,10.3-1.4"/>
    <path class="cls-6" d="M371.6,36.4h14.3v-7.4h-14.3c-2,0-3.7,1.7-3.7,3.7h0c0,2.1,1.7,3.7,3.7,3.7Z"/>
    <line class="cls-6" x1="385.9" y1="36.6" x2="385.9" y2="49.3"/>
    <line class="cls-6" x1="367.9" y1="32.7" x2="367.9" y2="49.3"/>
    <polygon class="cls-6" points="377.6 44.3 374.6 41.3 371.6 44.3 371.6 36.4 377.6 36.4 377.6 44.3"/>
    <line class="cls-6" x1="385.9" y1="32.7" x2="375.4" y2="32.7"/>
    <circle class="cls-11" cx="203.8" cy="232.7" r="8.8"/>
    <path class="cls-11" d="M233.2,211.9h-7c-4.5,0-8.2-3.7-8.2-8.2h0c0-4.5,3.7-8.2,8.2-8.2h7c4.5,0,8.2,3.7,8.2,8.2h0c0,4.5-3.7,8.2-8.2,8.2Z"/>
    <path class="cls-11" d="M243.6,227.1l-9.1,13.8c-.5.8-1.6.8-2.1,0l-9.1-13.8c-.6-.8.1-2,1.1-2h18.1c1.1,0,1.7,1.1,1.1,2Z"/>
    <path class="cls-11" d="M218.1,203.7h-7.4c-3.8,0-6.9,3.1-6.9,6.9v13.3"/>
    <line class="cls-11" x1="233.5" y1="225.1" x2="233.5" y2="211.9"/>
    <line class="cls-11" x1="212.7" y1="232.7" x2="227.1" y2="232.7"/>
    <path class="cls-10" d="M79.9,245.2h-31.5c-.4,0-.7-.3-.8-.7l-1.8-15.6c-.1-.6.4-1.2,1-1.2h34.6c.6,0,1.1.5,1,1.2l-1.8,15.7c0,.4-.3.6-.7.6Z"/>
    <path class="cls-9" d="M72.2,205.1v4.3c0,1.4-.3,2.8-.8,4.2h0c-1.3,3.1-3.3,5.8-5.9,7.6h0c-1,.7-2.2.7-3.2,0h0c-2.6-1.9-4.7-4.5-5.9-7.6h0c-.5-1.3-.8-2.7-.8-4.2v-4.3"/>
    <path class="cls-7" d="M67.1,220.3h11.3c-3.3-3.2-2.8-13.3-2.8-13.3,0-6.3-5.1-11.5-11.5-11.5h-.2c-6.3,0-11.5,5.1-11.5,11.5,0,0,.4,10.1-2.8,13.3h11"/>
    <path class="cls-4" d="M67.7,200c-1.6,1.9-5.5,4.6-15.2,4.6"/>
    <path class="cls-4" d="M75.6,205.2s-5.5.6-9.8-3.5"/>
    <path class="cls-11" d="M66.7,220.3c.2.2.4.4.7.4l6.8,1.5c1.7.4,3.1,1.7,3.4,3.5l.4,2"/>
    <path class="cls-11" d="M60.9,220.3c-.2.2-.4.4-.7.4l-6.8,1.5c-1.7.4-3.1,1.7-3.4,3.5l-.4,2"/>
    <line class="cls-8" x1="14.1" y1="268.1" x2="450.9" y2="268.1"/>
    <g>
      <rect class="cls-1" x="82.5" y="67.7" width="70" height="18.7"/>
      <path d="M106.9,69.1h-2v5.3h-1.3v-5.3h-1.9v-1.1h5.2s0,1.1,0,1.1Z"/>
      <path d="M109.6,74.5c-.7,0-1.3-.2-1.7-.6-.4-.4-.7-1-.7-1.7v-.1c0-.5.1-.9.3-1.3.2-.4.4-.7.8-.9.3-.2.7-.3,1.2-.3.7,0,1.2.2,1.5.6.4.4.6,1,.6,1.7v.5h-3c0,.3.2.6.4.7.2.2.5.3.8.3.5,0,.9-.2,1.1-.5l.6.7c-.2.3-.4.5-.8.6-.4.3-.7.3-1.1.3ZM109.4,70.6c-.3,0-.5.1-.6.3-.2.2-.3.4-.3.7h1.8v-.1c0-.3-.1-.5-.2-.7-.2-.1-.4-.2-.7-.2Z"/>
      <path d="M114.8,74.4c-.1-.1-.1-.3-.1-.4-.3.3-.7.5-1.2.5s-.9-.1-1.2-.4c-.3-.3-.5-.6-.5-1,0-.5.2-.9.6-1.2.4-.3.9-.4,1.6-.4h.6v-.3c0-.2-.1-.4-.2-.5s-.3-.2-.5-.2-.4.1-.5.2c-.1.1-.2.2-.2.4h-1.2c0-.3.1-.5.3-.8s.4-.4.7-.6.7-.2,1-.2c.6,0,1.1.1,1.4.4.3.3.5.7.5,1.2v2.1c0,.5.1.8.2,1v.1h-1.3v.1ZM113.8,73.6c.2,0,.4,0,.5-.1.2-.1.3-.2.4-.3v-.8h-.5c-.6,0-1,.2-1,.7v.1c0,.2.1.3.2.4,0-.1.2,0,.4,0Z"/>
      <path d="M118.7,73.5c.2,0,.4-.1.6-.2.1-.1.2-.3.2-.5h1.2c0,.3-.1.6-.3.9-.2.3-.4.5-.7.6-.3.1-.6.2-1,.2-.7,0-1.2-.2-1.6-.6s-.6-1-.6-1.8v-.1c0-.7.2-1.3.6-1.8.4-.4.9-.7,1.6-.7.6,0,1.1.2,1.4.5.4.3.5.8.5,1.4h-1.2c0-.2-.1-.4-.2-.6-.1-.2-.3-.2-.6-.2s-.5.1-.7.3c-.2.2-.2.6-.2,1v.1c0,.5.1.8.2,1.1s.5.4.8.4Z"/>
      <path d="M122.5,70.2c.3-.4.8-.6,1.3-.6,1,0,1.6.6,1.6,1.8v3h-1.4v-3c0-.3-.1-.5-.2-.6s-.3-.2-.6-.2c-.4,0-.6.1-.8.4v3.4h-1.3v-6.8h1.3v2.6h.1Z"/>
      <path d="M128.3,74.5c-.7,0-1.3-.2-1.7-.6-.4-.4-.7-1-.7-1.7v-.1c0-.5.1-.9.3-1.3.2-.4.4-.7.8-.9.3-.2.7-.3,1.2-.3.7,0,1.2.2,1.5.6.4.4.6,1,.6,1.7v.5h-3c0,.3.2.6.4.7.2.2.5.3.8.3.5,0,.9-.2,1.1-.5l.6.7c-.2.3-.4.5-.8.6-.4.3-.7.3-1.1.3ZM128.1,70.6c-.3,0-.5.1-.6.3-.2.2-.3.4-.3.7h1.8v-.1c0-.3-.1-.5-.2-.7-.2-.1-.4-.2-.7-.2Z"/>
      <path d="M133.4,70.9h-.5c-.5,0-.8.2-.9.5v3.1h-1.3v-4.8h1.2v.6c.3-.4.6-.7,1.1-.7.1,0,.3,0,.4.1v1.2Z"/>
    </g>
    <g>
      <rect class="cls-1" x="384.3" y="19.7" width="70" height="18.7"/>
      <path d="M389.5,23.8h-2.5v2.6h-1.3v-6.4h4.2v1.1h-2.9v1.7h2.5v1Z"/>
      <path d="M392.5,26.5c-.7,0-1.3-.2-1.7-.6-.4-.4-.7-1-.7-1.7v-.1c0-.5.1-.9.3-1.3.2-.4.4-.7.8-.9.3-.2.7-.3,1.2-.3.7,0,1.2.2,1.5.6.4.4.6,1,.6,1.7v.5h-3c0,.3.2.6.4.7.2.2.5.3.8.3.5,0,.9-.2,1.1-.5l.6.7c-.2.3-.4.5-.8.6-.3.2-.7.3-1.1.3ZM392.4,22.6c-.3,0-.5.1-.6.3-.2.2-.3.4-.3.7h1.8v-.1c0-.3-.1-.5-.2-.7-.3-.1-.5-.2-.7-.2Z"/>
      <path d="M397.2,26.5c-.7,0-1.3-.2-1.7-.6-.4-.4-.7-1-.7-1.7v-.1c0-.5.1-.9.3-1.3.2-.4.4-.7.8-.9.3-.2.7-.3,1.2-.3.7,0,1.2.2,1.5.6.4.4.6,1,.6,1.7v.5h-3c0,.3.2.6.4.7.2.2.5.3.8.3.5,0,.9-.2,1.1-.5l.6.7c-.2.3-.4.5-.8.6-.3.2-.7.3-1.1.3ZM397.1,22.6c-.3,0-.5.1-.6.3-.2.2-.3.4-.3.7h1.8v-.1c0-.3-.1-.5-.2-.7-.3-.1-.5-.2-.7-.2Z"/>
      <path d="M399.5,24c0-.7.2-1.3.5-1.8.3-.4.8-.7,1.4-.7.5,0,.8.2,1.1.5v-2.4h1.3v6.8h-1.1l-.1-.5c-.3.4-.7.6-1.2.6-.6,0-1-.2-1.3-.7-.4-.4-.6-1-.6-1.8ZM400.8,24.1c0,.4.1.8.2,1s.4.4.7.4c.4,0,.7-.2.8-.5v-1.9c-.2-.3-.4-.5-.8-.5-.6,0-.9.5-.9,1.5Z"/>
      <path d="M408.9,24.1c0,.8-.2,1.4-.5,1.8s-.8.6-1.4.6c-.5,0-.9-.2-1.2-.6l-.1.5h-1.1v-6.8h1.3v2.4c.3-.3.7-.5,1.2-.5.6,0,1,.2,1.4.6.2.6.4,1.2.4,2h0ZM407.6,24c0-.5-.1-.8-.2-1.1-.2-.2-.4-.3-.7-.3-.4,0-.7.2-.8.5v1.9c.2.3.4.5.8.5s.7-.2.8-.6c.1-.2.1-.5.1-.9Z"/>
      <path d="M412.2,26.4c-.1-.1-.1-.3-.1-.4-.3.3-.7.5-1.2.5s-.9-.1-1.2-.4c-.3-.3-.5-.6-.5-1,0-.5.2-.9.6-1.2.4-.3.9-.4,1.6-.4h.6v-.3c0-.2-.1-.4-.2-.5s-.3-.2-.5-.2-.4.1-.5.2c-.1.1-.2.2-.2.4h-1.3c0-.3.1-.5.3-.8s.4-.4.7-.6.7-.2,1-.2c.6,0,1.1.1,1.4.4.3.3.5.7.5,1.2v2.1c0,.5.1.8.2,1v.1h-1.2v.1ZM411.2,25.6c.2,0,.4,0,.5-.1.2-.1.3-.2.4-.3v-.8h-.5c-.6,0-1,.2-1,.7v.1c0,.2.1.3.2.4,0-.1.2,0,.4,0Z"/>
      <path d="M416.1,25.5c.2,0,.4-.1.6-.2.1-.1.2-.3.2-.5h1.2c0,.3-.1.6-.3.9-.2.3-.4.5-.7.6-.3.1-.6.2-1,.2-.7,0-1.2-.2-1.6-.6s-.6-1-.6-1.8v-.1c0-.7.2-1.3.6-1.8.4-.4.9-.7,1.6-.7.6,0,1.1.2,1.4.5.4.3.5.8.5,1.4h-1.2c0-.2-.1-.4-.2-.6-.1-.2-.3-.2-.6-.2s-.5.1-.7.3c-.2.2-.2.6-.2,1v.1c0,.5.1.8.2,1.1s.5.4.8.4Z"/>
      <path d="M420.4,24.5l-.5.5v1.5h-1.3v-6.8h1.3v3.7l.2-.3,1.2-1.4h1.5l-1.7,2,1.9,2.8h-1.5l-1.1-2Z"/>
      <path d="M426.7,26.4h-1.3v-6.8h1.3v6.8Z"/>
      <path d="M427.5,20.4c0-.2.1-.3.2-.5.1-.1.3-.2.5-.2s.4.1.5.2.2.3.2.5-.1.4-.2.5-.3.2-.5.2-.4-.1-.5-.2c-.1-.1-.2-.3-.2-.5ZM428.9,26.4h-1.3v-4.8h1.3v4.8Z"/>
      <path d="M431.3,20.5v1.2h.8v.9h-.8v2.4c0,.2,0,.3.1.4s.2.1.4.1h.4v1c-.2.1-.5.1-.8.1-.9,0-1.3-.4-1.4-1.3v-2.6h-.7v-.9h.7v-1.2h1.3v-.1Z"/>
      <path d="M434.8,26.5c-.7,0-1.3-.2-1.7-.6-.4-.4-.7-1-.7-1.7v-.1c0-.5.1-.9.3-1.3.2-.4.4-.7.8-.9.3-.2.7-.3,1.2-.3.7,0,1.2.2,1.5.6.4.4.6,1,.6,1.7v.5h-3c0,.3.2.6.4.7.2.2.5.3.8.3.5,0,.9-.2,1.1-.5l.6.7c-.2.3-.4.5-.8.6-.4.2-.7.3-1.1.3ZM434.6,22.6c-.3,0-.5.1-.6.3-.2.2-.3.4-.3.7h1.8v-.1c0-.3-.1-.5-.2-.7-.2-.1-.4-.2-.7-.2Z"/>
      <path d="M440,22.9h-.5c-.5,0-.8.2-.9.5v3.1h-1.3v-4.8h1.2v.6c.3-.4.6-.7,1.1-.7.1,0,.3,0,.4.1v1.2Z"/>
      <path d="M443,26.4c-.1-.1-.1-.3-.1-.4-.3.3-.7.5-1.2.5s-.9-.1-1.2-.4c-.3-.3-.5-.6-.5-1,0-.5.2-.9.6-1.2.4-.3.9-.4,1.6-.4h.6v-.3c0-.2-.1-.4-.2-.5s-.3-.2-.5-.2-.4.1-.5.2c-.1.1-.2.2-.2.4h-1.3c0-.3.1-.5.3-.8s.4-.4.7-.6.7-.2,1-.2c.6,0,1.1.1,1.4.4.3.3.5.7.5,1.2v2.1c0,.5.1.8.2,1v.1h-1.2v.1ZM442,25.6c.2,0,.4,0,.5-.1.2-.1.3-.2.4-.3v-.8h-.5c-.6,0-1,.2-1,.7v.1c0,.2.1.3.2.4,0-.1.2,0,.4,0Z"/>
      <path d="M446.9,25.5c.2,0,.4-.1.6-.2.1-.1.2-.3.2-.5h1.2c0,.3-.1.6-.3.9-.2.3-.4.5-.7.6-.3.1-.6.2-1,.2-.7,0-1.2-.2-1.6-.6s-.6-1-.6-1.8v-.1c0-.7.2-1.3.6-1.8.4-.4.9-.7,1.6-.7.6,0,1.1.2,1.4.5.4.3.5.8.5,1.4h-1.2c0-.2-.1-.4-.2-.6-.1-.2-.3-.2-.6-.2s-.5.1-.7.3c-.2.2-.2.6-.2,1v.1c0,.5.1.8.2,1.1s.5.4.8.4Z"/>
      <path d="M451.2,24.6l.9-3h1.4l-1.9,5.5-.1.3c-.3.6-.8.9-1.4.9-.2,0-.4,0-.6-.1v-1h.2c.2,0,.4,0,.5-.1s.2-.2.3-.4l.1-.4-1.7-4.8h1.4l.9,3.1Z"/>
    </g>
  </g>
</svg>