<?xml version="1.0" encoding="UTF-8"?>
<svg id="Layer_1" data-name="Layer 1" xmlns="http://www.w3.org/2000/svg" viewBox="0 0 415 324">
  <defs>
    <style>
      .cls-1, .cls-2, .cls-3, .cls-4 {
        fill: none;
      }

      .cls-5 {
        fill: #c0e3fa;
      }

      .cls-2 {
        stroke-dasharray: 4 4;
      }

      .cls-2, .cls-3 {
        stroke-linecap: round;
      }

      .cls-2, .cls-3, .cls-4 {
        stroke: #000;
        stroke-miterlimit: 10;
      }

      .cls-6 {
        fill: #d1ebd2;
      }

      .cls-7 {
        fill: #fff;
      }
    </style>
  </defs>
  <rect class="cls-7" width="415" height="324"/>
  <g id="Layer_2" data-name="Layer 2">
    <rect class="cls-5" x="166.6" y="238" width="107.8" height="17.9"/>
    <rect class="cls-5" x="166.6" y="269.1" width="107.8" height="17.9"/>
    <rect class="cls-5" x="166.6" y="196.5" width="107.8" height="17.9"/>
    <rect class="cls-5" x="166.6" y="172.5" width="107.8" height="17.9"/>
    <rect class="cls-5" x="166.6" y="92.4" width="107.8" height="17.9"/>
    <rect class="cls-5" x="166.6" y="114.2" width="107.8" height="17.9"/>
    <rect class="cls-5" x="166.6" y="136.1" width="107.8" height="17.9"/>
    <rect class="cls-5" x="166.6" y="34.7" width="107.8" height="17.9"/>
    <rect class="cls-5" x="166.6" y="57.8" width="107.8" height="17.9"/>
    <g>
      <rect class="cls-1" x="12" y="303" width="390.4" height="12.3"/>
      <path d="M42.2,306.7h-2.8v2.3h3.2v.7h-4.1v-6.4h4v.7h-3.2v2.1h2.8v.6h.1Z"/>
      <path d="M45,306.7l1.1-1.7h.9l-1.6,2.4,1.6,2.4h-.9l-1.1-1.8-1.1,1.8h-.9l1.6-2.4-1.6-2.4h1l1,1.7Z"/>
      <path d="M49.7,309.8c-.6,0-1.2-.2-1.6-.6-.4-.4-.6-1-.6-1.7v-.2c0-.5.1-.9.3-1.3s.4-.7.8-.9c.3-.2.7-.3,1.1-.3.6,0,1.1.2,1.4.6s.5,1,.5,1.7v.3h-3.2c0,.5.1.8.4,1.1.3.3.6.4,1,.4.3,0,.5-.1.7-.2s.4-.3.5-.5l.5.4c-.4.9-1,1.2-1.8,1.2ZM49.6,305.5c-.3,0-.6.1-.8.4-.2.2-.4.6-.4,1h2.4v-.1c0-.4-.1-.7-.3-1-.3-.2-.5-.3-.9-.3Z"/>
      <path d="M53.2,305v.5c.3-.4.8-.6,1.4-.6.7,0,1.1.3,1.4.8.2-.2.4-.4.6-.6.3-.1.6-.2.9-.2,1,0,1.6.6,1.6,1.7v3.2h-.8v-3.1c0-.3-.1-.6-.2-.8-.2-.2-.4-.3-.8-.3-.3,0-.6.1-.8.3-.2.2-.3.4-.3.7v3.2h-.8v-3.1c0-.7-.3-1-1-1-.5,0-.9.2-1.1.7v3.5h-.8v-4.8h.7v-.1Z"/>
      <path d="M64.2,307.4c0,.7-.2,1.3-.5,1.7s-.8.7-1.3.7c-.6,0-1-.2-1.4-.5v2.3h-.8v-6.6h.7v.5c.3-.4.8-.6,1.4-.6s1,.2,1.4.6c.3.4.5,1,.5,1.9h0ZM63.3,307.3c0-.5-.1-1-.3-1.3s-.5-.5-.9-.5c-.5,0-.9.2-1.1.7v2.3c.2.4.6.7,1.1.7.4,0,.7-.2.9-.5.2-.3.3-.8.3-1.4Z"/>
      <path d="M65.9,309.7h-.8v-6.8h.8v6.8Z"/>
      <path d="M67.1,303.7c0-.1,0-.2.1-.3.1-.1.2-.1.4-.1s.3,0,.4.1.1.2.1.3,0,.2-.1.3-.2.1-.4.1-.3,0-.4-.1c0-.1-.1-.2-.1-.3ZM68,309.7h-.8v-4.8h.8v4.8Z"/>
      <path d="M69.6,309.7v-4.1h-.8v-.6h.8v-.5c0-.5.1-.9.4-1.2s.7-.4,1.2-.4c.2,0,.4,0,.6.1v.7h-.4c-.3,0-.5.1-.6.2s-.2.4-.2.7v.5h1v.6h-1v4.1h-1v-.1Z"/>
      <path d="M72.1,303.7c0-.1,0-.2.1-.3.1-.1.2-.1.4-.1s.3,0,.4.1.1.2.1.3,0,.2-.1.3-.2.1-.4.1-.3,0-.4-.1c0-.1-.1-.2-.1-.3ZM73,309.7h-.8v-4.8h.8v4.8Z"/>
      <path d="M76.1,309.1c.3,0,.5-.1.8-.3s.3-.4.4-.7h.7c0,.3-.1.5-.3.8s-.4.4-.7.6c-.3.1-.6.2-.9.2-.6,0-1.2-.2-1.5-.6-.4-.4-.6-1-.6-1.8v-.1c0-.5.1-.9.3-1.2s.4-.6.7-.8c.3-.2.7-.3,1.1-.3.5,0,1,.2,1.3.5.4.3.5.7.6,1.2h-.8c0-.3-.1-.6-.3-.8-.2-.2-.5-.3-.8-.3-.4,0-.7.1-1,.4-.2.3-.3.7-.3,1.3v.2c0,.5.1,1,.3,1.3s.6.4,1,.4Z"/>
      <path d="M81.7,309.7c0-.1-.1-.3-.1-.5-.4.4-.8.6-1.4.6-.5,0-.9-.1-1.2-.4-.3-.3-.5-.6-.5-1,0-.5.2-.9.6-1.2.4-.3.9-.4,1.6-.4h.8v-.4c0-.3-.1-.5-.3-.7-.2-.2-.4-.3-.8-.3-.3,0-.5.1-.7.2s-.3.3-.3.5h-.8c0-.2.1-.5.3-.7.2-.2.4-.4.7-.5.3-.1.6-.2,1-.2.5,0,1,.1,1.3.4s.5.7.5,1.1v2.2c0,.4.1.8.2,1v.1h-.9v.2ZM80.4,309.1c.3,0,.5-.1.7-.2s.4-.3.5-.5v-1h-.6c-1,0-1.5.3-1.5.9,0,.3.1.5.3.6s.3.2.6.2Z"/>
      <path d="M84.6,303.8v1.2h.9v.6h-.9v3c0,.2,0,.3.1.4s.2.1.4.1c.1,0,.2,0,.4-.1v.7c-.2.1-.4.1-.6.1-.4,0-.6-.1-.8-.3s-.3-.5-.3-.9v-2.9h-.8v-.6h.9v-1.2h.7v-.1Z"/>
      <path d="M86.3,303.7c0-.1,0-.2.1-.3.1-.1.2-.1.4-.1s.3,0,.4.1.1.2.1.3,0,.2-.1.3-.2.1-.4.1-.3,0-.4-.1c0-.1-.1-.2-.1-.3ZM87.2,309.7h-.8v-4.8h.8v4.8Z"/>
      <path d="M88.2,307.3c0-.5.1-.9.3-1.3.2-.4.4-.7.8-.9.3-.2.7-.3,1.1-.3.6,0,1.2.2,1.6.7.4.4.6,1,.6,1.8v.1c0,.5-.1.9-.3,1.2-.2.4-.4.7-.8.9-.3.2-.7.3-1.1.3-.6,0-1.2-.2-1.6-.7-.4-.4-.6-1-.6-1.8h0ZM89,307.4c0,.5.1,1,.4,1.3.2.3.6.5,1,.5s.7-.2,1-.5c.2-.3.4-.8.4-1.4,0-.5-.1-.9-.4-1.3-.2-.3-.6-.5-1-.5s-.7.2-1,.5-.4.8-.4,1.4Z"/>
      <path d="M94.2,305v.6c.4-.5.8-.7,1.4-.7,1,0,1.5.6,1.5,1.7v3.1h-.8v-3.1c0-.3-.1-.6-.2-.8-.2-.2-.4-.2-.7-.2s-.5.1-.7.2-.4.3-.5.6v3.4h-.8v-4.8h.8Z"/>
      <path d="M100.1,307.3c0-.5.1-.9.3-1.3.2-.4.4-.7.8-.9.3-.2.7-.3,1.1-.3.6,0,1.2.2,1.6.7.4.4.6,1,.6,1.8v.1c0,.5-.1.9-.3,1.2-.2.4-.4.7-.8.9-.3.2-.7.3-1.1.3-.6,0-1.2-.2-1.6-.7-.4-.4-.6-1-.6-1.8h0ZM100.9,307.4c0,.5.1,1,.4,1.3.2.3.6.5,1,.5s.7-.2,1-.5c.2-.3.4-.8.4-1.4,0-.5-.1-.9-.4-1.3-.2-.3-.6-.5-1-.5s-.7.2-1,.5-.4.8-.4,1.4Z"/>
      <path d="M105.7,309.7v-4.1h-.7v-.6h.8v-.5c0-.5.1-.9.4-1.2s.7-.4,1.2-.4c.2,0,.4,0,.6.1v.7h-.4c-.3,0-.5.1-.6.2s-.2.4-.2.7v.5h1v.6h-1v4.1h-1.1v-.1Z"/>
      <path d="M112.4,309.8c-.6,0-1.2-.2-1.6-.6s-.6-1-.6-1.7v-.2c0-.5.1-.9.3-1.3.2-.4.4-.7.8-.9.3-.2.7-.3,1.1-.3.6,0,1.1.2,1.4.6s.5,1,.5,1.7v.3h-3.3c0,.5.1.8.4,1.1.3.3.6.4,1,.4.3,0,.5-.1.7-.2s.4-.3.5-.5l.5.4c-.3.9-.9,1.2-1.7,1.2ZM112.3,305.5c-.3,0-.6.1-.8.4-.2.2-.4.6-.4,1h2.4v-.1c0-.4-.1-.7-.3-1-.3-.2-.6-.3-.9-.3Z"/>
      <path d="M118,309.7c0-.1-.1-.3-.1-.5-.4.4-.8.6-1.4.6-.5,0-.9-.1-1.2-.4-.3-.3-.5-.6-.5-1,0-.5.2-.9.6-1.2.4-.3.9-.4,1.6-.4h.8v-.4c0-.3-.1-.5-.3-.7-.2-.2-.4-.3-.8-.3-.3,0-.5.1-.7.2s-.3.3-.3.5h-.7c0-.2.1-.5.3-.7.2-.2.4-.4.7-.5.3-.1.6-.2,1-.2.5,0,1,.1,1.3.4s.5.7.5,1.1v2.2c0,.4.1.8.2,1v.1h-1v.2ZM116.6,309.1c.3,0,.5-.1.7-.2s.4-.3.5-.5v-1h-.6c-1,0-1.5.3-1.5.9,0,.3.1.5.3.6s.3.2.6.2Z"/>
      <path d="M121.7,309.1c.3,0,.5-.1.8-.3s.3-.4.4-.7h.8c0,.3-.1.5-.3.8s-.4.4-.7.6c-.3.1-.6.2-.9.2-.6,0-1.2-.2-1.5-.6-.4-.4-.6-1-.6-1.8v-.1c0-.5.1-.9.3-1.2s.4-.6.7-.8c.3-.2.7-.3,1.1-.3.5,0,1,.2,1.3.5.4.3.5.7.6,1.2h-.8c0-.3-.1-.6-.3-.8-.2-.2-.5-.3-.8-.3-.4,0-.7.1-1,.4-.2.3-.3.7-.3,1.3v.2c0,.5.1,1,.3,1.3s.5.4.9.4Z"/>
      <path d="M125.2,305.5c.4-.4.8-.7,1.4-.7,1,0,1.5.6,1.5,1.7v3.1h-.8v-3.1c0-.3-.1-.6-.2-.8-.2-.2-.4-.2-.7-.2s-.5.1-.7.2-.4.3-.5.6v3.4h-.8v-6.8h.8s0,2.6,0,2.6Z"/>
      <path d="M132.2,309.7h-.8v-6.8h.8v6.8Z"/>
      <path d="M135.3,309.8c-.6,0-1.2-.2-1.6-.6-.4-.4-.6-1-.6-1.7v-.2c0-.5.1-.9.3-1.3s.4-.7.8-.9c.3-.2.7-.3,1.1-.3.6,0,1.1.2,1.4.6s.5,1,.5,1.7v.3h-3.2c0,.5.1.8.4,1.1.3.3.6.4,1,.4.3,0,.5-.1.7-.2s.4-.3.5-.5l.5.4c-.4.9-1,1.2-1.8,1.2ZM135.2,305.5c-.3,0-.6.1-.8.4-.2.2-.4.6-.4,1h2.4v-.1c0-.4-.1-.7-.3-1-.3-.2-.6-.3-.9-.3Z"/>
      <path d="M139.5,308.6l1.2-3.7h.8l-1.7,4.8h-.6l-1.7-4.8h.8l1.2,3.7Z"/>
      <path d="M144.1,309.8c-.6,0-1.2-.2-1.6-.6-.4-.4-.6-1-.6-1.7v-.2c0-.5.1-.9.3-1.3s.4-.7.8-.9c.3-.2.7-.3,1.1-.3.6,0,1.1.2,1.4.6s.5,1,.5,1.7v.3h-3.2c0,.5.1.8.4,1.1.3.3.6.4,1,.4.3,0,.5-.1.7-.2s.4-.3.5-.5l.5.4c-.4.9-1,1.2-1.8,1.2ZM144,305.5c-.3,0-.6.1-.8.4-.2.2-.4.6-.4,1h2.4v-.1c0-.4-.1-.7-.3-1-.3-.2-.6-.3-.9-.3Z"/>
      <path d="M147.6,309.7h-.8v-6.8h.8v6.8Z"/>
      <path d="M150.7,307.3c0-.5.1-.9.3-1.3s.4-.7.8-.9c.3-.2.7-.3,1.1-.3.6,0,1.2.2,1.6.7.4.4.6,1,.6,1.8v.1c0,.5-.1.9-.3,1.2-.2.4-.4.7-.8.9-.3.2-.7.3-1.1.3-.6,0-1.2-.2-1.6-.7-.4-.4-.6-1-.6-1.8h0ZM151.5,307.4c0,.5.1,1,.4,1.3.2.3.6.5,1,.5s.7-.2,1-.5c.2-.3.4-.8.4-1.4,0-.5-.1-.9-.4-1.3-.2-.3-.6-.5-1-.5s-.7.2-1,.5-.4.8-.4,1.4Z"/>
      <path d="M156.3,309.7v-4.1h-.8v-.6h.8v-.5c0-.5.1-.9.4-1.2s.7-.4,1.2-.4c.2,0,.4,0,.6.1v.7h-.4c-.3,0-.5.1-.6.2s-.2.4-.2.7v.5h1v.6h-1v4.1h-1v-.1Z"/>
      <path d="M163.9,309.7c0-.1-.1-.3-.1-.5-.4.4-.8.6-1.4.6-.5,0-.9-.1-1.2-.4s-.5-.6-.5-1c0-.5.2-.9.6-1.2.4-.3.9-.4,1.6-.4h.8v-.4c0-.3-.1-.5-.3-.7s-.4-.3-.8-.3c-.3,0-.5.1-.7.2s-.3.3-.3.5h-.8c0-.2.1-.5.3-.7s.4-.4.7-.5.6-.2,1-.2c.5,0,1,.1,1.3.4s.5.7.5,1.1v2.2c0,.4.1.8.2,1v.1h-.9v.2ZM162.6,309.1c.3,0,.5-.1.7-.2s.4-.3.5-.5v-1h-.6c-1,0-1.5.3-1.5.9,0,.3.1.5.3.6s.3.2.6.2Z"/>
      <path d="M169.8,307.4c0,.7-.2,1.3-.5,1.8-.3.4-.8.7-1.3.7-.6,0-1.1-.2-1.4-.6v.5h-.7v-6.8h.8v2.5c.3-.4.8-.6,1.4-.6s1,.2,1.4.7c.1.4.3,1,.3,1.8h0ZM168.9,307.3c0-.6-.1-1-.3-1.3s-.5-.5-.9-.5c-.5,0-.9.2-1.2.7v2.1c.2.5.6.7,1.2.7.4,0,.7-.2.9-.5s.3-.6.3-1.2Z"/>
      <path d="M173.4,308.4c0-.2-.1-.4-.2-.5-.2-.1-.5-.2-.9-.3-.4-.1-.7-.2-1-.3-.2-.1-.4-.3-.5-.4-.1-.2-.2-.4-.2-.6,0-.4.2-.7.5-1s.8-.4,1.3-.4,1,.1,1.3.4.5.6.5,1.1h-.8c0-.2-.1-.4-.3-.6s-.4-.2-.7-.2-.5.1-.7.2-.3.3-.3.5.1.3.2.4.4.2.8.3c.4.1.7.2,1,.3s.4.3.6.5c.1.2.2.4.2.6,0,.4-.2.8-.5,1-.3.3-.8.4-1.3.4-.4,0-.7-.1-1-.2s-.5-.3-.7-.6c-.2-.2-.2-.5-.2-.8h.8c0,.3.1.5.3.6.2.2.5.2.8.2s.6-.1.7-.2c.2,0,.3-.1.3-.4Z"/>
      <path d="M177.5,305.7h-.4c-.5,0-.9.2-1.1.7v3.4h-.8v-4.8h.8v.5c.3-.4.6-.6,1.1-.6.2,0,.3,0,.4.1v.7Z"/>
      <path d="M180.8,309.7c0-.1-.1-.3-.1-.5-.4.4-.8.6-1.4.6-.5,0-.9-.1-1.2-.4s-.5-.6-.5-1c0-.5.2-.9.6-1.2.4-.3.9-.4,1.6-.4h.8v-.4c0-.3-.1-.5-.3-.7s-.4-.3-.8-.3c-.3,0-.5.1-.7.2s-.3.3-.3.5h-.8c0-.2.1-.5.3-.7s.4-.4.7-.5.6-.2,1-.2c.5,0,1,.1,1.3.4s.5.7.5,1.1v2.2c0,.4.1.8.2,1v.1h-.9v.2ZM179.5,309.1c.3,0,.5-.1.7-.2s.4-.3.5-.5v-1h-.6c-1,0-1.5.3-1.5.9,0,.3.1.5.3.6s.3.2.6.2Z"/>
      <path d="M184.6,309.1c.3,0,.5-.1.8-.3s.3-.4.4-.7h.8c0,.3-.1.5-.3.8s-.4.4-.7.6c-.3.1-.6.2-.9.2-.6,0-1.2-.2-1.5-.6-.4-.4-.6-1-.6-1.8v-.1c0-.5.1-.9.3-1.2s.4-.6.7-.8c.3-.2.7-.3,1.1-.3.5,0,1,.2,1.3.5.4.3.5.7.6,1.2h-.8c0-.3-.1-.6-.3-.8-.2-.2-.5-.3-.8-.3-.4,0-.7.1-1,.4-.2.3-.3.7-.3,1.3v.2c0,.5.1,1,.3,1.3s.4.4.9.4Z"/>
      <path d="M188.3,303.8v1.2h.9v.6h-.9v3c0,.2,0,.3.1.4s.2.1.4.1c.1,0,.2,0,.4-.1v.7c-.2.1-.4.1-.6.1-.4,0-.6-.1-.8-.3s-.3-.5-.3-.9v-2.9h-.9v-.6h.9v-1.2h.8v-.1Z"/>
      <path d="M190,303.7c0-.1,0-.2.1-.3.1-.1.2-.1.4-.1s.3,0,.4.1.1.2.1.3,0,.2-.1.3-.2.1-.4.1-.3,0-.4-.1c0-.1-.1-.2-.1-.3ZM190.9,309.7h-.8v-4.8h.8v4.8Z"/>
      <path d="M191.9,307.3c0-.5.1-.9.3-1.3s.4-.7.8-.9c.3-.2.7-.3,1.1-.3.6,0,1.2.2,1.6.7.4.4.6,1,.6,1.8v.1c0,.5-.1.9-.3,1.2-.2.4-.4.7-.8.9-.3.2-.7.3-1.1.3-.6,0-1.2-.2-1.6-.7-.4-.4-.6-1-.6-1.8h0ZM192.7,307.4c0,.5.1,1,.4,1.3.2.3.6.5,1,.5s.7-.2,1-.5c.2-.3.4-.8.4-1.4,0-.5-.1-.9-.4-1.3-.2-.3-.6-.5-1-.5s-.7.2-1,.5-.4.8-.4,1.4Z"/>
      <path d="M197.8,305v.6c.4-.5.8-.7,1.4-.7,1,0,1.5.6,1.5,1.7v3.1h-.7v-3.1c0-.3-.1-.6-.2-.8-.2-.2-.4-.2-.7-.2s-.5.1-.7.2-.4.3-.5.6v3.4h-.8v-4.8h.7Z"/>
      <path d="M208.2,308.6l.9-3.6h.8l-1.4,4.8h-.7l-1.2-3.6-1.1,3.6h-.5l-1.4-4.8h.8l.9,3.6,1.1-3.6h.7l1.1,3.6Z"/>
      <path d="M210.6,303.7c0-.1,0-.2.1-.3.1-.1.2-.1.4-.1s.3,0,.4.1.1.2.1.3,0,.2-.1.3-.2.1-.4.1-.3,0-.4-.1c0-.1-.1-.2-.1-.3ZM211.5,309.7h-.8v-4.8h.8v4.8Z"/>
      <path d="M213.8,303.8v1.2h.9v.6h-.9v3c0,.2,0,.3.1.4s.2.1.4.1c.1,0,.2,0,.4-.1v.7c-.2.1-.4.1-.6.1-.4,0-.6-.1-.8-.3s-.3-.5-.3-.9v-2.9h-.9v-.6h.9v-1.2h.8v-.1Z"/>
      <path d="M216.3,305.5c.4-.4.8-.7,1.4-.7,1,0,1.5.6,1.5,1.7v3.1h-.8v-3.1c0-.3-.1-.6-.2-.8-.2-.2-.4-.2-.7-.2s-.5.1-.7.2-.4.3-.5.6v3.4h-.8v-6.8h.8v2.6Z"/>
      <path d="M220.3,303.7c0-.1,0-.2.1-.3.1-.1.2-.1.4-.1s.3,0,.4.1.1.2.1.3,0,.2-.1.3-.2.1-.4.1-.3,0-.4-.1c0-.1-.1-.2-.1-.3ZM221.2,309.7h-.8v-4.8h.8v4.8Z"/>
      <path d="M223.1,305v.6c.4-.5.8-.7,1.4-.7,1,0,1.5.6,1.5,1.7v3.1h-.8v-3.1c0-.3-.1-.6-.2-.8-.2-.2-.4-.2-.7-.2s-.5.1-.7.2-.4.3-.5.6v3.4h-.8v-4.8h.8Z"/>
      <path d="M230.4,303.8v1.2h.9v.6h-.9v3c0,.2,0,.3.1.4s.2.1.4.1c.1,0,.2,0,.4-.1v.7c-.2.1-.4.1-.6.1-.4,0-.6-.1-.8-.3s-.3-.5-.3-.9v-2.9h-.9v-.6h.9v-1.2h.8v-.1Z"/>
      <path d="M232.9,305.5c.4-.4.8-.7,1.4-.7,1,0,1.5.6,1.5,1.7v3.1h-.8v-3.1c0-.3-.1-.6-.2-.8-.2-.2-.4-.2-.7-.2s-.5.1-.7.2-.4.3-.5.6v3.4h-.8v-6.8h.8v2.6h0Z"/>
      <path d="M238.9,309.8c-.6,0-1.2-.2-1.6-.6-.4-.4-.6-1-.6-1.7v-.2c0-.5.1-.9.3-1.3s.4-.7.8-.9c.3-.2.7-.3,1.1-.3.6,0,1.1.2,1.4.6s.5,1,.5,1.7v.3h-3.2c0,.5.1.8.4,1.1.3.3.6.4,1,.4.3,0,.5-.1.7-.2s.4-.3.5-.5l.5.4c-.4.9-1,1.2-1.8,1.2ZM238.8,305.5c-.3,0-.6.1-.8.4-.2.2-.4.6-.4,1h2.4v-.1c0-.4-.1-.7-.3-1-.3-.2-.6-.3-.9-.3Z"/>
      <path d="M245.4,306.7l-.8.8v2.2h-.8v-6.4h.8v3.2l2.8-3.2h1l-2.5,2.8,2.7,3.6h-1l-2.2-3Z"/>
      <path d="M250.6,307.3h-2.1v-.7h2.1v.7Z"/>
      <path d="M251.5,306.5l.3-3.2h3.3v.8h-2.6l-.2,1.7c.3-.2.7-.3,1.1-.3.6,0,1,.2,1.4.6.3.4.5.9.5,1.6s-.2,1.2-.5,1.6c-.4.4-.9.6-1.5.6s-1-.2-1.4-.5-.6-.7-.6-1.3h.8c0,.4.2.6.4.8.2.2.5.3.8.3.4,0,.7-.1.9-.4s.3-.6.3-1.1c0-.4-.1-.8-.3-1-.2-.3-.5-.4-.9-.4s-.6.1-.8.2l-.2.2-.8-.2Z"/>
      <path d="M261.2,309.7c0-.1-.1-.3-.1-.5-.4.4-.8.6-1.4.6-.5,0-.9-.1-1.2-.4s-.5-.6-.5-1c0-.5.2-.9.6-1.2.4-.3.9-.4,1.6-.4h.8v-.4c0-.3-.1-.5-.3-.7-.2-.2-.4-.3-.8-.3-.3,0-.5.1-.7.2s-.3.3-.3.5h-.8c0-.2.1-.5.3-.7s.4-.4.7-.5c.3-.1.6-.2,1-.2.5,0,1,.1,1.3.4s.5.7.5,1.1v2.2c0,.4.1.8.2,1v.1h-.9v.2ZM259.8,309.1c.3,0,.5-.1.7-.2s.4-.3.5-.5v-1h-.6c-1,0-1.5.3-1.5.9,0,.3.1.5.3.6.1.1.3.2.6.2Z"/>
      <path d="M262.8,307.3c0-.7.2-1.3.5-1.8.3-.4.8-.7,1.4-.7s1,.2,1.3.6v-2.5h.8v6.8h-.8v-.5c-.3.4-.8.6-1.4.6s-1-.2-1.3-.7c-.3-.4-.5-1-.5-1.8h0ZM263.6,307.4c0,.5.1,1,.3,1.3s.5.5.9.5c.5,0,.9-.2,1.1-.7v-2.2c-.2-.4-.6-.7-1.1-.7-.4,0-.7.2-.9.5s-.3.7-.3,1.3Z"/>
      <path d="M270.9,309.7c0-.1-.1-.3-.1-.5-.4.4-.8.6-1.4.6-.5,0-.9-.1-1.2-.4-.3-.3-.5-.6-.5-1,0-.5.2-.9.6-1.2.4-.3.9-.4,1.6-.4h.8v-.4c0-.3-.1-.5-.3-.7-.2-.2-.4-.3-.8-.3-.3,0-.5.1-.7.2s-.3.3-.3.5h-.8c0-.2.1-.5.3-.7.2-.2.4-.4.7-.5.3-.1.6-.2,1-.2.5,0,1,.1,1.3.4s.5.7.5,1.1v2.2c0,.4.1.8.2,1v.1h-.9v.2ZM269.5,309.1c.3,0,.5-.1.7-.2s.4-.3.5-.5v-1h-.6c-1,0-1.5.3-1.5.9,0,.3.1.5.3.6s.3.2.6.2Z"/>
      <path d="M276.7,307.4c0,.7-.2,1.3-.5,1.7s-.8.7-1.3.7c-.6,0-1-.2-1.4-.5v2.3h-.8v-6.6h.7v.5c.3-.4.8-.6,1.4-.6s1,.2,1.4.6c.3.4.5,1,.5,1.9h0ZM275.9,307.3c0-.5-.1-1-.3-1.3s-.5-.5-.9-.5c-.5,0-.9.2-1.1.7v2.3c.2.4.6.7,1.1.7.4,0,.7-.2.9-.5.2-.3.3-.8.3-1.4Z"/>
      <path d="M278.7,303.8v1.2h.9v.6h-.9v3c0,.2,0,.3.1.4s.2.1.4.1c.1,0,.2,0,.4-.1v.7c-.2.1-.4.1-.6.1-.4,0-.6-.1-.8-.3s-.3-.5-.3-.9v-2.9h-.9v-.6h.9v-1.2h.8v-.1Z"/>
      <path d="M283.3,309.7c0-.1-.1-.3-.1-.5-.4.4-.8.6-1.4.6-.5,0-.9-.1-1.2-.4-.3-.3-.5-.6-.5-1,0-.5.2-.9.6-1.2.4-.3.9-.4,1.6-.4h.8v-.4c0-.3-.1-.5-.3-.7-.2-.2-.4-.3-.8-.3-.3,0-.5.1-.7.2s-.3.3-.3.5h-.8c0-.2.1-.5.3-.7.2-.2.4-.4.7-.5.3-.1.6-.2,1-.2.5,0,1,.1,1.3.4s.5.7.5,1.1v2.2c0,.4.1.8.2,1v.1h-.9v.2ZM282,309.1c.3,0,.5-.1.7-.2s.4-.3.5-.5v-1h-.6c-1,0-1.5.3-1.5.9,0,.3.1.5.3.6s.3.2.6.2Z"/>
      <path d="M286.3,303.8v1.2h.9v.6h-.9v3c0,.2,0,.3.1.4s.2.1.4.1c.1,0,.2,0,.4-.1v.7c-.2.1-.4.1-.6.1-.4,0-.6-.1-.8-.3s-.3-.5-.3-.9v-2.9h-.9v-.6h.9v-1.2h.8v-.1Z"/>
      <path d="M288,303.7c0-.1,0-.2.1-.3.1-.1.2-.1.4-.1s.3,0,.4.1.1.2.1.3,0,.2-.1.3-.2.1-.4.1-.3,0-.4-.1c-.1-.1-.1-.2-.1-.3ZM288.8,309.7h-.8v-4.8h.8v4.8Z"/>
      <path d="M289.8,307.3c0-.5.1-.9.3-1.3.2-.4.4-.7.8-.9.3-.2.7-.3,1.1-.3.6,0,1.2.2,1.6.7.4.4.6,1,.6,1.8v.1c0,.5-.1.9-.3,1.2-.2.4-.4.7-.8.9-.3.2-.7.3-1.1.3-.6,0-1.2-.2-1.6-.7-.4-.4-.6-1-.6-1.8h0ZM290.6,307.4c0,.5.1,1,.4,1.3.2.3.6.5,1,.5s.7-.2,1-.5c.2-.3.4-.8.4-1.4,0-.5-.1-.9-.4-1.3-.2-.3-.6-.5-1-.5s-.7.2-1,.5-.4.8-.4,1.4Z"/>
      <path d="M295.8,305v.6c.4-.5.8-.7,1.4-.7,1,0,1.5.6,1.5,1.7v3.1h-.8v-3.1c0-.3-.1-.6-.2-.8-.2-.2-.4-.2-.7-.2s-.5.1-.7.2-.4.3-.5.6v3.4h-.8v-4.8h.8Z"/>
      <path d="M306,307.4c0,.7-.2,1.3-.5,1.7s-.8.7-1.3.7c-.6,0-1-.2-1.4-.5v2.3h-.8v-6.6h.7v.5c.3-.4.8-.6,1.4-.6s1,.2,1.4.6c.3.4.5,1,.5,1.9h0ZM305.1,307.3c0-.5-.1-1-.3-1.3s-.5-.5-.9-.5c-.5,0-.9.2-1.1.7v2.3c.2.4.6.7,1.1.7.4,0,.7-.2.9-.5.2-.3.3-.8.3-1.4Z"/>
      <path d="M309.1,305.7h-.4c-.5,0-.9.2-1.1.7v3.4h-.8v-4.8h.8v.5c.3-.4.6-.6,1.1-.6.2,0,.3,0,.4.1v.7Z"/>
      <path d="M309.5,307.3c0-.5.1-.9.3-1.3.2-.4.4-.7.8-.9.3-.2.7-.3,1.1-.3.6,0,1.2.2,1.6.7.4.4.6,1,.6,1.8v.1c0,.5-.1.9-.3,1.2-.2.4-.4.7-.8.9-.3.2-.7.3-1.1.3-.6,0-1.2-.2-1.6-.7-.4-.4-.6-1-.6-1.8h0ZM310.3,307.4c0,.5.1,1,.4,1.3.2.3.6.5,1,.5s.7-.2,1-.5c.2-.3.4-.8.4-1.4,0-.5-.1-.9-.4-1.3-.2-.3-.6-.5-1-.5s-.7.2-1,.5-.4.8-.4,1.4Z"/>
      <path d="M318.7,307.4c0,.7-.2,1.3-.5,1.7s-.8.7-1.3.7c-.6,0-1-.2-1.4-.5v2.3h-.8v-6.6h.7v.5c.3-.4.8-.6,1.4-.6s1,.2,1.4.6c.3.4.5,1,.5,1.9h0ZM317.9,307.3c0-.5-.1-1-.3-1.3s-.5-.5-.9-.5c-.5,0-.9.2-1.1.7v2.3c.2.4.6.7,1.1.7.4,0,.7-.2.9-.5.2-.3.3-.8.3-1.4Z"/>
      <path d="M319.4,307.3c0-.5.1-.9.3-1.3.2-.4.4-.7.8-.9.3-.2.7-.3,1.1-.3.6,0,1.2.2,1.6.7.4.4.6,1,.6,1.8v.1c0,.5-.1.9-.3,1.2-.2.4-.4.7-.8.9-.3.2-.7.3-1.1.3-.6,0-1.2-.2-1.6-.7-.4-.4-.6-1-.6-1.8h0ZM320.2,307.4c0,.5.1,1,.4,1.3.2.3.6.5,1,.5s.7-.2,1-.5c.2-.3.4-.8.4-1.4,0-.5-.1-.9-.4-1.3-.2-.3-.6-.5-1-.5s-.7.2-1,.5-.4.8-.4,1.4Z"/>
      <path d="M327.4,308.4c0-.2-.1-.4-.2-.5-.2-.1-.5-.2-.9-.3-.4-.1-.7-.2-1-.3-.2-.1-.4-.3-.5-.4-.1-.2-.2-.4-.2-.6,0-.4.2-.7.5-1s.8-.4,1.3-.4,1,.1,1.3.4.5.6.5,1.1h-.8c0-.2-.1-.4-.3-.6-.2-.2-.4-.2-.7-.2s-.5.1-.7.2-.3.3-.3.5.1.3.2.4.4.2.8.3c.4.1.7.2,1,.3s.4.3.6.5c.1.2.2.4.2.6,0,.4-.2.8-.5,1-.3.3-.8.4-1.3.4-.4,0-.7-.1-1-.2s-.5-.3-.7-.6c-.2-.2-.2-.5-.2-.8h.8c0,.3.1.5.3.6.2.2.5.2.8.2s.6-.1.7-.2c.2,0,.3-.1.3-.4Z"/>
      <path d="M331.1,309.8c-.6,0-1.2-.2-1.6-.6s-.6-1-.6-1.7v-.2c0-.5.1-.9.3-1.3.2-.4.4-.7.8-.9.3-.2.7-.3,1.1-.3.6,0,1.1.2,1.4.6s.5,1,.5,1.7v.3h-3.2c0,.5.1.8.4,1.1.3.3.6.4,1,.4.3,0,.5-.1.7-.2s.4-.3.5-.5l.5.4c-.4.9-1,1.2-1.8,1.2ZM331,305.5c-.3,0-.6.1-.8.4-.2.2-.4.6-.4,1h2.4v-.1c0-.4-.1-.7-.3-1-.3-.2-.6-.3-.9-.3Z"/>
      <path d="M333.5,307.3c0-.7.2-1.3.5-1.8.3-.4.8-.7,1.4-.7s1,.2,1.3.6v-2.5h.8v6.8h-.7v-.5c-.3.4-.8.6-1.4.6s-1-.2-1.3-.7c-.4-.4-.6-1-.6-1.8h0ZM334.3,307.4c0,.5.1,1,.3,1.3s.5.5.9.5c.5,0,.9-.2,1.1-.7v-2.2c-.2-.4-.6-.7-1.1-.7-.4,0-.7.2-.9.5s-.3.7-.3,1.3Z"/>
      <path d="M344.8,307.4c0,.7-.2,1.3-.5,1.8-.3.4-.8.7-1.3.7-.6,0-1.1-.2-1.4-.6v.5h-.7v-6.8h.8v2.5c.3-.4.8-.6,1.4-.6s1,.2,1.4.7c.1.4.3,1,.3,1.8h0ZM344,307.3c0-.6-.1-1-.3-1.3s-.5-.5-.9-.5c-.5,0-.9.2-1.2.7v2.1c.2.5.6.7,1.2.7.4,0,.7-.2.9-.5s.3-.6.3-1.2Z"/>
      <path d="M347.2,308.5l1.1-3.6h.9l-1.9,5.5c-.3.8-.8,1.2-1.4,1.2h-.2l-.3-.1v-.7h.2c.3,0,.5-.1.6-.2.2-.1.3-.3.4-.6l.2-.5-1.7-4.7h.9l1.2,3.7Z"/>
      <path d="M353.4,307.7l.1.8.2-.8,1.3-4.5h.7l1.2,4.5.2.8.1-.9,1-4.4h.8l-1.6,6.4h-.8l-1.3-4.7-.1-.5-.1.5-1.4,4.7h-.8l-1.5-6.4h.8l1.2,4.5Z"/>
      <path d="M362.5,309.7c0-.1-.1-.3-.1-.5-.4.4-.8.6-1.4.6-.5,0-.9-.1-1.2-.4-.3-.3-.5-.6-.5-1,0-.5.2-.9.6-1.2.4-.3.9-.4,1.6-.4h.8v-.4c0-.3-.1-.5-.3-.7-.2-.2-.4-.3-.8-.3-.3,0-.5.1-.7.2s-.3.3-.3.5h-.8c0-.2.1-.5.3-.7.2-.2.4-.4.7-.5.3-.1.6-.2,1-.2.5,0,1,.1,1.3.4s.5.7.5,1.1v2.2c0,.4.1.8.2,1v.1h-.9v.2ZM361.2,309.1c.3,0,.5-.1.7-.2s.4-.3.5-.5v-1h-.6c-1,0-1.5.3-1.5.9,0,.3.1.5.3.6s.3.2.6.2Z"/>
      <path d="M364.4,303.7c0-.1,0-.2.1-.3.1-.1.2-.1.4-.1s.3,0,.4.1.1.2.1.3,0,.2-.1.3-.2.1-.4.1-.3,0-.4-.1c-.1-.1-.1-.2-.1-.3ZM365.2,309.7h-.8v-4.8h.8v4.8Z"/>
      <path d="M367.5,303.8v1.2h.9v.6h-.9v3c0,.2,0,.3.1.4s.2.1.4.1c.1,0,.2,0,.4-.1v.7c-.2.1-.4.1-.6.1-.4,0-.6-.1-.8-.3s-.3-.5-.3-.9v-2.9h-.9v-.6h.9v-1.2h.8v-.1Z"/>
      <path d="M371.2,309.8c-.6,0-1.2-.2-1.6-.6s-.6-1-.6-1.7v-.2c0-.5.1-.9.3-1.3.2-.4.4-.7.8-.9.3-.2.7-.3,1.1-.3.6,0,1.1.2,1.4.6s.5,1,.5,1.7v.3h-3.2c0,.5.1.8.4,1.1.3.3.6.4,1,.4.3,0,.5-.1.7-.2s.4-.3.5-.5l.5.4c-.4.9-1,1.2-1.8,1.2ZM371.1,305.5c-.3,0-.6.1-.8.4-.2.2-.4.6-.4,1h2.4v-.1c0-.4-.1-.7-.3-1-.3-.2-.6-.3-.9-.3Z"/>
      <path d="M376.2,306.8h-2.6v-.5l1.3-1.2c.3-.3.5-.6.5-.8,0-.1,0-.3-.1-.4s-.2-.1-.4-.1-.4.1-.5.2-.2.3-.2.4h-.7c0-.3.1-.6.4-.8.2-.2.6-.3.9-.3s.7.1.9.3.3.4.3.8c0,.3-.2.6-.5.9l-.4.3-.8.6h1.8v.6h.1Z"/>
    </g>
    <g>
      <rect class="cls-1" x="21.1" y="11.8" width="110" height="12.4"/>
      <path d="M34.9,18.2h3.1v1.1h-4.6v-7.1h1.5v6Z"/>
      <path d="M41,19.4c-.8,0-1.4-.2-1.9-.7s-.7-1.1-.7-1.9v-.1c0-.5.1-1,.3-1.4s.5-.7.9-1c.4-.2.8-.3,1.3-.3.7,0,1.3.2,1.7.7s.6,1.1.6,1.9v.6h-3.4c0,.3.2.6.4.8s.5.3.9.3c.5,0,1-.2,1.3-.6l.7.8c-.2.3-.5.5-.9.7s-.7.2-1.2.2ZM40.9,15.1c-.3,0-.5.1-.7.3s-.3.5-.3.8h2v-.1c0-.3-.1-.6-.3-.7-.2-.2-.4-.3-.7-.3Z"/>
      <path d="M45.7,17.6l1-3.6h1.5l-1.8,5.3h-1.4l-1.8-5.3h1.5l1,3.6Z"/>
      <path d="M51,19.4c-.8,0-1.4-.2-1.9-.7s-.7-1.1-.7-1.9v-.1c0-.5.1-1,.3-1.4s.5-.7.9-1c.4-.2.8-.3,1.3-.3.7,0,1.3.2,1.7.7s.6,1.1.6,1.9v.6h-3.4c0,.3.2.6.4.8s.5.3.9.3c.5,0,1-.2,1.3-.6l.7.8c-.2.3-.5.5-.9.7s-.7.2-1.2.2ZM50.9,15.1c-.3,0-.5.1-.7.3s-.3.5-.3.8h2v-.1c0-.3-.1-.6-.3-.7-.2-.2-.4-.3-.7-.3Z"/>
      <path d="M55.3,19.3h-1.4v-7.5h1.4v7.5Z"/>
      <path d="M58.3,16.6c0-.5.1-1,.3-1.4s.5-.7.9-1c.4-.2.8-.3,1.3-.3.7,0,1.3.2,1.7.7.5.4.7,1,.8,1.8v.4c0,.8-.2,1.5-.7,2s-1.1.7-1.8.7-1.4-.2-1.8-.7c-.5-.6-.7-1.3-.7-2.2h0ZM59.7,16.7c0,.5.1.9.3,1.2s.5.4.8.4.6-.1.8-.4c.2-.3.3-.7.3-1.3,0-.5-.1-.9-.3-1.1s-.5-.4-.8-.4-.6.1-.8.4-.3.7-.3,1.2Z"/>
      <path d="M64.4,19.3v-4.2h-.8v-1h.8v-.5c0-.6.2-1.1.5-1.4s.8-.5,1.4-.5c.2,0,.4,0,.7.1v1.1h-.4c-.5,0-.8.2-.8.7v.4h1v1h-1v4.3h-1.4Z"/>
      <path d="M73.8,17.9h-2.6l-.5,1.4h-1.6l2.6-7.1h1.4l2.7,7.1h-1.6l-.4-1.4ZM71.6,16.7h1.8l-.9-2.7-.9,2.7Z"/>
      <path d="M81,16.7c0,.8-.2,1.5-.5,2s-.9.7-1.5.7-1-.2-1.4-.7l-.1.6h-1.3v-7.5h1.4v2.7c.3-.4.8-.6,1.3-.6.6,0,1.1.2,1.5.7.4.5.6,1.2.6,2.1h0ZM79.5,16.6c0-.5-.1-.9-.3-1.2s-.4-.4-.8-.4-.8.2-.9.6v2.1c.2.4.5.6.9.6.5,0,.8-.2.9-.7.2-.2.2-.5.2-1Z"/>
      <path d="M84.5,17.9c0-.2-.1-.3-.3-.4-.2-.1-.4-.2-.8-.3-1.3-.3-1.9-.8-1.9-1.6,0-.5.2-.9.6-1.2s.9-.5,1.5-.5c.7,0,1.2.2,1.6.5s.6.7.6,1.2h-1.4c0-.2-.1-.4-.2-.5s-.3-.2-.6-.2c-.2,0-.4.1-.6.2s-.2.2-.2.4.1.3.2.4c.1.1.4.2.7.2s.6.1.9.2c.7.3,1.1.7,1.1,1.4,0,.5-.2.9-.6,1.2s-.9.4-1.6.4c-.4,0-.8-.1-1.2-.2-.3-.2-.6-.4-.8-.6s-.3-.6-.3-.9h1.3c0,.3.1.4.3.6s.4.2.7.2.5-.1.6-.2c.3,0,.4-.2.4-.3Z"/>
      <path d="M88.3,12.7v1.3h.9v1h-.9v2.6c0,.2,0,.3.1.4s.2.1.4.1h.4v1.2c-.3.1-.6.1-.9.1-1,0-1.5-.5-1.5-1.5v-2.8h-.8v-1h.8v-1.4h1.5Z"/>
      <path d="M92.7,15.4h-.5c-.5,0-.9.2-1,.5v3.4h-1.4v-5.3h1.3v.6c.3-.5.7-.7,1.2-.7.2,0,.3,0,.4.1v1.4Z"/>
      <path d="M96.1,19.3c-.1-.1-.1-.3-.1-.4-.3.4-.8.6-1.3.6s-.9-.1-1.3-.4c-.3-.3-.5-.7-.5-1.1,0-.6.2-1,.6-1.3s1-.5,1.8-.5h.6v-.3c0-.2-.1-.4-.2-.6-.1-.1-.3-.2-.6-.2-.2,0-.4.1-.6.2-.1.1-.2.3-.2.5h-1.3c0-.3.1-.6.3-.8s.4-.7.7-.8.7-.2,1.2-.2c.7,0,1.2.2,1.6.5s.6.8.6,1.4v2.3c0,.5.1.9.2,1.1h-1.5ZM94.9,18.3c.2,0,.4,0,.6-.1s.3-.2.4-.4v-.9h-.5c-.7,0-1.1.2-1.1.7v.1c0,.2.1.3.2.4s.2.2.4.2Z"/>
      <path d="M100.4,18.3c.3,0,.5-.1.6-.2s.2-.3.3-.6h1.3c0,.4-.1.7-.3,1s-.5.5-.8.7-.7.2-1.1.2c-.8,0-1.4-.2-1.8-.7s-.7-1.1-.7-2v-.1c0-.8.2-1.5.6-1.9s1-.7,1.8-.7c.7,0,1.2.2,1.6.6.4.4.6.9.6,1.5h-1.3c0-.3-.1-.5-.3-.7s-.4-.3-.6-.3c-.3,0-.6.1-.7.4-.2.2-.3.6-.3,1.2v.1c0,.5.1.9.2,1.2s.6.3.9.3Z"/>
      <path d="M104.9,12.7v1.3h.9v1h-.9v2.6c0,.2,0,.3.1.4s.2.1.4.1h.4v1.2c-.3.1-.6.1-.9.1-1,0-1.5-.5-1.5-1.5v-2.8h-.8v-1h.8v-1.4h1.5Z"/>
      <path d="M106.4,12.7c0-.2.1-.4.2-.5s.3-.2.6-.2c.2,0,.4.1.6.2s.2.3.2.5-.1.4-.2.5-.3.2-.6.2-.4-.1-.6-.2c-.1-.1-.2-.3-.2-.5ZM107.9,19.3h-1.4v-5.3h1.4v5.3Z"/>
      <path d="M108.6,16.6c0-.5.1-1,.3-1.4s.5-.7.9-1c.4-.2.8-.3,1.3-.3.7,0,1.3.2,1.7.7.5.4.7,1,.8,1.8v.4c0,.8-.2,1.5-.7,2s-1.1.7-1.8.7-1.4-.2-1.8-.7c-.4-.6-.7-1.3-.7-2.2h0ZM110,16.7c0,.5.1.9.3,1.2s.5.4.8.4.6-.1.8-.4c.2-.3.3-.7.3-1.3,0-.5-.1-.9-.3-1.1s-.5-.4-.8-.4-.6.1-.8.4-.3.7-.3,1.2Z"/>
      <path d="M115.6,14v.6c.4-.5.9-.7,1.5-.7s1,.2,1.2.5.4.8.4,1.5v3.4h-1.4v-3.4c0-.3-.1-.5-.2-.7s-.3-.2-.6-.2c-.4,0-.7.2-.9.5v3.8h-1.4v-5.3h1.4Z"/>
    </g>
    <g>
      <rect class="cls-1" x="166.6" y="11.8" width="107.8" height="12.4"/>
      <path d="M212.3,16.4h-2.8v2.9h-1.5v-7.1h4.6v1.2h-3.2v1.8h2.8v1.2h.1Z"/>
      <path d="M212.9,16.6c0-.5.1-1,.3-1.4s.5-.7.9-1,.8-.3,1.3-.3c.7,0,1.3.2,1.7.7s.7,1,.8,1.8v.4c0,.8-.2,1.5-.7,2s-1.1.7-1.8.7-1.4-.2-1.8-.7c-.4-.6-.7-1.3-.7-2.2h0ZM214.3,16.7c0,.5.1.9.3,1.2s.5.4.8.4.6-.1.8-.4c.2-.3.3-.7.3-1.3,0-.5-.1-.9-.3-1.1-.2-.3-.5-.4-.8-.4s-.6.1-.8.4c-.2.3-.3.7-.3,1.2Z"/>
      <path d="M220.8,18.3c.3,0,.5-.1.6-.2.2-.1.2-.3.3-.6h1.3c0,.4-.1.7-.3,1s-.5.5-.8.7-.7.2-1.1.2c-.8,0-1.3-.2-1.8-.7-.4-.5-.7-1.1-.7-2v-.1c0-.8.2-1.5.7-1.9.4-.5,1-.7,1.8-.7.7,0,1.2.2,1.6.6s.6.9.6,1.5h-1.3c0-.3-.1-.5-.3-.7s-.4-.3-.6-.3c-.3,0-.6.1-.7.4-.2.2-.2.6-.2,1.2v.1c0,.5.1.9.2,1.2s.4.3.7.3Z"/>
      <path d="M226.8,18.8c-.3.4-.8.6-1.4.6s-1-.2-1.3-.5-.4-.8-.5-1.4v-3.5h1.4v3.4c0,.6.2.8.8.8.5,0,.8-.2,1-.5v-3.7h1.4v5.3h-1.3l-.1-.5Z"/>
      <path d="M231.9,17.9c0-.2-.1-.3-.3-.4-.2-.1-.4-.2-.8-.3-1.3-.3-1.9-.8-1.9-1.6,0-.5.2-.9.6-1.2.4-.3.9-.5,1.5-.5.7,0,1.2.2,1.6.5.4.3.6.7.6,1.2h-1.4c0-.2-.1-.4-.2-.5-.1-.1-.3-.2-.6-.2-.2,0-.4.1-.6.2-.1.1-.2.2-.2.4s.1.3.2.4c.1.1.4.2.7.2s.6.1.9.2c.7.3,1.1.7,1.1,1.4,0,.5-.2.9-.6,1.2-.4.3-.9.4-1.6.4-.4,0-.8-.1-1.2-.2-.3-.2-.6-.4-.8-.6s-.3-.6-.3-.9h1.3c0,.3.1.4.3.6.2.1.4.2.7.2s.5-.1.6-.2.4-.2.4-.3Z"/>
    </g>
    <g>
      <rect class="cls-1" x="299.3" y="11.8" width="93.8" height="12.4"/>
      <path d="M330.6,17.9h-2.6l-.5,1.5h-1.6l2.6-7.1h1.4l2.7,7.1h-1.6l-.4-1.5ZM328.4,16.7h1.8l-.9-2.7-.9,2.7Z"/>
      <path d="M335.2,18.3c.3,0,.5-.1.6-.2s.2-.3.3-.6h1.3c0,.4-.1.7-.3,1s-.5.5-.8.7-.7.2-1.1.2c-.8,0-1.4-.2-1.8-.7s-.7-1.1-.7-2v-.1c0-.8.2-1.5.6-1.9s1-.7,1.8-.7c.7,0,1.2.2,1.6.6.4.4.6.9.6,1.5h-1.3c0-.3-.1-.5-.3-.7s-.4-.3-.6-.3c-.3,0-.6.1-.7.4-.2.2-.3.6-.3,1.2v.1c0,.5.1.9.2,1.2s.5.3.9.3Z"/>
      <path d="M339.7,12.7v1.3h.9v1h-.9v2.6c0,.2,0,.3.1.4s.2.1.4.1h.4v1.2c-.3.1-.6.1-.9.1-1,0-1.5-.5-1.5-1.5v-2.8h-.8v-1h.8v-1.4h1.5Z"/>
      <path d="M341.2,12.7c0-.2.1-.4.2-.5s.3-.2.6-.2c.2,0,.4.1.6.2s.2.3.2.5-.1.4-.2.5-.3.2-.6.2-.4-.1-.6-.2c-.2-.1-.2-.3-.2-.5ZM342.7,19.3h-1.4v-5.3h1.4v5.3Z"/>
      <path d="M345.6,17.6l1-3.6h1.5l-1.8,5.3h-1.3l-1.8-5.3h1.5l.9,3.6Z"/>
      <path d="M348.5,12.7c0-.2.1-.4.2-.5s.3-.2.6-.2c.2,0,.4.1.6.2s.2.3.2.5-.1.4-.2.5-.3.2-.6.2-.4-.1-.6-.2c-.2-.1-.2-.3-.2-.5ZM350,19.3h-1.4v-5.3h1.4v5.3Z"/>
      <path d="M352.6,12.7v1.3h.9v1h-.9v2.6c0,.2,0,.3.1.4s.2.1.4.1h.4v1.2c-.3.1-.6.1-.9.1-1,0-1.5-.5-1.5-1.5v-2.8h-.8v-1h.8v-1.4h1.5Z"/>
      <path d="M354.1,12.7c0-.2.1-.4.2-.5s.3-.2.6-.2c.2,0,.4.1.6.2s.2.3.2.5-.1.4-.2.5-.3.2-.6.2-.4-.1-.6-.2c-.1-.1-.2-.3-.2-.5ZM355.6,19.3h-1.4v-5.3h1.4v5.3Z"/>
      <path d="M359,19.4c-.8,0-1.4-.2-1.9-.7s-.7-1.1-.7-1.9v-.1c0-.5.1-1,.3-1.4s.5-.7.9-1c.4-.2.8-.3,1.3-.3.7,0,1.3.2,1.7.7.4.5.6,1.1.6,1.9v.6h-3.4c0,.3.2.6.4.8.2.2.5.3.9.3.5,0,1-.2,1.3-.6l.7.8c-.2.3-.5.5-.9.7s-.8.2-1.2.2ZM358.8,15.1c-.3,0-.5.1-.7.3s-.3.5-.3.8h2v-.1c0-.3-.1-.6-.3-.7-.1-.2-.4-.3-.7-.3Z"/>
      <path d="M364.6,17.9c0-.2-.1-.3-.3-.4-.2-.1-.4-.2-.8-.3-1.3-.3-1.9-.8-1.9-1.6,0-.5.2-.9.6-1.2s.9-.5,1.5-.5c.7,0,1.2.2,1.6.5s.6.7.6,1.2h-1.4c0-.2-.1-.4-.2-.5s-.3-.2-.6-.2c-.2,0-.4.1-.6.2s-.2.2-.2.4.1.3.2.4c.1.1.4.2.7.2s.6.1.9.2c.7.3,1.1.7,1.1,1.4,0,.5-.2.9-.6,1.2s-.9.4-1.6.4c-.4,0-.8-.1-1.2-.2-.3-.2-.6-.4-.8-.6s-.3-.6-.3-.9h1.3c0,.3.1.4.3.6s.4.2.7.2.5-.1.6-.2c.4,0,.4-.2.4-.3Z"/>
    </g>
    <rect class="cls-4" x="19.6" y="43.7" width="124.6" height="25.3"/>
    <rect class="cls-6" x="299.3" y="34.7" width="93.8" height="17.9"/>
    <rect class="cls-6" x="299.3" y="57.8" width="93.8" height="17.9"/>
    <rect class="cls-6" x="299.3" y="99.8" width="93.8" height="17.9"/>
    <rect class="cls-6" x="299.3" y="131.9" width="93.8" height="17.9"/>
    <rect class="cls-6" x="299.3" y="172.5" width="93.8" height="17.9"/>
    <rect class="cls-6" x="299.3" y="196.4" width="93.8" height="17.9"/>
    <rect class="cls-6" x="299.3" y="231.5" width="93.8" height="17.9"/>
    <rect class="cls-6" x="299.3" y="253.4" width="93.8" height="17.9"/>
    <rect class="cls-6" x="299.3" y="274.9" width="93.8" height="17.9"/>
    <rect class="cls-4" x="19.6" y="111" width="124.6" height="27.3"/>
    <rect class="cls-4" x="19.6" y="181" width="124.6" height="27.3"/>
    <rect class="cls-4" x="19.6" y="245.7" width="124.6" height="27.3"/>
    <line class="cls-2" x1="12" y1="27.1" x2="402.4" y2="27.1"/>
    <line class="cls-2" x1="12" y1="85.2" x2="402.4" y2="85.2"/>
    <line class="cls-2" x1="12" y1="162.6" x2="402.4" y2="162.6"/>
    <line class="cls-2" x1="12" y1="223.3" x2="402.4" y2="223.3"/>
    <g>
      <line class="cls-3" x1="81.9" y1="78.1" x2="81.9" y2="102.1"/>
      <polygon points="76.9 79.6 81.9 71 86.8 79.6 76.9 79.6"/>
      <polygon points="76.9 100.6 81.9 109.2 86.8 100.6 76.9 100.6"/>
    </g>
    <g>
      <line class="cls-3" x1="81.9" y1="146.7" x2="81.9" y2="172.6"/>
      <polygon points="76.9 148.1 81.9 139.5 86.8 148.1 76.9 148.1"/>
      <polygon points="76.9 171.1 81.9 179.8 86.8 171.1 76.9 171.1"/>
    </g>
    <g>
      <line class="cls-3" x1="81.9" y1="216.5" x2="81.9" y2="236.4"/>
      <polygon points="76.9 217.9 81.9 209.3 86.8 217.9 76.9 217.9"/>
      <polygon points="76.9 234.9 81.9 243.6 86.8 234.9 76.9 234.9"/>
    </g>
  </g>
  <g id="Layer_3" data-name="Layer 3">
    <g>
      <rect class="cls-1" x="299.3" y="40.1" width="93.8" height="11.9"/>
      <path d="M324.5,40.5v4.2c0,.7-.2,1.3-.7,1.7-.4.4-1,.6-1.8.6-.7,0-1.3-.2-1.8-.6s-.7-.9-.7-1.6v-4.3h1.3v4.2c0,.4.1.7.3.9.2.2.5.3.8.3.7,0,1.1-.4,1.1-1.2v-4.3h1.5v.1Z"/>
      <path d="M327.9,45.5c0-.2-.1-.3-.2-.4-.2-.1-.4-.2-.7-.2-1.1-.2-1.7-.7-1.7-1.4,0-.4.2-.8.5-1.1s.8-.4,1.4-.4,1.1.1,1.4.4c.4.3.5.7.5,1.1h-1.3c0-.2-.1-.3-.2-.5-.1-.1-.3-.2-.5-.2s-.4,0-.5.1-.2.2-.2.4c0,.1.1.3.2.3.1.1.4.2.7.2s.6.1.8.2c.7.2,1,.7,1,1.3,0,.4-.2.8-.6,1.1s-.9.4-1.4.4c-.4,0-.8-.1-1.1-.2-.3-.1-.6-.3-.7-.6-.2-.2-.3-.5-.3-.8h1.2c0,.2.1.4.3.5.2.1.4.2.6.2s.4,0,.6-.1c.1,0,.2-.1.2-.3Z"/>
      <path d="M331.9,46.9c-.7,0-1.3-.2-1.7-.6-.4-.4-.7-1-.7-1.7v-.1c0-.5.1-.9.3-1.3.2-.4.4-.7.8-.9.3-.2.7-.3,1.2-.3.7,0,1.2.2,1.5.6.4.4.6,1,.6,1.7v.5h-3c0,.3.2.6.4.7.2.2.5.3.8.3.5,0,.9-.2,1.1-.5l.6.7c-.2.3-.4.5-.8.6-.3.3-.7.3-1.1.3ZM331.8,43c-.3,0-.5.1-.6.3-.2.2-.3.4-.3.7h1.8v-.1c0-.3-.1-.5-.2-.7-.2-.1-.5-.2-.7-.2Z"/>
      <path d="M337.1,43.3h-.5c-.5,0-.8.2-.9.5v3.1h-1.3v-4.8h1.2v.6c.3-.4.6-.7,1.1-.7.1,0,.3,0,.4.1v1.2Z"/>
      <path d="M342.3,43.3h-.5c-.5,0-.8.2-.9.5v3.1h-1.3v-4.8h1.2v.6c.3-.4.6-.7,1.1-.7.1,0,.3,0,.4.1v1.2Z"/>
      <path d="M344.9,46.9c-.7,0-1.3-.2-1.7-.6-.4-.4-.7-1-.7-1.7v-.1c0-.5.1-.9.3-1.3.2-.4.4-.7.8-.9.3-.2.7-.3,1.2-.3.7,0,1.2.2,1.5.6.4.4.6,1,.6,1.7v.5h-3c0,.3.2.6.4.7.2.2.5.3.8.3.5,0,.9-.2,1.1-.5l.6.7c-.2.3-.4.5-.8.6-.4.3-.7.3-1.1.3ZM344.7,43c-.3,0-.5.1-.6.3-.2.2-.3.4-.3.7h1.8v-.1c0-.3-.1-.5-.2-.7-.2-.1-.4-.2-.7-.2Z"/>
      <path d="M349.9,45.5c0-.2-.1-.3-.2-.4-.2-.1-.4-.2-.7-.2-1.1-.2-1.7-.7-1.7-1.4,0-.4.2-.8.5-1.1s.8-.4,1.4-.4,1.1.1,1.4.4c.4.3.5.7.5,1.1h-1.3c0-.2-.1-.3-.2-.5-.1-.1-.3-.2-.5-.2s-.4,0-.5.1-.2.2-.2.4c0,.1.1.3.2.3.1.1.4.2.7.2s.6.1.8.2c.7.2,1,.7,1,1.3,0,.4-.2.8-.6,1.1s-.9.4-1.4.4c-.4,0-.8-.1-1.1-.2-.3-.1-.6-.3-.7-.6-.2-.2-.3-.5-.3-.8h1.2c0,.2.1.4.3.5.2.1.4.2.6.2s.4,0,.6-.1c.2,0,.2-.1.2-.3Z"/>
      <path d="M354,46.9c-.7,0-1.3-.2-1.7-.6-.4-.4-.7-1-.7-1.7v-.1c0-.5.1-.9.3-1.3.2-.4.4-.7.8-.9.3-.2.7-.3,1.2-.3.7,0,1.2.2,1.5.6.4.4.6,1,.6,1.7v.5h-3c0,.3.2.6.4.7.2.2.5.3.8.3.5,0,.9-.2,1.1-.5l.6.7c-.2.3-.4.5-.8.6-.3.3-.7.3-1.1.3ZM353.9,43c-.3,0-.5.1-.6.3-.2.2-.3.4-.3.7h1.8v-.1c0-.3-.1-.5-.2-.7-.3-.1-.5-.2-.7-.2Z"/>
      <path d="M359.3,46.9c-.1-.1-.1-.3-.1-.4-.3.3-.7.5-1.2.5s-.9-.1-1.2-.4c-.3-.3-.5-.6-.5-1,0-.5.2-.9.6-1.2s.9-.4,1.6-.4h.6v-.3c0-.2-.1-.4-.2-.5s-.3-.2-.5-.2-.4.1-.5.2c-.1.1-.2.2-.2.4h-1.3c0-.3.1-.5.3-.8s.4-.4.7-.6.7-.2,1-.2c.6,0,1.1.1,1.4.4.3.3.5.7.5,1.2v2.1c0,.5.1.8.2,1v.1h-1.2v.1ZM358.2,46c.2,0,.4,0,.5-.1.2-.1.3-.2.4-.3v-.8h-.5c-.6,0-1,.2-1,.7v.1c0,.2.1.3.2.4.1-.1.2,0,.4,0Z"/>
      <path d="M363.8,43.3h-.5c-.5,0-.8.2-.9.5v3.1h-1.3v-4.8h1.2v.6c.3-.4.6-.7,1.1-.7.1,0,.3,0,.4.1v1.2Z"/>
      <path d="M366.1,45.9c.2,0,.4-.1.6-.2.1-.1.2-.3.2-.5h1.2c0,.3-.1.6-.3.9-.2.3-.4.5-.7.6-.3.1-.6.2-1,.2-.7,0-1.2-.2-1.6-.6-.4-.4-.6-1-.6-1.8v-.1c0-.7.2-1.3.6-1.8.4-.4.9-.7,1.6-.7.6,0,1.1.2,1.4.5.4.3.5.8.5,1.4h-1.2c0-.2-.1-.4-.2-.6-.1-.2-.3-.2-.6-.2s-.5.1-.7.3-.2.6-.2,1v.1c0,.5.1.8.2,1.1s.5.4.8.4Z"/>
      <path d="M369.9,42.6c.3-.4.8-.6,1.3-.6,1,0,1.6.6,1.6,1.8v3h-1.3v-3c0-.3-.1-.5-.2-.6s-.3-.2-.6-.2c-.4,0-.6.1-.8.4v3.4h-1.3v-6.8h1.3v2.6Z"/>
    </g>
    <g>
      <rect class="cls-1" x="299.3" y="63.2" width="93.8" height="11.9"/>
      <path d="M333.8,68.7h-2.3l-.4,1.3h-1.4l2.4-6.4h1.2l2.4,6.4h-1.4l-.5-1.3ZM331.9,67.6h1.6l-.8-2.4-.8,2.4Z"/>
      <path d="M337,65.2v.5c.3-.4.8-.6,1.4-.6.5,0,.9.1,1.1.4s.4.7.4,1.3v3.1h-1.3v-3c0-.3-.1-.5-.2-.6s-.3-.2-.6-.2c-.4,0-.6.2-.8.5v3.4h-1.3v-4.8s1.3,0,1.3,0Z"/>
      <path d="M343.4,70c-.1-.1-.1-.3-.1-.4-.3.3-.7.5-1.2.5s-.9-.1-1.2-.4c-.3-.3-.5-.6-.5-1,0-.5.2-.9.6-1.2s.9-.4,1.6-.4h.6v-.3c0-.2-.1-.4-.2-.5s-.3-.2-.5-.2-.4.1-.5.2c-.1.1-.2.2-.2.4h-1.3c0-.3.1-.5.3-.8s.4-.4.7-.6.7-.2,1-.2c.6,0,1.1.1,1.4.4.3.3.5.7.5,1.2v2.1c0,.5.1.8.2,1v.1h-1.2v.1ZM342.4,69.1c.2,0,.4,0,.5-.1.2-.1.3-.2.4-.3v-.8h-.5c-.6,0-1,.2-1,.7v.1c0,.2.1.3.2.4,0-.1.2,0,.4,0Z"/>
      <path d="M346.6,70h-1.3v-6.8h1.3v6.8Z"/>
      <path d="M349.3,68.2l.9-3h1.4l-1.9,5.5-.1.3c-.3.6-.8.9-1.4.9-.2,0-.4,0-.6-.1v-1h.2c.2,0,.4,0,.5-.1s.2-.2.3-.4l.1-.4-1.7-4.8h1.4l.9,3.1Z"/>
      <path d="M354.4,68.7c0-.2-.1-.3-.2-.4-.2-.1-.4-.2-.7-.2-1.1-.2-1.7-.7-1.7-1.4,0-.4.2-.8.5-1.1s.8-.4,1.4-.4,1.1.1,1.4.4c.4.3.5.7.5,1.1h-1.3c0-.2-.1-.3-.2-.5-.1-.1-.3-.2-.5-.2s-.4,0-.5.1-.2.2-.2.4c0,.1.1.3.2.3.1.1.4.2.7.2s.6.1.8.2c.7.2,1,.7,1,1.3,0,.4-.2.8-.6,1.1-.4.3-.9.4-1.4.4-.4,0-.8-.1-1.1-.2-.3-.1-.6-.3-.7-.6-.2-.2-.3-.5-.3-.8h1.2c0,.2.1.4.3.5.2.1.4.2.6.2s.4,0,.6-.1c.2-.1.2-.2.2-.3Z"/>
      <path d="M356.3,64c0-.2.1-.3.2-.5.1-.1.3-.2.5-.2s.4.1.5.2.2.3.2.5-.1.4-.2.5-.3.2-.5.2-.4-.1-.5-.2c-.2-.2-.2-.3-.2-.5ZM357.6,70h-1.3v-4.8h1.3v4.8Z"/>
      <path d="M361.1,68.7c0-.2-.1-.3-.2-.4-.2-.1-.4-.2-.7-.2-1.1-.2-1.7-.7-1.7-1.4,0-.4.2-.8.5-1.1s.8-.4,1.4-.4,1.1.1,1.4.4c.4.3.5.7.5,1.1h-1.3c0-.2-.1-.3-.2-.5-.1-.1-.3-.2-.5-.2s-.4,0-.5.1-.2.2-.2.4c0,.1.1.3.2.3.1.1.4.2.7.2s.6.1.8.2c.7.2,1,.7,1,1.3,0,.4-.2.8-.6,1.1-.4.3-.9.4-1.4.4-.4,0-.8-.1-1.1-.2-.3-.1-.6-.3-.7-.6-.2-.2-.3-.5-.3-.8h1.2c0,.2.1.4.3.5.2.1.4.2.6.2s.4,0,.6-.1c.1-.1.2-.2.2-.3Z"/>
    </g>
    <g>
      <rect class="cls-1" x="299.3" y="105.2" width="93.8" height="11.9"/>
      <path d="M318.1,109.7v2.3h-1.3v-6.4h2.5c.5,0,.9.1,1.3.3.4.2.6.4.8.7.2.3.3.7.3,1.1,0,.6-.2,1.1-.6,1.5s-1,.5-1.8.5h-1.2ZM318.1,108.7h1.2c.3,0,.6-.1.8-.2.2-.2.3-.4.3-.7s-.1-.6-.3-.8c-.2-.2-.4-.3-.8-.3h-1.2v2Z"/>
      <path d="M325,108.4h-.5c-.5,0-.8.2-.9.5v3.1h-1.3v-4.8h1.2v.6c.3-.4.6-.7,1.1-.7.1,0,.3,0,.4.1v1.2Z"/>
      <path d="M325.1,109.6c0-.5.1-.9.3-1.3s.4-.7.8-.9c.3-.2.7-.3,1.2-.3.6,0,1.2.2,1.6.6s.6.9.7,1.6v.3c0,.7-.2,1.3-.6,1.8s-1,.7-1.6.7-1.2-.2-1.6-.7c-.6-.4-.8-1-.8-1.8h0ZM326.3,109.7c0,.5.1.8.3,1,.2.2.4.4.7.4s.5-.1.7-.4c.2-.2.3-.6.3-1.1,0-.4-.1-.8-.3-1-.2-.2-.4-.4-.7-.4s-.6.1-.7.4c-.2.2-.3.5-.3,1.1Z"/>
      <path d="M332.2,111.1c.2,0,.4-.1.6-.2.1-.1.2-.3.2-.5h1.2c0,.3-.1.6-.3.9-.2.3-.4.5-.7.6-.3.1-.6.2-1,.2-.7,0-1.2-.2-1.6-.6s-.6-1-.6-1.8v-.1c0-.7.2-1.3.6-1.8.4-.4.9-.7,1.6-.7.6,0,1.1.2,1.4.5.4.3.5.8.5,1.4h-1.1c0-.2-.1-.4-.2-.6s-.3-.2-.6-.2-.5.1-.7.3c-.2.2-.2.6-.2,1v.1c0,.5.1.8.2,1.1s.3.4.7.4Z"/>
      <path d="M336.9,112.1c-.7,0-1.3-.2-1.7-.6-.4-.4-.7-1-.7-1.7v-.1c0-.5.1-.9.3-1.3.2-.4.4-.7.8-.9.3-.2.7-.3,1.2-.3.7,0,1.2.2,1.5.6.4.4.6,1,.6,1.7v.5h-3c0,.3.2.6.4.7.2.2.5.3.8.3.5,0,.9-.2,1.1-.5l.6.7c-.2.3-.4.5-.8.6-.4.2-.7.3-1.1.3ZM336.7,108.2c-.3,0-.5.1-.6.3-.2.2-.3.4-.3.7h1.8v-.1c0-.3-.1-.5-.2-.7-.2-.2-.4-.2-.7-.2Z"/>
      <path d="M341.9,110.7c0-.2-.1-.3-.2-.4-.2-.1-.4-.2-.7-.2-1.1-.2-1.7-.7-1.7-1.4,0-.4.2-.8.5-1.1.3-.3.8-.4,1.4-.4s1.1.1,1.4.4c.4.3.5.7.5,1.1h-1.3c0-.2-.1-.3-.2-.5-.1-.1-.3-.2-.5-.2s-.4,0-.5.1-.2.2-.2.4c0,.1.1.3.2.3.1.1.4.2.7.2s.6.1.8.2c.7.2,1,.7,1,1.3,0,.4-.2.8-.6,1.1-.4.3-.9.4-1.4.4-.4,0-.8-.1-1.1-.2-.3-.1-.6-.3-.7-.6-.2-.2-.3-.5-.3-.8h1.2c0,.2.1.4.3.5.2.1.4.2.6.2s.4,0,.6-.1c.2-.1.2-.2.2-.3Z"/>
      <path d="M346.4,110.7c0-.2-.1-.3-.2-.4-.2-.1-.4-.2-.7-.2-1.1-.2-1.7-.7-1.7-1.4,0-.4.2-.8.5-1.1.3-.3.8-.4,1.4-.4s1.1.1,1.4.4c.4.3.5.7.5,1.1h-1.3c0-.2-.1-.3-.2-.5-.1-.1-.3-.2-.5-.2s-.4,0-.5.1-.2.2-.2.4c0,.1.1.3.2.3.1.1.4.2.7.2s.6.1.8.2c.7.2,1,.7,1,1.3,0,.4-.2.8-.6,1.1-.4.3-.9.4-1.4.4-.4,0-.8-.1-1.1-.2-.3-.1-.6-.3-.7-.6-.2-.2-.3-.5-.3-.8h1.2c0,.2.1.4.3.5.2.1.4.2.6.2s.4,0,.6-.1c.1-.1.2-.2.2-.3Z"/>
      <path d="M350.1,109.6c0-.7.2-1.3.5-1.8.3-.4.8-.7,1.4-.7.5,0,.8.2,1.1.5v-2.4h1.3v6.8h-1.1l-.1-.5c-.3.4-.7.6-1.2.6-.6,0-1-.2-1.3-.7-.4-.4-.6-1-.6-1.8ZM351.4,109.7c0,.4.1.8.2,1s.4.4.7.4c.4,0,.7-.2.8-.5v-1.9c-.2-.3-.4-.5-.8-.5-.6,0-.9.5-.9,1.5Z"/>
      <path d="M357.4,112.1c-.7,0-1.3-.2-1.7-.6-.4-.4-.7-1-.7-1.7v-.1c0-.5.1-.9.3-1.3.2-.4.4-.7.8-.9.3-.2.7-.3,1.2-.3.7,0,1.2.2,1.5.6.4.4.6,1,.6,1.7v.5h-3c0,.3.2.6.4.7.2.2.5.3.8.3.5,0,.9-.2,1.1-.5l.6.7c-.2.3-.4.5-.8.6-.3.2-.7.3-1.1.3ZM357.3,108.2c-.3,0-.5.1-.6.3-.2.2-.3.4-.3.7h1.8v-.1c0-.3-.1-.5-.2-.7-.3-.2-.5-.2-.7-.2Z"/>
      <path d="M362.5,110.7c0-.2-.1-.3-.2-.4-.2-.1-.4-.2-.7-.2-1.1-.2-1.7-.7-1.7-1.4,0-.4.2-.8.5-1.1.3-.3.8-.4,1.4-.4s1.1.1,1.4.4c.4.3.5.7.5,1.1h-1.3c0-.2-.1-.3-.2-.5-.1-.1-.3-.2-.5-.2s-.4,0-.5.1-.2.2-.2.4c0,.1.1.3.2.3.1.1.4.2.7.2s.6.1.8.2c.7.2,1,.7,1,1.3,0,.4-.2.8-.6,1.1-.4.3-.9.4-1.4.4-.4,0-.8-.1-1.1-.2-.3-.1-.6-.3-.7-.6-.2-.2-.3-.5-.3-.8h1.2c0,.2.1.4.3.5.2.1.4.2.6.2s.4,0,.6-.1c.1-.1.2-.2.2-.3Z"/>
      <path d="M364.3,106c0-.2.1-.3.2-.5.1-.1.3-.2.5-.2s.4.1.5.2.2.3.2.5-.1.4-.2.5-.3.2-.5.2-.4-.1-.5-.2-.2-.3-.2-.5ZM365.7,112h-1.3v-4.8h1.3v4.8Z"/>
      <path d="M366.4,109.6c0-.7.2-1.3.5-1.8.3-.4.8-.7,1.4-.7.5,0,.9.2,1.2.5l.1-.4h1.2v4.6c0,.4-.1.8-.3,1.1-.2.3-.5.5-.8.7s-.7.2-1.2.2c-.3,0-.7-.1-1-.2s-.6-.3-.8-.5l.6-.8c.3.4.7.5,1.2.5.3,0,.6-.1.8-.3.2-.2.3-.4.3-.8v-.3c-.3.3-.7.5-1.2.5-.6,0-1-.2-1.4-.7-.4-.2-.6-.8-.6-1.6h0ZM367.6,109.7c0,.4.1.8.3,1,.2.2.4.4.7.4.4,0,.7-.1.8-.4v-2c-.2-.3-.4-.4-.8-.4-.3,0-.5.1-.7.4-.2.1-.3.5-.3,1Z"/>
      <path d="M372.7,107.2v.5c.3-.4.8-.6,1.4-.6.5,0,.9.1,1.1.4s.4.7.4,1.3v3.1h-1.3v-3c0-.3-.1-.5-.2-.6s-.3-.2-.6-.2c-.4,0-.6.2-.8.5v3.4h-1.3v-4.8s1.3,0,1.3,0Z"/>
    </g>
    <g>
      <rect class="cls-1" x="299.3" y="137.4" width="93.8" height="11.9"/>
      <path d="M317.3,144.1v-6.4h2c.6,0,1.1.1,1.5.4.4.3.8.6,1,1.1s.4,1,.4,1.6v.3c0,.6-.1,1.1-.4,1.6-.2.5-.6.8-1,1.1s-.9.4-1.5.4h-2v-.1ZM318.6,138.8v4.3h.6c.5,0,.9-.2,1.2-.5s.4-.8.4-1.4v-.3c0-.7-.1-1.1-.4-1.5-.3-.3-.7-.5-1.2-.5h-.6v-.1Z"/>
      <path d="M325.1,144.2c-.7,0-1.3-.2-1.7-.6-.4-.4-.7-1-.7-1.7v-.1c0-.5.1-.9.3-1.3.2-.4.4-.7.8-.9.3-.2.7-.3,1.2-.3.7,0,1.2.2,1.5.6.4.4.6,1,.6,1.7v.5h-3c0,.3.2.6.4.7.2.2.5.3.8.3.5,0,.9-.2,1.1-.5l.6.7c-.2.3-.4.5-.8.6-.4.2-.7.3-1.1.3ZM324.9,140.3c-.3,0-.5.1-.6.3-.2.2-.3.4-.3.7h1.8v-.1c0-.3-.1-.5-.2-.7-.2-.1-.4-.2-.7-.2Z"/>
      <path d="M329.5,143.2c.2,0,.4-.1.6-.2.1-.1.2-.3.2-.5h1.2c0,.3-.1.6-.3.9-.2.3-.4.5-.7.6-.3.1-.6.2-1,.2-.7,0-1.2-.2-1.6-.6-.4-.4-.6-1-.6-1.8v-.1c0-.7.2-1.3.6-1.8.4-.4.9-.7,1.6-.7.6,0,1.1.2,1.4.5.4.3.5.8.5,1.4h-1.2c0-.2-.1-.4-.2-.6-.1-.2-.3-.2-.6-.2s-.5.1-.7.3-.2.6-.2,1v.1c0,.5.1.8.2,1.1s.5.4.8.4Z"/>
      <path d="M331.9,141.7c0-.5.1-.9.3-1.3s.4-.7.8-.9c.3-.2.7-.3,1.2-.3.6,0,1.2.2,1.6.6.4.4.6.9.7,1.6v.3c0,.7-.2,1.3-.6,1.8s-1,.7-1.6.7-1.2-.2-1.6-.7c-.6-.4-.8-1-.8-1.8h0ZM333.1,141.8c0,.5.1.8.3,1,.2.2.4.4.7.4s.5-.1.7-.4c.2-.2.3-.6.3-1.1,0-.4-.1-.8-.3-1-.2-.2-.4-.4-.7-.4s-.6.1-.7.4c-.2.2-.3.6-.3,1.1Z"/>
      <path d="M338.2,139.3v.5c.3-.4.8-.6,1.4-.6s1,.2,1.3.7c.3-.5.8-.7,1.4-.7.5,0,.9.2,1.2.5.3.3.4.8.4,1.4v3h-1.3v-3c0-.3-.1-.5-.2-.6s-.3-.2-.6-.2c-.4,0-.6.2-.8.5v3.3h-1.3v-3c0-.3-.1-.5-.2-.6s-.3-.2-.6-.2c-.4,0-.6.1-.8.4v3.4h-1.1v-4.8h1.2Z"/>
      <path d="M348.9,141.8c0,.7-.2,1.3-.5,1.8-.3.4-.8.7-1.3.7s-.9-.2-1.2-.5v2.2h-1.3v-6.7h1.2v.5c.3-.4.7-.6,1.2-.6.6,0,1,.2,1.4.7s.5,1,.5,1.9h0ZM347.6,141.7c0-.4-.1-.8-.2-1-.2-.2-.4-.4-.7-.4-.4,0-.7.2-.8.5v1.9c.2.3.4.5.8.5.6,0,.9-.5.9-1.5Z"/>
      <path d="M349.3,141.7c0-.5.1-.9.3-1.3s.4-.7.8-.9c.3-.2.7-.3,1.2-.3.6,0,1.2.2,1.6.6.4.4.6.9.7,1.6v.3c0,.7-.2,1.3-.6,1.8s-1,.7-1.6.7-1.2-.2-1.6-.7c-.6-.4-.8-1-.8-1.8h0ZM350.5,141.8c0,.5.1.8.3,1,.2.2.4.4.7.4s.5-.1.7-.4c.2-.2.3-.6.3-1.1,0-.4-.1-.8-.3-1-.2-.2-.4-.4-.7-.4s-.6.1-.7.4c-.2.2-.3.6-.3,1.1Z"/>
      <path d="M357,142.8c0-.2-.1-.3-.2-.4-.2-.1-.4-.2-.7-.2-1.1-.2-1.7-.7-1.7-1.4,0-.4.2-.8.5-1.1s.8-.4,1.4-.4,1.1.1,1.4.4c.4.3.5.7.5,1.1h-1.3c0-.2-.1-.3-.2-.5-.1-.1-.3-.2-.5-.2s-.4,0-.5.1-.2.2-.2.4c0,.1.1.3.2.3.1.1.4.2.7.2s.6.1.8.2c.7.2,1,.7,1,1.3,0,.4-.2.8-.6,1.1s-.9.4-1.4.4c-.4,0-.8-.1-1.1-.2-.3-.1-.6-.3-.7-.6-.2-.2-.3-.5-.3-.8h1.2c0,.2.1.4.3.5.2.1.4.2.6.2s.4,0,.6-.1c.1,0,.2-.2.2-.3Z"/>
      <path d="M358.8,138.1c0-.2.1-.3.2-.5.1-.1.3-.2.5-.2s.4.1.5.2.2.3.2.5-.1.4-.2.5-.3.2-.5.2-.4-.1-.5-.2c-.1-.1-.2-.3-.2-.5ZM360.2,144.1h-1.3v-4.8h1.3v4.8Z"/>
      <path d="M362.6,138.2v1.2h.8v.9h-.8v2.4c0,.2,0,.3.1.4s.2.1.4.1h.4v1c-.2.1-.5.1-.8.1-.9,0-1.3-.4-1.4-1.3v-2.7h-.7v-1h.7v-1.2h1.3v.1Z"/>
      <path d="M363.9,138.1c0-.2.1-.3.2-.5.1-.1.3-.2.5-.2s.4.1.5.2.2.3.2.5-.1.4-.2.5-.3.2-.5.2-.4-.1-.5-.2c-.1-.1-.2-.3-.2-.5ZM365.2,144.1h-1.2v-4.8h1.3v4.8h-.1Z"/>
      <path d="M365.9,141.7c0-.5.1-.9.3-1.3s.4-.7.8-.9c.3-.2.7-.3,1.2-.3.6,0,1.2.2,1.6.6.4.4.6.9.7,1.6v.3c0,.7-.2,1.3-.6,1.8s-1,.7-1.6.7-1.2-.2-1.6-.7c-.6-.4-.8-1-.8-1.8h0ZM367.2,141.8c0,.5.1.8.3,1,.2.2.4.4.7.4s.5-.1.7-.4c.2-.2.3-.6.3-1.1,0-.4-.1-.8-.3-1-.2-.2-.4-.4-.7-.4s-.6.1-.7.4c-.2.2-.3.6-.3,1.1Z"/>
      <path d="M372.2,139.3v.5c.3-.4.8-.6,1.4-.6.5,0,.9.1,1.1.4s.4.7.4,1.3v3.1h-1.3v-3c0-.3-.1-.5-.2-.6s-.3-.2-.6-.2c-.4,0-.6.2-.8.5v3.4h-1.2v-4.8h1.2Z"/>
    </g>
    <g>
      <rect class="cls-1" x="299.3" y="177.9" width="93.8" height="11.9"/>
      <path d="M337.9,182.5c-.1.7-.3,1.2-.8,1.6-.5.4-1.1.6-1.8.6-.8,0-1.5-.3-1.9-.8-.5-.6-.7-1.3-.7-2.3v-.3c0-.6.1-1.2.3-1.6s.5-.8.9-1.1.9-.4,1.4-.4c.7,0,1.3.2,1.8.6s.7,1,.8,1.7h-1.3c0-.4-.1-.7-.3-.9s-.5-.3-.9-.3-.8.2-1,.5-.3.8-.3,1.5v.5c0,.7.1,1.2.3,1.5s.5.5,1,.5c.4,0,.7-.1.9-.3.2-.2.3-.5.3-.9h1.3v-.1Z"/>
      <path d="M338.3,182.3c0-.5.1-.9.3-1.3s.4-.7.8-.9c.3-.2.7-.3,1.2-.3.6,0,1.2.2,1.6.6.4.4.6.9.7,1.6v.3c0,.7-.2,1.3-.6,1.8-.4.4-1,.7-1.6.7s-1.2-.2-1.6-.7-.8-1-.8-1.8h0ZM339.6,182.3c0,.5.1.8.3,1,.2.2.4.4.7.4s.5-.1.7-.4c.2-.2.3-.6.3-1.1,0-.4-.1-.8-.3-1-.2-.2-.4-.4-.7-.4s-.6.1-.7.4c-.3.3-.3.6-.3,1.1Z"/>
      <path d="M343.2,182.3c0-.7.2-1.3.5-1.8.3-.4.8-.7,1.4-.7.5,0,.8.2,1.1.5v-2.4h1.3v6.8h-1.1l-.1-.5c-.3.4-.7.6-1.2.6-.6,0-1-.2-1.3-.7s-.6-1-.6-1.8ZM344.5,182.4c0,.4.1.8.2,1,.2.2.4.4.7.4.4,0,.7-.2.8-.5v-1.9c-.2-.3-.4-.5-.8-.5-.6,0-.9.5-.9,1.5Z"/>
      <path d="M348.3,178.7c0-.2.1-.3.2-.5.1-.1.3-.2.5-.2s.4.1.5.2.2.3.2.5-.1.4-.2.5-.3.2-.5.2-.4-.1-.5-.2c-.2-.2-.2-.3-.2-.5ZM349.6,184.7h-1.3v-4.8h1.3v4.8Z"/>
      <path d="M351.7,179.9v.5c.3-.4.8-.6,1.4-.6.5,0,.9.1,1.1.4s.4.7.4,1.3v3.1h-1.3v-3c0-.3-.1-.5-.2-.6s-.3-.2-.6-.2c-.4,0-.6.2-.8.5v3.4h-1.3v-4.8h1.3Z"/>
      <path d="M355.2,182.3c0-.7.2-1.3.5-1.8s.8-.7,1.4-.7c.5,0,.9.2,1.2.5l.1-.4h1.2v4.6c0,.4-.1.8-.3,1.1-.2.3-.5.5-.8.7s-.7.2-1.2.2c-.3,0-.7-.1-1-.2-.3-.1-.6-.3-.8-.5l.6-.8c.3.4.7.5,1.2.5.3,0,.6-.1.8-.3.2-.2.3-.4.3-.8v-.1c-.3.3-.7.5-1.2.5-.6,0-1-.2-1.4-.7-.5-.4-.6-1-.6-1.8h0ZM356.4,182.4c0,.4.1.8.3,1,.2.2.4.4.7.4.4,0,.7-.1.8-.4v-2c-.2-.3-.4-.4-.8-.4-.3,0-.5.1-.7.4-.2.1-.3.5-.3,1Z"/>
    </g>
    <g>
      <rect class="cls-1" x="299.3" y="201.8" width="93.8" height="11.9"/>
      <path d="M330.7,208.5v-6.4h2.2c.8,0,1.4.1,1.8.4.4.3.6.7.6,1.3,0,.3-.1.6-.2.8-.2.2-.4.4-.7.5.3.1.6.2.8.5.2.2.3.6.3.9,0,.6-.2,1.1-.6,1.4s-1,.5-1.7.5h-2.5v.1ZM332.1,204.8h1c.7,0,1-.3,1-.8,0-.3-.1-.5-.3-.6-.2-.1-.4-.2-.8-.2h-.9v1.6h0ZM332.1,205.8v1.7h1.1c.3,0,.6-.1.7-.2.2-.1.3-.4.3-.6,0-.6-.3-.9-.9-.9h-1.2Z"/>
      <path d="M339.1,208.1c-.3.4-.7.6-1.3.6-.5,0-.9-.1-1.2-.4-.3-.3-.4-.7-.4-1.3v-3.1h1.3v3.1c0,.5.2.7.7.7.4,0,.7-.1.9-.4v-3.4h1.3v4.8h-1.2l-.1-.6Z"/>
      <path d="M341.1,202.6c0-.2.1-.3.2-.5.1-.1.3-.2.5-.2s.4.1.5.2.2.3.2.5-.1.4-.2.5-.3.2-.5.2-.4-.1-.5-.2c-.2-.2-.2-.4-.2-.5ZM342.4,208.5h-1.3v-4.8h1.3v4.8Z"/>
      <path d="M344.6,208.5h-1.3v-6.8h1.3v6.8Z"/>
      <path d="M345.3,206.1c0-.7.2-1.3.5-1.8.3-.4.8-.7,1.4-.7.5,0,.8.2,1.1.5v-2.4h1.3v6.8h-1.1l-.1-.5c-.3.4-.7.6-1.2.6-.6,0-1-.2-1.3-.7-.4-.4-.6-1-.6-1.8ZM346.6,206.2c0,.4.1.8.2,1,.2.2.4.4.7.4.4,0,.7-.2.8-.5v-1.9c-.2-.3-.4-.5-.8-.5-.6,0-.9.5-.9,1.5Z"/>
      <path d="M350.4,202.6c0-.2.1-.3.2-.5s.3-.2.5-.2.4.1.5.2.2.3.2.5-.1.4-.2.5-.3.2-.5.2-.4-.1-.5-.2-.2-.4-.2-.5ZM351.7,208.5h-1.3v-4.8h1.3v4.8Z"/>
      <path d="M353.8,203.8v.5c.3-.4.8-.6,1.4-.6.5,0,.9.1,1.1.4s.4.7.4,1.3v3.1h-1.3v-3c0-.3-.1-.5-.2-.6s-.3-.2-.6-.2c-.4,0-.6.2-.8.5v3.4h-1.3v-4.8h1.3Z"/>
      <path d="M357.3,206.1c0-.7.2-1.3.5-1.8s.8-.7,1.4-.7c.5,0,.9.2,1.2.5l.1-.4h1.2v4.6c0,.4-.1.8-.3,1.1-.2.3-.5.5-.8.7s-.7.2-1.2.2c-.3,0-.7-.1-1-.2-.3-.1-.6-.3-.8-.5l.6-.8c.3.4.7.5,1.2.5.3,0,.6-.1.8-.3.2-.2.3-.4.3-.8v-.3c-.3.3-.7.5-1.2.5-.6,0-1-.2-1.4-.7-.5-.2-.6-.8-.6-1.6h0ZM358.5,206.2c0,.4.1.8.3,1,.2.2.4.4.7.4.4,0,.7-.1.8-.4v-2c-.2-.3-.4-.4-.8-.4-.3,0-.5.1-.7.4-.2.2-.3.5-.3,1Z"/>
    </g>
    <g>
      <rect class="cls-1" x="299.3" y="236.9" width="93.8" height="11.9"/>
      <path d="M325.6,243.7v-6.4h2c.6,0,1.1.1,1.5.4.4.3.8.6,1,1.1s.4,1,.4,1.6v.3c0,.6-.1,1.1-.4,1.6-.2.5-.6.8-1,1.1s-.9.4-1.5.4h-2v-.1ZM326.9,238.3v4.3h.6c.5,0,.9-.2,1.2-.5s.4-.8.4-1.4v-.4c0-.7-.1-1.1-.4-1.5-.3-.3-.7-.5-1.2-.5h-.6Z"/>
      <path d="M333.4,243.8c-.7,0-1.3-.2-1.7-.6-.4-.4-.7-1-.7-1.7v-.2c0-.5.1-.9.3-1.3.2-.4.4-.7.8-.9.3-.2.7-.3,1.2-.3.7,0,1.2.2,1.5.6.4.4.6,1,.6,1.7v.5h-3c0,.3.2.6.4.7.2.2.5.3.8.3.5,0,.9-.2,1.1-.5l.6.7c-.2.3-.4.5-.8.6-.4.3-.7.4-1.1.4ZM333.2,239.9c-.3,0-.5.1-.6.3-.2.2-.3.4-.3.7h1.8v-.1c0-.3-.1-.5-.2-.7-.2-.2-.4-.2-.7-.2Z"/>
      <path d="M340.2,241.3c0,.8-.2,1.4-.5,1.8-.3.4-.8.6-1.4.6-.5,0-.9-.2-1.2-.6l-.1.5h-1.1v-6.8h1.3v2.4c.3-.3.7-.5,1.2-.5.6,0,1,.2,1.4.6.2.6.4,1.2.4,2h0ZM338.9,241.3c0-.5-.1-.8-.2-1.1-.2-.2-.4-.3-.7-.3-.4,0-.7.2-.8.5v1.9c.2.3.4.5.8.5s.7-.2.8-.6c.1-.3.1-.5.1-.9Z"/>
      <path d="M343.6,243.2c-.3.4-.7.6-1.3.6-.5,0-.9-.1-1.2-.4-.3-.3-.4-.7-.4-1.3v-3.1h1.3v3.1c0,.5.2.7.7.7.4,0,.7-.1.9-.4v-3.4h1.3v4.8h-1.2l-.1-.6Z"/>
      <path d="M345.4,241.3c0-.7.2-1.3.5-1.8.3-.4.8-.7,1.4-.7.5,0,.9.2,1.2.5l.1-.4h1.2v4.6c0,.4-.1.8-.3,1.1-.2.3-.5.5-.8.7s-.7.2-1.2.2c-.3,0-.7-.1-1-.2-.3-.1-.6-.3-.8-.5l.6-.8c.3.4.7.5,1.2.5.3,0,.6-.1.8-.3.2-.2.3-.4.3-.8v-.1c-.3.3-.7.5-1.2.5-.6,0-1-.2-1.4-.7-.4-.4-.6-1-.6-1.8h0ZM346.7,241.4c0,.4.1.8.3,1s.4.4.7.4c.4,0,.7-.1.8-.4v-2c-.2-.3-.4-.4-.8-.4-.3,0-.5.1-.7.4-.2.1-.3.5-.3,1Z"/>
      <path d="M350.4,241.3c0-.7.2-1.3.5-1.8.3-.4.8-.7,1.4-.7.5,0,.9.2,1.2.5l.1-.4h1.2v4.6c0,.4-.1.8-.3,1.1-.2.3-.5.5-.8.7s-.7.2-1.2.2c-.3,0-.7-.1-1-.2-.3-.1-.6-.3-.8-.5l.6-.8c.3.4.7.5,1.2.5.3,0,.6-.1.8-.3.2-.2.3-.4.3-.8v-.1c-.3.3-.7.5-1.2.5-.6,0-1-.2-1.4-.7-.4-.4-.6-1-.6-1.8h0ZM351.7,241.4c0,.4.1.8.3,1s.4.4.7.4c.4,0,.7-.1.8-.4v-2c-.2-.3-.4-.4-.8-.4-.3,0-.5.1-.7.4-.3.1-.3.5-.3,1Z"/>
      <path d="M355.5,237.7c0-.2.1-.3.2-.5.1-.1.3-.2.5-.2s.4.1.5.2.2.3.2.5-.1.4-.2.5-.3.2-.5.2-.4-.1-.5-.2c-.1-.2-.2-.3-.2-.5ZM356.9,243.7h-1.3v-4.8h1.3v4.8Z"/>
      <path d="M358.9,238.9v.5c.3-.4.8-.6,1.4-.6.5,0,.9.1,1.1.4s.4.7.4,1.3v3.1h-1.3v-3c0-.3-.1-.5-.2-.6s-.3-.2-.6-.2c-.4,0-.6.2-.8.5v3.4h-1.3v-4.8h1.3Z"/>
      <path d="M362.4,241.3c0-.7.2-1.3.5-1.8.3-.4.8-.7,1.4-.7.5,0,.9.2,1.2.5l.1-.4h1.2v4.6c0,.4-.1.8-.3,1.1-.2.3-.5.5-.8.7s-.7.2-1.2.2c-.3,0-.7-.1-1-.2-.3-.1-.6-.3-.8-.5l.6-.8c.3.4.7.5,1.2.5.3,0,.6-.1.8-.3.2-.2.3-.4.3-.8v-.1c-.3.3-.7.5-1.2.5-.6,0-1-.2-1.4-.7-.4-.4-.6-1-.6-1.8h0ZM363.7,241.4c0,.4.1.8.3,1s.4.4.7.4c.4,0,.7-.1.8-.4v-2c-.2-.3-.4-.4-.8-.4-.3,0-.5.1-.7.4-.2.1-.3.5-.3,1Z"/>
    </g>
    <g>
      <rect class="cls-1" x="299.3" y="258.8" width="93.8" height="11.9"/>
      <path d="M336.8,260.2h-2v5.3h-1.3v-5.3h-1.9v-1.1h5.2v1.1h0Z"/>
      <path d="M339.7,262h-.5c-.5,0-.8.2-.9.5v3.1h-1.3v-4.8h1.2v.6c.3-.4.6-.7,1.1-.7.1,0,.3,0,.4.1v1.2Z"/>
      <path d="M342.7,265.5c-.1-.1-.1-.3-.1-.4-.3.3-.7.5-1.2.5s-.9-.1-1.2-.4c-.3-.3-.5-.6-.5-1,0-.5.2-.9.6-1.2.4-.3.9-.4,1.6-.4h.6v-.3c0-.2-.1-.4-.2-.5s-.3-.2-.5-.2-.4.1-.5.2-.2.2-.2.4h-1.3c0-.3.1-.5.3-.8s.4-.4.7-.6c.3-.1.7-.2,1-.2.6,0,1.1.1,1.4.4.3.3.5.7.5,1.2v2.1c0,.5.1.8.2,1v.1h-1.2v.1ZM341.7,264.7c.2,0,.4,0,.5-.1.2-.1.3-.2.4-.3v-.8h-.5c-.6,0-1,.2-1,.7v.1c0,.2.1.3.2.4,0-.1.2,0,.4,0Z"/>
      <path d="M346.6,264.6c.2,0,.4-.1.6-.2.1-.1.2-.3.2-.5h1.2c0,.3-.1.6-.3.9-.2.3-.4.5-.7.6-.3.1-.6.2-1,.2-.7,0-1.2-.2-1.6-.6s-.6-1-.6-1.8v-.1c0-.7.2-1.3.6-1.8.4-.4.9-.7,1.6-.7.6,0,1.1.2,1.4.5.4.3.5.8.5,1.4h-1.2c0-.2-.1-.4-.2-.6s-.3-.2-.6-.2-.5.1-.7.3c-.2.2-.2.6-.2,1v.1c0,.5.1.8.2,1.1.3.3.5.4.8.4Z"/>
      <path d="M349.1,259.6c0-.2.1-.3.2-.5.1-.1.3-.2.5-.2s.4.1.5.2.2.3.2.5-.1.4-.2.5-.3.2-.5.2-.4-.1-.5-.2c-.1-.2-.2-.4-.2-.5ZM350.5,265.5h-1.3v-4.8h1.3v4.8Z"/>
      <path d="M352.5,260.8v.5c.3-.4.8-.6,1.4-.6.5,0,.9.1,1.1.4s.4.7.4,1.3v3.1h-1.3v-3c0-.3-.1-.5-.2-.6s-.3-.2-.6-.2c-.4,0-.6.2-.8.5v3.4h-1.3v-4.8h1.3Z"/>
      <path d="M356,263.1c0-.7.2-1.3.5-1.8.3-.4.8-.7,1.4-.7.5,0,.9.2,1.2.5l.1-.4h1.2v4.6c0,.4-.1.8-.3,1.1-.2.3-.5.5-.8.7s-.7.2-1.2.2c-.3,0-.7-.1-1-.2s-.6-.3-.8-.5l.6-.8c.3.4.7.5,1.2.5.3,0,.6-.1.8-.3s.3-.4.3-.8v-.3c-.3.3-.7.5-1.2.5-.6,0-1-.2-1.4-.7-.4-.2-.6-.8-.6-1.6h0ZM357.3,263.2c0,.4.1.8.3,1s.4.4.7.4c.4,0,.7-.1.8-.4v-2c-.2-.3-.4-.4-.8-.4-.3,0-.5.1-.7.4-.2.2-.3.5-.3,1Z"/>
    </g>
    <g>
      <rect class="cls-1" x="299.3" y="280.4" width="93.8" height="11.9"/>
      <path d="M336.7,281.8h-2v5.3h-1.3v-5.3h-1.9v-1.1h5.2v1.1h0Z"/>
      <path d="M339.4,287.2c-.7,0-1.3-.2-1.7-.6-.4-.4-.7-1-.7-1.7v-.1c0-.5.1-.9.3-1.3.2-.4.4-.7.8-.9.3-.2.7-.3,1.2-.3.7,0,1.2.2,1.5.6.4.4.6,1,.6,1.7v.5h-3c0,.3.2.6.4.7.2.2.5.3.8.3.5,0,.9-.2,1.1-.5l.6.7c-.2.3-.4.5-.8.6-.3.2-.7.3-1.1.3ZM339.3,283.3c-.3,0-.5.1-.6.3-.2.2-.3.4-.3.7h1.8v-.1c0-.3-.1-.5-.2-.7-.3-.1-.5-.2-.7-.2Z"/>
      <path d="M344.5,285.8c0-.2-.1-.3-.2-.4-.2-.1-.4-.2-.7-.2-1.1-.2-1.7-.7-1.7-1.4,0-.4.2-.8.5-1.1.3-.3.8-.4,1.4-.4s1.1.1,1.4.4c.4.3.5.7.5,1.1h-1.3c0-.2-.1-.3-.2-.5-.1-.1-.3-.2-.5-.2s-.4,0-.5.1-.2.2-.2.4c0,.1.1.3.2.3.1.1.4.2.7.2.3.1.6.1.8.2.7.2,1,.7,1,1.3,0,.4-.2.8-.6,1.1-.4.3-.9.4-1.4.4-.4,0-.8-.1-1.1-.2-.3-.1-.6-.3-.7-.6-.2-.2-.3-.5-.3-.8h1.2c0,.2.1.4.3.5.2.1.4.2.6.2s.4,0,.6-.1c.1,0,.2-.1.2-.3Z"/>
      <path d="M347.9,281.2v1.2h.8v.9h-.8v2.4c0,.2,0,.3.1.4s.2.1.4.1h.4v1c-.2.1-.5.1-.8.1-.9,0-1.3-.5-1.4-1.3v-2.7h-.7v-.9h.7v-1.2h1.3Z"/>
      <path d="M349.2,281.1c0-.2.1-.3.2-.5.1-.1.3-.2.5-.2s.4.1.5.2.2.3.2.5-.1.4-.2.5-.3.2-.5.2-.4-.1-.5-.2c-.1-.1-.2-.3-.2-.5ZM350.6,287.1h-1.3v-4.8h1.3v4.8Z"/>
      <path d="M352.6,282.4v.5c.3-.4.8-.6,1.4-.6.5,0,.9.1,1.1.4s.4.7.4,1.3v3.1h-1.3v-3c0-.3-.1-.5-.2-.6s-.3-.2-.6-.2c-.4,0-.6.2-.8.5v3.4h-1.3v-4.8h1.3Z"/>
      <path d="M356.1,284.7c0-.7.2-1.3.5-1.8.3-.4.8-.7,1.4-.7.5,0,.9.2,1.2.5l.1-.4h1.2v4.6c0,.4-.1.8-.3,1.1-.2.3-.5.5-.8.7s-.7.2-1.2.2c-.3,0-.7-.1-1-.2s-.6-.3-.8-.5l.6-.8c.3.4.7.5,1.2.5.3,0,.6-.1.8-.3s.3-.4.3-.8v-.3c-.3.3-.7.5-1.2.5-.6,0-1-.2-1.4-.7-.4-.2-.6-.8-.6-1.6h0ZM357.4,284.8c0,.4.1.8.3,1s.4.4.7.4c.4,0,.7-.1.8-.4v-2c-.2-.3-.4-.4-.8-.4-.3,0-.5.1-.7.4-.2.1-.3.5-.3,1Z"/>
    </g>
    <g>
      <rect class="cls-1" x="166.6" y="40.1" width="107.8" height="11.9"/>
      <path d="M185.1,44.6v2.3h-1.3v-6.4h2.5c.5,0,.9.1,1.3.3.4.2.6.4.8.7s.3.7.3,1.1c0,.6-.2,1.1-.6,1.5-.4.4-1,.5-1.8.5,0,0-1.2,0-1.2,0ZM185.1,43.5h1.2c.3,0,.6-.1.8-.2.2-.2.3-.4.3-.7s-.1-.6-.3-.8-.4-.3-.8-.3h-1.2v2Z"/>
      <path d="M192,43.3h-.5c-.5,0-.8.2-.9.5v3.1h-1.3v-4.8h1.2v.6c.3-.4.6-.7,1.1-.7.1,0,.3,0,.4.1v1.2Z"/>
      <path d="M192.1,44.4c0-.5.1-.9.3-1.3s.4-.7.8-.9c.3-.2.7-.3,1.2-.3.6,0,1.2.2,1.6.6.4.4.6.9.7,1.6v.3c0,.7-.2,1.3-.6,1.8-.4.4-1,.7-1.6.7s-1.2-.2-1.6-.7-.8-1-.8-1.8h0ZM193.3,44.5c0,.5.1.8.3,1s.4.4.7.4.5-.1.7-.4c.2-.2.3-.6.3-1.1,0-.4-.1-.8-.3-1s-.4-.4-.7-.4-.6.1-.7.4c-.2.2-.3.6-.3,1.1Z"/>
      <path d="M201.5,44.5c0,.8-.2,1.4-.5,1.8-.3.4-.8.6-1.4.6-.5,0-.9-.2-1.2-.6l-.1.5h-1.1v-6.8h1.3v2.4c.3-.3.7-.5,1.2-.5.6,0,1,.2,1.4.6.2.6.4,1.2.4,2h0ZM200.2,44.4c0-.5-.1-.8-.2-1.1-.2-.2-.4-.3-.7-.3-.4,0-.7.2-.8.5v1.9c.2.3.4.5.8.5s.7-.2.8-.6c.1-.2.1-.5.1-.9Z"/>
      <path d="M203.4,46.9h-1.3v-6.8h1.3v6.8Z"/>
      <path d="M206.5,46.9c-.7,0-1.3-.2-1.7-.6-.4-.4-.7-1-.7-1.7v-.1c0-.5.1-.9.3-1.3.2-.4.4-.7.8-.9.3-.2.7-.3,1.2-.3.7,0,1.2.2,1.5.6s.6,1,.6,1.7v.5h-3c0,.3.2.6.4.7.2.2.5.3.8.3.5,0,.9-.2,1.1-.5l.6.7c-.2.3-.4.5-.8.6-.4.3-.7.3-1.1.3ZM206.3,43c-.3,0-.5.1-.6.3-.2.2-.3.4-.3.7h1.8v-.1c0-.3-.1-.5-.2-.7-.2-.1-.4-.2-.7-.2Z"/>
      <path d="M210.1,42.1v.5c.3-.4.8-.6,1.4-.6s1,.2,1.3.7c.3-.5.8-.7,1.4-.7.5,0,.9.2,1.2.5s.4.8.4,1.4v3h-1.3v-3c0-.3-.1-.5-.2-.6s-.3-.2-.6-.2c-.4,0-.6.2-.8.5v3.3h-1.3v-3c0-.3-.1-.5-.2-.6-.1-.1-.3-.2-.6-.2-.4,0-.6.1-.8.4v3.4h-1v-4.8s1.1,0,1.1,0Z"/>
      <path d="M221.2,45.5c0-.2-.1-.3-.2-.4-.2-.1-.4-.2-.7-.2-1.1-.2-1.7-.7-1.7-1.4,0-.4.2-.8.5-1.1s.8-.4,1.4-.4,1.1.1,1.4.4.5.7.5,1.1h-1.3c0-.2-.1-.3-.2-.5-.1-.1-.3-.2-.6-.2-.2,0-.4,0-.5.1s-.2.2-.2.4c0,.1.1.3.2.3.1.1.4.2.7.2s.6.1.8.2c.7.2,1,.7,1,1.3,0,.4-.2.8-.6,1.1-.4.3-.9.4-1.4.4-.4,0-.8-.1-1.1-.2-.3-.1-.6-.3-.7-.6-.2-.2-.3-.5-.3-.8h1.2c0,.2.1.4.2.5.2.1.4.2.6.2s.4,0,.6-.1c.3,0,.4-.1.4-.3Z"/>
      <path d="M224.6,40.9v1.2h.8v.9h-.8v2.4c0,.2,0,.3.1.4.1.1.2.1.4.1h.4v1c-.2.1-.5.1-.8.1-.9,0-1.3-.4-1.4-1.3v-2.6h-.7v-.9h.7v-1.2h1.3v-.1Z"/>
      <path d="M228.7,46.9c-.1-.1-.1-.3-.1-.4-.3.3-.7.5-1.2.5s-.9-.1-1.2-.4-.5-.6-.5-1c0-.5.2-.9.6-1.2.4-.3.9-.4,1.6-.4h.6v-.3c0-.2-.1-.4-.2-.5-.1-.1-.3-.2-.5-.2s-.4.1-.5.2c-.1.1-.2.2-.2.4h-1.3c0-.3.1-.5.3-.8s.4-.4.7-.6.7-.2,1-.2c.6,0,1.1.1,1.4.4.3.3.5.7.5,1.2v2.1c0,.5.1.8.2,1v.1h-1.2v.1ZM227.6,46c.2,0,.4,0,.5-.1.2-.1.3-.2.4-.3v-.8h-.5c-.6,0-1,.2-1,.7v.1c0,.2.1.3.2.4.1-.1.3,0,.4,0Z"/>
      <path d="M232.1,40.9v1.2h.8v.9h-.8v2.4c0,.2,0,.3.1.4.1.1.2.1.4.1h.4v1c-.2.1-.5.1-.8.1-.9,0-1.3-.4-1.4-1.3v-2.6h-.7v-.9h.7v-1.2h1.3v-.1Z"/>
      <path d="M235.6,46.9c-.7,0-1.3-.2-1.7-.6s-.7-1-.7-1.7v-.1c0-.5.1-.9.3-1.3.2-.4.4-.7.8-.9s.7-.3,1.2-.3c.7,0,1.2.2,1.5.6.4.4.6,1,.6,1.7v.5h-3c0,.3.2.6.4.7s.5.3.8.3c.5,0,.9-.2,1.1-.5l.6.7c-.2.3-.4.5-.8.6-.3.3-.7.3-1.1.3ZM235.5,43c-.3,0-.5.1-.6.3-.2.2-.3.4-.3.7h1.8v-.1c0-.3-.1-.5-.2-.7-.2-.1-.4-.2-.7-.2Z"/>
      <path d="M239.3,42.1v.5c.3-.4.8-.6,1.4-.6s1,.2,1.3.7c.3-.5.8-.7,1.4-.7.5,0,.9.2,1.2.5s.4.8.4,1.4v3h-1.3v-3c0-.3-.1-.5-.2-.6s-.3-.2-.6-.2c-.4,0-.6.2-.8.5v3.3h-1.3v-3c0-.3-.1-.5-.2-.6-.1-.1-.3-.2-.6-.2-.4,0-.6.1-.8.4v3.4h-1.3v-4.8s1.4,0,1.4,0Z"/>
      <path d="M247.9,46.9c-.7,0-1.3-.2-1.7-.6-.4-.4-.7-1-.7-1.7v-.1c0-.5.1-.9.3-1.3.2-.4.4-.7.8-.9.3-.2.7-.3,1.2-.3.7,0,1.2.2,1.5.6s.6,1,.6,1.7v.5h-3c0,.3.2.6.4.7.2.2.5.3.8.3.5,0,.9-.2,1.1-.5l.6.7c-.2.3-.4.5-.8.6-.3.3-.7.3-1.1.3ZM247.8,43c-.3,0-.5.1-.6.3-.2.2-.3.4-.3.7h1.8v-.1c0-.3-.1-.5-.2-.7-.2-.1-.4-.2-.7-.2Z"/>
      <path d="M251.6,42.1v.5c.3-.4.8-.6,1.4-.6.5,0,.9.1,1.1.4s.4.7.4,1.3v3.1h-1.3v-3c0-.3-.1-.5-.2-.6-.1-.1-.3-.2-.6-.2-.4,0-.6.2-.8.5v3.4h-1.3v-4.8s1.3,0,1.3,0Z"/>
      <path d="M256.8,40.9v1.2h.8v.9h-.8v2.4c0,.2,0,.3.1.4.1.1.2.1.4.1h.4v1c-.2.1-.5.1-.8.1-.9,0-1.3-.4-1.4-1.3v-2.6h-.7v-.9h.7v-1.2h1.3v-.1Z"/>
    </g>
    <g>
      <rect class="cls-1" x="166.6" y="63.2" width="107.8" height="11.9"/>
      <path d="M196.1,67.6h-1v2.3h-1.3v-6.4h2.4c.8,0,1.3.2,1.7.5s.6.8.6,1.4c0,.4-.1.8-.3,1.1s-.5.5-.9.7l1.4,2.6v.1h-1.4l-1.2-2.3ZM195.1,66.6h1.1c.3,0,.6-.1.8-.3s.3-.4.3-.7-.1-.5-.3-.7-.4-.3-.8-.3h-1.1v2Z"/>
      <path d="M201.4,70.1c-.7,0-1.3-.2-1.7-.6s-.7-1-.7-1.7v-.1c0-.5.1-.9.3-1.3.2-.4.4-.7.8-.9.3-.2.7-.3,1.2-.3.7,0,1.2.2,1.5.6s.6,1,.6,1.7v.5h-3c0,.3.2.6.4.7.2.2.5.3.8.3.5,0,.9-.2,1.1-.5l.6.7c-.2.3-.4.5-.8.6-.3.2-.7.3-1.1.3ZM201.3,66.2c-.3,0-.5.1-.6.3-.2.2-.3.4-.3.7h1.8v-.1c0-.3-.1-.5-.2-.7-.2-.2-.4-.2-.7-.2Z"/>
      <path d="M203.7,67.6c0-.7.2-1.3.5-1.8.3-.4.8-.7,1.4-.7.5,0,.9.2,1.2.6l.1-.5h1.1v6.6h-1.3v-2.2c-.3.3-.7.5-1.2.5-.6,0-1-.2-1.4-.7-.2-.4-.4-1.1-.4-1.8ZM205,67.6c0,.5.1.8.2,1s.4.4.7.4c.4,0,.7-.2.8-.5v-2c-.2-.3-.4-.4-.8-.4-.3,0-.5.1-.7.4-.1.2-.2.6-.2,1.1Z"/>
      <path d="M211.7,69.5c-.3.4-.7.6-1.3.6-.5,0-.9-.1-1.2-.4s-.4-.7-.4-1.3v-3.1h1.3v3c0,.5.2.7.7.7.4,0,.7-.1.9-.4v-3.4h1.3v4.8h-1.2l-.1-.5Z"/>
      <path d="M213.7,64c0-.2.1-.3.2-.5.1-.1.3-.2.5-.2s.4.1.5.2.2.3.2.5-.1.4-.2.5c-.1.1-.3.2-.5.2s-.4-.1-.5-.2c-.1-.2-.2-.3-.2-.5ZM215,70h-1.3v-4.8h1.3v4.8Z"/>
      <path d="M218.6,66.4h-.5c-.5,0-.8.2-.9.5v3.1h-1.3v-4.8h1.2v.6c.3-.4.6-.7,1.1-.7.1,0,.3,0,.4.1v1.2Z"/>
      <path d="M221.2,70.1c-.7,0-1.3-.2-1.7-.6s-.7-1-.7-1.7v-.1c0-.5.1-.9.3-1.3.2-.4.4-.7.8-.9.3-.2.7-.3,1.2-.3.7,0,1.2.2,1.5.6s.6,1,.6,1.7v.5h-3c0,.3.2.6.4.7.2.2.5.3.8.3.5,0,.9-.2,1.1-.5l.6.7c-.2.3-.4.5-.8.6-.3.2-.7.3-1.1.3ZM221,66.2c-.3,0-.5.1-.6.3-.2.2-.3.4-.3.7h1.8v-.1c0-.3-.1-.5-.2-.7-.2-.2-.4-.2-.7-.2Z"/>
      <path d="M224.9,65.2v.5c.3-.4.8-.6,1.4-.6s1,.2,1.3.7c.3-.5.8-.7,1.4-.7.5,0,.9.2,1.2.5s.4.8.4,1.4v3h-1.3v-3c0-.3-.1-.5-.2-.6s-.3-.2-.6-.2c-.4,0-.6.2-.8.5v3.3h-1.3v-3c0-.3-.1-.5-.2-.6-.1-.1-.3-.2-.6-.2-.4,0-.6.1-.8.4v3.4h-1.3v-4.8s1.4,0,1.4,0Z"/>
      <path d="M233.5,70.1c-.7,0-1.3-.2-1.7-.6s-.7-1-.7-1.7v-.1c0-.5.1-.9.3-1.3.2-.4.4-.7.8-.9s.7-.3,1.2-.3c.7,0,1.2.2,1.5.6.4.4.6,1,.6,1.7v.5h-3c0,.3.2.6.4.7s.5.3.8.3c.5,0,.9-.2,1.1-.5l.6.7c-.2.3-.4.5-.8.6-.4.2-.7.3-1.1.3ZM233.3,66.2c-.3,0-.5.1-.6.3-.2.2-.3.4-.3.7h1.8v-.1c0-.3-.1-.5-.2-.7-.2-.2-.4-.2-.7-.2Z"/>
      <path d="M237.2,65.2v.5c.3-.4.8-.6,1.4-.6.5,0,.9.1,1.1.4s.4.7.4,1.3v3.1h-1.3v-3c0-.3-.1-.5-.2-.6-.1-.1-.3-.2-.6-.2-.4,0-.6.2-.8.5v3.4h-1.2v-4.8s1.2,0,1.2,0Z"/>
      <path d="M242.4,64v1.2h.8v.9h-.8v2.4c0,.2,0,.3.1.4.1.1.2.1.4.1h.4v1c-.2.1-.5.1-.8.1-.9,0-1.3-.4-1.4-1.3v-2.6h-.7v-.9h.7v-1.2h1.3v-.1Z"/>
      <path d="M246.3,68.7c0-.2-.1-.3-.2-.4-.2-.1-.4-.2-.7-.2-1.1-.2-1.7-.7-1.7-1.4,0-.4.2-.8.5-1.1s.8-.4,1.4-.4,1.1.1,1.4.4.5.7.5,1.1h-1.3c0-.2-.1-.3-.2-.5-.1-.1-.3-.2-.6-.2-.2,0-.4,0-.5.1s-.2.2-.2.4c0,.1.1.3.2.3.1.1.4.2.7.2s.6.1.8.2c.7.2,1,.7,1,1.3,0,.4-.2.8-.6,1.1-.4.3-.9.4-1.4.4-.4,0-.8-.1-1.1-.2s-.6-.3-.7-.6c-.2-.2-.3-.5-.3-.8h1.2c0,.2.1.4.2.5.2.1.4.2.6.2s.4,0,.6-.1c.3-.1.4-.2.4-.3Z"/>
    </g>
    <g>
      <rect class="cls-1" x="166.6" y="243.4" width="107.8" height="11.9"/>
      <path d="M194.4,247.4h-2.5v1.7h3v1.1h-4.3v-6.4h4.3v1.1h-3v1.5h2.5v1Z"/>
      <path d="M198,246.6h-.5c-.5,0-.8.2-.9.5v3.1h-1.3v-4.8h1.2v.6c.3-.4.6-.7,1.1-.7.1,0,.3,0,.4.1v1.2Z"/>
      <path d="M201.1,246.6h-.5c-.5,0-.8.2-.9.5v3.1h-1.3v-4.8h1.2v.6c.3-.4.6-.7,1.1-.7.1,0,.3,0,.4.1v1.2Z"/>
      <path d="M201.2,247.8c0-.5.1-.9.3-1.3s.4-.7.8-.9c.3-.2.7-.3,1.2-.3.6,0,1.2.2,1.6.6s.6.9.7,1.6v.3c0,.7-.2,1.3-.6,1.8-.4.4-1,.7-1.6.7s-1.2-.2-1.6-.7-.8-1-.8-1.8h0ZM202.5,247.9c0,.5.1.8.3,1s.4.4.7.4.5-.1.7-.4c.2-.2.3-.6.3-1.1,0-.4-.1-.8-.3-1s-.4-.4-.7-.4-.6.1-.7.4-.3.5-.3,1.1Z"/>
      <path d="M209,246.6h-.5c-.5,0-.8.2-.9.5v3.1h-1.3v-4.8h1.2v.6c.3-.4.6-.7,1.1-.7.1,0,.3,0,.4.1v1.2Z"/>
      <path d="M212.7,245.4v.5c.3-.4.8-.6,1.4-.6s1,.2,1.3.7c.3-.5.8-.7,1.4-.7.5,0,.9.2,1.2.5s.4.8.4,1.4v3h-1.4v-3c0-.3-.1-.5-.2-.6-.1-.1-.3-.2-.6-.2-.4,0-.6.2-.8.5v3.3h-1.3v-3c0-.3-.1-.5-.2-.6-.1-.1-.3-.2-.6-.2-.4,0-.6.1-.8.4v3.4h-1.3v-4.8h1.5Z"/>
      <path d="M221.3,250.3c-.7,0-1.3-.2-1.7-.6-.4-.4-.7-1-.7-1.7v-.1c0-.5.1-.9.3-1.3.2-.4.4-.7.8-.9.3-.2.7-.3,1.2-.3.7,0,1.2.2,1.5.6s.6,1,.6,1.7v.5h-3c0,.3.2.6.4.7.2.2.5.3.8.3.5,0,.9-.2,1.1-.5l.6.7c-.2.3-.4.5-.8.6-.4.2-.7.3-1.1.3ZM221.1,246.4c-.3,0-.5.1-.6.3-.2.2-.3.4-.3.7h1.8v-.1c0-.3-.1-.5-.2-.7-.2-.2-.4-.2-.7-.2Z"/>
      <path d="M226.3,248.9c0-.2-.1-.3-.2-.4-.2-.1-.4-.2-.7-.2-1.1-.2-1.7-.7-1.7-1.4,0-.4.2-.8.5-1.1s.8-.4,1.4-.4,1.1.1,1.4.4c.4.3.5.7.5,1.1h-1.3c0-.2-.1-.3-.2-.5-.1-.1-.3-.2-.5-.2s-.4,0-.5.1-.2.2-.2.4c0,.1.1.3.2.3.1.1.4.2.7.2.3.1.6.1.8.2.7.2,1,.7,1,1.3,0,.4-.2.8-.6,1.1-.4.3-.9.4-1.4.4-.4,0-.8-.1-1.1-.2-.3-.1-.6-.3-.7-.6-.2-.2-.3-.5-.3-.8h1.2c0,.2.1.4.3.5s.4.2.6.2.4,0,.6-.1c.2-.1.2-.2.2-.3Z"/>
      <path d="M230.8,248.9c0-.2-.1-.3-.2-.4-.2-.1-.4-.2-.7-.2-1.1-.2-1.7-.7-1.7-1.4,0-.4.2-.8.5-1.1s.8-.4,1.4-.4,1.1.1,1.4.4c.4.3.5.7.5,1.1h-1.3c0-.2-.1-.3-.2-.5-.1-.1-.3-.2-.5-.2s-.4,0-.5.1-.2.2-.2.4c0,.1.1.3.2.3.1.1.4.2.7.2.3.1.6.1.8.2.7.2,1,.7,1,1.3,0,.4-.2.8-.6,1.1-.4.3-.9.4-1.4.4-.4,0-.8-.1-1.1-.2-.3-.1-.6-.3-.7-.6-.2-.2-.3-.5-.3-.8h1.2c0,.2.1.4.3.5s.4.2.6.2.4,0,.6-.1c.1-.1.2-.2.2-.3Z"/>
      <path d="M235.4,250.2c-.1-.1-.1-.3-.1-.4-.3.3-.7.5-1.2.5s-.9-.1-1.2-.4-.5-.6-.5-1c0-.5.2-.9.6-1.2.4-.3.9-.4,1.6-.4h.6v-.3c0-.2-.1-.4-.2-.5-.1-.1-.3-.2-.5-.2s-.4.1-.5.2c-.1.1-.2.2-.2.4h-1.3c0-.3.1-.5.3-.8s.4-.4.7-.6c.3-.1.7-.2,1-.2.6,0,1.1.1,1.4.4s.5.7.5,1.2v2.1c0,.5.1.8.2,1v.1h-1.2v.1ZM234.4,249.3c.2,0,.4,0,.5-.1.2-.1.3-.2.4-.3v-.8h-.5c-.6,0-1,.2-1,.7v.1c0,.2.1.3.2.4,0,0,.2,0,.4,0Z"/>
      <path d="M237.1,247.8c0-.7.2-1.3.5-1.8.3-.4.8-.7,1.4-.7.5,0,.9.2,1.2.5l.1-.4h1.2v4.6c0,.4-.1.8-.3,1.1s-.5.5-.8.7-.7.2-1.2.2c-.3,0-.7-.1-1-.2-.3-.1-.6-.3-.8-.5l.6-.8c.3.4.7.5,1.2.5.3,0,.6-.1.8-.3s.3-.4.3-.8v-.3c-.3.3-.7.5-1.2.5-.6,0-1-.2-1.4-.7-.4-.2-.6-.8-.6-1.6h0ZM238.4,247.9c0,.4.1.8.3,1s.4.4.7.4c.4,0,.7-.1.8-.4v-2c-.2-.3-.4-.4-.8-.4-.3,0-.5.1-.7.4-.2.1-.3.5-.3,1Z"/>
      <path d="M244.4,250.3c-.7,0-1.3-.2-1.7-.6-.4-.4-.7-1-.7-1.7v-.1c0-.5.1-.9.3-1.3.2-.4.4-.7.8-.9.3-.2.7-.3,1.2-.3.7,0,1.2.2,1.5.6s.6,1,.6,1.7v.5h-3c0,.3.2.6.4.7.2.2.5.3.8.3.5,0,.9-.2,1.1-.5l.6.7c-.2.3-.4.5-.8.6-.3.2-.7.3-1.1.3ZM244.3,246.4c-.3,0-.5.1-.6.3-.2.2-.3.4-.3.7h1.8v-.1c0-.3-.1-.5-.2-.7-.2-.2-.4-.2-.7-.2Z"/>
      <path d="M249.5,248.9c0-.2-.1-.3-.2-.4-.2-.1-.4-.2-.7-.2-1.1-.2-1.7-.7-1.7-1.4,0-.4.2-.8.5-1.1s.8-.4,1.4-.4,1.1.1,1.4.4.5.7.5,1.1h-1.3c0-.2-.1-.3-.2-.5-.1-.1-.3-.2-.6-.2-.2,0-.4,0-.5.1s-.2.2-.2.4c0,.1.1.3.2.3.1.1.4.2.7.2.3.1.6.1.8.2.7.2,1,.7,1,1.3,0,.4-.2.8-.6,1.1-.4.3-.9.4-1.4.4-.4,0-.8-.1-1.1-.2-.3-.1-.6-.3-.7-.6-.2-.2-.3-.5-.3-.8h1.2c0,.2.1.4.2.5.2.1.4.2.6.2s.4,0,.6-.1c.4-.1.4-.2.4-.3Z"/>
    </g>
    <g>
      <rect class="cls-1" x="166.6" y="274.6" width="107.8" height="11.9"/>
      <path d="M189.6,279v2.3h-1.3v-6.4h2.5c.5,0,.9.1,1.3.3s.6.4.8.7c.2.3.3.7.3,1.1,0,.6-.2,1.1-.6,1.5-.4.4-1,.5-1.8.5h-1.2ZM189.6,278h1.2c.3,0,.6-.1.8-.2s.3-.4.3-.7-.1-.6-.3-.8c-.2-.2-.4-.3-.8-.3h-1.2v2Z"/>
      <path d="M196.5,277.7h-.5c-.5,0-.8.2-.9.5v3.1h-1.3v-4.8h1.2v.6c.3-.4.6-.7,1.1-.7.1,0,.3,0,.4.1v1.2Z"/>
      <path d="M196.6,278.9c0-.5.1-.9.3-1.3s.4-.7.8-.9c.3-.2.7-.3,1.2-.3.6,0,1.2.2,1.6.6.4.4.6.9.7,1.6v.3c0,.7-.2,1.3-.6,1.8-.4.4-1,.7-1.6.7s-1.2-.2-1.6-.7-.8-1-.8-1.8h0ZM197.9,279c0,.5.1.8.3,1s.4.4.7.4.5-.1.7-.4c.2-.2.3-.6.3-1.1,0-.4-.1-.8-.3-1s-.4-.4-.7-.4-.6.1-.7.4-.3.6-.3,1.1Z"/>
      <path d="M201.5,278.9c0-.7.2-1.3.5-1.8s.8-.7,1.4-.7c.5,0,.9.2,1.2.5l.1-.4h1.2v4.6c0,.4-.1.8-.3,1.1-.2.3-.5.5-.8.7s-.7.2-1.2.2c-.3,0-.7-.1-1-.2s-.6-.3-.8-.5l.6-.8c.3.4.7.5,1.2.5.3,0,.6-.1.8-.3.2-.2.3-.4.3-.8v-.3c-.3.3-.7.5-1.2.5-.6,0-1-.2-1.4-.7-.4-.2-.6-.8-.6-1.6h0ZM202.8,279c0,.4.1.8.3,1s.4.4.7.4c.4,0,.7-.1.8-.4v-2c-.2-.3-.4-.4-.8-.4-.3,0-.5.1-.7.4-.2.1-.3.5-.3,1Z"/>
      <path d="M209.3,277.7h-.5c-.5,0-.8.2-.9.5v3.1h-1.3v-4.8h1.2v.6c.3-.4.6-.7,1.1-.7.1,0,.3,0,.4.1v1.2Z"/>
      <path d="M212.4,281.3c-.1-.1-.1-.3-.1-.4-.3.3-.7.5-1.2.5s-.9-.1-1.2-.4-.5-.6-.5-1c0-.5.2-.9.6-1.2.4-.3.9-.4,1.6-.4h.6v-.3c0-.2-.1-.4-.2-.5-.1-.1-.3-.2-.5-.2s-.4.1-.5.2-.2.2-.2.4h-1.3c0-.3.1-.5.3-.8s.4-.4.7-.6c.3-.1.7-.2,1-.2.6,0,1.1.1,1.4.4.3.3.5.7.5,1.2v2.1c0,.5.1.8.2,1v.1h-1.2v.1ZM211.3,280.4c.2,0,.4,0,.5-.1.2-.1.3-.2.4-.3v-.8h-.5c-.6,0-1,.2-1,.7v.1c0,.2.1.3.2.4.1,0,.2,0,.4,0Z"/>
      <path d="M215.5,276.5v.5c.3-.4.8-.6,1.4-.6s1,.2,1.3.7c.3-.5.8-.7,1.4-.7.5,0,.9.2,1.2.5s.4.8.4,1.4v3h-1.3v-3c0-.3-.1-.5-.2-.6-.1-.1-.3-.2-.6-.2-.4,0-.6.2-.8.5v3.3h-1.3v-3c0-.3-.1-.5-.2-.6-.1-.1-.3-.2-.6-.2-.4,0-.6.1-.8.4v3.4h-1.3v-4.8h1.4Z"/>
      <path d="M223.7,278.9c0-.5.1-.9.3-1.3s.4-.7.8-.9c.3-.2.7-.3,1.2-.3.6,0,1.2.2,1.6.6.4.4.6.9.7,1.6v.3c0,.7-.2,1.3-.6,1.8-.4.4-1,.7-1.6.7s-1.2-.2-1.6-.7-.8-1-.8-1.8h0ZM225,279c0,.5.1.8.3,1s.4.4.7.4.5-.1.7-.4c.2-.2.3-.6.3-1.1,0-.4-.1-.8-.3-1s-.4-.4-.7-.4-.6.1-.7.4-.3.6-.3,1.1Z"/>
      <path d="M231.7,280.8c-.3.4-.7.6-1.3.6-.5,0-.9-.1-1.2-.4s-.4-.7-.4-1.3v-3.1h1.3v3.1c0,.5.2.7.7.7.4,0,.7-.1.9-.4v-3.4h1.3v4.8h-1.2l-.1-.6Z"/>
      <path d="M235.2,275.4v1.2h.8v.9h-.8v2.4c0,.2,0,.3.1.4s.2.1.4.1h.4v1c-.2.1-.5.1-.8.1-.9,0-1.3-.5-1.4-1.3v-2.6h-.7v-.9h.7v-1.2h1.3v-.1Z"/>
      <path d="M240.9,279c0,.7-.2,1.3-.5,1.8-.3.4-.8.7-1.3.7s-.9-.2-1.2-.5v2.2h-1.3v-6.6h1.2v.5c.3-.4.7-.6,1.2-.6.6,0,1,.2,1.4.7.3.3.5.9.5,1.8h0ZM239.6,278.9c0-.4-.1-.8-.2-1s-.4-.4-.7-.4c-.4,0-.7.2-.8.5v1.9c.2.3.4.5.8.5.6,0,.9-.5.9-1.5Z"/>
      <path d="M244.3,280.8c-.3.4-.7.6-1.3.6-.5,0-.9-.1-1.2-.4s-.4-.7-.4-1.3v-3.1h1.3v3.1c0,.5.2.7.7.7.4,0,.7-.1.9-.4v-3.4h1.3v4.8h-1.2l-.1-.6Z"/>
      <path d="M247.8,275.4v1.2h.8v.9h-.8v2.4c0,.2,0,.3.1.4s.2.1.4.1h.4v1c-.2.1-.5.1-.8.1-.9,0-1.3-.5-1.4-1.3v-2.6h-.7v-.9h.7v-1.2h1.3v-.1Z"/>
      <path d="M251.8,280c0-.2-.1-.3-.2-.4-.2-.1-.4-.2-.7-.2-1.1-.2-1.7-.7-1.7-1.4,0-.4.2-.8.5-1.1.3-.3.8-.4,1.4-.4s1.1.1,1.4.4.5.7.5,1.1h-1.3c0-.2-.1-.3-.2-.5-.1-.1-.3-.2-.6-.2-.2,0-.4,0-.5.1s-.2.2-.2.4c0,.1.1.3.2.3.1.1.4.2.7.2.3.1.6.1.8.2.7.2,1,.7,1,1.3,0,.4-.2.8-.6,1.1-.4.3-.9.4-1.4.4-.4,0-.8-.1-1.1-.2s-.6-.3-.7-.6c-.2-.2-.3-.5-.3-.8h1.2c0,.2.1.4.2.5.2.1.4.2.6.2s.4,0,.6-.1c.3,0,.4-.2.4-.3Z"/>
    </g>
    <g>
      <rect class="cls-1" x="166.6" y="97.8" width="107.8" height="11.9"/>
      <path d="M203.1,103.2h-2.3l-.4,1.3h-1.4l2.4-6.4h1.2l2.4,6.4h-1.4l-.5-1.3ZM201.1,102.2h1.6l-.8-2.4-.8,2.4Z"/>
      <path d="M206.6,104.6h-1.3v-6.8h1.3v6.8Z"/>
      <path d="M207.3,102.1c0-.7.2-1.3.5-1.8.3-.4.8-.7,1.4-.7.5,0,.9.2,1.2.5l.1-.4h1.2v4.6c0,.4-.1.8-.3,1.1s-.5.5-.8.7-.7.2-1.2.2c-.3,0-.7-.1-1-.2s-.6-.3-.8-.5l.6-.8c.3.4.7.5,1.2.5.3,0,.6-.1.8-.3.2-.2.3-.4.3-.8v-.3c-.3.3-.7.5-1.2.5-.6,0-1-.2-1.4-.7s-.6-.8-.6-1.6h0ZM208.6,102.2c0,.4.1.8.3,1s.4.4.7.4c.4,0,.7-.1.8-.4v-2c-.2-.3-.4-.4-.8-.4-.3,0-.5.1-.7.4-.2.2-.3.5-.3,1Z"/>
      <path d="M212.2,102.1c0-.5.1-.9.3-1.3s.4-.7.8-.9c.3-.2.7-.3,1.2-.3.6,0,1.2.2,1.6.6.4.4.6.9.7,1.6v.3c0,.7-.2,1.3-.6,1.8-.4.4-1,.7-1.6.7s-1.2-.2-1.6-.7-.8-1-.8-1.8h0ZM213.5,102.2c0,.5.1.8.3,1s.4.4.7.4.5-.1.7-.4c.2-.2.3-.6.3-1.1,0-.4-.1-.8-.3-1s-.4-.4-.7-.4-.6.1-.7.4c-.2.2-.3.6-.3,1.1Z"/>
      <path d="M220,101h-.5c-.5,0-.8.2-.9.5v3.1h-1.3v-4.8h1.2v.6c.3-.4.6-.7,1.1-.7.1,0,.3,0,.4.1v1.2Z"/>
      <path d="M220.4,98.6c0-.2.1-.3.2-.5.1-.1.3-.2.5-.2s.4.1.5.2.2.3.2.5-.1.4-.2.5c-.1.1-.3.2-.5.2s-.4-.1-.5-.2c-.1-.2-.2-.3-.2-.5ZM221.8,104.6h-1.3v-4.8h1.3v4.8Z"/>
      <path d="M224.2,98.6v1.2h.8v.9h-.8v2.4c0,.2,0,.3.1.4s.2.1.4.1h.4v1c-.2.1-.5.1-.8.1-.9,0-1.3-.4-1.4-1.3v-2.6h-.7v-.9h.7v-1.2h1.3v-.1Z"/>
      <path d="M226.8,100.3c.3-.4.8-.6,1.3-.6,1,0,1.6.6,1.6,1.8v3h-1.3v-3c0-.3-.1-.5-.2-.6s-.3-.2-.6-.2c-.4,0-.6.1-.8.4v3.4h-1.3v-6.8h1.3v2.6Z"/>
      <path d="M231.6,99.8v.5c.3-.4.8-.6,1.4-.6s1,.2,1.3.7c.3-.5.8-.7,1.4-.7.5,0,.9.2,1.2.5s.4.8.4,1.4v3h-1.3v-3c0-.3-.1-.5-.2-.6s-.3-.2-.6-.2c-.4,0-.6.2-.8.5v3.3h-1.3v-3c0-.3-.1-.5-.2-.6-.1-.1-.3-.2-.6-.2-.4,0-.6.1-.8.4v3.4h-1.3v-4.8h1.4Z"/>
      <path d="M240.6,103.2c0-.2-.1-.3-.2-.4s-.4-.2-.7-.2c-1.1-.2-1.7-.7-1.7-1.4,0-.4.2-.8.5-1.1.3-.3.8-.4,1.4-.4s1.1.1,1.4.4c.4.3.5.7.5,1.1h-1.3c0-.2-.1-.3-.2-.5-.1-.1-.3-.2-.5-.2s-.4,0-.5.1-.2.2-.2.4c0,.1.1.3.2.3.1.1.4.2.7.2s.6.1.8.2c.7.2,1,.7,1,1.3,0,.4-.2.8-.6,1.1-.4.3-.9.4-1.4.4-.4,0-.8-.1-1.1-.2s-.6-.3-.7-.6c-.2-.2-.3-.5-.3-.8h1.2c0,.2.1.4.3.5s.4.2.6.2.4,0,.6-.1c.1,0,.2-.1.2-.3Z"/>
    </g>
    <g>
      <rect class="cls-1" x="166.6" y="119.7" width="107.8" height="11.9"/>
      <path d="M203.4,123.8h-2.5v2.6h-1.3v-6.4h4.2v1.1h-2.8v1.7h2.5v1h-.1Z"/>
      <path d="M205.5,126.4h-1.3v-6.8h1.3v6.8Z"/>
      <path d="M206.2,124c0-.5.1-.9.3-1.3s.4-.7.8-.9c.3-.2.7-.3,1.2-.3.6,0,1.2.2,1.6.6.4.4.6.9.7,1.6v.3c0,.7-.2,1.3-.6,1.8-.4.4-1,.7-1.6.7s-1.2-.2-1.6-.7-.8-1-.8-1.8h0ZM207.5,124.1c0,.5.1.8.3,1s.4.4.7.4.5-.1.7-.4c.2-.2.3-.6.3-1.1,0-.4-.1-.8-.3-1s-.4-.4-.7-.4-.6.1-.7.4c-.2.2-.3.6-.3,1.1Z"/>
      <path d="M215.5,124.7l.6-3h1.2l-1.2,4.8h-1.1l-.9-3-.9,3h-1.1l-1.2-4.8h1.2l.6,3,.9-3h.9l1,3Z"/>
      <path d="M219.7,125.5c.2,0,.4-.1.6-.2.1-.1.2-.3.2-.5h1.2c0,.3-.1.6-.3.9s-.4.5-.7.6-.6.2-1,.2c-.7,0-1.2-.2-1.6-.6-.4-.4-.6-1-.6-1.8v-.1c0-.7.2-1.3.6-1.8.4-.4.9-.7,1.6-.7.6,0,1.1.2,1.4.5.4.3.5.8.5,1.4h-1.2c0-.2-.1-.4-.2-.6-.1-.2-.3-.2-.6-.2s-.5.1-.7.3c-.2.2-.2.6-.2,1v.1c0,.5.1.8.2,1.1.3.3.5.4.8.4Z"/>
      <path d="M223.5,122.2c.3-.4.8-.6,1.3-.6,1,0,1.6.6,1.6,1.8v3h-1.3v-3c0-.3-.1-.5-.2-.6s-.3-.2-.6-.2c-.4,0-.6.1-.8.4v3.4h-1.3v-6.8h1.3v2.6Z"/>
      <path d="M229.9,126.4c-.1-.1-.1-.3-.1-.4-.3.3-.7.5-1.2.5s-.9-.1-1.2-.4-.5-.6-.5-1c0-.5.2-.9.6-1.2.4-.3.9-.4,1.6-.4h.6v-.3c0-.2-.1-.4-.2-.5-.1-.1-.3-.2-.5-.2s-.4.1-.5.2-.2.2-.2.4h-1.3c0-.3.1-.5.3-.8s.4-.4.7-.6.7-.2,1-.2c.6,0,1.1.1,1.4.4.3.3.5.7.5,1.2v2.1c0,.5.1.8.2,1v.1h-1.2v.1ZM228.8,125.5c.2,0,.4,0,.5-.1.2-.1.3-.2.4-.3v-.8h-.5c-.6,0-1,.2-1,.7v.1c0,.2.1.3.2.4h.4Z"/>
      <path d="M234.4,122.8h-.5c-.5,0-.8.2-.9.5v3.1h-1.3v-4.8h1.2v.6c.3-.4.6-.7,1.1-.7.1,0,.3,0,.4.1v1.2Z"/>
      <path d="M236.6,120.5v1.2h.8v.9h-.8v2.4c0,.2,0,.3.1.4s.2.1.4.1h.4v1c-.2.1-.5.1-.8.1-.9,0-1.3-.4-1.4-1.3v-2.6h-.7v-.9h.7v-1.2h1.3v-.1Z"/>
      <path d="M240.5,125.1c0-.2-.1-.3-.2-.4-.2-.1-.4-.2-.7-.2-1.1-.2-1.7-.7-1.7-1.4,0-.4.2-.8.5-1.1.3-.3.8-.4,1.4-.4s1.1.1,1.4.4.5.7.5,1.1h-1.3c0-.2-.1-.3-.2-.5-.1-.1-.3-.2-.6-.2-.2,0-.4,0-.5.1s-.2.2-.2.4c0,.1.1.3.2.3.1.1.4.2.7.2s.6.1.8.2c.7.2,1,.7,1,1.3,0,.4-.2.8-.6,1.1-.4.3-.9.4-1.4.4-.4,0-.8-.1-1.1-.2s-.6-.3-.7-.6c-.2-.2-.3-.5-.3-.8h1.2c0,.2.1.4.2.5.2.1.4.2.6.2s.4,0,.6-.1c.4,0,.4-.2.4-.3Z"/>
    </g>
    <g>
      <rect class="cls-1" x="166.6" y="141.5" width="107.8" height="11.9"/>
      <path d="M200.7,146.6c0-.2-.1-.4-.3-.6s-.5-.3-.9-.4-.8-.3-1.1-.4c-.7-.4-1.1-.9-1.1-1.6,0-.3.1-.7.3-.9.2-.3.5-.5.8-.6.4-.2.8-.2,1.2-.2.5,0,.9.1,1.2.2.4.2.6.4.8.7s.3.6.3,1h-1.3c0-.3-.1-.5-.3-.7s-.4-.2-.8-.2c-.3,0-.6.1-.8.2-.2.1-.3.3-.3.5s.1.4.3.5.5.3.9.4c.8.2,1.3.5,1.6.8s.5.8.5,1.2c0,.6-.2,1-.6,1.3-.4.3-1,.5-1.7.5-.5,0-.9-.1-1.3-.3-.4-.2-.7-.4-.9-.7s-.3-.7-.3-1.1h1.3c0,.7.4,1.1,1.3,1.1.3,0,.6-.1.7-.2.4-.1.5-.3.5-.5Z"/>
      <path d="M204.1,142.4v1.2h.8v.9h-.8v2.4c0,.2,0,.3.1.4.1.1.2.1.4.1h.4v1c-.2.1-.5.1-.8.1-.9,0-1.3-.4-1.4-1.3v-2.6h-.7v-.9h.7v-1.2h1.3v-.1Z"/>
      <path d="M205.1,145.9c0-.5.1-.9.3-1.3s.4-.7.8-.9.7-.3,1.2-.3c.6,0,1.2.2,1.6.6s.6.9.7,1.6v.3c0,.7-.2,1.3-.6,1.8-.4.4-1,.7-1.6.7s-1.2-.2-1.6-.7c-.5-.4-.8-1-.8-1.8h0ZM206.4,145.9c0,.5.1.8.3,1s.4.4.7.4.5-.1.7-.4c.2-.2.3-.6.3-1.1,0-.4-.1-.8-.3-1s-.4-.4-.7-.4-.6.1-.7.4c-.2.3-.3.6-.3,1.1Z"/>
      <path d="M212.9,144.7h-.5c-.5,0-.8.2-.9.5v3.1h-1.3v-4.8h1.2v.6c.3-.4.6-.7,1.1-.7.1,0,.3,0,.4.1v1.2Z"/>
      <path d="M215.1,146.5l.9-3h1.4l-1.9,5.5-.1.3c-.3.6-.8.9-1.4.9-.2,0-.4,0-.6-.1v-1h.2c.2,0,.4,0,.5-.1s.2-.2.3-.4l.2-.4-1.7-4.8h1.4l.8,3.1Z"/>
      <path d="M222,145.9c0,.8-.2,1.4-.5,1.8-.3.4-.8.6-1.4.6-.5,0-.9-.2-1.2-.6l-.1.5h-1.1v-6.8h1.3v2.4c.3-.3.7-.5,1.2-.5.6,0,1,.2,1.4.6.2.6.4,1.2.4,2h0ZM220.7,145.8c0-.5-.1-.8-.2-1.1-.2-.2-.4-.3-.7-.3-.4,0-.7.2-.8.5v1.9c.2.3.4.5.8.5s.7-.2.8-.6c.1-.2.1-.5.1-.9Z"/>
      <path d="M222.4,145.9c0-.5.1-.9.3-1.3s.4-.7.8-.9c.3-.2.7-.3,1.2-.3.6,0,1.2.2,1.6.6s.6.9.7,1.6v.3c0,.7-.2,1.3-.6,1.8-.4.4-1,.7-1.6.7s-1.2-.2-1.6-.7-.8-1-.8-1.8h0ZM223.7,145.9c0,.5.1.8.3,1s.4.4.7.4.5-.1.7-.4c.2-.2.3-.6.3-1.1,0-.4-.1-.8-.3-1s-.4-.4-.7-.4-.6.1-.7.4c-.3.3-.3.6-.3,1.1Z"/>
      <path d="M230.2,148.3c-.1-.1-.1-.3-.1-.4-.3.3-.7.5-1.2.5s-.9-.1-1.2-.4c-.3-.3-.5-.6-.5-1,0-.5.2-.9.6-1.2s.9-.4,1.6-.4h.6v-.3c0-.2-.1-.4-.2-.5s-.3-.2-.5-.2-.4.1-.5.2-.2.2-.2.4h-1.3c0-.3.1-.5.3-.8s.4-.4.7-.6.7-.2,1-.2c.6,0,1.1.1,1.4.4s.5.7.5,1.2v2.1c0,.5.1.8.2,1v.1h-1.2v.1ZM229.2,147.4c.2,0,.4,0,.5-.1.2-.1.3-.2.4-.3v-.8h-.5c-.6,0-1,.2-1,.7v.1c0,.2.1.3.2.4s.2,0,.4,0Z"/>
      <path d="M234.8,144.7h-.5c-.5,0-.8.2-.9.5v3.1h-1.3v-4.8h1.2v.6c.3-.4.6-.7,1.1-.7.1,0,.3,0,.4.1v1.2Z"/>
      <path d="M235,145.9c0-.7.2-1.3.5-1.8s.8-.7,1.4-.7c.5,0,.8.2,1.1.5v-2.4h1.3v6.8h-1.1l-.1-.5c-.3.4-.7.6-1.2.6-.6,0-1-.2-1.3-.7-.4-.4-.6-1.1-.6-1.8ZM236.3,146c0,.4.1.8.2,1,.2.2.4.4.7.4.4,0,.7-.2.8-.5v-1.9c-.2-.3-.4-.5-.8-.5-.6,0-.9.5-.9,1.5Z"/>
      <path d="M242.7,147c0-.2-.1-.3-.2-.4s-.4-.2-.7-.2c-1.1-.2-1.7-.7-1.7-1.4,0-.4.2-.8.5-1.1s.8-.4,1.4-.4,1.1.1,1.4.4c.4.3.5.7.5,1.1h-1.3c0-.2-.1-.3-.2-.5-.1-.1-.3-.2-.5-.2s-.4,0-.5.1-.2.2-.2.4c0,.1.1.3.2.3.1.1.4.2.7.2s.6.1.8.2c.7.2,1,.7,1,1.3,0,.4-.2.8-.6,1.1-.4.3-.9.4-1.4.4-.4,0-.8-.1-1.1-.2-.3-.1-.6-.3-.7-.6-.2-.2-.3-.5-.3-.8h1.2c0,.2.1.4.3.5s.4.2.6.2.4,0,.6-.1c.1-.1.2-.2.2-.3Z"/>
    </g>
    <g>
      <rect class="cls-1" x="166.6" y="201.9" width="107.5" height="11.9"/>
      <path d="M194.8,206.4v2.3h-1.3v-6.4h2.5c.5,0,.9.1,1.3.3.4.2.6.4.8.7s.3.7.3,1.1c0,.6-.2,1.1-.6,1.5-.4.4-1,.5-1.8.5h-1.2ZM194.8,205.3h1.2c.3,0,.6-.1.8-.2.2-.2.3-.4.3-.7s-.1-.6-.3-.8-.4-.3-.8-.3h-1.2v2Z"/>
      <path d="M201.7,205.1h-.5c-.5,0-.8.2-.9.5v3.1h-1.3v-4.8h1.2v.6c.3-.4.6-.7,1.1-.7.1,0,.3,0,.4.1v1.2Z"/>
      <path d="M201.8,206.2c0-.5.1-.9.3-1.3s.4-.7.8-.9c.3-.2.7-.3,1.2-.3.6,0,1.2.2,1.6.6s.6.9.7,1.6v.3c0,.7-.2,1.3-.6,1.8-.4.4-1,.7-1.6.7s-1.2-.2-1.6-.7-.8-1-.8-1.8h0ZM203.1,206.3c0,.5.1.8.3,1s.4.4.7.4.5-.1.7-.4c.2-.2.3-.6.3-1.1,0-.4-.1-.8-.3-1s-.4-.4-.7-.4-.6.1-.7.4c-.3.2-.3.6-.3,1.1Z"/>
      <path d="M206.7,206.2c0-.7.2-1.3.5-1.8s.8-.7,1.4-.7c.5,0,.9.2,1.2.5l.1-.4h1.2v4.6c0,.4-.1.8-.3,1.1s-.5.5-.8.7-.7.2-1.2.2c-.3,0-.7-.1-1-.2-.3-.1-.6-.3-.8-.5l.6-.8c.3.4.7.5,1.2.5.3,0,.6-.1.8-.3s.3-.4.3-.8v-.3c-.3.3-.7.5-1.2.5-.6,0-1-.2-1.4-.7-.4-.2-.6-.8-.6-1.6h0ZM208,206.3c0,.4.1.8.3,1s.4.4.7.4c.4,0,.7-.1.8-.4v-2c-.2-.3-.4-.4-.8-.4-.3,0-.5.1-.7.4-.2.2-.3.5-.3,1Z"/>
      <path d="M214.5,205.1h-.5c-.5,0-.8.2-.9.5v3.1h-1.3v-4.8h1.2v.6c.3-.4.6-.7,1.1-.7.1,0,.3,0,.4.1v1.2Z"/>
      <path d="M217.6,208.6c-.1-.1-.1-.3-.1-.4-.3.3-.7.5-1.2.5s-.9-.1-1.2-.4-.5-.6-.5-1c0-.5.2-.9.6-1.2.4-.3.9-.4,1.6-.4h.6v-.3c0-.2-.1-.4-.2-.5-.1-.1-.3-.2-.5-.2s-.4.1-.5.2c-.1.1-.2.2-.2.4h-1.3c0-.3.1-.5.3-.8s.4-.4.7-.6c.3-.1.7-.2,1-.2.6,0,1.1.1,1.4.4s.5.7.5,1.2v2.1c0,.5.1.8.2,1v.1h-1.2v.1ZM216.5,207.8c.2,0,.4,0,.5-.1.2-.1.3-.2.4-.3v-.8h-.5c-.6,0-1,.2-1,.7v.1c0,.2.1.3.2.4.1-.1.2,0,.4,0Z"/>
      <path d="M220.7,203.9v.5c.3-.4.8-.6,1.4-.6s1,.2,1.3.7c.3-.5.8-.7,1.4-.7.5,0,.9.2,1.2.5s.4.8.4,1.4v3h-1.4v-3c0-.3-.1-.5-.2-.6-.1-.1-.3-.2-.6-.2-.4,0-.6.2-.8.5v3.3h-1.3v-3c0-.3-.1-.5-.2-.6-.1-.1-.3-.2-.6-.2-.4,0-.6.1-.8.4v3.4h-1.3v-4.8h1.5Z"/>
      <path d="M231.1,207.7c.2,0,.4-.1.6-.2.1-.1.2-.3.2-.5h1.2c0,.3-.1.6-.3.9-.2.3-.4.5-.7.6s-.6.2-1,.2c-.7,0-1.2-.2-1.6-.6s-.6-1-.6-1.8v-.1c0-.7.2-1.3.6-1.8.4-.4.9-.7,1.6-.7.6,0,1.1.2,1.4.5.4.3.5.8.5,1.4h-1.2c0-.2-.1-.4-.2-.6-.1-.2-.3-.2-.6-.2s-.5.1-.7.3-.2.6-.2,1v.1c0,.5.1.8.2,1.1.3.3.5.4.8.4Z"/>
      <path d="M233.5,206.2c0-.5.1-.9.3-1.3s.4-.7.8-.9c.3-.2.7-.3,1.2-.3.6,0,1.2.2,1.6.6s.6.9.7,1.6v.3c0,.7-.2,1.3-.6,1.8-.4.4-1,.7-1.6.7s-1.2-.2-1.6-.7-.8-1-.8-1.8h0ZM234.7,206.3c0,.5.1.8.3,1s.4.4.7.4.5-.1.7-.4c.2-.2.3-.6.3-1.1,0-.4-.1-.8-.3-1s-.4-.4-.7-.4-.6.1-.7.4c-.2.2-.3.6-.3,1.1Z"/>
      <path d="M238.4,206.2c0-.7.2-1.3.5-1.8s.8-.7,1.4-.7c.5,0,.8.2,1.1.5v-2.4h1.3v6.8h-1.1l-.1-.5c-.3.4-.7.6-1.2.6-.6,0-1-.2-1.3-.7-.5-.4-.6-1-.6-1.8ZM239.6,206.3c0,.4.1.8.2,1,.2.2.4.4.7.4.4,0,.7-.2.8-.5v-1.9c-.2-.3-.4-.5-.8-.5-.5,0-.9.5-.9,1.5Z"/>
      <path d="M245.6,208.7c-.7,0-1.3-.2-1.7-.6-.4-.4-.7-1-.7-1.7v-.1c0-.5.1-.9.3-1.3.2-.4.4-.7.8-.9.3-.2.7-.3,1.2-.3.7,0,1.2.2,1.5.6s.6,1,.6,1.7v.5h-3c0,.3.2.6.4.7.2.2.5.3.8.3.5,0,.9-.2,1.1-.5l.6.7c-.2.3-.4.5-.8.6-.3.3-.7.3-1.1.3ZM245.5,204.8c-.3,0-.5.1-.6.3-.2.2-.3.4-.3.7h1.8v-.1c0-.3-.1-.5-.2-.7s-.4-.2-.7-.2Z"/>
    </g>
    <g>
      <rect class="cls-1" x="167.3" y="177.8" width="106.9" height="13"/>
      <path d="M172.8,182.2v2.2h-1.3v-6.3h2.4c.5,0,.9.1,1.2.3s.6.4.8.7.3.7.3,1.1c0,.6-.2,1.1-.6,1.5-.4.4-1,.5-1.7.5h-1.1ZM172.8,181.2h1.2c.3,0,.6-.1.8-.2.2-.2.3-.4.3-.7s-.1-.6-.3-.7c-.2-.2-.4-.3-.7-.3h-1.2v1.9h-.1Z"/>
      <path d="M179.5,180.9h-.4c-.5,0-.8.2-.9.5v3h-1.2v-4.6h1.2v.6c.2-.4.6-.6,1-.6.1,0,.3,0,.4.1l-.1,1Z"/>
      <path d="M179.6,182.1c0-.5.1-.9.3-1.2.2-.4.4-.6.8-.8.3-.2.7-.3,1.2-.3.6,0,1.1.2,1.5.6s.6.9.7,1.6v.3c0,.7-.2,1.3-.6,1.7-.4.4-.9.6-1.6.6s-1.2-.2-1.6-.6c-.5-.6-.7-1.2-.7-1.9h0ZM180.9,182.1c0,.4.1.8.2,1,.2.2.4.4.7.4s.5-.1.7-.3.3-.6.3-1.1c0-.4-.1-.8-.3-1s-.4-.4-.7-.4-.5.1-.7.4-.2.5-.2,1Z"/>
      <path d="M184.4,182.1c0-.7.2-1.3.5-1.7s.8-.7,1.4-.7c.5,0,.9.2,1.2.5l.1-.4h1.1v4.5c0,.4-.1.8-.3,1.1s-.4.5-.8.7c-.3.2-.7.2-1.2.2-.3,0-.7-.1-1-.2-.3-.1-.6-.3-.7-.5l.6-.8c.3.3.7.5,1.1.5.3,0,.6-.1.8-.3s.3-.4.3-.8v-.2c-.3.3-.7.5-1.1.5-.6,0-1-.2-1.4-.7s-.6-1-.6-1.7h0ZM185.7,182.2c0,.4.1.8.3,1s.4.4.7.4c.4,0,.6-.1.8-.4v-2c-.2-.3-.4-.4-.8-.4-.3,0-.5.1-.7.4-.3.1-.3.5-.3,1Z"/>
      <path d="M192.1,180.9h-.4c-.5,0-.8.2-.9.5v3h-1.2v-4.6h1.2v.6c.2-.4.6-.6,1-.6.1,0,.3,0,.4.1l-.1,1Z"/>
      <path d="M195,184.4c-.1-.1-.1-.3-.1-.4-.3.3-.7.5-1.2.5s-.8-.1-1.1-.4c-.3-.3-.4-.6-.4-1,0-.5.2-.9.5-1.1.4-.3.9-.4,1.6-.4h.6v-.3c0-.2-.1-.4-.2-.5-.1-.1-.3-.2-.5-.2s-.4,0-.5.2c-.1.1-.2.2-.2.4h-1.2c0-.3.1-.5.2-.7.2-.2.4-.4.7-.5s.6-.2,1-.2c.6,0,1,.1,1.4.4.3.3.5.7.5,1.2v2c0,.4.1.8.2,1v.1h-1.3v-.1ZM194,183.6c.2,0,.4,0,.5-.1.2-.1.3-.2.3-.3v-.9h-.5c-.6,0-1,.2-1,.6v.1c0,.2.1.3.2.4.2.1.3.2.5.2Z"/>
      <path d="M198.1,179.8v.5c.3-.4.8-.6,1.3-.6.6,0,1,.2,1.2.7.3-.5.8-.7,1.4-.7.5,0,.9.1,1.1.4.2.3.4.7.4,1.3v3h-1.2v-3c0-.3-.1-.5-.2-.6-.1-.1-.3-.2-.5-.2-.4,0-.6.2-.8.5v3.2h-1.2v-3c0-.3-.1-.5-.2-.6s-.3-.2-.5-.2c-.4,0-.6.1-.8.4v3.3h-1.2v-4.6h1.2v.2Z"/>
      <path d="M205.5,179.8v.5c.3-.4.8-.6,1.3-.6.6,0,1,.2,1.2.7.3-.5.8-.7,1.4-.7.5,0,.9.1,1.1.4.2.3.4.7.4,1.3v3h-1.2v-3c0-.3-.1-.5-.2-.6-.1-.1-.3-.2-.5-.2-.4,0-.6.2-.8.5v3.2h-1.2v-3c0-.3-.1-.5-.2-.6s-.3-.2-.5-.2c-.4,0-.6.1-.8.4v3.3h-1.2v-4.6h1.2v.2Z"/>
      <path d="M211.8,178.6c0-.2.1-.3.2-.5.1-.1.3-.2.5-.2s.4.1.5.2c.1.1.2.3.2.5s-.1.3-.2.5c-.1.1-.3.2-.5.2s-.4-.1-.5-.2c-.2-.2-.2-.3-.2-.5ZM213.1,184.4h-1.2v-4.6h1.2v4.6Z"/>
      <path d="M215.1,179.8v.5c.3-.4.8-.6,1.3-.6s.9.1,1.1.4c.2.3.4.7.4,1.3v3h-1.2v-3c0-.3-.1-.5-.2-.6-.1-.1-.3-.2-.6-.2s-.6.1-.8.4v3.3h-1.2v-4.6h1.2v.1Z"/>
      <path d="M218.5,182.1c0-.7.2-1.3.5-1.7s.8-.7,1.4-.7c.5,0,.9.2,1.2.5l.1-.4h1.1v4.5c0,.4-.1.8-.3,1.1s-.4.5-.8.7c-.3.2-.7.2-1.2.2-.3,0-.7-.1-1-.2-.3-.1-.6-.3-.7-.5l.5-.8c.3.3.7.5,1.1.5.3,0,.6-.1.8-.3s.3-.4.3-.8v-.2c-.3.3-.7.5-1.1.5-.6,0-1-.2-1.4-.7-.3-.4-.5-1-.5-1.7h0ZM219.8,182.2c0,.4.1.8.3,1s.4.4.7.4c.4,0,.6-.1.8-.4v-2c-.2-.3-.4-.4-.8-.4-.3,0-.5.1-.7.4-.3.1-.3.5-.3,1Z"/>
      <path d="M226.9,184.4h-1.2v-6.6h1.2v6.6Z"/>
      <path d="M230.4,184.4c-.1-.1-.1-.3-.1-.4-.3.3-.7.5-1.2.5s-.8-.1-1.1-.4c-.3-.3-.4-.6-.4-1,0-.5.2-.9.5-1.1.4-.3.9-.4,1.6-.4h.6v-.3c0-.2-.1-.4-.2-.5-.1-.1-.3-.2-.5-.2s-.4,0-.5.2c-.1.1-.2.2-.2.4h-1.2c0-.3.1-.5.2-.7.2-.2.4-.4.7-.5s.6-.2,1-.2c.6,0,1,.1,1.4.4.3.3.5.7.5,1.2v2c0,.4.1.8.2,1v.1h-1.3v-.1ZM229.4,183.6c.2,0,.4,0,.5-.1.2-.1.3-.2.3-.3v-.9h-.5c-.6,0-1,.2-1,.6v.1c0,.2.1.3.2.4.1.1.3.2.5.2Z"/>
      <path d="M233.4,179.8v.5c.3-.4.8-.6,1.3-.6s.9.1,1.1.4c.2.3.4.7.4,1.3v3h-1.2v-3c0-.3-.1-.5-.2-.6-.1-.1-.3-.2-.6-.2s-.6.1-.8.4v3.3h-1.2v-4.6h1.2v.1Z"/>
      <path d="M236.8,182.1c0-.7.2-1.3.5-1.7s.8-.7,1.4-.7c.5,0,.9.2,1.2.5l.1-.4h1.1v4.5c0,.4-.1.8-.3,1.1s-.4.5-.8.7c-.3.2-.7.2-1.2.2-.3,0-.7-.1-1-.2-.3-.1-.6-.3-.7-.5l.5-.8c.3.3.7.5,1.1.5.3,0,.6-.1.8-.3s.3-.4.3-.8v-.2c-.3.3-.7.5-1.1.5-.6,0-1-.2-1.4-.7-.3-.4-.5-1-.5-1.7h0ZM238.1,182.2c0,.4.1.8.3,1s.4.4.7.4c.4,0,.6-.1.8-.4v-2c-.2-.3-.4-.4-.8-.4-.3,0-.5.1-.7.4-.2.1-.3.5-.3,1Z"/>
      <path d="M244.6,183.9c-.3.4-.7.6-1.3.6-.5,0-.9-.1-1.1-.4s-.4-.7-.4-1.3v-3h1.2v3c0,.5.2.7.7.7.4,0,.7-.1.9-.4v-3.3h1.2v4.6h-1.2v-.5Z"/>
      <path d="M249.3,184.4c-.1-.1-.1-.3-.1-.4-.3.3-.7.5-1.2.5s-.8-.1-1.1-.4c-.3-.3-.4-.6-.4-1,0-.5.2-.9.5-1.1.4-.3.9-.4,1.6-.4h.6v-.3c0-.2-.1-.4-.2-.5-.1-.1-.3-.2-.5-.2s-.4,0-.5.2c-.1.1-.2.2-.2.4h-1.2c0-.3.1-.5.2-.7.2-.2.4-.4.7-.5s.6-.2,1-.2c.6,0,1,.1,1.4.4.3.3.5.7.5,1.2v2c0,.4.1.8.2,1v.1h-1.3v-.1ZM248.3,183.6c.2,0,.4,0,.5-.1.2-.1.3-.2.3-.3v-.9h-.5c-.6,0-1,.2-1,.6v.1c0,.2.1.3.2.4s.3.2.5.2Z"/>
      <path d="M251,182.1c0-.7.2-1.3.5-1.7s.8-.7,1.4-.7c.5,0,.9.2,1.2.5l.1-.4h1.1v4.5c0,.4-.1.8-.3,1.1s-.4.5-.8.7c-.3.2-.7.2-1.2.2-.3,0-.7-.1-1-.2-.3-.1-.6-.3-.7-.5l.5-.8c.3.3.7.5,1.1.5.3,0,.6-.1.8-.3s.3-.4.3-.8v-.2c-.3.3-.7.5-1.1.5-.6,0-1-.2-1.4-.7-.4-.4-.5-1-.5-1.7h0ZM252.2,182.2c0,.4.1.8.3,1s.4.4.7.4c.4,0,.6-.1.8-.4v-2c-.2-.3-.4-.4-.8-.4-.3,0-.5.1-.7.4-.2.1-.3.5-.3,1Z"/>
      <path d="M258.1,184.5c-.7,0-1.2-.2-1.7-.6-.4-.4-.6-1-.6-1.7v-.1c0-.5.1-.9.3-1.3.2-.4.4-.7.8-.9.3-.2.7-.3,1.1-.3.6,0,1.1.2,1.5.6.4.4.5,1,.5,1.7v.5h-3c0,.3.2.5.4.7s.5.3.8.3c.5,0,.9-.2,1.1-.5l.6.7c-.2.3-.4.5-.8.6-.2.2-.6.3-1,.3ZM258,180.7c-.2,0-.4.1-.6.3-.2.2-.3.4-.3.7h1.7v-.1c0-.3-.1-.5-.2-.6-.1-.2-.3-.3-.6-.3Z"/>
      <path d="M260.6,181.9c0-.7.1-1.3.3-1.9.2-.6.4-1.1.8-1.6.3-.5.7-.8,1.1-1l.2.7c-.4.3-.7.8-1,1.4-.2.6-.4,1.4-.4,2.3v.1c0,.9.1,1.6.3,2.3.2.7.6,1.1,1,1.5l-.2.7c-.4-.2-.8-.5-1.1-.9-.3-.4-.6-1-.8-1.5s-.3-1.2-.3-1.8v-.3h.1Z"/>
      <path d="M266,183.1c0-.2-.1-.3-.2-.4s-.4-.2-.7-.2c-1.1-.2-1.7-.7-1.7-1.4,0-.4.2-.8.5-1,.3-.3.8-.4,1.3-.4.6,0,1.1.1,1.4.4s.5.6.5,1.1h-1.1c0-.2-.1-.3-.2-.4-.1-.1-.3-.2-.5-.2s-.4,0-.5.1-.2.2-.2.4c0,.1.1.2.2.3s.4.2.7.2c.3.1.6.1.8.2.7.2,1,.7,1,1.3,0,.4-.2.8-.5,1s-.8.4-1.4.4c-.4,0-.7-.1-1-.2-.3-.1-.5-.3-.7-.6s-.3-.5-.3-.8h1.2c0,.2.1.4.2.5.2.1.4.2.6.2s.4,0,.5-.1c0-.1.1-.2.1-.4Z"/>
      <path d="M270,182c0,.6-.1,1.3-.3,1.9s-.5,1.1-.8,1.6-.7.8-1.1.9l-.2-.7c.4-.3.7-.8,1-1.4.2-.6.4-1.4.4-2.2v-.2c0-.9-.1-1.6-.3-2.3-.2-.7-.6-1.1-1-1.5l.2-.7c.4.2.8.5,1.1.9.3.4.6,1,.8,1.6.2.6.3,1.2.3,1.8v.3h-.1Z"/>
    </g>
    <g>
      <rect class="cls-1" x="27.1" y="51.1" width="110" height="12.4"/>
      <path d="M49.2,57.1v3h-1.8v-8.5h3.3c.6,0,1.2.1,1.7.4s.9.6,1.1,1,.4.9.4,1.5c0,.8-.3,1.5-.9,2s-1.4.7-2.4.7h-1.4v-.1ZM49.2,55.7h1.6c.5,0,.8-.1,1.1-.3s.4-.5.4-.9-.1-.8-.4-1-.6-.4-1-.4h-1.6v2.6h-.1Z"/>
      <path d="M58.4,55.4h-.6c-.6,0-1.1.2-1.3.7v4.1h-1.7v-6.3h1.6v.8c.3-.6.8-.9,1.4-.9.2,0,.4,0,.5.1l.1,1.5Z"/>
      <path d="M58.5,56.9c0-.6.1-1.2.4-1.7s.6-.9,1-1.1,1-.4,1.6-.4c.9,0,1.6.3,2.1.8s.8,1.2.9,2.1v.4c0,1-.3,1.8-.8,2.3s-1.3,1-2.2,1-1.6-.3-2.2-.9-.8-1.4-.8-2.5h0ZM60.1,57c0,.6.1,1.1.3,1.4.2.3.6.5,1,.5s.7-.2,1-.5c.2-.3.3-.8.3-1.5,0-.6-.1-1-.3-1.4s-.6-.5-1-.5-.7.2-1,.5-.3.9-.3,1.5Z"/>
      <path d="M71,57c0,1-.2,1.8-.7,2.4s-1,.9-1.8.9c-.7,0-1.2-.3-1.6-.8l-.1.7h-1.5v-9h1.7v3.2c.4-.5.9-.7,1.5-.7.8,0,1.4.3,1.8.9s.7,1.3.7,2.4h0ZM69.3,56.9c0-.6-.1-1.1-.3-1.4s-.5-.4-.9-.4c-.5,0-.9.2-1.1.7v2.5c.2.4.6.7,1.1.7s.9-.3,1.1-.8c0-.4.1-.8.1-1.3Z"/>
      <path d="M73.6,60.1h-1.7v-9h1.7v9Z"/>
      <path d="M77.6,60.3c-.9,0-1.7-.3-2.3-.9s-.9-1.3-.9-2.3v-.2c0-.6.1-1.2.4-1.7s.6-.9,1-1.2,1-.4,1.5-.4c.9,0,1.5.3,2,.8s.7,1.3.7,2.3v.7h-4c.1.4.2.7.5,1s.6.4,1,.4c.7,0,1.2-.2,1.5-.7l.8.9c-.3.4-.6.6-1,.8s-.6.5-1.2.5ZM77.4,55c-.3,0-.6.1-.8.3s-.3.6-.4,1h2.4v-.1c0-.4-.1-.7-.3-.9s-.5-.3-.9-.3Z"/>
      <path d="M82.6,53.8l.1.7c.4-.6,1.1-.8,1.8-.8.8,0,1.4.3,1.7,1,.4-.6,1.1-1,1.9-1,.7,0,1.2.2,1.5.6s.5,1,.5,1.8v4h-1.7v-4c0-.4-.1-.6-.2-.8s-.4-.2-.7-.2c-.5,0-.9.2-1.1.7v4.4h-1.7v-4c0-.4-.1-.6-.2-.8s-.4-.2-.7-.2c-.5,0-.8.2-1,.6v4.5h-1.8v-6.3h1.6v-.2Z"/>
      <path d="M95.6,60.1h-1.6v-9h1.7v9h-.1Z"/>
      <path d="M99.7,60.3c-.9,0-1.7-.3-2.3-.9s-.9-1.3-.9-2.3v-.2c0-.6.1-1.2.4-1.7s.6-.9,1-1.2,1-.4,1.5-.4c.9,0,1.5.3,2,.8s.7,1.3.7,2.3v.7h-4c.1.4.2.7.5,1s.6.4,1,.4c.7,0,1.2-.2,1.5-.7l.8.9c-.3.4-.6.6-1,.8s-.7.5-1.2.5ZM99.5,55c-.3,0-.6.1-.8.3s-.3.6-.4,1h2.4v-.1c0-.4-.1-.7-.3-.9s-.5-.3-.9-.3Z"/>
      <path d="M105.3,58.1l1.2-4.3h1.8l-2.1,6.3h-1.6l-2.1-6.3h1.8l1,4.3Z"/>
      <path d="M111.7,60.3c-.9,0-1.7-.3-2.3-.9s-.9-1.3-.9-2.3v-.2c0-.6.1-1.2.4-1.7s.6-.9,1-1.2,1-.4,1.5-.4c.9,0,1.5.3,2,.8s.7,1.3.7,2.3v.7h-4c.1.4.2.7.5,1s.6.4,1,.4c.7,0,1.2-.2,1.5-.7l.8.9c-.3.4-.6.6-1,.8s-.7.5-1.2.5ZM111.5,55c-.3,0-.6.1-.8.3s-.3.6-.4,1h2.4v-.1c0-.4-.1-.7-.3-.9s-.5-.3-.9-.3Z"/>
      <path d="M116.8,60.1h-1.7v-9h1.7v9Z"/>
    </g>
    <g>
      <rect class="cls-1" x="27.1" y="119.4" width="110" height="12.4"/>
      <path d="M51.4,128.4v-8.5h2.6c.8,0,1.4.2,2,.5s1.1.8,1.4,1.4.5,1.3.5,2.1v.4c0,.8-.2,1.5-.5,2.1s-.8,1.1-1.4,1.4-1.3.5-2,.5h-2.6v.1ZM53.2,121.3v5.7h.8c.7,0,1.2-.2,1.6-.7s.5-1.1.6-1.9v-.5c0-.9-.2-1.5-.5-2s-.9-.7-1.6-.7h-.9v.1Z"/>
      <path d="M61.8,128.5c-.9,0-1.7-.3-2.3-.9s-.9-1.3-.9-2.3v-.2c0-.6.1-1.2.4-1.7s.6-.9,1-1.2,1-.4,1.5-.4c.9,0,1.5.3,2,.8s.7,1.3.7,2.3v.7h-4c.1.4.2.7.5,1s.6.4,1,.4c.7,0,1.2-.2,1.5-.7l.8.9c-.3.4-.6.6-1,.8s-.7.5-1.2.5ZM61.6,123.3c-.3,0-.6.1-.8.3s-.3.6-.4,1h2.4v-.1c0-.4-.1-.7-.3-.9s-.5-.3-.9-.3Z"/>
      <path d="M68.6,126.6c0-.2-.1-.4-.3-.5s-.5-.2-1-.3c-1.5-.3-2.3-1-2.3-1.9,0-.6.2-1,.7-1.4s1.1-.6,1.8-.6c.8,0,1.4.2,1.9.6s.7.9.7,1.5h-1.7c0-.2-.1-.4-.2-.6s-.4-.2-.7-.2-.5.1-.7.2-.2.3-.2.5.1.3.3.5c.2.1.5.2.9.3s.8.2,1.1.3c.9.3,1.3.9,1.3,1.7,0,.6-.2,1-.7,1.4s-1.1.5-1.9.5c-.5,0-1-.1-1.4-.3s-.7-.4-1-.8-.4-.7-.4-1.1h1.6c0,.3.1.5.3.7s.5.2.8.2.6-.1.7-.2.4-.3.4-.5Z"/>
      <path d="M71,120.4c0-.3.1-.5.3-.6s.4-.2.7-.2.5.1.7.2.3.4.3.6c0,.3-.1.5-.3.6s-.4.3-.7.3-.5-.1-.7-.2-.3-.4-.3-.7ZM72.8,128.4h-1.7v-6.3h1.7v6.3Z"/>
      <path d="M73.7,125.2c0-1,.2-1.8.7-2.3s1.1-.9,1.9-.9c.7,0,1.2.2,1.6.7l.1-.6h1.5v6.1c0,.6-.1,1-.4,1.4s-.6.7-1.1.9-1,.3-1.6.3c-.5,0-.9-.1-1.4-.3s-.8-.4-1-.7l.8-1c.4.5.9.7,1.5.7.4,0,.8-.1,1-.4s.4-.6.4-1v-.3c-.4.4-.9.7-1.5.7-.8,0-1.4-.3-1.8-.9s-.7-1.4-.7-2.4h0ZM75.4,125.3c0,.6.1,1,.3,1.4.2.3.5.5.9.5.5,0,.9-.2,1.1-.6v-2.7c-.2-.4-.6-.6-1.1-.6-.4,0-.7.2-1,.5s-.2.8-.2,1.5Z"/>
      <path d="M82.2,122.1l.1.7c.5-.6,1.1-.8,1.8-.8s1.2.2,1.5.6.5,1,.5,1.8v4.1h-1.7v-4.2c0-.4-.1-.6-.2-.8s-.4-.2-.8-.2c-.5,0-.8.2-1.1.6v4.5h-1.7v-6.3s1.6,0,1.6,0Z"/>
      <path d="M91.6,128.4h-1.7v-9h1.7v9Z"/>
      <path d="M95.7,128.5c-.9,0-1.7-.3-2.3-.9s-.9-1.3-.9-2.3v-.2c0-.6.1-1.2.4-1.7s.6-.9,1-1.2,1-.4,1.5-.4c.9,0,1.5.3,2,.8s.7,1.3.7,2.3v.7h-4c.1.4.2.7.5,1s.6.4,1,.4c.7,0,1.2-.2,1.5-.7l.8.9c-.3.4-.6.6-1,.8s-.7.5-1.2.5ZM95.5,123.3c-.3,0-.6.1-.8.3s-.3.6-.4,1h2.4v-.1c0-.4-.1-.7-.3-.9s-.5-.3-.9-.3Z"/>
      <path d="M101.3,126.3l1.2-4.3h1.8l-2.1,6.3h-1.6l-2.1-6.3h1.8l1,4.3Z"/>
      <path d="M107.7,128.5c-.9,0-1.7-.3-2.3-.9s-.9-1.3-.9-2.3v-.2c0-.6.1-1.2.4-1.7s.6-.9,1-1.2,1-.4,1.5-.4c.9,0,1.5.3,2,.8s.7,1.3.7,2.3v.7h-4c.1.4.2.7.5,1s.6.4,1,.4c.7,0,1.2-.2,1.5-.7l.8.9c-.3.4-.6.6-1,.8s-.7.5-1.2.5ZM107.5,123.3c-.3,0-.6.1-.8.3s-.3.6-.4,1h2.4v-.1c0-.4-.1-.7-.3-.9s-.5-.3-.9-.3Z"/>
      <path d="M112.8,128.4h-1.7v-9h1.7v9Z"/>
    </g>
    <g>
      <rect class="cls-1" x="27.1" y="189.4" width="110" height="12.4"/>
      <path d="M62.5,195.5c-.1.9-.4,1.6-1,2.2s-1.4.8-2.4.8c-1.1,0-2-.4-2.6-1.1s-.9-1.7-.9-3v-.5c0-.8.1-1.5.4-2.2s.7-1.1,1.2-1.4,1.2-.5,1.9-.5c1,0,1.8.3,2.4.8s.9,1.3,1,2.2h-1.8c0-.6-.2-1-.5-1.2s-.7-.4-1.2-.4c-.6,0-1,.2-1.3.6s-.4,1.1-.4,2v.6c0,.9.1,1.6.4,2s.7.6,1.3.6c.5,0,.9-.1,1.2-.4s.4-.6.5-1.2h1.8v.1Z"/>
      <path d="M63.1,195.2c0-.6.1-1.2.4-1.7s.6-.9,1-1.1,1-.4,1.6-.4c.9,0,1.6.3,2.1.8s.8,1.2.9,2.1v.4c0,1-.3,1.8-.8,2.3s-1.3.9-2.2.9-1.6-.3-2.2-.9-.8-1.4-.8-2.4h0ZM64.8,195.3c0,.6.1,1.1.3,1.4.2.3.6.5,1,.5s.7-.2,1-.5c.2-.3.3-.8.3-1.5,0-.6-.1-1-.3-1.4-.2-.3-.6-.5-1-.5s-.7.2-1,.5-.3.8-.3,1.5Z"/>
      <path d="M69.6,195.2c0-1,.2-1.8.7-2.4s1-.9,1.8-.9c.6,0,1.1.2,1.5.7v-3.2h1.7v9h-1.5l-.1-.7c-.4.5-1,.8-1.6.8-.7,0-1.3-.3-1.8-.9s-.7-1.4-.7-2.4ZM71.3,195.3c0,.6.1,1.1.3,1.4.2.3.5.5.9.5.5,0,.9-.2,1.1-.7v-2.5c-.2-.4-.6-.7-1.1-.7-.8,0-1.2.7-1.2,2Z"/>
      <path d="M79.3,198.5c-.9,0-1.7-.3-2.3-.9s-.9-1.3-.9-2.3v-.2c0-.6.1-1.2.4-1.7s.6-.9,1-1.2,1-.4,1.5-.4c.9,0,1.5.3,2,.8s.7,1.3.7,2.3v.7h-4c.1.4.2.7.5,1s.6.4,1,.4c.7,0,1.2-.2,1.5-.7l.8.9c-.3.4-.6.6-1,.8s-.6.5-1.2.5ZM79.1,193.3c-.3,0-.6.1-.8.3s-.3.6-.4,1h2.4v-.1c0-.4-.1-.7-.3-.9s-.5-.3-.9-.3Z"/>
      <path d="M87.2,198.4h-1.7v-9h1.7v9Z"/>
      <path d="M91.3,198.5c-.9,0-1.7-.3-2.3-.9s-.9-1.3-.9-2.3v-.2c0-.6.1-1.2.4-1.7s.6-.9,1-1.2,1-.4,1.5-.4c.9,0,1.5.3,2,.8s.7,1.3.7,2.3v.7h-4c.1.4.2.7.5,1s.6.4,1,.4c.7,0,1.2-.2,1.5-.7l.8.9c-.3.4-.6.6-1,.8s-.7.5-1.2.5ZM91.1,193.3c-.3,0-.6.1-.8.3s-.3.6-.4,1h2.4v-.1c0-.4-.1-.7-.3-.9s-.6-.3-.9-.3Z"/>
      <path d="M96.9,196.3l1.2-4.3h1.8l-2.1,6.3h-1.6l-2.1-6.3h1.8l1,4.3Z"/>
      <path d="M103.3,198.5c-.9,0-1.7-.3-2.3-.9s-.9-1.3-.9-2.3v-.2c0-.6.1-1.2.4-1.7s.6-.9,1-1.2,1-.4,1.5-.4c.9,0,1.5.3,2,.8s.7,1.3.7,2.3v.7h-4c.1.4.2.7.5,1s.6.4,1,.4c.7,0,1.2-.2,1.5-.7l.8.9c-.3.4-.6.6-1,.8s-.7.5-1.2.5ZM103.1,193.3c-.3,0-.6.1-.8.3s-.3.6-.4,1h2.4v-.1c0-.4-.1-.7-.3-.9s-.6-.3-.9-.3Z"/>
      <path d="M108.4,198.4h-1.7v-9h1.7v9Z"/>
    </g>
    <g>
      <rect class="cls-1" x="21.1" y="254.1" width="120.3" height="12.4"/>
      <path d="M39.9,260h-1.4v3.1h-1.8v-8.5h3.3c1,0,1.8.2,2.3.7s.8,1.1.8,1.9c0,.6-.1,1.1-.4,1.5s-.6.7-1.1.9l1.8,3.5v.1h-1.9l-1.6-3.2ZM38.5,258.5h1.5c.4,0,.8-.1,1-.3s.4-.5.4-.9-.1-.7-.3-.9-.6-.3-1.1-.3h-1.4v2.4h-.1Z"/>
      <path d="M47.9,262.4c-.4.5-1,.8-1.7.8s-1.2-.2-1.6-.6-.5-1-.5-1.7v-4.2h1.7v4.1c0,.7.3,1,.9,1s1-.2,1.2-.6v-4.5h1.7v6.3h-1.6l-.1-.6Z"/>
      <path d="M52.1,256.7l.1.7c.5-.6,1.1-.8,1.8-.8s1.2.2,1.5.6.5,1,.5,1.8v4.1h-1.7v-4.1c0-.4-.1-.6-.2-.8s-.4-.2-.8-.2c-.5,0-.8.2-1.1.6v4.5h-1.7v-6.3h1.6v-.1Z"/>
      <path d="M58.6,256.7l.1.7c.5-.6,1.1-.8,1.8-.8s1.2.2,1.5.6.5,1,.5,1.8v4.1h-1.7v-4.1c0-.4-.1-.6-.2-.8s-.4-.2-.8-.2c-.5,0-.8.2-1.1.6v4.5h-1.7v-6.3h1.6v-.1Z"/>
      <path d="M63.5,255.1c0-.3.1-.5.3-.6s.4-.2.7-.2.5.1.7.2.3.4.3.6c0,.3-.1.5-.3.6s-.4.2-.7.2-.5-.1-.7-.2-.3-.3-.3-.6ZM65.3,263.1h-1.7v-6.3h1.7v6.3Z"/>
      <path d="M68,256.7l.1.7c.5-.6,1.1-.8,1.8-.8s1.2.2,1.5.6.5,1,.5,1.8v4.1h-1.7v-4.1c0-.4-.1-.6-.2-.8s-.4-.2-.8-.2c-.5,0-.8.2-1.1.6v4.5h-1.7v-6.3h1.6v-.1Z"/>
      <path d="M72.7,259.9c0-1,.2-1.8.7-2.3s1.1-.9,1.9-.9c.7,0,1.2.2,1.6.7l.1-.6h1.5v6.1c0,.6-.1,1-.4,1.4s-.6.7-1.1.9-1,.3-1.6.3c-.5,0-.9-.1-1.4-.3s-.8-.4-1-.7l.8-1c.4.5.9.7,1.5.7.4,0,.8-.1,1-.4s.4-.6.4-1v-.3c-.4.4-.9.7-1.5.7-.8,0-1.4-.3-1.8-.9s-.7-1.4-.7-2.4h0ZM74.4,260c0,.6.1,1,.3,1.4.2.3.5.5.9.5.5,0,.9-.2,1.1-.6v-2.7c-.2-.4-.6-.6-1.1-.6-.4,0-.7.2-1,.5-.1.3-.2.8-.2,1.5Z"/>
      <path d="M84.3,255.2v1.6h1.1v1.2h-1.1v3.2c0,.2,0,.4.1.5s.3.2.5.2h.5v1.3c-.3.1-.7.2-1,.2-1.2,0-1.8-.6-1.8-1.8v-3.4h-.9v-1.2h.9v-1.6h1.7v-.2Z"/>
      <path d="M87.8,257.4c.4-.5,1-.8,1.7-.8,1.4,0,2.1.8,2.1,2.4v4.1h-1.7v-4c0-.4-.1-.6-.2-.8s-.4-.3-.8-.3c-.5,0-.9.2-1.1.6v4.5h-1.7v-9h1.7v3.3Z"/>
      <path d="M95.5,263.2c-.9,0-1.7-.3-2.3-.9s-.9-1.3-.9-2.3v-.2c0-.6.1-1.2.4-1.7s.6-.9,1-1.2,1-.4,1.5-.4c.9,0,1.5.3,2,.8s.7,1.3.7,2.3v.7h-4c.1.4.2.7.5,1s.6.4,1,.4c.7,0,1.2-.2,1.5-.7l.8.9c-.3.4-.6.6-1,.8s-.7.5-1.2.5ZM95.3,258c-.3,0-.6.1-.8.3s-.3.6-.4,1h2.4v-.1c0-.4-.1-.7-.3-.9s-.5-.3-.9-.3Z"/>
      <path d="M104.2,261.8c.3,0,.6-.1.8-.3s.3-.4.3-.7h1.6c0,.4-.1.8-.4,1.2s-.5.6-.9.8-.8.3-1.3.3c-.9,0-1.6-.3-2.1-.9s-.8-1.4-.8-2.4v-.1c0-1,.3-1.8.8-2.3s1.2-.9,2.1-.9c.8,0,1.4.2,1.9.7s.7,1.1.7,1.8h-1.6c0-.3-.1-.6-.3-.8s-.5-.3-.8-.3c-.4,0-.7.1-.9.4s-.3.8-.3,1.4v.2c0,.7.1,1.1.3,1.4.2.4.5.5.9.5Z"/>
      <path d="M107.3,259.8c0-.6.1-1.2.4-1.7s.6-.9,1-1.1,1-.4,1.6-.4c.9,0,1.6.3,2.1.8s.8,1.2.9,2.1v.4c0,1-.3,1.8-.8,2.3s-1.3.9-2.2.9-1.6-.3-2.2-.9-.8-1.3-.8-2.4h0ZM109,260c0,.6.1,1.1.3,1.4.2.3.6.5,1,.5s.7-.2,1-.5c.2-.3.3-.8.3-1.5,0-.6-.1-1-.3-1.4-.2-.3-.6-.5-1-.5s-.7.2-1,.5c-.1.3-.3.8-.3,1.5Z"/>
      <path d="M113.9,259.9c0-1,.2-1.8.7-2.4s1-.9,1.8-.9c.6,0,1.1.2,1.5.7v-3.2h1.7v9h-1.5l-.1-.7c-.4.5-1,.8-1.6.8-.7,0-1.3-.3-1.8-.9s-.7-1.4-.7-2.4ZM115.6,260c0,.6.1,1.1.3,1.4.2.3.5.5.9.5.5,0,.9-.2,1.1-.7v-2.5c-.2-.4-.6-.7-1.1-.7-.8,0-1.2.7-1.2,2Z"/>
      <path d="M123.6,263.2c-.9,0-1.7-.3-2.3-.9s-.9-1.3-.9-2.3v-.2c0-.6.1-1.2.4-1.7s.6-.9,1-1.2,1-.4,1.5-.4c.9,0,1.5.3,2,.8s.7,1.3.7,2.3v.7h-4c.1.4.2.7.5,1s.6.4,1,.4c.7,0,1.2-.2,1.5-.7l.8.9c-.3.4-.6.6-1,.8s-.7.5-1.2.5ZM123.4,258c-.3,0-.6.1-.8.3s-.3.6-.4,1h2.4v-.1c0-.4-.1-.7-.3-.9s-.5-.3-.9-.3Z"/>
    </g>
  </g>
</svg>