<?xml version="1.0" encoding="UTF-8" standalone="no"?>
<!DOCTYPE svg PUBLIC "-//W3C//DTD SVG 1.1//EN" "http://www.w3.org/Graphics/SVG/1.1/DTD/svg11.dtd">
<svg width="100%" height="100%" viewBox="0 0 1427 864" version="1.1" xmlns="http://www.w3.org/2000/svg" xmlns:xlink="http://www.w3.org/1999/xlink" xml:space="preserve" xmlns:serif="http://www.serif.com/" style="fill-rule:evenodd;clip-rule:evenodd;stroke-miterlimit:10;">
    <g id="Artboard1" transform="matrix(1,0,0,1,-102.342,-995.729)">
        <rect x="102.342" y="995.729" width="1426.15" height="863.637" style="fill:none;"/>
        <clipPath id="_clip1">
            <rect x="102.342" y="995.729" width="1426.15" height="863.637"/>
        </clipPath>
        <g clip-path="url(#_clip1)">
            <g id="Layer-1" serif:id="Layer 1" transform="matrix(4.16667,0,0,4.16667,0.341917,0.729167)">
                <g transform="matrix(0.320336,0,0,0.226442,-19.6601,25.2089)">
                    <path d="M1206.54,995.949L1206.54,1807.44C1206.54,1836.1 1190.09,1859.37 1169.83,1859.37L174.757,1859.37C154.497,1859.37 138.049,1836.1 138.049,1807.44L138.049,995.949C138.049,967.289 154.497,944.02 174.757,944.02L1169.83,944.02C1190.09,944.02 1206.54,967.289 1206.54,995.949Z" style="fill:rgb(44,48,120);"/>
                </g>
                <g transform="matrix(-1,0,0,1,598.921,-2.365)">
                    <rect x="-8.873" y="-17.014" width="625.171" height="886.787" style="fill:none;stroke:rgb(35,31,32);stroke-width:0.99px;"/>
                </g>
                <g opacity="0.95">
                    <g transform="matrix(1,0,0,1,122.335,424.748)">
                        <path d="M0,-38.972L-77.415,-38.972C-80.701,-38.972 -83.365,-36.308 -83.365,-33.022L-83.365,-5.95C-83.365,-2.664 -80.701,0 -77.415,0L0,0C3.286,0 5.95,-2.664 5.95,-5.95L5.95,-33.022C5.95,-36.308 3.286,-38.972 0,-38.972" style="fill:white;fill-rule:nonzero;"/>
                    </g>
                </g>
                <g opacity="0.95">
                    <g transform="matrix(1,0,0,1,218.037,424.748)">
                        <path d="M0,-38.972L-79.567,-38.972C-82.298,-38.972 -84.511,-36.759 -84.511,-34.029L-84.511,-4.943C-84.511,-2.213 -82.298,0 -79.567,0L0,0C2.73,0 4.943,-2.213 4.943,-4.943L4.943,-34.029C4.943,-36.759 2.73,-38.972 0,-38.972" style="fill:white;fill-rule:nonzero;"/>
                    </g>
                </g>
                <g transform="matrix(1,0,0,1,114.969,346.675)">
                    <path d="M0,0L5.78,0" style="fill:none;fill-rule:nonzero;stroke:rgb(190,30,45);stroke-width:0.5px;"/>
                </g>
                <g transform="matrix(1,0,0,1,92.9691,353.446)">
                    <path d="M0,0L5.78,0" style="fill:none;fill-rule:nonzero;stroke:rgb(190,30,45);stroke-width:0.5px;"/>
                </g>
                <g transform="matrix(1,0,0,1,223.932,428.676)">
                    <path d="M0,-47.092L10.569,-47.092L10.569,0L0,0" style="fill:none;fill-rule:nonzero;stroke:white;stroke-width:1px;"/>
                </g>
                <g transform="matrix(1,0,0,1,234.501,405.129)">
                    <path d="M0,0L7.431,0" style="fill:none;fill-rule:nonzero;stroke:white;stroke-width:1px;"/>
                </g>
                <g transform="matrix(1,0,0,1,75.7847,376.716)">
                    <path d="M0,8.258L0,-1.802L105,-1.802L105,10.06" style="fill:none;fill-rule:nonzero;stroke:white;stroke-width:1px;"/>
                </g>
                <g transform="matrix(0,-1,-1,0,134.976,368.742)">
                    <path d="M-6.172,6.172L6.172,6.172" style="fill:none;fill-rule:nonzero;stroke:white;stroke-width:1px;"/>
                </g>
                <g opacity="0.95">
                    <g transform="matrix(1,0,0,1,226.917,261.969)">
                        <path d="M0,106.601L-178.67,106.601C-183.794,106.601 -187.948,102.447 -187.948,97.323L-187.948,9.279C-187.948,4.154 -183.794,0 -178.67,0L0,0C5.124,0 9.278,4.154 9.278,9.279L9.278,97.323C9.278,102.447 5.124,106.601 0,106.601" style="fill:white;fill-rule:nonzero;"/>
                    </g>
                </g>
                <g transform="matrix(0.24,0,0,0.24,29.6163,187.894)">
                    <g transform="matrix(37.1888,0,0,37.1888,38.9688,275.12)">
                        <path d="M0.218,-0.064L0.36,-0.711L0.444,-0.711L0.49,-0.656L0.339,-0L0.246,-0L0.218,-0.064ZM0.181,-0.711L0.3,-0.06L0.27,-0L0.162,-0L0.011,-0.711L0.181,-0.711ZM0.568,-0.063L0.687,-0.711L0.856,-0.711L0.705,-0L0.598,-0L0.568,-0.063ZM0.505,-0.711L0.65,-0.061L0.621,-0L0.528,-0L0.374,-0.657L0.421,-0.711L0.505,-0.711Z" style="fill:white;fill-rule:nonzero;"/>
                    </g>
                    <g transform="matrix(37.1888,0,0,37.1888,70.7229,275.12)">
                        <path d="M0.026,-0.259L0.026,-0.269C0.026,-0.308 0.031,-0.344 0.042,-0.376C0.054,-0.409 0.07,-0.437 0.091,-0.461C0.113,-0.486 0.139,-0.504 0.171,-0.518C0.202,-0.531 0.239,-0.538 0.28,-0.538C0.322,-0.538 0.359,-0.531 0.39,-0.518C0.422,-0.504 0.449,-0.486 0.47,-0.461C0.492,-0.437 0.508,-0.409 0.519,-0.376C0.53,-0.344 0.536,-0.308 0.536,-0.269L0.536,-0.259C0.536,-0.22 0.53,-0.185 0.519,-0.152C0.508,-0.119 0.492,-0.091 0.47,-0.067C0.449,-0.042 0.422,-0.024 0.391,-0.01C0.359,0.003 0.323,0.01 0.281,0.01C0.24,0.01 0.203,0.003 0.171,-0.01C0.139,-0.024 0.113,-0.042 0.091,-0.067C0.07,-0.091 0.054,-0.119 0.042,-0.152C0.031,-0.185 0.026,-0.22 0.026,-0.259ZM0.19,-0.269L0.19,-0.259C0.19,-0.239 0.192,-0.22 0.195,-0.203C0.198,-0.186 0.203,-0.171 0.209,-0.158C0.216,-0.145 0.226,-0.135 0.237,-0.128C0.249,-0.121 0.264,-0.117 0.281,-0.117C0.299,-0.117 0.313,-0.121 0.324,-0.128C0.336,-0.135 0.345,-0.145 0.352,-0.158C0.359,-0.171 0.364,-0.186 0.367,-0.203C0.37,-0.22 0.371,-0.239 0.371,-0.259L0.371,-0.269C0.371,-0.288 0.37,-0.306 0.367,-0.323C0.364,-0.341 0.359,-0.356 0.352,-0.369C0.345,-0.382 0.336,-0.392 0.324,-0.4C0.313,-0.407 0.298,-0.411 0.28,-0.411C0.263,-0.411 0.249,-0.407 0.237,-0.4C0.226,-0.392 0.216,-0.382 0.209,-0.369C0.203,-0.356 0.198,-0.341 0.195,-0.323C0.192,-0.306 0.19,-0.288 0.19,-0.269Z" style="fill:white;fill-rule:nonzero;"/>
                    </g>
                    <g transform="matrix(37.1888,0,0,37.1888,91.6182,275.12)">
                        <path d="M0.212,-0.397L0.212,-0L0.048,-0L0.048,-0.528L0.202,-0.528L0.212,-0.397ZM0.369,-0.532L0.366,-0.379C0.359,-0.38 0.35,-0.381 0.339,-0.382C0.328,-0.383 0.319,-0.383 0.312,-0.383C0.292,-0.383 0.276,-0.381 0.262,-0.377C0.248,-0.372 0.237,-0.366 0.228,-0.357C0.219,-0.349 0.212,-0.338 0.208,-0.325C0.204,-0.312 0.202,-0.297 0.203,-0.279L0.173,-0.299C0.173,-0.334 0.176,-0.367 0.183,-0.396C0.19,-0.425 0.2,-0.45 0.213,-0.471C0.226,-0.493 0.242,-0.509 0.261,-0.521C0.279,-0.532 0.3,-0.538 0.323,-0.538C0.331,-0.538 0.339,-0.538 0.347,-0.537C0.355,-0.536 0.362,-0.534 0.369,-0.532Z" style="fill:white;fill-rule:nonzero;"/>
                    </g>
                    <g transform="matrix(37.1888,0,0,37.1888,105.704,275.12)">
                        <path d="M0.212,-0.75L0.212,-0L0.048,-0L0.048,-0.75L0.212,-0.75ZM0.55,-0.528L0.321,-0.259L0.201,-0.139L0.129,-0.244L0.229,-0.374L0.353,-0.528L0.55,-0.528ZM0.374,-0L0.233,-0.241L0.354,-0.327L0.563,-0L0.374,-0Z" style="fill:white;fill-rule:nonzero;"/>
                    </g>
                    <g transform="matrix(37.1888,0,0,37.1888,126.046,275.12)">
                        <path d="M0.302,0.01C0.259,0.01 0.221,0.003 0.187,-0.01C0.153,-0.024 0.125,-0.043 0.101,-0.066C0.078,-0.09 0.06,-0.118 0.048,-0.148C0.036,-0.179 0.03,-0.212 0.03,-0.247L0.03,-0.265C0.03,-0.304 0.035,-0.34 0.046,-0.373C0.057,-0.406 0.073,-0.435 0.094,-0.459C0.115,-0.484 0.141,-0.503 0.173,-0.517C0.205,-0.531 0.242,-0.538 0.285,-0.538C0.322,-0.538 0.356,-0.532 0.385,-0.52C0.415,-0.508 0.44,-0.491 0.461,-0.468C0.481,-0.446 0.497,-0.419 0.508,-0.387C0.519,-0.355 0.524,-0.319 0.524,-0.279L0.524,-0.212L0.093,-0.212L0.093,-0.315L0.364,-0.315L0.364,-0.328C0.364,-0.346 0.361,-0.361 0.355,-0.373C0.348,-0.385 0.339,-0.395 0.327,-0.401C0.315,-0.408 0.3,-0.411 0.283,-0.411C0.265,-0.411 0.251,-0.407 0.239,-0.399C0.227,-0.392 0.219,-0.381 0.212,-0.367C0.206,-0.354 0.201,-0.338 0.199,-0.321C0.196,-0.303 0.195,-0.285 0.195,-0.265L0.195,-0.247C0.195,-0.227 0.198,-0.209 0.203,-0.193C0.208,-0.177 0.216,-0.164 0.226,-0.153C0.237,-0.141 0.249,-0.133 0.263,-0.126C0.278,-0.12 0.294,-0.117 0.313,-0.117C0.335,-0.117 0.358,-0.121 0.379,-0.13C0.401,-0.138 0.42,-0.152 0.436,-0.172L0.51,-0.083C0.5,-0.068 0.484,-0.053 0.465,-0.039C0.445,-0.024 0.421,-0.013 0.394,-0.004C0.367,0.005 0.336,0.01 0.302,0.01Z" style="fill:white;fill-rule:nonzero;"/>
                    </g>
                    <g transform="matrix(37.1888,0,0,37.1888,146.301,275.12)">
                        <path d="M0.35,-0.121L0.35,-0.75L0.516,-0.75L0.516,-0L0.367,-0L0.35,-0.121ZM0.026,-0.258L0.026,-0.268C0.026,-0.308 0.03,-0.345 0.039,-0.378C0.048,-0.411 0.061,-0.439 0.078,-0.463C0.095,-0.487 0.117,-0.506 0.143,-0.519C0.168,-0.532 0.198,-0.538 0.231,-0.538C0.261,-0.538 0.288,-0.531 0.31,-0.517C0.333,-0.503 0.352,-0.484 0.368,-0.459C0.384,-0.435 0.397,-0.406 0.407,-0.373C0.417,-0.34 0.424,-0.304 0.43,-0.266L0.43,-0.254C0.424,-0.218 0.417,-0.184 0.407,-0.153C0.397,-0.121 0.384,-0.093 0.368,-0.068C0.352,-0.044 0.332,-0.025 0.31,-0.011C0.287,0.003 0.261,0.01 0.23,0.01C0.197,0.01 0.167,0.003 0.142,-0.01C0.116,-0.024 0.095,-0.042 0.078,-0.066C0.061,-0.09 0.048,-0.119 0.039,-0.151C0.03,-0.184 0.026,-0.219 0.026,-0.258ZM0.19,-0.268L0.19,-0.258C0.19,-0.238 0.192,-0.22 0.194,-0.203C0.197,-0.186 0.201,-0.171 0.208,-0.158C0.214,-0.145 0.223,-0.135 0.233,-0.128C0.244,-0.121 0.257,-0.117 0.272,-0.117C0.294,-0.117 0.311,-0.122 0.325,-0.132C0.339,-0.142 0.349,-0.157 0.356,-0.175C0.362,-0.194 0.365,-0.216 0.364,-0.241L0.364,-0.279C0.365,-0.301 0.363,-0.32 0.36,-0.336C0.356,-0.353 0.351,-0.366 0.343,-0.377C0.335,-0.389 0.326,-0.397 0.314,-0.403C0.303,-0.408 0.289,-0.411 0.273,-0.411C0.258,-0.411 0.245,-0.408 0.235,-0.4C0.224,-0.393 0.215,-0.383 0.209,-0.37C0.202,-0.358 0.198,-0.342 0.195,-0.325C0.192,-0.308 0.19,-0.289 0.19,-0.268Z" style="fill:white;fill-rule:nonzero;"/>
                    </g>
                    <g transform="matrix(37.1888,0,0,37.1888,167.21,275.12)">
                    </g>
                    <g transform="matrix(37.1888,0,0,37.1888,176.47,275.12)">
                        <path d="M0.302,0.01C0.259,0.01 0.221,0.003 0.187,-0.01C0.153,-0.024 0.125,-0.043 0.101,-0.066C0.078,-0.09 0.06,-0.118 0.048,-0.148C0.036,-0.179 0.03,-0.212 0.03,-0.247L0.03,-0.265C0.03,-0.304 0.035,-0.34 0.046,-0.373C0.057,-0.406 0.073,-0.435 0.094,-0.459C0.115,-0.484 0.141,-0.503 0.173,-0.517C0.205,-0.531 0.242,-0.538 0.285,-0.538C0.322,-0.538 0.356,-0.532 0.385,-0.52C0.415,-0.508 0.44,-0.491 0.461,-0.468C0.481,-0.446 0.497,-0.419 0.508,-0.387C0.519,-0.355 0.524,-0.319 0.524,-0.279L0.524,-0.212L0.093,-0.212L0.093,-0.315L0.364,-0.315L0.364,-0.328C0.364,-0.346 0.361,-0.361 0.355,-0.373C0.348,-0.385 0.339,-0.395 0.327,-0.401C0.315,-0.408 0.3,-0.411 0.283,-0.411C0.265,-0.411 0.251,-0.407 0.239,-0.399C0.227,-0.392 0.219,-0.381 0.212,-0.367C0.206,-0.354 0.201,-0.338 0.199,-0.321C0.196,-0.303 0.195,-0.285 0.195,-0.265L0.195,-0.247C0.195,-0.227 0.198,-0.209 0.203,-0.193C0.208,-0.177 0.216,-0.164 0.226,-0.153C0.237,-0.141 0.249,-0.133 0.263,-0.126C0.278,-0.12 0.294,-0.117 0.313,-0.117C0.335,-0.117 0.358,-0.121 0.379,-0.13C0.401,-0.138 0.42,-0.152 0.436,-0.172L0.51,-0.083C0.5,-0.068 0.484,-0.053 0.465,-0.039C0.445,-0.024 0.421,-0.013 0.394,-0.004C0.367,0.005 0.336,0.01 0.302,0.01Z" style="fill:white;fill-rule:nonzero;"/>
                    </g>
                    <g transform="matrix(37.1888,0,0,37.1888,196.726,275.12)">
                        <path d="M0.186,-0.528L0.26,-0.383L0.337,-0.528L0.508,-0.528L0.369,-0.271L0.515,-0L0.343,-0L0.26,-0.156L0.178,-0L0.006,-0L0.152,-0.271L0.014,-0.528L0.186,-0.528Z" style="fill:white;fill-rule:nonzero;"/>
                    </g>
                    <g transform="matrix(37.1888,0,0,37.1888,215.873,275.12)">
                        <path d="M0.321,-0.133L0.321,-0.351C0.321,-0.366 0.319,-0.378 0.314,-0.389C0.31,-0.4 0.304,-0.408 0.294,-0.414C0.285,-0.42 0.273,-0.423 0.258,-0.423C0.245,-0.423 0.235,-0.421 0.226,-0.417C0.217,-0.413 0.211,-0.406 0.206,-0.398C0.201,-0.389 0.199,-0.379 0.199,-0.366L0.035,-0.366C0.035,-0.39 0.04,-0.413 0.051,-0.434C0.062,-0.455 0.078,-0.473 0.098,-0.489C0.118,-0.504 0.143,-0.517 0.171,-0.525C0.2,-0.534 0.231,-0.538 0.267,-0.538C0.309,-0.538 0.346,-0.531 0.379,-0.517C0.412,-0.503 0.438,-0.482 0.458,-0.454C0.477,-0.427 0.486,-0.392 0.486,-0.35L0.486,-0.133C0.486,-0.099 0.488,-0.073 0.492,-0.055C0.496,-0.037 0.502,-0.022 0.509,-0.008L0.509,-0L0.344,-0C0.336,-0.016 0.33,-0.036 0.326,-0.06C0.323,-0.083 0.321,-0.108 0.321,-0.133ZM0.341,-0.323L0.342,-0.235L0.269,-0.235C0.254,-0.235 0.241,-0.233 0.23,-0.229C0.22,-0.224 0.211,-0.219 0.205,-0.211C0.198,-0.204 0.194,-0.196 0.191,-0.187C0.188,-0.177 0.187,-0.168 0.187,-0.158C0.187,-0.148 0.189,-0.139 0.194,-0.132C0.199,-0.124 0.205,-0.118 0.213,-0.114C0.222,-0.11 0.231,-0.107 0.241,-0.107C0.259,-0.107 0.274,-0.111 0.287,-0.118C0.3,-0.125 0.31,-0.133 0.317,-0.144C0.324,-0.154 0.327,-0.163 0.327,-0.172L0.363,-0.104C0.357,-0.091 0.349,-0.078 0.341,-0.065C0.333,-0.052 0.323,-0.039 0.31,-0.028C0.298,-0.017 0.283,-0.008 0.266,-0.001C0.248,0.006 0.227,0.01 0.202,0.01C0.169,0.01 0.139,0.003 0.112,-0.01C0.085,-0.024 0.063,-0.042 0.047,-0.066C0.031,-0.09 0.022,-0.118 0.022,-0.149C0.022,-0.176 0.027,-0.201 0.037,-0.222C0.047,-0.244 0.062,-0.262 0.083,-0.277C0.103,-0.292 0.128,-0.303 0.16,-0.311C0.191,-0.319 0.228,-0.323 0.27,-0.323L0.341,-0.323Z" style="fill:white;fill-rule:nonzero;"/>
                    </g>
                    <g transform="matrix(37.1888,0,0,37.1888,235.62,275.12)">
                        <path d="M0.212,-0.417L0.212,-0L0.048,-0L0.048,-0.528L0.202,-0.528L0.212,-0.417ZM0.192,-0.282L0.155,-0.281C0.155,-0.318 0.159,-0.353 0.168,-0.384C0.177,-0.415 0.19,-0.442 0.207,-0.465C0.224,-0.488 0.246,-0.506 0.271,-0.519C0.296,-0.532 0.325,-0.538 0.358,-0.538C0.382,-0.538 0.403,-0.535 0.421,-0.528C0.44,-0.521 0.457,-0.51 0.47,-0.495C0.484,-0.48 0.494,-0.461 0.502,-0.437C0.509,-0.414 0.513,-0.385 0.513,-0.353L0.513,-0L0.348,-0L0.348,-0.332C0.348,-0.354 0.346,-0.371 0.341,-0.382C0.336,-0.394 0.328,-0.401 0.319,-0.405C0.309,-0.409 0.298,-0.411 0.284,-0.411C0.27,-0.411 0.257,-0.408 0.246,-0.401C0.234,-0.395 0.225,-0.386 0.217,-0.374C0.209,-0.363 0.203,-0.349 0.198,-0.333C0.194,-0.318 0.192,-0.301 0.192,-0.282ZM0.494,-0.282L0.448,-0.281C0.448,-0.318 0.452,-0.353 0.461,-0.384C0.469,-0.415 0.482,-0.442 0.498,-0.465C0.515,-0.488 0.536,-0.506 0.561,-0.519C0.586,-0.532 0.615,-0.538 0.648,-0.538C0.673,-0.538 0.695,-0.535 0.715,-0.527C0.735,-0.52 0.752,-0.509 0.767,-0.493C0.782,-0.477 0.793,-0.456 0.801,-0.429C0.809,-0.403 0.813,-0.371 0.813,-0.333L0.813,-0L0.648,-0L0.648,-0.333C0.648,-0.354 0.646,-0.371 0.641,-0.382C0.636,-0.393 0.629,-0.401 0.619,-0.405C0.61,-0.409 0.598,-0.411 0.585,-0.411C0.57,-0.411 0.556,-0.408 0.545,-0.401C0.534,-0.395 0.524,-0.386 0.516,-0.374C0.509,-0.363 0.503,-0.349 0.5,-0.333C0.496,-0.318 0.494,-0.301 0.494,-0.282Z" style="fill:white;fill-rule:nonzero;"/>
                    </g>
                    <g transform="matrix(37.1888,0,0,37.1888,267.642,275.12)">
                        <path d="M0.212,-0.427L0.212,0.203L0.048,0.203L0.048,-0.528L0.201,-0.528L0.212,-0.427ZM0.537,-0.271L0.537,-0.26C0.537,-0.222 0.532,-0.186 0.523,-0.153C0.515,-0.12 0.502,-0.092 0.484,-0.067C0.467,-0.043 0.446,-0.024 0.42,-0.01C0.395,0.003 0.365,0.01 0.332,0.01C0.3,0.01 0.273,0.003 0.25,-0.011C0.227,-0.025 0.208,-0.045 0.193,-0.069C0.178,-0.094 0.165,-0.122 0.156,-0.154C0.146,-0.186 0.139,-0.22 0.133,-0.255L0.133,-0.269C0.139,-0.307 0.146,-0.342 0.156,-0.375C0.165,-0.407 0.178,-0.436 0.193,-0.46C0.208,-0.485 0.227,-0.504 0.25,-0.518C0.272,-0.531 0.299,-0.538 0.331,-0.538C0.365,-0.538 0.394,-0.532 0.42,-0.519C0.445,-0.506 0.467,-0.488 0.484,-0.465C0.502,-0.441 0.515,-0.413 0.523,-0.38C0.532,-0.347 0.537,-0.311 0.537,-0.271ZM0.372,-0.26L0.372,-0.271C0.372,-0.291 0.371,-0.31 0.368,-0.327C0.365,-0.344 0.36,-0.359 0.354,-0.372C0.347,-0.384 0.339,-0.394 0.329,-0.401C0.318,-0.408 0.305,-0.411 0.29,-0.411C0.272,-0.411 0.258,-0.408 0.246,-0.403C0.234,-0.398 0.225,-0.39 0.218,-0.379C0.211,-0.368 0.206,-0.354 0.203,-0.338C0.2,-0.322 0.199,-0.303 0.199,-0.282L0.199,-0.242C0.199,-0.217 0.201,-0.195 0.207,-0.177C0.212,-0.158 0.222,-0.143 0.235,-0.133C0.249,-0.122 0.268,-0.117 0.291,-0.117C0.307,-0.117 0.32,-0.121 0.33,-0.128C0.34,-0.135 0.349,-0.146 0.355,-0.159C0.361,-0.172 0.366,-0.187 0.368,-0.205C0.371,-0.222 0.372,-0.24 0.372,-0.26Z" style="fill:white;fill-rule:nonzero;"/>
                    </g>
                    <g transform="matrix(37.1888,0,0,37.1888,288.569,275.12)">
                        <rect x="0.055" y="-0.75" width="0.165" height="0.75" style="fill:white;fill-rule:nonzero;"/>
                    </g>
                    <g transform="matrix(37.1888,0,0,37.1888,298.782,275.12)">
                        <path d="M0.302,0.01C0.259,0.01 0.221,0.003 0.187,-0.01C0.153,-0.024 0.125,-0.043 0.101,-0.066C0.078,-0.09 0.06,-0.118 0.048,-0.148C0.036,-0.179 0.03,-0.212 0.03,-0.247L0.03,-0.265C0.03,-0.304 0.035,-0.34 0.046,-0.373C0.057,-0.406 0.073,-0.435 0.094,-0.459C0.115,-0.484 0.141,-0.503 0.173,-0.517C0.205,-0.531 0.242,-0.538 0.285,-0.538C0.322,-0.538 0.356,-0.532 0.385,-0.52C0.415,-0.508 0.44,-0.491 0.461,-0.468C0.481,-0.446 0.497,-0.419 0.508,-0.387C0.519,-0.355 0.524,-0.319 0.524,-0.279L0.524,-0.212L0.093,-0.212L0.093,-0.315L0.364,-0.315L0.364,-0.328C0.364,-0.346 0.361,-0.361 0.355,-0.373C0.348,-0.385 0.339,-0.395 0.327,-0.401C0.315,-0.408 0.3,-0.411 0.283,-0.411C0.265,-0.411 0.251,-0.407 0.239,-0.399C0.227,-0.392 0.219,-0.381 0.212,-0.367C0.206,-0.354 0.201,-0.338 0.199,-0.321C0.196,-0.303 0.195,-0.285 0.195,-0.265L0.195,-0.247C0.195,-0.227 0.198,-0.209 0.203,-0.193C0.208,-0.177 0.216,-0.164 0.226,-0.153C0.237,-0.141 0.249,-0.133 0.263,-0.126C0.278,-0.12 0.294,-0.117 0.313,-0.117C0.335,-0.117 0.358,-0.121 0.379,-0.13C0.401,-0.138 0.42,-0.152 0.436,-0.172L0.51,-0.083C0.5,-0.068 0.484,-0.053 0.465,-0.039C0.445,-0.024 0.421,-0.013 0.394,-0.004C0.367,0.005 0.336,0.01 0.302,0.01Z" style="fill:white;fill-rule:nonzero;"/>
                    </g>
                    <g transform="matrix(37.1888,0,0,37.1888,319.038,275.12)">
                    </g>
                    <g transform="matrix(37.1888,0,0,37.1888,328.298,275.12)">
                        <path d="M0.059,-0.275L0.059,-0.289C0.059,-0.356 0.066,-0.418 0.08,-0.473C0.094,-0.529 0.112,-0.578 0.136,-0.62C0.159,-0.662 0.185,-0.697 0.214,-0.724C0.243,-0.752 0.272,-0.772 0.303,-0.784L0.333,-0.703C0.315,-0.69 0.298,-0.672 0.281,-0.649C0.263,-0.626 0.248,-0.597 0.234,-0.564C0.221,-0.53 0.21,-0.491 0.202,-0.446C0.194,-0.401 0.19,-0.349 0.19,-0.29L0.19,-0.274C0.19,-0.216 0.194,-0.164 0.202,-0.119C0.21,-0.073 0.221,-0.034 0.234,-0C0.248,0.033 0.263,0.061 0.281,0.084C0.298,0.107 0.315,0.125 0.333,0.139L0.303,0.22C0.272,0.207 0.243,0.187 0.214,0.16C0.185,0.132 0.159,0.097 0.136,0.055C0.112,0.013 0.094,-0.036 0.08,-0.091C0.066,-0.147 0.059,-0.208 0.059,-0.275Z" style="fill:white;fill-rule:nonzero;"/>
                    </g>
                    <g transform="matrix(37.1888,0,0,37.1888,341.416,275.12)">
                        <path d="M0.212,-0.427L0.212,0.203L0.048,0.203L0.048,-0.528L0.201,-0.528L0.212,-0.427ZM0.537,-0.271L0.537,-0.26C0.537,-0.222 0.532,-0.186 0.523,-0.153C0.515,-0.12 0.502,-0.092 0.484,-0.067C0.467,-0.043 0.446,-0.024 0.42,-0.01C0.395,0.003 0.365,0.01 0.332,0.01C0.3,0.01 0.273,0.003 0.25,-0.011C0.227,-0.025 0.208,-0.045 0.193,-0.069C0.178,-0.094 0.165,-0.122 0.156,-0.154C0.146,-0.186 0.139,-0.22 0.133,-0.255L0.133,-0.269C0.139,-0.307 0.146,-0.342 0.156,-0.375C0.165,-0.407 0.178,-0.436 0.193,-0.46C0.208,-0.485 0.227,-0.504 0.25,-0.518C0.272,-0.531 0.299,-0.538 0.331,-0.538C0.365,-0.538 0.394,-0.532 0.42,-0.519C0.445,-0.506 0.467,-0.488 0.484,-0.465C0.502,-0.441 0.515,-0.413 0.523,-0.38C0.532,-0.347 0.537,-0.311 0.537,-0.271ZM0.372,-0.26L0.372,-0.271C0.372,-0.291 0.371,-0.31 0.368,-0.327C0.365,-0.344 0.36,-0.359 0.354,-0.372C0.347,-0.384 0.339,-0.394 0.329,-0.401C0.318,-0.408 0.305,-0.411 0.29,-0.411C0.272,-0.411 0.258,-0.408 0.246,-0.403C0.234,-0.398 0.225,-0.39 0.218,-0.379C0.211,-0.368 0.206,-0.354 0.203,-0.338C0.2,-0.322 0.199,-0.303 0.199,-0.282L0.199,-0.242C0.199,-0.217 0.201,-0.195 0.207,-0.177C0.212,-0.158 0.222,-0.143 0.235,-0.133C0.249,-0.122 0.268,-0.117 0.291,-0.117C0.307,-0.117 0.32,-0.121 0.33,-0.128C0.34,-0.135 0.349,-0.146 0.355,-0.159C0.361,-0.172 0.366,-0.187 0.368,-0.205C0.371,-0.222 0.372,-0.24 0.372,-0.26Z" style="fill:white;fill-rule:nonzero;"/>
                    </g>
                    <g transform="matrix(37.1888,0,0,37.1888,362.343,275.12)">
                        <path d="M0.321,-0.133L0.321,-0.351C0.321,-0.366 0.319,-0.378 0.314,-0.389C0.31,-0.4 0.304,-0.408 0.294,-0.414C0.285,-0.42 0.273,-0.423 0.258,-0.423C0.245,-0.423 0.235,-0.421 0.226,-0.417C0.217,-0.413 0.211,-0.406 0.206,-0.398C0.201,-0.389 0.199,-0.379 0.199,-0.366L0.035,-0.366C0.035,-0.39 0.04,-0.413 0.051,-0.434C0.062,-0.455 0.078,-0.473 0.098,-0.489C0.118,-0.504 0.143,-0.517 0.171,-0.525C0.2,-0.534 0.231,-0.538 0.267,-0.538C0.309,-0.538 0.346,-0.531 0.379,-0.517C0.412,-0.503 0.438,-0.482 0.458,-0.454C0.477,-0.427 0.486,-0.392 0.486,-0.35L0.486,-0.133C0.486,-0.099 0.488,-0.073 0.492,-0.055C0.496,-0.037 0.502,-0.022 0.509,-0.008L0.509,-0L0.344,-0C0.336,-0.016 0.33,-0.036 0.326,-0.06C0.323,-0.083 0.321,-0.108 0.321,-0.133ZM0.341,-0.323L0.342,-0.235L0.269,-0.235C0.254,-0.235 0.241,-0.233 0.23,-0.229C0.22,-0.224 0.211,-0.219 0.205,-0.211C0.198,-0.204 0.194,-0.196 0.191,-0.187C0.188,-0.177 0.187,-0.168 0.187,-0.158C0.187,-0.148 0.189,-0.139 0.194,-0.132C0.199,-0.124 0.205,-0.118 0.213,-0.114C0.222,-0.11 0.231,-0.107 0.241,-0.107C0.259,-0.107 0.274,-0.111 0.287,-0.118C0.3,-0.125 0.31,-0.133 0.317,-0.144C0.324,-0.154 0.327,-0.163 0.327,-0.172L0.363,-0.104C0.357,-0.091 0.349,-0.078 0.341,-0.065C0.333,-0.052 0.323,-0.039 0.31,-0.028C0.298,-0.017 0.283,-0.008 0.266,-0.001C0.248,0.006 0.227,0.01 0.202,0.01C0.169,0.01 0.139,0.003 0.112,-0.01C0.085,-0.024 0.063,-0.042 0.047,-0.066C0.031,-0.09 0.022,-0.118 0.022,-0.149C0.022,-0.176 0.027,-0.201 0.037,-0.222C0.047,-0.244 0.062,-0.262 0.083,-0.277C0.103,-0.292 0.128,-0.303 0.16,-0.311C0.191,-0.319 0.228,-0.323 0.27,-0.323L0.341,-0.323Z" style="fill:white;fill-rule:nonzero;"/>
                    </g>
                    <g transform="matrix(37.1888,0,0,37.1888,382.09,275.12)">
                        <path d="M0.212,-0.397L0.212,-0L0.048,-0L0.048,-0.528L0.202,-0.528L0.212,-0.397ZM0.369,-0.532L0.366,-0.379C0.359,-0.38 0.35,-0.381 0.339,-0.382C0.328,-0.383 0.319,-0.383 0.312,-0.383C0.292,-0.383 0.276,-0.381 0.262,-0.377C0.248,-0.372 0.237,-0.366 0.228,-0.357C0.219,-0.349 0.212,-0.338 0.208,-0.325C0.204,-0.312 0.202,-0.297 0.203,-0.279L0.173,-0.299C0.173,-0.334 0.176,-0.367 0.183,-0.396C0.19,-0.425 0.2,-0.45 0.213,-0.471C0.226,-0.493 0.242,-0.509 0.261,-0.521C0.279,-0.532 0.3,-0.538 0.323,-0.538C0.331,-0.538 0.339,-0.538 0.347,-0.537C0.355,-0.536 0.362,-0.534 0.369,-0.532Z" style="fill:white;fill-rule:nonzero;"/>
                    </g>
                    <g transform="matrix(37.1888,0,0,37.1888,397.079,275.12)">
                        <path d="M0.325,-0.528L0.325,-0.414L0.006,-0.414L0.006,-0.528L0.325,-0.528ZM0.073,-0.66L0.238,-0.66L0.238,-0.172C0.238,-0.158 0.239,-0.148 0.243,-0.14C0.246,-0.132 0.252,-0.127 0.26,-0.124C0.267,-0.121 0.278,-0.119 0.292,-0.119C0.301,-0.119 0.309,-0.119 0.315,-0.12C0.321,-0.12 0.327,-0.121 0.333,-0.122L0.333,-0.004C0.319,0 0.304,0.004 0.289,0.006C0.273,0.009 0.257,0.01 0.24,0.01C0.205,0.01 0.175,0.004 0.15,-0.007C0.125,-0.018 0.106,-0.035 0.093,-0.059C0.08,-0.083 0.073,-0.114 0.073,-0.152L0.073,-0.66Z" style="fill:white;fill-rule:nonzero;"/>
                    </g>
                    <g transform="matrix(37.1888,0,0,37.1888,409.853,275.12)">
                        <path d="M0.22,-0.528L0.22,-0L0.055,-0L0.055,-0.528L0.22,-0.528ZM0.045,-0.665C0.045,-0.688 0.054,-0.707 0.071,-0.722C0.088,-0.737 0.11,-0.745 0.137,-0.745C0.164,-0.745 0.186,-0.737 0.203,-0.722C0.22,-0.707 0.228,-0.688 0.228,-0.665C0.228,-0.641 0.22,-0.622 0.203,-0.607C0.186,-0.592 0.164,-0.584 0.137,-0.584C0.11,-0.584 0.088,-0.592 0.071,-0.607C0.054,-0.622 0.045,-0.641 0.045,-0.665Z" style="fill:white;fill-rule:nonzero;"/>
                    </g>
                    <g transform="matrix(37.1888,0,0,37.1888,420.067,275.12)">
                        <path d="M0.321,-0.133L0.321,-0.351C0.321,-0.366 0.319,-0.378 0.314,-0.389C0.31,-0.4 0.304,-0.408 0.294,-0.414C0.285,-0.42 0.273,-0.423 0.258,-0.423C0.245,-0.423 0.235,-0.421 0.226,-0.417C0.217,-0.413 0.211,-0.406 0.206,-0.398C0.201,-0.389 0.199,-0.379 0.199,-0.366L0.035,-0.366C0.035,-0.39 0.04,-0.413 0.051,-0.434C0.062,-0.455 0.078,-0.473 0.098,-0.489C0.118,-0.504 0.143,-0.517 0.171,-0.525C0.2,-0.534 0.231,-0.538 0.267,-0.538C0.309,-0.538 0.346,-0.531 0.379,-0.517C0.412,-0.503 0.438,-0.482 0.458,-0.454C0.477,-0.427 0.486,-0.392 0.486,-0.35L0.486,-0.133C0.486,-0.099 0.488,-0.073 0.492,-0.055C0.496,-0.037 0.502,-0.022 0.509,-0.008L0.509,-0L0.344,-0C0.336,-0.016 0.33,-0.036 0.326,-0.06C0.323,-0.083 0.321,-0.108 0.321,-0.133ZM0.341,-0.323L0.342,-0.235L0.269,-0.235C0.254,-0.235 0.241,-0.233 0.23,-0.229C0.22,-0.224 0.211,-0.219 0.205,-0.211C0.198,-0.204 0.194,-0.196 0.191,-0.187C0.188,-0.177 0.187,-0.168 0.187,-0.158C0.187,-0.148 0.189,-0.139 0.194,-0.132C0.199,-0.124 0.205,-0.118 0.213,-0.114C0.222,-0.11 0.231,-0.107 0.241,-0.107C0.259,-0.107 0.274,-0.111 0.287,-0.118C0.3,-0.125 0.31,-0.133 0.317,-0.144C0.324,-0.154 0.327,-0.163 0.327,-0.172L0.363,-0.104C0.357,-0.091 0.349,-0.078 0.341,-0.065C0.333,-0.052 0.323,-0.039 0.31,-0.028C0.298,-0.017 0.283,-0.008 0.266,-0.001C0.248,0.006 0.227,0.01 0.202,0.01C0.169,0.01 0.139,0.003 0.112,-0.01C0.085,-0.024 0.063,-0.042 0.047,-0.066C0.031,-0.09 0.022,-0.118 0.022,-0.149C0.022,-0.176 0.027,-0.201 0.037,-0.222C0.047,-0.244 0.062,-0.262 0.083,-0.277C0.103,-0.292 0.128,-0.303 0.16,-0.311C0.191,-0.319 0.228,-0.323 0.27,-0.323L0.341,-0.323Z" style="fill:white;fill-rule:nonzero;"/>
                    </g>
                    <g transform="matrix(37.1888,0,0,37.1888,439.814,275.12)">
                        <rect x="0.055" y="-0.75" width="0.165" height="0.75" style="fill:white;fill-rule:nonzero;"/>
                    </g>
                    <g transform="matrix(37.1888,0,0,37.1888,450.027,275.12)">
                        <path d="M0.306,-0.289L0.306,-0.275C0.306,-0.211 0.298,-0.152 0.284,-0.097C0.269,-0.042 0.25,0.007 0.226,0.05C0.201,0.093 0.174,0.129 0.144,0.158C0.114,0.187 0.083,0.207 0.051,0.22L0.02,0.139C0.038,0.125 0.055,0.107 0.073,0.084C0.09,0.061 0.105,0.033 0.119,-0C0.132,-0.034 0.143,-0.073 0.151,-0.119C0.159,-0.164 0.163,-0.216 0.163,-0.274L0.163,-0.29C0.163,-0.349 0.159,-0.401 0.151,-0.446C0.143,-0.491 0.132,-0.53 0.119,-0.564C0.105,-0.597 0.09,-0.626 0.073,-0.649C0.055,-0.672 0.038,-0.69 0.02,-0.703L0.051,-0.784C0.083,-0.772 0.114,-0.752 0.144,-0.723C0.174,-0.694 0.201,-0.658 0.226,-0.615C0.25,-0.572 0.269,-0.523 0.284,-0.468C0.298,-0.413 0.306,-0.353 0.306,-0.289Z" style="fill:white;fill-rule:nonzero;"/>
                    </g>
                    <g transform="matrix(37.1888,0,0,37.1888,463.138,275.12)">
                    </g>
                </g>
                <g transform="matrix(0.24,0,0,0.24,197.84,204.219)">
                    <text x="260.316px" y="290.584px" style="font-family:'Roboto-Regular', 'Roboto';font-size:29.167px;fill:white;">Integr<tspan x="335.007px " y="290.584px ">a</tspan>ted instructi<tspan x="505.116px " y="290.584px ">o</tspan>ns</text>
                    <text x="260.316px" y="378.751px" style="font-family:'Roboto-Regular', 'Roboto';font-size:29.167px;fill:white;">Sub-goals labels <tspan x="480.486px " y="378.751px ">h</tspan>ighlighting</text>
                    <text x="260.316px" y="413.751px" style="font-family:'Roboto-Regular', 'Roboto';font-size:29.167px;fill:white;">stages in the soluti<tspan x="505.04px " y="413.751px ">o</tspan>n</text>
                    <text x="260.316px" y="503.751px" style="font-family:'Roboto-Regular', 'Roboto';font-size:29.167px;fill:white;">Comments used a<tspan x="496.54px " y="503.751px ">s</tspan> questions</text>
                    <g transform="matrix(29.1667,0,0,29.1667,341.28,538.751)">
                    </g>
                    <g transform="matrix(29.1667,0,0,29.1667,351.02,538.751)">
                    </g>
                    <text x="260.316px" y="538.751px" style="font-family:'Roboto-Regular', 'Roboto';font-size:29.167px;fill:white;">and reﬂecti<tspan x="405.141px " y="538.751px ">o</tspan>n pr<tspan x="471.027px " y="538.751px ">o</tspan>mpts</text>
                    <text x="260.316px" y="619.793px" style="font-family:'Roboto-Regular', 'Roboto';font-size:29.167px;fill:white;">Incomplete <tspan x="412.909px " y="619.793px ">e</tspan>lements fo<tspan x="566.584px " y="619.793px ">r</tspan></text>
                    <g transform="matrix(29.1667,0,0,29.1667,499.011,654.793)">
                    </g>
                    <text x="260.316px" y="654.793px" style="font-family:'Roboto-Regular', 'Roboto';font-size:29.167px;fill:white;">learners t<tspan x="381.494px " y="654.793px ">o</tspan> resolve</text>
                </g>
                <g transform="matrix(0.24,0,0,0.24,187.961,302.421)">
                    <text x="247.317px" y="419.797px" style="font-family:'Roboto-Regular', 'Roboto';font-size:29.167px;fill:white;">P<tspan x="265.52px " y="419.797px ">o</tspan>ssible pr<tspan x="391.392px " y="419.797px ">o</tspan>blems foc<tspan x="536.761px " y="419.797px ">u</tspan>ssed</text>
                    <g transform="matrix(29.1667,0,0,29.1667,287.259,454.797)">
                    </g>
                    <g transform="matrix(29.1667,0,0,29.1667,296.765,454.797)">
                    </g>
                    <g transform="matrix(29.1667,0,0,29.1667,465.35,454.797)">
                    </g>
                    <text x="247.317px" y="454.797px" style="font-family:'Roboto-Regular', 'Roboto';font-size:29.167px;fill:white;">on ﬁnite <tspan x="358.795px " y="454.797px ">i</tspan>ter<tspan x="400.159px " y="454.797px ">a</tspan>tion</text>
                </g>
                <g transform="matrix(0.24,0,0,0.24,29.6163,327.936)">
                    <g transform="matrix(29.1667,0,0,29.1667,700.233,453.369)">
                    </g>
                    <text x="38.969px" y="453.369px" style="font-family:'Roboto-Regular', 'Roboto';font-size:29.167px;fill:white;">Pr<tspan x="66.954px " y="453.369px ">o</tspan>duct-oriented<tspan x="255.52px " y="453.369px "> </tspan>worked example w<tspan x="504.483px " y="453.369px ">r</tspan>itten in Python</text>
                </g>
                <g transform="matrix(0.24,0,0,0.24,34.7767,299.328)">
                    <text x="45.759px" y="415.728px" style="font-family:'Roboto-Regular', 'Roboto';font-size:29.167px;fill:rgb(37,19,69);">W<tspan x="71.326px " y="415.728px ">r</tspan>ite a pr<tspan x="169.542px " y="415.728px ">o</tspan>gr<tspan x="211.838px " y="415.728px ">a</tspan>m that</text>
                    <text x="45.759px" y="450.728px" style="font-family:'Roboto-Regular', 'Roboto';font-size:29.167px;fill:rgb(37,19,69);">uses a loop<tspan x="194.376px 201.606px 210.852px " y="450.728px 450.728px 450.728px "> to</tspan> dr<tspan x="260.447px " y="450.728px ">a</tspan>w</text>
                    <g transform="matrix(29.1667,0,0,29.1667,360.937,485.728)">
                    </g>
                    <text x="45.759px" y="485.728px" style="font-family:'Roboto-Regular', 'Roboto';font-size:29.167px;fill:rgb(37,19,69);">another reg<tspan x="194.181px " y="485.728px ">u</tspan>lar polygo<tspan x="337.149px " y="485.728px ">n</tspan>.</text>
                </g>
                <g transform="matrix(0.24,0,0,0.24,105.458,299.328)">
                    <text x="138.761px" y="415.728px" style="font-family:'Roboto-Regular', 'Roboto';font-size:29.167px;fill:rgb(37,19,69);">Make a pr<tspan x="266.604px " y="415.728px ">o</tspan>gr<tspan x="308.898px " y="415.728px ">a</tspan>m that</text>
                    <text x="138.761px" y="450.728px" style="font-family:'Roboto-Regular', 'Roboto';font-size:29.167px;fill:rgb(37,19,69);">prints the mes<tspan x="324.349px " y="450.728px ">s</tspan>age &quot;Hip</text>
                    <g transform="matrix(29.1667,0,0,29.1667,461.267,485.728)">
                    </g>
                    <text x="138.761px" y="485.728px" style="font-family:'Roboto-Regular', 'Roboto';font-size:29.167px;fill:rgb(37,19,69);">Hip Hoor<tspan x="253.565px " y="485.728px ">a</tspan>y!&quot; three t<tspan x="390.423px " y="485.728px ">i</tspan>mes.</text>
                </g>
                <g transform="matrix(0.24,0,0,0.24,37.0567,204.15)">
                    <text x="48.759px" y="287.368px" style="font-family:'RobotoMono-Regular', 'Roboto Mono', monospace;font-size:25px;fill:rgb(42,120,59);">#Use a turtle object and a finite loop to</text>
                    <text x="48.759px" y="317.368px" style="font-family:'RobotoMono-Regular', 'Roboto Mono', monospace;font-size:25px;fill:rgb(42,120,59);">#draw a square with two sides 100 pixels <tspan x="663.759px " y="317.368px ">l</tspan>ong.</text>
                    <text x="48.759px" y="377.368px" style="font-family:'RobotoMono-Regular', 'Roboto Mono', monospace;font-size:25px;fill:rgb(42,120,59);">#Add required functions</text>
                    <text x="48.759px" y="407.368px" style="font-family:'RobotoMono-Regular', 'Roboto Mono', monospace;font-size:25px;fill:rgb(79,45,119);">from</text>
                    <text x="123.791px" y="407.368px" style="font-family:'RobotoMono-Regular', 'Roboto Mono', monospace;font-size:25px;fill:rgb(64,63,65);">turtle</text>
                    <text x="228.828px" y="407.368px" style="font-family:'RobotoMono-Regular', 'Roboto Mono', monospace;font-size:25px;fill:rgb(79,45,119);">import</text>
                    <text x="333.865px" y="407.368px" style="font-family:'RobotoMono-Regular', 'Roboto Mono', monospace;font-size:25px;fill:rgb(64,63,65);">Turtle</text>
                    <text x="48.784px" y="467.368px" style="font-family:'RobotoMono-Regular', 'Roboto Mono', monospace;font-size:25px;fill:rgb(42,120,59);"># Initialise a turtle object</text>
                    <text x="48.784px" y="497.368px" style="font-family:'RobotoMono-Regular', 'Roboto Mono', monospace;font-size:25px;fill:rgb(64,63,65);">t = turtle</text>
                    <text x="48.784px" y="557.368px" style="font-family:'RobotoMono-Regular', 'Roboto Mono', monospace;font-size:25px;fill:rgb(42,120,59);"># Move/turn once per side</text>
                    <text x="48.784px" y="587.368px" style="font-family:'RobotoMono-Regular', 'Roboto Mono', monospace;font-size:25px;fill:rgb(79,45,119);">for</text>
                    <text x="108.811px" y="587.368px" style="font-family:'RobotoMono-Regular', 'Roboto Mono', monospace;font-size:25px;fill:rgb(64,63,65);">side</text>
                    <text x="183.839px" y="587.368px" style="font-family:'RobotoMono-Regular', 'Roboto Mono', monospace;font-size:25px;fill:rgb(79,45,119);">in</text>
                    <text x="228.865px" y="587.368px" style="font-family:'RobotoMono-Regular', 'Roboto Mono', monospace;font-size:25px;fill:rgb(64,63,65);">range ( <tspan x="363.811px " y="587.368px ">)</tspan>:</text>
                    <text x="408.836px" y="587.368px" style="font-family:'RobotoMono-Regular', 'Roboto Mono', monospace;font-size:25px;fill:rgb(42,120,59);"># &lt;- What value here?</text>
                    <text x="93.759px" y="617.368px" style="font-family:'RobotoMono-Regular', 'Roboto Mono', monospace;font-size:25px;fill:rgb(64,63,65);">t.forward( <tspan x="273.78px " y="617.368px ">)</tspan></text>
                    <text x="93.759px" y="647.368px" style="font-family:'RobotoMono-Regular', 'Roboto Mono', monospace;font-size:25px;fill:rgb(64,63,65);">t.right(</text>
                    <text x="213.779px" y="647.368px" style="font-family:'RobotoMono-Regular', 'Roboto Mono', monospace;font-size:25px;fill:rgb(44,48,120);">90</text>
                    <g transform="matrix(25,0,0,25,258.786,647.368)">
                    </g>
                    <text x="243.784px" y="647.368px" style="font-family:'RobotoMono-Regular', 'Roboto Mono', monospace;font-size:25px;fill:rgb(64,63,65);">)</text>
                </g>
                <g transform="matrix(1,0,0,1,215.96,271.539)">
                    <path d="M0,0L40.972,0" style="fill:none;fill-rule:nonzero;stroke:rgb(44,48,120);stroke-width:1px;"/>
                </g>
                <g transform="matrix(1,0,0,1,138.993,293.198)">
                    <path d="M0,0L117.972,0" style="fill:none;fill-rule:nonzero;stroke:rgb(44,48,120);stroke-width:1px;"/>
                </g>
                <g transform="matrix(1,0,0,1,156.946,293.198)">
                    <path d="M0,21.021L36.972,21.021L36.972,0" style="fill:none;fill-rule:nonzero;stroke:rgb(44,48,120);stroke-width:1px;"/>
                </g>
                <g transform="matrix(1,0,0,1,217.345,322.593)">
                    <path d="M0,20.394L25.523,20.394L25.523,0L39.587,0" style="fill:none;fill-rule:nonzero;stroke:rgb(44,48,120);stroke-width:1px;"/>
                </g>
                <g transform="matrix(1,0,0,1,117.859,346.675)">
                    <path d="M0,0L5.78,0" style="fill:none;fill-rule:nonzero;stroke:rgb(141,37,49);stroke-width:0.5px;"/>
                </g>
                <g transform="matrix(1,0,0,1,96.3024,353.446)">
                    <path d="M0,0L5.78,0" style="fill:none;fill-rule:nonzero;stroke:rgb(141,37,49);stroke-width:0.5px;"/>
                </g>
                <g transform="matrix(0,-1,-1,0,110.871,350.397)">
                    <path d="M-2.066,-2.066C-3.207,-2.066 -4.132,-1.141 -4.132,0C-4.132,1.141 -3.207,2.066 -2.066,2.066C-0.925,2.066 0,1.141 0,0C0,-1.141 -0.925,-2.066 -2.066,-2.066" style="fill:rgb(44,48,120);fill-rule:nonzero;"/>
                </g>
                <g transform="matrix(0,-1,-1,0,120.859,350.397)">
                    <path d="M-2.066,-2.066C-3.207,-2.066 -4.132,-1.141 -4.132,0C-4.132,1.141 -3.207,2.066 -2.066,2.066C-0.925,2.066 0,1.141 0,0C0,-1.141 -0.925,-2.066 -2.066,-2.066" style="fill:rgb(44,48,120);fill-rule:nonzero;"/>
                </g>
                <g transform="matrix(1,0,0,1,110.871,358.923)">
                    <path d="M0,-6.605L0,0L146.061,0" style="fill:none;fill-rule:nonzero;stroke:rgb(44,48,120);stroke-width:1px;"/>
                </g>
                <g transform="matrix(1,0,0,1,235.96,271.539)">
                    <path d="M0,0L20.972,0" style="fill:none;fill-rule:nonzero;stroke:white;stroke-width:1px;"/>
                </g>
                <g transform="matrix(1,0,0,1,235.993,293.198)">
                    <path d="M0,0L20.972,0" style="fill:none;fill-rule:nonzero;stroke:white;stroke-width:1px;"/>
                </g>
                <g transform="matrix(1,0,0,1,236.345,322.593)">
                    <path d="M0,20.394L6.523,20.394L6.523,0L20.587,0" style="fill:none;fill-rule:nonzero;stroke:white;stroke-width:1px;"/>
                </g>
                <g transform="matrix(1,0,0,1,235.871,358.923)">
                    <path d="M0,0L21.061,0" style="fill:none;fill-rule:nonzero;stroke:white;stroke-width:1px;"/>
                </g>
                <g transform="matrix(0,1,1,0,124.161,355.62)">
                    <path d="M-3.302,-3.302L3.302,-3.302" style="fill:none;fill-rule:nonzero;stroke:rgb(44,48,120);stroke-width:1px;"/>
                </g>
                <g transform="matrix(0,-1,-1,0,156.244,312.153)">
                    <path d="M-2.066,-2.066C-3.207,-2.066 -4.132,-1.141 -4.132,0C-4.132,1.141 -3.207,2.066 -2.066,2.066C-0.925,2.066 0,1.141 0,0C0,-1.141 -0.925,-2.066 -2.066,-2.066" style="fill:rgb(44,48,120);fill-rule:nonzero;"/>
                </g>
                <g transform="matrix(0,-1,-1,0,139.759,291.132)">
                    <path d="M-2.066,-2.066C-3.207,-2.066 -4.132,-1.141 -4.132,0C-4.132,1.141 -3.207,2.066 -2.066,2.066C-0.925,2.066 0,1.141 0,0C0,-1.141 -0.925,-2.066 -2.066,-2.066" style="fill:rgb(44,48,120);fill-rule:nonzero;"/>
                </g>
                <g transform="matrix(0,-1,-1,0,217.574,340.921)">
                    <path d="M-2.066,-2.066C-3.207,-2.066 -4.132,-1.141 -4.132,0C-4.132,1.141 -3.207,2.066 -2.066,2.066C-0.925,2.066 0,1.141 0,0C0,-1.141 -0.925,-2.066 -2.066,-2.066" style="fill:rgb(44,48,120);fill-rule:nonzero;"/>
                </g>
                <g transform="matrix(0,-1,-1,0,215.694,269.473)">
                    <path d="M-2.066,-2.066C-3.207,-2.066 -4.132,-1.141 -4.132,0C-4.132,1.141 -3.207,2.066 -2.066,2.066C-0.925,2.066 0,1.141 0,0C0,-1.141 -0.925,-2.066 -2.066,-2.066" style="fill:rgb(44,48,120);fill-rule:nonzero;"/>
                </g>
                <g transform="matrix(0,-1,-1,0,241.932,403.063)">
                    <path d="M-2.066,-2.066C-3.207,-2.066 -4.132,-1.141 -4.132,0C-4.132,1.141 -3.207,2.066 -2.066,2.066C-0.925,2.066 0,1.141 0,0C0,-1.141 -0.925,-2.066 -2.066,-2.066" style="fill:white;fill-rule:nonzero;"/>
                </g>
                <g transform="matrix(1,0,0,1,75.7847,380.974)">
                    <path d="M0,7.995L-2.308,3.997L-4.616,0L4.616,0L2.308,3.997L0,7.995Z" style="fill:white;fill-rule:nonzero;"/>
                </g>
                <g transform="matrix(1,0,0,1,77.6279,388.969)">
                    <path d="M0,-3.193L-1.843,0L-3.687,-3.193" style="fill:rgb(44,48,120);fill-rule:nonzero;"/>
                </g>
                <g transform="matrix(1,0,0,1,180.785,380.974)">
                    <path d="M0,7.995L-2.308,3.997L-4.616,0L4.616,0L2.308,3.997L0,7.995Z" style="fill:white;fill-rule:nonzero;"/>
                </g>
                <g transform="matrix(1,0,0,1,182.628,388.969)">
                    <path d="M0,-3.193L-1.843,0L-3.687,-3.193" style="fill:rgb(44,48,120);fill-rule:nonzero;"/>
                </g>
            </g>
        </g>
    </g>
</svg>
