<?xml version="1.0" encoding="UTF-8" standalone="no"?>
<!DOCTYPE svg PUBLIC "-//W3C//DTD SVG 1.1//EN" "http://www.w3.org/Graphics/SVG/1.1/DTD/svg11.dtd">
<svg width="100%" height="100%" viewBox="0 0 1081 436" version="1.1" xmlns="http://www.w3.org/2000/svg" xmlns:xlink="http://www.w3.org/1999/xlink" xml:space="preserve" xmlns:serif="http://www.serif.com/" style="fill-rule:evenodd;clip-rule:evenodd;stroke-linejoin:round;stroke-miterlimit:2;">
    <g id="Artboard1" transform="matrix(1,0,0,1,-1296.64,-680.769)">
        <rect x="1296.64" y="680.769" width="1080.39" height="435.596" style="fill:none;"/>
        <g id="Layer-1" serif:id="Layer 1" transform="matrix(4.16667,0,0,4.16667,0.64058,0.768893)">
            <g transform="matrix(1,0,0,1,560.22,166.525)">
                <path d="M0,97.838L-238.6,97.838C-242.786,97.838 -246.179,94.445 -246.179,90.259L-246.179,7.579C-246.179,3.393 -242.786,0 -238.6,0L0,0C4.186,0 7.579,3.393 7.579,7.579L7.579,90.259C7.579,94.445 4.186,97.838 0,97.838" style="fill:rgb(197,229,248);fill-rule:nonzero;"/>
            </g>
            <g transform="matrix(1,0,0,1,452.432,205.815)">
                <path d="M0,17.826L-16.789,17.826C-21.711,17.826 -25.702,13.836 -25.702,8.913C-25.702,3.991 -21.711,0 -16.789,0L0,0C4.922,0 8.913,3.991 8.913,8.913C8.913,13.836 4.922,17.826 0,17.826" style="fill:rgb(44,48,120);fill-rule:nonzero;"/>
            </g>
            <g transform="matrix(1,0,0,1,496.128,205.146)">
                <path d="M0,17.826L-16.789,17.826C-21.711,17.826 -25.702,13.836 -25.702,8.913C-25.702,3.991 -21.711,0 -16.789,0L0,0C4.922,0 8.913,3.991 8.913,8.913C8.913,13.836 4.922,17.826 0,17.826" style="fill:rgb(44,48,120);fill-rule:nonzero;"/>
            </g>
            <g transform="matrix(1,0,0,1,450.931,233.629)">
                <path d="M0,17.826L-16.789,17.826C-21.711,17.826 -25.702,13.836 -25.702,8.913C-25.702,3.991 -21.711,0 -16.789,0L0,0C4.922,0 8.913,3.991 8.913,8.913C8.913,13.836 4.922,17.826 0,17.826" style="fill:rgb(44,48,120);fill-rule:nonzero;"/>
            </g>
            <g transform="matrix(1,0,0,1,496.128,233.629)">
                <path d="M0,17.826L-16.789,17.826C-21.711,17.826 -25.702,13.836 -25.702,8.913C-25.702,3.991 -21.711,0 -16.789,0L0,0C4.922,0 8.913,3.991 8.913,8.913C8.913,13.836 4.922,17.826 0,17.826" style="fill:rgb(44,48,120);fill-rule:nonzero;"/>
            </g>
            <g transform="matrix(-1,0,0,1,726.802,-393.375)">
                <rect x="332.815" y="596.922" width="69.676" height="49.925" style="fill:white;"/>
            </g>
            <g transform="matrix(0.24,0,0,0.24,335.096,160.323)">
                <g transform="matrix(42.8092,0,0,42.8092,464.954,243.058)">
                </g>
                <text x="440.916px" y="243.058px" style="font-family:'Roboto-Regular', 'Roboto';font-size:42.809px;fill:rgb(241,242,242);">b</text>
            </g>
            <g transform="matrix(0.24,0,0,0.24,364.393,159.816)">
                <g transform="matrix(42.8092,0,0,42.8092,551.085,242.391)">
                </g>
                <text x="479.465px" y="242.391px" style="font-family:'Roboto-Regular', 'Roboto';font-size:42.809px;fill:rgb(241,242,242);">a+1</text>
            </g>
            <g transform="matrix(0.24,0,0,0.24,334.159,181.46)">
                <g transform="matrix(42.8092,0,0,42.8092,463.742,270.871)">
                </g>
                <text x="439.683px" y="270.871px" style="font-family:'Roboto-Regular', 'Roboto';font-size:42.809px;fill:rgb(241,242,242);">2</text>
            </g>
            <g transform="matrix(0.24,0,0,0.24,366.267,181.46)">
                <g transform="matrix(42.8092,0,0,42.8092,530.049,270.871)">
                </g>
                <text x="481.931px" y="270.871px" style="font-family:'Roboto-Regular', 'Roboto';font-size:42.809px;fill:rgb(241,242,242);">11</text>
            </g>
            <g transform="matrix(0.24,0,0,0.24,246.477,133.542)">
                <text x="324.311px" y="205.401px" style="font-family:'Roboto-Bold', 'Roboto';font-weight:700;font-size:39.583px;fill:rgb(22,49,90);">Read the P<tspan x="516.972px " y="205.401px ">y</tspan>thon</text>
                <text x="324.311px" y="257.485px" style="font-family:'Roboto-Bold', 'Roboto';font-weight:700;font-size:39.583px;fill:rgb(22,49,90);">pr<tspan x="360.474px " y="257.485px ">o</tspan>gr<tspan x="419.288px " y="257.485px ">a</tspan>m below:</text>
                <g transform="matrix(39.5833,0,0,39.5833,366.982,346.943)">
                    <path d="M0.458,-0L0.52,-0L0.52,-0.006C0.515,-0.022 0.511,-0.039 0.508,-0.057C0.505,-0.075 0.504,-0.093 0.503,-0.111L0.503,-0.366C0.503,-0.395 0.498,-0.42 0.487,-0.441C0.477,-0.463 0.462,-0.481 0.444,-0.495C0.426,-0.51 0.405,-0.52 0.38,-0.527C0.356,-0.535 0.33,-0.538 0.302,-0.538C0.274,-0.538 0.247,-0.534 0.223,-0.526C0.198,-0.519 0.177,-0.508 0.158,-0.494C0.139,-0.48 0.125,-0.464 0.114,-0.445C0.102,-0.426 0.097,-0.405 0.096,-0.383L0.154,-0.382C0.155,-0.399 0.159,-0.414 0.167,-0.427C0.176,-0.44 0.186,-0.451 0.199,-0.46C0.213,-0.469 0.228,-0.476 0.245,-0.481C0.262,-0.486 0.28,-0.489 0.299,-0.489C0.32,-0.489 0.339,-0.486 0.357,-0.481C0.374,-0.475 0.39,-0.468 0.403,-0.458C0.416,-0.447 0.426,-0.435 0.433,-0.419C0.441,-0.404 0.445,-0.387 0.445,-0.367L0.445,-0.308L0.331,-0.308C0.298,-0.307 0.266,-0.304 0.236,-0.298C0.206,-0.292 0.18,-0.283 0.157,-0.27C0.135,-0.256 0.117,-0.239 0.103,-0.217C0.09,-0.196 0.083,-0.17 0.083,-0.14C0.083,-0.118 0.088,-0.097 0.097,-0.078C0.106,-0.06 0.118,-0.044 0.134,-0.031C0.149,-0.018 0.168,-0.008 0.189,-0.001C0.211,0.006 0.234,0.01 0.258,0.01C0.278,0.01 0.297,0.008 0.315,0.004C0.333,-0 0.35,-0.006 0.366,-0.014C0.382,-0.021 0.397,-0.031 0.41,-0.042C0.424,-0.052 0.436,-0.065 0.446,-0.078C0.446,-0.064 0.448,-0.051 0.449,-0.037C0.451,-0.024 0.454,-0.012 0.458,-0ZM0.265,-0.042C0.248,-0.042 0.232,-0.045 0.217,-0.05C0.202,-0.054 0.189,-0.061 0.177,-0.07C0.166,-0.079 0.157,-0.09 0.151,-0.103C0.145,-0.115 0.141,-0.13 0.141,-0.146C0.141,-0.165 0.145,-0.182 0.154,-0.196C0.163,-0.209 0.175,-0.221 0.19,-0.23C0.208,-0.242 0.23,-0.25 0.256,-0.255C0.282,-0.259 0.31,-0.262 0.339,-0.262L0.445,-0.262L0.445,-0.146C0.438,-0.131 0.428,-0.116 0.416,-0.104C0.404,-0.091 0.39,-0.08 0.375,-0.071C0.359,-0.062 0.342,-0.055 0.323,-0.05C0.305,-0.045 0.285,-0.042 0.265,-0.042Z" style="fill:rgb(22,49,90);fill-rule:nonzero;"/>
                </g>
                <g transform="matrix(39.5833,0,0,39.5833,390.732,346.943)">
                </g>
                <g transform="matrix(39.5833,0,0,39.5833,414.482,346.943)">
                    <path d="M0.521,-0.396L0.521,-0.449L0.085,-0.449L0.085,-0.396L0.521,-0.396ZM0.521,-0.196L0.521,-0.248L0.085,-0.248L0.085,-0.196L0.521,-0.196Z" style="fill:rgb(22,49,90);fill-rule:nonzero;"/>
                </g>
                <g transform="matrix(39.5833,0,0,39.5833,438.232,346.943)">
                </g>
                <g transform="matrix(39.5833,0,0,39.5833,461.982,346.943)">
                    <path d="M0.363,-0L0.363,-0.711L0.354,-0.711L0.107,-0.608L0.107,-0.552L0.304,-0.636L0.304,-0L0.363,-0Z" style="fill:rgb(22,49,90);fill-rule:nonzero;"/>
                </g>
                <g transform="matrix(39.5833,0,0,39.5833,485.736,346.943)">
                </g>
                <g transform="matrix(39.5833,0,0,39.5833,366.982,406.068)">
                    <path d="M0.523,-0.259L0.523,-0.269C0.523,-0.293 0.521,-0.317 0.517,-0.34C0.514,-0.363 0.508,-0.385 0.5,-0.405C0.492,-0.424 0.483,-0.442 0.472,-0.458C0.461,-0.474 0.448,-0.488 0.433,-0.5C0.418,-0.512 0.4,-0.521 0.38,-0.528C0.361,-0.535 0.339,-0.538 0.314,-0.538C0.297,-0.538 0.28,-0.536 0.264,-0.532C0.248,-0.528 0.233,-0.522 0.219,-0.514C0.206,-0.507 0.195,-0.498 0.184,-0.488C0.173,-0.478 0.164,-0.467 0.156,-0.455L0.156,-0.75L0.097,-0.75L0.097,-0L0.152,-0L0.154,-0.069C0.162,-0.058 0.17,-0.049 0.18,-0.04C0.19,-0.032 0.2,-0.024 0.211,-0.018C0.226,-0.009 0.243,-0.002 0.26,0.003C0.278,0.007 0.296,0.01 0.315,0.01C0.338,0.01 0.359,0.007 0.377,0C0.396,-0.006 0.413,-0.014 0.427,-0.025C0.445,-0.038 0.46,-0.054 0.473,-0.072C0.485,-0.091 0.495,-0.111 0.503,-0.133C0.51,-0.153 0.515,-0.173 0.518,-0.194C0.522,-0.215 0.523,-0.237 0.523,-0.259ZM0.465,-0.269L0.465,-0.259C0.464,-0.242 0.463,-0.225 0.461,-0.208C0.459,-0.191 0.455,-0.175 0.45,-0.159C0.445,-0.142 0.438,-0.126 0.429,-0.111C0.42,-0.096 0.409,-0.083 0.396,-0.072C0.384,-0.063 0.371,-0.055 0.355,-0.05C0.34,-0.044 0.323,-0.042 0.304,-0.042C0.288,-0.042 0.272,-0.044 0.257,-0.048C0.241,-0.053 0.227,-0.059 0.214,-0.068C0.201,-0.076 0.19,-0.086 0.18,-0.098C0.17,-0.11 0.162,-0.123 0.156,-0.138L0.156,-0.382C0.161,-0.397 0.169,-0.411 0.179,-0.424C0.188,-0.437 0.199,-0.448 0.212,-0.457C0.225,-0.467 0.238,-0.474 0.254,-0.479C0.269,-0.484 0.286,-0.487 0.303,-0.487C0.322,-0.487 0.339,-0.484 0.354,-0.479C0.368,-0.474 0.382,-0.467 0.393,-0.458C0.407,-0.448 0.418,-0.435 0.427,-0.42C0.437,-0.405 0.444,-0.389 0.45,-0.371C0.455,-0.355 0.458,-0.338 0.461,-0.321C0.463,-0.304 0.464,-0.286 0.465,-0.269Z" style="fill:rgb(22,49,90);fill-rule:nonzero;"/>
                </g>
                <g transform="matrix(39.5833,0,0,39.5833,390.732,406.068)">
                </g>
                <g transform="matrix(39.5833,0,0,39.5833,414.482,406.068)">
                    <path d="M0.521,-0.396L0.521,-0.449L0.085,-0.449L0.085,-0.396L0.521,-0.396ZM0.521,-0.196L0.521,-0.248L0.085,-0.248L0.085,-0.196L0.521,-0.196Z" style="fill:rgb(22,49,90);fill-rule:nonzero;"/>
                </g>
                <g transform="matrix(39.5833,0,0,39.5833,438.232,406.068)">
                </g>
                <g transform="matrix(39.5833,0,0,39.5833,461.982,406.068)">
                    <path d="M0.458,-0L0.52,-0L0.52,-0.006C0.515,-0.022 0.511,-0.039 0.508,-0.057C0.505,-0.075 0.504,-0.093 0.503,-0.111L0.503,-0.366C0.503,-0.395 0.498,-0.42 0.487,-0.441C0.477,-0.463 0.462,-0.481 0.444,-0.495C0.426,-0.51 0.405,-0.52 0.38,-0.527C0.356,-0.535 0.33,-0.538 0.302,-0.538C0.274,-0.538 0.247,-0.534 0.223,-0.526C0.198,-0.519 0.177,-0.508 0.158,-0.494C0.139,-0.48 0.125,-0.464 0.114,-0.445C0.102,-0.426 0.097,-0.405 0.096,-0.383L0.154,-0.382C0.155,-0.399 0.159,-0.414 0.167,-0.427C0.176,-0.44 0.186,-0.451 0.199,-0.46C0.213,-0.469 0.228,-0.476 0.245,-0.481C0.262,-0.486 0.28,-0.489 0.299,-0.489C0.32,-0.489 0.339,-0.486 0.357,-0.481C0.374,-0.475 0.39,-0.468 0.403,-0.458C0.416,-0.447 0.426,-0.435 0.433,-0.419C0.441,-0.404 0.445,-0.387 0.445,-0.367L0.445,-0.308L0.331,-0.308C0.298,-0.307 0.266,-0.304 0.236,-0.298C0.206,-0.292 0.18,-0.283 0.157,-0.27C0.135,-0.256 0.117,-0.239 0.103,-0.217C0.09,-0.196 0.083,-0.17 0.083,-0.14C0.083,-0.118 0.088,-0.097 0.097,-0.078C0.106,-0.06 0.118,-0.044 0.134,-0.031C0.149,-0.018 0.168,-0.008 0.189,-0.001C0.211,0.006 0.234,0.01 0.258,0.01C0.278,0.01 0.297,0.008 0.315,0.004C0.333,-0 0.35,-0.006 0.366,-0.014C0.382,-0.021 0.397,-0.031 0.41,-0.042C0.424,-0.052 0.436,-0.065 0.446,-0.078C0.446,-0.064 0.448,-0.051 0.449,-0.037C0.451,-0.024 0.454,-0.012 0.458,-0ZM0.265,-0.042C0.248,-0.042 0.232,-0.045 0.217,-0.05C0.202,-0.054 0.189,-0.061 0.177,-0.07C0.166,-0.079 0.157,-0.09 0.151,-0.103C0.145,-0.115 0.141,-0.13 0.141,-0.146C0.141,-0.165 0.145,-0.182 0.154,-0.196C0.163,-0.209 0.175,-0.221 0.19,-0.23C0.208,-0.242 0.23,-0.25 0.256,-0.255C0.282,-0.259 0.31,-0.262 0.339,-0.262L0.445,-0.262L0.445,-0.146C0.438,-0.131 0.428,-0.116 0.416,-0.104C0.404,-0.091 0.39,-0.08 0.375,-0.071C0.359,-0.062 0.342,-0.055 0.323,-0.05C0.305,-0.045 0.285,-0.042 0.265,-0.042Z" style="fill:rgb(22,49,90);fill-rule:nonzero;"/>
                </g>
                <g transform="matrix(39.5833,0,0,39.5833,485.732,406.068)">
                    <path d="M0.329,-0.362L0.329,-0.589L0.27,-0.589L0.27,-0.362L0.058,-0.362L0.058,-0.304L0.27,-0.304L0.27,-0.071L0.329,-0.071L0.329,-0.304L0.545,-0.304L0.545,-0.362L0.329,-0.362Z" style="fill:rgb(22,49,90);fill-rule:nonzero;"/>
                </g>
                <g transform="matrix(39.5833,0,0,39.5833,509.482,406.068)">
                    <path d="M0.363,-0L0.363,-0.711L0.354,-0.711L0.107,-0.608L0.107,-0.552L0.304,-0.636L0.304,-0L0.363,-0Z" style="fill:rgb(22,49,90);fill-rule:nonzero;"/>
                </g>
                <g transform="matrix(39.5833,0,0,39.5833,533.236,406.068)">
                </g>
                <g transform="matrix(39.5833,0,0,39.5833,366.982,465.193)">
                    <path d="M0.096,0.203L0.154,0.203L0.154,-0.064C0.162,-0.053 0.171,-0.044 0.181,-0.036C0.192,-0.027 0.203,-0.02 0.214,-0.014C0.229,-0.006 0.245,-0 0.261,0.004C0.278,0.008 0.296,0.01 0.314,0.01C0.349,0.01 0.38,0.002 0.406,-0.013C0.432,-0.028 0.454,-0.047 0.47,-0.072C0.487,-0.097 0.5,-0.125 0.509,-0.158C0.517,-0.191 0.521,-0.224 0.521,-0.259L0.521,-0.269C0.521,-0.306 0.517,-0.341 0.508,-0.375C0.499,-0.409 0.485,-0.439 0.466,-0.464C0.449,-0.487 0.427,-0.505 0.402,-0.518C0.377,-0.531 0.347,-0.538 0.313,-0.538C0.294,-0.538 0.277,-0.536 0.26,-0.532C0.244,-0.527 0.229,-0.521 0.214,-0.513C0.202,-0.506 0.191,-0.498 0.18,-0.488C0.17,-0.478 0.161,-0.468 0.153,-0.456L0.15,-0.528L0.096,-0.528L0.096,0.203ZM0.463,-0.269L0.463,-0.259C0.463,-0.232 0.459,-0.205 0.453,-0.178C0.447,-0.151 0.438,-0.128 0.424,-0.107C0.411,-0.087 0.395,-0.071 0.374,-0.059C0.354,-0.046 0.329,-0.04 0.3,-0.04C0.284,-0.04 0.268,-0.042 0.253,-0.047C0.238,-0.051 0.224,-0.057 0.211,-0.065C0.198,-0.073 0.188,-0.082 0.178,-0.093C0.168,-0.104 0.16,-0.116 0.154,-0.13L0.154,-0.387C0.16,-0.402 0.168,-0.416 0.178,-0.428C0.188,-0.441 0.199,-0.451 0.212,-0.46C0.224,-0.468 0.237,-0.475 0.252,-0.48C0.267,-0.484 0.283,-0.487 0.299,-0.487C0.327,-0.487 0.352,-0.481 0.371,-0.47C0.391,-0.458 0.408,-0.443 0.421,-0.425C0.436,-0.404 0.446,-0.379 0.453,-0.352C0.46,-0.325 0.463,-0.297 0.463,-0.269Z" style="fill:rgb(22,49,90);fill-rule:nonzero;"/>
                </g>
                <g transform="matrix(39.5833,0,0,39.5833,390.732,465.193)">
                    <path d="M0.444,-0.538C0.396,-0.538 0.354,-0.528 0.319,-0.508C0.284,-0.488 0.256,-0.46 0.235,-0.424L0.235,-0.447L0.231,-0.528L0.176,-0.528L0.176,-0L0.236,-0L0.235,-0.338C0.242,-0.362 0.251,-0.383 0.263,-0.401C0.276,-0.419 0.29,-0.434 0.307,-0.445C0.324,-0.457 0.343,-0.466 0.365,-0.472C0.387,-0.477 0.41,-0.48 0.434,-0.48C0.449,-0.48 0.463,-0.479 0.476,-0.478C0.49,-0.476 0.504,-0.474 0.517,-0.471L0.525,-0.528C0.515,-0.531 0.502,-0.533 0.487,-0.535C0.473,-0.537 0.458,-0.538 0.444,-0.538Z" style="fill:rgb(22,49,90);fill-rule:nonzero;"/>
                </g>
                <g transform="matrix(39.5833,0,0,39.5833,414.482,465.193)">
                    <path d="M0.108,-0.528L0.108,-0.476L0.295,-0.476L0.295,-0.052L0.108,-0.052L0.108,-0L0.533,-0L0.533,-0.052L0.353,-0.052L0.353,-0.528L0.108,-0.528ZM0.278,-0.673C0.278,-0.661 0.281,-0.651 0.288,-0.643C0.295,-0.634 0.306,-0.63 0.322,-0.63C0.337,-0.63 0.349,-0.634 0.356,-0.643C0.363,-0.651 0.366,-0.661 0.366,-0.673C0.366,-0.679 0.365,-0.685 0.363,-0.691C0.362,-0.696 0.359,-0.701 0.355,-0.705C0.351,-0.709 0.347,-0.712 0.341,-0.714C0.336,-0.716 0.329,-0.718 0.322,-0.718C0.314,-0.718 0.308,-0.716 0.302,-0.714C0.297,-0.712 0.292,-0.709 0.289,-0.705C0.285,-0.701 0.282,-0.696 0.28,-0.691C0.278,-0.685 0.278,-0.679 0.278,-0.673Z" style="fill:rgb(22,49,90);fill-rule:nonzero;"/>
                </g>
                <g transform="matrix(39.5833,0,0,39.5833,438.232,465.193)">
                    <path d="M0.094,-0L0.153,-0L0.153,-0.361C0.158,-0.378 0.166,-0.394 0.176,-0.409C0.187,-0.424 0.198,-0.437 0.212,-0.448C0.227,-0.46 0.243,-0.469 0.261,-0.476C0.279,-0.483 0.298,-0.487 0.318,-0.487C0.341,-0.487 0.361,-0.484 0.378,-0.477C0.394,-0.471 0.408,-0.461 0.42,-0.449C0.431,-0.436 0.439,-0.42 0.444,-0.402C0.45,-0.383 0.453,-0.362 0.453,-0.338L0.453,-0L0.511,-0L0.511,-0.339C0.511,-0.37 0.507,-0.399 0.5,-0.423C0.492,-0.448 0.48,-0.469 0.465,-0.486C0.45,-0.503 0.431,-0.516 0.409,-0.525C0.387,-0.534 0.361,-0.538 0.332,-0.538C0.31,-0.538 0.29,-0.535 0.27,-0.528C0.251,-0.522 0.233,-0.513 0.217,-0.502C0.204,-0.493 0.191,-0.481 0.18,-0.468C0.169,-0.455 0.16,-0.441 0.151,-0.426L0.148,-0.528L0.094,-0.528L0.094,-0Z" style="fill:rgb(22,49,90);fill-rule:nonzero;"/>
                </g>
                <g transform="matrix(39.5833,0,0,39.5833,461.982,465.193)">
                    <path d="M0.289,-0.664L0.23,-0.664L0.23,-0.528L0.083,-0.528L0.083,-0.48L0.23,-0.48L0.23,-0.149C0.23,-0.12 0.234,-0.095 0.243,-0.075C0.251,-0.055 0.263,-0.039 0.277,-0.026C0.292,-0.014 0.309,-0.004 0.329,0.001C0.349,0.007 0.371,0.01 0.394,0.01C0.406,0.01 0.417,0.009 0.429,0.009C0.44,0.008 0.451,0.007 0.462,0.005C0.471,0.004 0.479,0.002 0.487,-0C0.494,-0.002 0.501,-0.005 0.507,-0.007L0.498,-0.052C0.493,-0.051 0.487,-0.05 0.481,-0.049C0.474,-0.048 0.467,-0.047 0.46,-0.046C0.451,-0.045 0.442,-0.044 0.432,-0.043C0.423,-0.042 0.414,-0.042 0.404,-0.042C0.388,-0.042 0.373,-0.044 0.359,-0.047C0.346,-0.051 0.333,-0.057 0.323,-0.065C0.313,-0.073 0.304,-0.084 0.298,-0.098C0.293,-0.111 0.289,-0.128 0.289,-0.149L0.289,-0.48L0.485,-0.48L0.485,-0.528L0.289,-0.528L0.289,-0.664Z" style="fill:rgb(22,49,90);fill-rule:nonzero;"/>
                </g>
                <g transform="matrix(39.5833,0,0,39.5833,485.732,465.193)">
                    <path d="M0.186,-0.287L0.186,-0.28C0.186,-0.242 0.189,-0.206 0.194,-0.169C0.199,-0.133 0.206,-0.098 0.216,-0.065C0.225,-0.032 0.236,0 0.249,0.03C0.262,0.06 0.277,0.087 0.294,0.113C0.31,0.138 0.328,0.16 0.347,0.18C0.366,0.2 0.386,0.216 0.407,0.229L0.421,0.191C0.403,0.178 0.385,0.162 0.37,0.143C0.354,0.124 0.34,0.102 0.327,0.079C0.314,0.055 0.302,0.03 0.292,0.002C0.282,-0.026 0.273,-0.056 0.266,-0.086C0.259,-0.116 0.254,-0.147 0.25,-0.18C0.247,-0.212 0.245,-0.246 0.245,-0.279L0.245,-0.289C0.245,-0.323 0.247,-0.357 0.25,-0.39C0.254,-0.423 0.26,-0.455 0.267,-0.486C0.275,-0.518 0.284,-0.549 0.296,-0.578C0.307,-0.607 0.32,-0.634 0.334,-0.658C0.346,-0.678 0.359,-0.697 0.374,-0.714C0.388,-0.731 0.404,-0.745 0.421,-0.757L0.407,-0.797C0.386,-0.784 0.366,-0.768 0.347,-0.748C0.328,-0.728 0.311,-0.706 0.294,-0.68C0.278,-0.655 0.263,-0.628 0.25,-0.598C0.237,-0.568 0.226,-0.536 0.216,-0.502C0.207,-0.469 0.199,-0.434 0.194,-0.398C0.189,-0.362 0.186,-0.325 0.186,-0.287Z" style="fill:rgb(22,49,90);fill-rule:nonzero;"/>
                </g>
                <g transform="matrix(39.5833,0,0,39.5833,509.482,465.193)">
                    <path d="M0.523,-0.259L0.523,-0.269C0.523,-0.293 0.521,-0.317 0.517,-0.34C0.514,-0.363 0.508,-0.385 0.5,-0.405C0.492,-0.424 0.483,-0.442 0.472,-0.458C0.461,-0.474 0.448,-0.488 0.433,-0.5C0.418,-0.512 0.4,-0.521 0.38,-0.528C0.361,-0.535 0.339,-0.538 0.314,-0.538C0.297,-0.538 0.28,-0.536 0.264,-0.532C0.248,-0.528 0.233,-0.522 0.219,-0.514C0.206,-0.507 0.195,-0.498 0.184,-0.488C0.173,-0.478 0.164,-0.467 0.156,-0.455L0.156,-0.75L0.097,-0.75L0.097,-0L0.152,-0L0.154,-0.069C0.162,-0.058 0.17,-0.049 0.18,-0.04C0.19,-0.032 0.2,-0.024 0.211,-0.018C0.226,-0.009 0.243,-0.002 0.26,0.003C0.278,0.007 0.296,0.01 0.315,0.01C0.338,0.01 0.359,0.007 0.377,0C0.396,-0.006 0.413,-0.014 0.427,-0.025C0.445,-0.038 0.46,-0.054 0.473,-0.072C0.485,-0.091 0.495,-0.111 0.503,-0.133C0.51,-0.153 0.515,-0.173 0.518,-0.194C0.522,-0.215 0.523,-0.237 0.523,-0.259ZM0.465,-0.269L0.465,-0.259C0.464,-0.242 0.463,-0.225 0.461,-0.208C0.459,-0.191 0.455,-0.175 0.45,-0.159C0.445,-0.142 0.438,-0.126 0.429,-0.111C0.42,-0.096 0.409,-0.083 0.396,-0.072C0.384,-0.063 0.371,-0.055 0.355,-0.05C0.34,-0.044 0.323,-0.042 0.304,-0.042C0.288,-0.042 0.272,-0.044 0.257,-0.048C0.241,-0.053 0.227,-0.059 0.214,-0.068C0.201,-0.076 0.19,-0.086 0.18,-0.098C0.17,-0.11 0.162,-0.123 0.156,-0.138L0.156,-0.382C0.161,-0.397 0.169,-0.411 0.179,-0.424C0.188,-0.437 0.199,-0.448 0.212,-0.457C0.225,-0.467 0.238,-0.474 0.254,-0.479C0.269,-0.484 0.286,-0.487 0.303,-0.487C0.322,-0.487 0.339,-0.484 0.354,-0.479C0.368,-0.474 0.382,-0.467 0.393,-0.458C0.407,-0.448 0.418,-0.435 0.427,-0.42C0.437,-0.405 0.444,-0.389 0.45,-0.371C0.455,-0.355 0.458,-0.338 0.461,-0.321C0.463,-0.304 0.464,-0.286 0.465,-0.269Z" style="fill:rgb(22,49,90);fill-rule:nonzero;"/>
                </g>
                <g transform="matrix(39.5833,0,0,39.5833,533.232,465.193)">
                    <path d="M0.402,-0.28L0.402,-0.287C0.402,-0.326 0.399,-0.364 0.394,-0.399C0.389,-0.435 0.381,-0.469 0.372,-0.502C0.363,-0.536 0.352,-0.568 0.339,-0.598C0.326,-0.627 0.311,-0.655 0.294,-0.68C0.278,-0.706 0.26,-0.728 0.241,-0.748C0.222,-0.768 0.202,-0.784 0.181,-0.797L0.167,-0.759C0.184,-0.747 0.2,-0.732 0.215,-0.714C0.23,-0.696 0.243,-0.677 0.256,-0.655C0.269,-0.631 0.282,-0.604 0.293,-0.575C0.305,-0.546 0.314,-0.514 0.322,-0.481C0.328,-0.454 0.333,-0.423 0.337,-0.391C0.341,-0.358 0.343,-0.324 0.344,-0.289L0.344,-0.279C0.343,-0.247 0.342,-0.214 0.338,-0.182C0.335,-0.151 0.33,-0.12 0.323,-0.09C0.317,-0.059 0.308,-0.029 0.298,-0.001C0.288,0.027 0.276,0.053 0.263,0.077C0.25,0.101 0.235,0.123 0.219,0.142C0.203,0.162 0.186,0.178 0.167,0.191L0.181,0.229C0.202,0.216 0.222,0.2 0.241,0.18C0.26,0.16 0.278,0.138 0.295,0.113C0.311,0.087 0.326,0.06 0.339,0.03C0.352,0 0.363,-0.032 0.373,-0.065C0.382,-0.098 0.389,-0.133 0.394,-0.169C0.4,-0.206 0.402,-0.242 0.402,-0.28Z" style="fill:rgb(22,49,90);fill-rule:nonzero;"/>
                </g>
                <g transform="matrix(39.5833,0,0,39.5833,556.986,465.193)">
                </g>
            </g>
            <g transform="matrix(0.24,0,0,0.24,324.207,133.542)">
                <text x="426.588px" y="205.401px" style="font-family:'Roboto-Bold', 'Roboto';font-weight:700;font-size:39.583px;fill:rgb(22,49,90);">What will <tspan x="598.249px " y="205.401px ">b</tspan>e the ou<tspan x="763.12px " y="205.401px ">t</tspan>put of</text>
                <g transform="matrix(39.5833,0,0,39.5833,663.42,257.485)">
                </g>
                <text x="426.588px" y="257.485px" style="font-family:'Roboto-Bold', 'Roboto';font-weight:700;font-size:39.583px;fill:rgb(22,49,90);">the pr<tspan x="529.502px " y="257.485px ">o</tspan>gr<tspan x="588.279px " y="257.485px ">a</tspan>m?</text>
            </g>
            <g transform="matrix(-1,0,0,1,831.587,-419.532)">
                <rect x="419.879" y="596.922" width="0.333" height="76.082" style="fill:rgb(44,48,120);"/>
            </g>
        </g>
    </g>
</svg>
