<?xml version="1.0" encoding="UTF-8" standalone="no"?>
<!DOCTYPE svg PUBLIC "-//W3C//DTD SVG 1.1//EN" "http://www.w3.org/Graphics/SVG/1.1/DTD/svg11.dtd">
<svg width="100%" height="100%" viewBox="0 0 1427 814" version="1.1" xmlns="http://www.w3.org/2000/svg" xmlns:xlink="http://www.w3.org/1999/xlink" xml:space="preserve" xmlns:serif="http://www.serif.com/" style="fill-rule:evenodd;clip-rule:evenodd;stroke-miterlimit:10;">
    <g id="Artboard1" transform="matrix(1,0,0,1,-94.284,-987.396)">
        <rect x="94.284" y="987.396" width="1426.15" height="813.637" style="fill:none;"/>
        <clipPath id="_clip1">
            <rect x="94.284" y="987.396" width="1426.15" height="813.637"/>
        </clipPath>
        <g clip-path="url(#_clip1)">
            <g id="Layer-1" serif:id="Layer 1" transform="matrix(4.16667,0,0,4.16667,0.284,0.395833)">
                <g transform="matrix(0.236527,0,0,0.230613,5.28034,16.9063)">
                    <path d="M1520.43,1006.6L1520.43,1748.71C1520.43,1777.59 1497.57,1801.03 1469.42,1801.03L124.362,1801.03C96.205,1801.03 73.344,1777.59 73.344,1748.71L73.344,1006.6C73.344,977.724 96.205,954.277 124.362,954.277L1469.42,954.277C1497.57,954.277 1520.43,977.724 1520.43,1006.6Z" style="fill:rgb(44,48,120);"/>
                </g>
                <g transform="matrix(-1,0,0,1,597.809,-3.031)">
                    <rect x="-9.429" y="-16.681" width="625.171" height="886.787" style="fill:none;stroke:rgb(35,31,32);stroke-width:0.99px;"/>
                </g>
                <g transform="matrix(1,0,0,1,345.734,355.751)">
                    <path d="M0,67.156L-147.832,67.156C-150.963,67.156 -153.525,64.594 -153.525,61.462L-153.525,5.694C-153.525,2.562 -150.963,0 -147.832,0L0,0C3.132,0 5.694,2.562 5.694,5.694L5.694,61.462C5.694,64.594 3.132,67.156 0,67.156" style="fill:rgb(241,242,242);fill-rule:nonzero;"/>
                </g>
                <g transform="matrix(1,0,0,1,178.259,355.751)">
                    <path d="M0,67.156L-137.976,67.156C-141.005,67.156 -143.484,64.678 -143.484,61.648L-143.484,5.508C-143.484,2.479 -141.005,0 -137.976,0L0,0C3.029,0 5.508,2.479 5.508,5.508L5.508,61.648C5.508,64.678 3.029,67.156 0,67.156" style="fill:rgb(241,242,242);fill-rule:nonzero;"/>
                </g>
                <g transform="matrix(0.24,0,0,0.24,40.5193,196.562)">
                    <text x="53.315px" y="283.235px" style="font-family:'Lato-Medium', 'Lato', sans-serif;font-weight:500;font-size:33.333px;fill:white;">P<tspan x="73.179px 84.759px " y="283.235px 283.235px ">ro</tspan>duct</text>
                    <g transform="matrix(33.3333,0,0,33.3333,168.935,323.235)">
                    </g>
                    <text x="53.315px" y="323.235px" style="font-family:'Lato-Medium', 'Lato', sans-serif;font-weight:500;font-size:33.333px;fill:white;">f<tspan x="64.543px " y="323.235px ">o</tspan>cused</text>
                </g>
                <g transform="matrix(0.24,0,0,0.24,223.941,196.562)">
                    <text x="294.659px" y="283.235px" style="font-family:'Lato-Medium', 'Lato', sans-serif;font-weight:500;font-size:33.333px;fill:white;">P<tspan x="314.52px 326.098px 345.059px 360.703px " y="283.235px 283.235px 283.235px 283.235px ">roce</tspan>ss</text>
                    <g transform="matrix(33.3333,0,0,33.3333,415.692,323.235)">
                    </g>
                    <text x="300.092px" y="323.235px" style="font-family:'Lato-Medium', 'Lato', sans-serif;font-weight:500;font-size:33.333px;fill:white;">f<tspan x="311.317px " y="323.235px ">o</tspan>cused</text>
                </g>
                <g transform="matrix(0.24,0,0,0.24,160.971,278.05)">
                    <text x="212.971px" y="387.336px" style="font-family:'Lato-Regular', 'Lato', sans-serif;font-size:29.167px;fill:rgb(2,0,30);">L<tspan x="226.884px 242.284px 256.779px 267.396px 283.7px 299.071px 309.072px 316.539px 333.077px " y="387.336px 387.336px 387.336px 387.336px 387.336px 387.336px 387.336px 387.336px 387.336px ">earner ob</tspan>se<tspan x="377.439px 388.056px 402.697px " y="387.336px 387.336px 387.336px ">rve</tspan>s <tspan x="438.187px 443.6px 458.758px 473.333px 489.608px 505.066px 515.683px 526.124px 532.089px 539.204px 555.537px 565.556px 582.028px 597.187px 607.571px 622.066px 646.071px 670.075px 685.416px 696.033px 701.604px " y="387.336px 387.336px 387.336px 387.336px 387.336px 387.336px 387.336px 387.336px 387.336px 387.336px 387.336px 387.336px 387.336px 387.336px 387.336px 387.336px 387.336px 387.336px 387.336px 387.336px 387.336px ">‘expert’ programmer’s</tspan></text>
                    <text x="211.804px" y="422.336px" style="font-family:'Lato-Regular', 'Lato', sans-serif;font-size:29.167px;fill:rgb(2,0,30);">p<tspan x="228.138px 238.154px 254.627px 269.788px 279.807px " y="422.336px 422.336px 422.336px 422.336px 422.336px ">rogre</tspan>ss</text>
                    <text x="211.804px" y="457.336px" style="font-family:'Lato-Regular', 'Lato', sans-serif;font-size:29.167px;fill:rgb(2,0,30);">Mi<tspan x="245.667px 258.296px 268.791px 283.195px 297.219px " y="457.336px 457.336px 457.336px 457.336px 457.336px ">stake</tspan>s <tspan x="332.816px 347.312px " y="457.336px 457.336px ">an</tspan>d <tspan x="387.505px " y="457.336px ">d</tspan>eb<tspan x="435.542px 451.808px 466.947px 482.086px 489.086px 505.361px 520.527px 528.387px 544.662px 551.662px 566.829px 583.104px 590.046px 596.987px 612.154px 628.222px 638.608px 654.008px " y="457.336px 457.336px 457.336px 457.336px 457.336px 457.336px 457.336px 457.336px 457.336px 457.336px 457.336px 457.336px 457.336px 457.336px 457.336px 457.336px 457.336px 457.336px ">ugging highlighted</tspan></text>
                    <text x="211.804px" y="492.336px" style="font-family:'Lato-Regular', 'Lato', sans-serif;font-size:29.167px;fill:rgb(2,0,30);">L<tspan x="225.717px 241.117px 255.613px 266.229px 282.534px 297.904px 307.906px 315.372px 329.285px 343.781px 360.056px 367.688px 382.184px 394.813px 409.629px 416.557px " y="492.336px 492.336px 492.336px 492.336px 492.336px 492.336px 492.336px 492.336px 492.336px 492.336px 492.336px 492.336px 492.336px 492.336px 492.336px 492.336px ">earner can ask q</tspan>ue<tspan x="464.47px 477.165px 487.855px 495.132px 511.669px " y="492.336px 492.336px 492.336px 492.336px 492.336px ">stion</tspan>s,<tspan x="547.194px 555.335px 570.502px 586.748px 593.748px " y="492.336px 492.336px 492.336px 492.336px 492.336px "> guid</tspan>e</text>
                    <g transform="matrix(29.1667,0,0,29.1667,558.529,527.336)">
                    </g>
                    <text x="211.804px" y="527.336px" style="font-family:'Lato-Regular', 'Lato', sans-serif;font-size:29.167px;fill:rgb(2,0,30);">d<tspan x="228.211px 243.217px 257.873px 273.259px 280.142px 296.636px 313.013px 337.032px 352.388px 368.459px 378.9px 385.385px 401.922px 411.926px 420.375px 434.04px 450.577px 466.954px 482.311px 489.433px 503.929px 510.812px 527.349px " y="527.336px 527.336px 527.336px 527.336px 527.336px 527.336px 527.336px 527.336px 527.336px 527.336px 527.336px 527.336px 527.336px 527.336px 527.336px 527.336px 527.336px 527.336px 527.336px 527.336px 527.336px 527.336px 527.336px ">evelopment or code alon</tspan>g</text>
                </g>
                <g transform="matrix(0.24,0,0,0.24,40.891,278.05)">
                    <text x="54.971px" y="387.336px" style="font-family:'Lato-Regular', 'Lato', sans-serif;font-size:29.167px;fill:rgb(2,0,30);">L<tspan x="68.883px 84.283px 98.779px 109.396px 125.7px 141.071px 151.072px 158.539px 175.076px " y="387.336px 387.336px 387.336px 387.336px 387.336px 387.336px 387.336px 387.336px 387.336px ">earner ob</tspan>se<tspan x="219.439px 230.055px 244.697px 260.031px 272.741px 280.29px 296.966px 313.233px 320.233px " y="387.336px 387.336px 387.336px 387.336px 387.336px 387.336px 387.336px 387.336px 387.336px ">rves ﬁnis</tspan>hed<tspan x="380.812px 388.332px 401.02px 417.557px 424.441px 440.686px 451.376px 458.653px 475.191px 491.466px 499.024px 509.408px " y="387.336px 387.336px 387.336px 387.336px 387.336px 387.336px 387.336px 387.336px 387.336px 387.336px 387.336px 387.336px "> solution to</tspan></text>
                    <text x="53.804px" y="422.336px" style="font-family:'Lato-Regular', 'Lato', sans-serif;font-size:29.167px;fill:rgb(2,0,30);">a<tspan x="68.3px 75.294px 87.923px 104.237px 119.734px 133.569px 140.569px 157.252px 171.135px 178.856px 195.218px 205.237px 221.774px 238.108px 244.991px 260.391px " y="422.336px 422.336px 422.336px 422.336px 422.336px 422.336px 422.336px 422.336px 422.336px 422.336px 422.336px 422.336px 422.336px 422.336px 422.336px 422.336px "> speciﬁc problem</tspan></text>
                    <text x="53.804px" y="457.336px" style="font-family:'Lato-Regular', 'Lato', sans-serif;font-size:29.167px;fill:rgb(2,0,30);">L<tspan x="67.716px 83.116px 97.612px 108.229px 124.533px 139.904px 150.43px 163.059px 170.452px 177.452px 193.538px 203.236px 218.636px 228.646px 236.18px 246.19px 261.59px 276.086px 288.715px 305.253px " y="457.336px 457.336px 457.336px 457.336px 457.336px 457.336px 457.336px 457.336px 457.336px 457.336px 457.336px 457.336px 457.336px 457.336px 457.336px 457.336px 457.336px 457.336px 457.336px 457.336px ">earners infer reason</tspan>s <tspan x="341.714px " y="457.336px ">b</tspan>eh<tspan x="389.658px 396.658px " y="457.336px 457.336px ">in</tspan>d <tspan x="436.746px " y="457.336px ">d</tspan>es<tspan x="481.114px 488.114px 503.281px " y="457.336px 457.336px 457.336px ">ign</tspan></text>
                    <text x="53.804px" y="492.336px" style="font-family:'Lato-Regular', 'Lato', sans-serif;font-size:29.167px;fill:rgb(2,0,30);">de<tspan x="85.537px 99.45px 106.45px 119.079px 126.079px 142.616px " y="492.336px 492.336px 492.336px 492.336px 492.336px 492.336px ">cision</tspan>s</text>
                    <text x="53.804px" y="527.336px" style="font-family:'Lato-Regular', 'Lato', sans-serif;font-size:29.167px;fill:rgb(2,0,30);">R<tspan x="71.129px 86.529px 93.529px 109.614px 119.312px 135.85px 145.869px " y="527.336px 527.336px 527.336px 527.336px 527.336px 527.336px 527.336px ">einforc</tspan>es <tspan x="194.928px " y="527.336px ">1</tspan>:1 <tspan x="243.609px 259.942px 269.958px 286.496px 302.829px 309.712px 325.068px 349.087px 356.628px 367.012px 383.549px 391.418px 404.047px 420.585px 427.468px 443.714px 454.404px 461.681px 478.218px " y="527.336px 527.336px 527.336px 527.336px 527.336px 527.336px 527.336px 527.336px 527.336px 527.336px 527.336px 527.336px 527.336px 527.336px 527.336px 527.336px 527.336px 527.336px 527.336px ">problem to solution</tspan></text>
                    <g transform="matrix(29.1667,0,0,29.1667,239.829,562.336)">
                    </g>
                    <text x="53.804px" y="562.336px" style="font-family:'Lato-Regular', 'Lato', sans-serif;font-size:29.167px;fill:rgb(2,0,30);">mi<tspan x="84.779px " y="562.336px ">s</tspan>co<tspan x="127.61px 143.896px 157.586px 172.939px 189.108px 199.798px 207.075px 223.612px " y="562.336px 562.336px 562.336px 562.336px 562.336px 562.336px 562.336px 562.336px ">nception</tspan></text>
                </g>
                <g transform="matrix(0,-1,-1,0,45.7144,367.309)">
                    <path d="M-1.597,-1.597C-2.479,-1.597 -3.193,-0.882 -3.193,-0C-3.193,0.881 -2.479,1.597 -1.597,1.597C-0.715,1.597 -0,0.881 -0,-0C-0,-0.882 -0.715,-1.597 -1.597,-1.597" style="fill:rgb(44,48,120);fill-rule:nonzero;"/>
                </g>
                <g transform="matrix(0,-1,-1,0,45.7144,383.539)">
                    <path d="M-1.597,-1.597C-2.479,-1.597 -3.193,-0.882 -3.193,-0C-3.193,0.881 -2.479,1.597 -1.597,1.597C-0.715,1.597 -0,0.881 -0,-0C-0,-0.882 -0.715,-1.597 -1.597,-1.597" style="fill:rgb(44,48,120);fill-rule:nonzero;"/>
                </g>
                <g transform="matrix(0,-1,-1,0,45.7144,400.77)">
                    <path d="M-1.597,-1.597C-2.479,-1.597 -3.193,-0.882 -3.193,-0C-3.193,0.881 -2.479,1.597 -1.597,1.597C-0.715,1.597 -0,0.881 -0,-0C-0,-0.882 -0.715,-1.597 -1.597,-1.597" style="fill:rgb(44,48,120);fill-rule:nonzero;"/>
                </g>
                <g transform="matrix(0,-1,-1,0,203.715,366.978)">
                    <path d="M-1.597,-1.597C-2.479,-1.597 -3.193,-0.882 -3.193,-0C-3.193,0.881 -2.479,1.597 -1.597,1.597C-0.715,1.597 -0,0.881 -0,-0C-0,-0.882 -0.715,-1.597 -1.597,-1.597" style="fill:rgb(44,48,120);fill-rule:nonzero;"/>
                </g>
                <g transform="matrix(0,-1,-1,0,203.715,383.639)">
                    <path d="M-1.597,-1.597C-2.479,-1.597 -3.193,-0.882 -3.193,-0C-3.193,0.881 -2.479,1.597 -1.597,1.597C-0.715,1.597 -0,0.881 -0,-0C-0,-0.882 -0.715,-1.597 -1.597,-1.597" style="fill:rgb(44,48,120);fill-rule:nonzero;"/>
                </g>
                <g transform="matrix(0,1,1,0,130.637,292.846)">
                    <path d="M-19.153,-19.153L19.153,-19.153" style="fill:none;fill-rule:nonzero;stroke:white;stroke-width:0.5px;"/>
                </g>
                <g transform="matrix(0,1,1,0,284.598,294.534)">
                    <path d="M-19.153,-19.153L19.153,-19.153" style="fill:none;fill-rule:nonzero;stroke:white;stroke-width:0.5px;"/>
                </g>
                <g transform="matrix(0,-1,-1,0,265.444,244.708)">
                    <path d="M-12.339,-12.339C-19.153,-12.339 -24.677,-6.815 -24.677,-0.001C-24.677,6.815 -19.153,12.339 -12.339,12.339C-5.525,12.339 -0.001,6.815 -0.001,-0.001C-0.001,-6.815 -5.525,-12.339 -12.339,-12.339" style="fill:rgb(21,133,198);fill-rule:nonzero;"/>
                </g>
                <g transform="matrix(1,0,0,1,245.759,266.555)">
                    <path d="M0,19.686C0,8.814 8.814,0 19.686,0C30.558,0 39.371,8.814 39.371,19.686" style="fill:rgb(21,133,198);fill-rule:nonzero;"/>
                </g>
                <g transform="matrix(0,-1,-1,0,265.444,309.274)">
                    <path d="M-12.339,-12.339C-19.153,-12.339 -24.677,-6.815 -24.677,-0.001C-24.677,6.815 -19.153,12.339 -12.339,12.339C-5.525,12.339 -0.001,6.815 -0.001,-0.001C-0.001,-6.815 -5.525,-12.339 -12.339,-12.339" style="fill:rgb(21,133,198);fill-rule:nonzero;"/>
                </g>
                <g transform="matrix(1,0,0,1,245.759,331.121)">
                    <path d="M0,19.686C0,8.814 8.814,0 19.686,0C30.558,0 39.371,8.814 39.371,19.686" style="fill:rgb(21,133,198);fill-rule:nonzero;"/>
                </g>
                <g transform="matrix(0,-1,-1,0,300.206,296.846)">
                    <path d="M-15.125,-15.125C-23.478,-15.125 -30.25,-8.353 -30.25,0C-30.25,8.354 -23.478,15.125 -15.125,15.125C-6.772,15.125 0,8.354 0,0C0,-8.353 -6.772,-15.125 -15.125,-15.125" style="fill:rgb(142,193,233);fill-rule:nonzero;"/>
                </g>
                <g transform="matrix(1,0,0,1,288.036,327.096)">
                    <path d="M0,-9.901L-6.085,0L6.954,-4.338L0,-9.901Z" style="fill:rgb(142,193,233);fill-rule:nonzero;"/>
                </g>
                <g transform="matrix(0,-1,-1,0,112.272,243.992)">
                    <path d="M-12.339,-12.339C-19.153,-12.339 -24.677,-6.815 -24.677,-0.001C-24.677,6.815 -19.153,12.339 -12.339,12.339C-5.525,12.339 -0.001,6.815 -0.001,-0.001C-0.001,-6.815 -5.525,-12.339 -12.339,-12.339" style="fill:rgb(21,133,198);fill-rule:nonzero;"/>
                </g>
                <g transform="matrix(1,0,0,1,92.5868,265.838)">
                    <path d="M0,19.686C0,8.814 8.814,0 19.686,0C30.558,0 39.371,8.814 39.371,19.686" style="fill:rgb(21,133,198);fill-rule:nonzero;"/>
                </g>
                <g transform="matrix(1,0,0,1,147.49,310.096)">
                    <path d="M0,40.212L-74.092,40.212C-77.037,40.212 -79.425,37.825 -79.425,34.88L-79.425,5.333C-79.425,2.388 -77.037,0 -74.092,0L0,0C2.945,0 5.332,2.388 5.332,5.333L5.332,34.88C5.332,37.825 2.945,40.212 0,40.212" style="fill:rgb(0,30,42);fill-rule:nonzero;"/>
                </g>
                <g transform="matrix(1,0,0,1,91.4361,315.614)">
                    <path d="M0,1.927L-16.183,1.927C-16.715,1.927 -17.147,1.496 -17.147,0.964C-17.147,0.432 -16.715,0 -16.183,0L0,0C0.532,0 0.963,0.432 0.963,0.964C0.963,1.496 0.532,1.927 0,1.927" style="fill:white;fill-rule:nonzero;"/>
                </g>
                <g transform="matrix(1,0,0,1,80.9011,318.614)">
                    <path d="M0,1.927L-5.648,1.927C-6.18,1.927 -6.612,1.496 -6.612,0.964C-6.612,0.432 -6.18,0 -5.648,0L0,0C0.532,0 0.963,0.432 0.963,0.964C0.963,1.496 0.532,1.927 0,1.927" style="fill:rgb(21,133,198);fill-rule:nonzero;"/>
                </g>
                <g transform="matrix(1,0,0,1,97.8352,318.614)">
                    <path d="M0,1.927L-14.248,1.927C-14.78,1.927 -15.212,1.496 -15.212,0.964C-15.212,0.432 -14.78,0 -14.248,0L0,0C0.532,0 0.963,0.432 0.963,0.964C0.963,1.496 0.532,1.927 0,1.927" style="fill:white;fill-rule:nonzero;"/>
                </g>
                <g transform="matrix(1,0,0,1,115.794,318.614)">
                    <path d="M0,1.927L-15.4,1.927C-15.932,1.927 -16.363,1.496 -16.363,0.964C-16.363,0.432 -15.932,0 -15.4,0L0,0C0.532,0 0.963,0.432 0.963,0.964C0.963,1.496 0.532,1.927 0,1.927" style="fill:rgb(21,133,198);fill-rule:nonzero;"/>
                </g>
                <g transform="matrix(1,0,0,1,94.9208,315.614)">
                    <path d="M0,1.927L-0.668,1.927C-1.2,1.927 -1.631,1.496 -1.631,0.964C-1.631,0.432 -1.2,0 -0.668,0L0,0C0.532,0 0.963,0.432 0.963,0.964C0.963,1.496 0.532,1.927 0,1.927" style="fill:rgb(21,133,198);fill-rule:nonzero;"/>
                </g>
                <g transform="matrix(1,0,0,1,108.241,315.614)">
                    <path d="M0,1.927L-10.466,1.927C-10.998,1.927 -11.429,1.496 -11.429,0.964C-11.429,0.432 -10.998,0 -10.466,0L0,0C0.532,0 0.963,0.432 0.963,0.964C0.963,1.496 0.532,1.927 0,1.927" style="fill:rgb(197,229,248);fill-rule:nonzero;"/>
                </g>
                <g transform="matrix(1,0,0,1,121.379,315.614)">
                    <path d="M0,1.927L-10.466,1.927C-10.998,1.927 -11.429,1.496 -11.429,0.964C-11.429,0.432 -10.998,0 -10.466,0L0,0C0.532,0 0.963,0.432 0.963,0.964C0.963,1.496 0.532,1.927 0,1.927" style="fill:rgb(197,229,248);fill-rule:nonzero;"/>
                </g>
                <g transform="matrix(1,0,0,1,91.4361,321.614)">
                    <path d="M0,1.927L-16.183,1.927C-16.715,1.927 -17.147,1.496 -17.147,0.964C-17.147,0.432 -16.715,0 -16.183,0L0,0C0.532,0 0.963,0.432 0.963,0.964C0.963,1.496 0.532,1.927 0,1.927" style="fill:white;fill-rule:nonzero;"/>
                </g>
                <g transform="matrix(1,0,0,1,80.9011,324.614)">
                    <path d="M0,1.927L-5.648,1.927C-6.18,1.927 -6.612,1.496 -6.612,0.964C-6.612,0.432 -6.18,0 -5.648,0L0,0C0.532,0 0.963,0.432 0.963,0.964C0.963,1.496 0.532,1.927 0,1.927" style="fill:rgb(197,229,248);fill-rule:nonzero;"/>
                </g>
                <g transform="matrix(1,0,0,1,93.9,324.614)">
                    <path d="M0,1.927L-10.313,1.927C-10.845,1.927 -11.276,1.496 -11.276,0.964C-11.276,0.432 -10.845,0 -10.313,0L0,0C0.532,0 0.963,0.432 0.963,0.964C0.963,1.496 0.532,1.927 0,1.927" style="fill:white;fill-rule:nonzero;"/>
                </g>
                <g transform="matrix(1,0,0,1,94.9208,321.614)">
                    <path d="M0,1.927L-0.668,1.927C-1.2,1.927 -1.631,1.496 -1.631,0.964C-1.631,0.432 -1.2,0 -0.668,0L0,0C0.532,0 0.963,0.432 0.963,0.964C0.963,1.496 0.532,1.927 0,1.927" style="fill:white;fill-rule:nonzero;"/>
                </g>
                <g transform="matrix(1,0,0,1,108.241,321.614)">
                    <path d="M0,1.927L-10.466,1.927C-10.998,1.927 -11.429,1.496 -11.429,0.964C-11.429,0.432 -10.998,0 -10.466,0L0,0C0.532,0 0.963,0.432 0.963,0.964C0.963,1.496 0.532,1.927 0,1.927" style="fill:white;fill-rule:nonzero;"/>
                </g>
                <g transform="matrix(1,0,0,1,121.379,321.614)">
                    <path d="M0,1.927L-10.466,1.927C-10.998,1.927 -11.429,1.496 -11.429,0.964C-11.429,0.432 -10.998,0 -10.466,0L0,0C0.532,0 0.963,0.432 0.963,0.964C0.963,1.496 0.532,1.927 0,1.927" style="fill:rgb(197,229,248);fill-rule:nonzero;"/>
                </g>
                <g transform="matrix(1,0,0,1,91.4361,333.077)">
                    <path d="M0,1.927L-16.183,1.927C-16.715,1.927 -17.147,1.496 -17.147,0.964C-17.147,0.432 -16.715,0 -16.183,0L0,0C0.532,0 0.963,0.432 0.963,0.964C0.963,1.496 0.532,1.927 0,1.927" style="fill:rgb(21,133,198);fill-rule:nonzero;"/>
                </g>
                <g transform="matrix(1,0,0,1,80.9011,336.077)">
                    <path d="M0,1.927L-5.648,1.927C-6.18,1.927 -6.612,1.496 -6.612,0.964C-6.612,0.432 -6.18,0 -5.648,0L0,0C0.532,0 0.963,0.432 0.963,0.964C0.963,1.496 0.532,1.927 0,1.927" style="fill:rgb(21,133,198);fill-rule:nonzero;"/>
                </g>
                <g transform="matrix(1,0,0,1,97.8352,336.077)">
                    <path d="M0,1.927L-14.248,1.927C-14.78,1.927 -15.212,1.496 -15.212,0.964C-15.212,0.432 -14.78,0 -14.248,0L0,0C0.532,0 0.963,0.432 0.963,0.964C0.963,1.496 0.532,1.927 0,1.927" style="fill:white;fill-rule:nonzero;"/>
                </g>
                <g transform="matrix(1,0,0,1,111.292,336.077)">
                    <path d="M0,1.927L-10.898,1.927C-11.43,1.927 -11.861,1.496 -11.861,0.964C-11.861,0.432 -11.43,0 -10.898,0L0,0C0.532,0 0.963,0.432 0.963,0.964C0.963,1.496 0.532,1.927 0,1.927" style="fill:rgb(21,133,198);fill-rule:nonzero;"/>
                </g>
                <g transform="matrix(1,0,0,1,94.9208,333.077)">
                    <path d="M0,1.927L-0.668,1.927C-1.2,1.927 -1.631,1.496 -1.631,0.964C-1.631,0.432 -1.2,0 -0.668,0L0,0C0.532,0 0.963,0.432 0.963,0.964C0.963,1.496 0.532,1.927 0,1.927" style="fill:rgb(21,133,198);fill-rule:nonzero;"/>
                </g>
                <g transform="matrix(1,0,0,1,108.241,333.077)">
                    <path d="M0,1.927L-10.466,1.927C-10.998,1.927 -11.429,1.496 -11.429,0.964C-11.429,0.432 -10.998,0 -10.466,0L0,0C0.532,0 0.963,0.432 0.963,0.964C0.963,1.496 0.532,1.927 0,1.927" style="fill:white;fill-rule:nonzero;"/>
                </g>
                <g transform="matrix(1,0,0,1,125.075,333.077)">
                    <path d="M0,1.927L-14.162,1.927C-14.694,1.927 -15.125,1.496 -15.125,0.964C-15.125,0.432 -14.694,0 -14.162,0L0,0C0.532,0 0.963,0.432 0.963,0.964C0.963,1.496 0.532,1.927 0,1.927" style="fill:rgb(21,133,198);fill-rule:nonzero;"/>
                </g>
                <g transform="matrix(1,0,0,1,91.4361,339.077)">
                    <path d="M0,1.927L-16.183,1.927C-16.715,1.927 -17.147,1.496 -17.147,0.964C-17.147,0.432 -16.715,0 -16.183,0L0,0C0.532,0 0.963,0.432 0.963,0.964C0.963,1.496 0.532,1.927 0,1.927" style="fill:rgb(197,229,248);fill-rule:nonzero;"/>
                </g>
                <g transform="matrix(1,0,0,1,80.9011,342.077)">
                    <path d="M0,1.927L-5.648,1.927C-6.18,1.927 -6.612,1.496 -6.612,0.964C-6.612,0.432 -6.18,0 -5.648,0L0,0C0.532,0 0.963,0.432 0.963,0.964C0.963,1.496 0.532,1.927 0,1.927" style="fill:rgb(21,133,198);fill-rule:nonzero;"/>
                </g>
                <g transform="matrix(1,0,0,1,93.9,342.077)">
                    <path d="M0,1.927L-10.313,1.927C-10.845,1.927 -11.276,1.496 -11.276,0.964C-11.276,0.432 -10.845,0 -10.313,0L0,0C0.532,0 0.963,0.432 0.963,0.964C0.963,1.496 0.532,1.927 0,1.927" style="fill:rgb(197,229,248);fill-rule:nonzero;"/>
                </g>
                <g transform="matrix(1,0,0,1,94.9208,339.077)">
                    <path d="M0,1.927L-0.668,1.927C-1.2,1.927 -1.631,1.496 -1.631,0.964C-1.631,0.432 -1.2,0 -0.668,0L0,0C0.532,0 0.963,0.432 0.963,0.964C0.963,1.496 0.532,1.927 0,1.927" style="fill:white;fill-rule:nonzero;"/>
                </g>
                <g transform="matrix(1,0,0,1,114.551,336.077)">
                    <path d="M0,1.927L-0.668,1.927C-1.2,1.927 -1.631,1.496 -1.631,0.964C-1.631,0.432 -1.2,0 -0.668,0L0,0C0.532,0 0.963,0.432 0.963,0.964C0.963,1.496 0.532,1.927 0,1.927" style="fill:rgb(21,133,198);fill-rule:nonzero;"/>
                </g>
                <g transform="matrix(1,0,0,1,108.241,339.077)">
                    <path d="M0,1.927L-10.466,1.927C-10.998,1.927 -11.429,1.496 -11.429,0.964C-11.429,0.432 -10.998,0 -10.466,0L0,0C0.532,0 0.963,0.432 0.963,0.964C0.963,1.496 0.532,1.927 0,1.927" style="fill:white;fill-rule:nonzero;"/>
                </g>
                <g transform="matrix(1,0,0,1,116.61,339.077)">
                    <path d="M0,1.927L-5.697,1.927C-6.229,1.927 -6.66,1.496 -6.66,0.964C-6.66,0.432 -6.229,0 -5.697,0L0,0C0.532,0 0.963,0.432 0.963,0.964C0.963,1.496 0.532,1.927 0,1.927" style="fill:white;fill-rule:nonzero;"/>
                </g>
                <g transform="matrix(1,0,0,1,75.9208,329.077)">
                    <path d="M0,1.927L-0.668,1.927C-1.2,1.927 -1.631,1.496 -1.631,0.964C-1.631,0.432 -1.2,0 -0.668,0L0,0C0.532,0 0.963,0.432 0.963,0.964C0.963,1.496 0.532,1.927 0,1.927" style="fill:white;fill-rule:nonzero;"/>
                </g>
            </g>
        </g>
    </g>
</svg>
