<?xml version="1.0" encoding="UTF-8" standalone="no"?>
<!DOCTYPE svg PUBLIC "-//W3C//DTD SVG 1.1//EN" "http://www.w3.org/Graphics/SVG/1.1/DTD/svg11.dtd">
<svg width="100%" height="100%" viewBox="0 0 644 344" version="1.1" xmlns="http://www.w3.org/2000/svg" xmlns:xlink="http://www.w3.org/1999/xlink" xml:space="preserve" xmlns:serif="http://www.serif.com/" style="fill-rule:evenodd;clip-rule:evenodd;stroke-miterlimit:10;">
    <g id="Artboard1" transform="matrix(1,0,0,1,-156.212,-1359.29)">
        <rect x="156.212" y="1359.29" width="643.746" height="343.682" style="fill:none;"/>
        <clipPath id="_clip1">
            <rect x="156.212" y="1359.29" width="643.746" height="343.682"/>
        </clipPath>
        <g clip-path="url(#_clip1)">
            <g id="Layer-1" serif:id="Layer 1" transform="matrix(4.16667,0,0,4.16667,0.212333,0.285833)">
                <g transform="matrix(-1,0,0,1,609.952,2.057)">
                    <rect x="-4.823" y="-19.225" width="628.102" height="886.787" style="fill:none;stroke:rgb(35,31,32);stroke-width:1px;"/>
                </g>
                <g transform="matrix(1,0,0,1,189.529,326.342)">
                    <path d="M0,82.37L-149.577,82.37C-150.936,82.37 -152.038,81.268 -152.038,79.909L-152.038,2.461C-152.038,1.101 -150.936,0 -149.577,0L0,0C1.359,0 2.461,1.101 2.461,2.461L2.461,79.909C2.461,81.268 1.359,82.37 0,82.37" style="fill:rgb(197,229,248);fill-rule:nonzero;"/>
                </g>
                <g transform="matrix(1,0,0,1,181.16,404.333)">
                    <path d="M0,-4.853L3.746,-2.752C4,-2.609 4,-2.243 3.746,-2.101L0,0.001C-0.249,0.14 -0.556,-0.04 -0.556,-0.325L-0.556,-4.527C-0.556,-4.813 -0.249,-4.993 0,-4.853" style="fill:rgb(44,48,120);fill-rule:nonzero;"/>
                </g>
                <g transform="matrix(1,0,0,1,41.7228,333.205)">
                    <path d="M0,3.444L2.101,-0.302C2.244,-0.556 2.61,-0.556 2.752,-0.302L4.854,3.444C4.993,3.693 4.813,4 4.528,4L0.326,4C0.04,4 -0.14,3.693 0,3.444" style="fill:rgb(44,48,120);fill-rule:nonzero;"/>
                </g>
                <g transform="matrix(1,0,0,1,44.1496,401.907)">
                    <path d="M0,-67.062L0,-1.222C0,-0.547 0.547,0 1.222,0L139.401,0" style="fill:none;fill-rule:nonzero;stroke:rgb(37,19,69);stroke-width:0.65px;"/>
                </g>
                <g transform="matrix(1,0,0,1,52.6108,340.367)">
                    <path d="M0,0L130.24,0" style="fill:none;fill-rule:nonzero;stroke:white;stroke-width:0.87px;stroke-linecap:round;"/>
                </g>
            </g>
        </g>
    </g>
</svg>
