<?xml version="1.0" encoding="UTF-8" standalone="no"?>
<!DOCTYPE svg PUBLIC "-//W3C//DTD SVG 1.1//EN" "http://www.w3.org/Graphics/SVG/1.1/DTD/svg11.dtd">
<svg width="100%" height="100%" viewBox="0 0 1427 977" version="1.1" xmlns="http://www.w3.org/2000/svg" xmlns:xlink="http://www.w3.org/1999/xlink" xml:space="preserve" xmlns:serif="http://www.serif.com/" style="fill-rule:evenodd;clip-rule:evenodd;stroke-miterlimit:10;">
    <g id="Artboard1" transform="matrix(1,0,0,1,-94.284,-1241.56)">
        <rect x="94.284" y="1241.56" width="1426.15" height="976.137" style="fill:none;"/>
        <clipPath id="_clip1">
            <rect x="94.284" y="1241.56" width="1426.15" height="976.137"/>
        </clipPath>
        <g clip-path="url(#_clip1)">
            <g id="Layer-1" serif:id="Layer 1" transform="matrix(4.16667,0,0,4.16667,0.284,0.5625)">
                <g transform="matrix(0.24,0,0,0.24,0,0)">
                    <path d="M1520.43,1291.66L1520.43,2167.61C1520.43,2195.25 1497.99,2217.7 1470.34,2217.7L144.378,2217.7C116.73,2217.7 94.284,2195.25 94.284,2167.61L94.284,1291.66C94.284,1264.01 116.73,1241.56 144.378,1241.56L1470.34,1241.56C1497.99,1241.56 1520.43,1264.01 1520.43,1291.66Z" style="fill:rgb(44,48,120);"/>
                </g>
                <g transform="matrix(-1,0,0,1,597.809,-3.031)">
                    <rect x="-9.429" y="-16.681" width="625.171" height="886.787" style="fill:none;stroke:rgb(35,31,32);stroke-width:0.99px;"/>
                </g>
                <g transform="matrix(0.24,0,0,0.24,113.23,270.991)">
                    <g transform="matrix(58.3333,0,0,58.3333,502.882,400.317)">
                    </g>
                    <text x="148.987px" y="400.317px" style="font-family:'Roboto-Bold', 'Roboto';font-weight:700;font-size:58.333px;fill:white;">O<tspan x="189.79px 223.187px 253.736px 285.823px 308.282px 337.976px 369.778px 390.102px 406.124px 439.635px 472.918px " y="400.317px 400.317px 400.317px 400.317px 400.317px 400.317px 400.317px 400.317px 400.317px 400.317px 400.317px ">bservations</tspan></text>
                </g>
                <g transform="matrix(0.24,0,0,0.24,44.8096,312.64)">
                    <g transform="matrix(41.6667,0,0,41.6667,256.125,442.618)">
                    </g>
                    <text x="58.96px" y="442.618px" style="font-family:'Roboto-Regular', 'Roboto';font-size:41.667px;fill:white;">S<tspan x="84.098px 98.127px 112.644px 136.012px 158.22px 172.249px 195.616px 210.134px 232.627px " y="442.618px 442.618px 442.618px 442.618px 442.618px 442.618px 442.618px 442.618px 442.618px ">tructured</tspan></text>
                </g>
                <g transform="matrix(0.24,0,0,0.24,122.884,312.64)">
                    <g transform="matrix(41.6667,0,0,41.6667,406.48,442.618)">
                    </g>
                    <text x="161.69px" y="442.618px" style="font-family:'Roboto-Regular', 'Roboto';font-size:41.667px;fill:white;">U<tspan x="189.109px 212.521px 234.427px 248.459px 262.98px 286.351px 308.562px 322.594px 345.965px 360.486px 382.982px " y="442.618px 442.618px 442.618px 442.618px 442.618px 442.618px 442.618px 442.618px 442.618px 442.618px 442.618px ">nstructured</tspan></text>
                </g>
                <g transform="matrix(0.24,0,0,0.24,217.102,312.64)">
                    <g transform="matrix(41.6667,0,0,41.6667,406.583,442.618)">
                    </g>
                    <text x="285.66px" y="442.618px" style="font-family:'Roboto-Regular', 'Roboto';font-size:41.667px;fill:white;">V<tspan x="312.577px 335.071px 349.591px 373.387px 396.452px " y="442.618px 442.618px 442.618px 442.618px 442.618px ">erbal</tspan></text>
                </g>
                <g transform="matrix(0.24,0,0,0.24,42.2894,331.713)">
                    <text x="55.644px" y="458.34px" style="font-family:'Roboto-Regular', 'Roboto';font-size:29.167px;fill:white;">Beha<tspan x="120.973px " y="458.34px ">v</tspan>iours are</text>
                    <g transform="matrix(29.1667,0,0,29.1667,128.387,493.34)">
                    </g>
                    <g transform="matrix(29.1667,0,0,29.1667,137.893,493.34)">
                    </g>
                    <text x="56.723px" y="493.34px" style="font-family:'Roboto-Regular', 'Roboto';font-size:29.167px;fill:white;">identiﬁe<tspan x="159.99px " y="493.34px ">d</tspan> before</text>
                    <text x="56.723px" y="528.34px" style="font-family:'Roboto-Regular', 'Roboto';font-size:29.167px;fill:white;">the obse<tspan x="168.461px 178.588px 192.489px " y="528.34px 528.34px 528.34px ">rva</tspan>tion</text>
                    <text x="56.723px" y="598.34px" style="font-family:'Roboto-Regular', 'Roboto';font-size:29.167px;fill:white;">Record<tspan x="148.292px " y="598.34px ">i</tspan>ng focuses</text>
                    <text x="56.723px" y="633.34px" style="font-family:'Roboto-Regular', 'Roboto';font-size:29.167px;fill:white;">on fr<tspan x="116.608px " y="633.34px ">e</tspan>quency or</text>
                    <text x="56.723px" y="668.34px" style="font-family:'Roboto-Regular', 'Roboto';font-size:29.167px;fill:white;">timing of<tspan x="172.414px " y="668.34px "> </tspan>occur<tspan x="252.137px " y="668.34px ">a</tspan>nces</text>
                    <text x="56.723px" y="738.34px" style="font-family:'Roboto-Regular', 'Roboto';font-size:29.167px;fill:white;">Record<tspan x="148.295px " y="738.34px ">i</tspan>ng takes</text>
                    <g transform="matrix(29.1667,0,0,29.1667,177.678,773.34)">
                    </g>
                    <text x="56.723px" y="773.34px" style="font-family:'Roboto-Regular', 'Roboto';font-size:29.167px;fill:white;">place li<tspan x="148.099px " y="773.34px ">v</tspan>e</text>
                </g>
                <g transform="matrix(0.24,0,0,0.24,122.281,331.713)">
                    <text x="160.896px" y="458.34px" style="font-family:'Roboto-Regular', 'Roboto';font-size:29.167px;fill:white;">Implement<tspan x="299.924px " y="458.34px ">a</tspan>tion is</text>
                    <text x="160.896px" y="493.34px" style="font-family:'Roboto-Regular', 'Roboto';font-size:29.167px;fill:white;">quick and easy</text>
                    <text x="160.896px" y="563.34px" style="font-family:'Roboto-Regular', 'Roboto';font-size:29.167px;fill:white;">Record<tspan x="252.468px " y="563.34px ">i</tspan>ng takes place</text>
                    <text x="160.896px" y="598.34px" style="font-family:'Roboto-Regular', 'Roboto';font-size:29.167px;fill:white;">after the lesso<tspan x="346.531px " y="598.34px ">n</tspan></text>
                    <text x="160.896px" y="668.34px" style="font-family:'Roboto-Regular', 'Roboto';font-size:29.167px;fill:white;">Recordin<tspan x="275.66px " y="668.34px ">g</tspan> may</text>
                    <g transform="matrix(29.1667,0,0,29.1667,344.58,703.34)">
                    </g>
                    <text x="160.896px" y="703.34px" style="font-family:'Roboto-Regular', 'Roboto';font-size:29.167px;fill:white;">intr<tspan x="203.181px " y="703.34px ">o</tspan>duce bi<tspan x="313.675px " y="703.34px ">a</tspan>s</text>
                </g>
                <g transform="matrix(0.24,0,0,0.24,208.699,331.713)">
                    <text x="274.604px" y="458.34px" style="font-family:'Roboto-Regular', 'Roboto';font-size:29.167px;fill:white;">Learne<tspan x="362.988px " y="458.34px ">r</tspan>s verba<tspan x="466.778px " y="458.34px ">l</tspan>ise</text>
                    <text x="274.604px" y="493.34px" style="font-family:'Roboto-Regular', 'Roboto';font-size:29.167px;fill:white;">their thoughts<tspan x="455.143px " y="493.34px "> </tspan>during</text>
                    <text x="274.604px" y="528.34px" style="font-family:'Roboto-Regular', 'Roboto';font-size:29.167px;fill:white;">a task</text>
                    <text x="274.604px" y="598.34px" style="font-family:'Roboto-Regular', 'Roboto';font-size:29.167px;fill:white;">Cogniti<tspan x="366.318px " y="598.34px ">v</tspan>e load on</text>
                    <text x="274.604px" y="633.34px" style="font-family:'Roboto-Regular', 'Roboto';font-size:29.167px;fill:white;">learners<tspan x="379.313px " y="633.34px "> </tspan>is redu<tspan x="473.698px " y="633.34px ">c</tspan>ed</text>
                    <text x="274.604px" y="703.34px" style="font-family:'Roboto-Regular', 'Roboto';font-size:29.167px;fill:white;">Appr<tspan x="335.889px " y="703.34px ">o</tspan>ach may not</text>
                    <text x="274.604px" y="738.34px" style="font-family:'Roboto-Regular', 'Roboto';font-size:29.167px;fill:white;">be suit<tspan x="361.348px " y="738.34px ">a</tspan>ble fo<tspan x="450.057px " y="738.34px ">r</tspan></text>
                    <g transform="matrix(29.1667,0,0,29.1667,416.501,773.34)">
                    </g>
                    <text x="274.604px" y="773.34px" style="font-family:'Roboto-Regular', 'Roboto';font-size:29.167px;fill:white;">all le<tspan x="334.341px " y="773.34px ">a</tspan>rners</text>
                </g>
                <g transform="matrix(1,0,0,1,221.762,310.949)">
                    <path d="M0,33.112L-59.289,33.112C-60.202,33.112 -60.941,32.373 -60.941,31.46L-60.941,1.652C-60.941,0.739 -60.202,0 -59.289,0L0,0C0.912,0 1.652,0.739 1.652,1.652L1.652,31.46C1.652,32.373 0.912,33.112 0,33.112" style="fill:rgb(197,229,248);fill-rule:nonzero;"/>
                </g>
                <g transform="matrix(1,0,0,1,205.769,306.797)">
                    <path d="M0,16.745L-13.444,16.745C-14.356,16.745 -15.095,16.006 -15.095,15.095L-15.095,1.65C-15.095,0.739 -14.356,0 -13.444,0L0,0C0.912,0 1.65,0.739 1.65,1.65L1.65,15.095C1.65,16.006 0.912,16.745 0,16.745" style="fill:rgb(21,133,198);fill-rule:nonzero;"/>
                </g>
                <g transform="matrix(1,0,0,1,205.769,330.941)">
                    <path d="M0,16.745L-13.444,16.745C-14.356,16.745 -15.095,16.006 -15.095,15.095L-15.095,1.65C-15.095,0.739 -14.356,0 -13.444,0L0,0C0.912,0 1.65,0.739 1.65,1.65L1.65,15.095C1.65,16.006 0.912,16.745 0,16.745" style="fill:rgb(21,133,198);fill-rule:nonzero;"/>
                </g>
                <g transform="matrix(1,0,0,1,219.675,304.496)">
                    <path d="M0,21.347L-9.507,11.84C-10.151,11.196 -10.151,10.151 -9.507,9.506L0,-0C0.645,-0.645 1.69,-0.645 2.334,-0L11.841,9.506C12.485,10.151 12.485,11.196 11.841,11.84L2.334,21.347C1.69,21.992 0.645,21.992 0,21.347" style="fill:rgb(21,133,198);fill-rule:nonzero;"/>
                </g>
                <g transform="matrix(1,0,0,1,227.564,330.941)">
                    <path d="M0,16.745L-13.444,16.745C-14.356,16.745 -15.095,16.006 -15.095,15.095L-15.095,1.65C-15.095,0.739 -14.356,0 -13.444,0L0,0C0.912,0 1.65,0.739 1.65,1.65L1.65,15.095C1.65,16.006 0.912,16.745 0,16.745" style="fill:rgb(21,133,198);fill-rule:nonzero;"/>
                </g>
                <g transform="matrix(1,0,0,1,174.284,313.685)">
                    <path d="M0,27.782C9.997,27.782 18.754,22.498 23.647,14.574C23.904,14.158 23.904,13.625 23.647,13.208C18.754,5.285 9.997,0 0,0C-9.997,0 -18.754,5.285 -23.647,13.208C-23.904,13.625 -23.904,14.158 -23.647,14.574C-18.754,22.498 -9.997,27.782 0,27.782" style="fill:white;fill-rule:nonzero;"/>
                </g>
                <g transform="matrix(1,0,0,1,174.284,313.685)">
                    <path d="M0,27.782C9.997,27.782 18.754,22.498 23.647,14.574C23.904,14.158 23.904,13.625 23.647,13.208C18.754,5.285 9.997,0 0,0C-9.997,0 -18.754,5.285 -23.647,13.208C-23.904,13.625 -23.904,14.158 -23.647,14.574C-18.754,22.498 -9.997,27.782 0,27.782Z" style="fill:none;fill-rule:nonzero;stroke:rgb(66,69,70);stroke-width:0.69px;"/>
                </g>
                <g transform="matrix(0,-1,-1,0,174.284,316.619)">
                    <path d="M-10.958,-10.958C-4.906,-10.958 -0,-6.051 -0,-0C-0,6.052 -4.906,10.958 -10.958,10.958C-17.01,10.958 -21.915,6.052 -21.915,-0C-21.915,-6.051 -17.01,-10.958 -10.958,-10.958" style="fill:rgb(21,133,198);fill-rule:nonzero;"/>
                </g>
                <g transform="matrix(0,-1,-1,0,174.284,321.242)">
                    <path d="M-6.335,-6.335C-2.837,-6.335 -0.001,-3.499 -0.001,-0.001C-0.001,3.499 -2.837,6.335 -6.335,6.335C-9.833,6.335 -12.669,3.499 -12.669,-0.001C-12.669,-3.499 -9.833,-6.335 -6.335,-6.335" style="fill:rgb(66,69,70);fill-rule:nonzero;"/>
                </g>
                <g transform="matrix(0,1,1,0,204.47,387.955)">
                    <path d="M-12.849,-12.849L12.849,-12.849" style="fill:none;fill-rule:nonzero;stroke:white;stroke-width:1px;"/>
                </g>
                <g transform="matrix(1,0,0,1,83.8829,388.455)">
                    <path d="M0,12.349L0,3.555C0,1.592 1.592,0 3.555,0L213.561,0C215.524,0 217.116,1.592 217.116,3.555L217.116,12.349" style="fill:none;fill-rule:nonzero;stroke:white;stroke-width:1px;"/>
                </g>
                <g transform="matrix(1,0,0,1,58.9597,422.06)">
                    <path d="M0,0L47.621,0" style="fill:none;fill-rule:nonzero;stroke:white;stroke-width:0.5px;"/>
                </g>
                <g transform="matrix(1,0,0,1,162.327,422.06)">
                    <path d="M0,0L59.621,0" style="fill:none;fill-rule:nonzero;stroke:white;stroke-width:0.5px;"/>
                </g>
                <g transform="matrix(1,0,0,1,286.978,422.06)">
                    <path d="M0,0L27.621,0" style="fill:none;fill-rule:nonzero;stroke:white;stroke-width:0.5px;"/>
                </g>
                <g transform="matrix(0,-1,-1,0,155.721,463.095)">
                    <path d="M-1.597,-1.597C-2.479,-1.597 -3.193,-0.882 -3.193,-0C-3.193,0.881 -2.479,1.597 -1.597,1.597C-0.715,1.597 -0,0.881 -0,-0C-0,-0.882 -0.715,-1.597 -1.597,-1.597" style="fill:white;fill-rule:nonzero;"/>
                </g>
                <g transform="matrix(0,-1,-1,0,50.5559,437.499)">
                    <path d="M-1.597,-1.597C-2.479,-1.597 -3.193,-0.882 -3.193,-0C-3.193,0.881 -2.479,1.597 -1.597,1.597C-0.715,1.597 -0,0.881 -0,-0C-0,-0.882 -0.715,-1.597 -1.597,-1.597" style="fill:white;fill-rule:nonzero;"/>
                </g>
                <g transform="matrix(0,-1,-1,0,50.5559,471.499)">
                    <path d="M-1.597,-1.597C-2.479,-1.597 -3.193,-0.882 -3.193,-0C-3.193,0.881 -2.479,1.597 -1.597,1.597C-0.715,1.597 -0,0.881 -0,-0C-0,-0.882 -0.715,-1.597 -1.597,-1.597" style="fill:white;fill-rule:nonzero;"/>
                </g>
                <g transform="matrix(0,-1,-1,0,50.5559,505.054)">
                    <path d="M-1.597,-1.597C-2.479,-1.597 -3.193,-0.882 -3.193,-0C-3.193,0.881 -2.479,1.597 -1.597,1.597C-0.715,1.597 -0,0.881 -0,-0C-0,-0.882 -0.715,-1.597 -1.597,-1.597" style="fill:white;fill-rule:nonzero;"/>
                </g>
                <g transform="matrix(0,-1,-1,0,155.721,438.095)">
                    <path d="M-1.597,-1.597C-2.479,-1.597 -3.193,-0.882 -3.193,-0C-3.193,0.881 -2.479,1.597 -1.597,1.597C-0.715,1.597 -0,0.881 -0,-0C-0,-0.882 -0.715,-1.597 -1.597,-1.597" style="fill:white;fill-rule:nonzero;"/>
                </g>
                <g transform="matrix(0,-1,-1,0,269.72,438.095)">
                    <path d="M-1.597,-1.597C-2.479,-1.597 -3.193,-0.882 -3.193,-0C-3.193,0.881 -2.479,1.597 -1.597,1.597C-0.715,1.597 -0,0.881 -0,-0C-0,-0.882 -0.715,-1.597 -1.597,-1.597" style="fill:white;fill-rule:nonzero;"/>
                </g>
                <g transform="matrix(0,-1,-1,0,269.72,471.095)">
                    <path d="M-1.597,-1.597C-2.479,-1.597 -3.193,-0.882 -3.193,-0C-3.193,0.881 -2.479,1.597 -1.597,1.597C-0.715,1.597 -0,0.881 -0,-0C-0,-0.882 -0.715,-1.597 -1.597,-1.597" style="fill:white;fill-rule:nonzero;"/>
                </g>
                <g transform="matrix(0,-1,-1,0,269.72,496.095)">
                    <path d="M-1.597,-1.597C-2.479,-1.597 -3.193,-0.882 -3.193,-0C-3.193,0.881 -2.479,1.597 -1.597,1.597C-0.715,1.597 -0,0.881 -0,-0C-0,-0.882 -0.715,-1.597 -1.597,-1.597" style="fill:white;fill-rule:nonzero;"/>
                </g>
                <g transform="matrix(0,-1,-1,0,155.721,488.095)">
                    <path d="M-1.597,-1.597C-2.479,-1.597 -3.193,-0.882 -3.193,-0C-3.193,0.881 -2.479,1.597 -1.597,1.597C-0.715,1.597 -0,0.881 -0,-0C-0,-0.882 -0.715,-1.597 -1.597,-1.597" style="fill:white;fill-rule:nonzero;"/>
                </g>
            </g>
        </g>
    </g>
</svg>
