<?xml version="1.0" encoding="utf-8"?>
<!-- Generator: Adobe Illustrator 25.2.0, SVG Export Plug-In . SVG Version: 6.00 Build 0)  -->
<svg version="1.1" xmlns="http://www.w3.org/2000/svg" xmlns:xlink="http://www.w3.org/1999/xlink" x="0px" y="0px"
	 viewBox="0 0 322.9 222.9" style="enable-background:new 0 0 322.9 222.9;" xml:space="preserve">
<style type="text/css">
	.st0{fill:#251445;}
	.st1{fill:#666864;}
	.st2{fill:#5AA7D9;}
	.st3{fill:#282C2E;}
	.st4{fill:#FFFFFF;}
	.st5{fill:#8E9192;}
	.st6{fill:#757A7B;}
	.st7{clip-path:url(#XMLID_4_);fill:#FFFFFF;}
	.st8{clip-path:url(#XMLID_5_);}
	.st9{fill:#FFFFFF;stroke:#000000;stroke-width:0.6051;stroke-miterlimit:10;}
	.st10{fill:#FFFFFF;stroke:#000000;stroke-width:1.0845;stroke-miterlimit:10;}
	.st11{fill:#FFFFFF;stroke:#000000;stroke-width:0.5998;stroke-miterlimit:10;}
	.st12{fill:#FFFFFF;stroke:#000000;stroke-width:0.995;stroke-miterlimit:10;}
	.st13{fill:#FFFFFF;stroke:#000000;stroke-width:1.9641;stroke-linecap:round;stroke-miterlimit:10;}
</style>
<g id="Layer_3">
</g>
<g id="Layer_1">
</g>
<g id="Layer_4">
</g>
<g id="Layer_2">
	<g>
		<g>
			<defs>
				<rect id="XMLID_10_" x="66.8" y="18.9" width="138" height="33.2"/>
			</defs>
			<use xlink:href="#XMLID_10_"  style="overflow:visible;"/>
			<clipPath id="XMLID_2_">
				<use xlink:href="#XMLID_10_"  style="overflow:visible;"/>
			</clipPath>
		</g>
		<g>
			<path class="st4" d="M107.9,39.5v6.9H103V26.1h8.1c1.5,0,2.9,0.3,4.1,0.9c1.2,0.6,2.1,1.4,2.8,2.4c0.7,1.1,1,2.2,1,3.6
				c0,2-0.7,3.6-2.1,4.7c-1.4,1.2-3.4,1.8-5.8,1.8H107.9z M107.9,35.7h3.2c0.9,0,1.7-0.2,2.2-0.7c0.5-0.5,0.7-1.1,0.7-2
				c0-0.9-0.3-1.7-0.8-2.3c-0.5-0.6-1.2-0.9-2.1-0.9h-3.3V35.7z"/>
			<path class="st5" d="M130.4,35.5l-1.5-0.1c-1.5,0-2.4,0.5-2.8,1.4v9.5h-4.7V31.3h4.4l0.2,1.9c0.8-1.5,1.9-2.2,3.3-2.2
				c0.5,0,0.9,0.1,1.3,0.2L130.4,35.5z"/>
			<path class="st5" d="M139.1,46.6c-2.3,0-4.2-0.7-5.6-2.1c-1.4-1.4-2.1-3.2-2.1-5.4v-0.4c0-1.5,0.3-2.9,0.9-4.1
				c0.6-1.2,1.4-2.1,2.5-2.7c1.1-0.6,2.4-1,3.9-1c2.1,0,3.8,0.7,5,2c1.2,1.3,1.8,3.1,1.8,5.5v1.8h-9.3c0.2,0.8,0.5,1.5,1.1,2
				c0.6,0.5,1.3,0.7,2.2,0.7c1.5,0,2.6-0.5,3.5-1.6l2.1,2.5c-0.6,0.8-1.4,1.4-2.5,1.9C141.5,46.4,140.4,46.6,139.1,46.6z
				 M138.6,34.6c-1.4,0-2.2,0.9-2.4,2.7h4.7V37c0-0.8-0.2-1.3-0.6-1.7C139.9,34.8,139.4,34.6,138.6,34.6z"/>
			<path class="st5" d="M146.8,38.7c0-2.4,0.5-4.3,1.5-5.6c1-1.4,2.5-2.1,4.3-2.1c1.3,0,2.5,0.5,3.4,1.6V25h4.7v21.4h-4.2l-0.2-1.6
				c-1,1.3-2.2,1.9-3.7,1.9c-1.8,0-3.2-0.7-4.3-2.1C147.3,43.2,146.8,41.2,146.8,38.7z M151.5,39c0,2.7,0.8,4,2.3,4
				c1,0,1.8-0.4,2.2-1.3V36c-0.4-0.9-1.2-1.3-2.2-1.3c-1.4,0-2.2,1.2-2.4,3.5L151.5,39z"/>
			<path class="st5" d="M163.4,27.4c0-0.7,0.2-1.2,0.7-1.6c0.5-0.4,1.1-0.6,1.9-0.6c0.8,0,1.4,0.2,1.9,0.6c0.5,0.4,0.7,1,0.7,1.6
				s-0.2,1.2-0.7,1.6c-0.5,0.4-1.1,0.6-1.9,0.6c-0.8,0-1.4-0.2-1.9-0.6C163.6,28.6,163.4,28.1,163.4,27.4z M168.3,46.3h-4.7V31.3
				h4.7V46.3z"/>
			<path class="st5" d="M177.6,43c0.7,0,1.2-0.2,1.5-0.5c0.4-0.4,0.5-0.9,0.5-1.5h4.4c0,1.7-0.6,3-1.8,4.1c-1.2,1.1-2.7,1.6-4.6,1.6
				c-2.2,0-3.9-0.7-5.2-2.1c-1.3-1.4-1.9-3.3-1.9-5.7v-0.2c0-1.5,0.3-2.9,0.8-4c0.6-1.2,1.4-2.1,2.4-2.7c1.1-0.6,2.3-0.9,3.8-0.9
				c2,0,3.5,0.5,4.7,1.6c1.1,1.1,1.7,2.6,1.7,4.4h-4.4c0-0.8-0.2-1.4-0.6-1.8c-0.4-0.4-0.9-0.6-1.5-0.6c-1.2,0-1.9,0.8-2.1,2.3
				c-0.1,0.5-0.1,1.2-0.1,2c0,1.5,0.2,2.6,0.5,3.1C176.2,42.7,176.8,43,177.6,43z"/>
			<path class="st5" d="M191.5,27.5v3.7h2.5v3.3h-2.5v6.9c0,0.6,0.1,1,0.3,1.2c0.2,0.2,0.6,0.3,1.2,0.3c0.5,0,0.9,0,1.2-0.1v3.4
				c-0.8,0.3-1.7,0.4-2.6,0.4c-1.6,0-2.8-0.4-3.6-1.1c-0.8-0.8-1.2-1.9-1.2-3.5v-7.5h-1.9v-3.3h1.9v-3.7H191.5z"/>
		</g>
		<g>
			<defs>
				<rect id="XMLID_9_" x="66.8" y="56.7" width="94.7" height="33.2"/>
			</defs>
			<use xlink:href="#XMLID_9_"  style="overflow:visible;"/>
			<clipPath id="XMLID_3_">
				<use xlink:href="#XMLID_9_"  style="overflow:visible;"/>
			</clipPath>
		</g>
		<g>
			<path class="st4" d="M110.5,74.8h-2.6V82H103V61.8h8c2.4,0,4.3,0.5,5.6,1.6c1.4,1.1,2,2.6,2,4.5c0,1.4-0.3,2.6-0.9,3.5
				c-0.6,0.9-1.5,1.7-2.7,2.3l4.2,8.2V82h-5.2L110.5,74.8z M107.9,71.1h3.1c0.9,0,1.6-0.2,2.1-0.7c0.5-0.5,0.7-1.2,0.7-2
				c0-0.9-0.2-1.6-0.7-2.1c-0.5-0.5-1.2-0.7-2.1-0.7h-3.1V71.1z"/>
			<path class="st6" d="M130.3,80.4c-1,1.3-2.3,1.9-4,1.9c-1.7,0-2.9-0.5-3.7-1.4c-0.8-1-1.3-2.3-1.3-4.1V67h4.7v9.8
				c0,1.3,0.6,1.9,1.9,1.9c1.1,0,1.8-0.4,2.3-1.2V67h4.7V82h-4.4L130.3,80.4z"/>
			<path class="st6" d="M141.7,67l0.2,1.8c1-1.4,2.5-2,4.3-2c1.6,0,2.7,0.5,3.5,1.4c0.8,0.9,1.2,2.3,1.2,4.2V82h-4.7v-9.5
				c0-0.8-0.2-1.3-0.5-1.7c-0.3-0.4-0.9-0.5-1.7-0.5c-0.9,0-1.6,0.4-2,1.1V82h-4.7V67H141.7z"/>
		</g>
		<g>
			<defs>
				<rect id="XMLID_8_" x="66.8" y="95.2" width="189.3" height="33.2"/>
			</defs>
			<use xlink:href="#XMLID_8_"  style="overflow:visible;"/>
			<clipPath id="XMLID_4_">
				<use xlink:href="#XMLID_8_"  style="overflow:visible;"/>
			</clipPath>
			
				<rect x="81.8" y="118.6" transform="matrix(-0.9999 -1.508741e-02 1.508741e-02 -0.9999 166.4948 258.2183)" class="st7" width="4.9" height="19.8"/>
			<path class="st7" d="M92.8,103c-4.4-4.5-11.6-4.6-16.1-0.2c-4.5,4.4-4.6,11.6-0.2,16.1c4.4,4.5,11.6,4.6,16.1,0.2
				C97,114.8,97.1,107.6,92.8,103z M89.6,116.1c-2.8,2.8-7.4,2.7-10.1-0.2c-2.8-2.8-2.7-7.4,0.2-10.1c2.8-2.8,7.4-2.7,10.1,0.2
				C92.5,108.8,92.4,113.4,89.6,116.1z"/>
		</g>
		<g>
			<path class="st4" d="M108.2,121.2h-4.9V101h4.9V121.2z"/>
			<path class="st6" d="M115.7,106.2l0.2,1.8c1-1.4,2.5-2,4.3-2c1.6,0,2.7,0.5,3.5,1.4c0.8,0.9,1.2,2.3,1.2,4.2v9.7h-4.7v-9.5
				c0-0.8-0.2-1.3-0.5-1.7c-0.3-0.4-0.9-0.5-1.7-0.5c-0.9,0-1.6,0.4-2,1.1v10.6h-4.7v-15.1H115.7z"/>
			<path class="st6" d="M133.4,115.7l2.4-9.5h4.9l-4.9,15.1h-4.8l-4.9-15.1h5L133.4,115.7z"/>
			<path class="st6" d="M149.3,121.5c-2.3,0-4.2-0.7-5.6-2.1c-1.4-1.4-2.1-3.2-2.1-5.4v-0.4c0-1.5,0.3-2.9,0.9-4.1
				c0.6-1.2,1.4-2.1,2.5-2.7c1.1-0.6,2.4-1,3.9-1c2.1,0,3.8,0.7,5,2c1.2,1.3,1.8,3.1,1.8,5.5v1.8h-9.3c0.2,0.8,0.5,1.5,1.1,2
				c0.6,0.5,1.3,0.7,2.2,0.7c1.5,0,2.6-0.5,3.5-1.6l2.1,2.5c-0.6,0.8-1.4,1.4-2.5,1.9C151.6,121.3,150.5,121.5,149.3,121.5z
				 M148.7,109.5c-1.4,0-2.2,0.9-2.4,2.7h4.7v-0.4c0-0.8-0.2-1.3-0.6-1.7C150,109.7,149.5,109.5,148.7,109.5z"/>
			<path class="st6" d="M165.4,117c0-0.4-0.2-0.7-0.6-1c-0.4-0.2-1.2-0.5-2.4-0.8c-1.2-0.3-2.1-0.6-2.9-1c-0.8-0.4-1.3-0.9-1.7-1.5
				c-0.4-0.6-0.6-1.3-0.6-2.1c0-1.4,0.6-2.5,1.7-3.4c1.1-0.9,2.6-1.3,4.5-1.3c2,0,3.6,0.4,4.8,1.3c1.2,0.9,1.8,2.1,1.8,3.5h-4.7
				c0-1.2-0.6-1.8-1.9-1.8c-0.5,0-0.9,0.1-1.2,0.4c-0.3,0.3-0.5,0.6-0.5,1c0,0.4,0.2,0.8,0.6,1c0.4,0.3,1.1,0.5,2,0.6
				c0.9,0.2,1.7,0.4,2.4,0.6c2.3,0.8,3.4,2.2,3.4,4.2c0,1.4-0.6,2.5-1.8,3.4c-1.2,0.9-2.8,1.3-4.7,1.3c-1.3,0-2.4-0.2-3.4-0.7
				c-1-0.5-1.8-1.1-2.4-1.9c-0.6-0.8-0.8-1.6-0.8-2.5h4.4c0,0.7,0.3,1.2,0.7,1.5c0.4,0.3,1,0.5,1.7,0.5c0.6,0,1.1-0.1,1.4-0.4
				C165.2,117.8,165.4,117.4,165.4,117z"/>
			<path class="st6" d="M177.5,102.4v3.7h2.5v3.3h-2.5v6.9c0,0.6,0.1,1,0.3,1.2c0.2,0.2,0.6,0.3,1.2,0.3c0.5,0,0.9,0,1.2-0.1v3.4
				c-0.8,0.3-1.7,0.4-2.6,0.4c-1.6,0-2.8-0.4-3.6-1.1c-0.8-0.8-1.2-1.9-1.2-3.5v-7.5h-1.9v-3.3h1.9v-3.7H177.5z"/>
			<path class="st6" d="M181.8,102.3c0-0.7,0.2-1.2,0.7-1.6c0.5-0.4,1.1-0.6,1.9-0.6c0.8,0,1.4,0.2,1.9,0.6c0.5,0.4,0.7,1,0.7,1.6
				s-0.2,1.2-0.7,1.6c-0.5,0.4-1.1,0.6-1.9,0.6c-0.8,0-1.4-0.2-1.9-0.6C182.1,103.5,181.8,103,181.8,102.3z M186.8,121.2h-4.7v-15.1
				h4.7V121.2z"/>
			<path class="st6" d="M189.1,113.6c0-1.5,0.3-2.9,0.8-4c0.5-1.2,1.2-2.1,2.2-2.7c0.9-0.6,2-1,3.3-1c1.6,0,2.8,0.5,3.7,1.6l0.2-1.3
				h4.3v14.5c0,1.3-0.3,2.5-0.9,3.5c-0.6,1-1.5,1.7-2.7,2.3c-1.2,0.5-2.5,0.8-4.1,0.8c-1.1,0-2.2-0.2-3.2-0.6c-1-0.4-1.8-1-2.4-1.6
				l2-2.8c0.9,1,2,1.5,3.4,1.5c2.1,0,3.1-1.1,3.1-3.2V120c-0.9,1-2,1.5-3.4,1.5c-1.8,0-3.3-0.7-4.5-2.1s-1.7-3.3-1.7-5.6V113.6z
				 M193.8,113.9c0,1.2,0.2,2.2,0.7,2.9c0.5,0.7,1.1,1.1,1.9,1.1c1,0,1.7-0.3,2.2-1v-6.3c-0.5-0.7-1.2-1-2.2-1c-0.8,0-1.5,0.4-2,1.1
				C194.1,111.4,193.8,112.5,193.8,113.9z"/>
			<path class="st6" d="M214.6,121.2c-0.2-0.3-0.3-0.8-0.4-1.3c-0.9,1.1-2.1,1.6-3.6,1.6c-1.4,0-2.6-0.4-3.6-1.3
				c-1-0.9-1.5-1.9-1.5-3.2c0-1.6,0.6-2.9,1.8-3.7c1.2-0.8,3-1.3,5.3-1.3h1.4v-0.8c0-1.4-0.6-2.1-1.8-2.1c-1.1,0-1.7,0.5-1.7,1.6
				h-4.7c0-1.5,0.6-2.6,1.9-3.5c1.2-0.9,2.8-1.4,4.7-1.4c1.9,0,3.4,0.5,4.5,1.4c1.1,0.9,1.7,2.2,1.7,3.9v6.7c0,1.4,0.2,2.4,0.6,3.2
				v0.2H214.6z M211.6,118.2c0.6,0,1.1-0.1,1.5-0.4c0.4-0.3,0.7-0.5,0.8-0.8v-2.4h-1.4c-1.6,0-2.4,0.7-2.4,2.2c0,0.4,0.1,0.8,0.4,1
				C210.8,118,211.2,118.2,211.6,118.2z"/>
			<path class="st6" d="M226.7,102.4v3.7h2.5v3.3h-2.5v6.9c0,0.6,0.1,1,0.3,1.2c0.2,0.2,0.6,0.3,1.2,0.3c0.5,0,0.9,0,1.2-0.1v3.4
				c-0.8,0.3-1.7,0.4-2.6,0.4c-1.6,0-2.8-0.4-3.6-1.1c-0.8-0.8-1.2-1.9-1.2-3.5v-7.5h-1.9v-3.3h1.9v-3.7H226.7z"/>
			<path class="st6" d="M238.3,121.5c-2.3,0-4.2-0.7-5.6-2.1c-1.4-1.4-2.1-3.2-2.1-5.4v-0.4c0-1.5,0.3-2.9,0.9-4.1
				c0.6-1.2,1.4-2.1,2.5-2.7c1.1-0.6,2.4-1,3.9-1c2.1,0,3.8,0.7,5,2c1.2,1.3,1.8,3.1,1.8,5.5v1.8h-9.3c0.2,0.8,0.5,1.5,1.1,2
				c0.6,0.5,1.3,0.7,2.2,0.7c1.5,0,2.6-0.5,3.5-1.6l2.1,2.5c-0.6,0.8-1.4,1.4-2.5,1.9C240.6,121.3,239.5,121.5,238.3,121.5z
				 M237.7,109.5c-1.4,0-2.2,0.9-2.4,2.7h4.7v-0.4c0-0.8-0.2-1.3-0.6-1.7C239,109.7,238.5,109.5,237.7,109.5z"/>
		</g>
		<g>
			<defs>
				<rect id="XMLID_7_" x="66.8" y="133" width="131.8" height="33.2"/>
			</defs>
			<use xlink:href="#XMLID_7_"  style="overflow:visible;"/>
			<clipPath id="XMLID_5_">
				<use xlink:href="#XMLID_7_"  style="overflow:visible;"/>
			</clipPath>
			<g class="st8">
				<polygon class="st4" points="84.3,147.4 84.1,182.2 82.1,182.2 82.2,147.4 78.1,147.4 77.8,204.1 88.6,204.1 88.9,147.4 				"/>
				<g>
					<polygon class="st4" points="85.5,140 83.5,136.8 81.5,139.9 					"/>
					<polygon class="st4" points="80.3,142 78.5,144.8 88.5,144.8 86.8,142 					"/>
				</g>
			</g>
		</g>
		<g>
			<path class="st4" d="M109.4,138.1l4.5,14.1l4.5-14.1h6.4v20.3H120v-4.7l0.5-9.7l-4.9,14.4h-3.2l-4.9-14.4l0.5,9.7v4.7H103v-20.3
				H109.4z"/>
			<path class="st6" d="M127.2,150.7c0-1.5,0.3-2.8,0.9-4c0.6-1.2,1.4-2.1,2.5-2.7c1.1-0.6,2.4-0.9,3.9-0.9c2.3,0,4,0.7,5.3,2.1
				c1.3,1.4,1.9,3.3,1.9,5.7v0.2c0,2.3-0.7,4.2-2,5.6c-1.3,1.4-3.1,2.1-5.3,2.1c-2.1,0-3.9-0.6-5.2-1.9c-1.3-1.3-2-3-2.1-5.2
				L127.2,150.7z M131.8,151c0,1.4,0.2,2.4,0.7,3.1c0.4,0.6,1.1,1,1.9,1c1.7,0,2.5-1.3,2.6-3.9v-0.5c0-2.7-0.9-4-2.6-4
				c-1.6,0-2.4,1.2-2.5,3.5L131.8,151z"/>
			<path class="st6" d="M143.2,150.7c0-2.4,0.5-4.3,1.5-5.6c1-1.4,2.5-2.1,4.3-2.1c1.3,0,2.5,0.5,3.4,1.6V137h4.7v21.4h-4.2
				l-0.2-1.6c-1,1.3-2.2,1.9-3.7,1.9c-1.8,0-3.2-0.7-4.3-2.1C143.7,155.2,143.2,153.2,143.2,150.7z M147.8,151c0,2.7,0.8,4,2.3,4
				c1,0,1.8-0.4,2.2-1.3v-5.7c-0.4-0.9-1.2-1.3-2.2-1.3c-1.4,0-2.2,1.2-2.4,3.5L147.8,151z"/>
			<path class="st6" d="M159.7,139.4c0-0.7,0.2-1.2,0.7-1.6c0.5-0.4,1.1-0.6,1.9-0.6c0.8,0,1.4,0.2,1.9,0.6c0.5,0.4,0.7,1,0.7,1.6
				s-0.2,1.2-0.7,1.6c-0.5,0.4-1.1,0.6-1.9,0.6c-0.8,0-1.4-0.2-1.9-0.6C160,140.6,159.7,140.1,159.7,139.4z M164.7,158.3H160v-15.1
				h4.7V158.3z"/>
			<path class="st6" d="M168.6,158.3v-11.8h-2.2v-3.3h2.2v-1.2c0-1.7,0.5-3,1.5-4c1-0.9,2.4-1.4,4.3-1.4c0.7,0,1.4,0.1,2.2,0.3
				l0,3.4c-0.3-0.1-0.7-0.1-1.2-0.1c-1.4,0-2.1,0.6-2.1,1.8v1.2h2.9v3.3h-2.9v11.8H168.6z"/>
			<path class="st6" d="M183.9,151.8l2.5-8.5h5l-6.1,17.6l-0.3,0.6c-0.9,1.9-2.4,2.9-4.6,2.9c-0.6,0-1.3-0.1-1.9-0.3v-3.3h0.6
				c0.7,0,1.2-0.1,1.5-0.3s0.6-0.5,0.8-1l0.4-1l-5.2-15.2h5L183.9,151.8z"/>
		</g>
		<g>
			<defs>
				<rect id="XMLID_6_" x="66.8" y="170.8" width="115.7" height="33.2"/>
			</defs>
			<use xlink:href="#XMLID_6_"  style="overflow:visible;"/>
			<clipPath id="XMLID_11_">
				<use xlink:href="#XMLID_6_"  style="overflow:visible;"/>
			</clipPath>
		</g>
		<g>
			<path class="st4" d="M109.4,176.6l4.5,14.1l4.5-14.1h6.4v20.3H120v-4.7l0.5-9.7l-4.9,14.4h-3.2l-4.9-14.4l0.5,9.7v4.7H103v-20.3
				H109.4z"/>
			<path class="st6" d="M136.2,196.8c-0.2-0.3-0.3-0.8-0.4-1.3c-0.9,1.1-2.1,1.6-3.6,1.6c-1.4,0-2.6-0.4-3.6-1.3
				c-1-0.9-1.5-1.9-1.5-3.2c0-1.6,0.6-2.9,1.8-3.7c1.2-0.8,3-1.3,5.3-1.3h1.4v-0.8c0-1.4-0.6-2.1-1.8-2.1c-1.1,0-1.7,0.5-1.7,1.6
				h-4.7c0-1.5,0.6-2.6,1.9-3.5c1.2-0.9,2.8-1.4,4.7-1.4c1.9,0,3.4,0.5,4.5,1.4c1.1,0.9,1.7,2.2,1.7,3.9v6.7c0,1.4,0.2,2.4,0.6,3.2
				v0.2H136.2z M133.3,193.8c0.6,0,1.1-0.1,1.5-0.4c0.4-0.3,0.7-0.5,0.8-0.8v-2.4h-1.4c-1.6,0-2.4,0.7-2.4,2.2c0,0.4,0.1,0.8,0.4,1
				C132.5,193.6,132.9,193.8,133.3,193.8z"/>
			<path class="st6" d="M148.9,191.2l-1.3,1.3v4.3h-4.7v-21.4h4.7v11.4l0.5-0.6l3.5-4.4h5.6l-5.3,6.2l5.6,8.9h-5.4L148.9,191.2z"/>
			<path class="st6" d="M165.5,197.1c-2.3,0-4.2-0.7-5.6-2.1c-1.4-1.4-2.1-3.2-2.1-5.4v-0.4c0-1.5,0.3-2.9,0.9-4.1
				c0.6-1.2,1.4-2.1,2.5-2.7c1.1-0.6,2.4-1,3.9-1c2.1,0,3.8,0.7,5,2c1.2,1.3,1.8,3.1,1.8,5.5v1.8h-9.3c0.2,0.8,0.5,1.5,1.1,2
				c0.6,0.5,1.3,0.7,2.2,0.7c1.5,0,2.6-0.5,3.5-1.6l2.1,2.5c-0.6,0.8-1.4,1.4-2.5,1.9C167.8,196.9,166.7,197.1,165.5,197.1z
				 M164.9,185.1c-1.4,0-2.2,0.9-2.4,2.7h4.7v-0.4c0-0.8-0.2-1.3-0.6-1.7C166.2,185.3,165.7,185.1,164.9,185.1z"/>
		</g>
		<path class="st4" d="M97,75.5v-4.8h-3.2c-0.2-0.9-0.6-1.8-1.1-2.5l2.3-2.3l-3.4-3.4l-2.3,2.3c-0.8-0.4-1.6-0.8-2.5-1v-3.3H82v3.3
			c-0.9,0.2-1.7,0.6-2.5,1l-2.3-2.3l-3.4,3.4l2.3,2.3c-0.5,0.8-0.8,1.6-1.1,2.5h-3.2v4.8h3.1c0.2,0.9,0.6,1.8,1.1,2.7l-2.2,2.2
			l3.4,3.4l2.1-2.1c0.8,0.5,1.7,0.9,2.7,1.1v3h4.8v-3c1-0.2,1.9-0.6,2.7-1.1l2.1,2.1l3.4-3.4l-2.2-2.2c0.5-0.8,0.8-1.7,1.1-2.7H97z
			 M79.1,73.2c0-2.9,2.4-5.3,5.3-5.3c2.9,0,5.3,2.4,5.3,5.3c0,2.9-2.4,5.3-5.3,5.3C81.5,78.5,79.1,76.2,79.1,73.2z"/>
		<path class="st9" d="M95.4,32.8c0,1.6-0.4,3.1-1.2,4.4c-1.6,2.9-4.8,4.9-8.5,4.9c-3.2,0-6.1-1.5-7.8-3.8c-1.2-1.5-1.9-3.4-1.9-5.5
			c0-5.1,4.3-9.3,9.7-9.3S95.4,27.7,95.4,32.8z"/>
		<polygon class="st10" points="94.2,47.6 77.1,47.6 80.9,41.6 90.4,41.6 		"/>
		<path class="st4" d="M92.3,182.3c0-5.3-4.7-9.6-10.2-9c-4.2,0.5-7.7,3.9-8.1,8c-0.3,3.2,1.1,6.2,3.4,8c1,0.7,1.5,1.9,1.5,3v3.3
			h8.3v-3.3c0-1.2,0.6-2.3,1.6-3.1C91,187.7,92.3,185.2,92.3,182.3z"/>
		<path class="st11" d="M86.6,199.2h-7c-0.6,0-1.1-0.5-1.1-1.1v-0.4c0-0.6,0.5-1.1,1.1-1.1h7c0.6,0,1.1,0.5,1.1,1.1v0.4
			C87.7,198.7,87.2,199.2,86.6,199.2z"/>
		<path class="st12" d="M84.3,201.8h-2.3c-1.4,0-2.6-1.2-2.6-2.6l0,0h7.5l0,0C86.9,200.7,85.7,201.8,84.3,201.8z"/>
		<path class="st13" d="M85.3,27.1c3.7,0,6.7,2.9,6.7,6.4"/>
	</g>
	<g>
		<path class="st4" d="M83.2,186.3c-1.8,0-3.2-1.4-3.2-3.2c0-1.8,1.4-3.2,3.2-3.2s3.2,1.4,3.2,3.2C86.3,184.8,84.9,186.3,83.2,186.3
			z"/>
		<path d="M83.2,181c1.1,0,2.1,0.9,2.1,2.1c0,1.1-0.9,2.1-2.1,2.1s-2.1-0.9-2.1-2.1C81.1,181.9,82,181,83.2,181 M83.2,178.8
			c-2.4,0-4.3,1.9-4.3,4.3s1.9,4.3,4.3,4.3s4.3-1.9,4.3-4.3S85.5,178.8,83.2,178.8L83.2,178.8z"/>
	</g>
	<g>
		<rect x="82" y="186.1" width="2.3" height="10.1"/>
	</g>
</g>
<g id="Layer_5">
</g>
</svg>
