<?xml version="1.0" encoding="UTF-8" standalone="no"?>
<!DOCTYPE svg PUBLIC "-//W3C//DTD SVG 1.1//EN" "http://www.w3.org/Graphics/SVG/1.1/DTD/svg11.dtd">
<svg width="100%" height="100%" viewBox="0 0 1427 968" version="1.1" xmlns="http://www.w3.org/2000/svg" xmlns:xlink="http://www.w3.org/1999/xlink" xml:space="preserve" xmlns:serif="http://www.serif.com/" style="fill-rule:evenodd;clip-rule:evenodd;stroke-miterlimit:10;">
    <g id="Artboard1" transform="matrix(1,0,0,1,-94.284,-1108.23)">
        <rect x="94.284" y="1108.23" width="1426.15" height="967.804" style="fill:none;"/>
        <clipPath id="_clip1">
            <rect x="94.284" y="1108.23" width="1426.15" height="967.804"/>
        </clipPath>
        <g clip-path="url(#_clip1)">
            <g id="Layer-1" serif:id="Layer 1" transform="matrix(4.16667,0,0,4.16667,0.284,0.229167)">
                <g transform="matrix(0.24,0,0,0.24,0,0)">
                    <path d="M1520.43,1161.67L1520.43,2022.59C1520.43,2052.09 1496.49,2076.03 1466.99,2076.03L147.73,2076.03C118.232,2076.03 94.284,2052.09 94.284,2022.59L94.284,1161.67C94.284,1132.18 118.232,1108.23 147.73,1108.23L1466.99,1108.23C1496.49,1108.23 1520.43,1132.18 1520.43,1161.67Z" style="fill:rgb(44,48,120);"/>
                </g>
                <g transform="matrix(-1,0,0,1,602.873,-3.031)">
                    <rect x="-6.897" y="-16.681" width="625.171" height="886.787" style="fill:none;stroke:rgb(35,31,32);stroke-width:0.99px;"/>
                </g>
                <g transform="matrix(1,0,0,1,93.3288,317.131)">
                    <path d="M0,33.758L-48.087,33.758C-49.719,33.758 -51.041,32.435 -51.041,30.804L-51.041,2.954C-51.041,1.323 -49.719,0 -48.087,0L0,0C1.632,0 2.954,1.323 2.954,2.954L2.954,30.804C2.954,32.435 1.632,33.758 0,33.758" style="fill:rgb(89,167,218);fill-rule:nonzero;"/>
                </g>
                <g transform="matrix(1,0,0,1,111.455,335.354)">
                    <path d="M0,-2.687L-2.069,-2.687L-2.069,-4.756C-2.069,-5.025 -2.287,-5.244 -2.557,-5.244L-4.268,-5.244C-4.537,-5.244 -4.756,-5.025 -4.756,-4.756L-4.756,-2.687L-6.825,-2.687C-7.094,-2.687 -7.312,-2.469 -7.312,-2.199L-7.312,-0.488C-7.312,-0.219 -7.094,0 -6.825,0L-4.756,0L-4.756,2.069C-4.756,2.338 -4.537,2.557 -4.268,2.557L-2.557,2.557C-2.287,2.557 -2.069,2.338 -2.069,2.069L-2.069,0L0,0C0.269,0 0.488,-0.219 0.488,-0.488L0.488,-2.199C0.488,-2.469 0.269,-2.687 0,-2.687" style="fill:white;fill-rule:nonzero;"/>
                </g>
                <g transform="matrix(1,0,0,1,172.609,317.131)">
                    <path d="M0,33.758L-48.087,33.758C-49.719,33.758 -51.041,32.435 -51.041,30.804L-51.041,2.954C-51.041,1.323 -49.719,0 -48.087,0L0,0C1.632,0 2.954,1.323 2.954,2.954L2.954,30.804C2.954,32.435 1.632,33.758 0,33.758" style="fill:rgb(89,167,218);fill-rule:nonzero;"/>
                </g>
                <g transform="matrix(1,0,0,1,192.618,335.354)">
                    <path d="M0,-2.687L-2.069,-2.687L-2.069,-4.756C-2.069,-5.025 -2.287,-5.244 -2.557,-5.244L-4.268,-5.244C-4.537,-5.244 -4.756,-5.025 -4.756,-4.756L-4.756,-2.687L-6.825,-2.687C-7.094,-2.687 -7.312,-2.469 -7.312,-2.199L-7.312,-0.488C-7.312,-0.219 -7.094,0 -6.825,0L-4.756,0L-4.756,2.069C-4.756,2.338 -4.537,2.557 -4.268,2.557L-2.557,2.557C-2.287,2.557 -2.069,2.338 -2.069,2.069L-2.069,0L0,0C0.269,0 0.488,-0.219 0.488,-0.488L0.488,-2.199C0.488,-2.469 0.269,-2.687 0,-2.687" style="fill:white;fill-rule:nonzero;"/>
                </g>
                <g transform="matrix(1,0,0,1,257.772,317.131)">
                    <path d="M0,33.758L-48.087,33.758C-49.719,33.758 -51.041,32.435 -51.041,30.804L-51.041,2.954C-51.041,1.323 -49.719,0 -48.087,0L0,0C1.632,0 2.954,1.323 2.954,2.954L2.954,30.804C2.954,32.435 1.632,33.758 0,33.758" style="fill:rgb(89,167,218);fill-rule:nonzero;"/>
                </g>
                <g transform="matrix(1,0,0,1,279.598,335.354)">
                    <path d="M0,-2.687L-2.069,-2.687L-2.069,-4.756C-2.069,-5.025 -2.287,-5.244 -2.557,-5.244L-4.268,-5.244C-4.537,-5.244 -4.756,-5.025 -4.756,-4.756L-4.756,-2.687L-6.825,-2.687C-7.094,-2.687 -7.312,-2.469 -7.312,-2.199L-7.312,-0.488C-7.312,-0.219 -7.094,0 -6.825,0L-4.756,0L-4.756,2.069C-4.756,2.338 -4.537,2.557 -4.268,2.557L-2.557,2.557C-2.287,2.557 -2.069,2.338 -2.069,2.069L-2.069,0L0,0C0.269,0 0.488,-0.219 0.488,-0.488L0.488,-2.199C0.488,-2.469 0.269,-2.687 0,-2.687" style="fill:white;fill-rule:nonzero;"/>
                </g>
                <g transform="matrix(1,0,0,1,342.752,317.131)">
                    <path d="M0,33.758L-48.087,33.758C-49.719,33.758 -51.041,32.435 -51.041,30.804L-51.041,2.954C-51.041,1.323 -49.719,0 -48.087,0L0,0C1.632,0 2.954,1.323 2.954,2.954L2.954,30.804C2.954,32.435 1.632,33.758 0,33.758" style="fill:rgb(89,167,218);fill-rule:nonzero;"/>
                </g>
                <g transform="matrix(0.24,0,0,0.24,40.4938,246.978)">
                    <text x="66.281px" y="349.972px" style="font-family:'Roboto-Regular', 'Roboto';font-size:33.333px;fill:white;">Lesson</text>
                    <g transform="matrix(33.3333,0,0,33.3333,186.657,396.555)">
                    </g>
                    <text x="53.281px" y="396.555px" style="font-family:'Roboto-Regular', 'Roboto';font-size:33.333px;fill:white;">structur<tspan x="168.981px " y="396.555px ">e</tspan></text>
                </g>
                <g transform="matrix(0.24,0,0,0.24,98.3391,246.978)">
                    <text x="129.394px" y="349.972px" style="font-family:'Roboto-Regular', 'Roboto';font-size:33.333px;fill:white;">Language/</text>
                    <g transform="matrix(33.3333,0,0,33.3333,236.288,396.555)">
                    </g>
                    <text x="182.26px" y="396.555px" style="font-family:'Roboto-Regular', 'Roboto';font-size:33.333px;fill:white;">talk</text>
                </g>
                <g transform="matrix(0.24,0,0,0.24,80.1443,214.556)">
                    <text x="105.453px" y="323.072px" style="font-family:'Roboto-Bold', 'Roboto';font-weight:700;font-size:54.35px;fill:white;">P<tspan x="139.939px 153.778px 182.319px 212.24px 242.161px 256px 285.921px 316.425px 329.389px 357.93px 370.893px 384.732px 413.539px 440.912px 468.285px 498.419px 528.34px 541.303px 571.197px 598.571px 612.41px 642.331px 672.835px 685.799px 720.284px 754.557px 769.909px 816.947px " y="323.072px 323.072px 323.072px 323.072px 323.072px 323.072px 323.072px 323.072px 323.072px 323.072px 323.072px 323.072px 323.072px 323.072px 323.072px 323.072px 323.072px 323.072px 323.072px 323.072px 323.072px 323.072px 323.072px 323.072px 323.072px 323.072px 323.072px 323.072px ">lanning a lesson using PRIMM</tspan></text>
                    <g transform="matrix(38.8208,0,0,38.8208,796.678,377.227)">
                    </g>
                    <text x="173.631px" y="377.227px" style="font-family:'Roboto-Regular', 'Roboto';font-size:38.821px;fill:white;">P<tspan x="197.725px 210.484px 230.673px 252.17px 261.214px 281.138px 293.441px 303.774px 327.299px 348.303px 369.346px 379.678px 389.84px 410.882px 429.289px 449.479px 469.118px 481.422px 490.465px 511.868px 532.588px 544.891px 565.081px 575.413px 608.909px 630.652px 652.15px 661.193px 674.293px 692.264px 702.597px 736.093px 756.813px 776.092px " y="377.227px 377.227px 377.227px 377.227px 377.227px 377.227px 377.227px 377.227px 377.227px 377.227px 377.227px 377.227px 377.227px 377.227px 377.227px 377.227px 377.227px 377.227px 377.227px 377.227px 377.227px 377.227px 377.227px 377.227px 377.227px 377.227px 377.227px 377.227px 377.227px 377.227px 377.227px 377.227px 377.227px 377.227px ">redict-Run-Investigate-Modify-Make</tspan></text>
                </g>
                <g transform="matrix(0.24,0,0,0.24,164.343,246.978)">
                    <text x="223.775px" y="349.972px" style="font-family:'Roboto-Regular', 'Roboto';font-size:33.333px;fill:white;">Content/</text>
                    <g transform="matrix(33.3333,0,0,33.3333,362.012,396.555)">
                    </g>
                    <text x="216.241px" y="396.555px" style="font-family:'Roboto-Regular', 'Roboto';font-size:33.333px;fill:white;">questions</text>
                </g>
                <g transform="matrix(0.24,0,0,0.24,229.998,246.978)">
                    <text x="317.628px" y="349.972px" style="font-family:'Roboto-Regular', 'Roboto';font-size:33.333px;fill:white;">Shared</text>
                    <g transform="matrix(33.3333,0,0,33.3333,436.656,396.555)">
                    </g>
                    <text x="302.628px" y="396.555px" style="font-family:'Roboto-Regular', 'Roboto';font-size:33.333px;fill:white;">ar<tspan x="332.852px " y="396.555px ">t</tspan>efacts</text>
                </g>
                <g transform="matrix(0.24,0,0,0.24,31.0809,278.405)">
                    <text x="40.896px" y="388.789px" style="font-family:'Roboto-Regular', 'Roboto';font-size:29.956px;fill:white;">PRIMM fosters</text>
                    <text x="42.723px" y="430.454px" style="font-family:'Roboto-Regular', 'Roboto';font-size:29.956px;fill:white;">structure</text>
                    <text x="42.693px" y="488.785px" style="font-family:'Roboto-Regular', 'Roboto';font-size:29.956px;fill:white;">Routine be<tspan x="184.3px " y="488.785px ">c</tspan>omes</text>
                    <text x="42.723px" y="530.45px" style="font-family:'Roboto-Regular', 'Roboto';font-size:29.956px;fill:white;">familiar</text>
                    <text x="42.693px" y="588.781px" style="font-family:'Roboto-Regular', 'Roboto';font-size:29.956px;fill:white;">Educat<tspan x="134.565px " y="588.781px ">o</tspan>rs adapt</text>
                    <text x="42.723px" y="630.446px" style="font-family:'Roboto-Regular', 'Roboto';font-size:29.956px;fill:white;">t<tspan x="52.225px " y="630.446px ">o</tspan> students’ needs</text>
                    <text x="42.693px" y="688.777px" style="font-family:'Roboto-Regular', 'Roboto';font-size:29.956px;fill:white;">Each step can</text>
                    <text x="42.723px" y="730.441px" style="font-family:'Roboto-Regular', 'Roboto';font-size:29.956px;fill:white;">be fur<tspan x="120.615px " y="730.441px ">t</tspan>her</text>
                    <g transform="matrix(29.9563,0,0,29.9563,222.04,772.106)">
                    </g>
                    <text x="42.723px" y="772.106px" style="font-family:'Roboto-Regular', 'Roboto';font-size:29.956px;fill:white;">differentiat<tspan x="189.27px " y="772.106px ">e</tspan>d</text>
                </g>
                <g transform="matrix(0.24,0,0,0.24,94.9335,278.405)">
                    <text x="124.912px" y="388.789px" style="font-family:'Roboto-Regular', 'Roboto';font-size:29.956px;fill:white;">Students pr<tspan x="277.334px " y="388.789px ">a</tspan>ctise</text>
                    <text x="124.912px" y="430.454px" style="font-family:'Roboto-Regular', 'Roboto';font-size:29.956px;fill:white;">using appr<tspan x="264.667px " y="430.454px ">o</tspan>priate</text>
                    <text x="124.912px" y="472.119px" style="font-family:'Roboto-Regular', 'Roboto';font-size:29.956px;fill:white;">pr<tspan x="151.565px " y="472.119px ">o</tspan>gr<tspan x="194.996px " y="472.119px ">a</tspan>mming</text>
                    <text x="124.912px" y="513.783px" style="font-family:'Roboto-Regular', 'Roboto';font-size:29.956px;fill:white;">terms</text>
                    <text x="124.912px" y="572.114px" style="font-family:'Roboto-Regular', 'Roboto';font-size:29.956px;fill:white;">Misconception<tspan x="322.114px " y="572.114px ">s</tspan></text>
                    <text x="124.912px" y="613.779px" style="font-family:'Roboto-Regular', 'Roboto';font-size:29.956px;fill:white;">can be ar<tspan x="248.114px " y="613.779px ">t</tspan>iculated</text>
                    <text x="124.912px" y="655.444px" style="font-family:'Roboto-Regular', 'Roboto';font-size:29.956px;fill:white;">and explored</text>
                    <text x="124.912px" y="713.775px" style="font-family:'Roboto-Regular', 'Roboto';font-size:29.956px;fill:white;">Collabor<tspan x="235.784px " y="713.775px ">a</tspan>tive</text>
                    <text x="124.912px" y="755.439px" style="font-family:'Roboto-Regular', 'Roboto';font-size:29.956px;fill:white;">work is a key</text>
                    <text x="124.912px" y="797.104px" style="font-family:'Roboto-Regular', 'Roboto';font-size:29.956px;fill:white;">element of</text>
                    <g transform="matrix(29.9563,0,0,29.9563,222.721,838.769)">
                    </g>
                    <text x="124.912px" y="838.769px" style="font-family:'Roboto-Regular', 'Roboto';font-size:29.956px;fill:white;">PRIMM</text>
                </g>
                <g transform="matrix(0.24,0,0,0.24,158.567,278.405)">
                    <text x="208.641px" y="388.789px" style="font-family:'Roboto-Regular', 'Roboto';font-size:29.956px;fill:white;">Carefully sele<tspan x="387.981px " y="388.789px ">c</tspan>ted</text>
                    <text x="208.641px" y="430.454px" style="font-family:'Roboto-Regular', 'Roboto';font-size:29.956px;fill:white;">questions help</text>
                    <text x="208.641px" y="472.119px" style="font-family:'Roboto-Regular', 'Roboto';font-size:29.956px;fill:white;">students explo<tspan x="404.265px " y="472.119px ">r</tspan>e</text>
                    <text x="208.641px" y="513.783px" style="font-family:'Roboto-Regular', 'Roboto';font-size:29.956px;fill:white;">the pr<tspan x="284.885px " y="513.783px ">o</tspan>gr<tspan x="328.332px " y="513.783px ">a</tspan>m</text>
                    <text x="208.641px" y="572.114px" style="font-family:'Roboto-Regular', 'Roboto';font-size:29.956px;fill:white;">Should be within</text>
                    <text x="208.641px" y="613.779px" style="font-family:'Roboto-Regular', 'Roboto';font-size:29.956px;fill:white;">student’<tspan x="313.859px " y="613.779px ">s</tspan> ZPD</text>
                    <text x="208.641px" y="655.444px" style="font-family:'Roboto-Regular', 'Roboto';font-size:29.956px;fill:white;">(z<tspan x="233.501px " y="655.444px ">o</tspan>ne of pr<tspan x="351.963px 368.73px " y="655.444px 655.444px ">ox</tspan>imal</text>
                    <g transform="matrix(29.9563,0,0,29.9563,391.633,697.108)">
                    </g>
                    <text x="208.641px" y="697.108px" style="font-family:'Roboto-Regular', 'Roboto';font-size:29.956px;fill:white;">de<tspan x="241.219px " y="697.108px ">v</tspan>elopment)</text>
                </g>
                <g transform="matrix(0.24,0,0,0.24,223.152,278.405)">
                    <g transform="matrix(29.9563,0,0,29.9563,431.204,388.789)">
                    </g>
                    <g transform="matrix(29.9563,0,0,29.9563,440.968,388.789)">
                    </g>
                    <text x="293.621px" y="388.789px" style="font-family:'Roboto-Regular', 'Roboto';font-size:29.956px;fill:white;">Pr<tspan x="322.355px " y="388.789px ">o</tspan>gr<tspan x="365.793px " y="388.789px ">a</tspan>ms ﬁrst</text>
                    <text x="293.621px" y="430.454px" style="font-family:'Roboto-Regular', 'Roboto';font-size:29.956px;fill:white;">shared with</text>
                    <text x="293.621px" y="472.119px" style="font-family:'Roboto-Regular', 'Roboto';font-size:29.956px;fill:white;">learner (’<tspan x="409.098px " y="472.119px ">n</tspan>ot mine<tspan x="524.684px " y="472.119px ">’</tspan>)</text>
                    <text x="293.621px" y="530.45px" style="font-family:'Roboto-Regular', 'Roboto';font-size:29.956px;fill:white;">Giving students a</text>
                    <text x="293.621px" y="572.114px" style="font-family:'Roboto-Regular', 'Roboto';font-size:29.956px;fill:white;">pr<tspan x="320.273px " y="572.114px ">o</tspan>gr<tspan x="363.702px " y="572.114px ">a</tspan>m t<tspan x="423.148px " y="572.114px ">o</tspan> run</text>
                    <text x="293.621px" y="613.779px" style="font-family:'Roboto-Regular', 'Roboto';font-size:29.956px;fill:white;">(not cop<tspan x="404.197px 418.468px 428.994px 436.525px 446.495px " y="613.779px 613.779px 613.779px 613.779px 613.779px ">y) re</tspan>duces</text>
                    <text x="293.621px" y="655.444px" style="font-family:'Roboto-Regular', 'Roboto';font-size:29.956px;fill:white;">anxiety</text>
                    <text x="293.621px" y="713.775px" style="font-family:'Roboto-Regular', 'Roboto';font-size:29.956px;fill:white;">Gr<tspan x="323.583px " y="713.775px ">a</tspan>dually student</text>
                    <text x="293.621px" y="755.439px" style="font-family:'Roboto-Regular', 'Roboto';font-size:29.956px;fill:white;">takes ownership</text>
                    <g transform="matrix(29.9563,0,0,29.9563,391.037,797.104)">
                    </g>
                    <text x="293.621px" y="797.104px" style="font-family:'Roboto-Regular', 'Roboto';font-size:29.956px;fill:white;">(’mine<tspan x="374.617px " y="797.104px ">’</tspan>)</text>
                </g>
                <g transform="matrix(0,-1,-1,0,36.8172,367.936)">
                    <path d="M-1.597,-1.597C-2.479,-1.597 -3.193,-0.882 -3.193,-0C-3.193,0.881 -2.479,1.597 -1.597,1.597C-0.715,1.597 -0,0.881 -0,-0C-0,-0.882 -0.715,-1.597 -1.597,-1.597" style="fill:white;fill-rule:nonzero;"/>
                </g>
                <g transform="matrix(0,-1,-1,0,36.8172,391.936)">
                    <path d="M-1.597,-1.597C-2.479,-1.597 -3.193,-0.882 -3.193,-0C-3.193,0.881 -2.479,1.597 -1.597,1.597C-0.715,1.597 -0,0.881 -0,-0C-0,-0.882 -0.715,-1.597 -1.597,-1.597" style="fill:white;fill-rule:nonzero;"/>
                </g>
                <g transform="matrix(0,-1,-1,0,36.8172,415.936)">
                    <path d="M-1.597,-1.597C-2.479,-1.597 -3.193,-0.882 -3.193,-0C-3.193,0.881 -2.479,1.597 -1.597,1.597C-0.715,1.597 -0,0.881 -0,-0C-0,-0.882 -0.715,-1.597 -1.597,-1.597" style="fill:white;fill-rule:nonzero;"/>
                </g>
                <g transform="matrix(0,-1,-1,0,36.8172,439.376)">
                    <path d="M-1.597,-1.597C-2.479,-1.597 -3.193,-0.882 -3.193,-0C-3.193,0.881 -2.479,1.597 -1.597,1.597C-0.715,1.597 -0,0.881 -0,-0C-0,-0.882 -0.715,-1.597 -1.597,-1.597" style="fill:white;fill-rule:nonzero;"/>
                </g>
                <g transform="matrix(0,-1,-1,0,118.817,367.936)">
                    <path d="M-1.597,-1.597C-2.479,-1.597 -3.193,-0.882 -3.193,-0C-3.193,0.881 -2.479,1.597 -1.597,1.597C-0.715,1.597 -0,0.881 -0,-0C-0,-0.882 -0.715,-1.597 -1.597,-1.597" style="fill:white;fill-rule:nonzero;"/>
                </g>
                <g transform="matrix(0,-1,-1,0,118.817,411.541)">
                    <path d="M-1.597,-1.597C-2.479,-1.597 -3.193,-0.882 -3.193,-0C-3.193,0.881 -2.479,1.597 -1.597,1.597C-0.715,1.597 -0,0.881 -0,-0C-0,-0.882 -0.715,-1.597 -1.597,-1.597" style="fill:white;fill-rule:nonzero;"/>
                </g>
                <g transform="matrix(0,-1,-1,0,202.817,367.936)">
                    <path d="M-1.597,-1.597C-2.479,-1.597 -3.193,-0.882 -3.193,-0C-3.193,0.881 -2.479,1.597 -1.597,1.597C-0.715,1.597 -0,0.881 -0,-0C-0,-0.882 -0.715,-1.597 -1.597,-1.597" style="fill:white;fill-rule:nonzero;"/>
                </g>
                <g transform="matrix(0,-1,-1,0,203.484,411.936)">
                    <path d="M-1.597,-1.597C-2.479,-1.597 -3.193,-0.882 -3.193,-0C-3.193,0.881 -2.479,1.597 -1.597,1.597C-0.715,1.597 -0,0.881 -0,-0C-0,-0.882 -0.715,-1.597 -1.597,-1.597" style="fill:white;fill-rule:nonzero;"/>
                </g>
                <g transform="matrix(0,-1,-1,0,287.817,367.936)">
                    <path d="M-1.597,-1.597C-2.479,-1.597 -3.193,-0.882 -3.193,-0C-3.193,0.881 -2.479,1.597 -1.597,1.597C-0.715,1.597 -0,0.881 -0,-0C-0,-0.882 -0.715,-1.597 -1.597,-1.597" style="fill:white;fill-rule:nonzero;"/>
                </g>
                <g transform="matrix(0,-1,-1,0,287.817,401.458)">
                    <path d="M-1.597,-1.597C-2.479,-1.597 -3.193,-0.882 -3.193,-0C-3.193,0.881 -2.479,1.597 -1.597,1.597C-0.715,1.597 -0,0.881 -0,-0C-0,-0.882 -0.715,-1.597 -1.597,-1.597" style="fill:white;fill-rule:nonzero;"/>
                </g>
                <g transform="matrix(0,-1,-1,0,287.817,445.936)">
                    <path d="M-1.597,-1.597C-2.479,-1.597 -3.193,-0.882 -3.193,-0C-3.193,0.881 -2.479,1.597 -1.597,1.597C-0.715,1.597 -0,0.881 -0,-0C-0,-0.882 -0.715,-1.597 -1.597,-1.597" style="fill:white;fill-rule:nonzero;"/>
                </g>
                <g transform="matrix(0,-1,-1,0,118.817,445.376)">
                    <path d="M-1.597,-1.597C-2.479,-1.597 -3.193,-0.882 -3.193,-0C-3.193,0.881 -2.479,1.597 -1.597,1.597C-0.715,1.597 -0,0.881 -0,-0C-0,-0.882 -0.715,-1.597 -1.597,-1.597" style="fill:white;fill-rule:nonzero;"/>
                </g>
            </g>
        </g>
    </g>
</svg>
