<?xml version="1.0" encoding="UTF-8" standalone="no"?>
<!DOCTYPE svg PUBLIC "-//W3C//DTD SVG 1.1//EN" "http://www.w3.org/Graphics/SVG/1.1/DTD/svg11.dtd">
<svg width="100%" height="100%" viewBox="0 0 2311 604" version="1.1" xmlns="http://www.w3.org/2000/svg" xmlns:xlink="http://www.w3.org/1999/xlink" xml:space="preserve" xmlns:serif="http://www.serif.com/" style="fill-rule:evenodd;clip-rule:evenodd;stroke-miterlimit:10;">
    <g id="Artboard1" transform="matrix(1,0,0,1,-90.5007,-1816.4)">
        <rect x="90.501" y="1816.4" width="2310.82" height="603.508" style="fill:none;"/>
        <clipPath id="_clip1">
            <rect x="90.501" y="1816.4" width="2310.82" height="603.508"/>
        </clipPath>
        <g clip-path="url(#_clip1)">
            <g id="Layer-1" serif:id="Layer 1" transform="matrix(4.16667,0,0,4.16667,0.500667,0.397083)">
                <g transform="matrix(1,0,0,1,561.874,435.935)">
                    <path d="M0,144.842L-525.712,144.842C-533.688,144.842 -540.154,138.376 -540.154,130.4L-540.154,14.442C-540.154,6.466 -533.688,0 -525.712,0L0,0C7.976,0 14.442,6.466 14.442,14.442L14.442,130.4C14.442,138.376 7.976,144.842 0,144.842" style="fill:rgb(44,48,120);fill-rule:nonzero;"/>
                </g>
                <g transform="matrix(1,0,0,1,53.8291,549.485)">
                    <path d="M2.933,5.081L-2.933,5.081L-1.467,2.541L0,0L1.467,2.541L2.933,5.081Z" style="fill:rgb(142,193,233);fill-rule:nonzero;"/>
                </g>
                <g transform="matrix(0.24,0,0,0.24,50.3054,424.279)">
                    <text x="66.191px" y="542.156px" style="font-family:'Roboto-Regular', 'Roboto';font-size:33.263px;fill:white;">In the example<tspan x="282.654px " y="542.156px "> </tspan>abo<tspan x="346.375px " y="542.156px ">v</tspan>e, element<tspan x="514.239px " y="542.156px ">s</tspan> of the pr<tspan x="663.065px " y="542.156px ">o</tspan>gr<tspan x="711.306px " y="542.156px ">a</tspan>m ﬂow and c<tspan x="918.705px " y="542.156px ">o</tspan>de are pr<tspan x="1067.1px 1085.82px " y="542.156px 542.156px ">ov</tspan>ided. By com<tspan x="1292.35px " y="542.156px ">p</tspan>leting the v<tspan x="1471.87px " y="542.156px ">a</tspan>riables tab<tspan x="1644.79px " y="542.156px ">l</tspan>e, learners<tspan x="1804.74px " y="542.156px "> </tspan>can demonstr<tspan x="2016.58px " y="542.156px ">a</tspan>te</text>
                    <g transform="matrix(33.2625,0,0,33.2625,903.106,592.169)">
                    </g>
                    <text x="66.191px" y="592.169px" style="font-family:'Roboto-Regular', 'Roboto';font-size:33.263px;fill:white;">their unders<tspan x="242.076px " y="592.169px ">t</tspan>anding of t<tspan x="411.123px " y="592.169px ">h</tspan>e pr<tspan x="484.911px " y="592.169px ">o</tspan>gr<tspan x="533.154px " y="592.169px ">a</tspan>m thr<tspan x="628.762px " y="592.169px ">o</tspan>ugh code tr<tspan x="813.742px " y="592.169px ">a</tspan>cing.</text>
                </g>
                <g transform="matrix(0.24,0,0,0.24,98.7205,345.702)">
                    <g transform="matrix(32.6379,0,0,32.6379,340.258,438.296)">
                    </g>
                    <text x="129.895px" y="438.296px" style="font-family:'Roboto-Regular', 'Roboto';font-size:32.638px;fill:white;">V<tspan x="149.608px 167.025px 177.749px 185.35px 202.768px 220.759px 228.359px 245.331px 261.84px 269.6px 279.941px 297.359px 315.35px 322.951px " y="438.296px 438.296px 438.296px 438.296px 438.296px 438.296px 438.296px 438.296px 438.296px 438.296px 438.296px 438.296px 438.296px 438.296px ">ariables table</tspan></text>
                </g>
                <g transform="matrix(1,0,0,1,267.101,458.385)">
                    <path d="M0,79.561L-216.867,79.561C-223.129,79.561 -228.205,74.485 -228.205,68.222L-228.205,11.339C-228.205,5.077 -223.129,0 -216.867,0L0,0C6.262,0 11.339,5.077 11.339,11.339L11.339,68.222C11.339,74.485 6.262,79.561 0,79.561" style="fill:white;fill-rule:nonzero;"/>
                </g>
                <g transform="matrix(1,0,0,1,278.44,474.306)">
                    <path d="M0,0L-239.544,0L0,0Z" style="fill:none;fill-rule:nonzero;stroke:rgb(35,31,32);stroke-width:0.1px;"/>
                </g>
                <g transform="matrix(1,0,0,1,278.44,489.972)">
                    <path d="M0,0L-239.544,0L0,0Z" style="fill:none;fill-rule:nonzero;stroke:rgb(35,31,32);stroke-width:0.1px;"/>
                </g>
                <g transform="matrix(1,0,0,1,-8.50394,129.684)">
                    <path d="M286.944,375.955L47.4,375.955L286.944,375.955Z" style="fill:rgb(35,31,32);fill-rule:nonzero;stroke:rgb(35,31,32);stroke-width:0.1px;"/>
                </g>
                <g transform="matrix(1,0,0,1,278.44,521.305)">
                    <path d="M0,0L-239.544,0L0,0Z" style="fill:none;fill-rule:nonzero;stroke:rgb(35,31,32);stroke-width:0.1px;"/>
                </g>
                <g transform="matrix(1,0,0,1,135.23,537.946)">
                    <path d="M0,-79.561L0,0L0,-79.561Z" style="fill:none;fill-rule:nonzero;stroke:rgb(35,31,32);stroke-width:0.1px;"/>
                </g>
                <g transform="matrix(1,0,0,1,552.299,459.133)">
                    <path d="M0,79.645L-251.77,79.645C-258.032,79.645 -263.109,74.569 -263.109,68.306L-263.109,11.339C-263.109,5.077 -258.032,0 -251.77,0L0,0C6.262,0 11.339,5.077 11.339,11.339L11.339,68.306C11.339,74.569 6.262,79.645 0,79.645" style="fill:white;fill-rule:nonzero;"/>
                </g>
                <g transform="matrix(0.24,0,0,0.24,56.7448,359.852)">
                    <text x="74.664px" y="456.916px" style="font-family:'Roboto-Regular', 'Roboto';font-size:32.638px;fill:rgb(89,177,170);">c<tspan x="91.413px 109.691px 127.348px 145.036px 155.378px 172.35px " y="456.916px 456.916px 456.916px 456.916px 456.916px 456.916px ">ounter</tspan></text>
                    <text x="114.375px" y="525.47px" style="font-family:'Roboto-Regular', 'Roboto';font-size:32.638px;fill:rgb(89,177,170);">1</text>
                    <text x="114.375px" y="590.733px" style="font-family:'Roboto-Regular', 'Roboto';font-size:32.638px;fill:rgb(89,177,170);">2</text>
                    <text x="114.375px" y="655.996px" style="font-family:'Roboto-Regular', 'Roboto';font-size:32.638px;fill:rgb(89,177,170);">3</text>
                    <g transform="matrix(32.6379,0,0,32.6379,132.718,721.259)">
                    </g>
                    <text x="114.375px" y="721.259px" style="font-family:'Roboto-Regular', 'Roboto';font-size:32.638px;fill:rgb(89,177,170);">4</text>
                </g>
                <g transform="matrix(0.24,0,0,0.24,288.944,346.59)">
                    <g transform="matrix(32.6379,0,0,32.6379,601.586,439.465)">
                    </g>
                    <text x="380.19px" y="439.465px" style="font-family:'Roboto-Regular', 'Roboto';font-size:32.638px;fill:white;">W<tspan x="408.815px 426.459px 443.88px 454.226px 461.99px 469.594px 486.107px 493.871px 512.153px 529.813px 540.159px 558.154px 575.814px 586.16px " y="439.465px 439.465px 439.465px 439.465px 439.465px 439.465px 439.465px 439.465px 439.465px 439.465px 439.465px 439.465px 439.465px 439.465px ">hat is output?</tspan></text>
                </g>
                <g transform="matrix(0.24,0,0,0.24,227.888,365.304)">
                    <text x="299.853px" y="462.818px" style="font-family:'RobotoMono-Regular', 'Roboto Mono', monospace;font-size:30.944px;fill:rgb(89,177,170);">H<tspan x="318.11px 336.367px 354.624px 372.881px 391.138px 409.395px 427.652px 445.909px 464.166px " y="462.818px 462.818px 462.818px 462.818px 462.818px 462.818px 462.818px 462.818px 462.818px ">appy days</tspan></text>
                    <text x="299.853px" y="538.346px" style="font-family:'RobotoMono-Regular', 'Roboto Mono', monospace;font-size:30.944px;fill:rgb(89,177,170);">H<tspan x="318.11px 336.367px 354.624px 372.881px 391.138px 409.395px 427.652px 445.909px 464.166px " y="538.346px 538.346px 538.346px 538.346px 538.346px 538.346px 538.346px 538.346px 538.346px ">appy days</tspan></text>
                    <text x="299.853px" y="609.957px" style="font-family:'RobotoMono-Regular', 'Roboto Mono', monospace;font-size:30.944px;fill:rgb(89,177,170);">H<tspan x="318.11px 336.367px 354.624px 372.881px 391.138px 409.395px 427.652px 445.909px 464.166px " y="609.957px 609.957px 609.957px 609.957px 609.957px 609.957px 609.957px 609.957px 609.957px ">appy days</tspan></text>
                    <g transform="matrix(30.9442,0,0,30.9442,555.801,680.151)">
                    </g>
                    <text x="299.853px" y="680.151px" style="font-family:'RobotoMono-Regular', 'Roboto Mono', monospace;font-size:30.944px;fill:rgb(89,177,170);">E<tspan x="318.113px 336.373px 354.633px 372.892px 391.152px 409.412px 427.672px 445.932px 464.192px 482.452px 500.712px 518.971px 537.231px " y="680.151px 680.151px 680.151px 680.151px 680.151px 680.151px 680.151px 680.151px 680.151px 680.151px 680.151px 680.151px 680.151px ">nd of program</tspan></text>
                </g>
            </g>
        </g>
    </g>
</svg>
