<?xml version="1.0" encoding="UTF-8"?>
<svg id="Layer_1" data-name="Layer 1" xmlns="http://www.w3.org/2000/svg" viewBox="0 0 1484 908.5">
  <defs>
    <style>
      .cls-1 {
        fill: #c0e3fa;
      }

      .cls-2 {
        fill: #d9d9d9;
      }

      .cls-3 {
        fill: #d1ebd2;
      }

      .cls-4 {
        fill: #e1d0ea;
      }

      .cls-5 {
        fill: #8744aa;
      }

      .cls-6 {
        fill: #289b38;
      }

      .cls-7 {
        stroke: #000;
      }

      .cls-7, .cls-8 {
        fill: #fff;
      }

      .cls-7, .cls-9 {
        stroke-miterlimit: 10;
      }

      .cls-10 {
        fill: #cd2355;
      }

      .cls-11 {
        fill: #008ff0;
      }

      .cls-12 {
        fill: #fceef2;
      }

      .cls-13 {
        fill: #f2f2f2;
      }

      .cls-9 {
        fill: none;
        stroke: #999;
        stroke-linecap: round;
        stroke-width: 3px;
      }

      .cls-14 {
        fill: #999;
      }
    </style>
  </defs>
  <rect class="cls-7" width="1484" height="908.5"/>
  <g id="Layer_1-2" data-name="Layer 1-2">
    <ellipse class="cls-13" cx="1296" cy="650.8" rx="135.3" ry="24.1"/>
    <path class="cls-10" d="M1429.9,284.4c-47.2-73.1-144.2-94.7-217.9-49-76,47.1-96.2,150.6-47.7,225.6l117.8,182.4c6.4,9.9,20.9,9.9,27.3,0l120.3-185.8c33-51.1,35.2-118.9.1-173.3h0l.1.1Z"/>
    <rect class="cls-2" x="766.3" y="93.7" width="148.2" height="660.9"/>
    <path class="cls-12" d="M74.2,756.5l7.6-103.9c4.5-61.3-6.2-122.8-30.9-178.4h0c-35.4-79.4-33.9-172.1,5.4-249.4,34.2-67.2,99.1-127.7,222.1-127.7s212,131.6,232.8,231.2c14.2,67.9-10.7,97.1-4.5,112.4,10.4,25.6,29.4,53.4,43.9,72.6,9.4,12.5,5.2,31-8.5,37.6l-30,14.4s.6,13.3,6.4,24.3c3.2,6,1.5,13.6-4,17.4-4,2.8-8.9,5.1-14.6,5.3,0,0,3.6,1,8.2,4.5,6,4.6,6.8,13.7,1.8,19.4s-9.7,13.8-8.7,23.5c1.8,18.1,7.2,65.5-35.3,75.1s-128.2-20.1-128.2-20.1l6.1,41c.8,5.1-3,9.7-7.8,9.7H82.1c-4.6,0-8.3-4.2-7.9-9.1h0v.2Z"/>
    <rect class="cls-2" x="742" y="79.2" width="97.1" height="40.6" rx="4.9" ry="4.9"/>
    <rect class="cls-2" x="839.1" y="79.2" width="97.1" height="40.6" rx="4.9" ry="4.9"/>
    <rect class="cls-2" x="742" y="160.3" width="97.1" height="40.6" rx="4.9" ry="4.9"/>
    <rect class="cls-2" x="839.1" y="160.3" width="97.1" height="40.6" rx="4.9" ry="4.9"/>
    <rect class="cls-2" x="742" y="119.8" width="48.6" height="40.6" rx="4.9" ry="4.9"/>
    <rect class="cls-2" x="887.7" y="119.8" width="48.6" height="40.6" rx="4.9" ry="4.9"/>
    <rect class="cls-2" x="790.5" y="119.8" width="97.1" height="40.6" rx="4.9" ry="4.9"/>
    <path class="cls-9" d="M839.1,94.1v20.8c0,2.7-2.2,4.9-4.9,4.9h-72.3"/>
    <path class="cls-9" d="M790.5,145.4v-20.8c0-2.7,2.2-4.9,4.9-4.9h67.3"/>
    <rect class="cls-2" x="742" y="241.4" width="97.1" height="40.6" rx="4.9" ry="4.9"/>
    <rect class="cls-2" x="839.1" y="241.4" width="97.1" height="40.6" rx="4.9" ry="4.9"/>
    <rect class="cls-2" x="742" y="200.9" width="48.6" height="40.6" rx="4.9" ry="4.9"/>
    <rect class="cls-2" x="887.7" y="200.9" width="48.6" height="40.6" rx="4.9" ry="4.9"/>
    <rect class="cls-2" x="790.5" y="200.9" width="97.1" height="40.6" rx="4.9" ry="4.9"/>
    <rect class="cls-2" x="742" y="322.6" width="97.1" height="40.6" rx="4.9" ry="4.9"/>
    <rect class="cls-2" x="839.1" y="322.6" width="97.1" height="40.6" rx="4.9" ry="4.9"/>
    <rect class="cls-2" x="742" y="282" width="48.6" height="40.6" rx="4.9" ry="4.9"/>
    <rect class="cls-2" x="887.7" y="282" width="48.6" height="40.6" rx="4.9" ry="4.9"/>
    <rect class="cls-2" x="790.5" y="282" width="97.1" height="40.6" rx="4.9" ry="4.9"/>
    <rect class="cls-2" x="742" y="403.7" width="97.1" height="40.6" rx="4.9" ry="4.9"/>
    <rect class="cls-2" x="839.1" y="403.7" width="97.1" height="40.6" rx="4.9" ry="4.9"/>
    <rect class="cls-2" x="742" y="363.1" width="48.6" height="40.6" rx="4.9" ry="4.9"/>
    <rect class="cls-2" x="887.7" y="363.1" width="48.6" height="40.6" rx="4.9" ry="4.9"/>
    <rect class="cls-2" x="790.5" y="363.1" width="97.1" height="40.6" rx="4.9" ry="4.9"/>
    <rect class="cls-2" x="742" y="484.8" width="97.1" height="40.6" rx="4.9" ry="4.9"/>
    <rect class="cls-2" x="839.1" y="484.8" width="97.1" height="40.6" rx="4.9" ry="4.9"/>
    <rect class="cls-2" x="742" y="444.2" width="48.6" height="40.6" rx="4.9" ry="4.9"/>
    <rect class="cls-2" x="887.7" y="444.2" width="48.6" height="40.6" rx="4.9" ry="4.9"/>
    <rect class="cls-2" x="790.5" y="444.2" width="97.1" height="40.6" rx="4.9" ry="4.9"/>
    <rect class="cls-2" x="742" y="565.9" width="97.1" height="40.6" rx="4.9" ry="4.9"/>
    <rect class="cls-2" x="839.1" y="565.9" width="97.1" height="40.6" rx="4.9" ry="4.9"/>
    <rect class="cls-2" x="742" y="525.4" width="48.6" height="40.6" rx="4.9" ry="4.9"/>
    <rect class="cls-2" x="887.7" y="525.4" width="48.6" height="40.6" rx="4.9" ry="4.9"/>
    <rect class="cls-2" x="790.5" y="525.4" width="97.1" height="40.6" rx="4.9" ry="4.9"/>
    <rect class="cls-2" x="742" y="647" width="97.1" height="40.6" rx="4.9" ry="4.9"/>
    <rect class="cls-2" x="839.1" y="647" width="97.1" height="40.6" rx="4.9" ry="4.9"/>
    <rect class="cls-2" x="742" y="606.5" width="48.6" height="40.6" rx="4.9" ry="4.9"/>
    <rect class="cls-2" x="887.7" y="606.5" width="48.6" height="40.6" rx="4.9" ry="4.9"/>
    <rect class="cls-2" x="790.5" y="606.5" width="97.1" height="40.6" rx="4.9" ry="4.9"/>
    <rect class="cls-2" x="742" y="728.2" width="97.1" height="40.6" rx="4.9" ry="4.9"/>
    <rect class="cls-2" x="839.1" y="728.2" width="97.1" height="40.6" rx="4.9" ry="4.9"/>
    <rect class="cls-2" x="742" y="687.6" width="48.6" height="40.6" rx="4.9" ry="4.9"/>
    <rect class="cls-2" x="887.7" y="687.6" width="48.6" height="40.6" rx="4.9" ry="4.9"/>
    <rect class="cls-2" x="790.5" y="687.6" width="97.1" height="40.6" rx="4.9" ry="4.9"/>
    <path class="cls-9" d="M887.7,129.7v-5c0-2.7,2.2-4.9,4.9-4.9h31.7"/>
    <path class="cls-9" d="M826.7,160.3h55.9c2.8,0,5.1-2.3,5.1-5.1v-8.5"/>
    <line class="cls-9" x1="766.3" y1="160.3" x2="802.3" y2="160.3"/>
    <path class="cls-9" d="M839.1,187.2v-21.9c0-2.8,2.2-5,5-5h5.9"/>
    <path class="cls-9" d="M839.1,255.7v20.8c0,2.7-2.2,4.9-4.9,4.9h-72.3"/>
    <path class="cls-9" d="M790.5,307.1v-20.8c0-2.7,2.2-4.9,4.9-4.9h67.3"/>
    <path class="cls-9" d="M887.7,291.3v-5c0-2.7,2.2-4.9,4.9-4.9h31.7"/>
    <path class="cls-9" d="M826.7,322h55.9c2.8,0,5.1-2.3,5.1-5.1v-8.5"/>
    <line class="cls-9" x1="766.3" y1="322" x2="802.3" y2="322"/>
    <path class="cls-9" d="M839.1,348.8v-21.9c0-2.8,2.2-5,5-5h5.9"/>
    <path class="cls-9" d="M839.1,418.4v20.8c0,2.7-2.2,4.9-4.9,4.9h-72.3"/>
    <path class="cls-9" d="M790.5,469.7v-20.8c0-2.7,2.2-4.9,4.9-4.9h67.3"/>
    <path class="cls-9" d="M887.7,454v-5c0-2.7,2.2-4.9,4.9-4.9h31.7"/>
    <path class="cls-9" d="M826.7,484.6h55.9c2.8,0,5.1-2.3,5.1-5.1v-8.5"/>
    <line class="cls-9" x1="766.3" y1="484.6" x2="802.3" y2="484.6"/>
    <path class="cls-9" d="M839.1,511.5v-21.9c0-2.8,2.2-5,5-5h5.9"/>
    <path class="cls-9" d="M839.1,661.6v20.8c0,2.7-2.2,4.9-4.9,4.9h-72.3"/>
    <path class="cls-9" d="M790.5,712.9v-20.8c0-2.7,2.2-4.9,4.9-4.9h67.3"/>
    <path class="cls-9" d="M887.7,697.1v-5c0-2.7,2.2-4.9,4.9-4.9h31.7"/>
    <path class="cls-9" d="M826.7,727.8h55.9c2.8,0,5.1-2.3,5.1-5.1v-8.5"/>
    <line class="cls-9" x1="766.3" y1="727.8" x2="802.3" y2="727.8"/>
    <path class="cls-9" d="M839.1,754.7v-21.9c0-2.8,2.2-5,5-5h5.9"/>
    <line class="cls-9" x1="870.4" y1="525.4" x2="924.3" y2="525.4"/>
    <path class="cls-9" d="M759.8,525.4h25.7c2.8,0,5,2.2,5,5v15.3"/>
    <path class="cls-9" d="M819.8,525.4h-24.3c-2.8,0-5,2.2-5,5v5.1"/>
    <rect class="cls-14" x="742" y="440" width="194.2" height="7.3"/>
    <rect class="cls-14" x="742" y="619.4" width="194.2" height="7.3"/>
    <rect class="cls-14" x="742" y="264.5" width="194.2" height="7.3"/>
    <path class="cls-9" d="M887.7,622.1v19.9c0,2.8-2.3,5-5,5h-32.6"/>
    <line class="cls-9" x1="816" y1="647" x2="759.8" y2="647"/>
    <circle class="cls-8" cx="1296" cy="368.6" r="113.6"/>
  </g>
  <g id="Layer_2" data-name="Layer 2">
    <rect class="cls-11" x="93.9" y="506.8" width="368.4" height="121.7" rx="11" ry="11"/>
    <rect class="cls-5" x="93.9" y="331.8" width="368.4" height="121.7" rx="11" ry="11"/>
    <rect class="cls-6" x="93.9" y="156.9" width="368.4" height="121.7" rx="11" ry="11"/>
    <path class="cls-1" d="M1076.9,568.8l-72.3-66c-2.1-1.9-5.4-.4-5.4,2.4v18.5h-372.7c-2.9,0-5.2,2.3-5.2,5.2v84.6c0,2.9,2.3,5.2,5.2,5.2h372.7v18.5c0,2.8,3.3,4.3,5.4,2.4l72.3-66c1.4-1.3,1.4-3.5,0-4.8Z"/>
    <path class="cls-4" d="M1076.9,390.3l-72.3-66c-2.1-1.9-5.4-.4-5.4,2.4v18.5h-372.7c-2.9,0-5.2,2.3-5.2,5.2v84.6c0,2.9,2.3,5.2,5.2,5.2h372.7v18.5c0,2.8,3.3,4.3,5.4,2.4l72.3-66c1.4-1.3,1.4-3.5,0-4.8h0Z"/>
    <path class="cls-3" d="M1076.9,214.6l-72.3-66c-2.1-1.9-5.4-.4-5.4,2.4v18.5h-372.7c-2.9,0-5.2,2.3-5.2,5.2v84.6c0,2.9,2.3,5.2,5.2,5.2h372.7v18.5c0,2.8,3.3,4.3,5.4,2.4l72.3-66c1.4-1.3,1.4-3.5,0-4.8h0Z"/>
  </g>
  <g id="Layer_3" data-name="Layer 3">
    <path class="cls-8" d="M149.9,201.9h-8.7l-1.7,5h-5.3l9-24.2h4.6l9.1,24.2h-5.3l-1.7-5h0ZM142.5,197.9h6l-3-9.1-3,9.1Z"/>
    <path class="cls-8" d="M160.2,206.9v-14.4h-2.7v-3.5h2.7v-1.5c0-2,.6-3.6,1.7-4.7,1.2-1.1,2.8-1.7,4.9-1.7s1.5.1,2.4.3v3.7c-.4-.1-.9-.1-1.5-.1-1.8,0-2.7.9-2.7,2.5v1.4h3.6v3.5h-3.6v14.4h-4.8v.1Z"/>
    <path class="cls-8" d="M172.3,206.9v-14.4h-2.7v-3.5h2.7v-1.5c0-2,.6-3.6,1.7-4.7,1.2-1.1,2.8-1.7,4.9-1.7s1.5.1,2.4.3v3.7c-.4-.1-.9-.1-1.5-.1-1.8,0-2.7.9-2.7,2.5v1.4h3.6v3.5h-3.6v14.4h-4.8v.1Z"/>
    <path class="cls-8" d="M191.5,207.2c-2.6,0-4.8-.8-6.4-2.4s-2.5-3.8-2.5-6.5v-.5c0-1.8.4-3.4,1.1-4.8s1.7-2.5,3-3.3,2.7-1.1,4.4-1.1c2.5,0,4.4.8,5.8,2.3s2.1,3.8,2.1,6.6v2h-11.4c.1,1.2.6,2.1,1.4,2.8s1.8,1.1,3,1.1c1.9,0,3.3-.7,4.3-2l2.4,2.6c-.7,1-1.7,1.8-2.9,2.4s-2.6.9-4.1.9h0l-.2-.1ZM190.9,192.5c-.9,0-1.7.3-2.3,1-.6.6-1,1.6-1.1,2.8h6.7v-.4c0-1.1-.3-1.9-.9-2.5-.6-.6-1.3-.9-2.4-.9h0Z"/>
    <path class="cls-8" d="M209.1,203.4c.9,0,1.6-.2,2.2-.7.6-.5.8-1.1.9-1.9h4.5c0,1.2-.3,2.3-1,3.4-.6,1-1.6,1.8-2.7,2.4-1.1.6-2.4.8-3.8.8-2.6,0-4.6-.8-6.1-2.4-1.5-1.6-2.2-3.9-2.2-6.8v-.3c0-2.8.7-5,2.2-6.6s3.5-2.5,6.1-2.5,4.1.6,5.4,1.9c1.4,1.3,2,3,2.1,5.1h-4.5c0-.9-.3-1.7-.9-2.3-.6-.6-1.3-.9-2.2-.9s-2,.4-2.5,1.2c-.6.8-.9,2.1-.9,4v.5c0,1.9.3,3.2.9,4,.6.8,1.4,1.2,2.6,1.2h0l-.1-.1Z"/>
    <path class="cls-8" d="M225.1,184.5v4.4h3.1v3.5h-3.1v9c0,.7.1,1.1.4,1.4s.7.4,1.5.4,1,0,1.4-.1v3.6c-.9.3-1.9.4-2.9.4-3.4,0-5.1-1.7-5.1-5.1v-9.7h-2.6v-3.5h2.6v-4.4h4.8l-.1.1Z"/>
    <path class="cls-8" d="M230.8,184.3c0-.7.2-1.3.7-1.8s1.1-.7,2-.7,1.5.2,2,.7.7,1.1.7,1.8-.2,1.3-.7,1.8-1.1.7-2,.7-1.5-.2-2-.7-.7-1.1-.7-1.8ZM235.9,206.9h-4.8v-18h4.8v18Z"/>
    <path class="cls-8" d="M246.6,201l3.3-12.1h5l-6.1,18h-4.6l-6.1-18h5l3.3,12.1h.2Z"/>
    <path class="cls-8" d="M265.3,207.2c-2.6,0-4.8-.8-6.4-2.4-1.6-1.6-2.5-3.8-2.5-6.5v-.5c0-1.8.4-3.4,1-4.8.7-1.4,1.7-2.5,3-3.3s2.7-1.1,4.4-1.1c2.5,0,4.4.8,5.8,2.3,1.4,1.6,2.1,3.8,2.1,6.6v2h-11.4c.1,1.2.6,2.1,1.4,2.8s1.8,1.1,3,1.1c1.9,0,3.3-.7,4.3-2l2.4,2.6c-.7,1-1.7,1.8-2.9,2.4s-2.6.9-4.1.9h0l-.1-.1ZM264.7,192.5c-1,0-1.7.3-2.3,1-.6.6-1,1.6-1.1,2.8h6.7v-.4c0-1.1-.3-1.9-.9-2.5-.5-.6-1.3-.9-2.4-.9h0Z"/>
    <path class="cls-8" d="M288.3,188.9v2.1c1.4-1.6,3.1-2.4,5.3-2.4s3.3.6,4.2,1.7,1.4,2.8,1.4,5v11.6h-4.8v-11.5c0-1-.2-1.8-.7-2.2s-1.2-.7-2.2-.7-2.4.6-3,1.7v12.7h-4.8v-18h4.6Z"/>
    <path class="cls-8" d="M311.2,207.2c-2.6,0-4.8-.8-6.4-2.4-1.6-1.6-2.5-3.8-2.5-6.5v-.5c0-1.8.4-3.4,1-4.8.7-1.4,1.7-2.5,3-3.3s2.7-1.1,4.4-1.1c2.5,0,4.4.8,5.8,2.3,1.4,1.6,2.1,3.8,2.1,6.6v2h-11.4c.1,1.2.6,2.1,1.4,2.8s1.8,1.1,3,1.1c1.9,0,3.3-.7,4.3-2l2.4,2.6c-.7,1-1.7,1.8-2.9,2.4s-2.6.9-4.1.9h0l-.1-.1ZM310.6,192.5c-1,0-1.7.3-2.3,1-.6.6-1,1.6-1.1,2.8h6.7v-.4c0-1.1-.3-1.9-.9-2.5-.5-.6-1.3-.9-2.4-.9h0Z"/>
    <path class="cls-8" d="M327,184.5v4.4h3.1v3.5h-3.1v9c0,.7.1,1.1.4,1.4s.7.4,1.5.4,1,0,1.4-.1v3.6c-.9.3-1.9.4-2.9.4-3.4,0-5.1-1.7-5.1-5.1v-9.7h-2.6v-3.5h2.6v-4.4h4.8l-.1.1Z"/>
    <path class="cls-8" d="M348.4,200.4l2.4-11.4h4.6l-4.6,18h-4l-3.4-11.3-3.4,11.3h-4l-4.6-18h4.6l2.3,11.4,3.3-11.4h3.5l3.3,11.4h0Z"/>
    <path class="cls-8" d="M357,197.8c0-1.8.3-3.4,1-4.8s1.7-2.5,3-3.2c1.3-.8,2.8-1.1,4.5-1.1,2.4,0,4.4.7,5.9,2.2s2.4,3.5,2.6,6v1.2c0,2.8-.7,5-2.3,6.6-1.5,1.7-3.6,2.5-6.2,2.5s-4.7-.8-6.2-2.5-2.3-3.9-2.3-6.8v-.2h0v.1ZM361.8,198.1c0,1.7.3,3,1,3.9.6.9,1.6,1.4,2.8,1.4s2.1-.4,2.7-1.3,1-2.3,1-4.3-.3-3-1-3.9c-.6-.9-1.6-1.4-2.8-1.4s-2.1.5-2.7,1.4-1,2.3-1,4.2h0Z"/>
    <path class="cls-8" d="M387.1,193.4c-.6,0-1.2-.1-1.7-.1-1.8,0-3,.6-3.6,1.8v11.8h-4.8v-18h4.5v2.1c1.1-1.6,2.4-2.5,4.1-2.5s1,0,1.5.2v4.6h0v.1Z"/>
    <path class="cls-8" d="M395.9,199.7l-1.7,1.7v5.5h-4.8v-25.5h4.8v14.1l.9-1.2,4.6-5.4h5.8l-6.5,7.5,7.1,10.5h-5.5l-4.6-7.2h-.1Z"/>
    <path class="cls-8" d="M417.3,201.9c0-.6-.3-1.1-.9-1.4s-1.5-.6-2.8-.9c-4.3-.9-6.4-2.7-6.4-5.4s.7-2.9,2-4,3-1.6,5.2-1.6,4.1.5,5.5,1.6,2,2.5,2,4.2h-4.8c0-.7-.2-1.2-.7-1.7s-1.1-.7-2.1-.7-1.4.2-1.9.6c-.4.4-.7.8-.7,1.4s.2,1,.8,1.3c.5.3,1.4.6,2.5.9,1.2.2,2.2.5,3,.8,2.5.9,3.8,2.5,3.8,4.8s-.7,3-2.1,4-3.2,1.5-5.5,1.5-2.8-.3-4-.8-2.1-1.3-2.8-2.2c-.7-.9-1-1.9-1-3h4.5c0,.9.4,1.5,1,2,.6.4,1.4.7,2.4.7s1.6-.2,2.1-.5.7-.8.7-1.4h0l.2-.2Z"/>
    <path class="cls-8" d="M238.2,237.9c0-2.5.3-4.9,1-7.2s1.7-4.3,3-6.1,2.7-3,4.3-3.7l.9,2.6c-1.6,1.2-2.9,3-3.8,5.5s-1.4,5.4-1.4,8.8v.5c0,3.4.5,6.3,1.3,8.8s2.2,4.4,3.8,5.6l-.9,2.5c-1.5-.7-2.9-1.9-4.2-3.6s-2.3-3.7-3-5.9-1-4.6-1.1-7v-.9h0l.1.1Z"/>
    <path class="cls-8" d="M265.6,241.2l2.4-11.4h4.6l-4.6,18h-4l-3.4-11.3-3.4,11.3h-4l-4.6-18h4.6l2.3,11.4,3.3-11.4h3.5l3.3,11.4h0Z"/>
    <path class="cls-8" d="M279.6,231.7c1.3-1.5,2.9-2.3,4.8-2.3,3.9,0,5.9,2.3,5.9,6.8v11.5h-4.8v-11.4c0-1-.2-1.8-.7-2.3s-1.2-.7-2.2-.7-2.4.5-3,1.6v12.8h-4.8v-25.5h4.8v9.5h0Z"/>
    <path class="cls-8" d="M300.7,240.9l3.3-11.2h5.1l-7.2,20.8-.4.9c-1.1,2.4-2.8,3.5-5.3,3.5s-1.4-.1-2.1-.3v-3.6h.7c.9,0,1.6-.1,2-.4.5-.3.8-.7,1-1.4l.6-1.5-6.3-18h5.2l3.3,11.2h.1Z"/>
    <path class="cls-8" d="M319.3,238.3c0,2.5-.4,4.9-1.1,7.2s-1.8,4.4-3.1,6.1c-1.4,1.8-2.8,3-4.3,3.6l-.9-2.5c1.6-1.2,2.8-3,3.7-5.5s1.4-5.3,1.4-8.5v-.9c0-3.3-.5-6.2-1.4-8.8s-2.2-4.4-3.8-5.7l.9-2.5c1.5.6,2.9,1.8,4.3,3.6,1.3,1.7,2.4,3.7,3.1,6s1.1,4.6,1.1,7.1v.8h.1Z"/>
    <path d="M718,183.9l6.2,17.5,6.2-17.5h6.5v24.2h-5v-6.6l.5-11.4-6.5,18h-3.4l-6.5-18,.5,11.4v6.6h-5v-24.2h6.5Z"/>
    <path d="M751.7,206.3c-1.2,1.4-2.8,2.2-4.9,2.2s-3.4-.6-4.4-1.7c-1-1.1-1.5-2.7-1.5-4.9v-11.8h4.8v11.6c0,1.9.8,2.8,2.6,2.8s2.8-.6,3.3-1.7v-12.7h4.8v18h-4.5v-1.8h-.2Z"/>
    <path d="M765,208.1h-4.8v-25.5h4.8v25.5Z"/>
    <path d="M774.7,185.7v4.4h3.1v3.5h-3.1v9c0,.7.1,1.1.4,1.4s.7.4,1.5.4,1,0,1.4-.1v3.6c-.9.3-1.9.4-2.9.4-3.4,0-5.1-1.7-5.2-5.1v-9.7h-2.6v-3.5h2.6v-4.4h4.8v.1Z"/>
    <path d="M780.4,185.5c0-.7.2-1.3.7-1.8s1.1-.7,2-.7,1.5.2,2,.7.7,1.1.7,1.8-.2,1.3-.7,1.8-1.1.7-2,.7-1.5-.2-2-.7-.7-1.1-.7-1.8h0ZM785.5,208.1h-4.8v-18h4.8v18Z"/>
    <path d="M805.6,199.3c0,2.8-.6,5-1.9,6.6-1.3,1.7-3,2.5-5.1,2.5s-3.3-.6-4.4-1.9v8.5h-4.8v-24.9h4.5l.2,1.8c1.2-1.4,2.7-2.1,4.5-2.1s3.9.8,5.2,2.5,1.8,3.9,1.8,6.8v.2h0ZM800.8,198.9c0-1.7-.3-3-.9-3.9-.6-.9-1.5-1.4-2.6-1.4s-2.5.6-3.1,1.7v7.4c.6,1.2,1.6,1.8,3.1,1.8,2.3,0,3.4-1.9,3.4-5.6h.1Z"/>
    <path d="M813.7,208.1h-4.8v-25.5h4.8v25.5Z"/>
    <path d="M825.9,208.4c-2.6,0-4.8-.8-6.4-2.4-1.7-1.6-2.5-3.8-2.5-6.5v-.5c0-1.8.3-3.4,1-4.8s1.7-2.5,3-3.3,2.7-1.1,4.4-1.1c2.5,0,4.4.8,5.8,2.3s2.1,3.8,2.1,6.6v2h-11.4c.2,1.2.6,2.1,1.4,2.8s1.8,1.1,3,1.1c1.8,0,3.3-.7,4.3-2l2.4,2.6c-.7,1-1.7,1.8-2.9,2.4s-2.6.9-4.1.9h0l-.1-.1ZM825.3,193.7c-1,0-1.7.3-2.3,1-.6.6-1,1.6-1.1,2.8h6.7v-.4c0-1.1-.3-1.9-.9-2.5s-1.3-.9-2.4-.9h0Z"/>
    <path d="M849,190.1l.2,2c1.3-1.6,3-2.3,5.2-2.3s3.9.9,4.8,2.7c1.3-1.8,3.1-2.7,5.4-2.7s3.4.6,4.3,1.7c1,1.1,1.4,2.8,1.4,5.1v11.5h-4.8v-11.5c0-1-.2-1.8-.6-2.2-.4-.5-1.1-.7-2.1-.7-1.4,0-2.4.7-3,2.1v12.3h-4.8v-11.4c0-1-.2-1.8-.6-2.3s-1.1-.7-2.1-.7-2.3.6-3,1.7v12.7h-4.8v-18h4.5,0Z"/>
    <path d="M882.2,208.4c-2.6,0-4.8-.8-6.4-2.4-1.7-1.6-2.5-3.8-2.5-6.5v-.5c0-1.8.3-3.4,1-4.8s1.7-2.5,3-3.3,2.7-1.1,4.4-1.1c2.5,0,4.4.8,5.8,2.3s2.1,3.8,2.1,6.6v2h-11.4c.2,1.2.6,2.1,1.4,2.8s1.8,1.1,3,1.1c1.8,0,3.3-.7,4.3-2l2.4,2.6c-.7,1-1.7,1.8-2.9,2.4s-2.6.9-4.1.9h0l-.1-.1ZM881.6,193.7c-1,0-1.7.3-2.3,1-.6.6-1,1.6-1.1,2.8h6.7v-.4c0-1.1-.3-1.9-.9-2.5s-1.3-.9-2.4-.9h0Z"/>
    <path d="M902.7,208.1c-.2-.4-.4-1-.5-1.6-1.2,1.3-2.7,1.9-4.5,1.9s-3.2-.5-4.4-1.5-1.7-2.3-1.7-3.9.7-3.4,2.1-4.4,3.5-1.5,6.1-1.5h2.2v-1c0-.8-.2-1.5-.6-2s-1.1-.8-2-.8-1.4.2-1.9.6-.7.9-.7,1.6h-4.8c0-1,.3-2,1-2.9s1.5-1.6,2.7-2.1,2.5-.8,4-.8c2.2,0,4,.6,5.3,1.7,1.3,1.1,2,2.7,2,4.7v7.8c0,1.7.2,3,.7,3.9v.3h-5ZM898.7,204.8c.7,0,1.4-.2,2-.5s1-.7,1.3-1.3v-3.1h-1.8c-2.4,0-3.7.8-3.8,2.5v.3c0,.6.2,1.1.6,1.5s1,.6,1.7.6h0Z"/>
    <path d="M914.9,190.1l.2,2.1c1.3-1.6,3-2.4,5.2-2.4s3.3.6,4.2,1.7,1.4,2.8,1.4,5v11.6h-4.8v-11.5c0-1-.2-1.8-.7-2.2s-1.2-.7-2.2-.7-2.4.6-3,1.7v12.7h-4.8v-18h4.5,0Z"/>
    <path d="M939.3,203.1c0-.6-.3-1.1-.9-1.4s-1.5-.6-2.8-.9c-4.3-.9-6.4-2.7-6.4-5.4s.7-2.9,2-4,3-1.6,5.2-1.6,4.1.5,5.5,1.6,2,2.5,2,4.2h-4.8c0-.7-.2-1.2-.7-1.7s-1.1-.7-2.1-.7-1.4.2-1.9.6-.7.8-.7,1.4.2,1,.8,1.3c.5.3,1.3.6,2.5.9s2.2.5,3,.8c2.5.9,3.8,2.5,3.8,4.8s-.7,3-2.1,4-3.2,1.5-5.5,1.5-2.8-.3-4-.8-2.1-1.3-2.8-2.2-1-1.9-1-3h4.5c0,.9.4,1.5,1,2,.6.4,1.4.7,2.4.7s1.6-.2,2.1-.5c.5-.4.7-.8.7-1.4h0l.2-.2Z"/>
    <path d="M712.4,234.9c0-1.8.3-3.4,1-4.8s1.7-2.5,3-3.2c1.3-.8,2.8-1.1,4.5-1.1,2.4,0,4.4.7,5.9,2.2s2.4,3.5,2.6,6v1.2c0,2.8-.7,5-2.3,6.6-1.5,1.7-3.6,2.5-6.2,2.5s-4.7-.8-6.2-2.5-2.3-3.9-2.3-6.8v-.2h0v.1ZM717.2,235.3c0,1.7.3,3,1,3.9.6.9,1.6,1.4,2.8,1.4s2.1-.4,2.7-1.3c.7-.9,1-2.3,1-4.3s-.3-3-1-3.9-1.6-1.4-2.8-1.4-2.1.5-2.7,1.4c-.6.9-1,2.3-1,4.2h0Z"/>
    <path d="M733.7,244.1v-14.4h-2.7v-3.5h2.7v-1.5c0-2,.6-3.6,1.7-4.7,1.2-1.1,2.8-1.7,4.9-1.7s1.5.1,2.4.3v3.7c-.5-.1-.9-.1-1.5-.1-1.8,0-2.7.9-2.7,2.5v1.4h3.6v3.5h-3.6v14.4h-4.8v.1Z"/>
    <path d="M767.9,233.6h-9.6v6.5h11.2v4h-16.2v-24.2h16.2v4h-11.2v5.8h9.6v3.9h0Z"/>
    <path d="M776.6,226.1l.2,2.1c1.3-1.6,3-2.4,5.2-2.4s3.3.6,4.2,1.7,1.4,2.8,1.4,5v11.6h-4.8v-11.5c0-1-.2-1.8-.7-2.2s-1.2-.7-2.2-.7-2.4.6-3,1.7v12.7h-4.8v-18h4.5,0Z"/>
    <path d="M790.5,235c0-2.8.7-5,2-6.7s3.1-2.5,5.3-2.5,3.5.7,4.6,2l.2-1.7h4.3v17.4c0,1.6-.4,2.9-1.1,4.1s-1.7,2.1-3,2.7c-1.3.6-2.8.9-4.5.9s-2.6-.3-3.8-.8-2.2-1.2-2.8-2l2.1-2.9c1.2,1.3,2.7,2,4.3,2s2.3-.3,3-1,1.1-1.6,1.1-2.9v-1c-1.1,1.2-2.6,1.9-4.4,1.9s-3.9-.8-5.2-2.5-2-3.9-2-6.7v-.2h0l-.1-.1ZM795.3,235.3c0,1.6.3,2.9,1,3.8.7.9,1.5,1.4,2.7,1.4s2.5-.6,3.1-1.6v-7.6c-.6-1.1-1.7-1.6-3.1-1.6s-2.1.5-2.7,1.4c-.7.9-1,2.4-1,4.2h0Z"/>
    <path d="M821,244.1c-.2-.4-.4-1-.5-1.6-1.2,1.3-2.7,1.9-4.5,1.9s-3.2-.5-4.4-1.5-1.7-2.3-1.7-3.9.7-3.4,2.1-4.4,3.5-1.5,6.1-1.5h2.2v-1c0-.8-.2-1.5-.6-2s-1.1-.8-2-.8-1.4.2-1.9.6-.7.9-.7,1.6h-4.8c0-1,.3-2,1-2.9s1.5-1.6,2.7-2.1,2.5-.8,4-.8c2.2,0,4,.6,5.3,1.7,1.3,1.1,2,2.7,2,4.7v7.8c0,1.7.2,3,.7,3.9v.3h-5ZM817.1,240.8c.7,0,1.4-.2,2-.5s1-.7,1.3-1.3v-3.1h-1.8c-2.4,0-3.7.8-3.8,2.5v.3c0,.6.2,1.1.6,1.5s1,.6,1.7.6h0Z"/>
    <path d="M828.2,235c0-2.8.7-5,2-6.7s3.1-2.5,5.3-2.5,3.5.7,4.6,2l.2-1.7h4.3v17.4c0,1.6-.4,2.9-1.1,4.1s-1.7,2.1-3,2.7c-1.3.6-2.8.9-4.5.9s-2.6-.3-3.8-.8-2.2-1.2-2.8-2l2.1-2.9c1.2,1.3,2.7,2,4.3,2s2.3-.3,3-1,1.1-1.6,1.1-2.9v-1c-1.1,1.2-2.6,1.9-4.4,1.9s-3.9-.8-5.2-2.5-2-3.9-2-6.7v-.2h0l-.1-.1ZM833,235.3c0,1.6.3,2.9,1,3.8.7.9,1.5,1.4,2.7,1.4s2.5-.6,3.1-1.6v-7.6c-.6-1.1-1.7-1.6-3.1-1.6s-2.1.5-2.7,1.4c-.7.9-1,2.4-1,4.2h0Z"/>
    <path d="M856.5,244.4c-2.6,0-4.8-.8-6.4-2.4-1.7-1.6-2.5-3.8-2.5-6.5v-.5c0-1.8.3-3.4,1-4.8s1.7-2.5,3-3.3,2.7-1.1,4.4-1.1c2.5,0,4.4.8,5.8,2.3s2.1,3.8,2.1,6.6v2h-11.4c.2,1.2.6,2.1,1.4,2.8s1.8,1.1,3,1.1c1.8,0,3.3-.7,4.3-2l2.4,2.6c-.7,1-1.7,1.8-2.9,2.4s-2.6.9-4.1.9h0l-.1-.1ZM856,229.7c-1,0-1.7.3-2.3,1-.6.6-1,1.6-1.1,2.8h6.7v-.4c0-1.1-.3-1.9-.9-2.5s-1.3-.9-2.4-.9h0Z"/>
    <path d="M871.1,226.1l.2,2c1.3-1.6,3-2.3,5.2-2.3s3.9.9,4.8,2.7c1.3-1.8,3.1-2.7,5.4-2.7s3.4.6,4.3,1.7c1,1.1,1.4,2.8,1.4,5.1v11.5h-4.8v-11.5c0-1-.2-1.8-.6-2.2-.4-.5-1.1-.7-2.1-.7-1.4,0-2.4.7-3,2.1v12.3h-4.8v-11.4c0-1-.2-1.8-.6-2.3s-1.1-.7-2.1-.7-2.3.6-3,1.7v12.7h-4.8v-18h4.5,0Z"/>
    <path d="M904.3,244.4c-2.6,0-4.8-.8-6.4-2.4-1.7-1.6-2.5-3.8-2.5-6.5v-.5c0-1.8.3-3.4,1-4.8s1.7-2.5,3-3.3,2.7-1.1,4.4-1.1c2.5,0,4.4.8,5.8,2.3s2.1,3.8,2.1,6.6v2h-11.4c.2,1.2.6,2.1,1.4,2.8s1.8,1.1,3,1.1c1.8,0,3.3-.7,4.3-2l2.4,2.6c-.7,1-1.7,1.8-2.9,2.4s-2.6.9-4.1.9h0l-.1-.1ZM903.8,229.7c-1,0-1.7.3-2.3,1-.6.6-1,1.6-1.1,2.8h6.7v-.4c0-1.1-.3-1.9-.9-2.5s-1.3-.9-2.4-.9h0Z"/>
    <path d="M918.9,226.1l.2,2.1c1.3-1.6,3-2.4,5.2-2.4s3.3.6,4.2,1.7,1.4,2.8,1.4,5v11.6h-4.8v-11.5c0-1-.2-1.8-.7-2.2s-1.2-.7-2.2-.7-2.4.6-3,1.7v12.7h-4.8v-18h4.5,0Z"/>
    <path d="M939.2,221.7v4.4h3.1v3.5h-3.1v9c0,.7.1,1.1.4,1.4s.7.4,1.5.4,1,0,1.4-.1v3.6c-.9.3-1.9.4-2.9.4-3.4,0-5.1-1.7-5.2-5.1v-9.7h-2.6v-3.5h2.6v-4.4h4.8v.1Z"/>
    <path d="M700.7,361.3l6.2,17.5,6.2-17.5h6.5v24.2h-5v-6.6l.5-11.4-6.5,18h-3.4l-6.5-18,.5,11.4v6.6h-5v-24.2h6.5Z"/>
    <path d="M734.1,383.6c-1.2,1.4-2.8,2.2-4.9,2.2s-3.4-.5-4.4-1.7c-1-1.1-1.5-2.7-1.5-4.9v-11.8h4.8v11.6c0,1.9.8,2.8,2.6,2.8s2.7-.6,3.3-1.7v-12.7h4.8v18h-4.5v-1.8h-.2Z"/>
    <path d="M747.1,385.5h-4.8v-25.5h4.8v25.5Z"/>
    <path d="M756.5,363.1v4.4h3.1v3.5h-3.1v9c0,.7.1,1.1.4,1.4.2.3.7.4,1.5.4s1,0,1.4-.1v3.6c-.9.3-1.9.4-2.9.4-3.4,0-5.1-1.7-5.2-5.1v-9.7h-2.6v-3.5h2.6v-4.4h4.8v.1Z"/>
    <path d="M761.8,362.9c0-.7.2-1.3.7-1.8s1.1-.7,2-.7,1.5.2,2,.7.7,1.1.7,1.8-.2,1.3-.7,1.8-1.1.7-2,.7-1.5-.2-2-.7-.7-1.1-.7-1.8h0ZM766.9,385.5h-4.8v-18h4.8v18Z"/>
    <path d="M786.7,376.7c0,2.8-.6,5-1.9,6.6-1.3,1.7-3,2.5-5.1,2.5s-3.3-.6-4.4-1.9v8.5h-4.8v-24.9h4.5l.2,1.8c1.2-1.4,2.7-2.1,4.5-2.1s3.9.8,5.2,2.5c1.2,1.6,1.8,3.9,1.8,6.8v.2h0ZM781.9,376.3c0-1.7-.3-3-.9-3.9s-1.5-1.4-2.6-1.4-2.5.6-3.1,1.7v7.4c.6,1.2,1.6,1.8,3.1,1.8,2.3,0,3.4-1.9,3.4-5.6h.1Z"/>
    <path d="M794.4,385.5h-4.8v-25.5h4.8v25.5Z"/>
    <path d="M806.3,385.8c-2.6,0-4.8-.8-6.4-2.4-1.7-1.6-2.5-3.8-2.5-6.5v-.5c0-1.8.3-3.4,1-4.8s1.7-2.5,3-3.3,2.7-1.1,4.4-1.1c2.5,0,4.4.8,5.8,2.3,1.4,1.5,2.1,3.8,2.1,6.6v2h-11.4c.2,1.2.6,2.1,1.4,2.8.8.7,1.8,1.1,3,1.1,1.8,0,3.3-.7,4.3-2l2.4,2.6c-.7,1-1.7,1.8-2.9,2.4s-2.6.9-4.1.9h0l-.1-.1ZM805.7,371c-1,0-1.7.3-2.3,1s-1,1.6-1.1,2.8h6.7v-.4c0-1.1-.3-1.9-.9-2.5-.5-.6-1.3-.9-2.4-.9h0Z"/>
    <path d="M828.7,367.5l.2,2c1.3-1.6,3-2.3,5.2-2.3s3.9.9,4.8,2.7c1.3-1.8,3.1-2.7,5.4-2.7s3.4.6,4.3,1.7c1,1.1,1.4,2.8,1.4,5.1v11.5h-4.8v-11.5c0-1-.2-1.8-.6-2.2-.4-.5-1.1-.7-2.1-.7-1.4,0-2.4.7-3,2.1v12.3h-4.8v-11.4c0-1-.2-1.8-.6-2.3s-1.1-.7-2.1-.7-2.3.6-3,1.7v12.7h-4.8v-18h4.5,0Z"/>
    <path d="M861.5,385.8c-2.6,0-4.8-.8-6.4-2.4-1.7-1.6-2.5-3.8-2.5-6.5v-.5c0-1.8.3-3.4,1-4.8s1.7-2.5,3-3.3,2.7-1.1,4.4-1.1c2.5,0,4.4.8,5.8,2.3,1.4,1.5,2.1,3.8,2.1,6.6v2h-11.4c.2,1.2.6,2.1,1.4,2.8.8.7,1.8,1.1,3,1.1,1.8,0,3.3-.7,4.3-2l2.4,2.6c-.7,1-1.7,1.8-2.9,2.4s-2.6.9-4.1.9h0l-.1-.1ZM861,371c-1,0-1.7.3-2.3,1-.6.6-1,1.6-1.1,2.8h6.7v-.4c0-1.1-.3-1.9-.9-2.5s-1.3-.9-2.4-.9h0Z"/>
    <path d="M881.7,385.5c-.2-.4-.4-1-.5-1.6-1.2,1.3-2.7,1.9-4.5,1.9s-3.2-.5-4.4-1.5-1.7-2.3-1.7-3.9.7-3.4,2.1-4.4c1.4-1,3.5-1.5,6.1-1.5h2.2v-1c0-.8-.2-1.5-.6-2s-1.1-.8-2-.8-1.4.2-1.9.6-.7.9-.7,1.6h-4.8c0-1,.3-2,1-2.9s1.5-1.6,2.7-2.1,2.5-.8,4-.8c2.2,0,4,.6,5.3,1.7s2,2.7,2,4.7v7.8c0,1.7.2,3,.7,3.9v.3h-5ZM877.8,382.1c.7,0,1.4-.2,2-.5s1-.7,1.3-1.3v-3.1h-1.8c-2.4,0-3.7.8-3.8,2.5v.3c0,.6.2,1.1.6,1.5s1,.6,1.7.6h0Z"/>
    <path d="M893.6,367.5l.2,2.1c1.3-1.6,3-2.4,5.2-2.4s3.3.6,4.2,1.7,1.4,2.8,1.4,5v11.6h-4.8v-11.5c0-1-.2-1.8-.7-2.2s-1.2-.7-2.2-.7-2.4.6-3,1.7v12.7h-4.8v-18h4.5,0Z"/>
    <path d="M917.6,380.5c0-.6-.3-1-.9-1.4-.6-.3-1.5-.6-2.8-.9-4.3-.9-6.4-2.7-6.4-5.5s.7-2.9,2-4,3-1.6,5.2-1.6,4.1.5,5.5,1.6,2,2.5,2,4.2h-4.8c0-.7-.2-1.2-.7-1.7s-1.1-.7-2.1-.7-1.4.2-1.9.5c-.4.4-.7.8-.7,1.4s.2,1,.8,1.3c.5.3,1.3.6,2.5.9,1.2.2,2.2.5,3,.8,2.5.9,3.8,2.5,3.8,4.8s-.7,3-2.1,4c-1.4,1-3.2,1.5-5.5,1.5s-2.8-.3-4-.8-2.1-1.3-2.8-2.2c-.7-.9-1-1.9-1-3h4.5c0,.9.4,1.5,1,2s1.4.7,2.4.7,1.6-.2,2.1-.5.7-.8.7-1.4h.2Z"/>
    <path d="M932.4,376.3c0-1.8.3-3.4,1-4.8s1.7-2.5,3-3.2c1.3-.8,2.8-1.1,4.5-1.1,2.4,0,4.4.7,5.9,2.2s2.4,3.5,2.6,6v1.2c0,2.8-.7,5-2.3,6.6-1.5,1.7-3.6,2.5-6.2,2.5s-4.7-.8-6.2-2.5-2.3-3.9-2.3-6.8v-.2h0v.1ZM937.2,376.7c0,1.7.3,3,1,3.9s1.6,1.4,2.8,1.4,2.1-.5,2.7-1.3c.7-.9,1-2.3,1-4.3s-.3-3-1-3.9-1.6-1.4-2.8-1.4-2.1.5-2.7,1.4c-.6.9-1,2.3-1,4.2h0Z"/>
    <path d="M953.4,385.5v-14.4h-2.7v-3.5h2.7v-1.5c0-2,.6-3.6,1.7-4.7,1.2-1.1,2.8-1.7,4.9-1.7s1.5.1,2.4.3v3.7c-.5-.1-.9-.1-1.5-.1-1.8,0-2.7.9-2.7,2.5v1.4h3.6v3.5h-3.6v14.4h-4.8v.1Z"/>
    <path d="M723.9,412.6h-4v8.9h-5v-24.2h9c2.9,0,5.1.6,6.6,1.9s2.3,3.1,2.3,5.4-.4,3-1.1,4.1c-.7,1.1-1.8,2-3.2,2.6l5.2,9.9v.2h-5.3l-4.5-8.9h0v.1ZM719.9,408.6h4c1.2,0,2.2-.3,2.9-1,.7-.6,1-1.5,1-2.6s-.3-2-1-2.7c-.7-.6-1.6-1-3-1h-4v7.2h0l.1.1Z"/>
    <path d="M744.2,421.8c-2.6,0-4.8-.8-6.4-2.4-1.7-1.6-2.5-3.8-2.5-6.5v-.5c0-1.8.3-3.4,1-4.8s1.7-2.5,3-3.3,2.7-1.1,4.4-1.1c2.5,0,4.4.8,5.8,2.3,1.4,1.5,2.1,3.8,2.1,6.6v2h-11.4c.2,1.2.6,2.1,1.4,2.8.8.7,1.8,1.1,3,1.1,1.8,0,3.3-.7,4.3-2l2.4,2.6c-.7,1-1.7,1.8-2.9,2.4s-2.6.9-4.1.9h0l-.1-.1ZM743.7,407c-1,0-1.7.3-2.3,1-.6.6-1,1.6-1.1,2.8h6.7v-.4c0-1.1-.3-1.9-.9-2.5-.5-.6-1.3-.9-2.4-.9h0Z"/>
    <path d="M770.2,412.7c0,2.8-.6,5-1.9,6.6-1.3,1.7-3,2.5-5.1,2.5s-3.3-.6-4.4-1.9v8.5h-4.8v-24.9h4.5l.2,1.8c1.2-1.4,2.7-2.1,4.5-2.1s3.9.8,5.2,2.5c1.2,1.6,1.8,3.9,1.8,6.8v.2h0ZM765.4,412.3c0-1.7-.3-3-.9-3.9s-1.5-1.4-2.6-1.4-2.5.6-3.1,1.7v7.4c.6,1.2,1.6,1.8,3.1,1.8,2.3,0,3.4-1.9,3.4-5.6h.1Z"/>
    <path d="M782.9,408c-.7,0-1.2-.1-1.7-.1-1.8,0-3,.6-3.6,1.8v11.8h-4.8v-18h4.5v2.1c1.1-1.6,2.4-2.5,4.1-2.5s1,0,1.5.2v4.6h0v.1Z"/>
    <path d="M793.1,421.8c-2.6,0-4.8-.8-6.4-2.4-1.7-1.6-2.5-3.8-2.5-6.5v-.5c0-1.8.3-3.4,1-4.8s1.7-2.5,3-3.3,2.7-1.1,4.4-1.1c2.5,0,4.4.8,5.8,2.3,1.4,1.5,2.1,3.8,2.1,6.6v2h-11.4c.2,1.2.6,2.1,1.4,2.8.8.7,1.8,1.1,3,1.1,1.8,0,3.3-.7,4.3-2l2.4,2.6c-.7,1-1.7,1.8-2.9,2.4s-2.6.9-4.1.9h0l-.1-.1ZM792.6,407c-1,0-1.7.3-2.3,1-.6.6-1,1.6-1.1,2.8h6.7v-.4c0-1.1-.3-1.9-.9-2.5s-1.3-.9-2.4-.9h0Z"/>
    <path d="M812.6,416.5c0-.6-.3-1-.9-1.4-.6-.3-1.5-.6-2.8-.9-4.3-.9-6.4-2.7-6.4-5.5s.7-2.9,2-4,3-1.6,5.2-1.6,4.1.5,5.5,1.6,2,2.5,2,4.2h-4.8c0-.7-.2-1.2-.7-1.7s-1.1-.7-2.1-.7-1.4.2-1.9.5c-.4.4-.7.8-.7,1.4s.2,1,.8,1.3c.5.3,1.3.6,2.5.9,1.2.2,2.2.5,3,.8,2.5.9,3.8,2.5,3.8,4.8s-.7,3-2.1,4c-1.4,1-3.2,1.5-5.5,1.5s-2.8-.3-4-.8-2.1-1.3-2.8-2.2c-.7-.9-1-1.9-1-3h4.5c0,.9.4,1.5,1,2s1.4.7,2.4.7,1.6-.2,2.1-.5.7-.8.7-1.4h.2Z"/>
    <path d="M828.3,421.8c-2.6,0-4.8-.8-6.4-2.4-1.7-1.6-2.5-3.8-2.5-6.5v-.5c0-1.8.3-3.4,1-4.8s1.7-2.5,3-3.3,2.7-1.1,4.4-1.1c2.5,0,4.4.8,5.8,2.3,1.4,1.5,2.1,3.8,2.1,6.6v2h-11.4c.2,1.2.6,2.1,1.4,2.8.8.7,1.8,1.1,3,1.1,1.8,0,3.3-.7,4.3-2l2.4,2.6c-.7,1-1.7,1.8-2.9,2.4s-2.6.9-4.1.9h0l-.1-.1ZM827.8,407c-1,0-1.7.3-2.3,1s-1,1.6-1.1,2.8h6.7v-.4c0-1.1-.3-1.9-.9-2.5-.5-.6-1.3-.9-2.4-.9h0Z"/>
    <path d="M842.5,403.5l.2,2.1c1.3-1.6,3-2.4,5.2-2.4s3.3.6,4.2,1.7,1.4,2.8,1.4,5v11.6h-4.8v-11.5c0-1-.2-1.8-.7-2.2s-1.2-.7-2.2-.7-2.4.6-3,1.7v12.7h-4.8v-18h4.5,0Z"/>
    <path d="M862.5,399.1v4.4h3.1v3.5h-3.1v9c0,.7.1,1.1.4,1.4.2.3.7.4,1.5.4s1,0,1.4-.1v3.6c-.9.3-1.9.4-2.9.4-3.4,0-5.1-1.7-5.2-5.1v-9.7h-2.6v-3.5h2.6v-4.4h4.8v.1Z"/>
    <path d="M878.3,421.5c-.2-.4-.4-1-.5-1.6-1.2,1.3-2.7,1.9-4.5,1.9s-3.2-.5-4.4-1.5-1.7-2.3-1.7-3.9.7-3.4,2.1-4.4c1.4-1,3.5-1.5,6.1-1.5h2.2v-1c0-.8-.2-1.5-.6-2s-1.1-.8-2-.8-1.4.2-1.9.6-.7.9-.7,1.6h-4.8c0-1,.3-2,1-2.9s1.5-1.6,2.7-2.1,2.5-.8,4-.8c2.2,0,4,.6,5.3,1.7s2,2.7,2,4.7v7.8c0,1.7.2,3,.7,3.9v.3h-5ZM874.4,418.1c.7,0,1.4-.2,2-.5s1-.7,1.3-1.3v-3.1h-1.8c-2.4,0-3.7.8-3.8,2.5v.3c0,.6.2,1.1.6,1.5s1,.6,1.7.6h0Z"/>
    <path d="M891.6,399.1v4.4h3.1v3.5h-3.1v9c0,.7.1,1.1.4,1.4.2.3.7.4,1.5.4s1,0,1.4-.1v3.6c-.9.3-1.9.4-2.9.4-3.4,0-5.1-1.7-5.2-5.1v-9.7h-2.6v-3.5h2.6v-4.4h4.8v.1Z"/>
    <path d="M896.9,398.9c0-.7.2-1.3.7-1.8s1.1-.7,2-.7,1.5.2,2,.7.7,1.1.7,1.8-.2,1.3-.7,1.8-1.1.7-2,.7-1.5-.2-2-.7-.7-1.1-.7-1.8h0ZM902,421.5h-4.8v-18h4.8v18Z"/>
    <path d="M904.9,412.3c0-1.8.3-3.4,1-4.8s1.7-2.5,3-3.2,2.8-1.1,4.5-1.1c2.4,0,4.4.7,5.9,2.2s2.4,3.5,2.6,6v1.2c0,2.8-.7,5-2.3,6.6-1.5,1.7-3.6,2.5-6.2,2.5s-4.7-.8-6.2-2.5-2.3-3.9-2.3-6.8v-.2h0v.1ZM909.7,412.7c0,1.7.3,3,1,3.9.6.9,1.6,1.4,2.8,1.4s2.1-.5,2.7-1.3c.7-.9,1-2.3,1-4.3s-.3-3-1-3.9-1.6-1.4-2.8-1.4-2.1.5-2.7,1.4c-.6.9-1,2.3-1,4.2h0Z"/>
    <path d="M928.9,403.5l.2,2.1c1.3-1.6,3-2.4,5.2-2.4s3.3.6,4.2,1.7,1.4,2.8,1.4,5v11.6h-4.8v-11.5c0-1-.2-1.8-.7-2.2s-1.2-.7-2.2-.7-2.4.6-3,1.7v12.7h-4.8v-18h4.5,0Z"/>
    <path d="M651.9,540.2l6.2,17.5,6.2-17.5h6.5v24.2h-5v-6.6l.5-11.4-6.5,18h-3.4l-6.5-18,.5,11.4v6.6h-5v-24.2h6.5Z"/>
    <path d="M685,562.5c-1.2,1.4-2.8,2.2-4.9,2.2s-3.4-.5-4.4-1.7-1.5-2.7-1.5-4.9v-11.8h4.8v11.6c0,1.9.8,2.8,2.6,2.8s2.7-.6,3.3-1.7v-12.7h4.8v18h-4.5v-1.8h-.2Z"/>
    <path d="M697.6,564.3h-4.8v-25.5h4.8v25.5Z"/>
    <path d="M706.6,542v4.4h3.1v3.5h-3.1v9c0,.7.1,1.1.4,1.4s.7.4,1.5.4,1,0,1.4-.1v3.6c-.9.3-1.9.4-2.9.4-3.4,0-5.1-1.7-5.2-5.1v-9.7h-2.6v-3.5h2.6v-4.4h4.8v.1Z"/>
    <path d="M711.7,541.7c0-.7.2-1.3.7-1.8s1.1-.7,2-.7,1.5.2,2,.7.7,1.1.7,1.8-.2,1.3-.7,1.8-1.1.7-2,.7-1.5-.2-2-.7-.7-1.1-.7-1.8h0ZM716.8,564.3h-4.8v-18h4.8v18Z"/>
    <path d="M736.2,555.5c0,2.8-.6,5-1.9,6.7-1.3,1.7-3,2.5-5.1,2.5s-3.3-.6-4.4-1.9v8.5h-4.8v-24.9h4.5l.2,1.8c1.2-1.4,2.7-2.1,4.5-2.1s3.9.8,5.2,2.5,1.8,3.9,1.8,6.8v.2h0v-.1ZM731.4,555.2c0-1.7-.3-3-.9-3.9s-1.5-1.4-2.6-1.4-2.5.6-3.1,1.7v7.3c.6,1.2,1.6,1.8,3.1,1.8,2.3,0,3.4-1.9,3.4-5.6h0l.1.1Z"/>
    <path d="M743.5,564.3h-4.8v-25.5h4.8v25.5Z"/>
    <path d="M755.1,564.7c-2.6,0-4.8-.8-6.4-2.4-1.7-1.6-2.5-3.8-2.5-6.5v-.5c0-1.8.3-3.4,1-4.8.7-1.4,1.7-2.5,3-3.3s2.7-1.2,4.4-1.2c2.5,0,4.4.8,5.8,2.3s2.1,3.8,2.1,6.6v2h-11.4c.2,1.2.6,2.1,1.4,2.8s1.8,1.1,3,1.1c1.8,0,3.3-.7,4.3-2l2.4,2.6c-.7,1-1.7,1.8-2.9,2.4s-2.6.8-4.1.8h0l-.1.1ZM754.5,549.9c-1,0-1.7.3-2.3,1s-1,1.6-1.1,2.8h6.7v-.4c0-1.1-.3-1.9-.9-2.5-.5-.6-1.3-.9-2.4-.9h0Z"/>
    <path d="M776.8,546.4l.2,2c1.3-1.6,3-2.3,5.2-2.3s3.9.9,4.8,2.7c1.3-1.8,3.1-2.7,5.4-2.7s3.4.6,4.3,1.7,1.4,2.8,1.4,5.1v11.5h-4.8v-11.5c0-1-.2-1.8-.6-2.2-.4-.5-1.1-.7-2.1-.7-1.4,0-2.4.7-3,2.1v12.3h-4.8v-11.4c0-1-.2-1.8-.6-2.3s-1.1-.7-2.1-.7-2.3.6-3,1.7v12.7h-4.8v-18h4.5,0Z"/>
    <path d="M809.3,564.7c-2.6,0-4.8-.8-6.4-2.4-1.7-1.6-2.5-3.8-2.5-6.5v-.5c0-1.8.3-3.4,1-4.8.7-1.4,1.7-2.5,3-3.3s2.7-1.2,4.4-1.2c2.5,0,4.4.8,5.8,2.3s2.1,3.8,2.1,6.6v2h-11.4c.2,1.2.6,2.1,1.4,2.8s1.8,1.1,3,1.1c1.8,0,3.3-.7,4.3-2l2.4,2.6c-.7,1-1.7,1.8-2.9,2.4s-2.6.8-4.1.8h0l-.1.1ZM808.8,549.9c-1,0-1.7.3-2.3,1s-1,1.6-1.1,2.8h6.7v-.4c0-1.1-.3-1.9-.9-2.5-.5-.6-1.3-.9-2.4-.9h0Z"/>
    <path d="M829.2,564.3c-.2-.4-.4-1-.5-1.6-1.2,1.3-2.7,1.9-4.5,1.9s-3.2-.5-4.4-1.5-1.7-2.3-1.7-3.8.7-3.4,2.1-4.4,3.5-1.5,6.1-1.5h2.2v-1c0-.8-.2-1.5-.6-2s-1.1-.8-2-.8-1.4.2-1.9.6-.7.9-.7,1.6h-4.8c0-1,.3-2,1-2.9.6-.9,1.5-1.6,2.7-2.1s2.5-.8,4-.8c2.2,0,4,.6,5.3,1.7,1.3,1.1,2,2.7,2,4.7v7.8c0,1.7.2,3,.7,3.9v.3h-4.8l-.2-.1ZM825.2,561c.7,0,1.4-.2,2-.5s1-.7,1.3-1.3v-3.1h-1.8c-2.4,0-3.7.8-3.8,2.5v.3c0,.6.2,1.1.6,1.5.4.4,1,.6,1.7.6h0Z"/>
    <path d="M840.7,546.4l.2,2.1c1.3-1.6,3-2.4,5.2-2.4s3.3.6,4.2,1.7,1.4,2.8,1.4,5v11.6h-4.8v-11.5c0-1-.2-1.8-.7-2.2s-1.2-.7-2.2-.7-2.4.6-3,1.7v12.7h-4.8v-18h4.5,0Z"/>
    <path d="M864.4,559.4c0-.6-.3-1-.9-1.4s-1.5-.6-2.8-.9c-4.3-.9-6.4-2.7-6.4-5.5s.7-2.9,2-4,3-1.6,5.2-1.6,4.1.5,5.5,1.6,2,2.5,2,4.2h-4.8c0-.7-.2-1.2-.7-1.7s-1.1-.7-2.1-.7-1.4.2-1.9.5-.7.8-.7,1.4.2,1,.8,1.3c.5.3,1.3.6,2.5.8s2.2.5,3,.8c2.5.9,3.8,2.5,3.8,4.8s-.7,3-2.1,4c-1.4,1-3.2,1.5-5.5,1.5s-2.8-.3-4-.8-2.1-1.3-2.8-2.2-1-2-1-3h4.5c0,.8.4,1.5,1,2s1.4.7,2.4.7,1.6-.2,2.1-.5.7-.8.7-1.4h0l.2.1Z"/>
    <path d="M878.5,555.2c0-1.8.3-3.4,1-4.8s1.7-2.5,3-3.2c1.3-.8,2.8-1.2,4.5-1.2,2.4,0,4.4.7,5.9,2.2s2.4,3.5,2.6,6v1.2c0,2.8-.7,5-2.3,6.6-1.5,1.7-3.6,2.5-6.2,2.5s-4.7-.8-6.2-2.5-2.3-3.9-2.3-6.8v-.2h0v.2ZM883.3,555.5c0,1.7.3,3,1,3.9.6.9,1.6,1.4,2.8,1.4s2.1-.5,2.7-1.3c.7-.9,1-2.3,1-4.3s-.3-3-1-3.9-1.6-1.4-2.8-1.4-2.1.5-2.7,1.4c-.6.9-1,2.3-1,4.2h0Z"/>
    <path d="M899.1,564.3v-14.4h-2.7v-3.5h2.7v-1.5c0-2,.6-3.6,1.7-4.7s2.8-1.7,4.9-1.7,1.5.1,2.4.3v3.7c-.5,0-.9-.2-1.5-.2-1.8,0-2.7.8-2.7,2.5v1.4h3.6v3.5h-3.6v14.4h-4.8v.2Z"/>
    <path d="M931.1,559.4h-8.7l-1.7,5h-5.3l9-24.2h4.6l9,24.2h-5.3l-1.7-5h.1ZM923.7,555.3h6l-3-9-3,9Z"/>
    <path d="M946.8,560.8c.9,0,1.6-.2,2.2-.7.5-.5.8-1.1.9-1.9h4.5c0,1.2-.3,2.3-1,3.3s-1.5,1.8-2.7,2.4-2.4.8-3.8.8c-2.6,0-4.6-.8-6.1-2.5s-2.2-3.9-2.2-6.8v-.3c0-2.8.7-5,2.2-6.6,1.5-1.7,3.5-2.5,6.1-2.5s4,.6,5.4,1.9c1.4,1.3,2,3,2.1,5.1h-4.5c0-.9-.3-1.7-.9-2.3-.5-.6-1.3-.9-2.2-.9s-2,.4-2.5,1.2-.9,2.1-.9,4v.5c0,1.8.3,3.2.8,4s1.4,1.2,2.6,1.2h0v.1Z"/>
    <path d="M962.1,542v4.4h3.1v3.5h-3.1v9c0,.7.1,1.1.4,1.4s.7.4,1.5.4,1,0,1.4-.1v3.6c-.9.3-1.9.4-2.9.4-3.4,0-5.1-1.7-5.2-5.1v-9.7h-2.6v-3.5h2.6v-4.4h4.8v.1Z"/>
    <path d="M967.1,541.7c0-.7.2-1.3.7-1.8s1.1-.7,2-.7,1.5.2,2,.7.7,1.1.7,1.8-.2,1.3-.7,1.8-1.1.7-2,.7-1.5-.2-2-.7-.7-1.1-.7-1.8h0ZM972.2,564.3h-4.8v-18h4.8v18Z"/>
    <path d="M974.7,555.2c0-1.8.3-3.4,1-4.8s1.7-2.5,3-3.2c1.3-.8,2.8-1.2,4.5-1.2,2.4,0,4.4.7,5.9,2.2s2.4,3.5,2.6,6v1.2c0,2.8-.7,5-2.3,6.6-1.5,1.7-3.6,2.5-6.2,2.5s-4.7-.8-6.2-2.5-2.3-3.9-2.3-6.8v-.2h0v.2ZM979.5,555.5c0,1.7.3,3,1,3.9.6.9,1.6,1.4,2.8,1.4s2.1-.5,2.7-1.3c.7-.9,1-2.3,1-4.3s-.3-3-1-3.9-1.6-1.4-2.8-1.4-2.1.5-2.7,1.4c-.6.9-1,2.3-1,4.2h0Z"/>
    <path d="M998.4,546.4l.2,2.1c1.3-1.6,3-2.4,5.2-2.4s3.3.6,4.2,1.7,1.4,2.8,1.4,5v11.6h-4.8v-11.5c0-1-.2-1.8-.7-2.2-.4-.5-1.2-.7-2.2-.7s-2.4.6-3,1.7v12.7h-4.8v-18h4.5,0Z"/>
    <path d="M727.2,600.3c-.2-.4-.4-1-.5-1.6-1.2,1.3-2.7,1.9-4.5,1.9s-3.2-.5-4.4-1.5-1.7-2.3-1.7-3.8.7-3.4,2.1-4.4,3.5-1.5,6.1-1.5h2.2v-1c0-.8-.2-1.5-.6-2s-1.1-.8-2-.8-1.4.2-1.9.6-.7.9-.7,1.6h-4.8c0-1,.3-2,1-2.9.6-.9,1.5-1.6,2.7-2.1s2.5-.8,4-.8c2.2,0,4,.6,5.3,1.7,1.3,1.1,2,2.7,2,4.7v7.8c0,1.7.2,3,.7,3.9v.3h-4.9l-.1-.1ZM723.2,597c.7,0,1.4-.2,2-.5s1-.7,1.3-1.3v-3.1h-1.8c-2.4,0-3.7.8-3.8,2.5v.3c0,.6.2,1.1.6,1.5.4.4,1,.6,1.7.6h0Z"/>
    <path d="M738.7,582.4l.2,2.1c1.3-1.6,3-2.4,5.2-2.4s3.3.6,4.2,1.7,1.4,2.8,1.4,5v11.6h-4.8v-11.5c0-1-.2-1.8-.7-2.2-.4-.5-1.2-.7-2.2-.7s-2.4.6-3,1.7v12.7h-4.8v-18h4.5,0Z"/>
    <path d="M751.9,591.2c0-2.8.6-5,1.9-6.7s3-2.5,5.2-2.5,3.2.7,4.3,2v-9.2h4.8v25.5h-4.3l-.2-1.9c-1.2,1.5-2.7,2.2-4.6,2.2s-3.8-.8-5.1-2.5-1.9-4-1.9-7h0l-.1.1ZM756.7,591.6c0,1.7.3,3,.9,3.9.6.9,1.4,1.3,2.6,1.3s2.5-.6,3.1-1.9v-7.1c-.6-1.2-1.6-1.9-3.1-1.9-2.3,0-3.5,1.9-3.5,5.6h0v.1Z"/>
    <path d="M793.8,589.9h-9.6v6.5h11.2v4h-16.2v-24.2h16.2v4h-11.2v5.8h9.6v3.9h0Z"/>
    <path d="M804.2,587.7l3-5.4h5.1l-5.1,8.8,5.3,9.2h-5.2l-3.2-5.6-3.2,5.6h-5.2l5.3-9.2-5.1-8.8h5.2l3,5.4h.1Z"/>
    <path d="M830.2,591.5c0,2.8-.6,5-1.9,6.7-1.3,1.7-3,2.5-5.1,2.5s-3.3-.6-4.4-1.9v8.5h-4.8v-24.9h4.5l.2,1.8c1.2-1.4,2.7-2.1,4.5-2.1s3.9.8,5.2,2.5,1.8,3.9,1.8,6.8v.2h0v-.1ZM825.4,591.2c0-1.7-.3-3-.9-3.9s-1.5-1.4-2.6-1.4-2.5.6-3.1,1.7v7.3c.6,1.2,1.6,1.8,3.1,1.8,2.3,0,3.4-1.9,3.4-5.6h0l.1.1Z"/>
    <path d="M842.6,586.9c-.7,0-1.2-.1-1.7-.1-1.8,0-3,.6-3.6,1.8v11.8h-4.8v-18h4.5v2.1c1.1-1.7,2.4-2.5,4.1-2.5s1,0,1.5.2v4.6h0v.1Z"/>
    <path d="M852.5,600.7c-2.6,0-4.8-.8-6.4-2.4s-2.5-3.8-2.5-6.5v-.5c0-1.8.3-3.4,1-4.8.7-1.4,1.7-2.5,3-3.3s2.7-1.2,4.4-1.2c2.5,0,4.4.8,5.8,2.3s2.1,3.8,2.1,6.6v2h-11.4c.2,1.2.6,2.1,1.4,2.8s1.8,1.1,3,1.1c1.8,0,3.3-.7,4.3-2l2.4,2.6c-.7,1-1.7,1.8-2.9,2.4s-2.6.8-4.1.8h0l-.1.1ZM851.9,585.9c-1,0-1.7.3-2.3,1s-1,1.6-1.1,2.8h6.7v-.4c0-1.1-.3-1.9-.9-2.5-.5-.6-1.3-.9-2.4-.9h0Z"/>
    <path d="M871.6,595.4c0-.6-.3-1-.9-1.4s-1.5-.6-2.8-.9c-4.3-.9-6.4-2.7-6.4-5.5s.7-2.9,2-4,3-1.6,5.2-1.6,4.1.5,5.5,1.6,2,2.5,2,4.2h-4.8c0-.7-.2-1.2-.7-1.7s-1.1-.7-2.1-.7-1.4.2-1.9.5-.7.8-.7,1.4.2,1,.8,1.3c.5.3,1.3.6,2.5.8s2.2.5,3,.8c2.5.9,3.8,2.5,3.8,4.8s-.7,3-2.1,4c-1.4,1-3.2,1.5-5.5,1.5s-2.8-.3-4-.8-2.1-1.3-2.8-2.2-1-2-1-3h4.5c0,.8.4,1.5,1,2s1.4.7,2.4.7,1.6-.2,2.1-.5.7-.8.7-1.4h0l.2.1Z"/>
    <path d="M888.4,595.4c0-.6-.3-1-.9-1.4s-1.5-.6-2.8-.9c-4.3-.9-6.4-2.7-6.4-5.5s.7-2.9,2-4,3-1.6,5.2-1.6,4.1.5,5.5,1.6,2,2.5,2,4.2h-4.8c0-.7-.2-1.2-.7-1.7s-1.1-.7-2.1-.7-1.4.2-1.9.5-.7.8-.7,1.4.2,1,.8,1.3c.5.3,1.3.6,2.5.8s2.2.5,3,.8c2.5.9,3.8,2.5,3.8,4.8s-.7,3-2.1,4c-1.4,1-3.2,1.5-5.5,1.5s-2.8-.3-4-.8-2.1-1.3-2.8-2.2-1-2-1-3h4.5c0,.8.4,1.5,1,2s1.4.7,2.4.7,1.6-.2,2.1-.5.7-.8.7-1.4h0l.2.1Z"/>
    <path d="M895.5,577.7c0-.7.2-1.3.7-1.8s1.1-.7,2-.7,1.5.2,2,.7.7,1.1.7,1.8-.2,1.3-.7,1.8-1.1.7-2,.7-1.5-.2-2-.7-.7-1.1-.7-1.8h0ZM900.5,600.3h-4.8v-18h4.8v18Z"/>
    <path d="M903.1,591.2c0-1.8.3-3.4,1-4.8s1.7-2.5,3-3.2c1.3-.8,2.8-1.2,4.5-1.2,2.4,0,4.4.7,5.9,2.2s2.4,3.5,2.6,6v1.2c0,2.8-.7,5-2.3,6.6-1.5,1.7-3.6,2.5-6.2,2.5s-4.7-.8-6.2-2.5-2.3-3.9-2.3-6.8v-.2h0v.2ZM907.9,591.5c0,1.7.3,3,1,3.9.6.9,1.6,1.4,2.8,1.4s2.1-.5,2.7-1.3c.7-.9,1-2.3,1-4.3s-.3-3-1-3.9-1.6-1.4-2.8-1.4-2.1.5-2.7,1.4c-.6.9-1,2.3-1,4.2h0Z"/>
    <path d="M926.8,582.4l.2,2.1c1.3-1.6,3-2.4,5.2-2.4s3.3.6,4.2,1.7,1.4,2.8,1.4,5v11.6h-4.8v-11.5c0-1-.2-1.8-.7-2.2s-1.2-.7-2.2-.7-2.4.6-3,1.7v12.7h-4.8v-18h4.5,0Z"/>
    <path d="M634.2,846v-24.2h8.5c2.9,0,5.2.6,6.7,1.7,1.5,1.1,2.3,2.8,2.3,4.9s-.3,2.2-.9,3.1-1.5,1.6-2.5,2c1.2.3,2.2.9,2.9,1.9s1.1,2.1,1.1,3.5c0,2.3-.7,4.1-2.2,5.3s-3.6,1.8-6.3,1.8h-9.6ZM639.2,832h3.7c2.5,0,3.8-1,3.8-3s-.3-1.9-1-2.4c-.6-.5-1.6-.7-3-.7h-3.5v6.1h0ZM639.2,835.5v6.5h4.3c1.2,0,2.1-.3,2.8-.8s1-1.3,1-2.3c0-2.2-1.2-3.3-3.4-3.4h-4.7Z"/>
    <path d="M666,846c-.2-.4-.4-1-.5-1.6-1.2,1.3-2.7,1.9-4.5,1.9s-3.2-.5-4.4-1.5-1.7-2.3-1.7-3.8.7-3.4,2.1-4.4,3.5-1.5,6.1-1.5h2.2v-1c0-.8-.2-1.5-.6-2s-1.1-.8-2-.8-1.4.2-1.9.6-.7.9-.7,1.6h-4.8c0-1,.3-2,1-2.9.6-.9,1.5-1.6,2.7-2.1s2.5-.8,4-.8c2.2,0,4,.6,5.3,1.7,1.3,1.1,2,2.7,2,4.7v7.8c0,1.7.2,3,.7,3.9v.3h-4.9l-.1-.1ZM662,842.7c.7,0,1.4-.2,2-.5s1-.7,1.3-1.3v-3.1h-1.8c-2.4,0-3.7.8-3.8,2.5v.3c0,.6.2,1.1.6,1.5.4.4,1,.6,1.7.6h0Z"/>
    <path d="M683.9,832.6c-.7,0-1.2-.1-1.7-.1-1.8,0-3,.6-3.6,1.8v11.8h-4.8v-18h4.5v2.1c1.1-1.7,2.4-2.5,4.1-2.5s1,0,1.5.2v4.6h0v.1Z"/>
    <path d="M696.3,832.6c-.7,0-1.2-.1-1.7-.1-1.8,0-3,.6-3.6,1.8v11.8h-4.8v-18h4.5v2.1c1.1-1.7,2.4-2.5,4.1-2.5s1,0,1.5.2v4.6h0v.1Z"/>
    <path d="M698.6,823.4c0-.7.2-1.3.7-1.8s1.1-.7,2-.7,1.5.2,2,.7.7,1.1.7,1.8-.2,1.3-.7,1.8-1.1.7-2,.7-1.5-.2-2-.7-.7-1.1-.7-1.8h0ZM703.7,846h-4.8v-18h4.8v18Z"/>
    <path d="M715.9,846.4c-2.6,0-4.8-.8-6.4-2.4-1.7-1.6-2.5-3.8-2.5-6.5v-.5c0-1.8.3-3.4,1-4.8s1.7-2.5,3-3.3,2.7-1.2,4.4-1.2c2.5,0,4.4.8,5.8,2.3,1.4,1.5,2.1,3.8,2.1,6.6v2h-11.4c.2,1.2.6,2.1,1.4,2.8s1.8,1.1,3,1.1c1.8,0,3.3-.7,4.3-2l2.4,2.6c-.7,1-1.7,1.8-2.9,2.4s-2.6.8-4.1.8h0l-.1.1ZM715.4,831.6c-1,0-1.7.3-2.3,1-.6.6-1,1.6-1.1,2.8h6.7v-.4c0-1.1-.3-1.9-.9-2.5-.5-.6-1.3-.9-2.4-.9h0Z"/>
    <path d="M736.1,832.6c-.7,0-1.2-.1-1.7-.1-1.8,0-3,.6-3.6,1.8v11.8h-4.8v-18h4.5v2.1c1.1-1.7,2.4-2.5,4.1-2.5s1,0,1.5.2v4.6h0v.1Z"/>
    <path d="M748.1,841.1c0-.6-.3-1-.9-1.4s-1.5-.6-2.8-.9c-4.3-.9-6.4-2.7-6.4-5.5s.7-2.9,2-4,3-1.6,5.2-1.6,4.1.5,5.5,1.6,2,2.5,2,4.2h-4.8c0-.7-.2-1.2-.7-1.7s-1.1-.7-2.1-.7-1.4.2-1.9.5-.7.8-.7,1.4.2,1,.8,1.3c.5.3,1.3.6,2.5.8s2.2.5,3,.8c2.5.9,3.8,2.5,3.8,4.8s-.7,3-2.1,4-3.2,1.5-5.5,1.5-2.8-.3-4-.8-2.1-1.3-2.8-2.2-1-2-1-3h4.5c0,.8.4,1.5,1,2s1.4.7,2.4.7,1.6-.2,2.1-.5.7-.8.7-1.4h0l.2.1Z"/>
    <path d="M764.3,823.4c0-.7.2-1.3.7-1.8s1.1-.7,2-.7,1.5.2,2,.7.7,1.1.7,1.8-.2,1.3-.7,1.8-1.1.7-2,.7-1.5-.2-2-.7-.7-1.1-.7-1.8h0ZM769.4,846h-4.8v-18h4.8v18Z"/>
    <path d="M777.8,828.1l.2,2.1c1.3-1.6,3-2.4,5.2-2.4s3.3.6,4.2,1.7,1.4,2.8,1.4,5v11.6h-4.8v-11.5c0-1-.2-1.8-.7-2.2s-1.2-.7-2.2-.7-2.4.6-3,1.7v12.7h-4.8v-18h4.5,0Z"/>
    <path d="M806.6,823.7v4.4h3.1v3.5h-3.1v9c0,.7.1,1.1.4,1.4s.7.4,1.5.4,1,0,1.4-.1v3.6c-.9.3-1.9.4-2.9.4-3.4,0-5.1-1.7-5.2-5.1v-9.7h-2.6v-3.5h2.6v-4.4h4.8v.1Z"/>
    <path d="M817.1,830c1.3-1.5,2.9-2.3,4.8-2.3,3.9,0,5.9,2.3,5.9,6.8v11.5h-4.8v-11.4c0-1-.2-1.8-.7-2.3s-1.2-.7-2.2-.7-2.4.5-3,1.6v12.8h-4.8v-25.5h4.8v9.5h0Z"/>
    <path d="M839.7,846.4c-2.6,0-4.8-.8-6.4-2.4-1.7-1.6-2.5-3.8-2.5-6.5v-.5c0-1.8.3-3.4,1-4.8s1.7-2.5,3-3.3,2.7-1.2,4.4-1.2c2.5,0,4.4.8,5.8,2.3,1.4,1.5,2.1,3.8,2.1,6.6v2h-11.4c.2,1.2.6,2.1,1.4,2.8s1.8,1.1,3,1.1c1.8,0,3.3-.7,4.3-2l2.4,2.6c-.7,1-1.7,1.8-2.9,2.4s-2.6.8-4.1.8h0l-.1.1ZM839.1,831.6c-1,0-1.7.3-2.3,1-.6.6-1,1.6-1.1,2.8h6.7v-.4c0-1.1-.3-1.9-.9-2.5-.5-.6-1.3-.9-2.4-.9h0Z"/>
    <path d="M866.5,846.4c-2.6,0-4.8-.8-6.4-2.4-1.7-1.6-2.5-3.8-2.5-6.5v-.5c0-1.8.3-3.4,1-4.8s1.7-2.5,3-3.3,2.7-1.2,4.4-1.2c2.5,0,4.4.8,5.8,2.3,1.4,1.5,2.1,3.8,2.1,6.6v2h-11.4c.2,1.2.6,2.1,1.4,2.8s1.8,1.1,3,1.1c1.8,0,3.3-.7,4.3-2l2.4,2.6c-.7,1-1.7,1.8-2.9,2.4s-2.6.8-4.1.8h0l-.1.1ZM866,831.6c-1,0-1.7.3-2.3,1-.6.6-1,1.6-1.1,2.8h6.7v-.4c0-1.1-.3-1.9-.9-2.5-.5-.6-1.3-.9-2.4-.9h0Z"/>
    <path d="M881,828.1l.2,2.1c1.3-1.6,3-2.4,5.2-2.4s3.3.6,4.2,1.7,1.4,2.8,1.4,5v11.6h-4.8v-11.5c0-1-.2-1.8-.7-2.2s-1.2-.7-2.2-.7-2.4.6-3,1.7v12.7h-4.8v-18h4.5,0Z"/>
    <path d="M902.4,840.2l3.3-12.1h5l-6.1,18h-4.6l-6.1-18h5l3.3,12.1h.2Z"/>
    <path d="M912.8,823.4c0-.7.2-1.3.7-1.8s1.1-.7,2-.7,1.5.2,2,.7.7,1.1.7,1.8-.2,1.3-.7,1.8-1.1.7-2,.7-1.5-.2-2-.7-.7-1.1-.7-1.8h0ZM917.9,846h-4.8v-18h4.8v18Z"/>
    <path d="M932,832.6c-.7,0-1.2-.1-1.7-.1-1.8,0-3,.6-3.6,1.8v11.8h-4.8v-18h4.5v2.1c1.1-1.7,2.4-2.5,4.1-2.5s1,0,1.5.2v4.6h0v.1Z"/>
    <path d="M932.9,836.9c0-1.8.3-3.4,1-4.8s1.7-2.5,3-3.2c1.3-.8,2.8-1.2,4.5-1.2,2.4,0,4.4.7,5.9,2.2s2.4,3.5,2.6,6v1.2c0,2.8-.7,5-2.3,6.6s-3.6,2.5-6.2,2.5-4.7-.8-6.2-2.5-2.3-3.9-2.3-6.8v-.2h0v.2ZM937.7,837.2c0,1.7.3,3,1,3.9s1.6,1.3,2.8,1.3,2.1-.5,2.7-1.3c.7-.9,1-2.3,1-4.3s-.3-3-1-3.9-1.6-1.4-2.8-1.4-2.1.5-2.7,1.4-1,2.3-1,4.2h0v.1Z"/>
    <path d="M957.3,828.1l.2,2.1c1.3-1.6,3-2.4,5.2-2.4s3.3.6,4.2,1.7,1.4,2.8,1.4,5v11.6h-4.8v-11.5c0-1-.2-1.8-.7-2.2s-1.2-.7-2.2-.7-2.4.6-3,1.7v12.7h-4.8v-18h4.5,0Z"/>
    <path d="M976.4,828.1l.2,2c1.3-1.6,3-2.3,5.2-2.3s3.9.9,4.8,2.7c1.3-1.8,3.1-2.7,5.4-2.7s3.4.6,4.3,1.7,1.4,2.8,1.4,5.1v11.5h-4.8v-11.5c0-1-.2-1.8-.6-2.2s-1.1-.7-2.1-.7c-1.4,0-2.4.7-3,2.1v12.3h-4.8v-11.4c0-1-.2-1.8-.6-2.3s-1.1-.7-2.1-.7-2.3.6-3,1.7v12.7h-4.8v-18h4.5,0Z"/>
    <path d="M1009.6,846.4c-2.6,0-4.8-.8-6.4-2.4-1.7-1.6-2.5-3.8-2.5-6.5v-.5c0-1.8.3-3.4,1-4.8s1.7-2.5,3-3.3,2.7-1.2,4.4-1.2c2.5,0,4.4.8,5.8,2.3,1.4,1.5,2.1,3.8,2.1,6.6v2h-11.4c.2,1.2.6,2.1,1.4,2.8s1.8,1.1,3,1.1c1.8,0,3.3-.7,4.3-2l2.4,2.6c-.7,1-1.7,1.8-2.9,2.4s-2.6.8-4.1.8h0l-.1.1ZM1009.1,831.6c-1,0-1.7.3-2.3,1-.6.6-1,1.6-1.1,2.8h6.7v-.4c0-1.1-.3-1.9-.9-2.5-.5-.6-1.3-.9-2.4-.9h0Z"/>
    <path d="M1024.2,828.1l.2,2.1c1.3-1.6,3-2.4,5.2-2.4s3.3.6,4.2,1.7,1.4,2.8,1.4,5v11.6h-4.8v-11.5c0-1-.2-1.8-.7-2.2s-1.2-.7-2.2-.7-2.4.6-3,1.7v12.7h-4.8v-18h4.5Z"/>
    <path d="M1044.5,823.7v4.4h3.1v3.5h-3.1v9c0,.7.1,1.1.4,1.4s.7.4,1.5.4,1,0,1.4-.1v3.6c-.9.3-1.9.4-2.9.4-3.4,0-5.1-1.7-5.2-5.1v-9.7h-2.6v-3.5h2.6v-4.4h4.8v.1Z"/>
    <path d="M188.4,846h-5v-24.2h5v24.2Z"/>
    <path d="M197.1,828.1v2.1c1.4-1.6,3.1-2.4,5.3-2.4s3.3.6,4.2,1.7,1.4,2.8,1.4,5v11.6h-4.8v-11.5c0-1-.2-1.8-.7-2.2-.4-.5-1.2-.7-2.2-.7s-2.4.6-3,1.7v12.7h-4.8v-18h4.6Z"/>
    <path d="M211,836.9c0-2.8.6-5,1.9-6.7,1.3-1.7,3-2.5,5.1-2.5s3.2.7,4.3,2v-9.2h4.8v25.5h-4.3l-.2-1.9c-1.2,1.5-2.7,2.2-4.6,2.2s-3.8-.8-5.1-2.5-1.9-4-1.9-7h0v.1ZM215.8,837.3c0,1.7.3,3,.9,3.9.6.9,1.4,1.3,2.6,1.3s2.5-.6,3.1-1.9v-7.1c-.6-1.2-1.6-1.9-3.1-1.9-2.3,0-3.5,1.9-3.5,5.6h0v.1Z"/>
    <path d="M230.8,823.4c0-.7.2-1.3.7-1.8s1.1-.7,2-.7,1.5.2,2,.7.7,1.1.7,1.8-.2,1.3-.7,1.8-1.1.7-2,.7-1.5-.2-2-.7-.7-1.1-.7-1.8ZM235.9,846h-4.8v-18h4.8v18Z"/>
    <path d="M246.6,840.2l3.3-12.1h5l-6.1,18h-4.6l-6.1-18h5l3.3,12.1h.2Z"/>
    <path d="M257,823.4c0-.7.2-1.3.7-1.8s1.1-.7,2-.7,1.5.2,2,.7.7,1.1.7,1.8-.2,1.3-.7,1.8-1.1.7-2,.7-1.5-.2-2-.7-.7-1.1-.7-1.8ZM262.1,846h-4.8v-18h4.8v18Z"/>
    <path d="M265.3,836.9c0-2.8.6-5,1.9-6.7s3-2.5,5.1-2.5,3.2.7,4.3,2v-9.2h4.8v25.5h-4.3l-.2-1.9c-1.2,1.5-2.7,2.2-4.6,2.2s-3.8-.8-5.1-2.5-1.9-4-1.9-7h0v.1ZM270.1,837.3c0,1.7.3,3,.9,3.9s1.4,1.3,2.6,1.3,2.5-.6,3.1-1.9v-7.1c-.6-1.2-1.6-1.9-3.1-1.9-2.3,0-3.5,1.9-3.5,5.6h0v.1Z"/>
    <path d="M296,844.2c-1.2,1.4-2.8,2.2-4.9,2.2s-3.4-.5-4.4-1.7-1.5-2.7-1.5-4.9v-11.8h4.8v11.6c0,1.9.9,2.8,2.6,2.8s2.7-.6,3.4-1.7v-12.7h4.8v18h-4.5v-1.8h-.3Z"/>
    <path d="M314.7,846c-.2-.4-.4-1-.5-1.6-1.2,1.3-2.7,1.9-4.5,1.9s-3.2-.5-4.4-1.5c-1.2-1-1.7-2.3-1.7-3.8s.7-3.4,2.1-4.4,3.5-1.5,6.1-1.5h2.2v-1c0-.8-.2-1.5-.6-2s-1.1-.8-2-.8-1.4.2-1.9.6-.7.9-.7,1.6h-4.8c0-1,.3-2,1-2.9.6-.9,1.5-1.6,2.7-2.1s2.5-.8,4-.8c2.2,0,4,.6,5.3,1.7s2,2.7,2,4.7v7.8c0,1.7.2,3,.7,3.9v.3h-4.9l-.1-.1ZM310.7,842.7c.7,0,1.4-.2,2-.5s1-.7,1.3-1.3v-3.1h-1.8c-2.4,0-3.7.8-3.8,2.5v.3c0,.6.2,1.1.6,1.5s1,.6,1.7.6h0Z"/>
    <path d="M327.5,846h-4.8v-25.5h4.8v25.5Z"/>
    <path d="M345.3,842h10.6v4h-15.6v-24.2h5v20.2Z"/>
    <path d="M366.6,846.4c-2.6,0-4.8-.8-6.4-2.4-1.6-1.6-2.5-3.8-2.5-6.5v-.5c0-1.8.4-3.4,1-4.8s1.7-2.5,3-3.3,2.7-1.2,4.4-1.2c2.5,0,4.4.8,5.8,2.3s2.1,3.8,2.1,6.6v2h-11.4c.1,1.2.6,2.1,1.4,2.8s1.8,1.1,3,1.1c1.9,0,3.3-.7,4.3-2l2.4,2.6c-.7,1-1.7,1.8-2.9,2.4s-2.6.8-4.1.8h0l-.1.1ZM366.1,831.6c-1,0-1.7.3-2.3,1-.6.6-1,1.6-1.1,2.8h6.7v-.4c0-1.1-.3-1.9-.9-2.5-.5-.6-1.3-.9-2.4-.9h0Z"/>
    <path d="M387.2,846c-.2-.4-.4-1-.5-1.6-1.2,1.3-2.7,1.9-4.5,1.9s-3.2-.5-4.4-1.5c-1.2-1-1.7-2.3-1.7-3.8s.7-3.4,2.1-4.4,3.5-1.5,6.1-1.5h2.2v-1c0-.8-.2-1.5-.6-2s-1.1-.8-2-.8-1.4.2-1.9.6-.7.9-.7,1.6h-4.8c0-1,.3-2,1-2.9.6-.9,1.5-1.6,2.7-2.1s2.5-.8,4-.8c2.2,0,4,.6,5.3,1.7s2,2.7,2,4.7v7.8c0,1.7.2,3,.7,3.9v.3h-4.9l-.1-.1ZM383.2,842.7c.7,0,1.4-.2,2-.5s1-.7,1.3-1.3v-3.1h-1.8c-2.4,0-3.7.8-3.8,2.5v.3c0,.6.2,1.1.6,1.5s1,.6,1.7.6h0Z"/>
    <path d="M405.1,832.6c-.6,0-1.2-.1-1.7-.1-1.8,0-3,.6-3.6,1.8v11.8h-4.8v-18h4.5v2.1c1.1-1.7,2.4-2.5,4.1-2.5s1,0,1.5.2v4.6h0v.1Z"/>
    <path d="M411.8,828.1v2.1c1.4-1.6,3.1-2.4,5.3-2.4s3.3.6,4.2,1.7,1.4,2.8,1.4,5v11.6h-4.8v-11.5c0-1-.2-1.8-.7-2.2-.4-.5-1.2-.7-2.2-.7s-2.4.6-3,1.7v12.7h-4.8v-18h4.6Z"/>
    <path d="M434.7,846.4c-2.6,0-4.8-.8-6.4-2.4-1.6-1.6-2.5-3.8-2.5-6.5v-.5c0-1.8.4-3.4,1-4.8s1.7-2.5,3-3.3,2.7-1.2,4.4-1.2c2.5,0,4.4.8,5.8,2.3s2.1,3.8,2.1,6.6v2h-11.4c.1,1.2.6,2.1,1.4,2.8s1.8,1.1,3,1.1c1.9,0,3.3-.7,4.3-2l2.4,2.6c-.7,1-1.7,1.8-2.9,2.4s-2.6.8-4.1.8h0l-.1.1ZM434.1,831.6c-1,0-1.7.3-2.3,1-.6.6-1,1.6-1.1,2.8h6.7v-.4c0-1.1-.3-1.9-.9-2.5-.5-.6-1.3-.9-2.4-.9h0Z"/>
    <path d="M454.9,832.6c-.6,0-1.2-.1-1.7-.1-1.8,0-3,.6-3.6,1.8v11.8h-4.8v-18h4.5v2.1c1.1-1.7,2.4-2.5,4.1-2.5s1,0,1.5.2v4.6h0v.1Z"/>
    <path d="M1173,843c-.9,1.1-2.2,1.9-3.8,2.5s-3.4.9-5.4.9-3.9-.5-5.5-1.4-2.8-2.2-3.7-4-1.3-3.8-1.3-6.1v-1.6c0-2.4.4-4.5,1.2-6.3s2-3.1,3.5-4,3.3-1.4,5.4-1.4,5.1.7,6.7,2,2.6,3.4,2.9,6h-4.8c-.2-1.4-.7-2.4-1.5-3s-1.8-1-3.1-1-3,.6-3.9,1.9c-.9,1.3-1.3,3.2-1.3,5.7v1.5c0,2.5.5,4.5,1.4,5.7s2.4,1.9,4.2,1.9,3.2-.4,4-1.2v-4.2h-4.5v-3.7h9.5v9.7h0v.1Z"/>
    <path d="M1176,836.9c0-1.8.3-3.4,1-4.8s1.7-2.5,3-3.2c1.3-.8,2.8-1.2,4.5-1.2,2.4,0,4.4.7,5.9,2.2s2.4,3.5,2.6,6v1.2c0,2.8-.7,5-2.3,6.6s-3.6,2.5-6.2,2.5-4.7-.8-6.2-2.5-2.3-3.9-2.3-6.8v-.2h0v.2ZM1180.8,837.2c0,1.7.3,3,1,3.9s1.6,1.3,2.8,1.3,2.1-.5,2.7-1.3,1-2.3,1-4.3-.3-3-1-3.9-1.6-1.4-2.8-1.4-2.1.5-2.7,1.4-1,2.3-1,4.2h0v.1Z"/>
    <path d="M1206.4,846c-.2-.4-.4-1-.5-1.6-1.2,1.3-2.7,1.9-4.5,1.9s-3.2-.5-4.4-1.5c-1.2-1-1.7-2.3-1.7-3.8s.7-3.4,2.1-4.4,3.4-1.5,6.1-1.5h2.2v-1c0-.8-.2-1.5-.6-2s-1.1-.8-2-.8-1.4.2-1.9.6c-.5.4-.7.9-.7,1.6h-4.8c0-1,.3-2,1-2.9.6-.9,1.6-1.6,2.7-2.1s2.5-.8,3.9-.8c2.2,0,4,.6,5.3,1.7s1.9,2.7,1.9,4.7v7.8c0,1.7.2,3,.7,3.9v.3h-4.8v-.1ZM1202.4,842.7c.7,0,1.4-.2,2-.5s1-.7,1.3-1.3v-3.1h-1.8c-2.4,0-3.7.8-3.8,2.5v.3c0,.6.2,1.1.6,1.5s1,.6,1.7.6h0Z"/>
    <path d="M1219.3,846h-4.8v-25.5h4.8v25.5Z"/>
    <path d="M1230.9,836.9c0-1.8.3-3.4,1-4.8s1.7-2.5,3-3.2c1.3-.8,2.8-1.2,4.5-1.2,2.4,0,4.4.7,5.9,2.2s2.4,3.5,2.6,6v1.2c0,2.8-.7,5-2.3,6.6s-3.6,2.5-6.2,2.5-4.7-.8-6.2-2.5-2.3-3.9-2.3-6.8v-.2h0v.2ZM1235.7,837.2c0,1.7.3,3,1,3.9s1.6,1.3,2.8,1.3,2.1-.5,2.7-1.3,1-2.3,1-4.3-.3-3-1-3.9-1.6-1.4-2.8-1.4-2.1.5-2.7,1.4-1,2.3-1,4.2h0v.1Z"/>
    <path d="M1261,832.6c-.7,0-1.2-.1-1.7-.1-1.8,0-3,.6-3.6,1.8v11.8h-4.8v-18h4.5v2.1c1.1-1.7,2.4-2.5,4.1-2.5s1,0,1.5.2v4.6h0v.1Z"/>
    <path d="M1271,836.9c0-2.8.6-5,1.9-6.7s3-2.5,5.2-2.5,3.2.7,4.3,2v-9.2h4.8v25.5h-4.3l-.2-1.9c-1.2,1.5-2.7,2.2-4.6,2.2s-3.8-.8-5.1-2.5-1.9-4-1.9-7h0l-.1.1ZM1275.8,837.3c0,1.7.3,3,.9,3.9s1.4,1.3,2.6,1.3,2.5-.6,3.1-1.9v-7.1c-.6-1.2-1.6-1.9-3.1-1.9-2.3,0-3.5,1.9-3.5,5.6h0v.1Z"/>
    <path d="M1299.2,846.4c-2.6,0-4.8-.8-6.4-2.4-1.7-1.6-2.5-3.8-2.5-6.5v-.5c0-1.8.3-3.4,1.1-4.8s1.7-2.5,3-3.3,2.7-1.2,4.4-1.2c2.5,0,4.4.8,5.8,2.3s2.1,3.8,2.1,6.6v2h-11.4c.2,1.2.6,2.1,1.4,2.8s1.8,1.1,3,1.1c1.8,0,3.3-.7,4.3-2l2.4,2.6c-.7,1-1.7,1.8-2.9,2.4s-2.6.8-4.1.8h0l-.2.1ZM1298.6,831.6c-.9,0-1.7.3-2.3,1-.6.6-1,1.6-1.1,2.8h6.7v-.4c0-1.1-.3-1.9-.9-2.5s-1.3-.9-2.4-.9h0Z"/>
    <path d="M1319,841.1c0-.6-.3-1-.9-1.4s-1.5-.6-2.8-.9c-4.3-.9-6.4-2.7-6.4-5.5s.7-2.9,2-4,3.1-1.6,5.2-1.6,4.1.5,5.5,1.6,2.1,2.5,2.1,4.2h-4.8c0-.7-.2-1.2-.7-1.7s-1.1-.7-2.1-.7-1.4.2-1.9.5-.7.8-.7,1.4.2,1,.8,1.3c.5.3,1.3.6,2.6.8s2.2.5,3,.8c2.5.9,3.8,2.5,3.8,4.8s-.7,3-2.1,4-3.2,1.5-5.4,1.5-2.8-.3-4-.8-2.1-1.3-2.8-2.2-1-2-1-3h4.6c0,.8.4,1.5.9,2s1.4.7,2.4.7,1.6-.2,2.1-.5.7-.8.7-1.4h0l-.1.1Z"/>
    <path d="M1332.5,823.7v4.4h3.1v3.5h-3.1v9c0,.7.1,1.1.4,1.4s.7.4,1.5.4,1,0,1.4-.1v3.6c-.9.3-1.9.4-2.9.4-3.4,0-5.1-1.7-5.2-5.1v-9.7h-2.6v-3.5h2.6v-4.4h4.8v.1Z"/>
    <path d="M1338.2,823.4c0-.7.2-1.3.7-1.8s1.1-.7,2-.7,1.5.2,2,.7.7,1.1.7,1.8-.2,1.3-.7,1.8-1.1.7-1.9.7-1.5-.2-1.9-.7c-.5-.5-.7-1.1-.7-1.8h-.2ZM1343.3,846h-4.8v-18h4.8v18Z"/>
    <path d="M1351.7,828.1l.2,2.1c1.3-1.6,3-2.4,5.2-2.4s3.3.6,4.2,1.7,1.4,2.8,1.4,5v11.6h-4.8v-11.5c0-1-.2-1.8-.7-2.2s-1.2-.7-2.2-.7-2.4.6-3,1.7v12.7h-4.8v-18h4.5Z"/>
    <path d="M1376.7,846c-.2-.4-.4-1-.5-1.6-1.2,1.3-2.7,1.9-4.5,1.9s-3.2-.5-4.4-1.5c-1.2-1-1.7-2.3-1.7-3.8s.7-3.4,2.1-4.4,3.4-1.5,6.1-1.5h2.2v-1c0-.8-.2-1.5-.6-2s-1.1-.8-2-.8-1.4.2-1.9.6c-.5.4-.7.9-.7,1.6h-4.8c0-1,.3-2,1-2.9.6-.9,1.6-1.6,2.7-2.1s2.5-.8,3.9-.8c2.2,0,4,.6,5.3,1.7s1.9,2.7,1.9,4.7v7.8c0,1.7.2,3,.7,3.9v.3h-4.8v-.1ZM1372.8,842.7c.7,0,1.4-.2,2-.5s1-.7,1.3-1.3v-3.1h-1.8c-2.4,0-3.7.8-3.8,2.5v.3c0,.6.2,1.1.6,1.5s1,.6,1.7.6h0Z"/>
    <path d="M1390.3,823.7v4.4h3.1v3.5h-3.1v9c0,.7.1,1.1.4,1.4s.7.4,1.5.4,1,0,1.4-.1v3.6c-.9.3-1.9.4-2.9.4-3.4,0-5.1-1.7-5.2-5.1v-9.7h-2.6v-3.5h2.6v-4.4h4.8v.1Z"/>
    <path d="M1396,823.4c0-.7.2-1.3.7-1.8s1.1-.7,2-.7,1.5.2,2,.7.7,1.1.7,1.8-.2,1.3-.7,1.8-1.1.7-1.9.7-1.5-.2-1.9-.7c-.5-.5-.7-1.1-.7-1.8h-.2ZM1401.1,846h-4.8v-18h4.8v18Z"/>
    <path d="M1404.3,836.9c0-1.8.3-3.4,1-4.8s1.7-2.5,3-3.2c1.3-.8,2.8-1.2,4.5-1.2,2.4,0,4.4.7,5.9,2.2s2.4,3.5,2.6,6v1.2c0,2.8-.7,5-2.3,6.6s-3.6,2.5-6.2,2.5-4.7-.8-6.2-2.5-2.3-3.9-2.3-6.8v-.2h0v.2ZM1409.1,837.2c0,1.7.3,3,1,3.9s1.6,1.3,2.8,1.3,2.1-.5,2.7-1.3,1-2.3,1-4.3-.3-3-1-3.9-1.6-1.4-2.8-1.4-2.1.5-2.7,1.4-1,2.3-1,4.2h0v.1Z"/>
    <path d="M1428.7,828.1l.2,2.1c1.3-1.6,3-2.4,5.2-2.4s3.3.6,4.2,1.7,1.4,2.8,1.4,5v11.6h-4.8v-11.5c0-1-.2-1.8-.7-2.2s-1.2-.7-2.2-.7-2.4.6-3,1.7v12.7h-4.8v-18h4.5Z"/>
    <path d="M1237,355.1h12.4v4.7h-18.3v-28.4h5.9v23.7h0Z"/>
    <path d="M1262.2,360.2c-3.1,0-5.6-1-7.6-2.9s-2.9-4.4-2.9-7.6v-.5c0-2.1.4-4,1.2-5.7s2-3,3.5-3.9,3.2-1.4,5.2-1.4c2.9,0,5.2.9,6.8,2.7,1.7,1.8,2.5,4.4,2.5,7.8v2.3h-13.5c.2,1.4.7,2.5,1.7,3.3.9.8,2.1,1.2,3.5,1.2,2.2,0,3.9-.8,5.1-2.4l2.8,3.1c-.8,1.2-2,2.1-3.4,2.8s-3.1,1-4.8,1h0l-.1.2ZM1261.6,342.9c-1.1,0-2,.4-2.7,1.1-.7.8-1.1,1.8-1.3,3.3h7.8v-.5c0-1.3-.4-2.2-1-2.9-.7-.7-1.6-1-2.8-1h0Z"/>
    <path d="M1286.3,359.8c-.3-.5-.4-1.1-.6-1.9-1.4,1.5-3.1,2.3-5.3,2.3s-3.8-.6-5.2-1.8c-1.4-1.2-2-2.7-2-4.5s.8-4,2.5-5.2,4.1-1.8,7.2-1.8h2.6v-1.2c0-1-.2-1.8-.8-2.3-.5-.6-1.3-.9-2.4-.9s-1.7.2-2.2.7-.8,1.1-.8,1.9h-5.6c0-1.2.4-2.4,1.1-3.4s1.8-1.9,3.2-2.5c1.4-.6,2.9-.9,4.7-.9,2.6,0,4.7.6,6.2,2,1.5,1.3,2.3,3.1,2.3,5.5v9.2c0,2,.3,3.5.8,4.5v.3h-5.7,0ZM1281.7,355.9c.8,0,1.6-.2,2.3-.6s1.2-.9,1.6-1.5v-3.6h-2.1c-2.8,0-4.3,1-4.5,2.9v.3c0,.7.2,1.3.7,1.7s1.2.7,2,.7h0v.1Z"/>
    <path d="M1307.4,344c-.8-.1-1.4-.2-2-.2-2.1,0-3.5.7-4.2,2.2v13.8h-5.6v-21.1h5.3l.2,2.5c1.1-1.9,2.7-2.9,4.7-2.9s1.2,0,1.8.2v5.4h0l-.2.1Z"/>
    <path d="M1315.3,338.7l.2,2.4c1.5-1.9,3.5-2.8,6.1-2.8s3.9.7,5,2,1.7,3.3,1.7,5.9v13.6h-5.6v-13.5c0-1.2-.3-2.1-.8-2.6s-1.4-.8-2.6-.8-2.8.7-3.6,2v14.9h-5.6v-21.1h5.3-.1Z"/>
    <path d="M1342.3,360.2c-3.1,0-5.6-1-7.6-2.9s-2.9-4.4-2.9-7.6v-.5c0-2.1.4-4,1.2-5.7s2-3,3.5-3.9,3.2-1.4,5.2-1.4c2.9,0,5.2.9,6.8,2.7,1.7,1.8,2.5,4.4,2.5,7.8v2.3h-13.5c.2,1.4.7,2.5,1.7,3.3.9.8,2.1,1.2,3.5,1.2,2.2,0,3.9-.8,5.1-2.4l2.8,3.1c-.8,1.2-2,2.1-3.4,2.8s-3.1,1-4.8,1h0l-.1.2ZM1341.6,342.9c-1.1,0-2,.4-2.7,1.1-.7.8-1.1,1.8-1.3,3.3h7.8v-.5c0-1.3-.4-2.2-1-2.9-.7-.7-1.6-1-2.8-1h0Z"/>
    <path d="M1366,344c-.8-.1-1.4-.2-2-.2-2.1,0-3.5.7-4.2,2.2v13.8h-5.6v-21.1h5.3l.2,2.5c1.1-1.9,2.7-2.9,4.7-2.9s1.2,0,1.8.2v5.4h0l-.2.1Z"/>
    <path d="M1248.9,398h-10.3l-1.9,5.9h-6.2l10.6-28.4h5.4l10.6,28.4h-6.2l-2-5.9h0ZM1240.2,393.2h7.1l-3.6-10.6-3.5,10.6Z"/>
    <path d="M1258.5,393.1c0-3.2.8-5.9,2.3-7.8,1.5-2,3.6-3,6.2-3s4.1.8,5.4,2.4l.2-2h5.1v20.4c0,1.9-.4,3.5-1.3,4.8s-2,2.4-3.5,3.1-3.3,1.1-5.3,1.1-3.1-.3-4.5-.9-2.6-1.4-3.3-2.4l2.5-3.4c1.4,1.6,3.1,2.4,5.1,2.4s2.7-.4,3.5-1.2c.8-.8,1.2-1.9,1.2-3.4v-1.1c-1.3,1.5-3,2.2-5.1,2.2s-4.6-1-6.2-3-2.3-4.6-2.3-7.9v-.2h0v-.1ZM1264.2,393.5c0,1.9.4,3.4,1.2,4.5s1.8,1.6,3.2,1.6,2.9-.6,3.7-1.9v-8.9c-.8-1.3-2-1.9-3.7-1.9s-2.4.5-3.2,1.7c-.8,1.1-1.2,2.8-1.2,5h0v-.1Z"/>
    <path d="M1291.9,404.2c-3.1,0-5.6-1-7.6-2.9s-2.9-4.4-2.9-7.6v-.5c0-2.1.4-4,1.2-5.7s2-3,3.5-3.9,3.2-1.4,5.2-1.4c2.9,0,5.2.9,6.8,2.7,1.7,1.8,2.5,4.4,2.5,7.8v2.3h-13.5c.2,1.4.7,2.5,1.7,3.3.9.8,2.1,1.2,3.5,1.2,2.2,0,3.9-.8,5.1-2.4l2.8,3.1c-.8,1.2-2,2.1-3.4,2.8s-3.1,1-4.8,1h0l-.1.2ZM1291.3,386.9c-1.1,0-2,.4-2.7,1.1-.7.8-1.1,1.8-1.3,3.3h7.8v-.5c0-1.3-.4-2.2-1-2.9-.7-.7-1.6-1-2.8-1h0Z"/>
    <path d="M1309,382.7l.2,2.4c1.5-1.9,3.5-2.8,6.1-2.8s3.9.7,5,2,1.7,3.3,1.7,5.9v13.6h-5.6v-13.5c0-1.2-.3-2.1-.8-2.6s-1.4-.8-2.6-.8-2.8.7-3.6,2v14.9h-5.6v-21.1h5.3-.1Z"/>
    <path d="M1335,399.7c1,0,1.9-.3,2.5-.9.7-.6,1-1.3,1-2.3h5.3c0,1.4-.4,2.7-1.2,3.9-.8,1.2-1.8,2.1-3.2,2.8-1.3.7-2.8,1-4.4,1-3,0-5.4-1-7.2-2.9s-2.6-4.6-2.6-8v-.4c0-3.2.9-5.9,2.6-7.8s4.1-2.9,7.1-2.9,4.8.8,6.4,2.3,2.4,3.5,2.4,6h-5.3c0-1.1-.4-2-1-2.7s-1.5-1-2.6-1-2.3.5-3,1.4c-.7,1-1,2.5-1,4.7v.6c0,2.2.3,3.7,1,4.7s1.7,1.4,3,1.4h0l.2.1Z"/>
    <path d="M1354.9,395.9l3.9-13.1h6.1l-8.5,24.4-.5,1.1c-1.3,2.8-3.3,4.1-6.2,4.1s-1.7-.1-2.5-.4v-4.3h.9c1.1,0,1.9-.1,2.4-.5.5-.3.9-.9,1.2-1.6l.7-1.7-7.4-21.2h6.1l3.9,13.1h0l-.1.1Z"/>
    <path class="cls-8" d="M123.3,374.5h-4v8.9h-5v-24.2h9c2.9,0,5.1.6,6.6,1.9s2.3,3.1,2.3,5.4-.4,3-1.1,4.1c-.7,1.1-1.8,2-3.2,2.6l5.2,9.9v.2h-5.4l-4.5-8.9h0l.1.1ZM119.3,370.5h4c1.2,0,2.2-.3,2.9-1,.7-.6,1-1.5,1-2.6s-.3-2-1-2.7-1.6-1-3-1h-4v7.2h0l.1.1Z"/>
    <path class="cls-8" d="M144,383.7c-2.6,0-4.8-.8-6.4-2.4-1.6-1.6-2.5-3.8-2.5-6.5v-.5c0-1.8.4-3.4,1.1-4.8.7-1.4,1.7-2.5,3-3.3s2.7-1.1,4.4-1.1c2.5,0,4.4.8,5.8,2.3,1.4,1.5,2.1,3.8,2.1,6.6v2h-11.4c.1,1.2.6,2.1,1.4,2.8.8.7,1.8,1.1,3,1.1,1.9,0,3.3-.7,4.3-2l2.4,2.6c-.7,1-1.7,1.8-2.9,2.4s-2.6.9-4.1.9h0l-.2-.1ZM143.5,369c-.9,0-1.7.3-2.3,1-.6.6-1,1.6-1.1,2.8h6.7v-.4c0-1.1-.3-1.9-.9-2.5-.6-.6-1.3-.9-2.4-.9h0Z"/>
    <path class="cls-8" d="M161.6,379.9c.9,0,1.6-.2,2.2-.7.6-.5.8-1.1.9-1.9h4.5c0,1.2-.3,2.3-1,3.4-.6,1-1.6,1.8-2.7,2.4-1.1.6-2.4.8-3.8.8-2.6,0-4.6-.8-6.1-2.5-1.5-1.6-2.2-3.9-2.2-6.8v-.3c0-2.8.7-5,2.2-6.6s3.5-2.5,6.1-2.5,4.1.6,5.4,1.9c1.4,1.3,2,3,2.1,5.1h-4.5c0-.9-.3-1.7-.9-2.3-.6-.6-1.3-.9-2.2-.9s-2,.4-2.5,1.2c-.6.8-.9,2.1-.9,4v.5c0,1.9.3,3.2.9,4,.6.8,1.4,1.2,2.6,1.2h-.1Z"/>
    <path class="cls-8" d="M171.1,374.2c0-1.8.3-3.4,1-4.8s1.7-2.5,3-3.2c1.3-.8,2.8-1.1,4.5-1.1,2.4,0,4.4.7,5.9,2.2s2.4,3.5,2.6,6v1.2c0,2.8-.7,5-2.3,6.6-1.5,1.7-3.6,2.5-6.2,2.5s-4.7-.8-6.2-2.5-2.3-3.9-2.3-6.8v-.2h0v.1ZM175.9,374.6c0,1.7.3,3,1,3.9.6.9,1.6,1.4,2.8,1.4s2.1-.5,2.7-1.3c.6-.9,1-2.3,1-4.3s-.3-3-1-3.9-1.6-1.4-2.8-1.4-2.1.5-2.7,1.4-1,2.3-1,4.2h0Z"/>
    <path class="cls-8" d="M190.4,374.3c0-2.8.7-5,2-6.7s3.1-2.5,5.3-2.5,3.5.7,4.6,2l.2-1.7h4.4v17.4c0,1.6-.4,2.9-1.1,4.1s-1.7,2-3,2.7c-1.3.6-2.8.9-4.6.9s-2.6-.3-3.9-.8-2.2-1.2-2.8-2l2.1-2.9c1.2,1.3,2.6,2,4.4,2s2.3-.3,3-1,1.1-1.6,1.1-2.9v-1c-1.1,1.2-2.6,1.9-4.4,1.9s-3.9-.8-5.2-2.5-2-3.9-2-6.7v-.2h0l-.1-.1ZM195.2,374.6c0,1.6.3,2.9,1,3.8.6.9,1.6,1.4,2.7,1.4s2.5-.5,3.1-1.6v-7.6c-.6-1.1-1.7-1.6-3.1-1.6s-2.1.5-2.7,1.4c-.7.9-1,2.4-1,4.2h0Z"/>
    <path class="cls-8" d="M214.9,365.4v2.1c1.4-1.6,3.1-2.4,5.3-2.4s3.3.6,4.2,1.7,1.4,2.8,1.4,5v11.6h-4.8v-11.5c0-1-.2-1.8-.7-2.2s-1.2-.7-2.2-.7-2.4.6-3,1.7v12.7h-4.8v-18h4.6Z"/>
    <path class="cls-8" d="M229.5,360.8c0-.7.2-1.3.7-1.8s1.1-.7,2-.7,1.5.2,2,.7.7,1.1.7,1.8-.2,1.3-.7,1.8-1.1.7-2,.7-1.5-.2-2-.7-.7-1.1-.7-1.8ZM234.6,383.4h-4.8v-18h4.8v18Z"/>
    <path class="cls-8" d="M244.3,361v4.4h3.1v3.5h-3.1v9c0,.7.1,1.1.4,1.4.2.3.7.4,1.5.4s1,0,1.4-.1v3.6c-.9.3-1.9.4-2.9.4-3.4,0-5.1-1.7-5.1-5.1v-9.7h-2.6v-3.5h2.6v-4.4h4.8l-.1.1Z"/>
    <path class="cls-8" d="M250,360.8c0-.7.2-1.3.7-1.8s1.1-.7,2-.7,1.5.2,2,.7.7,1.1.7,1.8-.2,1.3-.7,1.8-1.1.7-2,.7-1.5-.2-2-.7-.7-1.1-.7-1.8ZM255.1,383.4h-4.8v-18h4.8v18Z"/>
    <path class="cls-8" d="M258.3,374.2c0-1.8.3-3.4,1-4.8s1.7-2.5,3-3.2c1.3-.8,2.8-1.1,4.5-1.1,2.4,0,4.4.7,5.9,2.2s2.4,3.5,2.6,6v1.2c0,2.8-.7,5-2.3,6.6-1.5,1.7-3.6,2.5-6.2,2.5s-4.7-.8-6.2-2.5-2.3-3.9-2.3-6.8v-.2h0v.1ZM263.1,374.6c0,1.7.3,3,1,3.9.6.9,1.6,1.4,2.8,1.4s2.1-.5,2.7-1.3c.6-.9,1-2.3,1-4.3s-.3-3-1-3.9c-.6-.9-1.6-1.4-2.8-1.4s-2.1.5-2.7,1.4-1,2.3-1,4.2h0Z"/>
    <path class="cls-8" d="M282.7,365.4v2.1c1.4-1.6,3.1-2.4,5.3-2.4s3.3.6,4.2,1.7,1.4,2.8,1.4,5v11.6h-4.8v-11.5c0-1-.2-1.8-.7-2.2s-1.2-.7-2.2-.7-2.4.6-3,1.7v12.7h-4.8v-18h4.6Z"/>
    <path class="cls-8" d="M310.2,365.4v2.1c1.4-1.6,3.1-2.4,5.3-2.4s3.3.6,4.2,1.7,1.4,2.8,1.4,5v11.6h-4.8v-11.5c0-1-.2-1.8-.7-2.2s-1.2-.7-2.2-.7-2.4.6-3,1.7v12.7h-4.8v-18h4.6Z"/>
    <path class="cls-8" d="M333.1,383.7c-2.6,0-4.8-.8-6.4-2.4s-2.5-3.8-2.5-6.5v-.5c0-1.8.4-3.4,1-4.8.7-1.4,1.7-2.5,3-3.3s2.7-1.1,4.4-1.1c2.5,0,4.4.8,5.8,2.3s2.1,3.8,2.1,6.6v2h-11.4c.1,1.2.6,2.1,1.4,2.8.8.7,1.8,1.1,3,1.1,1.9,0,3.3-.7,4.3-2l2.4,2.6c-.7,1-1.7,1.8-2.9,2.4s-2.6.9-4.1.9h0l-.1-.1ZM332.5,369c-1,0-1.7.3-2.3,1-.6.6-1,1.6-1.1,2.8h6.7v-.4c0-1.1-.3-1.9-.9-2.5-.5-.6-1.3-.9-2.4-.9h0Z"/>
    <path class="cls-8" d="M348.9,361v4.4h3.1v3.5h-3.1v9c0,.7.1,1.1.4,1.4.2.3.7.4,1.5.4s1,0,1.4-.1v3.6c-.9.3-1.9.4-2.9.4-3.4,0-5.1-1.7-5.1-5.1v-9.7h-2.6v-3.5h2.6v-4.4h4.8l-.1.1Z"/>
    <path class="cls-8" d="M370.3,376.9l2.4-11.4h4.6l-4.6,18h-4l-3.4-11.3-3.4,11.3h-4l-4.6-18h4.6l2.3,11.4,3.3-11.4h3.5l3.3,11.4h0Z"/>
    <path class="cls-8" d="M378.9,374.2c0-1.8.3-3.4,1-4.8s1.7-2.5,3-3.2c1.3-.8,2.8-1.1,4.5-1.1,2.4,0,4.4.7,5.9,2.2s2.4,3.5,2.6,6v1.2c0,2.8-.7,5-2.3,6.6-1.5,1.7-3.6,2.5-6.2,2.5s-4.7-.8-6.2-2.5-2.3-3.9-2.3-6.8v-.2h0v.1ZM383.7,374.6c0,1.7.3,3,1,3.9.6.9,1.6,1.4,2.8,1.4s2.1-.5,2.7-1.3c.6-.9,1-2.3,1-4.3s-.3-3-1-3.9c-.6-.9-1.6-1.4-2.8-1.4s-2.1.5-2.7,1.4-1,2.3-1,4.2h0Z"/>
    <path class="cls-8" d="M409,369.9c-.6,0-1.2-.1-1.7-.1-1.8,0-3,.6-3.6,1.8v11.8h-4.8v-18h4.5v2.1c1.1-1.6,2.4-2.5,4.1-2.5s1,0,1.5.2v4.6h0v.1Z"/>
    <path class="cls-8" d="M417.8,376.2l-1.7,1.7v5.5h-4.8v-25.5h4.8v14.1l.9-1.2,4.6-5.4h5.8l-6.5,7.5,7.1,10.5h-5.5l-4.6-7.2h-.1Z"/>
    <path class="cls-8" d="M439.2,378.4c0-.6-.3-1-.9-1.4-.6-.3-1.5-.6-2.8-.9-4.3-.9-6.4-2.7-6.4-5.5s.7-2.9,2-4,3-1.6,5.2-1.6,4.1.5,5.5,1.6,2,2.5,2,4.2h-4.8c0-.7-.2-1.2-.7-1.7s-1.1-.7-2.1-.7-1.4.2-1.9.5c-.4.4-.7.8-.7,1.4s.2,1,.8,1.3c.5.3,1.4.6,2.5.9,1.2.2,2.2.5,3,.8,2.5.9,3.8,2.5,3.8,4.8s-.7,3-2.1,4-3.2,1.5-5.5,1.5-2.8-.3-4-.8-2.1-1.3-2.8-2.2c-.7-.9-1-1.9-1-3h4.5c0,.9.4,1.5,1,2s1.4.7,2.4.7,1.6-.2,2.1-.5c.5-.4.7-.8.7-1.4h.2Z"/>
    <path class="cls-8" d="M231.9,414.4c0-2.5.3-5,1-7.2.7-2.3,1.7-4.3,3-6.1,1.3-1.8,2.7-3,4.3-3.7l.9,2.6c-1.6,1.2-2.9,3-3.8,5.5s-1.4,5.4-1.4,8.8v.5c0,3.4.5,6.3,1.3,8.8s2.2,4.4,3.8,5.6l-.9,2.5c-1.5-.7-2.9-1.9-4.2-3.6s-2.3-3.7-3-5.9c-.7-2.2-1-4.6-1.1-7v-.9h0l.1.1Z"/>
    <path class="cls-8" d="M259.2,417.7l2.4-11.4h4.6l-4.6,18h-4l-3.4-11.3-3.4,11.3h-4l-4.6-18h4.6l2.3,11.4,3.3-11.4h3.5l3.3,11.4h0Z"/>
    <path class="cls-8" d="M273.3,408.2c1.3-1.5,2.9-2.3,4.8-2.3,3.9,0,5.9,2.3,5.9,6.8v11.5h-4.8v-11.4c0-1-.2-1.8-.7-2.3s-1.2-.7-2.2-.7-2.4.5-3,1.6v12.8h-4.8v-25.5h4.8v9.5h0Z"/>
    <path class="cls-8" d="M298,424.2c-.2-.4-.4-1-.5-1.6-1.2,1.3-2.7,1.9-4.5,1.9s-3.2-.5-4.4-1.5c-1.2-1-1.7-2.3-1.7-3.9s.7-3.4,2.1-4.4,3.5-1.5,6.1-1.5h2.2v-1c0-.8-.2-1.5-.6-2s-1.1-.8-2-.8-1.4.2-1.9.6-.7.9-.7,1.6h-4.8c0-1,.3-2,1-2.9.6-.9,1.5-1.6,2.7-2.1s2.5-.8,4-.8c2.2,0,4,.6,5.3,1.7s2,2.7,2,4.7v7.8c0,1.7.2,3,.7,3.9v.3h-5ZM294.1,420.9c.7,0,1.4-.2,2-.5s1-.7,1.3-1.3v-3.1h-1.8c-2.4,0-3.7.8-3.8,2.5v.3c0,.6.2,1.1.6,1.5s1,.6,1.7.6h0Z"/>
    <path class="cls-8" d="M311.6,401.8v4.4h3.1v3.5h-3.1v9c0,.7.1,1.1.4,1.4.2.3.7.4,1.5.4s1,0,1.4-.1v3.6c-.9.3-1.9.4-2.9.4-3.4,0-5.1-1.7-5.1-5.1v-9.7h-2.6v-3.5h2.6v-4.4h4.8l-.1.1Z"/>
    <path class="cls-8" d="M325.6,414.7c0,2.5-.4,4.9-1.1,7.2s-1.8,4.4-3.1,6.1c-1.4,1.8-2.8,3-4.3,3.6l-.9-2.5c1.6-1.2,2.8-3,3.7-5.5s1.4-5.3,1.4-8.5v-.9c0-3.3-.5-6.2-1.4-8.8s-2.2-4.4-3.8-5.7l.9-2.5c1.5.6,2.9,1.8,4.3,3.5,1.3,1.7,2.4,3.7,3.1,6s1.1,4.6,1.1,7.1v.8h0l.1.1Z"/>
    <path class="cls-8" d="M149.3,553.5c0-.9-.3-1.7-1-2.2s-1.9-1-3.6-1.6-3.1-1.1-4.1-1.7c-2.8-1.5-4.1-3.5-4.1-6s.4-2.5,1.1-3.5c.7-1,1.8-1.8,3.2-2.4s2.9-.9,4.6-.9,3.3.3,4.6.9c1.4.6,2.4,1.5,3.1,2.7s1.1,2.4,1.1,3.9h-5c0-1.1-.4-2-1.1-2.6s-1.7-.9-2.9-.9-2.2.3-2.8.8-1,1.2-1,2,.4,1.4,1.2,2c.8.5,2,1,3.5,1.5,2.8.8,4.9,1.9,6.2,3.2s1.9,2.8,1.9,4.7-.8,3.7-2.4,4.9-3.7,1.8-6.4,1.8-3.6-.3-5.1-1-2.7-1.6-3.5-2.8-1.2-2.6-1.2-4.1h5c0,2.7,1.6,4,4.8,4s2.1-.2,2.8-.7,1-1.2,1-2h.1Z"/>
    <path class="cls-8" d="M163.1,537.5v4.4h3.1v3.5h-3.1v9c0,.7.1,1.1.4,1.4s.7.4,1.5.4,1,0,1.4-.1v3.6c-.9.3-1.9.4-2.9.4-3.4,0-5.1-1.7-5.1-5.1v-9.7h-2.6v-3.5h2.6v-4.4h4.8l-.1.1Z"/>
    <path class="cls-8" d="M178.9,546.4c-.6,0-1.2-.1-1.7-.1-1.8,0-3,.6-3.6,1.8v11.8h-4.8v-18h4.5v2.1c1.1-1.7,2.4-2.5,4.1-2.5s1,0,1.5.2v4.6h0v.1Z"/>
    <path class="cls-8" d="M191.1,559.9c-.2-.4-.4-1-.5-1.6-1.2,1.3-2.7,1.9-4.5,1.9s-3.2-.5-4.4-1.5-1.7-2.3-1.7-3.8.7-3.4,2.1-4.4,3.4-1.5,6.1-1.5h2.2v-1c0-.8-.2-1.5-.6-2s-1.1-.8-2-.8-1.4.2-1.9.6c-.5.4-.7.9-.7,1.6h-4.8c0-1,.3-2,1-2.9s1.6-1.6,2.7-2.1,2.5-.8,3.9-.8c2.2,0,4,.6,5.3,1.7s1.9,2.7,1.9,4.7v7.8c0,1.7.2,3,.7,3.9v.3h-4.9l.1-.1ZM187.1,556.5c.7,0,1.4-.2,2-.5s1-.7,1.3-1.3v-3.1h-1.8c-2.4,0-3.7.8-3.8,2.5v.3c0,.6.2,1.1.6,1.5.4.4,1,.6,1.7.6h0Z"/>
    <path class="cls-8" d="M204.7,537.5v4.4h3.1v3.5h-3.1v9c0,.7.1,1.1.4,1.4s.7.4,1.5.4,1,0,1.4-.1v3.6c-.9.3-1.9.4-2.9.4-3.4,0-5.1-1.7-5.1-5.1v-9.7h-2.6v-3.5h2.6v-4.4h4.8l-.1.1Z"/>
    <path class="cls-8" d="M218.7,560.2c-2.6,0-4.8-.8-6.4-2.4-1.6-1.6-2.5-3.8-2.5-6.5v-.5c0-1.8.4-3.4,1.1-4.8.7-1.4,1.7-2.5,3-3.3s2.7-1.2,4.4-1.2c2.5,0,4.4.8,5.8,2.3s2.1,3.8,2.1,6.6v2h-11.4c.1,1.2.6,2.1,1.4,2.8s1.8,1.1,3,1.1c1.9,0,3.3-.7,4.3-2l2.4,2.6c-.7,1-1.7,1.8-2.9,2.4s-2.6.9-4.1.9h-.2ZM218.1,545.5c-.9,0-1.7.3-2.3,1s-1,1.6-1.1,2.8h6.7v-.4c0-1.1-.3-1.9-.9-2.5-.6-.6-1.3-.9-2.4-.9h0Z"/>
    <path class="cls-8" d="M228.1,550.8c0-2.8.7-5,2-6.7s3.1-2.5,5.3-2.5,3.5.7,4.6,2l.2-1.7h4.4v17.4c0,1.6-.4,2.9-1.1,4.1s-1.7,2-3,2.7-2.8.9-4.5.9-2.6-.3-3.9-.8c-1.2-.5-2.2-1.2-2.8-2l2.1-2.9c1.2,1.3,2.6,2,4.4,2s2.3-.3,3-1,1.1-1.7,1.1-2.9v-1c-1.1,1.2-2.6,1.9-4.4,1.9s-3.9-.8-5.2-2.5-2-3.9-2-6.7v-.2h0l-.2-.1ZM232.9,551.1c0,1.6.3,2.9,1,3.8.6.9,1.5,1.4,2.7,1.4s2.5-.5,3.1-1.7v-7.6c-.6-1.1-1.7-1.7-3.1-1.7s-2.1.5-2.7,1.4c-.7.9-1,2.3-1,4.2h0v.2Z"/>
    <path class="cls-8" d="M248.2,537.3c0-.7.2-1.3.7-1.8s1.1-.7,2-.7,1.5.2,2,.7.7,1.1.7,1.8-.2,1.3-.7,1.8-1.1.7-2,.7-1.5-.2-2-.7-.7-1.1-.7-1.8ZM253.3,559.9h-4.8v-18h4.8v18Z"/>
    <path class="cls-8" d="M264.7,556.3c.9,0,1.6-.2,2.2-.7.5-.5.8-1.1.9-1.9h4.5c0,1.2-.3,2.3-1,3.3-.6,1-1.5,1.8-2.7,2.4s-2.4.8-3.8.8c-2.6,0-4.6-.8-6.1-2.5-1.5-1.6-2.2-3.9-2.2-6.8v-.3c0-2.8.7-5,2.2-6.6s3.5-2.5,6.1-2.5,4,.6,5.4,1.9c1.4,1.3,2,3,2.1,5.1h-4.5c0-.9-.3-1.7-.9-2.3-.5-.6-1.3-.9-2.2-.9s-2,.4-2.5,1.2-.9,2.1-.9,4v.5c0,1.8.3,3.2.9,4s1.4,1.2,2.6,1.2h0l-.1.1Z"/>
    <path class="cls-8" d="M287.8,541.9v2.1c1.4-1.6,3.1-2.4,5.3-2.4s3.3.6,4.2,1.7,1.4,2.8,1.4,5v11.6h-4.8v-11.5c0-1-.2-1.8-.7-2.2-.4-.5-1.2-.7-2.2-.7s-2.4.6-3,1.7v12.7h-4.8v-18h4.6Z"/>
    <path class="cls-8" d="M310.7,560.2c-2.6,0-4.8-.8-6.4-2.4-1.6-1.6-2.5-3.8-2.5-6.5v-.5c0-1.8.4-3.4,1-4.8.7-1.4,1.7-2.5,3-3.3s2.7-1.2,4.4-1.2c2.5,0,4.4.8,5.8,2.3s2.1,3.8,2.1,6.6v2h-11.4c.1,1.2.6,2.1,1.4,2.8s1.8,1.1,3,1.1c1.9,0,3.3-.7,4.3-2l2.4,2.6c-.7,1-1.7,1.8-2.9,2.4s-2.6.9-4.1.9h-.1ZM310.2,545.5c-1,0-1.7.3-2.3,1-.6.7-1,1.6-1.1,2.8h6.7v-.4c0-1.1-.3-1.9-.9-2.5-.5-.6-1.3-.9-2.4-.9h0Z"/>
    <path class="cls-8" d="M326.6,537.5v4.4h3.1v3.5h-3.1v9c0,.7.1,1.1.4,1.4s.7.4,1.5.4,1,0,1.4-.1v3.6c-.9.3-1.9.4-2.9.4-3.4,0-5.1-1.7-5.1-5.1v-9.7h-2.6v-3.5h2.6v-4.4h4.8l-.1.1Z"/>
    <path class="cls-8" d="M348,553.3l2.4-11.4h4.6l-4.6,18h-4l-3.4-11.3-3.4,11.3h-4l-4.6-18h4.6l2.3,11.4,3.3-11.4h3.5l3.3,11.4h0Z"/>
    <path class="cls-8" d="M356.6,550.7c0-1.8.3-3.4,1-4.8s1.7-2.5,3-3.2c1.3-.8,2.8-1.2,4.5-1.2,2.4,0,4.4.7,5.9,2.2s2.4,3.5,2.6,6v1.2c0,2.8-.7,5-2.3,6.6-1.5,1.7-3.6,2.5-6.2,2.5s-4.7-.8-6.2-2.5-2.3-3.9-2.3-6.8v-.2h0v.2ZM361.4,551.1c0,1.7.3,3,1,3.9.6.9,1.6,1.4,2.8,1.4s2.1-.5,2.7-1.3,1-2.3,1-4.3-.3-3-1-3.9c-.6-.9-1.6-1.4-2.8-1.4s-2.1.5-2.7,1.4-1,2.3-1,4.2h0Z"/>
    <path class="cls-8" d="M386.6,546.4c-.6,0-1.2-.1-1.7-.1-1.8,0-3,.6-3.6,1.8v11.8h-4.8v-18h4.5v2.1c1.1-1.7,2.4-2.5,4.1-2.5s1,0,1.5.2v4.6h0v.1Z"/>
    <path class="cls-8" d="M395.5,552.7l-1.7,1.7v5.5h-4.8v-25.5h4.8v14.1l.9-1.2,4.6-5.4h5.8l-6.5,7.5,7.1,10.5h-5.5l-4.6-7.2h-.1Z"/>
    <path class="cls-8" d="M416.8,554.9c0-.6-.3-1-.9-1.4s-1.5-.6-2.8-.9c-4.3-.9-6.4-2.7-6.4-5.5s.7-2.9,2-4,3-1.6,5.2-1.6,4.1.5,5.5,1.6,2,2.5,2,4.2h-4.8c0-.7-.2-1.2-.7-1.7s-1.1-.7-2.1-.7-1.4.2-1.9.5c-.4.4-.7.8-.7,1.4s.2,1,.8,1.3c.5.3,1.4.6,2.5.8,1.2.2,2.2.5,3,.8,2.5.9,3.8,2.5,3.8,4.8s-.7,3-2.1,4-3.2,1.5-5.5,1.5-2.8-.3-4-.8-2.1-1.3-2.8-2.2c-.7-.9-1-1.9-1-3h4.5c0,.8.4,1.5,1,2s1.4.7,2.4.7,1.6-.2,2.1-.5.7-.8.7-1.4h0l.2.1Z"/>
    <path class="cls-8" d="M237.1,590.8c0-2.5.3-5,1-7.2s1.7-4.3,3-6.1,2.7-3,4.3-3.7l.9,2.6c-1.6,1.2-2.9,3-3.8,5.5s-1.4,5.4-1.4,8.8v.5c0,3.3.5,6.3,1.3,8.8.9,2.5,2.2,4.4,3.8,5.6l-.9,2.5c-1.5-.7-2.9-1.9-4.2-3.6s-2.3-3.7-3-5.9-1-4.6-1.1-7v-.9h0l.1.1Z"/>
    <path class="cls-8" d="M253.5,584.7c1.3-1.5,2.9-2.3,4.8-2.3,3.9,0,5.9,2.3,5.9,6.8v11.5h-4.8v-11.4c0-1-.2-1.8-.7-2.3-.4-.5-1.2-.7-2.2-.7s-2.4.5-3,1.6v12.8h-4.8v-25.5h4.8v9.5h0Z"/>
    <path class="cls-8" d="M267.1,591.5c0-1.8.3-3.4,1-4.8s1.7-2.5,3-3.2c1.3-.8,2.8-1.2,4.5-1.2,2.4,0,4.4.7,5.9,2.2s2.4,3.5,2.6,6v1.2c0,2.8-.7,5-2.3,6.6-1.5,1.7-3.6,2.5-6.2,2.5s-4.7-.8-6.2-2.5-2.3-3.9-2.3-6.8v-.2h0v.2ZM271.9,591.9c0,1.7.3,3,1,3.9.6.9,1.6,1.4,2.8,1.4s2.1-.5,2.7-1.3,1-2.3,1-4.3-.3-3-1-3.9c-.6-.9-1.6-1.4-2.8-1.4s-2.1.5-2.7,1.4-1,2.3-1,4.2h0Z"/>
    <path class="cls-8" d="M302.7,594.2l2.4-11.4h4.6l-4.6,18h-4l-3.4-11.3-3.4,11.3h-4l-4.6-18h4.6l2.3,11.4,3.3-11.4h3.5l3.3,11.4h0Z"/>
    <path class="cls-8" d="M320.4,591.2c0,2.5-.4,4.9-1.1,7.2s-1.8,4.3-3.1,6.1c-1.4,1.8-2.8,3-4.3,3.7l-.9-2.5c1.6-1.2,2.8-3,3.7-5.5s1.4-5.3,1.4-8.5v-.9c0-3.3-.5-6.2-1.4-8.8s-2.2-4.4-3.8-5.7l.9-2.5c1.5.7,2.9,1.8,4.3,3.5,1.3,1.7,2.4,3.7,3.1,6s1.1,4.6,1.1,7.1v.8h.1Z"/>
  </g>
</svg>